<?xml version="1.0" encoding="UTF-8" standalone="no"?>
<!DOCTYPE svg PUBLIC "-//W3C//DTD SVG 1.1//EN" "http://www.w3.org/Graphics/SVG/1.1/DTD/svg11.dtd">
<svg width="100%" height="100%" viewBox="0 0 842 377" version="1.1" xmlns="http://www.w3.org/2000/svg" xmlns:xlink="http://www.w3.org/1999/xlink" xml:space="preserve" xmlns:serif="http://www.serif.com/" style="fill-rule:evenodd;clip-rule:evenodd;stroke-linejoin:round;stroke-miterlimit:2;">
    <g>
        <path d="M82.07,191.78L90.25,197.16C93.53,192.83 96.22,190.61 99.23,190.75C102.89,190.75 108.84,197.04 115.75,197.04C122.66,197.04 127.44,191.89 131.89,183.36L123.82,177.98C120.31,183.13 117.62,184.53 114.82,184.53C110.14,184.53 103.71,178.34 97.28,178.34C91.31,178.34 86.4,182.43 82.08,191.79L82.07,191.78Z" style="fill:rgb(82,131,41);fill-rule:nonzero;"/>
        <path d="M149.12,88.23L149.12,79.42L135.67,87.41L135.67,61.87L128.1,61.87L128.1,91.91L110.77,102.21L110.77,61.87L103.2,61.87L103.2,82.08L67.71,61.87L64.84,61.87L64.84,68.95L103.2,90.8L103.2,120.34L90.06,112.86L90.06,94L90.01,94L90.06,93.91L64.84,79.55L64.84,88.26L82.49,98.31L82.49,108.54L64.84,98.49L64.84,107.2L103.2,129.05L103.2,146.36C81.73,148.28 64.84,166.36 64.84,188.32C64.84,210.28 80.26,226.75 100.36,229.94C100.63,230.71 100.85,231.49 101.05,231.93C101.51,232.94 100.59,248.29 100.34,250.57C100.09,252.85 103.06,258.99 103.67,260.06C104.28,261.12 102.9,265.13 102.37,265.66C101.84,266.19 101.86,268.65 101.58,269.73C100.95,272.15 95.5,278.91 93.46,279.69C93.13,279.82 90.49,279.76 89.31,280.45C88.12,281.14 78.46,280.79 77.51,280.25C76.56,279.71 70.32,278.07 67.68,277.62C67.06,277.51 66.04,276.73 64.85,275.61L64.85,280.61C69,282.09 71.84,284.42 73.26,285.11C74.69,285.81 75.79,287.19 76.3,289.16C76.73,290.83 68.51,294.75 64.86,297.02L64.86,305.8C68.35,302.15 75.07,296.89 76,296.35C77.24,295.63 88.11,289.36 90.18,289.36C92.25,289.36 90.8,295.99 90.53,297.56C90.27,299.13 92.19,309.16 91.14,309.77C90.58,310.09 90.37,312.47 90.3,314.78L96.83,314.78C97.06,313.55 97.36,312.42 97.87,312.3C98.45,312.17 99.6,313.45 100.58,314.78L105.44,314.78C104.64,313.77 103.86,312.88 103.68,312.71C103.29,312.32 100.51,310.13 100.05,308.35C99.59,306.58 96.86,303.74 96.33,303.21C95.8,302.68 96.17,292.8 96.46,291.99C97.22,289.86 99.69,286.82 99.69,285.75C99.69,284.68 104.16,281.4 105.57,281.4C106.98,281.4 109.44,288.17 111.82,289.98C113.72,291.42 117.16,297.85 117.87,298.56C120.02,300.71 120.38,309.07 120.38,311.3C120.38,312.12 120.24,313.41 120.06,314.77L124.19,314.77C124.49,313.24 124.71,311.87 124.81,311.43C125.06,310.32 124.25,304.39 124.81,303.83C125.37,303.27 130.48,304.03 132.66,304.03C134.84,304.03 139.25,301.87 139.9,302.11C141.56,302.72 141.62,304.79 144.31,306.87C145.17,307.53 147,308.41 149.13,309.29L149.13,307.05C146.2,305.08 144.28,299.88 144.56,299.12C144.66,298.85 146.6,297.32 149.13,295.31L149.13,290.81C145.59,293.31 139.28,295.89 137.72,296.79C135.79,297.9 127.3,295.67 125.56,294.66C123.82,293.66 115.73,283.37 114.47,280.58C113.45,278.33 113.36,268.73 113.36,267.46C113.36,266.19 114.57,263.04 115.69,262.4C116.81,261.75 126.83,265.47 128.96,266.7C131.09,267.93 129.87,273.54 131.09,274.75C132.31,275.97 134.01,278.29 134.64,278.65C135.27,279.01 135.35,280.37 135.7,280.37C136.05,280.37 136,277.84 136,277.13C136,276.42 134.57,275.14 133.37,274.45C132.17,273.76 131.97,267.51 132.41,267.26C132.85,267.01 133.9,267.26 135.3,268.07C136.69,268.87 140.01,270.35 142.19,270.35C144.37,270.35 143.51,269.03 142.19,269.03C140.87,269.03 135.93,265.91 135.2,265.48C134.47,265.06 131.76,262.95 129.95,263.2C128.14,263.45 122.23,258.74 119.95,258.29C117.67,257.83 116.91,255.15 116.91,254.29C116.91,253.43 111.87,249.88 111.59,248.97C111.31,248.06 111.87,239.12 112.3,238.69C112.73,238.26 111.95,236.56 113.87,233.37C114.79,231.85 116.49,230.23 118.02,228.96C135.92,224.1 149.13,207.71 149.13,188.29C149.13,166.33 132.24,148.25 110.77,146.33L110.77,110.98L149.13,88.19L149.12,88.23ZM141.55,188.34C141.55,207.4 126.04,222.91 106.98,222.91C87.92,222.91 72.41,207.4 72.41,188.34C72.41,169.28 87.92,153.77 106.98,153.77C126.04,153.77 141.55,169.28 141.55,188.34Z" style="fill:rgb(82,131,41);fill-rule:nonzero;"/>
    </g>
    <g transform="matrix(1,0,0,1,183.13,174.23)">
        <g>
            <path d="M44.108,-4.832L12.391,-4.832L12.391,-25.951L39.433,-25.951L39.433,-30.549L12.391,-30.549L12.391,-50.499L43.407,-50.499L43.407,-55.33L6.936,-55.33L6.936,0L44.108,0L44.108,-4.832Z" style="fill-rule:nonzero;"/>
            <path d="M53.538,-56.889L53.538,-7.403C53.538,-2.494 56.577,0.468 61.409,0.468C63.513,0.468 66.786,-0.156 68.734,-0.935L67.799,-5.221C66.474,-4.754 64.526,-4.286 62.578,-4.286C60.396,-4.286 58.837,-5.143 58.837,-9.196L58.837,-56.889L53.538,-56.889Z" style="fill-rule:nonzero;"/>
            <path d="M92.035,0.779C99.906,0.779 106.842,-3.429 109.336,-9.352L104.738,-10.598C102.79,-6.234 97.568,-3.273 92.269,-3.273C84.476,-3.273 77.93,-9.663 77.229,-18.391L111.985,-18.391C112.063,-18.781 112.063,-19.638 112.063,-20.496C112.063,-31.64 103.881,-41.303 91.957,-41.303C80.268,-41.303 71.696,-31.795 71.696,-20.418C71.696,-8.884 80.268,0.779 92.035,0.779ZM77.073,-22.21C77.618,-30.938 84.086,-37.173 92.035,-37.173C99.984,-37.173 106.374,-31.016 107.076,-22.21L77.073,-22.21Z" style="fill-rule:nonzero;"/>
            <path d="M137.858,0.779C145.651,0.779 152.431,-3.429 154.691,-9.274L149.47,-10.832C148.223,-7.092 142.846,-3.897 137.624,-3.897C129.598,-3.897 122.818,-11.222 122.818,-20.418C122.818,-29.691 129.286,-36.627 137.546,-36.627C142.534,-36.627 146.898,-34.133 149.158,-30.003L154.301,-31.64C151.418,-37.562 145.417,-41.303 137.78,-41.303C125.779,-41.303 117.441,-31.951 117.441,-20.418C117.441,-8.884 126.013,0.779 137.858,0.779Z" style="fill-rule:nonzero;"/>
            <path d="M182.512,-1.948L181.109,-6.234C180.486,-5.845 177.914,-4.442 174.953,-4.442C172.459,-4.442 170.277,-5.845 170.043,-8.806L170.043,-36.393L179.395,-36.393L179.395,-40.602L170.043,-40.602L170.043,-54.317L164.744,-54.317L164.744,-40.602L159.133,-40.602L159.133,-36.393L164.744,-36.393L164.744,-7.325C164.744,-2.104 168.718,0.468 173.316,0.468C177.68,0.468 181.265,-1.403 182.512,-1.948Z" style="fill-rule:nonzero;"/>
        </g>
        <g transform="matrix(1,0,0,1,183.3,0)">
            <path d="M26.107,-35.926L26.107,-40.757C25.561,-40.835 24.782,-40.835 23.769,-40.757C18.547,-40.29 13.638,-36.549 10.832,-30.86L10.832,-40.602L5.845,-40.602L5.845,0L11.144,0L11.144,-25.249C13.326,-31.795 19.015,-35.692 26.107,-35.926Z" style="fill-rule:nonzero;"/>
        </g>
        <g transform="matrix(1,0,0,1,208.63,0)">
            <path d="M23.145,0.779C34.913,0.779 43.329,-8.884 43.329,-20.184C43.329,-31.562 34.835,-41.303 23.145,-41.303C11.534,-41.303 3.039,-31.562 3.039,-20.184C3.039,-8.884 11.378,0.779 23.145,0.779ZM8.416,-20.106C8.416,-29.224 15.118,-36.627 23.145,-36.627C31.25,-36.627 37.952,-29.302 37.952,-20.262C37.952,-11.222 31.25,-3.897 23.145,-3.897C15.04,-3.897 8.416,-11.066 8.416,-20.106Z" style="fill-rule:nonzero;"/>
            <path d="M112.609,0L112.609,-23.769C112.609,-34.367 109.336,-41.303 100.218,-41.303C93.594,-41.303 88.295,-37.718 84.554,-30.86C83.619,-37.017 79.333,-41.303 72.553,-41.303C66.007,-41.303 60.396,-37.64 57.045,-31.406L57.045,-40.602L52.213,-40.602L52.213,0L57.512,0L57.512,-24.86C59.539,-31.795 64.76,-36.471 70.838,-36.471C76.839,-36.471 79.722,-32.263 79.722,-22.678L79.722,0L85.022,0L85.022,-24.782C86.97,-31.64 92.191,-36.471 98.348,-36.471C104.27,-36.471 107.31,-32.107 107.31,-22.678L107.31,0L112.609,0Z" style="fill-rule:nonzero;"/>
            <path d="M120.558,-11.69C120.558,-4.754 126.325,0.779 134.273,0.779C140.274,0.779 146.586,-1.87 150.249,-6.546L150.327,-3.585C150.405,-1.87 151.73,0.078 154.379,0.156C154.847,0.234 155.626,0.156 156.795,0L156.795,-4.208C155.47,-4.286 154.847,-4.91 154.847,-6.39L154.847,-25.171C154.847,-35.224 148.613,-41.303 138.637,-41.303C133.338,-41.303 128.273,-39.433 123.051,-35.848L125.078,-32.107C129.598,-35.224 133.806,-36.861 138.092,-36.861C145.262,-36.861 149.548,-32.497 149.548,-25.639L149.548,-22.21C146.197,-23.379 141.677,-24.08 137.702,-24.08C127.571,-24.08 120.558,-19.171 120.558,-11.69ZM147.755,-8.572C145.339,-5.455 140.586,-3.273 135.52,-3.273C129.286,-3.273 125.623,-7.559 125.623,-12.079C125.623,-17.223 130.689,-20.496 138.326,-20.496C142.144,-20.496 146.041,-19.794 149.548,-18.391L149.548,-12.469C149.548,-11.456 148.924,-9.897 147.755,-8.572Z" style="fill-rule:nonzero;"/>
            <path d="M182.59,0.546C188.435,0.546 194.357,-2.728 197.475,-7.871L197.475,0.156C197.475,8.884 190.773,13.17 182.902,13.17C176.823,13.17 171.134,10.754 167.939,5.611L164.666,8.183C168.251,13.794 173.55,17.378 182.902,17.378C193.734,17.378 202.774,11.456 202.774,0.156L202.774,-40.602L198.02,-40.602L198.02,-32.107C194.435,-37.328 189.37,-41.303 182.434,-41.303C171.29,-41.303 163.575,-31.484 163.575,-20.184C163.575,-9.507 171.446,0.546 182.59,0.546ZM184.071,-3.897C175.654,-3.897 168.952,-11.378 168.952,-20.106C168.952,-28.133 174.407,-36.627 183.447,-36.627C189.292,-36.627 195.215,-32.341 197.475,-26.496L197.475,-13.949C196.539,-8.962 190.383,-3.897 184.071,-3.897Z" style="fill-rule:nonzero;"/>
            <path d="M248.597,0L248.597,-23.769C248.597,-34.445 245.557,-41.303 236.518,-41.303C229.27,-41.303 222.568,-37.328 219.295,-31.406L219.295,-40.602L214.463,-40.602L214.463,0L219.763,0L219.763,-24.86C221.711,-31.562 228.335,-36.471 234.569,-36.471C240.492,-36.471 243.297,-32.263 243.297,-22.678L243.297,0L248.597,0Z" style="fill-rule:nonzero;"/>
        </g>
        <g transform="matrix(1,0,0,1,462.69,0)">
            <path d="M23.379,0.779C31.25,0.779 38.186,-3.429 40.679,-9.352L36.082,-10.598C34.133,-6.234 28.912,-3.273 23.613,-3.273C15.82,-3.273 9.274,-9.663 8.572,-18.391L43.329,-18.391C43.407,-18.781 43.407,-19.638 43.407,-20.496C43.407,-31.64 35.224,-41.303 23.301,-41.303C11.612,-41.303 3.039,-31.795 3.039,-20.418C3.039,-8.884 11.612,0.779 23.379,0.779ZM8.416,-22.21C8.962,-30.938 15.43,-37.173 23.379,-37.173C31.328,-37.173 37.718,-31.016 38.419,-22.21L8.416,-22.21Z" style="fill-rule:nonzero;"/>
        </g>
        <g transform="matrix(1,0,0,1,508.12,0)">
            <path d="M25.327,-1.948L23.925,-6.234C23.301,-5.845 20.729,-4.442 17.768,-4.442C15.274,-4.442 13.092,-5.845 12.858,-8.806L12.858,-36.393L22.21,-36.393L22.21,-40.602L12.858,-40.602L12.858,-54.317L7.559,-54.317L7.559,-40.602L1.948,-40.602L1.948,-36.393L7.559,-36.393L7.559,-7.325C7.559,-2.104 11.534,0.468 16.132,0.468C20.496,0.468 24.08,-1.403 25.327,-1.948Z" style="fill-rule:nonzero;"/>
            <path d="M31.951,-49.096L37.251,-49.096L37.251,-56.889L31.951,-56.889L31.951,-49.096ZM31.951,0L37.251,0L37.251,-40.602L31.951,-40.602L31.951,0Z" style="fill-rule:nonzero;"/>
            <path d="M66.552,0.779C74.345,0.779 81.125,-3.429 83.385,-9.274L78.164,-10.832C76.917,-7.092 71.54,-3.897 66.318,-3.897C58.292,-3.897 51.512,-11.222 51.512,-20.418C51.512,-29.691 57.98,-36.627 66.241,-36.627C71.228,-36.627 75.592,-34.133 77.852,-30.003L82.995,-31.64C80.112,-37.562 74.111,-41.303 66.474,-41.303C54.473,-41.303 46.135,-31.951 46.135,-20.418C46.135,-8.884 54.707,0.779 66.552,0.779Z" style="fill-rule:nonzero;"/>
        </g>
        <g transform="matrix(1,0,0,1,0,86)">
            <path d="M6.936,0L12.391,0L12.391,-25.639L38.419,-25.639L38.419,-30.159L12.391,-30.159L12.391,-50.499L43.251,-50.499L43.251,-55.33L6.936,-55.33L6.936,0Z" style="fill-rule:nonzero;"/>
            <path d="M51.746,-49.096L57.045,-49.096L57.045,-56.889L51.746,-56.889L51.746,-49.096ZM51.746,0L57.045,0L57.045,-40.602L51.746,-40.602L51.746,0Z" style="fill-rule:nonzero;"/>
            <path d="M86.269,0.779C94.139,0.779 101.075,-3.429 103.569,-9.352L98.971,-10.598C97.023,-6.234 91.802,-3.273 86.502,-3.273C78.709,-3.273 72.163,-9.663 71.462,-18.391L106.219,-18.391C106.297,-18.781 106.297,-19.638 106.297,-20.496C106.297,-31.64 98.114,-41.303 86.191,-41.303C74.501,-41.303 65.929,-31.795 65.929,-20.418C65.929,-8.884 74.501,0.779 86.269,0.779ZM71.306,-22.21C71.851,-30.938 78.32,-37.173 86.269,-37.173C94.217,-37.173 100.608,-31.016 101.309,-22.21L71.306,-22.21Z" style="fill-rule:nonzero;"/>
            <path d="M114.713,-56.889L114.713,-7.403C114.713,-2.494 117.752,0.468 122.584,0.468C124.688,0.468 127.961,-0.156 129.909,-0.935L128.974,-5.221C127.649,-4.754 125.701,-4.286 123.753,-4.286C121.571,-4.286 120.012,-5.143 120.012,-9.196L120.012,-56.889L114.713,-56.889Z" style="fill-rule:nonzero;"/>
            <path d="M132.949,-20.184C132.949,-9.274 141.053,0.779 152.353,0.779C158.276,0.779 164.276,-2.572 167.472,-7.871L167.472,-3.897C167.472,-1.87 169.342,0 171.602,0.156C172.303,0.234 172.927,0.156 174.018,0L174.018,-4.208C172.693,-4.286 172.147,-4.91 172.147,-6.39L172.147,-56.889L166.848,-56.889L166.848,-32.107C163.809,-37.173 158.276,-41.303 151.496,-41.303C140.742,-41.303 132.949,-31.64 132.949,-20.184ZM166.848,-13.949C165.991,-8.416 158.821,-3.897 153.522,-3.897C145.028,-3.897 138.404,-11.378 138.404,-20.184C138.404,-28.522 144.093,-36.627 152.821,-36.627C158.432,-36.627 164.822,-32.107 166.848,-26.496L166.848,-13.949Z" style="fill-rule:nonzero;"/>
        </g>
        <g transform="matrix(1,0,0,1,198.18,86)">
            <path d="M3.117,0L39.199,0L39.199,-7.715L13.482,-7.715C15.274,-12.313 18.703,-14.417 26.808,-18.469C31.328,-20.885 38.342,-24.704 38.342,-32.419C38.342,-39.744 32.341,-45.277 22.288,-45.277C12.781,-45.277 5.923,-40.212 3.741,-37.874L9.118,-31.718C11.378,-34.367 15.196,-37.718 20.807,-37.718C26.107,-37.718 29.068,-34.601 29.068,-31.25C29.068,-26.496 22.911,-24.314 15.664,-20.262C5.533,-14.651 3.117,-8.806 3.117,0Z" style="fill:rgb(82,131,41);fill-rule:nonzero;"/>
            <path d="M86.658,-22.833C86.658,-36.549 78.086,-46.524 66.708,-46.524C55.252,-46.524 46.758,-36.549 46.758,-22.833C46.758,-9.118 55.252,0.779 66.708,0.779C78.086,0.779 86.658,-9.118 86.658,-22.833ZM77.93,-22.833C77.93,-13.482 73.254,-7.17 66.708,-7.17C59.928,-7.17 55.33,-13.482 55.33,-22.833C55.33,-32.185 59.928,-38.575 66.708,-38.575C73.254,-38.575 77.93,-32.185 77.93,-22.833Z" style="fill:rgb(82,131,41);fill-rule:nonzero;"/>
            <path d="M93.75,0L129.831,0L129.831,-7.715L104.114,-7.715C105.907,-12.313 109.336,-14.417 117.441,-18.469C121.96,-20.885 128.974,-24.704 128.974,-32.419C128.974,-39.744 122.974,-45.277 112.921,-45.277C103.413,-45.277 96.555,-40.212 94.373,-37.874L99.75,-31.718C102.01,-34.367 105.829,-37.718 111.44,-37.718C116.739,-37.718 119.7,-34.601 119.7,-31.25C119.7,-26.496 113.544,-24.314 106.297,-20.262C96.166,-14.651 93.75,-8.806 93.75,0Z" style="fill:rgb(82,131,41);fill-rule:nonzero;"/>
            <path d="M159.055,9.897L167.627,9.897L167.627,-2.494L174.485,-2.494L174.485,-10.287L167.627,-10.287L167.627,-44.498L161.783,-44.498L135.131,-10.131L135.131,-2.494L159.055,-2.494L159.055,9.897ZM143.859,-10.287L159.99,-31.406L159.99,-10.287L143.859,-10.287Z" style="fill:rgb(82,131,41);fill-rule:nonzero;"/>
        </g>
    </g>
</svg>
