<?xml version="1.0" encoding="UTF-8"?>
<svg id="Layer_9" data-name="Layer 9" xmlns="http://www.w3.org/2000/svg" viewBox="0 0 841.89 376.17">
  <defs>
    <style>
      .cls-1 {
        letter-spacing: 0em;
      }

      .cls-2 {
        font-family: Raleway-SemiBold, Raleway;
        font-weight: 600;
      }

      .cls-2, .cls-3 {
        fill: #afc944;
      }

      .cls-4 {
        letter-spacing: 0em;
      }

      .cls-5 {
        font-size: 77.93px;
      }

      .cls-6 {
        letter-spacing: -.03em;
      }

      .cls-7 {
        fill: #fff;
        font-family: Raleway-Regular, Raleway;
      }
    </style>
  </defs>
  <g>
    <path class="cls-3" d="M82.07,191.78l8.18,5.38c3.28-4.33,5.97-6.55,8.98-6.41,3.66,0,9.61,6.29,16.52,6.29s11.69-5.15,16.14-13.68l-8.07-5.38c-3.51,5.15-6.2,6.55-9,6.55-4.68,0-11.11-6.19-17.54-6.19-5.97,0-10.88,4.09-15.2,13.45Z"/>
    <path class="cls-3" d="M149.12,88.23v-8.81l-13.45,7.99v-25.54s-7.57,0-7.57,0v30.04s-17.33,10.3-17.33,10.3V61.87h-7.57v20.21l-35.49-20.21h-2.87v7.08l38.36,21.85v29.54l-13.14-7.48v-18.86s-.05,0-.05,0l.05-.09-25.22-14.36v8.71l17.65,10.05v10.23l-17.65-10.05v8.71l38.36,21.85v17.31c-21.47,1.92-38.36,20-38.36,41.96s15.42,38.43,35.52,41.62c.27,.77,.49,1.55,.69,1.99,.46,1.01-.46,16.36-.71,18.64-.25,2.28,2.72,8.42,3.33,9.49,.61,1.06-.77,5.07-1.3,5.6-.53,.53-.51,2.99-.79,4.07-.63,2.42-6.08,9.18-8.12,9.96-.33,.13-2.97,.07-4.15,.76-1.19,.69-10.85,.34-11.8-.2s-7.19-2.18-9.83-2.63c-.62-.11-1.64-.89-2.83-2.01v5c4.15,1.48,6.99,3.81,8.41,4.5,1.43,.7,2.53,2.08,3.04,4.05,.43,1.67-7.79,5.59-11.44,7.86v8.78c3.49-3.65,10.21-8.91,11.14-9.45,1.24-.72,12.11-6.99,14.18-6.99s.62,6.63,.35,8.2c-.26,1.57,1.66,11.6,.61,12.21-.56,.32-.77,2.7-.84,5.01h6.53c.23-1.23,.53-2.36,1.04-2.48,.58-.13,1.73,1.15,2.71,2.48h4.86c-.8-1.01-1.58-1.9-1.76-2.07-.39-.39-3.17-2.58-3.63-4.36-.46-1.77-3.19-4.61-3.72-5.14s-.16-10.41,.13-11.22c.76-2.13,3.23-5.17,3.23-6.24s4.47-4.35,5.88-4.35,3.87,6.77,6.25,8.58c1.9,1.44,5.34,7.87,6.05,8.58,2.15,2.15,2.51,10.51,2.51,12.74,0,.82-.14,2.11-.32,3.47h4.13c.3-1.53,.52-2.9,.62-3.34,.25-1.11-.56-7.04,0-7.6s5.67,.2,7.85,.2,6.59-2.16,7.24-1.92c1.66,.61,1.72,2.68,4.41,4.76,.86,.66,2.69,1.54,4.82,2.42v-2.24c-2.93-1.97-4.85-7.17-4.57-7.93,.1-.27,2.04-1.8,4.57-3.81v-4.5c-3.54,2.5-9.85,5.08-11.41,5.98-1.93,1.11-10.42-1.12-12.16-2.13-1.74-1-9.83-11.29-11.09-14.08-1.02-2.25-1.11-11.85-1.11-13.12s1.21-4.42,2.33-5.06c1.12-.65,11.14,3.07,13.27,4.3,2.13,1.23,.91,6.84,2.13,8.05,1.22,1.22,2.92,3.54,3.55,3.9,.63,.36,.71,1.72,1.06,1.72s.3-2.53,.3-3.24-1.43-1.99-2.63-2.68c-1.2-.69-1.4-6.94-.96-7.19,.44-.25,1.49,0,2.89,.81,1.39,.8,4.71,2.28,6.89,2.28s1.32-1.32,0-1.32-6.26-3.12-6.99-3.55c-.73-.42-3.44-2.53-5.25-2.28s-7.72-4.46-10-4.91c-2.28-.46-3.04-3.14-3.04-4s-5.04-4.41-5.32-5.32c-.28-.91,.28-9.85,.71-10.28s-.35-2.13,1.57-5.32c.92-1.52,2.62-3.14,4.15-4.41,17.9-4.86,31.11-21.25,31.11-40.67,0-21.96-16.89-40.04-38.36-41.96v-35.35l38.36-22.79Zm-7.57,100.11c0,19.06-15.51,34.57-34.57,34.57s-34.57-15.51-34.57-34.57,15.51-34.57,34.57-34.57,34.57,15.51,34.57,34.57Z"/>
  </g>
  <text class="cls-5" transform="translate(183.13 174.23)"><tspan class="cls-7"><tspan x="0" y="0">Elect</tspan><tspan class="cls-6" x="183.3" y="0">r</tspan><tspan x="208.63" y="0">omagn</tspan><tspan class="cls-1" x="462.69" y="0">e</tspan><tspan class="cls-4" x="508.12" y="0">tic </tspan></tspan><tspan class="cls-7" x="0" y="86">Field </tspan><tspan class="cls-2" x="198.18" y="86">2024</tspan></text>
</svg>