<svg xmlns="http://www.w3.org/2000/svg" viewBox="0 0 24 24"><path fill="white" fill-rule="evenodd" d="M19.601375 7.620275a.48109965.48109965 0 0 0-.728706-.4124628l-4.082291 2.449118v-1.395189a1.1225659 1.1225659 0 0 0-1.122566-1.1225659H5.3287515a1.1225659 1.1225659 0 0 0-1.122566 1.1225659v7.0561278c0 .619657.5029096 1.122566 1.122566 1.122566h8.3390605a1.1225659 1.1225659 0 0 0 1.122566-1.122566V13.92268l4.082291 2.449118a.48109965.48109965 0 0 0 .728706-.412462zm-4.810997 5.179839 3.848798 2.309278V8.4702177l-3.848798 2.3092783Zm-.962199-2.293241V8.2617412a.16036655.16036655 0 0 0-.160367-.1603666H5.3287515a.16036655.16036655 0 0 0-.1603666.1603666v7.0561278c0 .08853.071844.160367.1603666.160367h8.3390605a.16036655.16036655 0 0 0 .160367-.160367z"/><path fill="maroon" fill-rule="evenodd" d="M12 1C5.925 1 1 5.925 1 12s4.925 11 11 11 11-4.925 11-11S18.075 1 12 1zM2.5 12A9.5 9.5 0 0 1 12 2.5c2.353 0 4.507.856 6.166 2.273L4.773 18.166A9.462 9.462 0 0 1 2.5 12zm3.334 7.227A9.462 9.462 0 0 0 12 21.5a9.5 9.5 0 0 0 9.5-9.5 9.462 9.462 0 0 0-2.273-6.166L5.834 19.227z"/>
</svg>
