<?xml version="1.0" encoding="UTF-8" standalone="no"?>
<svg
   xmlns:dc="http://purl.org/dc/elements/1.1/"
   xmlns:cc="http://creativecommons.org/ns#"
   xmlns:rdf="http://www.w3.org/1999/02/22-rdf-syntax-ns#"
   xmlns:svg="http://www.w3.org/2000/svg"
   xmlns="http://www.w3.org/2000/svg"
   id="svg4952"
   version="1.1"
   viewBox="0 0 9.0438109 25.882952"
   height="25.882952mm"
   width="9.0438108mm">
  <defs
     id="defs4946" />
  <metadata
     id="metadata4949">
    <rdf:RDF>
      <cc:Work
         rdf:about="">
        <dc:format>image/svg+xml</dc:format>
        <dc:type
           rdf:resource="http://purl.org/dc/dcmitype/StillImage" />
        <dc:title></dc:title>
      </cc:Work>
    </rdf:RDF>
  </metadata>
  <g
     transform="translate(-31.729642,-479.09423)"
     id="layer1">
    <g
       transform="matrix(0.35277777,0,0,-0.35277777,36.257192,495.85647)"
       id="g4331">
      <path
         id="path4333"
         style="fill:#171717;fill-opacity:1;fill-rule:nonzero;stroke:none"
         d="m 0,0 c -5.804,0 -10.58,4.942 -10.58,10.713 0,5.771 4.776,10.646 10.58,10.646 5.737,0 10.481,-4.875 10.481,-10.646 C 10.481,4.942 5.737,0 0,0 M 1.094,23.447 V 47.515 H -1.127 V 23.447 c -6.566,-0.564 -11.707,-6.035 -11.707,-12.734 0,-6.667 5.141,-12.237 11.707,-12.802 v -23.765 h 2.221 v 23.765 c 6.501,0.529 11.708,6.135 11.708,12.802 0,6.73 -5.207,12.204 -11.708,12.734" />
    </g>
    <g
       transform="matrix(0.35277777,0,0,-0.35277777,35.461961,492.38158)"
       id="g4335">
      <path
         id="path4337"
         style="fill:#171717;fill-opacity:1;fill-rule:nonzero;stroke:none"
         d="m 0,0 c -0.796,0 -1.559,-0.631 -2.489,-1.857 l -2.321,1.525 c 1.228,2.654 2.62,3.815 4.313,3.815 1.823,0 3.647,-1.757 4.974,-1.757 0.795,0 1.558,0.397 2.553,1.857 L 9.319,2.058 C 8.058,-0.364 6.766,-1.824 4.742,-1.824 2.784,-1.824 1.094,0 0,0" />
    </g>
  </g>
</svg>
