<?xml version="1.0" encoding="UTF-8" standalone="no"?>
<!-- Created with Inkscape (http://www.inkscape.org/) -->

<svg
   xmlns:dc="http://purl.org/dc/elements/1.1/"
   xmlns:cc="http://creativecommons.org/ns#"
   xmlns:rdf="http://www.w3.org/1999/02/22-rdf-syntax-ns#"
   xmlns:svg="http://www.w3.org/2000/svg"
   xmlns="http://www.w3.org/2000/svg"
   xmlns:sodipodi="http://sodipodi.sourceforge.net/DTD/sodipodi-0.dtd"
   xmlns:inkscape="http://www.inkscape.org/namespaces/inkscape"
   id="svg2"
   version="1.1"
   inkscape:version="0.47 r22583"
   width="1052.3625"
   height="744.1"
   xml:space="preserve"
   sodipodi:docname="Logos.pdf"><metadata
     id="metadata8"><rdf:RDF><cc:Work
         rdf:about=""><dc:format>image/svg+xml</dc:format><dc:type
           rdf:resource="http://purl.org/dc/dcmitype/StillImage" /><dc:title></dc:title></cc:Work></rdf:RDF></metadata><defs
     id="defs6"><inkscape:perspective
       sodipodi:type="inkscape:persp3d"
       inkscape:vp_x="0 : 0.5 : 1"
       inkscape:vp_y="0 : 1000 : 0"
       inkscape:vp_z="1 : 0.5 : 1"
       inkscape:persp3d-origin="0.5 : 0.33333333 : 1"
       id="perspective10" /><clipPath
       clipPathUnits="userSpaceOnUse"
       id="clipPath46"><path
         d="m 0,595.28 841.89,0 L 841.89,0 0,0 0,595.28 z"
         id="path48" /></clipPath></defs><sodipodi:namedview
     pagecolor="#ffffff"
     bordercolor="#666666"
     borderopacity="1"
     objecttolerance="10"
     gridtolerance="10"
     guidetolerance="10"
     inkscape:pageopacity="0"
     inkscape:pageshadow="2"
     inkscape:window-width="1358"
     inkscape:window-height="742"
     id="namedview4"
     showgrid="false"
     inkscape:zoom="0.83825303"
     inkscape:cx="440.85465"
     inkscape:cy="304.9261"
     inkscape:window-x="0"
     inkscape:window-y="0"
     inkscape:window-maximized="0"
     inkscape:current-layer="g12" /><g
     id="g12"
     inkscape:groupmode="layer"
     inkscape:label="Logos"
     transform="matrix(1.25,0,0,-1.25,0,744.1)"><path
       d="m 317.979,566.108 -22.642,0 0,22.642 22.642,0 0,-22.642 z"
       style="fill:#00adef;fill-opacity:1;fill-rule:nonzero;stroke:none"
       id="path14" /><path
       d="m 341.774,566.108 -22.642,0 0,22.642 22.642,0 0,-22.642 z"
       style="fill:#33bdf2;fill-opacity:1;fill-rule:nonzero;stroke:none"
       id="path16" /><path
       d="m 365.569,566.108 -22.642,0 0,22.642 22.642,0 0,-22.642 z"
       style="fill:#66cef5;fill-opacity:1;fill-rule:nonzero;stroke:none"
       id="path18" /><path
       d="m 389.364,566.108 -22.642,0 0,22.642 22.642,0 0,-22.642 z"
       style="fill:#99def9;fill-opacity:1;fill-rule:nonzero;stroke:none"
       id="path20" /><path
       d="m 413.159,566.108 -22.643,0 0,22.642 22.643,0 0,-22.642 z"
       style="fill:#cceffc;fill-opacity:1;fill-rule:nonzero;stroke:none"
       id="path22" /><path
       d="m 436.953,566.108 -22.642,0 0,22.642 22.642,0 0,-22.642 z"
       style="fill:#ffffff;fill-opacity:1;fill-rule:nonzero;stroke:none"
       id="path24" /><path
       d="m 75.263,566.108 -22.642,0 0,22.642 22.642,0 0,-22.642 z"
       style="fill:#231f20;fill-opacity:1;fill-rule:nonzero;stroke:none"
       id="path26" /><path
       d="m 99.058,566.108 -22.642,0 0,22.642 22.642,0 0,-22.642 z"
       style="fill:#4f4c4d;fill-opacity:1;fill-rule:nonzero;stroke:none"
       id="path28" /><path
       d="m 122.852,566.108 -22.642,0 0,22.642 22.642,0 0,-22.642 z"
       style="fill:#7b7979;fill-opacity:1;fill-rule:nonzero;stroke:none"
       id="path30" /><path
       d="m 146.647,566.108 -22.642,0 0,22.642 22.642,0 0,-22.642 z"
       style="fill:#a7a5a6;fill-opacity:1;fill-rule:nonzero;stroke:none"
       id="path32" /><path
       d="m 170.441,566.108 -22.642,0 0,22.642 22.642,0 0,-22.642 z"
       style="fill:#d3d2d2;fill-opacity:1;fill-rule:nonzero;stroke:none"
       id="path34" /><path
       d="m 194.236,566.108 -22.642,0 0,22.642 22.642,0 0,-22.642 z"
       style="fill:#ffffff;fill-opacity:1;fill-rule:nonzero;stroke:none"
       id="path36" /><path
       d="m 508.084,227.906 -455.463,0 0,163.845 455.463,0 0,-163.845 z"
       style="fill:#231f20;fill-opacity:1;fill-rule:nonzero;stroke:none"
       id="path38" /><path
       d="m 508.084,23.703 -455.463,0 0,163.845 455.463,0 0,-163.845 z"
       style="fill:#00adef;fill-opacity:1;fill-rule:nonzero;stroke:none"
       id="path40" /><rect
       style="fill:#ffffff;fill-opacity:1;fill-rule:evenodd;stroke:none"
       id="rect2904"
       width="44.298042"
       height="44.298042"
       x="528.50549"
       y="-437.71637"
       transform="scale(1,-1)"
       rx="35.271549"
       ry="35.271549"
       inkscape:export-filename="/home/jasper/personal/lhs/camp/Website/static/images/newfavicon32.png"
       inkscape:export-xdpi="52.009998"
       inkscape:export-ydpi="52.009998" /><path
       id="path52"
       style="fill:#231f20;fill-opacity:1;fill-rule:nonzero;stroke:none"
       d="m 550.68096,432.63777 c -9.27783,0 -16.9117,-7.79356 -16.9117,-17.01652 0,-9.22394 7.63387,-17.12332 16.9117,-17.12332 9.17005,0 16.752,7.89938 16.752,17.12332 0,9.22296 -7.58195,17.01652 -16.752,17.01652 m -1.80266,-37.47966 c -10.49658,0.90133 -18.7124,9.80785 -18.7124,20.46314 0,10.70819 8.21582,19.45501 18.7124,20.35536 l 3.55143,0 c 10.39077,-0.84744 18.71338,-9.59426 18.71338,-20.35536 0,-10.65529 -8.32261,-19.61471 -18.71338,-20.46314 l -3.55143,0 z m -1.80266,19.08567 c -1.27264,0 -2.4914,-1.0091 -3.97565,-2.96949 l -3.71113,2.43849 c 1.96235,4.24115 4.18824,6.09573 6.89223,6.09573 2.91463,0 5.83122,-2.80882 7.9513,-2.80882 1.27264,0 2.49238,0.63583 4.08146,2.96851 l 3.65725,-2.43849 c -2.0133,-3.86984 -4.08146,-6.20252 -7.31449,-6.20252 -3.12821,0 -5.83122,2.91659 -7.58097,2.91659"
       sodipodi:nodetypes="csssccsccscccccssccsc"
       inkscape:export-filename="/home/jasper/personal/lhs/camp/Website/static/images/newfavicon32.png"
       inkscape:export-xdpi="52.009998"
       inkscape:export-ydpi="52.009998" /><g
       id="g54"
       transform="translate(334.9253,509.3535)"><path
         d="m 0,0 c -9.47,0 -17.262,-7.955 -17.262,-17.369 0,-9.415 7.792,-17.478 17.262,-17.478 9.36,0 17.099,8.063 17.099,17.478 C 17.099,-7.955 9.36,0 0,0 m 1.785,-77.028 -3.625,0 0,38.772 c -10.714,0.92 -19.1,10.011 -19.1,20.887 0,10.93 8.386,19.858 19.1,20.777 l 0,39.268 3.625,0 0,-39.268 c 10.606,-0.865 19.101,-9.793 19.101,-20.777 0,-10.876 -8.495,-20.021 -19.101,-20.887 l 0,-38.772 z m -5.465,58.253 c -1.299,0 -2.543,-1.03 -4.058,-3.031 l -3.788,2.489 c 2.003,4.329 4.275,6.222 7.035,6.222 2.975,0 5.952,-2.867 8.116,-2.867 1.299,0 2.544,0.649 4.166,3.03 l 3.733,-2.489 c -2.055,-3.95 -4.166,-6.331 -7.466,-6.331 -3.193,0 -5.952,2.977 -7.738,2.977 m 107.149,21.352 23.076,0 0,-4.669 -18.142,0 0,-12.89 15.385,0 0,-4.721 -15.385,0 0,-17.507 -4.934,0 0,39.787 z m -44.156,0 4.987,0 12.679,-22.546 13.104,22.546 4.986,0 0,-39.787 -4.986,0 0,30.45 -11.247,-19.044 -4.244,0 -10.292,18.567 0,-29.973 -4.987,0 0,39.787 z m -31.055,0 23.66,0 0,-4.669 -18.779,0 0,-12.2 16.02,0 0,-4.668 -16.02,0 0,-13.581 19.575,0 0,-4.669 -24.456,0 0,39.787 z"
         style="fill:#05a1e6;fill-opacity:1;fill-rule:nonzero;stroke:none"
         id="path56" /></g><g
       id="g58"
       transform="translate(125.1689,122.7686)"><path
         d="m 0,0 c -9.47,0 -17.262,-7.955 -17.262,-17.369 0,-9.416 7.792,-17.479 17.262,-17.479 9.36,0 17.099,8.063 17.099,17.479 C 17.099,-7.955 9.36,0 0,0 m 1.785,-77.029 -3.625,0 0,38.773 c -10.714,0.92 -19.1,10.01 -19.1,20.887 0,10.93 8.386,19.857 19.1,20.777 l 0,39.268 3.625,0 0,-39.268 c 10.606,-0.865 19.101,-9.794 19.101,-20.777 0,-10.877 -8.495,-20.022 -19.101,-20.887 l 0,-38.773 z m -5.465,58.254 c -1.299,0 -2.543,-1.03 -4.058,-3.032 l -3.788,2.489 c 2.003,4.33 4.275,6.222 7.035,6.222 2.975,0 5.952,-2.867 8.116,-2.867 1.299,0 2.544,0.649 4.166,3.03 l 3.733,-2.489 c -2.055,-3.949 -4.166,-6.33 -7.466,-6.33 -3.193,0 -5.952,2.977 -7.738,2.977 m 107.15,21.351 23.076,0 0,-4.668 -18.143,0 0,-12.89 15.384,0 0,-4.721 -15.384,0 0,-17.508 -4.933,0 0,39.787 z m -44.157,0 4.987,0 12.679,-22.545 13.103,22.545 4.986,0 0,-39.787 -4.986,0 0,30.451 -11.246,-19.045 -4.244,0 -10.292,18.567 0,-29.973 -4.987,0 0,39.787 z m -31.055,0 23.66,0 0,-4.668 -18.779,0 0,-12.201 16.02,0 0,-4.668 -16.02,0 0,-13.58 19.575,0 0,-4.67 -24.456,0 0,39.787 z"
         style="fill:#231f20;fill-opacity:1;fill-rule:nonzero;stroke:none"
         id="path60" /></g><g
       id="g62"
       transform="translate(334.9253,122.7686)"><path
         d="m 0,0 c -9.47,0 -17.262,-7.955 -17.262,-17.369 0,-9.416 7.792,-17.479 17.262,-17.479 9.36,0 17.099,8.063 17.099,17.479 C 17.099,-7.955 9.36,0 0,0 m 1.785,-77.029 -3.625,0 0,38.773 c -10.714,0.92 -19.1,10.01 -19.1,20.887 0,10.93 8.386,19.857 19.1,20.777 l 0,39.268 3.625,0 0,-39.268 c 10.606,-0.865 19.101,-9.794 19.101,-20.777 0,-10.877 -8.495,-20.022 -19.101,-20.887 l 0,-38.773 z m -5.465,58.254 c -1.299,0 -2.543,-1.03 -4.058,-3.032 l -3.788,2.489 c 2.003,4.33 4.275,6.222 7.035,6.222 2.975,0 5.952,-2.867 8.116,-2.867 1.299,0 2.544,0.649 4.166,3.03 l 3.733,-2.489 c -2.055,-3.949 -4.166,-6.33 -7.466,-6.33 -3.193,0 -5.952,2.977 -7.738,2.977 m 107.149,21.351 23.076,0 0,-4.668 -18.142,0 0,-12.89 15.385,0 0,-4.721 -15.385,0 0,-17.508 -4.934,0 0,39.787 z m -44.156,0 4.987,0 12.679,-22.545 13.104,22.545 4.986,0 0,-39.787 -4.986,0 0,30.451 -11.247,-19.045 -4.244,0 -10.292,18.567 0,-29.973 -4.987,0 0,39.787 z m -31.055,0 23.66,0 0,-4.668 -18.779,0 0,-12.201 16.02,0 0,-4.668 -16.02,0 0,-13.58 19.575,0 0,-4.67 -24.456,0 0,39.787 z"
         style="fill:#ffffff;fill-opacity:1;fill-rule:nonzero;stroke:none"
         id="path64" /></g><g
       id="g66"
       transform="translate(125.1689,333.1343)"><path
         d="m 0,0 c -9.47,0 -17.262,-7.955 -17.262,-17.369 0,-9.415 7.792,-17.478 17.262,-17.478 9.36,0 17.099,8.063 17.099,17.478 C 17.099,-7.955 9.36,0 0,0 m 1.785,-77.028 -3.625,0 0,38.772 c -10.714,0.92 -19.1,10.011 -19.1,20.887 0,10.93 8.386,19.858 19.1,20.777 l 0,39.268 3.625,0 0,-39.268 c 10.606,-0.865 19.101,-9.793 19.101,-20.777 0,-10.876 -8.495,-20.02 -19.101,-20.887 l 0,-38.772 z m -5.465,58.253 c -1.299,0 -2.543,-1.03 -4.058,-3.031 l -3.788,2.489 c 2.003,4.329 4.275,6.222 7.035,6.222 2.975,0 5.952,-2.867 8.116,-2.867 1.299,0 2.544,0.649 4.166,3.03 l 3.733,-2.489 c -2.055,-3.95 -4.166,-6.331 -7.466,-6.331 -3.193,0 -5.952,2.977 -7.738,2.977 m 107.15,21.352 23.076,0 0,-4.669 -18.143,0 0,-12.89 15.384,0 0,-4.721 -15.384,0 0,-17.506 -4.933,0 0,39.786 z m -44.157,0 4.987,0 12.679,-22.546 13.103,22.546 4.986,0 0,-39.786 -4.986,0 0,30.449 -11.246,-19.044 -4.244,0 -10.292,18.567 0,-29.972 -4.987,0 0,39.786 z m -31.055,0 23.66,0 0,-4.669 -18.779,0 0,-12.2 16.02,0 0,-4.668 -16.02,0 0,-13.581 19.575,0 0,-4.668 -24.456,0 0,39.786 z"
         style="fill:#ffffff;fill-opacity:1;fill-rule:nonzero;stroke:none"
         id="path68" /></g><g
       id="g70"
       transform="translate(334.9253,333.1343)"><path
         d="m 0,0 c -9.47,0 -17.262,-7.955 -17.262,-17.369 0,-9.415 7.792,-17.478 17.262,-17.478 9.36,0 17.099,8.063 17.099,17.478 C 17.099,-7.955 9.36,0 0,0 m 1.785,-77.028 -3.625,0 0,38.772 c -10.714,0.92 -19.1,10.011 -19.1,20.887 0,10.93 8.386,19.858 19.1,20.777 l 0,39.268 3.625,0 0,-39.268 c 10.606,-0.865 19.101,-9.793 19.101,-20.777 0,-10.876 -8.495,-20.02 -19.101,-20.887 l 0,-38.772 z m -5.465,58.253 c -1.299,0 -2.543,-1.03 -4.058,-3.031 l -3.788,2.489 c 2.003,4.329 4.275,6.222 7.035,6.222 2.975,0 5.952,-2.867 8.116,-2.867 1.299,0 2.544,0.649 4.166,3.03 l 3.733,-2.489 c -2.055,-3.95 -4.166,-6.331 -7.466,-6.331 -3.193,0 -5.952,2.977 -7.738,2.977 m 107.149,21.352 23.076,0 0,-4.669 -18.142,0 0,-12.89 15.385,0 0,-4.721 -15.385,0 0,-17.506 -4.934,0 0,39.786 z m -44.156,0 4.987,0 12.679,-22.546 13.104,22.546 4.986,0 0,-39.786 -4.986,0 0,30.449 -11.247,-19.044 -4.244,0 -10.292,18.567 0,-29.972 -4.987,0 0,39.786 z m -31.055,0 23.66,0 0,-4.669 -18.779,0 0,-12.2 16.02,0 0,-4.668 -16.02,0 0,-13.581 19.575,0 0,-4.668 -24.456,0 0,39.786 z"
         style="fill:#05a1e6;fill-opacity:1;fill-rule:nonzero;stroke:none"
         id="path72" /></g></g></svg>