<?xml version="1.0" encoding="UTF-8"?>
<!-- Created with Inkscape (http://www.inkscape.org/) -->
<svg width="512" height="512" version="1.1" viewBox="0 0 135.47 135.47" xmlns="http://www.w3.org/2000/svg">
 <g transform="matrix(14.065 0 0 14.065 -1075.9 -2210)" stroke-width=".265">
  <path d="m81.311 162.95c-0.54174 0-0.98753-0.46128-0.98753-0.99994s0.44579-0.99369 0.98753-0.99369c0.53549 0 0.97829 0.45503 0.97829 0.99369s-0.4428 0.99994-0.97829 0.99994m0.10211-2.1885v-2.2465h-0.20731v2.2465c-0.61286 0.0526-1.0927 0.5633-1.0927 1.1886 0 0.62229 0.47986 1.1422 1.0927 1.1949v2.2182h0.20731v-2.2182c0.6068-0.0494 1.0928-0.57263 1.0928-1.1949 0-0.62818-0.48602-1.1391-1.0928-1.1886"/>
  <path d="m81.1 162.03c-0.0743 0-0.14552 0.0589-0.23232 0.17333l-0.21664-0.14234c0.11462-0.24772 0.24455-0.35609 0.40257-0.35609 0.17016 0 0.34041 0.164 0.46427 0.164 0.0742 0 0.14542-0.0371 0.23829-0.17333l0.21365 0.14234c-0.1177 0.22607-0.2383 0.36234-0.42721 0.36234-0.18276 0-0.3405-0.17025-0.44261-0.17025"/>
 </g>
</svg>
