<?xml version="1.0" encoding="utf-8"?>
<!-- Generator: Adobe Illustrator 24.1.2, SVG Export Plug-In . SVG Version: 6.00 Build 0)  -->
<svg version="1.1" id="Layer_1" xmlns="http://www.w3.org/2000/svg" xmlns:xlink="http://www.w3.org/1999/xlink" x="0px" y="0px"
	 viewBox="0 0 595.3 147.9" style="enable-background:new 0 0 595.3 147.9;" xml:space="preserve">
<style type="text/css">
	.st0{fill:#303030;}
	.st1{fill:url(#SVGID_1_);}
	.st2{fill:url(#SVGID_2_);}
	.st3{fill:url(#SVGID_3_);}
	.st4{fill:url(#SVGID_4_);}
	.st5{fill:url(#SVGID_5_);}
	.st6{fill:url(#SVGID_6_);}
	.st7{fill:url(#SVGID_7_);}
	.st8{fill:url(#SVGID_8_);}
	.st9{fill:url(#SVGID_9_);}
</style>
<g>
	<g>
		<path class="st0" d="M260,41.4c6.4,0,11.8,0.8,16.1,2.4c4.4,1.6,7.9,3.8,10.5,6.7s4.5,6.4,5.6,10.5c1.1,4,1.7,8.5,1.7,13.5V125
			c-2.9,0.7-7.4,1.5-13.5,2.4c-6,0.9-12.8,1.3-20.4,1.3c-4.9,0-9.6-0.4-13.7-1.5c-4.2-0.9-7.6-2.5-10.6-4.6
			c-2.9-2.1-5.2-4.9-6.9-8.3s-2.5-7.6-2.5-12.6c0-4.8,0.9-8.8,2.8-12.1c1.9-3.3,4.4-6,7.5-8.1c3.1-2,6.9-3.6,11.1-4.5
			c4.2-0.9,8.5-1.3,13.2-1.3c2.1,0,4.4,0.1,6.7,0.4c2.4,0.2,4.8,0.7,7.5,1.3v-3.1c0-2.2-0.2-4.4-0.8-6.4c-0.6-2-1.5-3.8-2.8-5.4
			s-3-2.7-5.3-3.6c-2.1-0.9-4.9-1.2-8.2-1.2c-4.5,0-8.5,0.3-12.3,1c-3.7,0.7-6.7,1.3-9.1,2.2l-2.4-15.6c2.5-0.9,6-1.7,10.7-2.6
			C249.7,41.8,254.6,41.4,260,41.4z M261.6,113.4c6,0,10.5-0.3,13.6-0.9V91.1c-1-0.3-2.6-0.7-4.6-0.9c-2-0.3-4.3-0.4-6.7-0.4
			c-2.1,0-4.3,0.1-6.4,0.4s-4.2,0.9-5.8,1.8c-1.8,0.9-3.1,2-4.3,3.6c-1,1.6-1.6,3.5-1.6,5.8c0,4.6,1.5,7.8,4.3,9.4
			C252.8,112.5,256.7,113.4,261.6,113.4z"/>
		<path class="st0" d="M335.8,19.1c0,3.6-1.1,6.5-3.5,8.7s-5.1,3.1-8.3,3.1c-3.3,0-6.1-1-8.4-3.1c-2.4-2.1-3.5-4.9-3.5-8.7
			s1.1-6.6,3.5-8.8c2.4-2.1,5.2-3.1,8.4-3.1c3.1,0,6,1,8.3,3.1C334.6,12.5,335.8,15.4,335.8,19.1z M333.7,127h-19.3V43.5h19.3V127z"
			/>
		<path class="st0" d="M379.8,127c-5.3-10.9-10.8-23.5-16.4-37.8c-5.6-14.2-10.7-29.5-15.3-45.6h20.6c1.1,4.7,2.6,9.7,4,15.1
			c1.6,5.4,3.1,10.8,4.9,16.1c1.8,5.4,3.6,10.6,5.4,15.6c1.9,5.1,3.6,9.6,5.2,13.6c1.6-4,3.3-8.5,5.2-13.6
			c1.8-5.1,3.6-10.2,5.4-15.6s3.5-10.8,5.1-16.1c1.6-5.4,3-10.3,4.2-15.1H428c-4.6,16.3-9.7,31.5-15.3,45.6
			c-5.6,14.2-11.1,26.8-16.4,37.8H379.8z"/>
		<path class="st0" d="M432.4,85.6c0-7.3,1.1-13.7,3.3-19.3c2.1-5.5,5.1-10.1,8.7-13.8s7.8-6.4,12.5-8.3c4.7-1.9,9.4-2.8,14.4-2.8
			c11.5,0,20.5,3.6,26.9,10.7s9.7,17.8,9.7,31.9c0,1,0,2.2-0.1,3.6c0,1.3-0.1,2.5-0.2,3.6h-55c0.6,6.7,2.9,11.9,7.1,15.5
			c4.2,3.7,10.3,5.5,18.2,5.5c4.7,0,9-0.4,12.8-1.2c3.9-0.9,7-1.8,9.2-2.7l2.6,15.7c-1,0.6-2.5,1.1-4.4,1.7s-3.9,1.1-6.4,1.6
			c-2.4,0.4-4.9,0.9-7.8,1.2c-2.8,0.3-5.6,0.4-8.4,0.4c-7.3,0-13.7-1.1-19.1-3.3c-5.4-2.1-9.9-5.2-13.4-9.1s-6.1-8.4-7.9-13.7
			C433.3,97.6,432.4,91.9,432.4,85.6z M488.4,77c0-2.7-0.3-5.2-1.1-7.5c-0.8-2.4-1.8-4.5-3.3-6.2c-1.5-1.8-3.1-3.1-5.3-4.2
			c-2-1-4.5-1.5-7.4-1.5s-5.6,0.6-7.9,1.7c-2.2,1.1-4.2,2.6-5.6,4.4c-1.6,1.8-2.7,3.9-3.6,6.2c-0.9,2.4-1.5,4.7-1.8,7.2L488.4,77
			L488.4,77L488.4,77z"/>
		<path class="st0" d="M524.9,46.2c3.7-1,8.5-2,14.5-3s12.6-1.5,19.8-1.5c6.9,0,12.5,0.9,17.1,2.8c4.6,1.9,8.2,4.5,10.9,7.9
			s4.6,7.4,5.7,12.1c1.1,4.7,1.7,9.9,1.7,15.5v47h-19.3V83.1c0-4.5-0.3-8.3-0.9-11.4c-0.6-3.1-1.6-5.7-2.9-7.6
			c-1.3-1.9-3.1-3.4-5.4-4.3c-2.2-0.9-5.1-1.3-8.3-1.3c-2.5,0-4.9,0.1-7.6,0.4c-2.7,0.3-4.6,0.6-5.8,0.8V127h-19.3V46.2H524.9z"/>
	</g>
	<g>
		<g>
			<linearGradient id="SVGID_1_" gradientUnits="userSpaceOnUse" x1="52.3893" y1="134.8363" x2="132.6124" y2="26.3866">
				<stop  offset="0" style="stop-color:#FF7700"/>
				<stop  offset="0.7423" style="stop-color:#FF3554"/>
			</linearGradient>
			<path class="st1" d="M139.1,99.9c3.1,0,6.2,0.6,9,1.6c4.5-5.2,6.9-10.8,6.9-16.7c0-9.6-6.5-18.8-18.2-26
				C124.2,51.2,107.3,47,89.4,47h0c-18,0-34.8,4.2-47.4,11.9c-11.8,7.2-18.2,16.4-18.2,26c0,5.8,2.4,11.5,6.9,16.7
				c2.9-1,5.9-1.6,9-1.6c7.1,0,13.7,2.7,18.7,7.8c3.5,3.5,5.8,7.8,7,12.4c7.6,1.8,15.7,2.7,24,2.7s16.5-1,24-2.7
				c1.1-4.7,3.5-9,7-12.4C125.4,102.7,132,99.9,139.1,99.9z M89.4,77.9c-8.1,0-14.7-6.6-14.7-14.7h29.4
				C104.1,71.3,97.5,77.9,89.4,77.9z"/>
		</g>
		<g>
			<linearGradient id="SVGID_2_" gradientUnits="userSpaceOnUse" x1="-3.058" y1="93.8205" x2="77.1651" y2="-14.6292">
				<stop  offset="0" style="stop-color:#FF7700"/>
				<stop  offset="0.7423" style="stop-color:#FF3554"/>
			</linearGradient>
			<path class="st2" d="M38.3,52c1.4-0.9,2.9-1.7,4.4-2.4l-0.1,0c-3.7-2.8-8.1-4.1-12.4-4.1c-6.3,0-12.5,2.8-16.6,8.3L12,55.9
				l11.7,8.8C27.3,60,32.2,55.7,38.3,52z"/>
		</g>
		<g>
			<linearGradient id="SVGID_3_" gradientUnits="userSpaceOnUse" x1="6.4712" y1="100.8695" x2="86.6943" y2="-7.5802">
				<stop  offset="0" style="stop-color:#FF7700"/>
				<stop  offset="0.7423" style="stop-color:#FF3554"/>
			</linearGradient>
			<path class="st3" d="M23.8,105.2c-3.9-5-6.4-10.5-7.1-16.3c-0.2-1.3-0.3-2.7-0.3-4c0-6.7,2.2-13.2,6.5-19h-1.5
				c-11.4,0-20.7,9.3-20.7,20.7v2.9l15.4,0c-4,3.3-6.6,8-7.3,13.2c-0.7,5.5,0.7,10.9,4.1,15.3l1.3,1.7c1.2-4.5,3.5-8.6,6.9-12
				C21.8,106.8,22.8,106,23.8,105.2z"/>
		</g>
		<g>
			<linearGradient id="SVGID_4_" gradientUnits="userSpaceOnUse" x1="77.0838" y1="153.1035" x2="157.3069" y2="44.6538">
				<stop  offset="0" style="stop-color:#FF7700"/>
				<stop  offset="0.7423" style="stop-color:#FF3554"/>
			</linearGradient>
			<path class="st4" d="M155,64.7l11.7-8.8l-1.7-2.3c-4.1-5.4-10.3-8.3-16.6-8.3c-4.3,0-8.7,1.4-12.4,4.1l-0.1,0
				c1.5,0.8,3,1.6,4.4,2.4C146.5,55.7,151.4,60,155,64.7z"/>
		</g>
		<g>
			<linearGradient id="SVGID_5_" gradientUnits="userSpaceOnUse" x1="101.9911" y1="171.528" x2="182.2142" y2="63.0783">
				<stop  offset="0" style="stop-color:#FF7700"/>
				<stop  offset="0.7423" style="stop-color:#FF3554"/>
			</linearGradient>
			<path class="st5" d="M178.1,86.5c0-11.4-9.3-20.7-20.7-20.7h-1.5c4.2,5.9,6.5,12.3,6.5,19c0,1.4-0.1,2.7-0.3,4
				c-0.8,5.7-3.2,11.2-7.1,16.3c1,0.8,2,1.6,2.9,2.5c3.4,3.4,5.7,7.5,6.9,12l1.3-1.7c3.4-4.4,4.8-9.8,4.1-15.3
				c-0.7-5.2-3.3-9.8-7.3-13.2l15.4,0V86.5z"/>
		</g>
		<g>
			<linearGradient id="SVGID_6_" gradientUnits="userSpaceOnUse" x1="5.9887" y1="100.5126" x2="86.2118" y2="-7.9371">
				<stop  offset="0" style="stop-color:#FF7700"/>
				<stop  offset="0.7423" style="stop-color:#FF3554"/>
			</linearGradient>
			<path class="st6" d="M64.4,42.2c11.4,0,20.7-9.3,20.7-20.7c0-11.4-9.3-20.7-20.7-20.7c-11.4,0-20.7,9.3-20.7,20.7
				C43.7,32.9,53,42.2,64.4,42.2z M64.4,10.2C64.5,10.2,64.5,10.2,64.4,10.2c-1.4,1.5-2.3,3.5-2.3,5.7c0,4.4,3.6,8,8,8
				c2.2,0,4.2-0.9,5.7-2.4c0,0,0,0.1,0,0.1c0,6.3-5.1,11.4-11.4,11.4c-6.3,0-11.4-5.1-11.4-11.4C53.1,15.2,58.2,10.2,64.4,10.2z"/>
		</g>
		<g>
			<linearGradient id="SVGID_7_" gradientUnits="userSpaceOnUse" x1="38.2041" y1="124.3432" x2="118.4272" y2="15.8935">
				<stop  offset="0" style="stop-color:#FF7700"/>
				<stop  offset="0.7423" style="stop-color:#FF3554"/>
			</linearGradient>
			<path class="st7" d="M114.3,42.2c11.4,0,20.7-9.3,20.7-20.7c0-11.4-9.3-20.7-20.7-20.7c-11.4,0-20.7,9.3-20.7,20.7
				C93.6,32.9,102.8,42.2,114.3,42.2z M114.3,10.2C114.3,10.2,114.3,10.2,114.3,10.2c-1.4,1.5-2.3,3.5-2.3,5.7c0,4.4,3.6,8,8,8
				c2.2,0,4.2-0.9,5.7-2.4c0,0,0,0.1,0,0.1c0,6.3-5.1,11.4-11.4,11.4c-6.3,0-11.4-5.1-11.4-11.4C102.9,15.2,108,10.2,114.3,10.2z"/>
		</g>
		<g>
			<linearGradient id="SVGID_8_" gradientUnits="userSpaceOnUse" x1="39.7311" y1="125.4727" x2="119.9541" y2="17.023">
				<stop  offset="0" style="stop-color:#FF7700"/>
				<stop  offset="0.7423" style="stop-color:#FF3554"/>
			</linearGradient>
			<path class="st8" d="M39.6,105.7c-11.4,0-20.7,9.3-20.7,20.7c0,11.4,9.3,20.7,20.7,20.7c2.4,0,4.7-0.4,6.8-1.2
				c-0.2-0.2-0.4-0.4-0.6-0.6c-6-6-8-13.7-4.5-17.2c3.5-3.5,11.2-1.5,17.2,4.5c0.2,0.2,0.4,0.4,0.6,0.6c0.8-2.1,1.2-4.4,1.2-6.8
				C60.3,115,51.1,105.7,39.6,105.7z"/>
		</g>
		<g>
			<linearGradient id="SVGID_9_" gradientUnits="userSpaceOnUse" x1="104.3899" y1="173.3025" x2="184.6129" y2="64.8528">
				<stop  offset="0" style="stop-color:#FF7700"/>
				<stop  offset="0.7423" style="stop-color:#FF3554"/>
			</linearGradient>
			<path class="st9" d="M139.1,105.7c-11.4,0-20.7,9.3-20.7,20.7c0,2.4,0.4,4.7,1.2,6.8c0.2-0.2,0.4-0.4,0.6-0.6
				c6-6,13.7-8,17.2-4.5c3.5,3.5,1.5,11.2-4.5,17.2c-0.2,0.2-0.4,0.4-0.6,0.6c2.1,0.8,4.4,1.2,6.8,1.2c11.4,0,20.7-9.3,20.7-20.7
				C159.8,115,150.5,105.7,139.1,105.7z"/>
		</g>
	</g>
</g>
</svg>
