<?xml version="1.0" encoding="UTF-8"?>
<svg id="Layer_1" data-name="Layer 1" xmlns="http://www.w3.org/2000/svg" version="1.1" viewBox="0 0 186 60">
  <defs>
    <style>
      .cls-1 {
        fill: #ff323c;
      }

      .cls-1, .cls-2 {
        stroke-width: 0px;
      }

      .cls-2 {
        fill: #fff;
      }
    </style>
  </defs>
  <g>
    <path class="cls-1" d="M104,18.5c3.5,0,5.7.8,7.5,2.1,2.7,2,4.3,5.2,4.3,8.9s-1.7,6.9-4.3,8.9c-1.8,1.3-4.1,2.1-7.5,2.1h-6.9v-21.9h6.9ZM110.1,24.7c-1.2-1.5-3-2.4-5.6-2.4h-3.1v14.4h3.1c2.6,0,4.4-.9,5.6-2.4,1-1.2,1.6-2.9,1.6-4.7,0-1.8-.6-3.5-1.6-4.7Z"/>
    <path class="cls-1" d="M141.1,39.5c0,2.7-.5,4-1.4,5.3-1.4,1.9-3.8,3-6.7,3s-5.8-1.4-7.3-3.1l2.6-2.7c.8.9,2.2,2.2,4.7,2.2s2.4-.4,3.1-1.2c.6-.7.9-1.6.9-3.6h0c-1.2.8-2.5,1.2-4.1,1.2-2.2,0-4.4-1-5.7-2.6-1.2-1.4-1.9-3.2-1.9-5.3,0-4.5,3.3-7.9,7.4-7.9s3.2.6,4.4,1.5v-1.2h3.9v14.3h0ZM137.1,30.5c-.8-1.1-2.2-1.9-3.7-1.9-2.4,0-3.9,2-3.9,4.2s1.7,4.1,4,4.1,2.9-.8,3.7-1.9v-4.5Z"/>
    <path class="cls-1" d="M146.7,18.2c1.4,0,2.5,1.1,2.5,2.4s-1.1,2.4-2.5,2.4-2.5-1.1-2.5-2.4,1.1-2.4,2.5-2.4ZM148.7,40.4h-4.1v-15.1h4.1v15.1Z"/>
    <path class="cls-1" d="M120.6,18.2c1.4,0,2.5,1.1,2.5,2.4s-1.1,2.4-2.5,2.4-2.5-1.1-2.5-2.4,1.1-2.4,2.5-2.4ZM122.7,40.4h-4.1v-15.1h4.1v15.1Z"/>
    <path class="cls-1" d="M161.2,40.4c-.5.2-1.7.3-2.5.3-2.4,0-4.2-.8-5.2-2.2-.8-1-1.1-2.4-1.1-4.5v-13h4.1v4.2h4.2v3.4h-4.2v5.8c0,.9.2,1.5.5,1.9.4.5,1.1.7,2.1.7s1.4,0,1.7-.2l.6,3.4Z"/>
    <path class="cls-1" d="M178.4,40.4h-3.9v-1.2c-1.2,1.1-2.7,1.5-4.2,1.5-2.2,0-4.4-1-5.7-2.6-1.2-1.4-1.9-3.2-1.9-5.3,0-4.5,3.3-7.9,7.4-7.9s3.2.6,4.4,1.5v-1.2h3.9v15.1h0ZM174.3,30.5c-.8-1.1-2.2-1.9-3.7-1.9-2.4,0-3.9,2-3.9,4.2s1.7,4.1,4,4.1,2.9-.8,3.7-1.9v-4.5h0Z"/>
    <path class="cls-1" d="M186,40.4h-4.1v-21.9h4.1v21.9Z"/>
  </g>
  <rect class="cls-1" y="12.2" width="90.8" height="34.5"/>
  <polygon class="cls-2" points="56.4 40.4 51.1 40.4 39.8 27.1 39.8 40.4 34.5 40.4 34.5 18.5 39.8 18.5 51.1 31.7 51.1 18.5 56.4 18.5 56.4 40.4"/>
  <path class="cls-2" d="M73.6,18.5h-10.9v5.3h2.8v11.3h-2.8v5.3h10.9c6,0,10.9-4.9,10.9-10.9s-4.9-10.9-10.9-10.9ZM73.6,35.1h-2.8v-11.3h2.8c3.1,0,5.6,2.5,5.6,5.6,0,3.1-2.5,5.6-5.6,5.6Z"/>
  <path class="cls-2" d="M17.3,18.5c-6,0-10.9,4.9-10.9,10.9v10.9h5.3v-2.8h11.3v2.8h5.3v-10.9c0-6-4.9-10.9-10.9-10.9ZM22.9,32.3h-11.3v-2.8c0-3.1,2.5-5.6,5.6-5.6s5.6,2.5,5.6,5.6v2.8h0Z"/>
</svg>