<svg xmlns="http://www.w3.org/2000/svg" width="153" height="24" fill="none" viewBox="0 0 153 24">
                            <g opacity=".9">
                                <path fill="#A38CFF" d="M51.44 5.31c2.15 0 3.63 1.4 3.63 3.5V21.9h-2.39l-.24-1.85c-.42 1.3-1.57 2-2.93 2h-1.6c-2.18 0-3.44-1.3-3.44-3.5v-2.49c0-2.19 1.35-3.5 3.56-3.5h4.17V9.18c0-1.1-.54-1.65-1.57-1.65h-1.48c-1.03 0-1.57.55-1.57 1.65v1.61H44.8V8.81c0-2.1 1.39-3.5 3.53-3.5h3.11Zm-1 14.57c1.03 0 1.76-.54 1.76-1.6v-3.63h-3.3c-1.05 0-1.56.55-1.56 1.61v2.01c0 1.07.5 1.61 1.57 1.61h1.54ZM65.2 5.31c2.18 0 3.42 1.31 3.42 3.5V21.9h-2.87V9.15c0-1.1-.54-1.62-1.57-1.62h-1.57c-1.06 0-1.72.52-1.72 1.62v12.74h-2.87V5.47h2.5l.19 1.76a2.9 2.9 0 0 1 2.77-1.92h1.73Zm11.68 14.24h1.7v2.34h-2.52c-2.23 0-3.68-1.43-3.68-3.65V7.7h-1.75V5.47h1.75V1.54l2.87-.58v4.5h3.23V7.7h-3.23v10.25c0 1.06.51 1.61 1.63 1.61Zm4.09 2.35V5.46h2.9v16.42h-2.9Zm11.43-2.35h1.7v2.34h-2.52c-2.23 0-3.68-1.43-3.68-3.65V7.7h-1.75V5.47h1.75V1.54l2.87-.58v4.5H94V7.7h-3.23v10.25c0 1.06.51 1.61 1.63 1.61Zm11.28-14.24c2.18 0 3.41 1.31 3.41 3.5V21.9h-2.87V9.15c0-1.1-.54-1.61-1.57-1.61h-1.57c-1.05 0-1.72.51-1.72 1.6V21.9H96.5V.97h2.87v5.87a2.89 2.89 0 0 1 2.6-1.53h1.72Zm16.74 8.59h-7.64v4.31c0 1.1.52 1.61 1.57 1.61h1.63c1.06 0 1.58-.51 1.58-1.6v-2.08h2.86v2.4c0 2.1-1.42 3.5-3.56 3.5h-3.38c-2.12 0-3.57-1.4-3.57-3.5V8.82c0-2.1 1.45-3.5 3.57-3.5h3.38c2.14 0 3.56 1.4 3.56 3.5v5.08Zm-6.07-6.37c-1.05 0-1.57.52-1.57 1.62v2.64h4.78V9.15c0-1.1-.52-1.62-1.58-1.62h-1.63Zm12.16 14.51c-2.11 0-3.53-1.4-3.53-3.5V16.6h2.8v1.61c0 1.1.52 1.61 1.55 1.61h1.66c1.03 0 1.54-.51 1.54-1.6v-1.59c0-.58-.27-1-.9-1.22l-4.42-1.24c-1.39-.34-2.23-1.56-2.23-3.08V8.81c0-2.1 1.42-3.5 3.53-3.5h3.27c2.17 0 3.6 1.4 3.6 3.5v1.89h-2.85V9.15c0-1.1-.51-1.62-1.54-1.62h-1.66c-1.03 0-1.54.52-1.54 1.62v1.3c0 .67.3 1.13.96 1.34l4.05 1.13c1.72.46 2.57 1.37 2.57 3.22v2.4c0 2.1-1.42 3.5-3.6 3.5h-3.26Zm9.55-.14V5.46h2.9v16.42h-2.9Zm9.13.14c-2.12 0-3.53-1.4-3.53-3.5V16.6h2.8v1.61c0 1.1.52 1.61 1.54 1.61h1.67c1.02 0 1.54-.51 1.54-1.6v-1.59c0-.58-.28-1-.9-1.22l-4.42-1.24c-1.39-.34-2.23-1.56-2.23-3.08V8.81c0-2.1 1.41-3.5 3.53-3.5h3.26c2.18 0 3.6 1.4 3.6 3.5v1.89h-2.84V9.15c0-1.1-.52-1.62-1.54-1.62H146c-1.03 0-1.55.52-1.55 1.62v1.3c0 .67.3 1.13.97 1.34l4.05 1.13c1.72.46 2.57 1.37 2.57 3.22v2.4c0 2.1-1.42 3.5-3.6 3.5h-3.26ZM5.53 8.67c0 1.7-.79 2.86-2.15 3.35 1.36.48 2.15 1.64 2.15 3.34v4.69c0 1.1.54 1.64 1.66 1.64h1.57V24H6.41c-2.21 0-3.66-1.43-3.66-3.65v-5.54c0-1.1-.54-1.67-1.63-1.67H0V10.9h1.12c1.09 0 1.63-.58 1.63-1.67V3.65C2.75 1.43 4.2 0 6.4 0h2.35v2.31H7.2c-1.12 0-1.66.55-1.66 1.64v4.72Zm29.99 2.22h1.12v2.25h-1.12c-1.09 0-1.63.58-1.63 1.67v5.54c0 2.22-1.45 3.65-3.69 3.65h-2.32v-2.31h1.54c1.12 0 1.66-.55 1.66-1.64v-4.69c0-1.7.82-2.86 2.15-3.34-1.33-.5-2.15-1.65-2.15-3.35V3.95c0-1.1-.54-1.64-1.66-1.64h-1.54V0h2.32c2.24 0 3.7 1.43 3.7 3.65v5.57c0 1.1.53 1.67 1.62 1.67Z"/>
                                <path fill="#E0D9FF" fill-opacity=".89" d="M18.32 17.28c2.24 0 4.06-2.36 4.06-5.28 0-2.92-1.82-5.28-4.06-5.28-2.24 0-4.06 2.36-4.06 5.28 0 2.92 1.82 5.28 4.06 5.28Z"/>
                                <path fill="#E0D9FF" fill-opacity=".89" d="M10.49 6.32c.09-.15.13-.23.18-.29a.82.82 0 0 1 .9-.24l.3.16 1.65.96c.15.08.22.13.28.18.26.22.36.58.24.9-.02.07-.07.15-.15.3l-.18.29a.82.82 0 0 1-.9.24c-.07-.02-.15-.07-.3-.16l-1.65-.95a2.05 2.05 0 0 1-.28-.18.83.83 0 0 1-.25-.91l.16-.3Zm-.64 5.34-.01.34.01.34c.06.34.33.6.66.66.07.02.16.02.34.02h1.2c.18 0 .27 0 .34-.02a.8.8 0 0 0 .66-.66l.01-.34v-.34a.82.82 0 0 0-.67-.66c-.07-.02-.16-.02-.33-.02h-1.21c-.18 0-.27 0-.34.02a.82.82 0 0 0-.66.66Zm13.74 0-.01.34v.34c.07.34.33.6.67.66.07.02.16.02.33.02h1.21c.18 0 .27 0 .34-.02.33-.06.6-.32.66-.66l.01-.34-.01-.34a.82.82 0 0 0-.66-.66c-.07-.02-.16-.02-.34-.02h-1.2c-.18 0-.27 0-.34.02a.82.82 0 0 0-.66.66Zm-.84 4.04-.15.3a.83.83 0 0 0 .24.91c.06.05.13.1.28.18l1.65.96.3.16c.32.11.68.02.9-.24.05-.06.1-.14.18-.29l.16-.3a.83.83 0 0 0-.25-.9c-.05-.05-.13-.1-.28-.19l-1.65-.95c-.15-.1-.23-.14-.3-.16a.82.82 0 0 0-.9.24l-.18.29Zm-12.26 1.98a2.07 2.07 0 0 1-.16-.3.83.83 0 0 1 .24-.9l.29-.19 1.65-.95c.15-.1.23-.14.3-.16a.82.82 0 0 1 .9.24l.18.29c.08.15.13.23.15.3.12.32.02.68-.24.9-.06.05-.13.1-.28.18l-1.65.96-.3.16a.82.82 0 0 1-.9-.24 1.7 1.7 0 0 1-.18-.29ZM22.6 8l.15.3.18.28c.22.26.58.36.9.24.07-.02.15-.07.3-.16l1.65-.95.28-.18a.83.83 0 0 0 .25-.91l-.16-.3c-.09-.15-.13-.23-.18-.29a.82.82 0 0 0-.9-.24l-.3.16-1.65.96c-.15.08-.22.13-.28.18a.83.83 0 0 0-.24.9Z" opacity=".7"/>
                            </g>
                        </svg>