<?xml version="1.0" encoding="UTF-8" standalone="no"?>
<svg xmlns:dc="http://purl.org/dc/elements/1.1/" xmlns:cc="http://creativecommons.org/ns#" xmlns:rdf="http://www.w3.org/1999/02/22-rdf-syntax-ns#" xmlns:svg="http://www.w3.org/2000/svg" xmlns="http://www.w3.org/2000/svg" width="360" height="77.138" viewBox="0 0 360 77.138" version="1.1" id="svg10">
  <metadata id="metadata16"></metadata>
  <defs id="defs14"></defs>
  <g fill="#64a800" id="g8" transform="translate(0,-1.431)">
    <path d="m 132.31,33.555 c -4.291,4.283 -6.777,9.763 -7.472,15.374 0.7,-5.611 3.186,-11.091 7.489,-15.39 z M 124.498,3.423 v 48.754 h -0.005 c -0.02,12.317 -10,22.303 -22.321,22.327 -4.95,-0.008 -9.495,-1.652 -13.192,-4.384 0.92,-0.989 1.788,-2.034 2.55,-3.155 3.002,2.171 6.663,3.477 10.642,3.477 10.059,-0.005 18.259,-8.203 18.264,-18.268 h 0.003 V 3.423 h -4.06 v 48.751 c -0.014,7.801 -6.409,14.198 -14.208,14.215 -3.253,-0.007 -6.206,-1.196 -8.602,-3.066 0.594,-1.276 1.094,-2.596 1.484,-3.971 1.841,1.827 4.361,2.969 7.118,2.977 5.539,-0.013 10.139,-4.61 10.142,-10.151 V 3.423 h -4.054 v 23.109 c -1.95,-0.468 -3.987,-0.734 -6.085,-0.739 -6.155,0.016 -11.791,2.126 -16.264,5.647 -4.473,-3.511 -10.078,-5.632 -16.211,-5.649 -14.584,0.04 -26.356,11.804 -26.398,26.383 0.005,2.1 0.282,4.134 0.748,6.09 h -5.474 c -4.877,0 -9.406,-2.052 -12.821,-5.497 -3.398,-3.448 -5.46,-8.106 -5.449,-13.042 0.017,-9.938 8.052,-17.978 17.994,-17.994 4.989,0.005 9.414,1.994 12.707,5.252 L 53.869,24.11 C 49.862,20.122 44.396,17.673 38.3,17.673 26.121,17.695 16.266,27.549 16.244,39.725 c -0.008,6.068 2.522,11.73 6.624,15.896 4.115,4.155 9.673,6.702 15.708,6.696 l 6.774,0.004 c 0.594,1.424 1.323,2.777 2.148,4.062 H 38.575 C 24.195,66.354 12.208,54.136 12.183,39.726 12.208,25.308 23.876,13.639 38.299,13.617 c 7.205,0 13.711,2.906 18.438,7.623 l 1.434,-1.438 1.437,-1.436 H 59.603 C 54.151,12.924 46.609,9.554 38.3,9.554 21.632,9.554 8.127,23.062 8.122,39.726 8.147,56.398 21.858,70.411 38.577,70.441 h 12.124 c 1.493,1.551 3.175,2.91 5.005,4.062 H 38.574 C 19.514,74.423 4.124,58.661 4.062,39.727 4.068,20.817 19.389,5.495 38.298,5.495 c 9.414,-0.005 18,3.825 24.171,9.988 l 0.006,0.007 2.865,-2.872 -0.005,-0.006 C 58.443,5.721 48.82,1.426 38.298,1.432 17.137,1.438 0.011,18.573 0,39.725 0.112,60.92 17.173,78.423 38.574,78.561 h 31.021 l 0.104,0.006 h -0.006 c 6.142,-0.017 11.767,-2.131 16.239,-5.64 4.475,3.512 10.103,5.623 16.241,5.637 14.579,-0.041 26.345,-11.806 26.378,-26.39 h 0.008 V 3.423 Z m -22.325,54.844 c -3.287,-0.006 -6.091,-2.808 -6.094,-6.093 0.003,-3.277 2.807,-6.078 6.094,-6.091 3.276,0.013 6.08,2.813 6.08,6.091 h 0.005 c -0.005,3.285 -2.809,6.087 -6.085,6.093 z m 6.086,-27.54 v 4.257 c -1.906,-0.687 -3.951,-1.07 -6.088,-1.075 -10.064,0.007 -18.265,8.206 -18.273,18.266 l 0.005,0.003 C 83.886,59.982 77.491,66.373 69.698,66.39 V 66.383 C 61.891,66.373 55.496,59.982 55.479,52.18 c 0.017,-7.799 6.412,-14.195 14.219,-14.215 3.242,0.012 6.219,1.152 8.613,3.013 -0.605,1.291 -1.108,2.636 -1.501,4.023 -1.845,-1.824 -4.361,-2.967 -7.112,-2.974 -5.547,0.013 -10.148,4.612 -10.159,10.147 0.011,5.547 4.612,10.142 10.159,10.154 5.53,-0.013 10.137,-4.607 10.142,-10.154 l -0.002,-0.016 c 0.039,-12.312 10.014,-22.281 22.333,-22.311 2.115,0.006 4.152,0.321 6.088,0.88 z M 75.784,52.174 c -0.011,3.285 -2.812,6.09 -6.085,6.095 -3.284,-0.005 -6.085,-2.81 -6.097,-6.095 0.011,-3.273 2.812,-6.078 6.097,-6.086 3.273,0.008 6.074,2.809 6.08,6.086 z m -6.091,22.333 0.006,-0.003 C 57.375,74.48 47.386,64.499 47.361,52.174 47.386,39.856 57.375,29.873 69.699,29.848 c 4.941,0.011 9.498,1.645 13.192,4.373 -0.926,0.989 -1.772,2.052 -2.536,3.174 -3.002,-2.181 -6.677,-3.48 -10.656,-3.483 -10.067,0.007 -18.268,8.208 -18.276,18.268 0.008,10.06 8.209,18.258 18.276,18.263 v 0.004 C 79.752,70.438 87.952,62.24 87.958,52.178 v -0.003 c 0.017,-7.797 6.409,-14.193 14.213,-14.204 2.182,0.004 4.238,0.521 6.088,1.412 v 4.771 c -1.705,-1.31 -3.803,-2.122 -6.088,-2.127 -5.544,0.01 -10.14,4.612 -10.156,10.15 l 0.002,0.032 C 91.981,64.514 82.003,74.484 69.693,74.507 Z m 62.637,-3.644 c 5.117,5.123 11.92,7.703 18.613,7.703 h 55.812 V 46.088 h 4.062 v 32.479 h 4.062 V 46.088 h 4.054 v 32.479 h 4.062 V 46.088 h 2.682 c 3.248,0.008 5.977,2.696 5.982,6.091 l -0.006,26.385 h 4.061 l 0.005,-26.381 c -0.005,-5.609 -4.521,-10.142 -10.042,-10.156 h -38.303 v 10.114 c 0.016,5.54 4.614,10.14 10.158,10.149 h 5.168 v 4.06 h -5.168 c -7.81,-0.017 -14.199,-6.406 -14.213,-14.209 V 37.97 h 42.357 c 7.796,0.011 14.1,6.387 14.1,14.215 v 26.382 h 4.059 V 52.185 C 243.819,42.141 235.753,33.916 225.677,33.912 H 183.32 V 3.423 h -4.06 v 48.718 c 0.008,10.062 8.208,18.261 18.272,18.269 h 5.168 v 4.058 h -5.168 C 185.206,74.445 175.225,64.459 175.202,52.142 V 3.423 h -4.062 v 31.619 l -1.501,-1.505 c -5.137,-5.135 -11.95,-7.715 -18.655,-7.707 -6.705,-0.008 -13.521,2.561 -18.655,7.707 l -0.002,0.002 c -4.303,4.299 -6.789,9.778 -7.489,15.39 -0.137,1.088 -0.229,2.181 -0.229,3.273 -0.005,6.704 2.573,13.527 7.715,18.654 v -0.002 m 2.871,-2.87 c -4.347,-4.34 -6.532,-10.098 -6.526,-15.782 -0.005,-5.688 2.179,-11.448 6.529,-15.791 h -0.003 c 4.341,-4.35 10.098,-6.527 15.787,-6.521 5.687,-0.006 11.445,2.174 15.787,6.517 l 4.311,4.307 -17.556,17.556 h -2.539 c -0.923,-0.005 -1.797,-0.217 -2.606,-0.593 l 16.958,-16.963 -1.439,-1.431 c -3.552,-3.558 -8.245,-5.332 -12.916,-5.332 -4.676,0 -9.369,1.774 -12.913,5.332 h -0.003 c -3.555,3.552 -5.335,8.248 -5.335,12.92 0,4.665 1.78,9.362 5.335,12.914 l 0.005,0.003 h -0.005 l 0.003,0.003 0.002,0.002 c 3.552,3.547 8.242,5.327 12.913,5.321 h 27.595 c 1.504,1.561 3.214,2.908 5.065,4.063 l -32.66,-0.002 c -5.689,0.01 -11.442,-2.173 -15.784,-6.513 m 35.941,-21.612 v 5.759 c 0.008,2.116 0.29,4.161 0.759,6.128 h -12.645 z m -20.156,20.009 c -3.655,-0.007 -7.288,-1.378 -10.039,-4.143 h -0.005 v -0.002 c -2.768,-2.768 -4.144,-6.395 -4.144,-10.044 0,-3.654 1.375,-7.285 4.144,-10.051 v 0.003 c 2.754,-2.765 6.384,-4.142 10.042,-4.146 3.008,0.005 6.005,0.941 8.51,2.812 l -13.949,13.97 v 0.085 l -0.039,-0.072 c -0.379,-0.808 -0.586,-1.681 -0.594,-2.601 0.008,-1.613 0.586,-3.121 1.761,-4.307 l 5.7,-5.675 c -0.469,-0.063 -0.918,-0.147 -1.39,-0.147 -2.647,0.004 -5.212,0.983 -7.173,2.951 l 0.003,0.003 -0.003,0.004 c -1.976,1.971 -2.952,4.539 -2.958,7.171 0.005,2.634 0.979,5.195 2.958,7.168 l 0.005,0.011 c 1.962,1.967 4.534,2.941 7.171,2.947 h 22.221 c 0.597,1.426 1.331,2.776 2.157,4.062 h -24.378 z m 46.548,-8.165 c -3.287,-0.004 -6.085,-2.801 -6.094,-6.085 v -6.053 h 11.262 V 58.23 Z m 54.426,7.146 V 27.6 l -4.061,-0.001 V 38.16 C 243.269,30.767 235.109,25.804 225.677,25.791 h -2.682 V 3.466 h -4.062 V 25.79 h -4.054 V 3.466 h -4.062 V 25.79 h -4.062 V 3.466 h -4.054 V 25.79 H 191.439 V 3.464 h -4.057 l -0.003,26.389 h 38.298 c 12.35,0.011 22.193,10.069 22.219,22.33 l 0.002,13.189 v 13.194 h 4.063 z M 256.013,27.6 v -0.001" id="path2"></path>
    <path d="m 256.013,78.566 h 4.062 V 27.598 h -4.062 V 27.6 Z m 2.134,-77.135 c -6.725,0.017 -12.138,5.437 -12.146,12.155 0.008,6.711 5.421,12.137 12.146,12.147 6.724,-0.006 12.143,-5.455 12.143,-12.147 0,-6.7 -5.419,-12.148 -12.143,-12.155 z m 0,20.239 c -4.476,-0.006 -8.083,-3.618 -8.086,-8.089 0.003,-4.468 3.61,-8.082 8.086,-8.086 4.476,0 8.089,3.628 8.089,8.086 0,4.459 -3.613,8.089 -8.089,8.089 z m 0,-12.114 c -2.229,0 -4.021,1.799 -4.021,4.028 0,2.224 1.791,4.028 4.021,4.028 2.23,0 4.028,-1.805 4.028,-4.028 10e-4,-2.222 -1.798,-4.028 -4.028,-4.028 z m 42.52,69.01 h -4.054 m 12.182,0 h -4.066" id="path4"></path>
    <path d="M 300.667,78.566 V 52.174 c -0.006,-5.535 -4.612,-10.138 -10.143,-10.143 -5.544,0.005 -10.146,4.602 -10.153,10.143 v 26.393 h 4.062 V 52.179 c 0.003,-3.282 2.801,-6.083 6.091,-6.091 3.276,0.008 6.08,2.812 6.089,6.091 v 26.388 h 4.054 z M 290.521,37.964 c 7.802,0.02 14.191,6.416 14.208,14.21 v 26.393 h 4.065 l -0.006,-26.393 c -0.012,-10.055 -8.211,-18.256 -18.268,-18.261 -10.066,0.005 -18.259,8.206 -18.272,18.261 v 26.393 h 4.067 V 52.174 c 0.013,-7.794 6.4,-14.191 14.206,-14.21 z M 316.914,3.466 312.852,3.461 V 38.199 C 308.19,30.768 299.956,25.817 290.525,25.791 281.091,25.817 272.86,30.762 268.198,38.186 V 27.599 l -4.057,0.001 v 24.427 l -0.008,0.152 v 26.388 h 4.064 V 52.124 c 0.045,-12.29 10.022,-22.253 22.327,-22.276 12.311,0.029 22.296,10.005 22.324,22.326 l 0.003,26.393 h 4.062 V 3.466 Z m 8.111,75.097 V 3.464 h -4.054 v 75.099 z m 29.336,-26.386 c 3.504,-4.476 5.622,-10.1 5.639,-16.237 l -0.006,-8.34 h -4.06 v 8.343 c -0.02,12.318 -10.005,22.296 -22.318,22.321 v 0.005 h -0.466 v -4.064 h 0.463 v 0.005 h 0.003 c 10.053,-0.014 18.256,-8.215 18.265,-18.267 L 351.875,27.6 h -4.051 l -0.004,8.343 c -0.016,7.794 -6.402,14.187 -14.204,14.201 h -0.466 v -4.061 h 0.466 c 5.532,-0.009 10.134,-4.61 10.142,-10.141 l 0.009,-8.343 h -4.062 v 8.34 c -0.011,3.274 -2.815,6.084 -6.091,6.087 h -0.463 V 3.461 l -4.057,0.005 v 75.101 h 4.057 V 62.322 h 0.463 c 3.275,0.006 6.08,2.812 6.091,6.09 v 10.154 h 4.054 V 68.412 c -0.002,-2.756 -1.148,-5.275 -2.974,-7.116 1.387,-0.393 2.726,-0.899 4.015,-1.506 1.858,2.402 3.011,5.371 3.021,8.622 v 10.157 h 4.061 v -0.003 l -0.006,-10.154 c -0.003,-3.975 -1.297,-7.646 -3.465,-10.651 1.124,-0.762 2.168,-1.628 3.158,-2.551 2.726,3.7 4.361,8.254 4.366,13.202 V 78.566 H 360 L 359.994,68.412 C 359.98,62.275 357.865,56.65 354.361,52.177 Z" id="path6"></path>
  </g>
</svg>
