<svg width="100%" viewBox="0 0 150 28" fill="none" xmlns="http://www.w3.org/2000/svg">
<g clip-path="url(#clip0_1_95)">
<path d="M17.0174 26.7368H19.5105V22.9474H17.0174V26.7368Z" fill="white"/>
<path d="M10.1607 1.28303L7.96955 0L0 14L7.8803 27.8431L10.0714 26.5602L2.92138 14L10.1607 1.28303Z" fill="white"/>
<path d="M28.5956 5.53131e-05L26.4046 1.28309L33.6436 14L26.4046 26.7171L28.5956 28L36.5651 14L28.5956 5.53131e-05Z" fill="white"/>
<path d="M19.5107 1.47368H17.0176V5.26316H19.5107V1.47368Z" fill="white"/>
<path d="M9.73436 12.8421H5.99475V15.3684H9.73436V12.8421Z" fill="white"/>
<path d="M19.8523 12.6316H16.713H15.1234H14.7507V13.8948V15.1579H15.1234H16.713H19.8523H21.4419H21.8144V13.8948V12.6316H21.4419H19.8523Z" fill="white"/>
<path d="M26.9479 15.3684H30.6875V12.8421H26.9479V15.3684Z" fill="white"/>
<path d="M23.2687 14.1053C23.2687 11.3148 21.0363 9.05263 18.2825 9.05263C15.5288 9.05263 13.2964 11.3148 13.2964 14.1053C13.2964 16.8957 15.5288 19.1579 18.2825 19.1579V21.6842C14.1519 21.6842 10.8033 18.291 10.8033 14.1053C10.8033 9.91952 14.1519 6.52632 18.2825 6.52632C22.4131 6.52632 25.7618 9.91952 25.7618 14.1053C25.7618 18.291 22.4131 21.6842 18.2825 21.6842V19.1579C21.0363 19.1579 23.2687 16.8957 23.2687 14.1053Z" fill="white"/>
<path d="M147.742 6.78084H149.829V20.4861H147.742V19.0764C147.008 20.1141 145.868 20.7406 144.361 20.7406C141.733 20.7406 139.55 18.4891 139.55 15.5914C139.55 12.6741 141.733 10.4421 144.361 10.4421C145.868 10.4421 147.008 11.0686 147.742 12.0867V6.78084ZM144.689 18.724C146.428 18.724 147.742 17.4122 147.742 15.5914C147.742 13.7705 146.428 12.4587 144.689 12.4587C142.95 12.4587 141.637 13.7705 141.637 15.5914C141.637 17.4122 142.95 18.724 144.689 18.724Z" fill="white"/>
<path d="M135.987 10.6966H138.074V20.4861H135.987V19.0764C135.253 20.1141 134.113 20.7406 132.606 20.7406C129.979 20.7406 127.795 18.4891 127.795 15.5914C127.795 12.6741 129.979 10.4421 132.606 10.4421C134.113 10.4421 135.253 11.0686 135.987 12.0867V10.6966ZM132.935 18.724C134.674 18.724 135.987 17.4122 135.987 15.5914C135.987 13.7705 134.674 12.4587 132.935 12.4587C131.196 12.4587 129.882 13.7705 129.882 15.5914C129.882 17.4122 131.196 18.724 132.935 18.724Z" fill="white"/>
<path d="M125.286 9.22821C124.551 9.22821 123.952 8.60169 123.952 7.87726C123.952 7.13326 124.551 6.52632 125.286 6.52632C126.02 6.52632 126.619 7.13326 126.619 7.87726C126.619 8.60169 126.02 9.22821 125.286 9.22821ZM124.242 20.4861V10.5263H126.329V20.4861H124.242Z" fill="white"/>
<path d="M119.725 12.3412C120.305 11.0099 121.483 10.5204 122.7 10.5204V12.8111C121.329 12.7132 119.725 13.3593 119.725 15.5522V20.4861H117.638V10.6966H119.725V12.3412Z" fill="white"/>
<path d="M113.904 10.6966H116.126L112.416 20.7994C111.508 23.2859 109.924 24.5389 107.702 24.4019V22.4244C109.054 22.5027 109.788 21.7979 110.271 20.5057L110.368 20.3099L106.272 10.6966H108.552L111.431 17.8038L113.904 10.6966Z" fill="white"/>
<path d="M101.904 10.4421C104.087 10.4421 105.556 11.9693 105.556 14.4166V20.4861H103.469V14.5537C103.469 13.1832 102.735 12.4196 101.595 12.4196C100.358 12.4196 99.4887 13.2223 99.4887 15.004V20.4861H97.402V14.5537C97.402 13.1832 96.7257 12.4196 95.5858 12.4196C94.4072 12.4196 93.4411 13.2223 93.4411 15.004V20.4861H91.3544V10.6966H93.4411V11.8714C94.0594 10.912 95.0061 10.4421 96.2041 10.4421C97.4599 10.4421 98.3874 11.0099 98.9477 11.9888C99.5853 10.9707 100.609 10.4421 101.904 10.4421Z" fill="white"/>
<path d="M81.9588 16.492C82.2873 18.0192 83.5045 18.8023 85.0502 18.8023C86.2095 18.8023 87.0789 18.2737 87.5427 17.5884L89.2623 18.6065C88.3735 19.9379 86.9244 20.7406 85.0309 20.7406C81.8429 20.7406 79.7755 18.5282 79.7755 15.5914C79.7755 12.6937 81.8429 10.4421 84.8763 10.4421C87.7552 10.4421 89.726 12.7916 89.726 15.6109C89.726 15.9046 89.6873 16.2179 89.6487 16.492H81.9588ZM81.9395 14.7691H87.6199C87.3301 13.0853 86.1129 12.3608 84.857 12.3608C83.292 12.3608 82.2293 13.3006 81.9395 14.7691Z" fill="white"/>
<path d="M76.2131 6.78084H78.2998V20.4861H76.2131V19.0764C75.4789 20.1141 74.3389 20.7406 72.8319 20.7406C70.2042 20.7406 68.0209 18.4891 68.0209 15.5914C68.0209 12.6741 70.2042 10.4421 72.8319 10.4421C74.3389 10.4421 75.4789 11.0686 76.2131 12.0867V6.78084ZM73.1603 18.724C74.8993 18.724 76.2131 17.4122 76.2131 15.5914C76.2131 13.7705 74.8993 12.4587 73.1603 12.4587C71.4214 12.4587 70.1076 13.7705 70.1076 15.5914C70.1076 17.4122 71.4214 18.724 73.1603 18.724Z" fill="white"/>
<path d="M61.5742 20.7406C58.7532 20.7406 56.4733 18.4891 56.4733 15.5914C56.4733 12.6741 58.7532 10.4421 61.5742 10.4421C64.4144 10.4421 66.675 12.6741 66.675 15.5914C66.675 18.4891 64.4144 20.7406 61.5742 20.7406ZM61.5742 18.6848C63.2744 18.6848 64.5883 17.3731 64.5883 15.5914C64.5883 13.8097 63.2744 12.4979 61.5742 12.4979C59.8739 12.4979 58.56 13.8097 58.56 15.5914C58.56 17.3731 59.8739 18.6848 61.5742 18.6848Z" fill="white"/>
<path d="M49.5068 20.7406C45.3914 20.7406 42.4352 17.608 42.4352 13.6335C42.4352 9.65895 45.3914 6.52632 49.5068 6.52632C51.98 6.52632 54.1826 7.79895 55.3226 9.796L53.3904 10.9316C52.6755 9.58063 51.2071 8.71916 49.5068 8.71916C46.5893 8.71916 44.6572 10.8141 44.6572 13.6335C44.6572 16.4528 46.5893 18.5478 49.5068 18.5478C51.2071 18.5478 52.6949 17.6863 53.3904 16.3354L55.3226 17.4514C54.2019 19.4484 51.9993 20.7406 49.5068 20.7406Z" fill="white"/>
</g>
<defs>
<clipPath id="clip0_1_95">
<rect width="150" height="28" fill="white"/>
</clipPath>
</defs>
</svg>
