<?xml version="1.0" encoding="UTF-8" standalone="no"?>
<svg xmlns:dc="http://purl.org/dc/elements/1.1/" xmlns:cc="http://creativecommons.org/ns#" xmlns:rdf="http://www.w3.org/1999/02/22-rdf-syntax-ns#" xmlns:svg="http://www.w3.org/2000/svg" xmlns="http://www.w3.org/2000/svg" id="svg1000" version="1.1" viewBox="0 0 92.900642 20.23214" height="20.23214mm" width="92.900642mm">
  <defs id="defs994"></defs>
  <metadata id="metadata997"></metadata>
  <g transform="translate(-27.186193,-63.003687)" id="layer1">
    <path d="m 110.42069,67.318652 c 0.20959,0 0.38222,0.172608 0.38222,0.369884 v 10.850099 c 0,0.209606 -0.17263,0.382221 -0.3699,0.382221 -0.20961,0 -0.36989,-0.172615 -0.36989,-0.369891 V 67.688536 c 0,-0.197269 0.16028,-0.357554 0.35757,-0.369884 z" style="font-style:normal;font-variant:normal;font-weight:normal;font-stretch:normal;font-size:40px;line-height:125%;font-family:Luna;-inkscape-font-specification:Luna;letter-spacing:0px;word-spacing:0px;fill:#2a7fff;fill-opacity:1;stroke:none;stroke-width:0.3082414px;stroke-linecap:butt;stroke-linejoin:miter;stroke-opacity:1" id="path12021-3-99-8-3-5"></path>
    <path d="m 115.06265,67.318652 c 0.2096,0 0.38221,0.172615 0.38221,0.369884 v 10.850101 c 0,0.209604 -0.17261,0.382219 -0.36988,0.382219 -0.20961,0 -0.36989,-0.172615 -0.36989,-0.369891 V 67.688536 c 0,-0.197269 0.16028,-0.357554 0.35756,-0.369884 z" style="font-style:normal;font-variant:normal;font-weight:normal;font-stretch:normal;font-size:40px;line-height:125%;font-family:Luna;-inkscape-font-specification:Luna;letter-spacing:0px;word-spacing:0px;fill:#2a7fff;fill-opacity:1;stroke:none;stroke-width:0.3082414px;stroke-linecap:butt;stroke-linejoin:miter;stroke-opacity:1" id="path12021-6-6-7-9-0"></path>
    <path d="m 117.38364,69.168095 c 0.2096,0 0.38222,0.172615 0.38222,0.369891 v 7.151205 c 0,0.209599 -0.17262,0.382215 -0.36989,0.382215 -0.20961,0 -0.3699,-0.172612 -0.3699,-0.369892 v -7.163528 c 0,-0.197276 0.16029,-0.357561 0.35757,-0.369891 z" style="font-style:normal;font-variant:normal;font-weight:normal;font-stretch:normal;font-size:40px;line-height:125%;font-family:Luna;-inkscape-font-specification:Luna;letter-spacing:0px;word-spacing:0px;fill:#2a7fff;fill-opacity:1;stroke:none;stroke-width:0.3082414px;stroke-linecap:butt;stroke-linejoin:miter;stroke-opacity:1" id="path12021-6-1-5-1-9-1"></path>
    <path d="m 108.09969,69.168095 c 0.20961,0 0.38223,0.172615 0.38223,0.369891 v 7.151205 c 0,0.209599 -0.17262,0.382215 -0.3699,0.382215 -0.2096,0 -0.36988,-0.172612 -0.36988,-0.369892 v -7.163528 c 0,-0.197276 0.16028,-0.357561 0.35755,-0.369891 z" style="font-style:normal;font-variant:normal;font-weight:normal;font-stretch:normal;font-size:40px;line-height:125%;font-family:Luna;-inkscape-font-specification:Luna;letter-spacing:0px;word-spacing:0px;fill:#2a7fff;fill-opacity:1;stroke:none;stroke-width:0.3082414px;stroke-linecap:butt;stroke-linejoin:miter;stroke-opacity:1" id="path12021-6-2-1-4-5-2"></path>
    <path d="m 112.74166,63.619756 c 0.20961,0 0.38222,0.172612 0.38222,0.369884 v 18.24789 c 0,0.20961 -0.17261,0.382226 -0.36989,0.382226 -0.20959,0 -0.36988,-0.172616 -0.36988,-0.369895 V 63.98964 c 0,-0.19727 0.16029,-0.357557 0.35755,-0.369884 z" style="font-style:normal;font-variant:normal;font-weight:normal;font-stretch:normal;font-size:40px;line-height:125%;font-family:Luna;-inkscape-font-specification:Luna;letter-spacing:0px;word-spacing:0px;fill:#808080;fill-opacity:1;stroke:none;stroke-width:0.3082414px;stroke-linecap:butt;stroke-linejoin:miter;stroke-opacity:1" id="path12021-3-9-1-4-8-0"></path>
    <path d="m 119.70461,71.017545 c 0.20961,0 0.38222,0.172612 0.38222,0.369894 v 3.452298 c 0,0.209604 -0.17261,0.38222 -0.36988,0.38222 -0.20961,0 -0.36989,-0.172613 -0.36989,-0.369889 v -3.464629 c 0,-0.19728 0.16028,-0.35756 0.35755,-0.369894 z" style="font-style:normal;font-variant:normal;font-weight:normal;font-stretch:normal;font-size:40px;line-height:125%;font-family:Luna;-inkscape-font-specification:Luna;letter-spacing:0px;word-spacing:0px;fill:#2a7fff;fill-opacity:1;stroke:none;stroke-width:0.3082414px;stroke-linecap:butt;stroke-linejoin:miter;stroke-opacity:1" id="path12021-6-1-3-3-3-9-2"></path>
    <path d="m 105.77871,71.017545 c 0.2096,0 0.38222,0.172612 0.38222,0.369894 v 3.452298 c 0,0.209604 -0.17262,0.38222 -0.36989,0.38222 -0.20961,0 -0.36989,-0.172613 -0.36989,-0.369889 v -3.464629 c 0,-0.19728 0.16028,-0.35756 0.35756,-0.369894 z" style="font-style:normal;font-variant:normal;font-weight:normal;font-stretch:normal;font-size:40px;line-height:125%;font-family:Luna;-inkscape-font-specification:Luna;letter-spacing:0px;word-spacing:0px;fill:#2a7fff;fill-opacity:1;stroke:none;stroke-width:0.3082414px;stroke-linecap:butt;stroke-linejoin:miter;stroke-opacity:1" id="path12021-6-1-1-7-7-9-1"></path>
    <g id="text2012" style="font-style:normal;font-variant:normal;font-weight:normal;font-stretch:normal;font-size:12.69999981px;line-height:1.25;font-family:'Isidora Sans';-inkscape-font-specification:'Isidora Sans, Normal';font-variant-ligatures:normal;font-variant-caps:normal;font-variant-numeric:normal;fill:#000000;fill-opacity:1;stroke:none;stroke-width:0.26458332" aria-label="CONNECTED">
      <path id="path1690" style="stroke-width:0.26458332" d="m 31.496008,71.567505 c 0.68833,0 1.320849,-0.142627 1.909961,-0.427881 0.589111,-0.279053 1.072802,-0.669727 1.463476,-1.172021 v -0.06821 l -0.415478,-0.328662 h -0.06201 c -0.663525,0.886767 -1.711523,1.395263 -2.895947,1.395263 -1.035596,0 -1.90376,-0.353467 -2.604492,-1.0604 -0.700733,-0.706934 -1.0542,-1.581299 -1.0542,-2.623096 0,-1.047998 0.353467,-1.928564 1.0542,-2.629297 0.700732,-0.700732 1.568896,-1.054199 2.604492,-1.054199 1.184424,0 2.232422,0.5271 2.895947,1.401465 h 0.06201 l 0.415478,-0.328662 v -0.06821 c -0.390674,-0.502295 -0.874365,-0.892969 -1.463476,-1.178223 -0.589112,-0.279052 -1.221631,-0.421679 -1.909961,-0.421679 -1.221631,0 -2.244824,0.409277 -3.06958,1.234033 -0.824756,0.824756 -1.240235,1.835547 -1.240235,3.044775 0,1.209229 0.415479,2.226221 1.240235,3.050977 0.824756,0.824756 1.847949,1.234033 3.06958,1.234033 z"></path>
      <path id="path1692" style="stroke-width:0.26458332" d="m 43.321643,70.339673 c 0.824756,-0.818555 1.240234,-1.835547 1.240234,-3.057178 0,-1.221631 -0.415478,-2.238623 -1.240234,-3.057178 -0.830957,-0.812353 -1.866553,-1.22163 -3.112988,-1.22163 -1.246436,0 -2.282032,0.409277 -3.112989,1.22163 -0.830957,0.818555 -1.246435,1.835547 -1.246435,3.057178 0,1.221631 0.415478,2.238623 1.246435,3.057178 0.830957,0.818555 1.866553,1.227832 3.112989,1.227832 1.246435,0 2.282031,-0.409277 3.112988,-1.227832 z m -3.112988,0.626318 c -1.060401,0 -1.940967,-0.353467 -2.647901,-1.054199 -0.706933,-0.700732 -1.0604,-1.581299 -1.0604,-2.629297 0,-1.047998 0.353467,-1.928564 1.0604,-2.629297 0.706934,-0.700732 1.5875,-1.054199 2.647901,-1.054199 1.047998,0 1.928564,0.353467 2.635498,1.054199 0.706933,0.700733 1.0604,1.581299 1.0604,2.629297 0,1.047998 -0.353467,1.928565 -1.0604,2.629297 -0.706934,0.700732 -1.5875,1.054199 -2.635498,1.054199 z"></path>
      <path id="path1694" style="stroke-width:0.26458332" d="m 52.245129,70.283862 -5.488037,-7.125146 h -0.341065 v 8.25376 h 0.63252 v -6.98252 l 5.488037,7.106543 h 0.341064 v -8.377783 h -0.632519 z"></path>
      <path id="path1696" style="stroke-width:0.26458332" d="m 61.193421,70.283862 -5.488037,-7.125146 h -0.341065 v 8.25376 h 0.63252 v -6.98252 l 5.488037,7.106543 h 0.341064 v -8.377783 h -0.632519 z"></path>
      <path id="path1698" style="stroke-width:0.26458332" d="m 69.658021,63.158716 h -5.34541 v 8.25376 h 5.34541 v -0.570508 h -4.700488 v -3.317627 h 3.733105 v -0.570508 h -3.733105 v -3.224609 h 4.700488 z"></path>
      <path id="path1700" style="stroke-width:0.26458332" d="m 74.867002,71.567505 c 0.68833,0 1.32085,-0.142627 1.909961,-0.427881 0.589112,-0.279053 1.072803,-0.669727 1.463477,-1.172021 v -0.06821 l -0.415479,-0.328662 h -0.06201 c -0.663526,0.886767 -1.711524,1.395263 -2.895948,1.395263 -1.035595,0 -1.903759,-0.353467 -2.604492,-1.0604 -0.700732,-0.706934 -1.054199,-1.581299 -1.054199,-2.623096 0,-1.047998 0.353467,-1.928564 1.054199,-2.629297 0.700733,-0.700732 1.568897,-1.054199 2.604492,-1.054199 1.184424,0 2.232422,0.5271 2.895948,1.401465 h 0.06201 l 0.415479,-0.328662 v -0.06821 c -0.390674,-0.502295 -0.874365,-0.892969 -1.463477,-1.178223 -0.589111,-0.279052 -1.221631,-0.421679 -1.909961,-0.421679 -1.22163,0 -2.244824,0.409277 -3.06958,1.234033 -0.824755,0.824756 -1.240234,1.835547 -1.240234,3.044775 0,1.209229 0.415479,2.226221 1.240234,3.050977 0.824756,0.824756 1.84795,1.234033 3.06958,1.234033 z"></path>
      <path id="path1702" style="stroke-width:0.26458332" d="M 85.179553,63.729224 V 63.158716 H 78.86676 v 0.570508 h 2.815332 v 7.683252 h 0.651123 v -7.683252 z"></path>
      <path id="path1704" style="stroke-width:0.26458332" d="m 91.945031,63.158716 h -5.34541 v 8.25376 h 5.34541 v -0.570508 h -4.700488 v -3.317627 h 3.733105 v -0.570508 h -3.733105 v -3.224609 h 4.700488 z"></path>
      <path id="path1706" style="stroke-width:0.26458332" d="m 93.749569,63.158716 v 8.25376 h 3.032373 c 1.308448,0 2.344043,-0.378272 3.106787,-1.134815 0.762741,-0.750342 1.147221,-1.754931 1.147221,-3.007568 0,-1.234033 -0.38448,-2.232422 -1.147221,-2.982764 -0.768945,-0.750342 -1.804541,-1.128613 -3.106787,-1.128613 z m 0.644922,7.683252 v -7.112744 h 2.387451 c 1.097608,0 1.971973,0.322461 2.623096,0.967383 0.651122,0.651123 0.973582,1.513085 0.973582,2.585888 0,1.072803 -0.32246,1.934766 -0.973582,2.585889 -0.651123,0.651123 -1.525488,0.973584 -2.623096,0.973584 z"></path>
    </g>
    <g id="text2610" style="font-style:normal;font-variant:normal;font-weight:600;font-stretch:normal;font-size:11.99443626px;line-height:1.25;font-family:'Isidora Sans';-inkscape-font-specification:'Isidora Sans, Semi-Bold';font-variant-ligatures:normal;font-variant-caps:normal;font-variant-numeric:normal;fill:#000000;fill-opacity:1;stroke:none;stroke-width:0.26458332" aria-label="THINGS">
      <path id="path1677" style="stroke-width:0.26458332" d="m 65.011641,76.418675 v -1.124478 h -6.366187 v 1.124478 h 2.518363 v 6.670734 h 1.329461 v -6.670734 z"></path>
      <path id="path1679" style="stroke-width:0.26458332" d="m 71.459822,78.603209 h -3.947388 v -3.309012 h -1.329461 v 7.795212 h 1.329461 v -3.355865 h 3.947388 v 3.355865 h 1.335318 v -7.795212 h -1.335318 z"></path>
      <path id="path1681" style="stroke-width:0.26458332" d="m 74.827401,83.089409 h 1.329461 v -7.795212 h -1.329461 z"></path>
      <path id="path1683" style="stroke-width:0.26458332" d="m 83.483542,80.764316 -4.544767,-5.470119 h -0.743796 v 7.795212 h 1.306035 V 77.68957 l 4.550623,5.481832 h 0.737939 v -7.877205 h -1.306034 z"></path>
      <path id="path1685" style="stroke-width:0.26458332" d="M 94.207082,78.761338 H 90.38854 v 1.042486 h 2.582787 c -0.041,0.568095 -0.269407,1.060055 -0.685229,1.475877 -0.521243,0.503673 -1.153762,0.755509 -1.897558,0.755509 -0.778935,0 -1.429024,-0.269406 -1.94441,-0.802362 -0.521243,-0.532956 -0.778936,-1.212328 -0.778936,-2.043974 0,-0.825788 0.26355,-1.505161 0.790649,-2.038117 0.527099,-0.532956 1.177188,-0.802362 1.944411,-0.802362 0.884355,0 1.686717,0.427536 2.219673,1.112765 h 0.111277 l 0.837502,-0.702799 v -0.09956 c -0.36897,-0.474389 -0.831646,-0.843359 -1.393885,-1.112765 -0.568096,-0.26355 -1.165475,-0.398253 -1.797994,-0.398253 -1.136192,0 -2.096684,0.380683 -2.875619,1.147905 -0.784792,0.767222 -1.177189,1.733571 -1.177189,2.893189 0,1.165475 0.38654,2.131824 1.153762,2.899046 0.767222,0.767223 1.727714,1.147905 2.887333,1.147905 1.142048,0 2.096683,-0.386539 2.858049,-1.165475 0.743796,-0.743795 1.112765,-1.663291 1.112765,-2.770199 0,-0.199126 -0.0059,-0.3514 -0.02343,-0.456819 z"></path>
      <path id="path1687" style="stroke-width:0.26458332" d="m 98.183753,83.235825 c 0.831645,0 1.516874,-0.204983 2.049827,-0.614949 0.53296,-0.404109 0.80237,-0.954635 0.80237,-1.639864 0,-0.392396 -0.0527,-0.708656 -0.2167,-0.978062 -0.16984,-0.269406 -0.25769,-0.456819 -0.5681,-0.661802 -0.15813,-0.09956 -0.27526,-0.181557 -0.351396,-0.240123 -0.08199,-0.05857 -0.22841,-0.128847 -0.43925,-0.216697 -0.210839,-0.08199 -0.351399,-0.14056 -0.415822,-0.169843 -0.07028,-0.02928 -0.22841,-0.08199 -0.468533,-0.163986 -0.24598,-0.07614 -0.392396,-0.12299 -0.439249,-0.14056 -0.310403,-0.111277 -0.550526,-0.199127 -0.708656,-0.275263 -0.15813,-0.07028 -0.310403,-0.181556 -0.456819,-0.339686 -0.146417,-0.15813 -0.216697,-0.339686 -0.216697,-0.544669 0,-0.29869 0.128847,-0.532956 0.392396,-0.714513 0.26355,-0.181556 0.597379,-0.269406 1.001489,-0.269406 0.743796,-0.0059 1.382171,0.304546 1.909267,0.919495 h 0.0937 l 0.70866,-0.743795 v -0.10542 c -0.56224,-0.720369 -1.546162,-1.188902 -2.735064,-1.188902 -0.808219,0 -1.464164,0.204983 -1.967837,0.609093 -0.503673,0.409966 -0.755509,0.937065 -0.755509,1.575441 0,0.638375 0.251836,1.159618 0.726226,1.505161 0.234266,0.169843 0.450962,0.304546 0.650089,0.398253 0.199126,0.09956 0.445106,0.199126 0.732082,0.304546 0.146417,0.04685 0.327973,0.10542 0.556383,0.181556 0.222553,0.07614 0.398252,0.134703 0.521242,0.1757 0.12299,0.041 0.26355,0.09371 0.42168,0.169843 0.158129,0.07614 0.281119,0.152273 0.363112,0.22841 0.15813,0.152273 0.29869,0.404109 0.29869,0.708656 0,0.322116 -0.14056,0.579809 -0.421679,0.778935 -0.286977,0.199126 -0.667659,0.29869 -1.147905,0.29869 -0.40411,0 -0.808219,-0.111277 -1.224042,-0.327973 -0.415823,-0.216697 -0.761366,-0.503673 -1.042485,-0.860929 h -0.111277 l -0.720369,0.743796 v 0.111276 c 0.345543,0.462676 0.796506,0.825789 1.364602,1.089339 0.562239,0.263549 1.165475,0.398252 1.815564,0.398252 z"></path>
    </g>
  </g>
</svg>
