<svg class="w-[clamp(9.3125rem,8rem+5.8333vw,13.25rem)] text-beige" width="212" height="60" viewBox="0 0 212 60" fill="none" xmlns="http://www.w3.org/2000/svg"><g fill="currentColor"><path d="M14.15 28.282c.866-7.99 7.675-14.238 15.93-14.238 4.175 0 8.134 1.601 11.145 4.506l.186.18 3.426-3.41-.19-.186A20.8 20.8 0 0 0 30.08 9.217c-10.929 0-19.918 8.409-20.798 19.065h4.869ZM41.41 41.27l-.185.18a15.98 15.98 0 0 1-11.145 4.506c-8.162 0-14.908-6.112-15.89-13.98H9.302c1.002 10.535 9.937 18.807 20.778 18.807a20.8 20.8 0 0 0 14.567-5.917l.19-.185-3.426-3.411ZM133.324 23.932h7.258V40.88h4.698V23.932h7.258v-4.681h-19.214v4.681ZM183.278 23.484c1.711 0 3.339.657 4.585 1.85l.68.647 3.289-3.324-.689-.666a11.277 11.277 0 0 0-7.865-3.188c-6.237 0-11.31 5.051-11.31 11.26 0 6.21 5.073 11.26 11.31 11.26 2.948 0 5.739-1.129 7.865-3.187l.689-.667-3.289-3.323-.68.647a6.607 6.607 0 0 1-4.585 1.85c-3.646 0-6.608-2.955-6.608-6.58s2.967-6.579 6.608-6.579ZM207.308 19.251v8.477h-9.151V19.25h-4.702v21.63h4.702v-8.477h9.151v8.476H212V19.251h-4.692ZM170.834 19.251h-16.14v4.676h16.14v-4.676ZM159.391 32.404h10.607v-4.667h-15.304V40.88h16.14v-4.676h-11.443v-3.8ZM30.056 33.221a3.165 3.165 0 0 0 3.172-3.158 3.165 3.165 0 0 0-3.172-3.158 3.165 3.165 0 0 0-3.172 3.158 3.165 3.165 0 0 0 3.172 3.158Z"/><path d="M4.864 28.282c.89-13.08 11.858-23.454 25.216-23.454 6.643 0 12.924 2.56 17.685 7.207l.186.18 3.426-3.411-.19-.185C45.512 3.062 38.014 0 30.08 0 14.043.001.9 12.536 0 28.282h4.864ZM47.765 47.96c-4.76 4.648-11.042 7.207-17.685 7.207-13.27 0-24.18-10.238-25.197-23.196H.02C1.046 47.596 14.13 59.994 30.08 59.994c7.934 0 15.432-3.06 21.111-8.618l.191-.185-3.426-3.41-.186.18h-.005Z"/><path d="M30.11 41.547c-6.374 0-11.565-5.163-11.565-11.513a11.45 11.45 0 0 1 4.326-8.978l3.035 3.762a6.64 6.64 0 0 0-2.512 5.216c0 3.688 3.01 6.686 6.716 6.686 3.705 0 6.716-2.998 6.716-6.686a6.635 6.635 0 0 0-2.488-5.192l3.055-3.747a11.46 11.46 0 0 1 4.282 8.944c0 6.345-5.186 11.513-11.565 11.513v-.005ZM131.168 19.251h-16.14v4.676h16.14v-4.676ZM119.725 32.404h10.607v-4.667h-15.304V40.88h16.14v-4.676h-11.443v-3.8ZM99.63 23.932h5.524a2.617 2.617 0 0 1 2.62 2.608c0 1.44-1.148 2.58-2.62 2.58h-1.896v5.104l4.037 6.661h5.47l-4.668-7.678a7.24 7.24 0 0 0 4.379-6.662c0-4.014-3.284-7.284-7.317-7.284h-10.22v21.63h4.697V23.94l-.005-.009ZM81.11 18.823c-6.227 0-11.296 5.046-11.296 11.245 0 6.2 5.07 11.245 11.297 11.245s11.295-5.04 11.295-11.245c0-6.204-5.068-11.245-11.296-11.245Zm6.604 11.245c0 3.625-2.962 6.574-6.603 6.574-3.642 0-6.604-2.949-6.604-6.574s2.962-6.574 6.603-6.574c3.642 0 6.604 2.949 6.604 6.574ZM66.305 34.443l-.362.33a6.978 6.978 0 0 1-4.746 1.854c-3.763 0-6.823-2.943-6.823-6.559 0-3.615 3.06-6.56 6.823-6.56 1.77 0 3.456.658 4.746 1.855l.362.33a14.483 14.483 0 0 1 2.258-4.32 11.8 11.8 0 0 0-7.366-2.565c-6.418 0-11.638 5.051-11.638 11.26 0 6.21 5.22 11.26 11.638 11.26a11.8 11.8 0 0 0 7.366-2.564 14.485 14.485 0 0 1-2.258-4.321Z"/></g></svg>