<svg width="659" height="244" viewBox="0 0 659 244" fill="none" xmlns="http://www.w3.org/2000/svg">
<path d="M95.6054 243.867C95.647 243.886 95.6893 243.903 95.7311 243.922C95.6957 243.906 95.6596 243.892 95.6243 243.876L95.6054 243.867ZM93.7609 242.909L95.0184 243.579C94.3076 243.204 93.5984 242.823 92.8903 242.439C93.1803 242.596 93.4703 242.753 93.7609 242.909ZM100.16 1.53325C101.369 1.5333 102.275 1.68534 102.928 1.92796V1.92685C111.366 5.07557 140.579 16.02 190.567 34.7601L191.514 35.1259C193.598 35.9541 194.805 36.6087 195.326 37.0638L195.327 37.0649C196.741 38.2997 197.764 39.8268 198.4 41.6758C198.636 42.3629 198.804 43.8593 198.818 46.3412L198.815 47.4664C198.778 50.6753 198.78 73.3685 198.823 115.517C198.831 123.634 198.633 129.235 198.243 132.388C194.028 166.532 170.522 194.814 144.463 215.832C131.683 226.139 118.407 234.934 104.635 242.219L104.376 242.351C103.075 242.989 101.684 243.309 100.184 243.309H100.182C98.5828 243.312 97.1078 242.948 95.7344 242.223H95.7333C81.9588 234.938 68.6816 226.145 55.9021 215.841H55.9009C30.2407 195.159 7.05964 167.434 2.31267 134.005L2.1003 132.409C1.71055 129.256 1.51094 123.655 1.51658 115.537C1.54614 78.6577 1.54878 56.6741 1.52436 49.6045L1.51213 47.4875C1.47516 44.3251 1.65686 42.4823 1.92685 41.6969L1.92796 41.6958C2.56148 39.8475 3.58208 38.3205 4.99558 37.0861L4.99669 37.0849C5.59162 36.5648 7.08393 35.7841 9.75545 34.7812L69.1565 12.5029C83.7584 7.02865 93.1692 3.50287 97.3889 1.92685L97.39 1.92796C98.0428 1.68524 98.9495 1.5333 100.16 1.53325ZM89.0599 240.316C90.1756 240.948 91.2943 241.57 92.4166 242.182C91.2943 241.57 90.1756 240.948 89.0599 240.316ZM82.7312 236.604C83.461 237.047 84.1922 237.486 84.9249 237.92C84.1922 237.486 83.461 237.047 82.7312 236.604ZM75.2706 231.886C76.8516 232.926 78.4399 233.944 80.035 234.941C78.4398 233.944 76.8516 232.926 75.2706 231.886ZM65.6653 225.245C67.9943 226.935 70.3391 228.578 72.7 230.173C70.3391 228.578 67.9943 226.935 65.6653 225.245ZM58.5027 219.859C60.7886 221.64 63.091 223.372 65.4084 225.058C63.091 223.372 60.7886 221.64 58.5027 219.859ZM100.866 21.629C100.424 21.4611 99.9355 21.4608 99.4936 21.629V21.6279L21.8847 50.7308C21.593 50.8389 21.3354 51.0224 21.1398 51.2623L21.0597 51.369C20.8567 51.661 20.7481 52.0086 20.7484 52.3641L20.7584 95.6777C20.7581 101.246 20.7563 105.988 20.754 109.905L20.744 119.178C20.7327 124.004 20.8654 127.622 21.1565 129.982V129.983C24.1265 154.227 39.6262 175.177 56.7993 191.185L56.8138 191.198L56.8282 191.211C57.0257 191.386 57.2648 191.51 57.5231 191.572C57.7815 191.634 58.0581 191.633 58.3259 191.559C58.5954 191.485 58.8482 191.339 59.0519 191.129C59.2483 190.926 59.3852 190.674 59.4533 190.4L59.4556 190.401C66.2295 163.311 78.5714 138.626 96.4927 116.336L96.5249 116.295L96.555 116.253C96.7174 116.02 96.8147 115.747 96.8363 115.464L96.8407 115.342L96.8351 115.221C96.8163 114.979 96.7431 114.744 96.6194 114.535L96.5538 114.433L96.4805 114.336C96.3267 114.149 96.1313 113.998 95.9101 113.898L95.7967 113.852L95.681 113.814C95.4085 113.738 95.1188 113.736 94.8438 113.809L94.8004 113.82L94.7571 113.834C84.6916 117.158 75.5638 122.324 67.382 129.32L66.5926 130.003C65.2771 131.156 63.5255 132.343 61.9294 132.796C61.1477 133.018 60.5098 133.033 60.0126 132.887C59.6119 132.769 59.1951 132.516 58.804 131.971L58.6372 131.719C58.2756 131.121 58.1032 130.33 58.257 129.232C58.4777 127.656 58.88 126.298 59.4433 125.142L59.4444 125.14C62.68 118.483 67.2483 112.785 73.1637 108.038C77.3125 104.708 81.9675 102.404 87.142 101.12L87.2076 101.104L87.272 101.081C87.5698 100.979 87.8253 100.791 88.0114 100.549C88.198 100.306 88.3215 100.001 88.3383 99.6648C88.3531 99.3684 88.2839 99.059 88.1204 98.7831L88.0437 98.6675L87.9581 98.5574C87.7811 98.3524 87.5569 98.201 87.3121 98.1104H87.3132C74.1713 93.2099 60.6887 90.5693 46.8738 90.194L45.5362 90.1651C43.8583 90.1368 42.0819 90.2098 40.3505 90.2785C38.6005 90.348 36.8892 90.4135 35.2637 90.3808H35.2615C33.8326 90.3542 32.2163 90.2333 30.7651 89.8782C29.2854 89.5161 28.1779 88.9589 27.543 88.2127C26.569 87.0681 26.48 85.6599 27.3328 84.23L27.3339 84.2289C28.2177 82.7436 29.7652 81.3769 31.6535 80.1673C33.5237 78.9694 35.6169 77.9951 37.4596 77.2497C57.5232 69.1384 83.9087 68.7925 99.2723 85.7421V85.741C101.294 87.9727 103.145 90.2543 104.824 92.5845C105.038 92.8934 105.354 93.1186 105.719 93.2183C106.129 93.33 106.567 93.2743 106.935 93.0637C107.304 92.853 107.574 92.504 107.686 92.0942C107.785 91.7301 107.751 91.3447 107.595 91.0046H107.596C102.269 79.2963 94.6524 69.3905 84.7559 61.3046C83.7033 60.4426 82.4917 59.1106 81.8517 57.7366C81.2289 56.3991 81.2474 55.3155 82.0341 54.4055L82.0352 54.4066C82.8192 53.5015 84.3753 53.1638 86.6338 53.4549C88.7884 53.7326 91.0617 54.5202 92.6201 55.1427C97.1226 56.9404 101.322 59.366 105.22 62.4231C112.538 68.164 117.771 75.5934 118.605 84.7737L118.672 85.6676C118.688 85.948 118.775 86.2205 118.924 86.4593C119.074 86.6979 119.282 86.8954 119.527 87.033C119.773 87.1704 120.05 87.2438 120.331 87.2465C120.604 87.249 120.872 87.1826 121.115 87.0575L121.116 87.0597C122.229 86.4862 123.018 86.0698 123.462 85.8211L123.461 85.82C130.831 81.7041 139.081 81.793 146.881 84.4324C154.696 87.0772 161.953 92.2567 167.147 98.1171V98.1182C168.109 99.2048 169.045 100.472 169.601 101.774C170.152 103.065 170.275 104.255 169.851 105.334L169.846 105.344L169.843 105.354C169.842 105.358 169.838 105.363 169.834 105.369L169.83 105.375C169.082 106.348 168.179 106.744 166.941 106.633H166.94C165.486 106.504 164.035 106.119 162.585 105.468L161.963 105.172C153.932 101.132 145.417 98.5303 136.428 97.3644L135.512 97.2499L135.467 97.2476L135.331 97.2454C135.06 97.2521 134.795 97.3259 134.561 97.4611L134.446 97.5345C134.148 97.7417 133.927 98.0427 133.82 98.3895C133.713 98.7368 133.726 99.1103 133.857 99.4491C133.987 99.7882 134.229 100.075 134.541 100.261L134.569 100.277L134.599 100.294C141.076 103.772 146.328 108.631 150.368 114.893L150.934 115.79C156.702 125.116 159.752 136.141 160.471 147.236C160.633 149.74 160.755 154.258 160.136 158.403C159.826 160.479 159.341 162.378 158.633 163.862C157.922 165.354 157.067 166.262 156.098 166.654C155.13 167.046 154.336 166.971 153.611 166.633C152.828 166.268 152.043 165.553 151.293 164.545C149.787 162.522 148.727 159.743 148.166 157.935C144.936 147.525 140.317 137.726 134.315 128.543L134.288 128.502L134.258 128.462C134.084 128.231 133.851 128.052 133.584 127.945L133.468 127.904L133.349 127.872C133.068 127.808 132.774 127.821 132.499 127.913C132.224 128.004 131.981 128.17 131.795 128.39L131.72 128.486C131.527 128.754 131.422 129.077 131.422 129.408V129.506L131.435 129.604C133.032 142.029 129.216 155.227 122.578 165.838C121.554 167.473 120.3 169.283 118.874 170.832C117.436 172.394 115.914 173.59 114.38 174.143C112.806 174.706 111.276 174.071 110.58 172.47L110.579 172.468C110.162 171.512 110.008 170.223 110.067 168.774C110.126 167.345 110.385 165.883 110.687 164.663C114.258 150.315 114.739 135.776 112.135 121.059C112.098 120.792 111.994 120.54 111.832 120.325L111.747 120.223L111.655 120.127C111.462 119.945 111.226 119.815 110.969 119.747L110.839 119.718L110.707 119.702C110.442 119.678 110.176 119.722 109.933 119.828L109.814 119.886C109.567 120.02 109.361 120.217 109.216 120.454C91.7257 148.811 83.6292 181.556 88.1337 214.79C88.1733 215.083 88.2796 215.36 88.4406 215.602C88.6007 215.842 88.8116 216.041 89.0544 216.188V216.189L99.1378 222.281V222.282C99.433 222.461 99.7709 222.557 100.114 222.561C100.457 222.565 100.794 222.476 101.089 222.307L101.09 222.306C118.949 212.07 135.857 199.494 150.1 184.698C164.256 169.992 176.142 151.794 179.056 131.1C179.473 128.138 179.648 123.583 179.603 117.497C179.583 114.857 179.581 93.1506 179.595 52.3597V52.3586C179.595 52.0446 179.51 51.7374 179.351 51.4691L179.278 51.3568L179.197 51.25C179.002 51.0133 178.748 50.8316 178.459 50.7241H178.46L100.867 21.6279L100.866 21.629ZM50.7964 213.613C51.7713 214.437 52.7497 215.252 53.7328 216.055L54.9392 217.035C53.5505 215.916 52.1694 214.774 50.7964 213.613ZM43.1479 206.829C42.7359 206.445 42.3252 206.06 41.916 205.672C42.3252 206.06 42.7359 206.445 43.1479 206.829ZM123.592 205.812C123.049 206.214 122.505 206.614 121.958 207.011C122.505 206.614 123.049 206.214 123.592 205.812ZM88.6685 204.38C88.6936 204.81 88.7205 205.241 88.7497 205.672C88.7205 205.241 88.6936 204.81 88.6685 204.38ZM88.524 201.271C88.5366 201.633 88.5496 201.996 88.5651 202.358C88.5496 201.996 88.5366 201.633 88.524 201.271ZM88.8086 186.713C88.7906 186.958 88.7731 187.202 88.7564 187.446C88.7731 187.202 88.7906 186.958 88.8086 186.713ZM150.308 182.253C149.873 182.716 149.435 183.177 148.995 183.634C149.435 183.176 149.873 182.716 150.308 182.253ZM47.5386 179.542C48.2461 180.337 48.963 181.123 49.6856 181.9C48.963 181.123 48.2461 180.337 47.5386 179.542ZM152.822 179.504C152.113 180.299 151.395 181.083 150.671 181.86C151.395 181.083 152.113 180.299 152.822 179.504ZM154.105 178.043C153.951 178.221 153.795 178.398 153.64 178.575C153.795 178.398 153.951 178.221 154.105 178.043ZM44.9514 176.551C45.2332 176.887 45.517 177.22 45.8019 177.553C45.517 177.22 45.2332 176.887 44.9514 176.551ZM62.4009 174.923L62.402 174.922L62.4009 174.923ZM155.328 176.613C155.141 176.834 154.953 177.054 154.765 177.274C154.953 177.054 155.141 176.834 155.328 176.613ZM156.556 175.136C156.346 175.393 156.132 175.648 155.919 175.904C156.132 175.648 156.346 175.393 156.556 175.136ZM113.611 175.864C113.475 175.874 113.341 175.879 113.207 175.877C113.341 175.879 113.475 175.874 113.611 175.864ZM114.285 175.763C114.345 175.749 114.406 175.735 114.467 175.719L114.678 175.659C114.547 175.7 114.416 175.734 114.285 175.763ZM110.113 174.519C110.027 174.427 109.943 174.333 109.863 174.233C109.943 174.333 110.027 174.427 110.113 174.519ZM157.729 173.681C157.553 173.903 157.374 174.123 157.196 174.344C157.374 174.123 157.553 173.903 157.729 173.681ZM109.27 173.291C109.295 173.343 109.322 173.394 109.349 173.444C109.287 173.327 109.228 173.207 109.173 173.082L109.27 173.291ZM158.902 172.181C158.726 172.411 158.546 172.638 158.368 172.866C158.546 172.638 158.726 172.411 158.902 172.181ZM108.674 171.32C108.721 171.6 108.776 171.874 108.848 172.139C108.776 171.874 108.721 171.6 108.674 171.32ZM160.082 170.625C159.85 170.936 159.614 171.245 159.378 171.554C159.614 171.245 159.85 170.936 160.082 170.625ZM80.0138 137.141C74.5583 146.131 69.8922 155.463 66.0155 165.136C65.854 165.539 65.694 165.942 65.5352 166.346C65.2176 167.155 64.9057 167.966 64.599 168.779C68.5849 158.208 73.4967 148.037 79.3356 138.266L80.0138 137.141ZM121.497 170.091C121.212 170.459 120.918 170.823 120.614 171.178C120.918 170.823 121.212 170.459 121.497 170.091ZM161.193 169.109C160.977 169.408 160.758 169.704 160.54 170.001C160.758 169.704 160.977 169.408 161.193 169.109ZM162.301 167.544C162.09 167.848 161.875 168.149 161.661 168.451C161.875 168.149 162.09 167.848 162.301 167.544ZM37.3952 166.608V166.609V166.608ZM163.325 166.047C163.161 166.292 162.993 166.536 162.826 166.78C162.993 166.536 163.161 166.292 163.325 166.047ZM108.788 166.299C108.843 165.961 108.904 165.63 108.97 165.31L108.977 165.277C108.909 165.607 108.844 165.949 108.788 166.299ZM164.374 164.458C164.227 164.685 164.079 164.91 163.93 165.136C164.079 164.91 164.227 164.685 164.374 164.458ZM165.372 162.888C165.324 162.967 165.276 163.045 165.227 163.123C165.276 163.045 165.324 162.967 165.372 162.888ZM148.171 162.215C147.806 161.436 147.494 160.664 147.232 159.955C147.494 160.664 147.806 161.436 148.171 162.215ZM166.396 161.211C166.346 161.296 166.294 161.38 166.243 161.465C166.294 161.38 166.346 161.296 166.396 161.211ZM93.7208 159.136C93.5583 159.708 93.4003 160.281 93.245 160.855C93.4003 160.281 93.5583 159.708 93.7208 159.136ZM166.95 160.272C166.869 160.411 166.788 160.55 166.707 160.688C166.788 160.55 166.869 160.411 166.95 160.272ZM167.373 159.538C167.286 159.69 167.2 159.841 167.112 159.992C167.2 159.841 167.286 159.69 167.373 159.538ZM111.29 153.491C111.015 155.48 110.678 157.465 110.283 159.446C110.678 157.465 111.015 155.48 111.29 153.491ZM168.283 157.907C168.184 158.089 168.085 158.272 167.984 158.453C168.085 158.272 168.184 158.089 168.283 157.907ZM168.736 157.071C168.669 157.197 168.602 157.322 168.534 157.447C168.602 157.322 168.669 157.197 168.736 157.071ZM169.135 156.314C169.093 156.394 169.052 156.474 169.01 156.553C169.052 156.474 169.093 156.394 169.135 156.314ZM94.895 155.22C94.8038 155.509 94.7129 155.798 94.6237 156.087C94.7129 155.798 94.8038 155.509 94.895 155.22ZM169.617 155.377C169.549 155.512 169.48 155.647 169.411 155.781C169.48 155.647 169.549 155.512 169.617 155.377ZM170.023 154.566C169.955 154.704 169.887 154.842 169.818 154.98C169.887 154.842 169.955 154.704 170.023 154.566ZM170.486 153.619C170.401 153.796 170.315 153.973 170.229 154.149C170.315 153.973 170.401 153.796 170.486 153.619ZM111.447 152.309H111.448H111.447ZM170.844 152.864C170.779 153.001 170.715 153.138 170.65 153.275C170.715 153.138 170.779 153.001 170.844 152.864ZM171.241 152.006C171.172 152.156 171.105 152.307 171.035 152.457C171.105 152.307 171.172 152.156 171.241 152.006ZM171.598 151.215C171.545 151.333 171.493 151.451 171.44 151.569C171.493 151.451 171.545 151.333 171.598 151.215ZM171.995 150.308C171.944 150.426 171.894 150.544 171.842 150.661C171.894 150.544 171.944 150.426 171.995 150.308ZM97.1754 148.557C96.9222 149.242 96.6742 149.929 96.4315 150.617C96.6742 149.929 96.9222 149.242 97.1754 148.557ZM172.378 149.403C172.314 149.557 172.25 149.711 172.185 149.865C172.25 149.711 172.314 149.557 172.378 149.403ZM112.23 141.614C112.212 142.5 112.184 143.384 112.143 144.268C112.122 144.716 112.099 145.164 112.072 145.611C112.019 146.506 111.954 147.4 111.876 148.293C112.068 146.071 112.185 143.845 112.23 141.614ZM172.772 148.442C172.705 148.607 172.639 148.771 172.572 148.936C172.639 148.771 172.705 148.607 172.772 148.442ZM173.11 147.589C173.042 147.764 172.973 147.939 172.904 148.113C172.973 147.939 173.042 147.764 173.11 147.589ZM136.723 135.418C137.056 136.001 137.385 136.586 137.707 137.175C138.029 137.762 138.346 138.352 138.658 138.945C138.969 139.537 139.275 140.133 139.576 140.73C140.027 141.626 140.467 142.527 140.894 143.433C141.321 144.34 141.736 145.251 142.139 146.168C140.526 142.5 138.721 138.916 136.723 135.418ZM173.424 146.768C173.365 146.925 173.306 147.083 173.245 147.24C173.306 147.083 173.365 146.925 173.424 146.768ZM3.03204 145.174C2.89247 144.652 2.75707 144.128 2.62621 143.602C2.75706 144.128 2.89247 144.652 3.03204 145.174ZM174.086 144.951C174.025 145.125 173.963 145.298 173.901 145.471C173.963 145.298 174.025 145.125 174.086 144.951ZM174.43 143.948C174.354 144.173 174.278 144.398 174.201 144.623C174.278 144.398 174.354 144.173 174.43 143.948ZM174.705 143.106C174.636 143.321 174.567 143.535 174.496 143.749C174.567 143.535 174.636 143.321 174.705 143.106ZM175.266 141.296C175.199 141.523 175.131 141.749 175.062 141.974C175.131 141.749 175.199 141.523 175.266 141.296ZM175.772 139.505C175.671 139.879 175.568 140.252 175.461 140.623C175.568 140.252 175.671 139.879 175.772 139.505ZM1.58996 138.94C1.61268 139.056 1.63796 139.172 1.66112 139.288C1.63796 139.172 1.61268 139.056 1.58996 138.94ZM112.069 133.488C112.176 135.29 112.236 137.09 112.249 138.887C112.236 137.09 112.176 135.29 112.069 133.488ZM177.228 132.874C176.914 134.719 176.526 136.545 176.072 138.35C176.526 136.545 176.914 134.719 177.228 132.874ZM1.29532 137.359C1.33678 137.593 1.38219 137.825 1.4254 138.058C1.38218 137.825 1.33678 137.593 1.29532 137.359ZM199.046 137.359C199.022 137.495 198.994 137.631 198.969 137.767C198.994 137.631 199.022 137.495 199.046 137.359ZM1.03403 135.809C1.07199 136.046 1.11434 136.283 1.15411 136.52C1.11576 136.291 1.07403 136.064 1.03736 135.835L1.03403 135.809ZM102.434 136.094C102.38 136.208 102.328 136.323 102.274 136.437C102.328 136.323 102.38 136.208 102.434 136.094ZM94.4547 116.429C89.7049 122.415 85.3524 128.573 81.3948 134.901C85.3523 128.573 89.7049 122.415 94.4547 116.429ZM63.0713 134.029C63.0765 134.027 63.0817 134.025 63.0869 134.023C63.0817 134.025 63.0765 134.027 63.0713 134.029ZM57.4431 132.698C57.5829 132.91 57.7315 133.1 57.8856 133.271C57.7314 133.1 57.5829 132.91 57.4431 132.698ZM134.662 131.948H134.663H134.662ZM0.436961 131.262C0.458938 131.503 0.482327 131.735 0.505896 131.958L0.578167 132.597C0.553 132.393 0.528356 132.18 0.504784 131.958L0.436961 131.262ZM57.3263 132.512C56.9984 131.971 56.7932 131.365 56.7104 130.696C56.7842 131.29 56.9546 131.835 57.2218 132.329L57.3263 132.512ZM111.871 130.782L111.872 130.781L111.871 130.782ZM22.6319 129.368C22.6183 129.242 22.6025 129.113 22.5896 128.98C22.6025 129.113 22.6183 129.242 22.6319 129.368ZM22.5396 128.387C22.5291 128.259 22.5183 128.129 22.5085 127.995C22.5183 128.129 22.5291 128.259 22.5396 128.387ZM0.0622641 123.641C0.0807253 124.428 0.103018 125.177 0.127864 125.888L0.211253 127.907C0.148845 126.637 0.0991415 125.215 0.0622641 123.641ZM22.4684 127.399C22.4594 127.255 22.4501 127.109 22.4418 126.96C22.4502 127.109 22.4594 127.255 22.4684 127.399ZM22.4017 126.175C22.3974 126.08 22.3936 125.985 22.3895 125.888C22.3936 125.985 22.3974 126.08 22.4017 126.175ZM108.903 123.942C108.479 124.661 108.062 125.384 107.65 126.108C108.062 125.384 108.479 124.661 108.903 123.942ZM22.355 124.992C22.3499 124.836 22.3452 124.678 22.3406 124.518C22.3452 124.678 22.3499 124.836 22.355 124.992ZM22.3195 123.735C22.3162 123.59 22.3135 123.442 22.3106 123.293C22.3135 123.442 22.3161 123.59 22.3195 123.735ZM178.062 52.3586C178.048 93.1421 178.05 114.859 178.07 117.508C178.06 116.183 178.055 110.093 178.053 99.2356L178.062 52.3586ZM166.804 108.161C167.024 108.18 167.238 108.186 167.447 108.182C167.238 108.186 167.024 108.18 166.804 108.161C166.622 108.144 166.439 108.123 166.257 108.099C166.44 108.123 166.622 108.144 166.804 108.161ZM163.916 107.598C164.236 107.694 164.556 107.78 164.878 107.854C164.556 107.78 164.236 107.694 163.916 107.598ZM151.917 102.576C152.221 102.682 152.524 102.79 152.827 102.9C152.789 102.886 152.75 102.872 152.712 102.858L151.917 102.576ZM138.966 101.12C139.16 101.25 139.354 101.381 139.546 101.513C139.162 101.248 138.772 100.99 138.378 100.737L138.966 101.12ZM86.7728 99.6315C85.2103 100.019 83.6938 100.5 82.2209 101.067C83.376 100.622 84.5574 100.229 85.7677 99.895L86.7728 99.6315ZM145.442 100.634C145.955 100.764 146.465 100.899 146.974 101.039C146.465 100.899 145.955 100.764 145.442 100.634ZM142.133 99.875C142.722 99.9968 143.309 100.126 143.893 100.261C143.309 100.126 142.722 99.9968 142.133 99.875ZM136.15 99.398C136.45 99.5667 136.747 99.7381 137.041 99.9128C136.747 99.7382 136.45 99.5667 136.15 99.398ZM138.645 99.2356C138.972 99.2881 139.298 99.3416 139.623 99.398L140.462 99.5481C139.859 99.4368 139.253 99.3333 138.645 99.2356ZM58.6328 92.6156C67.7461 93.7462 76.7085 95.9029 85.5198 99.0855L86.7773 99.547C77.9805 96.2667 69.0324 94.0129 59.9337 92.7846L58.6328 92.6156ZM136.969 98.9844C137.049 98.9955 137.128 99.0064 137.208 99.0177C137.128 99.0064 137.049 98.9955 136.969 98.9844ZM48.1513 91.7706C49.9094 91.8371 51.6621 91.9399 53.4093 92.0808C51.6621 91.9399 49.9094 91.8371 48.1513 91.7706ZM33.7105 91.8473C33.9661 91.8647 34.2182 91.8793 34.4654 91.8896C34.2182 91.8793 33.9661 91.8647 33.7105 91.8473ZM27.6086 90.2529C27.9067 90.4402 28.2262 90.606 28.5614 90.7544C28.2262 90.606 27.9067 90.4402 27.6086 90.2529ZM26.5579 89.4079C26.8548 89.7182 27.1973 89.9901 27.573 90.2296C27.2767 90.0408 27.0011 89.8325 26.7524 89.6003L26.5579 89.4079ZM105.219 89.5591C105.225 89.5728 105.232 89.5866 105.239 89.6003C105.232 89.5866 105.225 89.5728 105.219 89.5591ZM104.685 88.484C104.747 88.6077 104.809 88.7323 104.871 88.8564C104.809 88.7323 104.747 88.6077 104.685 88.484ZM104.153 87.4511C104.248 87.6316 104.34 87.8133 104.434 87.9948C104.34 87.8133 104.248 87.6316 104.153 87.4511ZM103.599 86.4092C103.715 86.6244 103.83 86.8409 103.944 87.0575C103.83 86.8409 103.715 86.6244 103.599 86.4092ZM103.068 85.4464C103.173 85.6343 103.277 85.8233 103.381 86.0123C103.277 85.8233 103.173 85.6343 103.068 85.4464ZM102.483 84.4179C102.588 84.5989 102.691 84.7807 102.795 84.9627C102.691 84.7807 102.588 84.5989 102.483 84.4179ZM101.942 83.4951C102.006 83.6022 102.069 83.71 102.132 83.8175C102.069 83.71 102.006 83.6022 101.942 83.4951ZM101.321 82.471C101.421 82.6324 101.519 82.7947 101.617 82.9569C101.519 82.7947 101.421 82.6324 101.321 82.471ZM27.0993 81.9685C27.1694 81.8885 27.2412 81.8093 27.3139 81.7305C27.2412 81.8093 27.1694 81.8885 27.0993 81.9685ZM100.677 81.4426C100.811 81.6537 100.944 81.866 101.077 82.0786C100.944 81.866 100.811 81.6537 100.677 81.4426ZM28.2012 80.8544C28.2904 80.7737 28.3808 80.6935 28.4725 80.6142C28.3808 80.6935 28.2904 80.7737 28.2012 80.8544ZM100.103 80.5564C100.232 80.7533 100.36 80.9509 100.488 81.149C100.36 80.9509 100.232 80.7532 100.103 80.5564ZM99.4547 79.5847C99.5646 79.7469 99.6739 79.9096 99.7827 80.0728C99.6739 79.9096 99.5646 79.7469 99.4547 79.5847ZM30.2781 79.24C29.893 79.5016 29.5172 79.7721 29.1563 80.0539C29.5172 79.7721 29.893 79.5016 30.2781 79.24ZM98.8154 78.6551C98.9428 78.8377 99.0696 79.0207 99.1956 79.2044C99.0696 79.0207 98.9428 78.8377 98.8154 78.6551ZM98.1527 77.7201C98.2783 77.8945 98.4032 78.0694 98.5274 78.2449C98.4032 78.0694 98.2783 77.8945 98.1527 77.7201ZM97.47 76.7872C97.6252 76.9962 97.7794 77.2059 97.9326 77.4165C97.7794 77.2059 97.6252 76.9962 97.47 76.7872ZM96.8085 75.9077C96.9544 76.0986 97.099 76.2904 97.2432 76.4826C97.099 76.2904 96.9544 76.0986 96.8085 75.9077ZM47.8822 72.3253C44.7669 73.0664 41.7263 73.9951 38.8106 75.0816C41.7264 73.9951 44.7669 73.0663 47.8822 72.3253ZM96.0513 74.9349C96.2208 75.1495 96.3899 75.3644 96.5572 75.5808C96.3899 75.3644 96.2208 75.1495 96.0513 74.9349ZM95.3408 74.0476C95.523 74.2715 95.7037 74.4966 95.8834 74.7225C95.7037 74.4966 95.523 74.2715 95.3408 74.0476ZM0.0055593 69.0398C0.00550949 70.7386 0.00485398 72.5361 0.00444744 74.4323C0.00485679 72.5361 0.00550668 70.7386 0.0055593 69.0398ZM94.5814 73.1281C94.7773 73.3616 94.972 73.5961 95.1651 73.8319C94.972 73.5961 94.7773 73.3616 94.5814 73.1281ZM93.9843 72.4254C94.1253 72.5895 94.2661 72.7538 94.4057 72.9191C94.2661 72.7538 94.1253 72.5895 93.9843 72.4254ZM93.1338 71.4503C93.3033 71.6412 93.4721 71.8327 93.6397 72.0251C93.4721 71.8327 93.3033 71.6412 93.1338 71.4503ZM54.1976 71.1012C53.4882 71.2074 52.7809 71.3239 52.0761 71.4503C52.7809 71.3239 53.4882 71.2074 54.1976 71.1012ZM92.3755 70.6086C92.5453 70.7944 92.7146 70.9806 92.8825 71.1679C92.7146 70.9806 92.5453 70.7944 92.3755 70.6086ZM59.5467 70.5008C58.4728 70.5805 57.4004 70.6861 56.3312 70.8143L55.2627 70.95C56.6852 70.7581 58.1146 70.6071 59.5467 70.5008ZM90.7366 68.8697C90.9689 69.1091 91.2002 69.3492 91.4293 69.5913C91.2002 69.3492 90.9689 69.1091 90.7366 68.8697ZM89.2723 67.3987C89.4458 67.5685 89.6197 67.7378 89.7915 67.909C89.6197 67.7378 89.4458 67.5685 89.2723 67.3987ZM88.5751 66.7249C88.6969 66.8412 88.8189 66.9571 88.9398 67.074C88.8189 66.9571 88.6969 66.8412 88.5751 66.7249ZM87.6234 65.831C87.7848 65.9803 87.947 66.1286 88.1071 66.279C87.947 66.1286 87.7848 65.9803 87.6234 65.831ZM86.5905 64.8892C86.8202 65.0945 87.0484 65.301 87.2754 65.5085C87.0484 65.301 86.8202 65.0945 86.5905 64.8892ZM84.6903 63.2414C85.2856 63.7418 85.8724 64.2494 86.4504 64.7636C86.1629 64.5078 85.8727 64.2543 85.5809 64.0019L84.6903 63.2414ZM82.4266 61.2101C82.7303 61.5374 83.0398 61.8397 83.3416 62.1107L83.7864 62.4932C83.3502 62.1362 82.882 61.7008 82.4266 61.2101ZM0 55.4873C0.00209009 57.4436 0.00359438 59.7425 0.00444744 62.3842C0.00359916 59.7425 0.00208677 57.4436 0 55.4873ZM200.325 60.2483C200.325 58.5747 200.326 57.0607 200.327 55.7064C200.326 57.0607 200.325 58.5747 200.325 60.2483ZM80.6142 58.6928C80.8553 59.159 81.1438 59.6106 81.4581 60.0393C81.1434 59.6102 80.8544 59.1584 80.6131 58.6917L80.6142 58.6928ZM80.1428 54.5967C79.8206 55.417 79.814 56.2771 80.0161 57.1262C80.0413 57.2324 80.07 57.3384 80.1017 57.4442C80.1648 57.6554 80.2404 57.8653 80.3263 58.0735L80.4619 58.3848C79.9333 57.25 79.6991 56.0463 80.0361 54.9058L80.1428 54.5967ZM95.7666 54.8291C96.518 55.1772 97.2598 55.545 97.9937 55.9287C96.9837 55.4007 95.9579 54.9049 94.915 54.4444L95.7666 54.8291ZM82.371 52.3219C82.0267 52.4714 81.7067 52.659 81.4159 52.8878C81.3675 52.9258 81.3202 52.9653 81.2736 53.0057C81.1332 53.1271 80.9998 53.2591 80.8755 53.4026C80.7925 53.4985 80.7159 53.596 80.6443 53.6939C80.716 53.596 80.7925 53.4985 80.8755 53.4026C81.2899 52.9242 81.7974 52.571 82.371 52.3219ZM90.4831 52.7611C90.8909 52.8863 91.2847 53.0163 91.6583 53.1469C91.2847 53.0163 90.8909 52.8863 90.4831 52.7611ZM86.884 51.9416C87.1593 51.9781 87.4357 52.0206 87.7112 52.0706C87.4357 52.0206 87.1593 51.978 86.884 51.9416ZM85.095 51.8204C84.8131 51.8224 84.5356 51.8354 84.2645 51.8616C84.1286 51.8746 83.9945 51.8919 83.862 51.9116C83.7297 51.9313 83.5991 51.9539 83.4706 51.9805L83.0903 52.0717C83.7124 51.9016 84.3895 51.8253 85.095 51.8204ZM0.352459 41.6325C0.302477 41.8389 0.259153 42.0707 0.219036 42.3274C0.258035 42.0776 0.299644 41.8513 0.348012 41.6491L0.352459 41.6325ZM1.22638 39.441C1.0451 39.7905 0.878837 40.1514 0.728268 40.5239C0.878851 40.1514 1.04508 39.7905 1.22638 39.441ZM199.559 40.4072L199.71 40.7886C199.625 40.5634 199.533 40.3429 199.436 40.1259C199.478 40.2191 199.519 40.3125 199.559 40.4072ZM2.42496 37.5764C2.49809 37.4831 2.57246 37.3907 2.64845 37.2995C2.57247 37.3907 2.49809 37.4831 2.42496 37.5764ZM2.89417 37.0127C2.98673 36.9086 3.08121 36.8059 3.17769 36.7047C3.08122 36.8059 2.98672 36.9086 2.89417 37.0127ZM192.059 33.6916C192.235 33.7614 192.405 33.8333 192.572 33.9017C192.119 33.7154 191.631 33.5214 191.106 33.3246L192.059 33.6916ZM103.463 0.49033C104.456 0.860807 105.735 1.34163 107.303 1.92796C105.735 1.34154 104.455 0.860831 103.462 0.49033C103.407 0.469798 103.35 0.451757 103.293 0.432513C103.35 0.451804 103.408 0.469742 103.463 0.49033ZM100.16 0C98.8364 4.08377e-05 97.7347 0.163788 96.8563 0.49033C97.7348 0.163747 98.8362 0 100.16 0ZM58.4249 219.798C58.4509 219.818 58.4767 219.839 58.5027 219.859C58.4767 219.839 58.4509 219.818 58.4249 219.798ZM44.1508 207.758C43.8156 207.449 43.4814 207.14 43.1479 206.829C43.4814 207.14 43.8156 207.449 44.1508 207.758ZM113.818 175.844C113.754 175.852 113.69 175.858 113.626 175.863C113.69 175.858 113.754 175.852 113.818 175.844ZM110.245 174.653C110.209 174.618 110.174 174.583 110.139 174.546C110.174 174.583 110.209 174.618 110.245 174.653ZM91.665 167.285C91.6404 167.396 91.6137 167.507 91.5894 167.618C91.6137 167.507 91.6404 167.396 91.665 167.285ZM108.734 166.654C108.752 166.535 108.769 166.416 108.788 166.299C108.769 166.416 108.752 166.535 108.734 166.654ZM148.29 162.462C148.25 162.379 148.209 162.297 148.171 162.215C148.209 162.297 148.25 162.379 148.29 162.462ZM167.899 158.604C167.762 158.849 167.626 159.094 167.487 159.337C167.626 159.094 167.762 158.849 167.899 158.604ZM3.28999 146.109C3.20343 145.798 3.11552 145.487 3.03204 145.174C3.11552 145.487 3.20344 145.798 3.28999 146.109ZM174.999 142.18C174.925 142.419 174.85 142.659 174.774 142.897C174.85 142.659 174.925 142.419 174.999 142.18ZM103.13 134.656C103.114 134.69 103.097 134.724 103.08 134.757C103.097 134.724 103.114 134.69 103.13 134.656ZM26.4211 82.8235C26.3541 82.9178 26.2884 83.0123 26.2254 83.1081C26.2884 83.0123 26.3541 82.9178 26.4211 82.8235ZM26.8814 82.2253C26.9526 82.1391 27.025 82.0533 27.0993 81.9685C27.025 82.0533 26.9526 82.1391 26.8814 82.2253ZM27.6853 81.3458C27.7563 81.275 27.828 81.2044 27.901 81.1346C27.828 81.2044 27.7563 81.275 27.6853 81.3458ZM27.9232 81.1123C28.0144 81.0256 28.1071 80.9396 28.2012 80.8544C28.1071 80.9396 28.0144 81.0256 27.9232 81.1123ZM91.5583 69.728C91.7565 69.9385 91.954 70.1494 92.1498 70.3618C91.954 70.1494 91.7565 69.9385 91.5583 69.728ZM90.0005 68.1203C90.2104 68.3309 90.4192 68.5424 90.6265 68.7551C90.4192 68.5424 90.2104 68.3309 90.0005 68.1203ZM0.608187 40.8341L0.476988 41.1988C0.519423 41.075 0.563707 40.9522 0.609299 40.8308C0.608887 40.8319 0.608598 40.833 0.608187 40.8341ZM0.609299 40.8308C0.647997 40.7277 0.687296 40.6253 0.728268 40.5239C0.687299 40.6253 0.647994 40.7277 0.609299 40.8308ZM2.26152 37.791C2.31535 37.719 2.36949 37.6472 2.42496 37.5764C2.36949 37.6472 2.31534 37.719 2.26152 37.791ZM3.40007 36.4779L3.41785 36.4612C3.33672 36.5416 3.25623 36.6223 3.17769 36.7047C3.25065 36.6282 3.32487 36.5527 3.40007 36.4779ZM2.73184 37.2017C2.78567 37.1385 2.83894 37.0748 2.89417 37.0127C2.83895 37.0748 2.78566 37.1385 2.73184 37.2017Z" fill="#0047BB"/>
<path d="M467.638 65.0137L462.665 65.0224C457.4 65.0316 453.14 69.3066 453.149 74.5709L453.158 79.544C453.167 84.8083 457.442 89.0684 462.707 89.0592L467.68 89.0505C472.944 89.0413 477.204 84.7663 477.195 79.5021L477.186 74.5289C477.177 69.2647 472.902 65.0046 467.638 65.0137Z" fill="#0047BB"/>
<path d="M548.531 161.911C543.52 173.186 534.553 178.893 522.469 179.298C502.887 179.967 490.982 167.393 488.1 148.734C484.747 127.043 489.663 100.322 515.763 96.2623C523.58 95.0472 533.385 96.0833 539.894 100.925C543.624 103.694 545.733 106.614 547.937 110.353C547.959 110.389 547.992 110.418 548.032 110.434C548.071 110.45 548.115 110.453 548.156 110.443C548.197 110.432 548.234 110.409 548.261 110.375C548.288 110.342 548.303 110.301 548.305 110.259V70.888C548.305 70.7706 548.351 70.658 548.434 70.575C548.517 70.492 548.63 70.4453 548.747 70.4453H565.456C565.609 70.4453 565.755 70.5058 565.863 70.6136C565.97 70.7213 566.031 70.8675 566.031 71.0199V177.057C566.031 177.207 565.971 177.35 565.865 177.456C565.759 177.562 565.616 177.622 565.466 177.622H551.29C551.156 177.623 551.026 177.573 550.926 177.483C550.825 177.392 550.76 177.268 550.744 177.132L549.049 161.996C549.042 161.937 549.016 161.882 548.975 161.84C548.934 161.797 548.88 161.768 548.822 161.759C548.763 161.749 548.703 161.759 548.651 161.787C548.598 161.814 548.556 161.858 548.531 161.911ZM505.977 137.196C505.929 150.816 511.6 163.503 527.225 163.56C542.851 163.607 548.615 150.967 548.663 137.338C548.71 123.709 543.03 111.031 527.404 110.974C511.779 110.918 506.024 123.567 505.977 137.196Z" fill="#0047BB"/>
<path d="M373.523 78.7578H393.086C393.136 78.7589 393.185 78.7721 393.229 78.7962C393.272 78.8202 393.31 78.8545 393.337 78.8961C393.365 78.9377 393.383 78.9854 393.388 79.0351C393.393 79.0848 393.387 79.1351 393.368 79.1817L354.497 177.721C354.475 177.778 354.436 177.828 354.386 177.863C354.335 177.898 354.276 177.918 354.214 177.919H334.652C334.602 177.918 334.553 177.905 334.509 177.881C334.465 177.857 334.428 177.822 334.4 177.781C334.372 177.739 334.355 177.691 334.349 177.642C334.344 177.592 334.351 177.542 334.369 177.495L373.24 78.9556C373.263 78.8984 373.301 78.8491 373.352 78.8139C373.402 78.7787 373.462 78.7592 373.523 78.7578Z" fill="#0047BB"/>
<path d="M332.773 127.294H314.981C314.818 127.294 314.661 127.235 314.538 127.13C314.415 127.024 314.335 126.879 314.313 126.719C313.229 119.062 309.82 112.29 302.078 109.935C288.995 105.951 276.251 112.346 273.755 126.352C272.399 133.994 272.644 140.986 274.49 147.328C277.626 158.122 287.912 162.37 298.367 160.919C308.492 159.525 312.711 152.612 314.397 143.325C314.426 143.173 314.507 143.037 314.625 142.939C314.744 142.841 314.893 142.787 315.047 142.788H332.943C333.025 142.788 333.106 142.804 333.182 142.837C333.257 142.87 333.324 142.918 333.38 142.978C333.436 143.038 333.479 143.109 333.505 143.187C333.532 143.264 333.543 143.346 333.536 143.428C332.585 155.965 327.245 167.069 315.838 172.693C303.019 179.013 283.118 179.126 270.807 171.694C262.72 166.809 257.574 159.443 255.37 149.598C253.668 141.993 253.423 134.141 254.635 126.041C257.828 104.745 273.925 93.292 294.618 93.1883C315.904 93.0753 332.161 104.237 333.367 126.672C333.371 126.752 333.358 126.833 333.33 126.908C333.302 126.983 333.259 127.052 333.203 127.11C333.148 127.168 333.081 127.215 333.007 127.246C332.933 127.278 332.854 127.294 332.773 127.294Z" fill="#0047BB"/>
<path d="M442.022 121.297C442.027 121.338 442.024 121.38 442.012 121.42C441.999 121.46 441.979 121.497 441.951 121.528C441.923 121.559 441.889 121.584 441.851 121.601C441.813 121.618 441.772 121.627 441.73 121.626H424.136C423.981 121.626 423.83 121.578 423.704 121.488C423.577 121.399 423.482 121.273 423.429 121.127C423.266 120.675 423.087 120.097 422.892 119.394C420.161 109.467 407.078 109.467 399.27 111.04C399.198 111.053 399.123 111.047 399.054 111.022C398.985 110.996 398.924 110.953 398.877 110.897C398.83 110.84 398.799 110.772 398.787 110.7C398.775 110.627 398.782 110.553 398.809 110.484L404.441 96.2051C404.5 96.0601 404.6 95.9356 404.729 95.8469C404.858 95.7581 405.01 95.7091 405.166 95.7059C423.166 95.4139 439.309 101.093 442.022 121.297Z" fill="#0047BB"/>
<path d="M596.633 144.991C597.849 154.909 603.566 162.359 613.455 164.111C622.978 165.807 633.244 164.111 637.36 154.372C637.413 154.244 637.504 154.134 637.621 154.057C637.739 153.98 637.877 153.939 638.02 153.939H656.471C656.566 153.938 656.659 153.96 656.743 154.003C656.827 154.046 656.899 154.109 656.955 154.186C657.01 154.264 657.046 154.353 657.06 154.448C657.075 154.543 657.066 154.639 657.036 154.73C652.591 168.199 643.442 176.196 629.59 178.72C622.055 180.089 614.922 180.13 608.19 178.842C584.926 174.387 577.579 156.784 578.474 134.762C579.162 117.79 587.968 102.72 604.79 97.737C614.021 95.0056 623.339 94.9334 632.745 97.5204C647.316 101.533 656.179 114.672 657.827 128.942C658.411 134.028 658.546 139.098 658.232 144.153C658.228 144.235 658.192 144.311 658.132 144.367C658.073 144.423 657.994 144.454 657.912 144.454H597.114C597.046 144.454 596.978 144.468 596.916 144.495C596.854 144.523 596.798 144.564 596.753 144.614C596.707 144.665 596.673 144.725 596.652 144.79C596.632 144.855 596.625 144.924 596.633 144.991ZM597.406 130.006H639.414C639.482 130.006 639.55 129.992 639.613 129.964C639.675 129.936 639.732 129.895 639.778 129.844C639.824 129.792 639.859 129.732 639.881 129.665C639.902 129.599 639.91 129.529 639.903 129.46C638.528 115.256 628.422 108.361 614.614 110.556C604.545 112.157 598.282 119.711 596.85 129.356C596.838 129.436 596.843 129.518 596.865 129.596C596.888 129.674 596.927 129.746 596.979 129.808C597.032 129.87 597.097 129.919 597.171 129.953C597.245 129.988 597.325 130.005 597.406 130.006Z" fill="#0047BB"/>
<path d="M473.81 97.6172H456.254C455.989 97.6172 455.773 97.8322 455.773 98.0975V177.084C455.773 177.349 455.989 177.564 456.254 177.564H473.81C474.076 177.564 474.291 177.349 474.291 177.084V98.0975C474.291 97.8322 474.076 97.6172 473.81 97.6172Z" fill="#0047BB"/>
<path d="M389.731 151.773C391.194 158.065 394.723 161.907 400.318 163.301C408.719 165.402 427.19 166.042 425.306 152.413C424.741 148.354 418.317 146.574 414.644 145.933C405.404 144.313 396.136 143.522 387.527 140.546C387.461 140.522 387.401 140.486 387.35 140.44C387.298 140.393 387.257 140.336 387.228 140.272C387.199 140.209 387.183 140.141 387.181 140.071C387.179 140.001 387.191 139.932 387.216 139.867L393.084 124.986C393.109 124.924 393.152 124.872 393.207 124.835C393.558 124.628 393.919 124.741 394.29 125.174C395.571 126.7 401.768 128.084 403.078 128.292C412.829 129.824 418.892 130.819 421.265 131.277C427.548 132.492 434.951 134.772 439.133 139.547C445.538 146.866 444.878 160.626 438.992 168.152C428.348 181.743 405.602 181.583 390.532 177.222C384.818 175.565 380.159 172.595 376.554 168.312C376.437 168.176 376.36 168.011 376.33 167.833C376.3 167.656 376.319 167.473 376.385 167.304L382.516 151.754C382.578 151.604 382.681 151.475 382.814 151.385C382.946 151.294 383.102 151.246 383.26 151.245H389.072C389.225 151.246 389.374 151.298 389.494 151.394C389.613 151.49 389.697 151.623 389.731 151.773Z" fill="#0047BB"/>
</svg>
