<?xml version="1.0" encoding="UTF-8"?>
<svg xmlns="http://www.w3.org/2000/svg" version="1.0" width="698px" height="390px" viewBox="0 0 6980 3900" preserveAspectRatio="xMidYMid meet">
  <g id="layer101" fill="#599b3e" stroke="none">
    <path d="M0 1950 l0 -1950 3490 0 3490 0 0 1950 0 1950 -3490 0 -3490 0 0 -1950z"></path>
  </g>
  <g id="layer102" fill="#5db141" stroke="none">
    <path d="M0 1950 l0 -1950 3490 0 3490 0 0 1950 0 1950 -3490 0 -3490 0 0 -1950z m5717 913 c-4 -3 -10 -3 -14 0 -3 4 0 7 7 7 7 0 10 -3 7 -7z m-677 -517 c0 -3 -5 -8 -12 -12 -7 -4 -8 -3 -4 4 7 12 16 16 16 8z m-3837 -723 c-7 -2 -21 -2 -30 0 -10 3 -4 5 12 5 17 0 24 -2 18 -5z m-396 -1080 c-4 -3 -10 -3 -14 0 -3 4 0 7 7 7 7 0 10 -3 7 -7z"></path>
  </g>
  <g id="layer103" fill="#639d4d" stroke="none">
    <path d="M0 1950 l0 -1950 3490 0 3490 0 0 1950 0 1950 -3490 0 -3490 0 0 -1950z m5886 1158 c5 -4 31 -8 57 -9 26 -2 47 -6 47 -9 0 -11 71 -40 82 -34 6 4 8 2 4 -4 -3 -6 2 -13 13 -17 11 -3 26 -16 34 -28 8 -12 27 -35 42 -51 18 -20 25 -36 22 -52 -2 -13 0 -24 4 -24 5 0 9 -7 9 -15 0 -8 3 -15 8 -15 4 0 8 -78 9 -173 2 -148 -1 -181 -19 -239 -11 -38 -24 -68 -29 -68 -4 0 -12 -15 -17 -32 -5 -23 -18 -38 -42 -50 -18 -9 -36 -21 -39 -26 -3 -5 -20 -16 -37 -25 -24 -12 -34 -13 -44 -4 -10 9 -11 9 -6 0 6 -11 -7 -18 -17 -10 -2 1 -11 -3 -19 -10 -10 -9 -94 -12 -315 -12 -165 0 -307 -3 -316 -7 -10 -3 -17 -12 -17 -19 0 -7 -7 -16 -16 -19 -10 -4 -14 -12 -10 -22 4 -9 2 -22 -4 -29 -14 -17 10 -64 37 -71 12 -3 21 -11 20 -18 -1 -8 49 -10 188 -8 161 3 240 -2 402 -22 11 -2 33 -13 48 -25 15 -11 32 -21 36 -21 17 0 50 -41 42 -53 -4 -7 0 -7 10 2 15 12 17 11 17 -3 0 -9 6 -16 14 -16 15 0 62 -100 81 -175 21 -83 19 -231 -4 -293 -11 -30 -18 -59 -15 -67 3 -7 1 -16 -5 -20 -17 -10 -13 -45 7 -51 9 -3 28 -11 40 -17 13 -6 33 -12 45 -12 33 0 48 -40 45 -119 l-3 -70 -450 0 -450 0 -90 28 c-58 17 -98 36 -112 52 -12 13 -27 24 -32 24 -21 0 -81 71 -81 96 0 17 -7 28 -20 31 -11 3 -20 10 -20 15 0 5 5 6 10 3 15 -9 12 7 -10 53 -17 35 -20 61 -20 172 0 125 1 135 30 197 17 35 30 71 30 80 0 16 44 63 59 63 5 0 15 8 22 17 10 11 10 14 2 9 -7 -4 -13 -3 -13 3 0 5 7 14 17 19 14 9 14 10 -5 16 -12 4 -22 11 -22 16 0 5 -15 16 -34 25 -30 15 -58 43 -65 67 -33 102 -42 190 -20 203 5 4 8 12 6 18 -2 6 2 30 9 52 11 39 21 45 55 31 12 -6 16 0 16 26 1 18 5 50 11 71 8 30 7 37 -4 37 -8 0 -13 5 -12 12 2 7 -2 12 -8 13 -6 0 -23 15 -38 33 -16 17 -32 30 -37 27 -5 -4 -6 0 -3 8 3 8 6 64 8 123 3 142 20 226 53 259 14 14 22 25 18 25 -5 0 0 9 10 20 10 11 21 17 25 15 4 -3 11 6 14 20 4 16 11 22 20 19 9 -3 20 3 28 15 7 12 20 21 29 21 8 0 19 3 23 8 4 4 11 7 14 8 4 0 14 4 22 7 30 13 606 18 626 5z m-2916 -719 c63 -5 145 -9 182 -9 37 0 89 -5 116 -11 l49 -10 0 -120 0 -119 -395 0 c-390 0 -395 0 -430 -22 -74 -45 -71 -36 -72 -255 -1 -169 1 -199 14 -209 20 -14 260 -27 307 -15 21 5 43 5 52 -1 9 -5 38 -8 64 -8 65 2 99 1 226 -6 l107 -6 1 -92 c1 -50 2 -105 3 -123 l1 -31 -70 -4 c-38 -2 -113 -4 -167 -4 -53 1 -92 -1 -88 -4 11 -7 -143 -13 -295 -13 -60 0 -112 -3 -115 -6 -3 -3 -13 -11 -24 -16 -17 -10 -19 -25 -19 -200 -1 -178 10 -269 31 -263 4 1 18 -4 32 -12 23 -14 283 -20 798 -20 l42 0 0 -102 c0 -125 -5 -145 -36 -152 -13 -4 -99 -9 -191 -11 -93 -3 -190 -8 -218 -11 -60 -7 -477 -11 -520 -4 -16 2 -50 18 -75 35 -25 16 -57 36 -72 44 -15 8 -25 18 -22 23 3 4 0 8 -6 8 -6 0 -14 8 -17 18 -4 9 -12 23 -19 29 -7 7 -15 32 -19 55 -4 24 -11 48 -16 54 -14 17 -6 1350 7 1395 11 35 17 44 69 102 13 14 20 29 16 33 -3 4 2 4 11 1 13 -4 15 -2 11 10 -5 12 -2 15 10 10 11 -4 25 1 38 14 41 41 97 48 349 42 129 -2 287 -8 350 -14z m-2064 3 c8 -5 11 -119 12 -377 1 -328 3 -370 17 -373 8 -2 13 -8 10 -13 -9 -13 150 -17 230 -6 34 5 36 5 10 -3 -22 -6 -1 -9 80 -9 235 -2 411 -7 422 -14 8 -5 11 -47 9 -130 l-1 -122 -75 -2 c-253 -5 -360 -9 -360 -13 0 -3 -69 -6 -153 -7 -83 -1 -160 -3 -171 -3 -13 0 -17 -5 -13 -20 3 -11 1 -20 -5 -20 -7 0 -7 -62 -2 -182 4 -101 8 -191 8 -200 0 -10 4 -18 8 -18 4 0 8 -7 8 -15 0 -8 8 -15 19 -15 10 0 24 -7 31 -15 7 -8 22 -15 34 -16 15 -1 530 -7 769 -9 16 0 17 -11 15 -126 l-3 -126 -40 -3 c-22 -2 -119 -6 -215 -10 -96 -3 -204 -9 -240 -13 -36 -3 -116 -6 -177 -6 -73 0 -113 -4 -113 -10 0 -7 -3 -8 -8 -1 -4 6 -40 10 -80 11 -41 0 -77 5 -80 10 -4 6 -31 19 -59 29 -32 12 -53 25 -54 34 0 11 -2 12 -6 4 -2 -7 -10 -13 -15 -13 -6 0 -8 3 -5 7 4 3 -2 16 -14 29 -11 12 -29 37 -39 55 -10 19 -23 33 -30 31 -6 -1 -9 2 -5 8 4 6 1 18 -7 27 -10 13 -14 167 -16 821 -1 443 0 812 2 819 4 10 40 13 148 13 79 0 148 -4 154 -8z m2972 -495 c2 -489 3 -499 22 -504 11 -3 20 -12 20 -19 0 -8 6 -14 13 -14 8 0 22 -9 32 -20 10 -11 29 -20 42 -20 12 0 23 -4 23 -8 0 -30 285 -46 313 -18 7 7 25 16 40 20 15 3 27 11 27 17 0 6 -4 7 -10 4 -11 -7 -14 8 -3 19 28 27 31 92 31 559 l0 482 139 3 c76 1 148 0 161 -3 l24 -6 -4 -513 c-2 -416 -6 -516 -17 -529 -7 -9 -11 -26 -8 -36 3 -11 -1 -22 -8 -25 -7 -2 -16 -23 -20 -45 -4 -22 -16 -52 -27 -66 -10 -14 -16 -25 -11 -25 4 0 -8 -10 -27 -22 -19 -12 -47 -32 -62 -44 -52 -42 -279 -75 -329 -48 -13 7 -36 13 -50 14 -14 0 -56 16 -93 35 -37 19 -72 33 -77 30 -4 -3 -11 6 -15 20 -3 14 -13 25 -20 25 -8 0 -17 6 -20 14 -11 29 -52 28 -84 -2 -16 -16 -30 -37 -30 -47 0 -10 -14 -31 -31 -47 l-31 -30 -111 4 -112 4 -3 660 c-1 362 0 665 3 672 3 10 41 12 157 10 l153 -3 3 -498z m2289 -544 c-4 -3 -10 -3 -14 0 -3 4 0 7 7 7 7 0 10 -3 7 -7z m-5360 -810 c-4 -3 -10 -3 -14 0 -3 4 0 7 7 7 7 0 10 -3 7 -7z"></path>
    <path d="M5143 2963 c4 -3 10 -3 14 0 3 4 0 7 -7 7 -7 0 -10 -3 -7 -7z"></path>
    <path d="M5390 2863 c0 -7 -7 -13 -16 -13 -8 0 -12 -4 -9 -10 3 -5 2 -10 -2 -10 -5 0 -16 -13 -25 -28 -14 -23 -17 -58 -19 -181 -1 -137 1 -154 18 -166 23 -18 10 -17 253 -15 115 1 213 6 223 12 15 7 18 7 12 -2 -5 -8 -1 -11 10 -8 10 1 23 17 28 33 6 17 15 33 22 37 15 9 19 253 4 290 -15 36 -72 62 -139 65 -231 9 -360 7 -360 -4z"></path>
    <path d="M5280 2550 c0 -7 3 -10 7 -7 3 4 3 10 0 14 -4 3 -7 0 -7 -7z"></path>
    <path d="M5658 1765 c-2 -3 -55 -5 -118 -6 -107 -1 -160 -11 -160 -31 0 -4 -3 -7 -7 -6 -26 5 -41 -15 -36 -47 3 -19 1 -35 -6 -39 -14 -9 -15 -232 -2 -241 5 -3 12 -18 16 -34 5 -23 10 -28 28 -24 18 4 19 3 7 -6 -13 -9 -12 -11 4 -11 12 0 16 -5 13 -14 -5 -12 23 -14 181 -13 l187 2 44 42 c37 37 43 47 39 77 -2 19 -1 33 3 30 4 -2 10 12 14 32 8 44 -4 164 -16 164 -5 0 -9 8 -9 19 0 23 -39 73 -51 66 -5 -4 -9 -2 -9 4 0 13 -112 45 -122 36z"></path>
    <path d="M5335 1310 c3 -5 8 -10 11 -10 2 0 4 5 4 10 0 6 -5 10 -11 10 -5 0 -7 -4 -4 -10z"></path>
    <path d="M5278 1093 c6 -2 18 -2 25 0 6 3 1 5 -13 5 -14 0 -19 -2 -12 -5z"></path>
    <path d="M2340 2365 c0 -8 9 -15 20 -15 24 0 27 15 4 24 -22 9 -24 8 -24 -9z"></path>
    <path d="M3253 2323 c4 -3 10 -3 14 0 3 4 0 7 -7 7 -7 0 -10 -3 -7 -7z"></path>
    <path d="M2186 723 c-12 -12 -6 -33 9 -33 8 0 15 6 15 14 0 17 -14 28 -24 19z"></path>
    <path d="M2216 631 c-3 -5 4 -11 16 -14 30 -8 35 -1 9 12 -11 6 -22 7 -25 2z"></path>
    <path d="M2413 543 c4 -3 10 -3 14 0 3 4 0 7 -7 7 -7 0 -10 -3 -7 -7z"></path>
    <path d="M983 543 c4 -3 10 -3 14 0 3 4 0 7 -7 7 -7 0 -10 -3 -7 -7z"></path>
    <path d="M1093 543 c4 -3 10 -3 14 0 3 4 0 7 -7 7 -7 0 -10 -3 -7 -7z"></path>
    <path d="M1128 543 c6 -2 18 -2 25 0 6 3 1 5 -13 5 -14 0 -19 -2 -12 -5z"></path>
    <path d="M4700 1430 c0 -5 5 -10 10 -10 6 0 10 5 10 10 0 6 -4 10 -10 10 -5 0 -10 -4 -10 -10z"></path>
  </g>
  <g id="layer104" fill="#66ad4d" stroke="none">
    <path d="M0 1950 l0 -1950 3490 0 3490 0 0 1950 0 1950 -3490 0 -3490 0 0 -1950z m5375 1180 c3 -5 -1 -10 -10 -10 -9 0 -13 5 -10 10 3 6 8 10 10 10 2 0 7 -4 10 -10z m525 -6 c0 -2 -9 -4 -21 -4 -11 0 -18 4 -14 10 5 8 35 3 35 -6z m55 -4 c3 -5 -1 -10 -10 -10 -9 0 -13 5 -10 10 3 6 8 10 10 10 2 0 7 -4 10 -10z m-68 -13 c6 -4 37 -8 68 -8 31 -1 52 -5 46 -8 -6 -4 16 -20 49 -36 33 -16 67 -39 76 -52 8 -13 19 -21 24 -18 15 9 31 -27 34 -77 0 -16 4 -28 8 -28 3 0 9 -8 12 -17 3 -10 3 0 1 22 -4 38 -4 39 6 10 6 -16 13 -37 16 -45 19 -50 29 -308 14 -323 -8 -8 -11 30 -12 129 0 76 -4 148 -8 159 -4 10 -6 -56 -4 -149 1 -92 6 -173 10 -179 3 -7 2 -8 -3 -4 -5 5 -16 -14 -25 -45 -10 -31 -13 -55 -7 -59 5 -3 -1 -17 -12 -30 -20 -23 -21 -23 -10 -1 6 13 7 22 1 22 -11 0 -25 -36 -17 -48 9 -15 -10 -33 -40 -38 -16 -3 -33 -11 -39 -18 -5 -7 -24 -20 -41 -29 -24 -12 -34 -13 -44 -4 -10 9 -11 9 -6 0 4 -7 2 -14 -3 -14 -6 -1 -15 -3 -21 -4 -5 -1 -13 -3 -17 -4 -5 -1 -1 -6 7 -11 12 -8 11 -10 -6 -10 -11 0 -23 2 -26 5 -8 8 -582 7 -602 -1 -11 -4 -16 -14 -13 -26 4 -13 1 -18 -10 -16 -9 2 -18 -3 -20 -9 -3 -7 1 -13 8 -13 7 0 5 -8 -7 -21 -19 -21 -18 -21 5 -40 14 -12 18 -19 10 -20 -8 -1 4 -7 26 -14 22 -8 31 -14 21 -14 -14 -1 -17 -4 -9 -12 8 -8 22 -8 49 0 50 14 405 15 384 1 -11 -7 -3 -10 30 -10 25 0 62 -4 83 -9 21 -5 39 -5 43 0 3 5 10 9 15 9 6 0 7 -4 4 -10 -6 -9 8 -14 28 -11 5 1 6 -3 2 -9 -3 -5 7 -15 22 -22 15 -7 32 -18 36 -25 4 -7 13 -13 19 -13 6 0 5 7 -3 18 -13 15 -12 16 3 3 14 -11 15 -17 6 -35 -10 -19 -10 -20 5 -7 14 11 20 11 32 1 8 -7 15 -19 15 -27 0 -8 4 -11 10 -8 6 4 7 -1 3 -11 -5 -13 -3 -15 7 -9 8 5 11 4 6 -3 -3 -6 1 -29 10 -52 10 -25 20 -37 24 -30 4 7 12 -6 18 -29 5 -23 7 -41 3 -41 -4 0 -5 -49 -3 -110 3 -92 0 -119 -17 -167 -14 -40 -17 -60 -10 -69 7 -9 5 -15 -6 -22 -20 -11 -16 -47 5 -47 8 0 26 -8 39 -17 13 -10 29 -14 34 -11 6 4 2 10 -9 15 -13 6 -10 7 11 2 17 -3 35 -10 40 -16 7 -8 6 -9 -2 -4 -7 4 -6 -4 3 -23 10 -20 14 -53 12 -97 l-3 -67 -397 -1 c-219 -1 -398 -4 -398 -8 0 -5 -9 -8 -21 -8 -11 0 -17 5 -14 10 4 6 -11 10 -36 10 -61 0 -210 47 -235 73 -25 27 -79 59 -87 51 -8 -8 -67 87 -67 108 0 9 -4 20 -10 23 -5 3 -10 12 -10 18 0 7 9 1 20 -13 26 -33 25 -14 -2 41 -18 38 -21 59 -19 160 2 84 -1 119 -10 124 -9 6 -9 11 2 19 24 19 43 60 31 64 -8 2 -7 14 3 39 9 20 13 38 10 41 -2 3 10 12 27 22 18 9 34 23 37 31 4 12 2 12 -12 0 -26 -21 -20 -7 9 20 18 17 23 19 18 6 -8 -22 9 -22 27 0 10 11 10 14 2 9 -7 -4 -13 -3 -13 3 0 5 7 14 17 19 14 9 14 10 -5 16 -12 4 -22 11 -22 16 0 4 -19 18 -42 30 -39 20 -41 20 -23 2 12 -10 27 -22 35 -25 12 -4 12 -6 -1 -6 -18 -1 -62 42 -52 52 3 4 -1 15 -10 24 -8 10 -16 21 -16 26 0 4 -3 24 -8 45 l-7 37 -7 -30 c-7 -30 -7 -30 -8 -3 0 15 -5 30 -11 33 -5 3 -10 19 -10 35 0 44 20 47 22 3 1 -38 1 -38 5 -5 3 19 0 47 -6 63 -6 18 -6 31 0 34 5 4 9 -2 9 -11 0 -14 3 -15 12 -6 9 9 9 15 0 24 -7 7 -12 17 -12 23 0 5 5 3 10 -5 7 -11 11 -4 16 28 3 23 14 47 22 54 11 9 14 9 9 1 -5 -7 1 -16 12 -22 28 -15 28 -15 27 24 -1 25 -5 34 -14 30 -7 -3 -10 0 -7 5 3 6 13 10 22 10 11 0 14 7 11 25 -3 13 0 26 6 29 6 2 0 5 -14 5 -20 1 -22 3 -10 11 8 5 12 10 8 11 -5 1 -11 2 -15 3 -18 4 -40 22 -46 39 -4 9 -12 16 -19 15 -8 -2 -11 9 -9 37 2 22 4 78 5 125 2 47 6 105 11 129 6 35 5 42 -5 36 -9 -5 -11 -4 -6 4 4 6 12 9 17 5 6 -3 7 4 3 20 -5 20 -2 26 10 26 8 0 13 6 11 13 -3 6 5 23 16 37 11 14 17 18 13 10 -7 -13 -5 -13 9 -1 9 7 15 17 12 21 -8 12 33 43 46 34 8 -4 21 4 35 22 13 15 33 29 46 30 13 1 30 4 38 8 32 13 607 16 627 3z m163 -27 c8 -5 11 -10 5 -10 -5 0 -17 5 -25 10 -8 5 -10 10 -5 10 6 0 17 -5 25 -10z m-893 -27 c-4 -3 -7 0 -7 7 0 7 3 10 7 7 3 -4 3 -10 0 -14z m928 7 c3 -5 1 -10 -4 -10 -6 0 -11 5 -11 10 0 6 2 10 4 10 3 0 8 -4 11 -10z m51 -29 c-4 -5 0 -11 6 -14 7 -2 9 -8 5 -13 -4 -5 -12 -2 -17 6 -13 20 -12 30 1 30 5 0 8 -4 5 -9z m-1139 -223 c-3 -8 -6 -5 -6 6 -1 11 2 17 5 13 3 -3 4 -12 1 -19z m-10 -115 c-3 -10 -5 -2 -5 17 0 19 2 27 5 18 2 -10 2 -26 0 -35z m1230 -265 c-3 -8 -6 -5 -6 6 -1 11 2 17 5 13 3 -3 4 -12 1 -19z m-5290 -13 c2 -6 -57 -9 -167 -7 -108 2 -168 7 -165 13 9 13 327 7 332 -6z m1848 5 c14 -6 4 -9 -38 -9 -36 -1 -56 3 -52 9 7 12 62 12 90 0z m1112 -5 c2 -6 -57 -9 -167 -7 -108 2 -168 7 -165 13 9 13 327 7 332 -6z m858 5 c4 -7 -52 -10 -159 -10 -91 0 -166 -3 -166 -7 0 -5 64 -7 142 -5 78 2 153 0 166 -3 l24 -6 -3 -527 c-1 -434 -4 -535 -16 -574 -17 -52 -27 -65 -17 -20 5 21 4 24 -6 16 -6 -7 -13 -30 -13 -52 -1 -22 -6 -37 -11 -34 -5 3 -7 -2 -3 -11 4 -10 2 -16 -6 -14 -7 1 -11 -3 -10 -10 2 -7 -13 -29 -32 -49 -19 -20 -35 -41 -35 -47 0 -6 -3 -7 -6 -4 -4 3 -16 2 -27 -4 -15 -8 -18 -8 -12 1 6 9 1 10 -16 5 -71 -23 -130 -35 -179 -36 l-55 -2 50 -6 c47 -6 48 -7 17 -12 -18 -3 -43 0 -56 6 -13 7 -41 11 -62 9 -24 -2 -33 0 -24 6 10 6 6 10 -16 15 -16 3 -44 10 -62 15 -30 8 -32 7 -20 -7 12 -15 11 -15 -9 -3 -12 8 -20 17 -17 21 2 4 -15 17 -38 29 -31 16 -38 17 -29 6 12 -15 11 -15 -10 -8 -13 5 -25 14 -25 21 -1 6 -2 18 -3 26 0 8 -8 15 -16 15 -7 0 -18 6 -22 14 -4 8 -20 17 -34 21 -23 6 -28 3 -37 -24 -6 -17 -14 -31 -17 -31 -3 0 -3 5 1 11 4 7 1 10 -7 7 -8 -3 -16 -13 -17 -23 -3 -11 0 -15 8 -10 15 9 -17 -66 -36 -85 -9 -8 -6 2 6 23 12 20 18 37 13 37 -5 0 -16 -11 -23 -25 -13 -24 -15 -25 -134 -22 l-121 2 0 670 0 670 155 0 155 0 5 -500 c5 -469 6 -500 23 -499 9 1 31 -16 48 -37 19 -24 39 -39 52 -39 19 0 17 3 -10 20 -45 27 -42 33 5 10 74 -37 114 -52 127 -46 8 3 17 1 20 -4 9 -14 -27 -12 -74 5 -22 8 -41 10 -41 6 0 -27 221 -39 285 -16 16 5 17 5 5 -4 -18 -13 -1 -15 19 -2 8 5 10 14 6 22 -6 9 -3 11 10 5 20 -7 55 1 55 13 0 5 -12 6 -27 4 l-28 -4 24 14 c13 8 30 32 37 53 17 50 17 55 -1 48 -9 -4 -15 0 -15 9 0 8 6 17 13 20 17 5 18 892 0 923 -7 12 -9 24 -6 28 11 10 331 7 338 -4z m-2390 -10 c-11 -5 -27 -9 -35 -9 -9 0 -8 4 5 9 11 5 27 9 35 9 9 0 8 -4 -5 -9z m106 1 c24 1 69 0 99 -1 30 -1 106 -3 169 -5 62 -2 141 -6 175 -10 33 -3 131 -10 216 -14 101 -6 167 -14 190 -24 19 -8 28 -16 20 -16 -12 -1 -15 -20 -14 -111 l1 -110 -396 0 c-366 0 -398 -2 -424 -18 -15 -10 -24 -22 -20 -27 5 -4 2 -6 -6 -3 -8 2 -23 -4 -33 -14 -15 -15 -17 -40 -18 -212 -1 -108 1 -200 4 -205 4 -6 18 -6 36 -1 18 5 32 5 35 -1 4 -5 -6 -9 -21 -9 -15 0 -25 -2 -23 -4 2 -2 65 -6 139 -10 91 -4 129 -3 115 4 -16 8 -13 9 13 4 19 -3 39 -1 47 6 17 14 50 5 40 -10 -6 -9 44 -16 70 -10 35 8 125 8 130 0 9 -15 172 -13 178 3 6 12 12 -176 8 -225 -1 -17 3 -29 11 -30 33 -3 -157 -14 -244 -14 -53 1 -91 -3 -85 -7 7 -5 -6 -6 -29 -3 -23 3 -95 -1 -160 -9 -65 -8 -121 -11 -124 -6 -6 10 -100 10 -100 0 0 -4 6 -10 13 -13 6 -3 0 -3 -14 0 -16 3 -30 1 -34 -6 -14 -22 -10 -381 4 -423 7 -20 17 -35 22 -31 5 3 6 10 3 16 -4 7 -2 8 5 4 6 -4 9 -11 6 -16 -3 -5 5 -15 17 -22 18 -10 106 -13 378 -14 l355 0 -320 6 -320 5 380 1 c209 1 358 -2 330 -6 l-50 -7 43 -1 42 -2 0 -102 c0 -57 -3 -113 -6 -125 -7 -24 -36 -37 -77 -34 -18 2 -27 -2 -25 -11 2 -9 -9 -12 -37 -11 -220 10 -285 11 -255 4 l35 -8 -37 -2 c-21 0 -38 3 -38 9 0 5 -9 6 -22 1 -12 -4 -63 -7 -113 -6 l-90 2 75 -6 c45 -4 70 -9 62 -14 -15 -10 -190 2 -213 14 -9 4 -20 4 -25 0 -5 -5 -40 -5 -79 -1 -59 7 -71 5 -82 -9 -9 -13 -14 -14 -24 -3 -11 10 -9 12 6 13 11 0 15 3 8 5 -7 3 -20 1 -30 -4 -13 -7 -24 -6 -38 4 -10 8 -15 14 -10 14 8 0 -53 45 -93 67 -19 11 -20 11 -15 -4 6 -15 5 -16 -9 -3 -10 10 -13 19 -7 26 6 8 4 14 -6 18 -11 4 -14 2 -9 -6 4 -6 3 -8 -4 -5 -5 4 -8 17 -5 30 3 16 2 18 -5 8 -8 -11 -12 -9 -22 9 -7 12 -8 20 -3 17 6 -4 5 14 -1 43 -13 56 -29 80 -20 29 6 -34 5 -34 -9 -9 -7 14 -10 30 -6 36 10 12 17 1364 8 1364 -3 0 -4 12 -1 28 l6 27 7 -25 c7 -25 7 -24 10 5 1 17 2 37 1 45 -1 9 10 29 24 45 l26 30 -22 -37 c-12 -21 -17 -38 -12 -38 6 0 19 16 31 35 11 19 25 35 31 35 6 0 8 5 4 12 -5 7 -2 9 9 5 12 -4 14 -2 10 10 -5 12 -2 15 10 10 10 -4 26 3 42 17 14 13 43 26 65 30 22 3 40 11 40 17 0 6 9 8 19 4 10 -3 39 -5 62 -4z m566 -7 c-3 -3 -12 -4 -19 -1 -8 3 -5 6 6 6 11 1 17 -2 13 -5z m172 -10 c2 -2 -25 -4 -60 -3 -44 0 -58 3 -44 9 18 7 94 3 104 -6z m3008 -1 c-4 -3 -7 0 -7 7 0 7 3 10 7 7 3 -4 3 -10 0 -14z m-5617 -754 c0 -504 -3 -758 -10 -754 -11 7 -15 1497 -3 1508 3 4 8 7 10 7 2 0 3 -342 3 -761z m316 753 c8 -5 11 -119 12 -377 l1 -370 33 -2 c45 -2 48 -4 13 -13 -23 -6 -13 -8 45 -11 90 -4 103 -3 205 9 44 6 85 7 90 3 6 -3 -26 -9 -70 -12 -80 -6 -80 -6 30 -7 61 0 133 -3 160 -5 40 -4 43 -3 15 3 -26 6 -19 7 25 4 169 -11 198 -13 160 -6 -31 5 -36 9 -22 15 31 12 84 8 97 -8 11 -13 10 -14 -6 -8 -16 5 -17 4 -7 -8 7 -9 10 -56 9 -134 l-2 -120 -52 3 c-29 1 -52 -1 -52 -5 0 -4 -74 -8 -165 -8 -91 0 -165 -3 -165 -7 0 -5 6 -8 13 -8 6 0 4 -5 -6 -11 -21 -12 -46 -1 -26 12 8 5 -26 8 -82 6 -53 -1 -92 -5 -85 -9 9 -7 -70 -5 -99 2 -5 1 -20 2 -33 1 -19 -1 -22 -5 -17 -21 4 -12 2 -20 -5 -20 -9 0 -10 -46 -4 -182 4 -101 8 -191 8 -200 0 -20 16 -25 17 -5 0 6 6 1 12 -13 14 -31 44 -54 77 -59 14 -2 185 -5 380 -5 l355 -2 -350 6 -350 6 383 1 382 2 -2 -67 -2 -67 -3 63 c-4 60 -5 62 -31 61 -24 -2 -25 -2 -4 -6 23 -4 23 -6 20 -134 -2 -71 0 -129 4 -129 4 0 9 10 11 23 4 19 4 19 6 -5 1 -33 -10 -41 -46 -32 -25 7 -25 8 -8 15 13 5 6 7 -20 4 -22 -3 -121 -8 -220 -12 -125 -5 -165 -9 -130 -14 48 -6 47 -6 -20 -7 -51 0 -64 2 -50 9 16 7 12 8 -15 5 -19 -3 -57 -8 -85 -11 -27 -3 -61 -8 -75 -11 -19 -4 -22 -2 -10 6 11 7 5 10 -25 9 -29 0 -35 -2 -20 -8 18 -7 17 -8 -6 -13 -15 -2 -35 1 -45 9 -23 17 -38 17 -31 -1 7 -19 -50 -33 -66 -17 -8 8 -4 11 15 11 15 0 29 4 32 9 3 4 -5 7 -17 5 -68 -10 -118 -11 -106 -3 9 6 0 8 -27 7 -22 0 -49 4 -60 10 -24 14 0 16 26 2 10 -6 21 -6 24 -2 3 5 -20 17 -50 27 -33 11 -54 24 -55 34 -1 13 -2 13 -6 -1 -2 -10 -11 -18 -19 -18 -10 0 -13 6 -10 18 4 12 -1 26 -14 37 -11 10 -20 22 -20 27 0 5 -7 20 -17 34 -12 19 -18 22 -25 12 -7 -9 -8 -8 -4 6 4 10 1 25 -6 34 -10 12 -14 188 -16 820 -1 443 0 812 2 819 4 10 40 13 148 13 79 0 148 -4 154 -8z m2641 -34 c-3 -7 -5 -2 -5 12 0 14 2 19 5 13 2 -7 2 -19 0 -25z m350 -5 c-3 -10 -5 -4 -5 12 0 17 2 24 5 18 2 -7 2 -21 0 -30z m-1637 17 c-20 -13 -33 -13 -25 0 3 6 14 10 23 10 15 0 15 -2 2 -10z m-73 -47 c-4 -3 -10 -3 -14 0 -3 4 0 7 7 7 7 0 10 -3 7 -7z m1710 -60 c-3 -10 -5 -4 -5 12 0 17 2 24 5 18 2 -7 2 -21 0 -30z m2213 3 c0 -2 -7 -9 -15 -16 -13 -11 -14 -10 -9 4 5 14 24 23 24 12z m-2563 -853 c-1 -158 -2 -32 -2 282 0 314 1 443 2 288 2 -155 2 -411 0 -570z m2522 824 c-2 -1 -13 -9 -24 -17 -19 -14 -19 -14 -6 3 7 9 18 17 24 17 6 0 8 -1 6 -3z m-62 -33 c-3 -3 -12 -4 -19 -1 -8 3 -5 6 6 6 11 1 17 -2 13 -5z m-597 -24 c18 -12 2 -12 -25 0 -13 6 -15 9 -5 9 8 0 22 -4 30 -9z m495 0 c-3 -5 -12 -7 -20 -3 -21 7 -19 13 6 13 11 0 18 -4 14 -10z m-545 -4 c0 -2 -9 -6 -20 -9 -11 -3 -18 -1 -14 4 5 9 34 13 34 5z m457 -3 c-4 -3 -10 -3 -14 0 -3 4 0 7 7 7 7 0 10 -3 7 -7z m-3730 -80 c-4 -3 -7 0 -7 7 0 7 3 10 7 7 3 -4 3 -10 0 -14z m520 11 c-3 -3 -12 -4 -19 -1 -8 3 -5 6 6 6 11 1 17 -2 13 -5z m551 -1 c-97 -2 -259 -2 -360 0 -101 1 -21 2 177 2 198 0 280 -1 183 -2z m-621 -10 c-4 -3 -10 -3 -14 0 -3 4 0 7 7 7 7 0 10 -3 7 -7z m2750 -10 c-4 -3 -10 -3 -14 0 -3 4 0 7 7 7 7 0 10 -3 7 -7z m-3197 -624 c0 -411 -3 -618 -10 -614 -11 7 -15 1217 -3 1228 3 4 8 7 10 7 2 0 3 -279 3 -621z m2907 584 c-4 -3 -7 0 -7 7 0 7 3 10 7 7 3 -4 3 -10 0 -14z m826 -30 c-7 -2 -21 -2 -30 0 -10 3 -4 5 12 5 17 0 24 -2 18 -5z m72 -3 c3 -6 -4 -10 -17 -10 -18 0 -20 2 -8 10 19 12 18 12 25 0z m110 -50 c3 -5 2 -10 -4 -10 -5 0 -13 5 -16 10 -3 6 -2 10 4 10 5 0 13 -4 16 -10z m155 -185 c0 -5 -5 -3 -10 5 -5 8 -10 20 -10 25 0 6 5 3 10 -5 5 -8 10 -19 10 -25z m-3590 -135 c11 -7 7 -10 -18 -10 -20 0 -31 4 -27 10 8 13 26 13 45 0z m3627 -12 c-3 -8 -6 -5 -6 6 -1 11 2 17 5 13 3 -3 4 -12 1 -19z m-3564 -5 c-7 -2 -19 -2 -25 0 -7 3 -2 5 12 5 14 0 19 -2 13 -5z m44 1 c-3 -3 -12 -4 -19 -1 -8 3 -5 6 6 6 11 1 17 -2 13 -5z m488 -4 c3 -5 -1 -10 -10 -10 -9 0 -13 5 -10 10 3 6 8 10 10 10 2 0 7 -4 10 -10z m-108 -7 c-4 -3 -10 -3 -14 0 -3 4 0 7 7 7 7 0 10 -3 7 -7z m150 -20 c-4 -3 -7 0 -7 7 0 7 3 10 7 7 3 -4 3 -10 0 -14z m1783 -75 c0 -34 -3 -59 -6 -55 -4 3 -6 28 -6 54 0 58 1 63 7 63 3 0 5 -28 5 -62z m1207 15 c-3 -10 -5 -4 -5 12 0 17 2 24 5 18 2 -7 2 -21 0 -30z m-4480 -65 c-2 -18 -4 -4 -4 32 0 36 2 50 4 33 2 -18 2 -48 0 -65z m2180 0 c-2 -18 -4 -4 -4 32 0 36 2 50 4 33 2 -18 2 -48 0 -65z m2290 -55 c-4 -3 -7 0 -7 7 0 7 3 10 7 7 3 -4 3 -10 0 -14z m-4470 -50 c-3 -10 -5 -2 -5 17 0 19 2 27 5 18 2 -10 2 -26 0 -35z m1500 25 c-3 -8 -6 -5 -6 6 -1 11 2 17 5 13 3 -3 4 -12 1 -19z m2960 -5 c-4 -3 -7 0 -7 7 0 7 3 10 7 7 3 -4 3 -10 0 -14z m-2 -41 c-8 -8 -25 10 -19 20 4 6 9 5 15 -3 4 -7 6 -15 4 -17z m-3062 -9 c-7 -2 -19 -2 -25 0 -7 3 -2 5 12 5 14 0 19 -2 13 -5z m80 0 c-7 -2 -21 -2 -30 0 -10 3 -4 5 12 5 17 0 24 -2 18 -5z m-1740 -10 c-7 -2 -19 -2 -25 0 -7 3 -2 5 12 5 14 0 19 -2 13 -5z m102 -3 c-3 -5 -21 -10 -40 -10 -19 0 -37 5 -40 10 -4 6 12 10 40 10 28 0 44 -4 40 -10z m1382 3 c-4 -3 -10 -3 -14 0 -3 4 0 7 7 7 7 0 10 -3 7 -7z m105 -5 c-17 -8 -26 -8 -34 0 -9 9 -4 12 23 11 32 0 33 -1 11 -11z m-1839 -9 c-8 -8 -16 -8 -30 0 -16 9 -14 10 12 11 21 0 26 -3 18 -11z m144 5 c-3 -3 -12 -4 -19 -1 -8 3 -5 6 6 6 11 1 17 -2 13 -5z m1363 2 c0 -11 -19 -15 -25 -6 -3 5 1 10 9 10 9 0 16 -2 16 -4z m55 -6 c-3 -5 -12 -10 -20 -10 -8 0 -17 5 -20 10 -4 6 5 10 20 10 15 0 24 -4 20 -10z m-1785 -4 c0 -11 -19 -15 -25 -6 -3 5 1 10 9 10 9 0 16 -2 16 -4z m5328 -179 c-4 -129 -23 -122 -23 7 0 84 3 102 13 94 9 -8 12 -37 10 -101z m-1601 86 c-4 -3 -7 0 -7 7 0 7 3 10 7 7 3 -4 3 -10 0 -14z m-741 -58 c37 -32 28 -32 -16 0 -19 14 -29 25 -23 25 5 0 23 -11 39 -25z m1149 -5 c3 -5 4 -10 1 -10 -3 0 -8 5 -11 10 -3 6 -4 10 -1 10 3 0 8 -4 11 -10z m140 -88 c-4 -5 -106 46 -120 59 -5 6 20 -4 57 -23 37 -18 65 -34 63 -36z m-1708 1 c-4 -3 -7 0 -7 7 0 7 3 10 7 7 3 -4 3 -10 0 -14z m540 10 c-4 -3 -10 -3 -14 0 -3 4 0 7 7 7 7 0 10 -3 7 -7z m1216 -20 c-7 -2 -19 -2 -25 0 -7 3 -2 5 12 5 14 0 19 -2 13 -5z m34 -10 c-4 -3 -10 -3 -14 0 -3 4 0 7 7 7 7 0 10 -3 7 -7z m-1690 -9 c-3 -3 -12 -4 -19 -1 -8 3 -5 6 6 6 11 1 17 -2 13 -5z m101 -1 c-15 -2 -42 -2 -60 0 -18 2 -6 4 27 4 33 0 48 -2 33 -4z m439 1 c-3 -3 -12 -4 -19 -1 -8 3 -5 6 6 6 11 1 17 -2 13 -5z m333 2 c0 -2 -11 -6 -25 -8 -13 -3 -22 -1 -19 3 5 9 44 13 44 5z m-60 -10 c0 -3 -4 -8 -10 -11 -5 -3 -10 -1 -10 4 0 6 5 11 10 11 6 0 10 -2 10 -4z m-3515 -95 c3 -5 1 -12 -5 -16 -5 -3 -10 1 -10 9 0 18 6 21 15 7z m1492 -13 c-3 -8 -6 -5 -6 6 -1 11 2 17 5 13 3 -3 4 -12 1 -19z m84 -86 c-7 -2 -18 1 -23 6 -8 8 -4 9 13 5 13 -4 18 -8 10 -11z m-1504 1 c-4 -3 -10 -3 -14 0 -3 4 0 7 7 7 7 0 10 -3 7 -7z m-420 -50 c-4 -3 -7 0 -7 7 0 7 3 10 7 7 3 -4 3 -10 0 -14z m1520 -70 c-4 -3 -7 0 -7 7 0 7 3 10 7 7 3 -4 3 -10 0 -14z m-1469 -48 c-3 -3 -9 2 -12 12 -6 14 -5 15 5 6 7 -7 10 -15 7 -18z m27 -35 c10 -11 16 -20 13 -20 -3 0 -13 9 -23 20 -10 11 -16 20 -13 20 3 0 13 -9 23 -20z m1152 -7 c-4 -3 -7 0 -7 7 0 7 3 10 7 7 3 -4 3 -10 0 -14z m413 -55 c0 -6 -6 -5 -15 2 -8 7 -15 14 -15 16 0 2 7 1 15 -2 8 -4 15 -11 15 -16z m40 -18 c8 -5 11 -10 5 -10 -5 0 -17 5 -25 10 -8 5 -10 10 -5 10 6 0 17 -5 25 -10z m1055 -9 c-2 -5 -17 -6 -32 -3 l-28 6 25 6 c27 7 43 3 35 -9z m-1612 -12 c-9 -9 -32 -9 -85 -2 l-73 10 85 2 c63 1 81 -2 73 -10z m-188 -9 c-3 -5 -15 -10 -25 -10 -10 0 -22 5 -25 10 -4 6 7 10 25 10 18 0 29 -4 25 -10z m1492 4 c-3 -3 -12 -4 -19 -1 -8 3 -5 6 6 6 11 1 17 -2 13 -5z m-1732 -14 c-3 -5 -12 -10 -20 -10 -8 0 -17 5 -20 10 -4 6 5 10 20 10 15 0 24 -4 20 -10z m1220 -10 c-8 -13 -65 -13 -85 0 -11 7 0 10 38 10 33 0 51 -4 47 -10z"></path>
    <path d="M5105 3010 c3 -5 8 -10 11 -10 2 0 4 5 4 10 0 6 -5 10 -11 10 -5 0 -7 -4 -4 -10z"></path>
    <path d="M6150 2970 c0 -5 5 -10 11 -10 5 0 7 5 4 10 -3 6 -8 10 -11 10 -2 0 -4 -4 -4 -10z"></path>
    <path d="M5055 2960 c-3 -5 -2 -10 4 -10 5 0 13 5 16 10 3 6 2 10 -4 10 -5 0 -13 -4 -16 -10z"></path>
    <path d="M5143 2963 c4 -3 10 -3 14 0 3 4 0 7 -7 7 -7 0 -10 -3 -7 -7z"></path>
    <path d="M5390 2863 c0 -7 -8 -13 -17 -14 -16 0 -16 -1 0 -8 17 -6 17 -8 3 -20 -13 -11 -16 -11 -16 0 0 7 -8 2 -17 -11 -15 -20 -19 -54 -23 -178 -3 -83 -1 -152 3 -152 5 0 6 -4 3 -9 -7 -11 23 -25 48 -22 11 2 16 -2 11 -9 -5 -7 2 -9 22 -6 15 2 111 6 213 7 l185 3 -145 6 c-86 3 -140 8 -132 14 8 4 76 7 151 5 112 -3 141 -1 156 11 18 14 18 14 0 -14 -18 -28 -18 -28 1 -25 13 3 23 18 31 49 6 25 12 39 12 32 1 -7 5 -11 9 -8 13 8 14 257 1 289 -9 21 -14 25 -20 15 -7 -10 -11 -7 -15 10 -5 17 -11 21 -25 17 -13 -4 -19 -2 -17 6 2 7 -6 14 -17 16 -17 4 -18 2 -5 -7 12 -10 12 -11 -5 -5 -11 4 -78 7 -150 6 -71 -1 -156 3 -187 7 -46 7 -58 6 -58 -5z m25 -13 c3 -5 1 -10 -4 -10 -6 0 -11 5 -11 10 0 6 2 10 4 10 3 0 8 -4 11 -10z m47 -2 c-9 -9 -15 -9 -24 0 -9 9 -7 12 12 12 19 0 21 -3 12 -12z m-116 -82 c-6 -19 -12 -33 -14 -31 -7 6 9 65 17 65 5 0 3 -15 -3 -34z m544 -18 c0 -18 -2 -20 -9 -8 -6 8 -7 18 -5 22 9 14 14 9 14 -14z m-3 -60 c-3 -7 -5 -2 -5 12 0 14 2 19 5 13 2 -7 2 -19 0 -25z m0 -65 c-4 -3 -7 0 -7 7 0 7 3 10 7 7 3 -4 3 -10 0 -14z m-382 -163 c4 -6 -12 -10 -40 -10 -28 0 -44 4 -40 10 3 6 21 10 40 10 19 0 37 -4 40 -10z"></path>
    <path d="M5513 2873 c15 -2 39 -2 55 0 15 2 2 4 -28 4 -30 0 -43 -2 -27 -4z"></path>
    <path d="M5280 2550 c0 -7 3 -10 7 -7 3 4 3 10 0 14 -4 3 -7 0 -7 -7z"></path>
    <path d="M5413 2003 c9 -2 23 -2 30 0 6 3 -1 5 -18 5 -16 0 -22 -2 -12 -5z"></path>
    <path d="M6070 1880 c0 -5 5 -10 11 -10 5 0 7 5 4 10 -3 6 -8 10 -11 10 -2 0 -4 -4 -4 -10z"></path>
    <path d="M5040 1770 c-7 -17 -10 -33 -8 -36 3 -2 11 9 18 26 7 17 10 33 8 36 -3 2 -11 -9 -18 -26z"></path>
    <path d="M5658 1764 c-2 -2 -55 -4 -118 -5 -115 -1 -165 -12 -156 -35 3 -7 -2 -18 -11 -26 -14 -11 -15 -10 -9 10 7 22 6 22 -13 10 -13 -8 -19 -20 -16 -30 3 -10 8 -27 11 -38 4 -14 1 -20 -8 -18 -10 2 -13 -20 -15 -97 -1 -64 1 -93 7 -80 6 14 9 16 10 5 1 -8 3 -26 4 -39 3 -22 2 -23 -11 -6 -11 16 -13 17 -13 3 0 -9 4 -19 9 -23 5 -3 12 -19 16 -35 4 -17 11 -27 16 -24 6 3 8 13 5 23 -5 14 -4 14 8 -1 21 -29 78 -47 123 -41 25 3 43 1 47 -6 11 -17 -77 -14 -124 5 -23 9 -44 14 -47 10 -4 -3 2 -6 11 -6 11 0 16 -5 13 -13 -4 -11 28 -14 166 -14 115 0 149 2 102 6 -49 5 -65 9 -52 15 10 5 39 6 65 2 36 -5 56 -2 82 12 19 11 41 17 48 14 7 -2 13 2 11 9 -4 30 2 44 11 24 10 -24 13 -16 30 76 12 67 5 189 -11 189 -5 0 -9 -5 -9 -11 0 -5 -5 -7 -10 -4 -8 5 -7 11 0 20 14 17 6 47 -21 71 -19 17 -20 17 -13 -2 7 -17 6 -17 -9 -5 -9 7 -15 17 -12 21 3 4 -2 11 -11 14 -24 9 -31 7 -14 -4 12 -8 12 -10 1 -10 -8 0 -19 7 -25 15 -10 13 -60 28 -68 19z m-198 -18 c0 -2 -7 -6 -15 -10 -8 -3 -15 -1 -15 4 0 6 7 10 15 10 8 0 15 -2 15 -4z m260 0 c0 -11 -19 -15 -25 -6 -3 5 1 10 9 10 9 0 16 -2 16 -4z m110 -77 c0 -6 -4 -7 -10 -4 -5 3 -10 11 -10 16 0 6 5 7 10 4 6 -3 10 -11 10 -16z m-473 -6 c-4 -3 -7 0 -7 7 0 7 3 10 7 7 3 -4 3 -10 0 -14z m-20 -75 c-3 -8 -6 -5 -6 6 -1 11 2 17 5 13 3 -3 4 -12 1 -19z m513 -4 c0 -8 -5 -12 -10 -9 -6 4 -8 11 -5 16 9 14 15 11 15 -7z m7 -61 c-4 -3 -7 0 -7 7 0 7 3 10 7 7 3 -4 3 -10 0 -14z m-7 -60 c0 -20 -3 -24 -11 -16 -7 7 -9 19 -6 27 10 24 17 19 17 -11z m-13 -60 c-4 -3 -7 0 -7 7 0 7 3 10 7 7 3 -4 3 -10 0 -14z"></path>
    <path d="M6162 1710 c0 -14 2 -19 5 -12 2 6 2 18 0 25 -3 6 -5 1 -5 -13z"></path>
    <path d="M5765 1319 c-22 -14 -25 -19 -12 -19 17 0 54 27 46 34 -2 2 -17 -5 -34 -15z"></path>
    <path d="M5335 1310 c3 -5 8 -10 11 -10 2 0 4 5 4 10 0 6 -5 10 -11 10 -5 0 -7 -4 -4 -10z"></path>
    <path d="M5030 1273 c0 -4 8 -17 16 -28 15 -20 16 -20 12 4 -3 22 -28 44 -28 24z"></path>
    <path d="M5070 1200 c6 -11 13 -20 16 -20 2 0 0 9 -6 20 -6 11 -13 20 -16 20 -2 0 0 -9 6 -20z"></path>
    <path d="M5278 1093 c6 -2 18 -2 25 0 6 3 1 5 -13 5 -14 0 -19 -2 -12 -5z"></path>
    <path d="M4700 1430 c0 -5 5 -10 10 -10 6 0 10 5 10 10 0 6 -4 10 -10 10 -5 0 -10 -4 -10 -10z"></path>
    <path d="M3920 1370 c0 -5 5 -10 11 -10 5 0 7 5 4 10 -3 6 -8 10 -11 10 -2 0 -4 -4 -4 -10z"></path>
    <path d="M4727 1343 c-4 -3 -7 -16 -6 -27 0 -19 1 -19 10 3 10 24 8 36 -4 24z"></path>
    <path d="M4604 1111 c-32 -20 -52 -41 -37 -41 9 1 81 59 73 60 -3 0 -19 -9 -36 -19z"></path>
    <path d="M2340 2365 c0 -8 9 -15 20 -15 24 0 27 15 4 24 -22 9 -24 8 -24 -9z"></path>
    <path d="M3253 2323 c4 -3 10 -3 14 0 3 4 0 7 -7 7 -7 0 -10 -3 -7 -7z"></path>
    <path d="M2186 723 c-12 -12 -6 -33 9 -33 8 0 15 6 15 14 0 17 -14 28 -24 19z"></path>
    <path d="M2216 631 c-3 -5 4 -11 16 -14 30 -8 35 -1 9 12 -11 6 -22 7 -25 2z"></path>
    <path d="M2413 543 c4 -3 10 -3 14 0 3 4 0 7 -7 7 -7 0 -10 -3 -7 -7z"></path>
    <path d="M3103 543 c15 -2 37 -2 50 0 12 2 0 4 -28 4 -27 0 -38 -2 -22 -4z"></path>
    <path d="M940 860 c0 -7 3 -10 7 -7 3 4 3 10 0 14 -4 3 -7 0 -7 -7z"></path>
    <path d="M983 543 c4 -3 10 -3 14 0 3 4 0 7 -7 7 -7 0 -10 -3 -7 -7z"></path>
    <path d="M1093 543 c4 -3 10 -3 14 0 3 4 0 7 -7 7 -7 0 -10 -3 -7 -7z"></path>
    <path d="M1128 543 c6 -2 18 -2 25 0 6 3 1 5 -13 5 -14 0 -19 -2 -12 -5z"></path>
  </g>
  <g id="layer105" fill="#739d65" stroke="none">
    <path d="M0 1950 l0 -1950 3490 0 3490 0 0 1950 0 1950 -3490 0 -3490 0 0 -1950z m5915 1175 c59 -5 222 -83 231 -110 3 -11 16 -31 29 -45 12 -14 28 -43 35 -65 6 -22 14 -47 17 -55 18 -48 29 -294 15 -325 -6 -11 -15 -46 -22 -77 -6 -31 -24 -76 -40 -100 -16 -24 -30 -49 -30 -55 0 -7 -9 -13 -20 -13 -11 0 -20 -5 -20 -10 0 -13 -61 -51 -72 -44 -4 3 -5 -3 -1 -12 4 -10 2 -15 -3 -11 -9 5 -80 -6 -114 -19 -8 -3 -135 -6 -282 -5 -161 0 -270 -4 -273 -10 -4 -5 -10 -7 -15 -4 -5 3 -20 0 -35 -7 -22 -10 -25 -17 -24 -52 3 -46 13 -64 45 -76 12 -5 141 -10 288 -11 147 -1 269 -7 273 -11 3 -5 11 -7 19 -4 8 3 17 -1 20 -8 3 -8 17 -17 31 -21 35 -8 74 -35 67 -46 -3 -5 -2 -9 3 -8 24 4 41 -3 47 -18 3 -10 19 -36 36 -58 31 -43 63 -123 63 -162 0 -13 3 -25 7 -28 11 -7 2 -224 -11 -262 -6 -18 -8 -37 -5 -42 3 -5 -1 -14 -9 -21 -38 -31 -12 -57 77 -80 26 -7 52 -18 58 -25 6 -8 10 -49 8 -102 l-3 -88 -455 -5 c-250 -3 -462 -2 -470 2 -8 4 -41 11 -72 17 -32 6 -81 22 -110 36 -51 25 -138 97 -138 114 0 5 -8 19 -18 32 -16 21 -31 57 -38 94 -1 6 -3 13 -4 18 -1 4 -4 12 -5 17 -1 6 -4 13 -5 18 -1 4 -2 23 -2 42 0 19 -2 39 -5 43 -9 15 -9 108 0 114 5 3 7 19 6 37 -1 17 0 38 3 46 3 8 13 38 23 65 9 28 18 56 19 64 0 8 10 24 21 36 79 86 76 81 56 99 -9 9 -22 16 -28 16 -21 0 -82 80 -93 122 -7 24 -16 51 -21 60 -12 24 -11 65 2 73 5 4 9 17 8 28 -2 21 10 60 33 104 6 12 29 40 50 63 l40 41 -25 32 c-13 18 -39 46 -56 63 -29 29 -32 36 -35 110 -4 84 9 225 23 252 5 9 15 30 22 46 24 51 87 112 141 139 88 42 112 50 144 48 18 -1 34 1 37 6 4 7 482 6 562 -2z m-4985 -1090 l5 -390 80 -3 c44 -1 145 -4 225 -5 80 -1 153 -6 164 -11 10 -5 78 -6 151 -3 114 5 135 4 146 -10 15 -17 24 -249 10 -271 -11 -18 -288 -33 -583 -31 -75 1 -143 -3 -150 -7 -7 -5 -20 -9 -28 -9 -13 0 -15 -27 -18 -170 -1 -93 1 -176 4 -185 4 -8 8 -19 8 -25 4 -30 19 -54 44 -66 22 -11 109 -15 435 -17 l408 -3 -3 -147 -3 -147 -46 3 c-28 2 -50 -1 -54 -8 -5 -8 -33 -9 -95 -4 -53 4 -90 3 -93 -3 -4 -6 -50 -8 -111 -5 -58 2 -113 1 -123 -3 -10 -5 -72 -7 -137 -7 -66 1 -136 -3 -157 -10 -27 -7 -42 -8 -51 -1 -7 6 -25 11 -39 11 -38 -1 -136 30 -153 47 -8 9 -17 15 -18 15 -9 -4 -42 16 -66 39 -33 31 -80 135 -95 211 -7 35 -12 328 -14 810 -3 702 -2 756 14 768 9 6 13 12 9 12 -4 0 -4 5 -1 10 4 7 66 9 168 8 l162 -3 5 -390z m1950 380 c63 -3 156 -7 205 -10 50 -3 117 -7 150 -8 95 -3 96 -4 96 -143 0 -65 0 -127 0 -136 -1 -16 -32 -17 -409 -20 l-408 -3 -29 -23 c-51 -40 -54 -55 -55 -227 0 -185 4 -207 34 -203 11 1 27 -1 34 -6 7 -4 19 -2 27 4 12 10 22 10 46 0 22 -10 65 -11 161 -6 93 4 135 3 145 -5 10 -9 53 -10 148 -6 79 3 137 1 141 -4 3 -5 9 -7 13 -5 22 14 30 -17 32 -124 4 -159 5 -157 -89 -164 -138 -9 -344 -15 -485 -15 -109 1 -145 -2 -173 -16 l-35 -16 4 -172 c2 -95 6 -183 9 -197 3 -14 6 -29 7 -33 0 -4 20 -17 44 -27 39 -18 68 -20 438 -20 l397 0 1 -136 c1 -75 3 -141 4 -147 1 -6 -19 -9 -50 -8 -29 1 -58 -1 -65 -6 -7 -4 -53 -8 -103 -9 -49 0 -138 -1 -197 -2 -64 -1 -109 -5 -113 -12 -4 -7 -47 -9 -136 -4 -97 5 -136 4 -154 -6 -14 -8 -36 -10 -57 -6 -18 4 -45 9 -60 10 -16 2 -31 5 -35 6 -5 2 -12 4 -18 5 -5 1 -35 13 -65 27 -68 31 -122 83 -153 151 -36 75 -40 89 -38 119 1 14 -2 29 -8 33 -13 7 -16 1217 -4 1229 4 4 8 25 9 47 0 21 4 42 7 46 4 3 7 12 7 20 0 7 9 33 21 57 46 99 153 166 279 176 73 5 243 3 480 -5z m1005 4 c4 -5 7 -229 7 -497 1 -529 0 -515 57 -547 76 -41 158 -76 173 -74 7 1 21 -1 31 -6 9 -4 51 -5 94 -3 65 3 78 7 91 26 8 12 20 22 27 22 13 0 22 25 33 85 3 17 7 248 8 515 l4 485 164 3 c157 2 166 1 176 -18 11 -20 16 -961 6 -1041 -12 -97 -112 -283 -147 -275 -12 2 -15 -2 -12 -14 3 -12 -3 -19 -19 -23 -13 -3 -43 -13 -68 -22 -25 -9 -58 -18 -75 -20 -16 -2 -30 -4 -30 -5 0 -6 -127 -5 -130 0 -3 5 -29 11 -58 15 -77 10 -267 107 -251 129 2 3 1 4 -2 1 -4 -2 -16 2 -28 10 -11 8 -25 15 -31 15 -10 0 -55 -88 -55 -107 0 -6 -8 -17 -17 -26 -25 -21 -269 -19 -283 3 -11 17 -12 1329 -2 1345 4 5 7 13 8 18 1 4 2 9 3 12 2 10 320 5 326 -6z"></path>
    <path d="M5465 2849 c-4 -6 -13 -8 -21 -5 -36 14 -97 -39 -100 -88 -1 -12 -4 -28 -8 -37 -4 -8 -5 -71 -4 -140 l3 -124 38 -3 c21 -2 45 2 52 8 10 9 70 11 202 9 202 -4 212 -2 241 49 15 27 16 256 1 284 -12 23 -67 51 -85 44 -7 -3 -16 -1 -19 4 -9 14 -292 13 -300 -1z"></path>
    <path d="M5475 1742 c-3 -3 -17 -7 -31 -8 -25 -3 -93 -64 -95 -87 -1 -7 -4 -23 -7 -37 -7 -38 -7 -140 1 -184 6 -39 35 -79 71 -98 10 -5 89 -10 176 -10 149 -1 160 0 190 22 38 27 63 80 54 114 -3 13 -1 27 5 30 13 9 15 83 2 90 -5 3 -7 15 -4 25 3 10 0 22 -6 25 -5 4 -8 12 -5 19 8 22 -58 87 -91 90 -17 2 -36 7 -43 11 -13 8 -208 7 -217 -2z"></path>
  </g>
  <g id="layer106" fill="#7e7e7e" stroke="none">
    <path d="M0 1950 l0 -1950 3490 0 3490 0 0 1950 0 1950 -3490 0 -3490 0 0 -1950z m5918 1176 c35 -3 44 -6 147 -56 69 -34 104 -63 105 -87 0 -7 6 -16 13 -20 8 -4 20 -30 27 -58 7 -27 17 -55 21 -61 5 -6 6 -14 2 -17 -3 -4 -1 -12 5 -20 7 -8 10 -60 7 -147 -3 -148 -7 -181 -24 -223 -6 -16 -11 -36 -11 -45 0 -18 -41 -82 -52 -82 -5 0 -8 -7 -8 -15 0 -9 -9 -15 -22 -15 -12 0 -19 -3 -15 -6 3 -3 -9 -18 -26 -34 -24 -21 -35 -26 -45 -18 -10 8 -11 7 -6 -7 5 -12 4 -16 -3 -12 -6 4 -24 2 -40 -5 -15 -6 -32 -10 -37 -9 -5 1 -16 -1 -25 -5 -9 -4 -138 -6 -288 -6 -171 1 -274 -2 -278 -8 -4 -6 -10 -8 -15 -5 -5 3 -20 0 -35 -7 -23 -10 -25 -16 -23 -56 5 -76 20 -81 293 -82 291 -2 337 -5 352 -25 6 -9 17 -15 25 -13 17 3 79 -42 72 -53 -3 -5 2 -6 11 -3 17 7 68 -33 60 -47 -3 -4 -1 -10 4 -13 24 -15 87 -177 74 -190 -3 -3 0 -12 7 -21 7 -8 10 -24 7 -35 -3 -11 -1 -22 3 -25 12 -8 2 -132 -16 -188 -8 -26 -12 -52 -9 -56 2 -5 -2 -14 -10 -21 -19 -16 -19 -50 0 -50 8 0 15 -3 15 -8 0 -4 23 -13 51 -19 76 -19 79 -23 79 -124 0 -48 -4 -90 -8 -93 -13 -8 -918 -10 -931 -2 -6 4 -18 5 -26 2 -8 -3 -17 -1 -20 3 -2 5 -26 12 -51 16 -26 4 -56 12 -68 18 -40 22 -146 111 -146 122 0 6 -8 22 -17 35 -22 31 -44 91 -37 102 3 4 0 8 -6 8 -7 0 -10 6 -7 14 3 8 3 17 -1 20 -13 13 -22 195 -10 202 3 2 6 19 6 37 -1 17 2 39 5 47 5 14 14 51 21 90 6 35 18 59 31 64 8 3 15 10 15 16 0 6 16 25 35 42 32 30 33 33 18 50 -9 10 -21 18 -27 18 -17 0 -82 64 -99 96 -8 16 -13 41 -10 56 3 14 0 29 -6 32 -14 9 -14 73 -1 81 6 4 10 14 9 23 -2 17 11 57 34 101 6 13 29 42 50 63 l39 39 -25 32 c-34 44 -78 87 -90 87 -6 0 -7 52 -3 143 7 173 9 190 24 195 7 2 12 10 12 18 0 9 14 37 32 64 35 53 118 114 179 130 21 6 40 14 43 19 3 5 21 7 40 4 19 -2 37 0 39 4 5 7 484 6 565 -1z m-3451 -694 c10 8 19 8 36 -1 14 -7 67 -11 142 -10 108 2 290 -5 450 -15 33 -3 91 -6 130 -7 113 -4 110 0 110 -164 l0 -140 -385 2 c-394 2 -432 -1 -481 -37 -24 -19 -24 -20 -27 -220 l-4 -202 24 3 c12 2 29 0 36 -5 7 -4 19 -2 27 4 12 10 21 10 43 1 20 -8 70 -10 162 -6 90 4 137 2 146 -6 9 -7 57 -9 148 -5 75 3 138 1 141 -4 3 -5 17 -7 30 -4 l25 4 0 -135 c0 -93 -3 -135 -11 -135 -8 0 -8 -4 -1 -12 8 -10 -5 -13 -61 -15 -40 -1 -139 -4 -222 -7 -82 -3 -214 -7 -292 -8 -78 -2 -145 -6 -149 -10 -4 -5 -16 -8 -26 -8 -17 0 -18 -12 -18 -180 0 -160 2 -185 20 -219 19 -38 43 -56 60 -46 5 3 11 1 15 -5 4 -6 147 -10 408 -11 221 0 396 -3 389 -6 -6 -2 -10 -8 -8 -12 3 -4 6 -68 7 -141 l1 -134 -51 3 c-28 1 -56 -1 -63 -6 -14 -8 -82 -11 -285 -13 -70 0 -125 -5 -128 -10 -4 -7 -54 -8 -140 -4 -103 5 -138 4 -150 -6 -10 -9 -29 -10 -58 -6 -23 4 -51 8 -62 9 -11 1 -26 6 -33 11 -7 4 -16 6 -19 3 -6 -6 -141 60 -166 82 -10 9 -25 30 -32 48 -8 18 -18 33 -23 33 -6 0 -13 20 -16 45 -4 24 -11 47 -15 50 -5 2 -6 15 -4 29 3 13 0 27 -6 30 -15 10 -16 1272 0 1282 6 3 9 15 6 25 -3 10 -2 21 3 24 6 4 12 23 24 75 1 3 11 19 24 37 12 17 22 36 22 41 0 6 15 18 33 28 107 56 130 66 176 73 28 4 54 11 58 15 4 3 11 2 17 -4 6 -6 14 -6 23 2z m-1537 -397 l5 -390 80 -3 c44 -1 145 -4 225 -5 80 -1 150 -5 157 -10 6 -4 82 -5 168 -2 l156 5 -3 -152 -3 -152 -75 -3 c-41 -1 -136 -4 -212 -5 -75 -2 -139 -6 -143 -10 -4 -3 -72 -4 -152 -2 -79 2 -150 1 -156 -3 -7 -4 -19 -8 -27 -8 -13 0 -15 -27 -18 -169 -2 -112 1 -173 9 -182 6 -7 8 -17 5 -23 -10 -16 15 -58 43 -72 20 -11 114 -15 436 -17 l410 -3 -3 -137 c-2 -75 -5 -143 -7 -150 -3 -9 -16 -10 -45 -6 -25 4 -45 2 -54 -5 -11 -9 -38 -10 -94 -6 -53 5 -82 4 -86 -4 -5 -7 -44 -9 -120 -5 -63 3 -116 2 -119 -3 -3 -5 -63 -8 -134 -7 -70 1 -145 -3 -165 -8 -27 -8 -41 -8 -51 0 -7 6 -22 11 -32 10 -43 -2 -105 14 -147 37 -23 14 -49 28 -56 31 -22 11 -67 58 -79 84 -29 60 -46 108 -56 155 -12 56 -22 1550 -11 1575 4 8 6 21 5 28 -2 10 35 12 171 10 l173 -3 5 -390z m2970 -105 c0 -332 3 -507 10 -520 6 -11 25 -27 43 -35 18 -9 43 -22 57 -30 53 -29 101 -46 119 -40 11 3 22 2 25 -3 3 -5 35 -10 71 -11 56 -2 69 1 98 23 19 15 39 26 44 26 11 0 21 28 31 85 3 17 7 248 8 515 l4 485 176 0 176 0 0 -530 1 -530 -27 -74 c-14 -40 -24 -77 -20 -82 3 -5 1 -9 -4 -9 -5 0 -22 -19 -38 -43 -40 -61 -75 -97 -94 -97 -8 0 -26 -7 -39 -17 -13 -9 -38 -18 -55 -20 -49 -6 -81 -11 -81 -13 0 -5 -122 -5 -130 0 -5 4 -43 13 -82 20 -40 6 -73 15 -73 19 0 4 -27 20 -61 36 -98 48 -100 49 -94 65 4 8 3 11 -1 8 -4 -4 -16 -1 -28 7 -28 20 -46 19 -46 -4 0 -11 -6 -26 -14 -34 -8 -8 -19 -30 -24 -48 -6 -22 -14 -34 -25 -33 -9 1 -15 -2 -12 -6 3 -5 -58 -9 -135 -9 l-140 -2 0 701 1 700 179 0 180 0 0 -500z"></path>
    <path d="M5465 2849 c-4 -6 -13 -8 -21 -5 -24 9 -63 -12 -83 -44 -14 -24 -19 -54 -20 -148 -1 -64 -3 -135 -4 -157 -2 -35 1 -40 22 -43 13 -2 34 2 46 8 16 9 80 11 219 9 150 -3 197 -1 201 9 2 6 10 12 17 12 7 0 19 13 26 29 18 40 15 243 -4 281 -14 27 -67 55 -84 45 -5 -3 -11 -1 -15 5 -9 14 -292 13 -300 -1z"></path>
    <path d="M5507 1743 c-1 -1 -22 -4 -46 -7 -24 -3 -47 -9 -50 -13 -3 -4 -19 -22 -34 -39 -38 -43 -52 -141 -34 -253 7 -51 51 -103 89 -107 13 -1 23 -3 23 -3 0 -1 61 -2 135 -3 105 0 143 3 173 16 20 9 37 21 37 27 0 6 9 23 20 37 15 18 19 34 15 53 -3 15 -2 30 3 33 12 7 14 84 2 91 -4 3 -6 14 -3 24 3 10 0 22 -6 25 -5 4 -8 13 -5 21 4 8 -1 18 -10 21 -9 3 -16 12 -16 20 0 18 -41 44 -77 49 -15 2 -30 5 -33 6 -6 3 -181 5 -183 2z"></path>
  </g>
  <g id="layer107" fill="#79ab67" stroke="none">
    <path d="M0 1950 l0 -1950 3490 0 3490 0 0 1950 0 1950 -3490 0 -3490 0 0 -1950z m4578 1475 c-3 -3 -9 2 -12 12 -6 14 -5 15 5 6 7 -7 10 -15 7 -18z m-341 -1 c-3 -3 -12 -4 -19 -1 -8 3 -5 6 6 6 11 1 17 -2 13 -5z m-992 -14 c3 -5 1 -10 -4 -10 -6 0 -11 5 -11 10 0 6 2 10 4 10 3 0 8 -4 11 -10z m605 6 c0 -3 -4 -8 -10 -11 -5 -3 -10 -1 -10 4 0 6 5 11 10 11 6 0 10 -2 10 -4z m137 -13 c-4 -3 -10 -3 -14 0 -3 4 0 7 7 7 7 0 10 -3 7 -7z m560 -10 c-4 -3 -7 0 -7 7 0 7 3 10 7 7 3 -4 3 -10 0 -14z m-1330 -10 c-4 -3 -7 0 -7 7 0 7 3 10 7 7 3 -4 3 -10 0 -14z m33 -3 c0 -5 -5 -10 -11 -10 -5 0 -7 5 -4 10 3 6 8 10 11 10 2 0 4 -4 4 -10z m57 4 c-3 -3 -12 -4 -19 -1 -8 3 -5 6 6 6 11 1 17 -2 13 -5z m286 -1 c-7 -2 -19 -2 -25 0 -7 3 -2 5 12 5 14 0 19 -2 13 -5z m585 -7 c-7 -8 -15 -12 -17 -11 -5 6 10 25 20 25 5 0 4 -6 -3 -14z m99 7 c-4 -3 -10 -3 -14 0 -3 4 0 7 7 7 7 0 10 -3 7 -7z m100 0 c-4 -3 -10 -3 -14 0 -3 4 0 7 7 7 7 0 10 -3 7 -7z m168 -13 c3 -5 1 -10 -4 -10 -6 0 -11 5 -11 10 0 6 2 10 4 10 3 0 8 -4 11 -10z m-1380 -10 c3 -5 4 -10 1 -10 -3 0 -8 5 -11 10 -3 6 -4 10 -1 10 3 0 8 -4 11 -10z m692 -7 c-4 -3 -10 -3 -14 0 -3 4 0 7 7 7 7 0 10 -3 7 -7z m630 0 c-4 -3 -10 -3 -14 0 -3 4 0 7 7 7 7 0 10 -3 7 -7z m30 -20 c-4 -3 -7 0 -7 7 0 7 3 10 7 7 3 -4 3 -10 0 -14z m-302 -3 c3 -5 1 -10 -4 -10 -6 0 -11 5 -11 10 0 6 2 10 4 10 3 0 8 -4 11 -10z m-36 -60 c0 -10 -3 -8 -9 5 -12 27 -12 43 0 25 5 -8 9 -22 9 -30z m-362 -257 c-2 -37 -3 -9 -3 62 0 72 1 102 3 68 2 -34 2 -93 0 -130z m2101 113 c35 -3 44 -6 147 -56 69 -34 104 -63 105 -87 0 -7 6 -16 13 -20 8 -4 20 -30 27 -58 7 -27 17 -55 21 -61 5 -6 6 -14 2 -17 -3 -4 -1 -12 5 -20 7 -8 10 -60 7 -147 -3 -148 -7 -181 -24 -223 -6 -16 -11 -36 -11 -45 0 -18 -41 -82 -52 -82 -5 0 -8 -7 -8 -15 0 -9 -9 -15 -22 -15 -12 0 -19 -3 -15 -6 3 -3 -9 -18 -26 -34 -24 -21 -35 -26 -45 -18 -10 8 -11 7 -6 -7 5 -12 4 -16 -3 -12 -6 4 -24 2 -40 -5 -15 -6 -32 -10 -37 -9 -5 1 -16 -1 -25 -5 -9 -4 -138 -6 -288 -6 -171 1 -274 -2 -278 -8 -4 -6 -10 -8 -15 -5 -5 3 -20 0 -35 -7 -23 -10 -25 -16 -23 -56 5 -76 20 -81 293 -82 291 -2 337 -5 352 -25 6 -9 17 -15 25 -13 17 3 79 -42 72 -53 -3 -5 2 -6 11 -3 17 7 68 -33 60 -47 -3 -4 -1 -10 4 -13 24 -15 87 -177 74 -190 -3 -3 0 -12 7 -21 7 -8 10 -24 7 -35 -3 -11 -1 -22 3 -25 12 -8 2 -132 -16 -188 -8 -26 -12 -52 -9 -56 2 -5 -2 -14 -10 -21 -19 -16 -19 -50 0 -50 8 0 15 -3 15 -8 0 -4 23 -13 51 -19 76 -19 79 -23 79 -124 0 -48 -4 -90 -8 -93 -13 -8 -918 -10 -931 -2 -6 4 -18 5 -26 2 -8 -3 -17 -1 -20 3 -2 5 -26 12 -51 16 -26 4 -56 12 -68 18 -40 22 -146 111 -146 122 0 6 -8 22 -17 35 -22 31 -44 91 -37 102 3 4 0 8 -6 8 -7 0 -10 6 -7 14 3 8 3 17 -1 20 -13 13 -22 195 -10 202 3 2 6 19 6 37 -1 17 2 39 5 47 5 14 14 51 21 90 6 35 18 59 31 64 8 3 15 10 15 16 0 6 16 25 35 42 32 30 33 33 18 50 -9 10 -21 18 -27 18 -17 0 -82 64 -99 96 -8 16 -13 41 -10 56 3 14 0 29 -6 32 -14 9 -14 73 -1 81 6 4 10 14 9 23 -2 17 11 57 34 101 6 13 29 42 50 63 l39 39 -25 32 c-34 44 -78 87 -90 87 -6 0 -7 52 -3 143 7 173 9 190 24 195 7 2 12 10 12 18 0 9 14 37 32 64 35 53 118 114 179 130 21 6 40 14 43 19 3 5 21 7 40 4 19 -2 37 0 39 4 5 7 484 6 565 -1z m-1781 -138 c-3 -8 -6 -5 -6 6 -1 11 2 17 5 13 3 -3 4 -12 1 -19z m48 -36 c-3 -3 -11 0 -18 7 -9 10 -8 11 6 5 10 -3 15 -9 12 -12z m25 -6 c0 -3 -5 -8 -12 -12 -7 -4 -8 -3 -4 4 7 12 16 16 16 8z m-35 -26 c10 -11 16 -20 13 -20 -3 0 -13 9 -23 20 -10 11 -16 20 -13 20 3 0 13 -9 23 -20z m-405 0 c0 -5 -2 -10 -4 -10 -3 0 -8 5 -11 10 -3 6 -1 10 4 10 6 0 11 -4 11 -10z m495 0 c13 -6 15 -9 5 -9 -8 0 -22 4 -30 9 -18 12 -2 12 25 0z m212 3 c-4 -3 -10 -3 -14 0 -3 4 0 7 7 7 7 0 10 -3 7 -7z m-750 -9 c-3 -3 -12 -4 -19 -1 -8 3 -5 6 6 6 11 1 17 -2 13 -5z m250 0 c-3 -3 -12 -4 -19 -1 -8 3 -5 6 6 6 11 1 17 -2 13 -5z m400 -1 c-4 -3 -10 -3 -14 0 -3 4 0 7 7 7 7 0 10 -3 7 -7z m80 -10 c-4 -3 -10 -3 -14 0 -3 4 0 7 7 7 7 0 10 -3 7 -7z m-780 -30 c-4 -3 -7 0 -7 7 0 7 3 10 7 7 3 -4 3 -10 0 -14z m613 13 c0 -3 -5 -8 -12 -12 -7 -4 -8 -3 -4 4 7 12 16 16 16 8z m-53 -13 c-4 -3 -10 -3 -14 0 -3 4 0 7 7 7 7 0 10 -3 7 -7z m-470 -10 c-4 -3 -10 -3 -14 0 -3 4 0 7 7 7 7 0 10 -3 7 -7z m60 -10 c-4 -3 -7 0 -7 7 0 7 3 10 7 7 3 -4 3 -10 0 -14z m560 11 c-3 -3 -12 -4 -19 -1 -8 3 -5 6 6 6 11 1 17 -2 13 -5z m-62 -14 c-3 -5 -12 -10 -20 -10 -8 0 -17 5 -20 10 -4 6 5 10 20 10 15 0 24 -4 20 -10z m-508 -127 c-2 -21 -4 -4 -4 37 0 41 2 58 4 38 2 -21 2 -55 0 -75z m-22 -23 c3 -5 4 -10 1 -10 -3 0 -8 5 -11 10 -3 6 -4 10 -1 10 3 0 8 -4 11 -10z m-1328 -268 c10 8 19 8 36 -1 14 -7 67 -11 142 -10 108 2 290 -5 450 -15 33 -3 91 -6 130 -7 113 -4 110 0 110 -164 l0 -140 -385 2 c-394 2 -432 -1 -481 -37 -24 -19 -24 -20 -27 -220 l-4 -202 24 3 c12 2 29 0 36 -5 7 -4 19 -2 27 4 12 10 21 10 43 1 20 -8 70 -10 162 -6 90 4 137 2 146 -6 9 -7 57 -9 148 -5 75 3 138 1 141 -4 3 -5 17 -7 30 -4 l25 4 0 -135 c0 -93 -3 -135 -11 -135 -8 0 -8 -4 -1 -12 8 -10 -5 -13 -61 -15 -40 -1 -139 -4 -222 -7 -82 -3 -214 -7 -292 -8 -78 -2 -145 -6 -149 -10 -4 -5 -16 -8 -26 -8 -17 0 -18 -12 -18 -180 0 -160 2 -185 20 -219 19 -38 43 -56 60 -46 5 3 11 1 15 -5 4 -6 147 -10 408 -11 221 0 396 -3 389 -6 -6 -2 -10 -8 -8 -12 3 -4 6 -68 7 -141 l1 -134 -51 3 c-28 1 -56 -1 -63 -6 -14 -8 -82 -11 -285 -13 -70 0 -125 -5 -128 -10 -4 -7 -54 -8 -140 -4 -103 5 -138 4 -150 -6 -10 -9 -29 -10 -58 -6 -23 4 -51 8 -62 9 -11 1 -26 6 -33 11 -7 4 -16 6 -19 3 -6 -6 -141 60 -166 82 -10 9 -25 30 -32 48 -8 18 -18 33 -23 33 -6 0 -13 20 -16 45 -4 24 -11 47 -15 50 -5 2 -6 15 -4 29 3 13 0 27 -6 30 -15 10 -16 1272 0 1282 6 3 9 15 6 25 -3 10 -2 21 3 24 6 4 12 23 24 75 1 3 11 19 24 37 12 17 22 36 22 41 0 6 15 18 33 28 107 56 130 66 176 73 28 4 54 11 58 15 4 3 11 2 17 -4 6 -6 14 -6 23 2z m-1537 -397 l5 -390 80 -3 c44 -1 145 -4 225 -5 80 -1 150 -5 157 -10 6 -4 82 -5 168 -2 l156 5 -3 -152 -3 -152 -75 -3 c-41 -1 -136 -4 -212 -5 -75 -2 -139 -6 -143 -10 -4 -3 -72 -4 -152 -2 -79 2 -150 1 -156 -3 -7 -4 -19 -8 -27 -8 -13 0 -15 -27 -18 -169 -2 -112 1 -173 9 -182 6 -7 8 -17 5 -23 -10 -16 15 -58 43 -72 20 -11 114 -15 436 -17 l410 -3 -3 -137 c-2 -75 -5 -143 -7 -150 -3 -9 -16 -10 -45 -6 -25 4 -45 2 -54 -5 -11 -9 -38 -10 -94 -6 -53 5 -82 4 -86 -4 -5 -7 -44 -9 -120 -5 -63 3 -116 2 -119 -3 -3 -5 -63 -8 -134 -7 -70 1 -145 -3 -165 -8 -27 -8 -41 -8 -51 0 -7 6 -22 11 -32 10 -43 -2 -105 14 -147 37 -23 14 -49 28 -56 31 -22 11 -67 58 -79 84 -29 60 -46 108 -56 155 -12 56 -22 1550 -11 1575 4 8 6 21 5 28 -2 10 35 12 171 10 l173 -3 5 -390z m2970 -105 c0 -332 3 -507 10 -520 6 -11 25 -27 43 -35 18 -9 43 -22 57 -30 53 -29 101 -46 119 -40 11 3 22 2 25 -3 3 -5 35 -10 71 -11 56 -2 69 1 98 23 19 15 39 26 44 26 11 0 21 28 31 85 3 17 7 248 8 515 l4 485 176 0 176 0 0 -530 1 -530 -27 -74 c-14 -40 -24 -77 -20 -82 3 -5 1 -9 -4 -9 -5 0 -22 -19 -38 -43 -40 -61 -75 -97 -94 -97 -8 0 -26 -7 -39 -17 -13 -9 -38 -18 -55 -20 -49 -6 -81 -11 -81 -13 0 -5 -122 -5 -130 0 -5 4 -43 13 -82 20 -40 6 -73 15 -73 19 0 4 -27 20 -61 36 -98 48 -100 49 -94 65 4 8 3 11 -1 8 -4 -4 -16 -1 -28 7 -28 20 -46 19 -46 -4 0 -11 -6 -26 -14 -34 -8 -8 -19 -30 -24 -48 -6 -22 -14 -34 -25 -33 -9 1 -15 -2 -12 -6 3 -5 -58 -9 -135 -9 l-140 -2 0 701 1 700 179 0 180 0 0 -500z"></path>
    <path d="M5465 2849 c-4 -6 -13 -8 -21 -5 -24 9 -63 -12 -83 -44 -14 -24 -19 -54 -20 -148 -1 -64 -3 -135 -4 -157 -2 -35 1 -40 22 -43 13 -2 34 2 46 8 16 9 80 11 219 9 150 -3 197 -1 201 9 2 6 10 12 17 12 7 0 19 13 26 29 18 40 15 243 -4 281 -14 27 -67 55 -84 45 -5 -3 -11 -1 -15 5 -9 14 -292 13 -300 -1z"></path>
    <path d="M5507 1743 c-1 -1 -22 -4 -46 -7 -24 -3 -47 -9 -50 -13 -3 -4 -19 -22 -34 -39 -38 -43 -52 -141 -34 -253 7 -51 51 -103 89 -107 13 -1 23 -3 23 -3 0 -1 61 -2 135 -3 105 0 143 3 173 16 20 9 37 21 37 27 0 6 9 23 20 37 15 18 19 34 15 53 -3 15 -2 30 3 33 12 7 14 84 2 91 -4 3 -6 14 -3 24 3 10 0 22 -6 25 -5 4 -8 13 -5 21 4 8 -1 18 -10 21 -9 3 -16 12 -16 20 0 18 -41 44 -77 49 -15 2 -30 5 -33 6 -6 3 -181 5 -183 2z"></path>
  </g>
  <g id="layer108" fill="#74c25c" stroke="none">
    <path d="M0 1950 l0 -1950 3490 0 3490 0 0 1950 0 1950 -3490 0 -3490 0 0 -1950z m4578 1475 c-3 -3 -9 2 -12 12 -6 14 -5 15 5 6 7 -7 10 -15 7 -18z m-341 -1 c-3 -3 -12 -4 -19 -1 -8 3 -5 6 6 6 11 1 17 -2 13 -5z m-992 -14 c3 -5 1 -10 -4 -10 -6 0 -11 5 -11 10 0 6 2 10 4 10 3 0 8 -4 11 -10z m605 6 c0 -3 -4 -8 -10 -11 -5 -3 -10 -1 -10 4 0 6 5 11 10 11 6 0 10 -2 10 -4z m137 -13 c-4 -3 -10 -3 -14 0 -3 4 0 7 7 7 7 0 10 -3 7 -7z m560 -10 c-4 -3 -7 0 -7 7 0 7 3 10 7 7 3 -4 3 -10 0 -14z m-1330 -10 c-4 -3 -7 0 -7 7 0 7 3 10 7 7 3 -4 3 -10 0 -14z m33 -3 c0 -5 -5 -10 -11 -10 -5 0 -7 5 -4 10 3 6 8 10 11 10 2 0 4 -4 4 -10z m57 4 c-3 -3 -12 -4 -19 -1 -8 3 -5 6 6 6 11 1 17 -2 13 -5z m286 -1 c-7 -2 -19 -2 -25 0 -7 3 -2 5 12 5 14 0 19 -2 13 -5z m585 -7 c-7 -8 -15 -12 -17 -11 -5 6 10 25 20 25 5 0 4 -6 -3 -14z m99 7 c-4 -3 -10 -3 -14 0 -3 4 0 7 7 7 7 0 10 -3 7 -7z m100 0 c-4 -3 -10 -3 -14 0 -3 4 0 7 7 7 7 0 10 -3 7 -7z m168 -13 c3 -5 1 -10 -4 -10 -6 0 -11 5 -11 10 0 6 2 10 4 10 3 0 8 -4 11 -10z m-1380 -10 c3 -5 4 -10 1 -10 -3 0 -8 5 -11 10 -3 6 -4 10 -1 10 3 0 8 -4 11 -10z m692 -7 c-4 -3 -10 -3 -14 0 -3 4 0 7 7 7 7 0 10 -3 7 -7z m630 0 c-4 -3 -10 -3 -14 0 -3 4 0 7 7 7 7 0 10 -3 7 -7z m30 -20 c-4 -3 -7 0 -7 7 0 7 3 10 7 7 3 -4 3 -10 0 -14z m-302 -3 c3 -5 1 -10 -4 -10 -6 0 -11 5 -11 10 0 6 2 10 4 10 3 0 8 -4 11 -10z m-36 -60 c0 -10 -3 -8 -9 5 -12 27 -12 43 0 25 5 -8 9 -22 9 -30z m-362 -257 c-2 -37 -3 -9 -3 62 0 72 1 102 3 68 2 -34 2 -93 0 -130z m2183 98 c131 -46 202 -126 235 -263 11 -46 14 -105 11 -223 -4 -179 -18 -237 -80 -318 -42 -55 -106 -99 -124 -85 -9 8 -11 7 -7 -4 12 -32 -59 -41 -386 -47 -297 -6 -318 -7 -339 -26 -16 -15 -20 -27 -16 -48 12 -58 13 -59 309 -67 300 -8 338 -15 424 -73 59 -41 117 -115 142 -183 23 -60 40 -181 35 -244 -10 -126 -17 -168 -35 -199 -11 -19 -16 -37 -12 -41 4 -3 41 -16 81 -29 l72 -22 0 -110 0 -109 -457 0 c-288 0 -481 4 -522 11 -139 24 -252 102 -304 212 -42 89 -51 135 -51 272 0 106 4 143 21 199 25 79 76 160 111 175 24 12 22 31 -4 31 -28 0 -80 49 -110 102 -24 45 -28 65 -29 128 0 80 20 169 41 177 7 2 15 16 18 29 4 14 22 34 41 46 42 24 43 31 10 52 -14 9 -25 23 -25 31 0 8 -5 15 -11 15 -7 0 -23 12 -36 28 -24 26 -24 30 -21 182 3 148 5 158 33 215 16 33 49 79 72 102 50 48 126 88 150 78 10 -3 14 -2 9 2 -23 23 100 32 389 30 284 -3 304 -4 365 -26z m-1863 -123 c-3 -8 -6 -5 -6 6 -1 11 2 17 5 13 3 -3 4 -12 1 -19z m48 -36 c-3 -3 -11 0 -18 7 -9 10 -8 11 6 5 10 -3 15 -9 12 -12z m25 -6 c0 -3 -5 -8 -12 -12 -7 -4 -8 -3 -4 4 7 12 16 16 16 8z m-35 -26 c10 -11 16 -20 13 -20 -3 0 -13 9 -23 20 -10 11 -16 20 -13 20 3 0 13 -9 23 -20z m-405 0 c0 -5 -2 -10 -4 -10 -3 0 -8 5 -11 10 -3 6 -1 10 4 10 6 0 11 -4 11 -10z m495 0 c13 -6 15 -9 5 -9 -8 0 -22 4 -30 9 -18 12 -2 12 25 0z m212 3 c-4 -3 -10 -3 -14 0 -3 4 0 7 7 7 7 0 10 -3 7 -7z m-750 -9 c-3 -3 -12 -4 -19 -1 -8 3 -5 6 6 6 11 1 17 -2 13 -5z m250 0 c-3 -3 -12 -4 -19 -1 -8 3 -5 6 6 6 11 1 17 -2 13 -5z m400 -1 c-4 -3 -10 -3 -14 0 -3 4 0 7 7 7 7 0 10 -3 7 -7z m80 -10 c-4 -3 -10 -3 -14 0 -3 4 0 7 7 7 7 0 10 -3 7 -7z m-780 -30 c-4 -3 -7 0 -7 7 0 7 3 10 7 7 3 -4 3 -10 0 -14z m613 13 c0 -3 -5 -8 -12 -12 -7 -4 -8 -3 -4 4 7 12 16 16 16 8z m-53 -13 c-4 -3 -10 -3 -14 0 -3 4 0 7 7 7 7 0 10 -3 7 -7z m-470 -10 c-4 -3 -10 -3 -14 0 -3 4 0 7 7 7 7 0 10 -3 7 -7z m60 -10 c-4 -3 -7 0 -7 7 0 7 3 10 7 7 3 -4 3 -10 0 -14z m560 11 c-3 -3 -12 -4 -19 -1 -8 3 -5 6 6 6 11 1 17 -2 13 -5z m-62 -14 c-3 -5 -12 -10 -20 -10 -8 0 -17 5 -20 10 -4 6 5 10 20 10 15 0 24 -4 20 -10z m-508 -127 c-2 -21 -4 -4 -4 37 0 41 2 58 4 38 2 -21 2 -55 0 -75z m-22 -23 c3 -5 4 -10 1 -10 -3 0 -8 5 -11 10 -3 6 -4 10 -1 10 3 0 8 -4 11 -10z m-1045 -275 c209 -8 521 -26 558 -31 l32 -5 0 -149 0 -150 -407 0 c-306 0 -414 -3 -433 -13 -50 -25 -60 -66 -60 -249 0 -92 4 -169 9 -172 8 -5 100 -9 566 -25 l200 -6 3 -152 3 -153 -73 -1 c-40 -1 -84 -3 -98 -4 -14 -1 -124 -5 -245 -9 -121 -3 -253 -9 -292 -12 l-73 -6 0 -180 c0 -143 3 -185 16 -209 29 -57 44 -59 484 -59 l401 0 -3 -152 -3 -153 -65 -6 c-36 -4 -132 -9 -215 -13 -82 -3 -190 -8 -240 -11 -365 -19 -444 -15 -547 32 -83 37 -164 132 -173 203 -1 8 -6 24 -11 35 -5 12 -9 304 -9 705 l0 685 23 56 c61 153 205 224 427 214 50 -3 151 -7 225 -10z m-1810 -386 l-1 -391 103 -3 c57 -2 232 -6 391 -10 l287 -8 0 -152 0 -152 -132 -6 c-73 -4 -216 -9 -318 -13 -102 -3 -218 -7 -258 -8 l-74 -3 1 -169 c1 -93 6 -186 12 -207 19 -73 12 -72 476 -75 l413 -3 0 -153 0 -153 -87 -7 c-80 -5 -340 -17 -678 -31 -91 -3 -150 0 -196 9 -177 38 -273 143 -298 329 -12 86 -16 1579 -4 1590 3 4 87 7 185 7 l178 0 0 -391z m2960 374 c0 -10 0 -235 0 -501 l0 -483 28 -26 c90 -84 303 -131 391 -85 21 10 43 33 55 57 20 38 21 59 26 545 l5 505 180 0 180 0 3 -480 c4 -633 -6 -707 -111 -822 -86 -94 -188 -130 -341 -120 -91 6 -154 21 -223 53 -53 24 -156 93 -166 110 -11 19 -37 18 -37 -2 0 -25 -51 -134 -64 -135 -20 -2 -281 3 -283 5 -2 2 -5 1342 -3 1389 0 4 81 7 180 7 165 0 180 -1 180 -17z"></path>
    <path d="M5558 2840 c-136 -5 -148 -7 -171 -28 -35 -33 -46 -87 -47 -232 l-2 -125 23 3 c13 2 122 7 241 10 l218 7 27 28 c27 26 28 33 31 135 2 87 0 113 -15 142 -31 61 -71 69 -305 60z"></path>
    <path d="M5430 1718 c-61 -31 -84 -78 -88 -185 -4 -71 -1 -89 21 -136 22 -48 29 -55 69 -66 29 -8 92 -11 179 -9 115 3 138 6 161 23 42 31 60 83 61 172 2 176 -52 222 -263 223 -80 0 -103 -4 -140 -22z"></path>
  </g>
  <g id="layer109" fill="#8a8a8a" stroke="none">
    <path d="M0 1950 l0 -1950 3490 0 3490 0 0 1950 0 1950 -3490 0 -3490 0 0 -1950z m4578 1475 c-3 -3 -9 2 -12 12 -6 14 -5 15 5 6 7 -7 10 -15 7 -18z m-341 -1 c-3 -3 -12 -4 -19 -1 -8 3 -5 6 6 6 11 1 17 -2 13 -5z m-992 -14 c3 -5 1 -10 -4 -10 -6 0 -11 5 -11 10 0 6 2 10 4 10 3 0 8 -4 11 -10z m605 6 c0 -3 -4 -8 -10 -11 -5 -3 -10 -1 -10 4 0 6 5 11 10 11 6 0 10 -2 10 -4z m137 -13 c-4 -3 -10 -3 -14 0 -3 4 0 7 7 7 7 0 10 -3 7 -7z m560 -10 c-4 -3 -7 0 -7 7 0 7 3 10 7 7 3 -4 3 -10 0 -14z m-1330 -10 c-4 -3 -7 0 -7 7 0 7 3 10 7 7 3 -4 3 -10 0 -14z m33 -3 c0 -5 -5 -10 -11 -10 -5 0 -7 5 -4 10 3 6 8 10 11 10 2 0 4 -4 4 -10z m57 4 c-3 -3 -12 -4 -19 -1 -8 3 -5 6 6 6 11 1 17 -2 13 -5z m286 -1 c-7 -2 -19 -2 -25 0 -7 3 -2 5 12 5 14 0 19 -2 13 -5z m585 -7 c-7 -8 -15 -12 -17 -11 -5 6 10 25 20 25 5 0 4 -6 -3 -14z m99 7 c-4 -3 -10 -3 -14 0 -3 4 0 7 7 7 7 0 10 -3 7 -7z m100 0 c-4 -3 -10 -3 -14 0 -3 4 0 7 7 7 7 0 10 -3 7 -7z m168 -13 c3 -5 1 -10 -4 -10 -6 0 -11 5 -11 10 0 6 2 10 4 10 3 0 8 -4 11 -10z m-1380 -10 c3 -5 4 -10 1 -10 -3 0 -8 5 -11 10 -3 6 -4 10 -1 10 3 0 8 -4 11 -10z m692 -7 c-4 -3 -10 -3 -14 0 -3 4 0 7 7 7 7 0 10 -3 7 -7z m630 0 c-4 -3 -10 -3 -14 0 -3 4 0 7 7 7 7 0 10 -3 7 -7z m30 -20 c-4 -3 -7 0 -7 7 0 7 3 10 7 7 3 -4 3 -10 0 -14z m-302 -3 c3 -5 1 -10 -4 -10 -6 0 -11 5 -11 10 0 6 2 10 4 10 3 0 8 -4 11 -10z m-36 -60 c0 -10 -3 -8 -9 5 -12 27 -12 43 0 25 5 -8 9 -22 9 -30z m-362 -257 c-2 -37 -3 -9 -3 62 0 72 1 102 3 68 2 -34 2 -93 0 -130z m2183 98 c131 -46 202 -126 235 -263 11 -46 14 -105 11 -223 -3 -136 -7 -169 -25 -218 -41 -104 -111 -175 -211 -213 -37 -14 -98 -18 -361 -23 -297 -6 -318 -7 -339 -26 -16 -15 -20 -27 -16 -48 12 -58 13 -59 309 -67 300 -8 338 -15 424 -73 59 -41 117 -115 142 -183 23 -60 40 -181 35 -244 -10 -126 -17 -168 -35 -199 -11 -19 -16 -37 -12 -41 4 -3 41 -16 81 -29 l72 -22 0 -110 0 -109 -457 0 c-288 0 -481 4 -522 11 -139 24 -252 102 -304 212 -42 90 -51 135 -51 272 0 107 4 143 22 201 21 67 70 150 99 167 16 9 18 37 2 37 -23 0 -77 53 -105 102 -24 45 -28 65 -29 128 0 80 20 169 41 177 7 2 15 16 18 29 4 14 22 34 41 46 42 24 43 31 10 52 -14 9 -25 23 -25 31 0 8 -5 15 -11 15 -7 0 -23 12 -36 28 -24 27 -24 30 -21 182 3 127 7 162 23 195 56 118 132 182 255 215 68 18 101 20 375 17 283 -3 304 -4 365 -26z m-1863 -123 c-3 -8 -6 -5 -6 6 -1 11 2 17 5 13 3 -3 4 -12 1 -19z m48 -36 c-3 -3 -11 0 -18 7 -9 10 -8 11 6 5 10 -3 15 -9 12 -12z m25 -6 c0 -3 -5 -8 -12 -12 -7 -4 -8 -3 -4 4 7 12 16 16 16 8z m-35 -26 c10 -11 16 -20 13 -20 -3 0 -13 9 -23 20 -10 11 -16 20 -13 20 3 0 13 -9 23 -20z m-405 0 c0 -5 -2 -10 -4 -10 -3 0 -8 5 -11 10 -3 6 -1 10 4 10 6 0 11 -4 11 -10z m495 0 c13 -6 15 -9 5 -9 -8 0 -22 4 -30 9 -18 12 -2 12 25 0z m212 3 c-4 -3 -10 -3 -14 0 -3 4 0 7 7 7 7 0 10 -3 7 -7z m-750 -9 c-3 -3 -12 -4 -19 -1 -8 3 -5 6 6 6 11 1 17 -2 13 -5z m250 0 c-3 -3 -12 -4 -19 -1 -8 3 -5 6 6 6 11 1 17 -2 13 -5z m400 -1 c-4 -3 -10 -3 -14 0 -3 4 0 7 7 7 7 0 10 -3 7 -7z m80 -10 c-4 -3 -10 -3 -14 0 -3 4 0 7 7 7 7 0 10 -3 7 -7z m-780 -30 c-4 -3 -7 0 -7 7 0 7 3 10 7 7 3 -4 3 -10 0 -14z m613 13 c0 -3 -5 -8 -12 -12 -7 -4 -8 -3 -4 4 7 12 16 16 16 8z m-53 -13 c-4 -3 -10 -3 -14 0 -3 4 0 7 7 7 7 0 10 -3 7 -7z m-470 -10 c-4 -3 -10 -3 -14 0 -3 4 0 7 7 7 7 0 10 -3 7 -7z m60 -10 c-4 -3 -7 0 -7 7 0 7 3 10 7 7 3 -4 3 -10 0 -14z m560 11 c-3 -3 -12 -4 -19 -1 -8 3 -5 6 6 6 11 1 17 -2 13 -5z m-62 -14 c-3 -5 -12 -10 -20 -10 -8 0 -17 5 -20 10 -4 6 5 10 20 10 15 0 24 -4 20 -10z m-508 -127 c-2 -21 -4 -4 -4 37 0 41 2 58 4 38 2 -21 2 -55 0 -75z m-22 -23 c3 -5 4 -10 1 -10 -3 0 -8 5 -11 10 -3 6 -4 10 -1 10 3 0 8 -4 11 -10z m-1045 -275 c209 -8 521 -26 558 -31 l32 -5 0 -149 0 -150 -407 0 c-306 0 -414 -3 -433 -13 -50 -25 -60 -66 -60 -249 0 -92 4 -169 9 -172 8 -5 100 -9 566 -25 l200 -6 3 -152 3 -153 -73 -1 c-40 -1 -84 -3 -98 -4 -14 -1 -124 -5 -245 -9 -121 -3 -253 -9 -292 -12 l-73 -6 0 -180 c0 -143 3 -185 16 -209 29 -57 44 -59 484 -59 l401 0 -3 -152 -3 -153 -65 -6 c-36 -4 -132 -9 -215 -13 -82 -3 -190 -8 -240 -11 -365 -19 -444 -15 -547 32 -83 37 -164 132 -173 203 -1 8 -6 24 -11 35 -5 12 -9 304 -9 705 l0 685 23 56 c61 153 205 224 427 214 50 -3 151 -7 225 -10z m-1808 -386 l3 -390 100 -4 c55 -1 229 -6 388 -10 l287 -8 0 -152 0 -152 -132 -6 c-73 -4 -216 -9 -318 -13 -102 -3 -218 -7 -258 -8 l-74 -3 1 -169 c1 -93 6 -186 12 -207 19 -73 12 -72 476 -75 l413 -3 0 -153 0 -153 -87 -7 c-80 -5 -340 -17 -678 -31 -91 -3 -150 0 -196 9 -177 38 -273 143 -298 329 -12 86 -16 1579 -4 1590 3 4 87 7 185 7 l178 0 2 -391z m2958 374 c0 -10 0 -235 0 -501 l0 -483 28 -26 c90 -84 303 -131 391 -85 21 10 43 33 55 57 20 38 21 59 26 545 l5 505 180 0 180 0 3 -480 c4 -633 -6 -707 -111 -822 -86 -94 -188 -130 -341 -120 -92 6 -187 31 -251 67 -66 37 -114 70 -134 91 -19 20 -41 19 -41 -3 0 -21 -53 -128 -64 -129 -20 -2 -281 3 -283 5 -2 2 -5 1342 -3 1389 0 4 81 7 180 7 165 0 180 -1 180 -17z"></path>
    <path d="M5558 2840 c-137 -5 -148 -7 -172 -29 -35 -33 -48 -104 -44 -241 3 -109 4 -115 23 -111 11 2 118 7 237 10 l218 6 27 28 c27 26 28 33 31 135 2 87 0 113 -15 142 -31 61 -71 69 -305 60z"></path>
    <path d="M5430 1718 c-61 -31 -84 -78 -88 -185 -4 -71 -1 -89 21 -136 22 -48 29 -55 69 -66 29 -8 92 -11 179 -9 115 3 138 6 161 23 42 31 60 83 61 172 2 176 -52 222 -263 223 -80 0 -103 -4 -140 -22z"></path>
  </g>
  <g id="layer110" fill="#7ec36e" stroke="none">
    <path d="M0 1950 l0 -1950 3490 0 3490 0 0 1950 0 1950 -3490 0 -3490 0 0 -1950z m4435 1474 c33 -14 66 -28 73 -31 7 -3 16 7 23 26 9 25 16 31 40 31 l29 0 -2 -442 -3 -443 -35 0 -35 0 -3 159 -3 158 -27 -5 c-15 -4 -61 -13 -102 -22 -81 -18 -147 -13 -190 12 -124 73 -136 443 -18 549 54 50 145 52 253 8z m-3389 5 c72 -27 148 -90 198 -162 l40 -57 381 0 381 0 40 57 c50 73 126 135 201 163 86 32 215 26 297 -14 60 -29 166 -122 166 -144 0 -9 -32 -12 -112 -12 l-112 0 -53 -52 -53 -52 0 -100 0 -100 52 -53 52 -53 113 0 c81 0 113 -3 113 -12 0 -22 -106 -115 -166 -144 -82 -40 -211 -46 -297 -14 -75 28 -151 90 -201 163 l-40 57 -381 0 -381 0 -40 -57 c-50 -73 -126 -135 -201 -163 -86 -32 -215 -26 -297 14 -60 29 -166 122 -166 144 0 9 32 12 112 12 l112 0 53 52 53 52 0 100 0 100 -52 53 -52 53 -113 0 c-66 0 -113 4 -113 10 0 33 119 130 199 161 67 26 194 25 267 -2z m2590 -18 l1 -40 -199 -3 c-163 -2 -200 -6 -208 -18 -6 -9 -10 -163 -10 -366 l0 -352 -35 -4 c-20 -2 -38 -2 -40 1 -3 2 -5 169 -5 370 0 346 1 368 20 398 12 20 32 36 52 42 18 5 121 10 228 10 l196 1 0 -39z m364 10 c0 -26 -4 -29 -66 -46 -96 -26 -96 -27 -98 -253 l-1 -187 88 -3 87 -3 0 -39 0 -39 -87 -3 -88 -3 -2 -70 c-1 -38 -2 -76 -2 -82 -1 -7 -12 -13 -26 -13 -29 0 -30 1 -45 97 l-12 72 -54 11 c-51 11 -54 13 -54 41 0 29 1 29 55 29 l55 0 1 173 c1 217 5 246 40 292 31 38 73 54 147 55 62 0 62 0 62 -29z m2000 -310 c131 -46 202 -126 235 -263 11 -46 14 -105 11 -223 -3 -136 -7 -169 -25 -218 -41 -104 -111 -175 -211 -213 -37 -14 -98 -18 -361 -23 -297 -6 -318 -7 -339 -26 -16 -15 -20 -27 -16 -48 12 -58 13 -59 309 -67 300 -8 338 -15 424 -73 59 -41 117 -115 142 -183 23 -60 40 -181 35 -244 -10 -126 -17 -168 -35 -199 -11 -19 -16 -37 -12 -41 4 -3 41 -16 81 -29 l72 -22 0 -110 0 -109 -457 0 c-288 0 -481 4 -522 11 -139 24 -252 102 -304 212 -42 90 -51 135 -51 272 0 107 4 143 22 201 21 67 70 150 99 167 16 9 18 37 2 37 -23 0 -77 53 -105 102 -24 45 -28 65 -29 128 0 80 20 169 41 177 7 2 15 16 18 29 4 14 22 34 41 46 42 24 43 31 10 52 -14 9 -25 23 -25 31 0 8 -5 15 -11 15 -7 0 -23 12 -36 28 -24 27 -24 30 -21 182 3 127 7 162 23 195 56 118 132 182 255 215 68 18 101 20 375 17 283 -3 304 -4 365 -26z m-3250 -686 c209 -8 521 -26 558 -31 l32 -5 0 -149 0 -150 -407 0 c-306 0 -414 -3 -433 -13 -50 -25 -60 -66 -60 -249 0 -92 4 -169 9 -172 8 -5 100 -9 566 -25 l200 -6 3 -152 3 -153 -73 -1 c-40 -1 -84 -3 -98 -4 -14 -1 -124 -5 -245 -9 -121 -3 -253 -9 -292 -12 l-73 -6 0 -180 c0 -143 3 -185 16 -209 29 -57 44 -59 484 -59 l401 0 -3 -152 -3 -153 -65 -6 c-36 -4 -132 -9 -215 -13 -82 -3 -190 -8 -240 -11 -365 -19 -444 -15 -547 32 -83 37 -164 132 -173 203 -1 8 -6 24 -11 35 -5 12 -9 304 -9 705 l0 685 23 56 c61 153 205 224 427 214 50 -3 151 -7 225 -10z m-1808 -386 l3 -390 100 -4 c55 -1 229 -6 388 -10 l287 -8 0 -152 0 -152 -132 -6 c-73 -4 -216 -9 -318 -13 -102 -3 -218 -7 -258 -8 l-74 -3 1 -169 c1 -93 6 -186 12 -207 19 -73 12 -72 476 -75 l413 -3 0 -153 0 -153 -87 -7 c-80 -5 -340 -17 -678 -31 -91 -3 -150 0 -196 9 -177 38 -273 143 -298 329 -12 86 -16 1579 -4 1590 3 4 87 7 185 7 l178 0 2 -391z m2958 374 c0 -10 0 -235 0 -501 l0 -483 28 -26 c90 -84 303 -131 391 -85 21 10 43 33 55 57 20 38 21 59 26 545 l5 505 180 0 180 0 3 -480 c4 -633 -6 -707 -111 -822 -86 -94 -188 -130 -341 -120 -92 6 -187 31 -251 67 -66 37 -114 70 -134 91 -19 20 -41 19 -41 -3 0 -21 -53 -128 -64 -129 -20 -2 -281 3 -283 5 -2 2 -5 1342 -3 1389 0 4 81 7 180 7 165 0 180 -1 180 -17z"></path>
    <path d="M4230 3340 c-63 -68 -62 -336 3 -392 11 -10 27 -19 36 -19 48 -4 153 3 199 13 l52 11 -2 186 -3 186 -65 22 c-39 14 -90 22 -128 23 -58 0 -67 -3 -92 -30z"></path>
    <path d="M5558 2840 c-137 -5 -148 -7 -172 -29 -35 -33 -48 -104 -44 -241 3 -109 4 -115 23 -111 11 2 118 7 237 10 l218 6 27 28 c27 26 28 33 31 135 2 87 0 113 -15 142 -31 61 -71 69 -305 60z"></path>
    <path d="M5430 1718 c-61 -31 -84 -78 -88 -185 -4 -71 -1 -89 21 -136 22 -48 29 -55 69 -66 29 -8 92 -11 179 -9 115 3 138 6 161 23 42 31 60 83 61 172 2 176 -52 222 -263 223 -80 0 -103 -4 -140 -22z"></path>
  </g>
  <g id="layer111" fill="#e6fedb" stroke="none">
    <path d="M0 1950 l0 -1950 3490 0 3490 0 0 1950 0 1950 -3490 0 -3490 0 0 -1950z m4435 1474 c33 -14 66 -28 73 -31 7 -3 16 7 23 26 9 25 16 31 40 31 l29 0 -2 -442 -3 -443 -35 0 -35 0 -3 159 -3 158 -27 -5 c-15 -4 -61 -13 -102 -22 -81 -18 -147 -13 -190 12 -124 73 -136 443 -18 549 54 50 145 52 253 8z m-3389 5 c72 -27 148 -90 198 -162 l40 -57 381 0 381 0 40 57 c50 73 126 135 201 163 86 32 215 26 297 -14 60 -29 166 -122 166 -144 0 -9 -32 -12 -112 -12 l-112 0 -53 -52 -53 -52 0 -100 0 -100 52 -53 52 -53 113 0 c81 0 113 -3 113 -12 0 -22 -106 -115 -166 -144 -82 -40 -211 -46 -297 -14 -75 28 -151 90 -201 163 l-40 57 -381 0 -381 0 -40 -57 c-50 -73 -126 -135 -201 -163 -86 -32 -215 -26 -297 14 -60 29 -166 122 -166 144 0 9 32 12 112 12 l112 0 53 52 53 52 0 100 0 100 -52 53 -52 53 -113 0 c-66 0 -113 4 -113 10 0 33 119 130 199 161 67 26 194 25 267 -2z m2590 -18 l1 -40 -199 -3 c-163 -2 -200 -6 -208 -18 -6 -9 -10 -163 -10 -366 l0 -352 -35 -4 c-20 -2 -38 -2 -40 1 -3 2 -5 169 -5 370 0 346 1 368 20 398 12 20 32 36 52 42 18 5 121 10 228 10 l196 1 0 -39z m364 10 c0 -26 -4 -29 -66 -46 -96 -26 -96 -27 -98 -253 l-1 -187 88 -3 87 -3 0 -39 0 -39 -87 -3 -88 -3 -2 -70 c-1 -38 -2 -76 -2 -82 -1 -7 -12 -13 -26 -13 -29 0 -30 1 -45 97 l-12 72 -54 11 c-51 11 -54 13 -54 41 0 29 1 29 55 29 l55 0 1 173 c1 217 5 246 40 292 31 38 73 54 147 55 62 0 62 0 62 -29z m2000 -310 c131 -46 202 -126 235 -263 11 -46 14 -105 11 -223 -3 -136 -7 -169 -25 -218 -41 -104 -111 -175 -211 -213 -37 -14 -100 -18 -365 -24 -176 -4 -321 -8 -322 -9 -13 -8 -31 -64 -26 -78 17 -44 23 -45 306 -53 300 -8 338 -15 424 -73 59 -41 117 -115 142 -183 23 -60 40 -181 35 -244 -8 -111 -16 -158 -31 -198 -9 -23 -14 -44 -12 -45 2 -2 37 -13 77 -25 l72 -23 0 -110 0 -109 -457 0 c-288 0 -481 4 -522 11 -139 24 -252 102 -304 212 -42 90 -51 135 -51 272 0 107 4 143 22 201 21 67 70 150 99 167 16 9 18 37 2 37 -23 0 -77 53 -105 102 -25 46 -29 63 -28 133 0 106 22 170 80 231 l45 47 -34 36 c-86 92 -79 68 -75 241 3 126 7 162 23 195 56 118 132 182 255 215 68 18 101 20 375 17 283 -3 304 -4 365 -26z m-3250 -686 c209 -8 521 -26 558 -31 l32 -5 0 -149 0 -150 -407 0 c-306 0 -414 -3 -433 -13 -50 -25 -60 -66 -60 -249 0 -92 4 -169 9 -172 8 -5 100 -9 566 -25 l200 -6 3 -152 3 -153 -73 -1 c-40 -1 -84 -3 -98 -4 -14 -1 -124 -5 -245 -9 -121 -3 -253 -9 -292 -12 l-73 -6 0 -180 c0 -143 3 -185 16 -209 29 -57 44 -59 484 -59 l401 0 -3 -152 -3 -153 -65 -6 c-36 -4 -132 -9 -215 -13 -82 -3 -190 -8 -240 -11 -365 -19 -444 -15 -547 32 -76 34 -137 101 -169 185 l-24 63 0 690 0 690 23 56 c61 153 205 224 427 214 50 -3 151 -7 225 -10z m-1810 -379 c0 -248 4 -387 10 -391 6 -3 181 -11 390 -17 l380 -12 0 -151 0 -152 -127 -6 c-71 -4 -227 -10 -348 -13 -121 -4 -238 -9 -260 -13 l-40 -7 0 -185 c0 -211 6 -230 72 -248 24 -7 189 -11 431 -11 l392 0 0 -154 0 -153 -87 -7 c-80 -5 -340 -17 -678 -31 -91 -3 -150 0 -196 9 -177 38 -273 143 -298 329 -12 86 -16 1579 -4 1590 3 4 87 7 185 7 l178 0 0 -384z m2960 367 c0 -10 0 -235 0 -501 l0 -483 28 -26 c90 -84 303 -131 391 -85 21 10 43 33 55 57 20 38 21 59 26 545 l5 505 180 0 180 0 3 -480 c4 -633 -6 -707 -111 -822 -86 -94 -188 -130 -341 -120 -130 8 -214 38 -342 123 -28 19 -57 34 -65 34 -8 0 -27 -29 -43 -65 -15 -36 -33 -65 -40 -66 -20 -2 -281 3 -283 5 -2 2 -5 1342 -3 1389 0 4 81 7 180 7 165 0 180 -1 180 -17z"></path>
    <path d="M4230 3340 c-63 -68 -62 -336 3 -392 11 -10 27 -19 36 -19 48 -4 153 3 199 13 l52 11 -2 186 -3 186 -65 22 c-39 14 -90 22 -128 23 -58 0 -67 -3 -92 -30z"></path>
    <path d="M5558 2840 c-136 -5 -148 -7 -171 -28 -14 -13 -30 -43 -36 -67 -12 -49 -15 -272 -3 -277 4 -2 112 -2 239 1 l233 6 27 28 c27 26 28 33 31 135 2 87 0 113 -15 142 -31 61 -71 69 -305 60z"></path>
    <path d="M5430 1718 c-62 -32 -84 -78 -88 -188 -3 -73 0 -91 20 -130 37 -72 65 -81 238 -78 127 3 148 6 172 23 42 31 60 83 61 172 2 176 -52 222 -263 223 -80 0 -103 -4 -140 -22z"></path>
  </g>
  <g id="layer112" fill="#fffffe" stroke="none">
    <path d="M0 1950 l0 -1950 3490 0 3490 0 0 1950 0 1950 -3490 0 -3490 0 0 -1950z m4417 1486 c28 -8 62 -20 74 -27 19 -10 25 -9 36 7 7 10 13 21 13 26 0 4 15 8 33 8 l32 0 0 -445 0 -446 -40 3 -40 3 -3 158 -3 158 -22 -7 c-12 -4 -31 -9 -42 -11 -161 -28 -236 -26 -267 7 -10 11 -23 20 -27 20 -16 0 -54 91 -59 139 -12 130 -3 252 23 319 16 38 67 90 105 105 23 9 129 0 187 -17z m-3371 -7 c72 -27 148 -90 198 -162 l40 -57 381 0 381 0 40 57 c50 73 126 135 201 163 86 32 215 26 297 -14 60 -29 166 -122 166 -144 0 -9 -32 -12 -112 -12 l-112 0 -53 -52 -53 -52 0 -100 0 -100 52 -53 52 -53 113 0 c81 0 113 -3 113 -12 0 -22 -106 -115 -166 -144 -82 -40 -211 -46 -297 -14 -75 28 -151 90 -201 163 l-40 57 -381 0 -381 0 -40 -57 c-50 -73 -126 -135 -201 -163 -86 -32 -215 -26 -297 14 -60 29 -166 122 -166 144 0 9 32 12 112 12 l112 0 53 52 53 52 0 100 0 100 -52 53 -52 53 -113 0 c-66 0 -113 4 -113 10 0 33 119 130 199 161 67 26 194 25 267 -2z m2590 -19 l1 -40 -189 0 c-171 0 -190 -2 -204 -19 -14 -16 -16 -62 -15 -368 l2 -351 -41 -4 c-23 -2 -43 -2 -46 1 -7 7 -3 734 5 760 14 52 47 59 276 60 l211 2 0 -41z m369 5 c0 -20 -5 -30 -15 -30 -8 0 -21 -4 -28 -9 -7 -4 -16 -6 -19 -3 -7 8 -63 -13 -63 -24 0 -5 -7 -9 -15 -9 -8 0 -15 -1 -16 -2 -7 -25 -14 -163 -14 -268 l0 -135 90 -5 90 -5 0 -35 0 -35 -90 -5 -90 -5 -2 -70 c-1 -38 -2 -76 -2 -83 -2 -22 -55 -10 -59 13 -2 11 -6 27 -9 35 -4 8 -7 34 -8 58 -2 24 -5 45 -7 47 -5 6 -64 16 -90 16 -10 0 -20 10 -24 24 -10 41 -1 50 52 50 l49 0 6 175 c6 204 13 247 39 275 11 12 20 26 20 31 0 17 70 32 140 30 l65 -1 0 -30z m1975 -281 c89 -26 145 -61 191 -119 75 -94 83 -123 86 -340 2 -124 -1 -202 -8 -225 -42 -129 -45 -135 -99 -187 -35 -34 -103 -73 -148 -85 -21 -6 -147 -9 -288 -8 -159 1 -254 -2 -258 -8 -3 -6 -29 -10 -56 -10 -59 -1 -68 -5 -81 -40 -9 -22 -7 -30 11 -44 20 -16 48 -18 254 -18 194 0 244 -3 303 -19 39 -10 81 -25 94 -35 13 -9 30 -16 38 -16 24 0 120 -108 150 -169 39 -77 55 -195 47 -329 -5 -61 -14 -118 -23 -135 -8 -16 -12 -34 -10 -41 3 -7 32 -20 65 -29 33 -9 62 -23 65 -30 3 -8 4 -63 4 -123 l-2 -109 -480 -3 c-510 -3 -545 -1 -636 44 -26 13 -49 21 -52 18 -3 -3 -15 9 -27 26 -12 16 -26 28 -31 25 -5 -4 -9 -2 -9 2 0 5 -7 18 -15 28 -79 102 -105 193 -105 363 0 134 27 244 80 319 39 56 49 83 31 83 -24 0 -84 75 -103 128 -41 117 -3 301 75 360 26 20 21 32 -33 91 l-50 55 0 126 c0 102 4 139 21 191 18 55 69 164 69 148 0 -3 19 11 41 32 47 43 134 81 191 83 21 1 40 5 44 9 4 4 141 7 304 7 243 0 306 -3 350 -16z m-3080 -699 c80 -4 152 -9 160 -12 8 -4 20 -5 25 -4 6 2 65 0 131 -4 115 -7 122 -9 133 -31 13 -29 13 -182 0 -190 -6 -3 -5 -12 2 -21 15 -17 19 -53 7 -53 -5 0 -12 -9 -16 -20 -7 -20 -15 -20 -410 -20 l-403 0 -36 -34 -36 -33 2 -169 c1 -104 6 -171 12 -175 9 -5 274 -16 499 -21 36 0 71 -5 78 -11 8 -6 16 -6 25 2 15 12 144 4 153 -11 9 -14 6 -300 -4 -310 -5 -5 -19 -10 -31 -13 -36 -7 -299 -8 -310 -1 -5 4 -13 1 -16 -5 -5 -7 -55 -10 -151 -8 -79 2 -147 0 -150 -4 -4 -4 -29 -7 -56 -7 l-48 0 0 -179 c0 -99 3 -187 6 -196 17 -43 42 -45 469 -45 394 0 405 -1 405 -19 0 -11 5 -23 10 -26 6 -3 10 -21 10 -40 0 -19 -4 -37 -10 -40 -11 -7 -14 -108 -3 -118 3 -4 8 -23 10 -42 5 -50 -21 -64 -125 -64 -45 0 -86 -2 -90 -5 -12 -7 -441 -21 -632 -20 -164 0 -165 0 -235 33 -89 41 -127 78 -173 166 l-37 70 -3 694 c-2 624 -1 699 14 745 42 130 111 199 238 237 64 19 217 20 586 4z m1008 0 c9 -3 12 -114 12 -508 l0 -504 38 -25 c20 -14 54 -30 74 -37 21 -7 40 -16 43 -21 5 -8 104 -21 158 -20 15 0 38 0 51 0 38 0 83 60 91 117 3 26 10 55 15 65 12 22 11 889 -1 904 -23 28 18 34 202 32 l184 -3 0 -535 c0 -295 -4 -544 -9 -555 -5 -11 -8 -29 -7 -40 2 -24 -33 -128 -51 -151 -36 -46 -117 -115 -145 -126 -18 -7 -33 -15 -33 -18 0 -9 -5 -9 -148 -16 -101 -5 -136 -3 -190 11 -63 17 -243 108 -250 126 -12 30 -53 -7 -72 -64 -6 -20 -20 -42 -30 -47 -20 -11 -278 -14 -304 -4 -14 6 -16 77 -16 709 l0 703 25 9 c24 8 338 6 363 -2z m-2960 -7 c15 -15 16 -174 2 -183 -15 -9 -13 -509 2 -538 6 -12 14 -28 17 -36 5 -10 34 -13 129 -12 67 1 127 -1 133 -5 7 -4 68 -7 138 -7 69 1 132 -4 138 -9 8 -6 28 -7 50 -2 91 20 208 -5 175 -38 -15 -15 -16 -174 -1 -183 13 -9 3 -85 -14 -101 -8 -9 -97 -14 -292 -19 -154 -4 -320 -10 -370 -14 l-90 -6 -3 -35 c-2 -19 -8 -39 -13 -45 -12 -12 -12 -62 1 -70 6 -3 10 -51 10 -108 0 -109 2 -114 40 -140 22 -15 65 -17 425 -17 306 0 405 -3 418 -13 16 -11 17 -30 15 -162 -3 -148 -3 -150 -28 -162 -18 -9 -28 -9 -38 -1 -10 9 -19 9 -34 -1 -11 -7 -45 -12 -76 -10 -32 1 -64 -1 -72 -4 -27 -10 -513 -27 -640 -22 -127 4 -221 27 -213 51 3 10 -50 29 -70 25 -5 -1 -6 3 -2 8 3 6 -3 15 -14 20 -31 17 -82 120 -97 196 -11 56 -14 225 -14 856 0 432 3 789 7 792 12 13 368 8 381 -5z"></path>
    <path d="M4254 3355 c-4 -8 -12 -15 -20 -15 -8 0 -14 -8 -14 -18 0 -10 -4 -22 -10 -28 -30 -30 -31 -238 -1 -292 6 -12 10 -26 7 -30 -3 -5 16 -17 41 -27 51 -21 91 -21 226 1 l37 6 0 172 c0 94 -4 176 -8 182 -33 49 -243 89 -258 49z"></path>
    <path d="M5422 2814 c-18 -10 -38 -26 -44 -38 -7 -12 -14 -81 -16 -159 l-4 -139 227 4 227 3 22 28 c27 34 54 173 37 190 -6 6 -11 23 -11 38 0 18 -11 37 -34 57 l-35 30 -168 1 c-137 1 -174 -2 -201 -15z"></path>
    <path d="M5453 1713 c-29 -6 -83 -68 -83 -96 0 -13 -6 -31 -13 -41 -10 -14 -11 -33 -5 -75 13 -83 26 -113 60 -141 29 -22 42 -25 152 -28 149 -5 180 3 220 52 30 37 31 41 31 141 0 100 -1 104 -31 141 -17 21 -42 42 -55 45 -26 8 -240 9 -276 2z"></path>
  </g>
</svg>
