<svg xmlns="http://www.w3.org/2000/svg" width="192.491mm" height="83.4829mm" viewBox="0 0 545.6438 236.6445"><defs><style>.a{fill:#1d1d1b;}.b{fill:#b000f0;}.c{fill:#fff;}</style></defs><title>FoundryZero</title><path class="a" d="M.0873,220.5117V150.877h43.919v10.3056H13.1381v20.6113H39.1908v10.3536H13.1381v28.3642Z"/><path class="a" d="M94.52,195.7109c0,15.6514-9.583,25.5235-24.3672,25.5235S45.641,211.3623,45.641,195.7109c0-15.6025,9.7276-25.3789,24.5117-25.3789S94.52,180.1084,94.52,195.7109Zm-12.28.0967c0-10.6426-3.8526-16.374-12.087-16.374-8.331,0-12.2324,5.7793-12.2324,16.374s3.9014,16.2764,12.2324,16.2764C78.3871,212.084,82.24,206.45,82.24,195.8076Z"/><path class="a" d="M111.8061,202.501c0,6.0195,2.7929,9.4873,8.3789,9.4873,4.0937,0,7.6572-1.9268,10.8838-5.1533V171.1025h11.8945v49.4092h-7.2715a2.9236,2.9236,0,0,1-3.0342-2.167l-.8183-3.9492c-4.0928,4.0938-8.62,6.8867-15.2657,6.8867-10.7871,0-16.6621-7.7529-16.6621-18.7812V171.1025h11.8946Z"/><path class="a" d="M157.65,171.1025a2.9219,2.9219,0,0,1,3.0332,2.167l.8193,3.9014c3.9971-4.1416,8.668-6.8389,15.2657-6.8389,10.8349,0,16.6621,7.7051,16.6621,18.7334v31.4463H181.5355V189.0654c0-6.02-2.7929-9.4873-8.38-9.4873-4.0928,0-7.6563,1.9746-10.8828,5.2012v35.7324H150.3773V171.1025Z"/><path class="a" d="M237.01,220.5117a2.9228,2.9228,0,0,1-3.0342-2.167l-.9629-4.7676c-4.0459,4.5752-8.957,7.6573-15.8916,7.6573-10.836,0-18.3-9.1016-18.3-25.2823,0-14.6884,8.331-25.7646,21.2373-25.7646a16.7237,16.7237,0,0,1,12.3281,4.8643V148.9512h11.8945v71.56Zm-4.6231-36.792a11.587,11.587,0,0,0-9.5351-4.4785c-7.2237,0-11.751,5.2979-11.751,16.7109,0,11.5577,3.8525,15.8428,10.0654,15.8428,4.96,0,8.1387-2.1181,11.2207-5.9228Z"/><path class="a" d="M257.3773,171.1025c2.4561,0,3.1778.8194,3.5157,2.9864l.7217,5.9716c3.5156-6.1162,8.2832-9.873,14.206-9.873a10.3816,10.3816,0,0,1,6.0684,1.6855l-1.5411,8.9092a1.686,1.686,0,0,1-1.9267,1.5889c-.9629,0-2.5518-.6738-5.2969-.6738-4.96,0-8.3789,2.7929-10.8349,8.042v30.7724H250.3939V171.1025Z"/><path class="a" d="M309.3842,234.0918a3.65,3.65,0,0,1-3.9483,2.5527h-8.8613l9.2461-19.7929-19.9853-45.7491h10.4023a3.4309,3.4309,0,0,1,3.3711,2.2159l10.5459,25.6191a29.1756,29.1756,0,0,1,1.59,5.2969,49.9218,49.9218,0,0,1,1.8291-5.3448l9.9209-25.5712a3.5243,3.5243,0,0,1,3.2744-2.2159h9.5352Z"/><path class="b" d="M355.9,161.1826V150.877h51.5283v4.7675a7.052,7.052,0,0,1-1.2519,4.045l-35.7324,50.4687h36.1171v10.3535H353.6371v-5.1045a6.0734,6.0734,0,0,1,1.2031-3.5156l35.8291-50.709Z"/><path class="b" d="M455.3891,213.1436c-5.2969,6.2119-13.3877,8.0908-20.37,8.0908-13.6767,0-24.3193-9.1983-24.3193-26.4864,0-13.4843,8.957-24.416,23.7412-24.416,12.4727,0,21.3819,8.1387,21.3819,22.3936,0,3.6113-.5782,4.5742-2.7452,4.5742H422.5463c.7217,10.1611,5.6826,14.7363,13.5322,14.7363,7.7529,0,10.7383-4.334,13.6758-4.334a2.5036,2.5036,0,0,1,2.167,1.1075ZM445.1313,190.125c0-6.1641-3.3223-11.2686-10.4493-11.2686-6.9345,0-10.7871,4.0928-11.8955,11.2686Z"/><path class="b" d="M472.4818,171.1025c2.4561,0,3.1778.8194,3.5157,2.9864l.7216,5.9716c3.5157-6.1162,8.2832-9.873,14.2061-9.873a10.3816,10.3816,0,0,1,6.0684,1.6855l-1.5411,8.9092a1.686,1.686,0,0,1-1.9267,1.5889c-.9629,0-2.5518-.6738-5.2969-.6738-4.96,0-8.3789,2.7929-10.835,8.042v30.7724H465.4984V171.1025Z"/><path class="b" d="M545.4848,195.7109c0,15.6514-9.583,25.5235-24.3672,25.5235s-24.5117-9.8721-24.5117-25.5235c0-15.6025,9.7275-25.3789,24.5117-25.3789S545.4848,180.1084,545.4848,195.7109Zm-12.2793.0967c0-10.6426-3.8526-16.374-12.0879-16.374-8.3311,0-12.2315,5.7793-12.2315,16.374s3.9,16.2764,12.2315,16.2764C529.3529,212.084,533.2055,206.45,533.2055,195.8076Z"/><rect class="a" width="445.3768" height="117.2964"/><rect class="c" x="255.1483" y="3.9453" width="286.5503" height="109.4063"/><path class="a" d="M537.7532,7.8907V109.4059H259.0938V7.8907H537.7532M545.6438,0H251.2032V117.2965H545.6438V0Z"/><rect class="a" x="475.9652" y="55.2044" width="40.0724" height="9.31" transform="translate(87.0185 346.7975) rotate(-41.9345)"/><path class="a" d="M502.0834,37.9688a4.4993,4.4993,0,0,1,4.44,4.44V79.3306a4.4993,4.4993,0,0,1-4.44,4.44H489.1615a4.4994,4.4994,0,0,1-4.44-4.44V42.4087a4.4994,4.4994,0,0,1,4.44-4.44h12.9219m0-9.31H489.1615a13.79,13.79,0,0,0-13.75,13.75V79.3306a13.79,13.79,0,0,0,13.75,13.7495h12.9219a13.79,13.79,0,0,0,13.75-13.7495V42.4087a13.79,13.79,0,0,0-13.75-13.75Z"/><rect class="a" x="410.702" y="55.2044" width="40.0724" height="9.31" transform="translate(70.3052 303.1834) rotate(-41.9345)"/><path class="a" d="M436.82,37.9688a4.4994,4.4994,0,0,1,4.44,4.44V79.3306a4.4994,4.4994,0,0,1-4.44,4.44H423.8985a4.4993,4.4993,0,0,1-4.44-4.44V42.4087a4.4993,4.4993,0,0,1,4.44-4.44H436.82m0-9.31H423.8985a13.79,13.79,0,0,0-13.75,13.75V79.3306a13.79,13.79,0,0,0,13.75,13.7495H436.82a13.79,13.79,0,0,0,13.75-13.7495V42.4087a13.79,13.79,0,0,0-13.75-13.75Z"/><rect class="a" x="345.4393" y="55.2044" width="40.0724" height="9.31" transform="translate(53.592 259.5696) rotate(-41.9345)"/><path class="a" d="M371.5575,37.9688a4.4993,4.4993,0,0,1,4.44,4.44V79.3306a4.4993,4.4993,0,0,1-4.44,4.44h-12.922a4.4994,4.4994,0,0,1-4.44-4.44V42.4087a4.4994,4.4994,0,0,1,4.44-4.44h12.922m0-9.31h-12.922a13.79,13.79,0,0,0-13.7494,13.75V79.3306A13.79,13.79,0,0,0,358.6355,93.08h12.922a13.79,13.79,0,0,0,13.75-13.7495V42.4087a13.79,13.79,0,0,0-13.75-13.75Z"/><rect class="a" x="280.1761" y="55.2044" width="40.0724" height="9.31" transform="translate(36.8787 215.9555) rotate(-41.9345)"/><path class="a" d="M306.2945,37.9688a4.4994,4.4994,0,0,1,4.44,4.44V79.3306a4.4994,4.4994,0,0,1-4.44,4.44H293.3726a4.4993,4.4993,0,0,1-4.44-4.44V42.4087a4.4993,4.4993,0,0,1,4.44-4.44h12.9219m0-9.31H293.3726a13.79,13.79,0,0,0-13.7495,13.75V79.3306A13.79,13.79,0,0,0,293.3726,93.08h12.9219A13.79,13.79,0,0,0,320.044,79.3306V42.4087a13.79,13.79,0,0,0-13.7495-13.75Z"/><rect class="c" x="45.8324" y="31.8174" width="9.3096" height="57.2891"/><rect class="c" x="98.7816" y="31.8174" width="9.3096" height="57.2891"/><rect class="c" x="151.7309" y="31.8174" width="9.3096" height="57.2891"/><rect class="c" x="204.6801" y="31.8174" width="9.3096" height="57.2891"/></svg>