<?xml version="1.0" encoding="UTF-8" standalone="no"?>
<svg
   width="270"
   height="46"
   viewBox="0 0 270 46"
   fill="none"
   version="1.1"
   id="svg10"
   sodipodi:docname="grafana.svg"
   inkscape:version="1.4.3 (0d15f75042, 2025-12-25)"
   xmlns:inkscape="http://www.inkscape.org/namespaces/inkscape"
   xmlns:sodipodi="http://sodipodi.sourceforge.net/DTD/sodipodi-0.dtd"
   xmlns="http://www.w3.org/2000/svg"
   xmlns:svg="http://www.w3.org/2000/svg">
  <sodipodi:namedview
     id="namedview10"
     pagecolor="#ffffff"
     bordercolor="#000000"
     borderopacity="0.25"
     inkscape:showpageshadow="2"
     inkscape:pageopacity="0.0"
     inkscape:pagecheckerboard="0"
     inkscape:deskcolor="#d1d1d1"
     inkscape:zoom="8"
     inkscape:cx="141.0625"
     inkscape:cy="28.1875"
     inkscape:window-width="3440"
     inkscape:window-height="1403"
     inkscape:window-x="0"
     inkscape:window-y="0"
     inkscape:window-maximized="1"
     inkscape:current-layer="svg10" />
  <g
     id="g10"
     transform="translate(0.55624465,-0.49180305)">
    <path
       fill-rule="evenodd"
       clip-rule="evenodd"
       d="m 197.49179,38.629842 h 14.24395 V 34.815935 H 201.3049 V 10.531578 h -3.81311 z m 31.28676,5.96e-4 h 3.19267 V 19.716722 h -3.2702 v 2.41283 c -1.63411,-1.712332 -3.89045,-2.724165 -6.45889,-2.724165 -5.44901,0 -9.80861,4.358668 -9.80861,9.729348 0,5.370481 4.3596,9.807018 9.80861,9.807018 2.56844,0 4.90231,-1.089602 6.53642,-2.724105 z m -6.53642,-15.489013 c 3.34574,0 5.99172,2.724304 5.99172,5.99331 0,3.346934 -2.64598,5.99331 -5.99172,5.99331 -3.34773,0 -5.99371,-2.646376 -5.99371,-5.99331 0,-3.269006 2.72351,-5.99331 5.99371,-5.99331 z m 32.45746,5.992714 c 0,5.37068 -4.43713,9.807216 -9.8086,9.807216 -2.56845,0 -4.90232,-1.089801 -6.53841,-2.724304 V 38.63004 H 235.1619 V 12.088411 h 3.73737 v 9.573572 c 1.55657,-1.400957 3.65785,-2.257133 5.99172,-2.257133 5.37147,-0.07783 9.8086,4.358807 9.8086,9.729289 z m -3.89243,0 c 0,-3.269006 -2.72351,-5.993311 -5.9937,-5.993311 -3.26821,0 -5.99371,2.646376 -5.99371,5.993311 0,3.269006 2.7255,5.915382 5.99371,5.915382 3.27019,0 5.9937,-2.646376 5.9937,-5.915382 z m 15.17611,-5.292951 1.63411,-2.802133 c -1.55658,-0.934005 -3.26821,-1.712352 -5.44901,-1.556694 -3.58032,0 -6.30383,2.179423 -6.30383,5.292772 0,3.297036 3.0217,4.554621 4.89635,5.335493 l 0.0855,0.03499 c 2.64597,1.011873 3.81291,1.712431 3.81291,3.035619 0,1.089603 -0.85483,2.257133 -2.72351,2.257133 -1.55658,0 -3.58032,-0.856017 -4.66973,-1.478845 l -1.47904,3.113348 c 1.63411,1.011873 3.96996,1.946017 6.30383,1.946017 3.8149,0 6.53841,-2.724304 6.53841,-5.837653 0,-3.113348 -2.64598,-5.137094 -5.6816,-6.226697 -0.11132,-0.04155 -0.22066,-0.0823 -0.32801,-0.122458 -1.70965,-0.636546 -3.01972,-1.123597 -3.01972,-2.36826 0,-1.167531 1.24646,-1.868089 2.7255,-1.868089 1.47904,0 2.87857,0.778287 3.65785,1.245459 z"
       fill="#f4f4f6"
       id="path1"
       style="stroke-width:1.98796" />
    <path
       d="m 40.732179,20.96216 c -0.07773,-0.700498 -0.155657,-1.556694 -0.466972,-2.490698 -0.233586,-0.934025 -0.62263,-1.945858 -1.167531,-3.03554 -0.5449,-1.089682 -1.24526,-2.179384 -2.101475,-3.269066 C 36.684886,11.777693 36.295643,11.310681 35.82867,10.921517 36.4513,8.4308184 35.050383,6.3292833 35.050383,6.3292833 32.715322,6.1736059 31.158548,7.0297817 30.613648,7.4967939 c -0.07773,0 -0.155658,-0.077829 -0.311315,-0.1556773 C 29.913288,7.1854591 29.524045,7.0297817 29.057073,6.8741242 28.5901,6.7184469 28.200857,6.6406181 27.733885,6.4849407 27.266912,6.407112 26.799741,6.3292833 26.410697,6.2514346 c -0.07793,0 -0.155658,0 -0.233586,0 -1.011873,-3.2690418 -3.969564,-4.6700625 -3.969564,-4.6700625 -3.269006,2.1015351 -3.891676,4.9814173 -3.891676,4.9814173 0,0 0,0.077829 0,0.1556575 -0.155677,0.077829 -0.389183,0.077829 -0.544861,0.1556773 -0.233506,0.077829 -0.467012,0.1556575 -0.778347,0.2335061 -0.233506,0.077829 -0.466992,0.1556575 -0.778347,0.3113349 -0.466992,0.2335061 -1.011833,0.4669923 -1.478845,0.7004984 -0.467013,0.2335061 -0.934005,0.544841 -1.401017,0.8561957 -0.07783,0 -0.07783,-0.077849 -0.07783,-0.077849 C 8.6643915,7.1854591 4.6169788,9.2869942 4.6169788,9.2869942 4.2278152,14.112734 6.407179,17.226102 6.8741912,17.770943 c -0.077849,0.311335 -0.2335061,0.62269 -0.3113348,0.934025 -0.3113349,1.089682 -0.6226896,2.257192 -0.7783471,3.424783 0,0.155657 -0.077849,0.311314 -0.077849,0.466972 -4.2030583,2.101475 -5.4484096,6.382355 -5.4484096,6.382355 3.5025519,4.047492 7.6277933,4.280879 7.6277933,4.280879 0.544841,0.934143 1.0896819,1.79016 1.7901804,2.646376 0.3113356,0.311315 0.6226896,0.700558 0.8561956,1.011873 -1.2453592,3.658249 0.155658,6.693868 0.155658,6.693868 3.891715,0.155657 6.460263,-1.712431 7.005104,-2.179404 0.389163,0.155658 0.778347,0.233387 1.16751,0.389243 1.167511,0.311315 2.41291,0.466973 3.65817,0.544702 0.311315,0 0.622829,0 0.934144,0 h 0.155657 0.07773 0.155658 0.155657 c 1.868089,2.646376 5.059366,3.035619 5.059366,3.035619 2.335061,-2.412989 2.41279,-4.825779 2.41279,-5.37068 v -0.07773 -0.07793 c 0.466973,-0.311315 0.933945,-0.70036 1.401116,-1.089603 0.933945,-0.856215 1.712233,-1.79016 2.412791,-2.802033 0.07793,-0.07793 0.155657,-0.155658 0.155657,-0.311315 2.646376,0.155657 4.436537,-1.634503 4.436537,-1.634503 -0.466973,-2.724304 -2.023746,-4.047492 -2.335061,-4.280879 h -0.07773 c 0,-0.155857 0,-0.311514 0,-0.467172 0,-0.311314 0,-0.622629 0,-0.856016 V 28.04513 27.9672 27.88947 27.81154 27.655882 27.422496 c 0,-0.07793 0,-0.155658 0,-0.233586 0,-0.07773 0,-0.155657 0,-0.233586 v -0.233386 -0.233586 c -0.07793,-0.311315 -0.07793,-0.62263 -0.155657,-0.856216 -0.311315,-1.167331 -0.700558,-2.257133 -1.323188,-3.269006 -0.62263,-1.011793 -1.323188,-1.867989 -2.179404,-2.646316 -0.856215,-0.778347 -1.79016,-1.323188 -2.802033,-1.7902 -1.011873,-0.467013 -2.023746,-0.700519 -3.113349,-0.856176 -0.5449,-0.07785 -1.011873,-0.07785 -1.556774,-0.07785 h -0.155657 -0.07773 -0.07793 -0.07773 -0.155657 c -0.07793,0 -0.155857,0 -0.233586,0 -0.233586,0 -0.544901,0.07785 -0.778287,0.07785 -1.011873,0.155657 -2.023746,0.544841 -2.879962,1.089682 -0.856216,0.544841 -1.634503,1.16751 -2.257193,1.868029 -0.622669,0.700498 -1.089682,1.556694 -1.401016,2.412909 -0.311335,0.856216 -0.467013,1.712233 -0.544841,2.568448 0,0.233586 0,0.389244 0,0.62263 0,0.07793 0,0.07793 0,0.155857 v 0.155657 c 0,0.07773 0,0.233387 0,0.311315 0.07783,0.389044 0.155677,0.856216 0.233506,1.24526 0.233506,0.778287 0.622669,1.478846 1.011853,2.101475 0.466992,0.622829 1.011833,1.089802 1.556774,1.478846 0.544701,0.389243 1.16753,0.700558 1.79016,0.856216 0.62263,0.155657 1.167531,0.233585 1.790161,0.233585 0.07773,0 0.155657,0 0.233386,0 h 0.07793 0.07793 c 0.07773,0 0.155657,0 0.155657,0 0,0 0,0 0.07773,0 h 0.07793 0.07773 c 0.07793,0 0.155657,0 0.233586,0 0.07773,0 0.155657,0 0.233386,-0.07793 0.155658,0 0.233586,-0.07773 0.389244,-0.07773 0.233585,-0.07793 0.466972,-0.155658 0.700558,-0.311315 0.233386,-0.07793 0.389044,-0.233586 0.62263,-0.389243 0.07773,0 0.07793,-0.07773 0.155657,-0.155658 0.233586,-0.155657 0.233586,-0.466972 0.07793,-0.62263 -0.155657,-0.155657 -0.389243,-0.233585 -0.5449,-0.07793 -0.07793,0 -0.07793,0.07793 -0.155658,0.07793 -0.155657,0.07773 -0.311315,0.155658 -0.5449,0.233387 -0.155658,0.07793 -0.389244,0.07793 -0.544901,0.155657 -0.07773,0 -0.233387,0 -0.311315,0 -0.07773,0 -0.07773,0 -0.155658,0 -0.07773,0 -0.07773,0 -0.155657,0 -0.07773,0 -0.07773,0 -0.155658,0 -0.07773,0 -0.155657,0 -0.155657,0 h -0.07773 -0.07793 c -0.07793,0 -0.07773,0 -0.155658,0 -0.466972,-0.07773 -0.856216,-0.155657 -1.323188,-0.389044 -0.466972,-0.155657 -0.856216,-0.466972 -1.245459,-0.778287 -0.389044,-0.311514 -0.700359,-0.778486 -0.933945,-1.167531 -0.233386,-0.389243 -0.466972,-0.934144 -0.5449,-1.478845 -0.07775,-0.233586 -0.07775,-0.544901 -0.07775,-0.778487 0,-0.07773 0,-0.155657 0,-0.233386 v -0.07793 -0.07773 c 0,-0.155657 0,-0.311514 0.07775,-0.467171 0.233585,-1.167531 0.778486,-2.257133 1.712431,-3.191078 0.233586,-0.233586 0.466972,-0.389243 0.700558,-0.622829 0.233387,-0.155657 0.544901,-0.311235 0.778287,-0.466913 0.311315,-0.155657 0.62263,-0.233506 0.856216,-0.311334 0.311315,-0.07783 0.62263,-0.155678 0.933945,-0.155678 0.155657,0 0.311315,0 0.466972,0 h 0.07793 0.155657 0.07793 0.155658 c 0.311315,0 0.700359,0.07785 1.011674,0.155678 0.700558,0.155657 1.323188,0.389163 1.946017,0.778247 1.24526,0.700558 2.257133,1.79036 2.957691,3.035619 0.311315,0.62263 0.5449,1.323188 0.700558,2.023747 0,0.155657 0.07773,0.389243 0.07773,0.5449 v 0.155658 0.155657 c 0,0.07773 0,0.07773 0,0.155658 0,0.07773 0,0.07773 0,0.155657 v 0.155658 0.155657 c 0,0.07773 0,0.233387 0,0.311315 0,0.233586 0,0.389243 -0.07773,0.62263 0,0.155657 -0.07793,0.389243 -0.07793,0.544901 0,0.155657 -0.07793,0.389243 -0.155658,0.5449 -0.07793,0.389045 -0.233585,0.778288 -0.389243,1.089603 -0.311315,0.700558 -0.700359,1.401116 -1.16753,2.101475 -0.933945,1.245459 -2.179205,2.335061 -3.658051,2.957691 -0.700558,0.311514 -1.478845,0.544901 -2.257332,0.700558 -0.389044,0.07793 -0.778287,0.07793 -1.16753,0.155658 h -0.07773 -0.07793 -0.155657 -0.155658 -0.07773 c 0.07773,0 0,0 0,0 -0.233586,0 -0.389243,0 -0.622829,0 -0.856016,-0.07773 -1.712232,-0.233387 -2.490718,-0.466973 -0.778268,-0.233387 -1.634444,-0.5449 -2.334942,-0.933945 C 16.369994,35.050117 15.046806,33.960515 13.957124,32.637327 13.412283,32.014697 12.94527,31.314139 12.633936,30.535851 12.244752,29.757564 11.933437,28.979078 11.699931,28.20079 11.466425,27.422503 11.310767,26.566287 11.310767,25.788 v -0.155857 -0.07773 -0.155657 -0.466973 -0.07793 -0.155658 -0.07773 c 0,-0.07793 0,-0.233586 0,-0.311514 0,-0.389044 0.07783,-0.856016 0.07783,-1.24526 0.07783,-0.389243 0.155658,-0.856215 0.233506,-1.245259 0.07783,-0.389263 0.155658,-0.856276 0.311315,-1.245439 0.233506,-0.778347 0.544861,-1.556694 0.856196,-2.335041 0.700498,-1.478846 1.556674,-2.802034 2.646356,-3.813887 0.233506,-0.233506 0.544861,-0.544841 0.856196,-0.778347 0.311335,-0.233506 0.622689,-0.467012 0.934024,-0.62267 0.311335,-0.233506 0.62265,-0.389183 0.934005,-0.544841 0.155657,-0.07785 0.311335,-0.155677 0.467012,-0.233506 0.07783,0 0.155658,-0.07785 0.233486,-0.07785 0.07783,0 0.155678,-0.07783 0.233526,-0.07783 0.311335,-0.155658 0.700499,-0.233506 1.011834,-0.389164 0.07775,0 0.155677,-0.07785 0.233605,-0.07785 0.07773,0 0.155658,-0.07783 0.233387,-0.07783 0.155657,-0.07783 0.389243,-0.07783 0.5449,-0.155657 0.07773,0 0.155658,-0.07785 0.311315,-0.07785 0.07773,0 0.155658,0 0.311315,-0.07783 0.07793,0 0.155658,0 0.311315,-0.07783 h 0.155658 0.155657 c 0.07793,0 0.155658,0 0.311315,-0.07785 0.07793,0 0.233586,0 0.311514,-0.07783 0.07773,0 0.233387,0 0.311315,0 0.07773,0 0.155658,0 0.233387,0 h 0.155657 0.07793 0.07773 c 0.07793,0 0.233586,0 0.311315,0 h 0.155657 c 0,0 0.07793,0 0,0 h 0.07793 c 0.07793,0 0.155657,0 0.233585,0 0.389044,0 0.700359,0 1.089603,0 0.700558,0 1.400917,0.07783 2.101475,0.233506 1.323188,0.233506 2.568647,0.700518 3.736177,1.245359 1.167531,0.544841 2.179205,1.245339 3.035421,2.023687 0.07793,0.07783 0.07793,0.07783 0.155657,0.155677 0.07793,0.07783 0.07793,0.07783 0.155658,0.155657 0.07793,0.07785 0.233585,0.155678 0.311315,0.311335 0.07793,0.155678 0.233585,0.155678 0.311513,0.311355 0.07773,0.155657 0.233387,0.233506 0.311315,0.311335 0.389045,0.389163 0.70036,0.778347 1.011873,1.245339 0.62263,0.778347 1.167531,1.634523 1.556575,2.41287 0,0.07785 0.07793,0.07785 0.07793,0.155678 0,0.07783 0.07773,0.07783 0.07773,0.155677 0.07793,0.07783 0.07793,0.155657 0.155657,0.311335 0.07793,0.07783 0.07793,0.155657 0.155658,0.311335 0.07793,0.07783 0.07793,0.155657 0.155657,0.311334 0.155856,0.389184 0.311514,0.700519 0.389243,1.011754 0.155658,0.544901 0.311315,1.011873 0.389243,1.401116 0.07773,0.155658 0.233387,0.311315 0.389045,0.233586 0.155657,0 0.311513,-0.155657 0.311513,-0.311514 0.311315,-0.933945 0.311315,-1.478845 0.233387,-2.023607 z"
       fill="url(#paint0_linear_16731_2713)"
       id="path2"
       style="fill:url(#paint0_linear_16731_2713);stroke-width:1.98796" />
    <path
       d="m 78.64084,25.243497 c -0.311315,7.627813 -6.304625,13.620924 -13.85451,13.620924 -7.939128,0 -13.776781,-6.382354 -13.776781,-14.165825 0,-7.783451 6.382355,-14.243714 14.165826,-14.243714 3.502591,0 6.927255,1.478866 9.884946,4.203071 l -2.257133,2.802033 c -2.257133,-1.945858 -4.903509,-3.269046 -7.549885,-3.269046 -5.681996,0 -10.352118,4.670083 -10.352118,10.429927 0,5.837454 4.436736,10.351918 10.040803,10.351918 5.059166,0 9.02873,-3.658249 9.807018,-8.484028 h -11.44172 v -3.346935 h 15.489212 z"
       fill="#f4f4f6"
       id="path3"
       style="stroke-width:1.98796" />
    <path
       d="m 91.873317,23.375209 h -2.101475 c -2.335061,0 -4.20315,1.868089 -4.20315,4.20315 V 38.630836 H 81.832713 V 19.794829 h 3.113349 v 1.556674 c 1.011873,-1.011833 2.646376,-1.556674 4.436537,-1.556674 h 4.047492 z"
       fill="#f4f4f6"
       id="path4"
       style="stroke-width:1.98796" />
    <path
       d="m 112.4201,38.63004 h -3.19127 v -2.41279 c -2.49072,2.41279 -6.38236,3.580321 -10.35192,1.86789 -2.95789,-1.323188 -5.137095,-3.969564 -5.681995,-7.160642 -1.167531,-5.99331 3.502591,-11.44176 9.495705,-11.44176 2.49072,0 4.82578,1.011853 6.46028,2.646416 v -2.41291 h 3.2692 z m -3.89183,-8.017056 c 0.85622,-3.813708 -2.02375,-7.316299 -5.75973,-7.316299 -3.269001,0 -5.915376,2.646376 -5.915376,5.915382 0,3.658249 3.191076,6.538012 7.004986,5.837652 2.25733,-0.389243 4.12522,-2.179403 4.67012,-4.436735 z"
       fill="#f4f4f6"
       id="path5"
       style="stroke-width:1.98796" />
    <path
       d="m 119.97078,18.70461 v 1.089682 h 5.99331 v 3.346934 h -5.99331 v 15.566941 h -3.73597 v -19.84788 c 0,-4.125241 2.95769,-6.61594 6.69367,-6.61594 h 4.51446 l -1.47885,3.580381 h -3.03561 c -1.63451,0 -2.9577,1.245359 -2.9577,2.879882 z"
       fill="#f4f4f6"
       id="path6"
       style="stroke-width:1.98796" />
    <path
       d="m 145.96737,38.63004 h -3.19107 v -2.41279 c -2.49072,2.41279 -6.38256,3.580321 -10.35212,1.86789 -2.95769,-1.323188 -5.1369,-3.969564 -5.6818,-7.160642 -1.16753,-5.99331 3.58032,-11.44176 9.57363,-11.44176 2.49072,0 4.82578,1.011853 6.46029,2.646416 v -2.41291 h 3.269 z m -3.8137,-8.017056 c 0.85601,-3.813708 -2.02375,-7.316299 -5.75993,-7.316299 -3.269,0 -5.91538,2.646376 -5.91538,5.915382 0,3.658249 3.19128,6.538012 7.00518,5.837652 2.25714,-0.389243 4.12523,-2.179403 4.67013,-4.436735 z"
       fill="#f4f4f6"
       id="path7"
       style="stroke-width:1.98796" />
    <path
       d="M 166.12691,27.499636 V 38.63004 h -3.73598 V 27.499636 c 0,-2.335061 -1.94602,-4.202951 -4.20315,-4.202951 -2.41279,0 -4.28088,1.86789 -4.28088,4.202951 V 38.63004 h -3.73598 V 19.794073 h 3.11335 v 1.634543 c 1.32319,-1.245359 3.19108,-1.945878 5.05917,-1.945878 4.3588,0 7.78347,3.580361 7.78347,8.016898 z"
       fill="#f4f4f6"
       id="path8"
       style="stroke-width:1.98796" />
    <path
       d="m 188.3078,38.63004 h -3.19128 v -2.41279 c -2.49071,2.41279 -6.38235,3.580321 -10.35191,1.86789 -2.9577,-1.323188 -5.1371,-3.969564 -5.682,-7.160642 -1.16753,-5.99331 3.58052,-11.44176 9.57363,-11.44176 2.49072,0 4.82578,1.011853 6.46028,2.646416 v -2.41291 h 3.26901 z m -3.81391,-8.017056 c 0.85622,-3.813708 -2.02374,-7.316299 -5.75972,-7.316299 -3.26901,0 -5.91538,2.646376 -5.91538,5.915382 0,3.658249 3.19108,6.538012 7.00498,5.837652 2.17941,-0.389243 4.12522,-2.179403 4.67012,-4.436735 z"
       fill="#f4f4f6"
       id="path9"
       style="stroke-width:1.98796" />
  </g>
  <defs
     id="defs10">
    <linearGradient
       id="paint0_linear_16731_2713"
       x1="10.2543"
       y1="28"
       x2="10.2543"
       y2="2.5"
       gradientUnits="userSpaceOnUse"
       gradientTransform="matrix(1.9879628,0,0,1.9879628,0.2582511,1.5813721)">
      <stop
         stop-color="#fff100"
         id="stop9" />
      <stop
         offset="1"
         stop-color="#f05a28"
         id="stop10" />
    </linearGradient>
  </defs>
</svg>
