<svg version="1.1" id="Layer_1" xmlns:x="ns_extend;" xmlns:i="ns_ai;" xmlns:graph="ns_graphs;" xmlns="http://www.w3.org/2000/svg" xmlns:xlink="http://www.w3.org/1999/xlink" x="0px" y="0px" viewBox="0 0 342.2 56" style="enable-background:new 0 0 342.2 56;" xml:space="preserve">
 <style type="text/css">
  .st0{fill:#0A0A0A;}
	.st1{fill:url(#SVGID_1_);}
	.st2{fill:url(#SVGID_2_);}
	.st3{fill:url(#SVGID_3_);}
	.st4{fill:url(#SVGID_4_);}
	.st5{fill:url(#SVGID_5_);}
 </style>
 <metadata>
  <sfw xmlns="ns_sfw;">
   <slices>
   </slices>
   <sliceSourceBounds bottomLeftOrigin="true" height="56" width="342.2" x="225.8" y="-56.4">
   </sliceSourceBounds>
  </sfw>
 </metadata>
 <g>
  <g>
   <path class="st0" d="M96.8,30.2c-0.4,9.8-8.1,17.4-17.7,17.4c-10.1,0-17.6-8.2-17.6-18.1c0-10,8.1-18.2,18.1-18.2
			c4.5,0,8.9,1.9,12.6,5.4l-2.9,3.6c-2.8-2.5-6.3-4.1-9.7-4.1c-7.3,0-13.2,6-13.2,13.3c0,7.5,5.6,13.2,12.8,13.2
			c6.5,0,11.5-4.7,12.5-10.8H77v-4.3h19.8L96.8,30.2L96.8,30.2z">
   </path>
   <path class="st0" d="M113.6,27.8h-2.7c-3,0-5.4,2.4-5.4,5.4v14.1h-4.8V23.2h3.9v2c1.3-1.3,3.4-2,5.7-2h5.2L113.6,27.8z">
   </path>
   <path class="st0" d="M139.9,47.3h-4.1v-3c-3.2,3.1-8.2,4.6-13.2,2.4c-3.7-1.6-6.5-5.1-7.3-9.1c-1.4-7.8,4.6-14.7,12.2-14.7
			c3.2,0,6.1,1.3,8.2,3.4v-3h4.1L139.9,47.3L139.9,47.3z M134.9,37c1.1-4.9-2.6-9.3-7.4-9.3c-4.2,0-7.6,3.4-7.6,7.6
			c0,4.7,4.1,8.3,8.9,7.5C131.8,42.2,134.3,39.9,134.9,37z">
   </path>
   <path class="st0" d="M149.6,21.9v1.3h7.7v4.2h-7.7v19.8h-4.8V22c0-5.3,3.8-8.4,8.6-8.4h5.8l-1.9,4.5h-3.9
			C151.2,18.1,149.6,19.8,149.6,21.9z">
   </path>
   <path class="st0" d="M182.7,47.3h-4.1v-3c-3.2,3.1-8.2,4.6-13.2,2.4c-3.7-1.6-6.5-5.1-7.3-9.1c-1.4-7.8,4.6-14.7,12.2-14.7
			c3.2,0,6.1,1.3,8.2,3.4v-3h4.1L182.7,47.3L182.7,47.3z M177.8,37c1.1-4.9-2.6-9.3-7.4-9.3c-4.2,0-7.6,3.4-7.6,7.6
			c0,4.7,4.1,8.3,8.9,7.5C174.7,42.2,177.1,39.9,177.8,37z">
   </path>
   <path class="st0" d="M208.5,33v14.3h-4.8V33c0-3-2.5-5.4-5.4-5.4c-3,0-5.4,2.4-5.4,5.4v14.3H188V23.2h4v2.1c1.7-1.5,4-2.5,6.5-2.5
			C204,22.8,208.5,27.4,208.5,33z">
   </path>
   <path class="st0" d="M236.8,47.3h-4.1v-3c-3.2,3.1-8.2,4.6-13.2,2.4c-3.7-1.6-6.5-5.1-7.3-9.1c-1.4-7.8,4.6-14.7,12.2-14.7
			c3.2,0,6.1,1.3,8.2,3.4v-3h4.1L236.8,47.3L236.8,47.3z M231.8,37c1.1-4.9-2.6-9.3-7.4-9.3c-4.2,0-7.6,3.4-7.6,7.6
			c0,4.7,4.1,8.3,8.9,7.5C228.7,42.2,231.2,39.9,231.8,37z">
   </path>
  </g>
  <g>
   <linearGradient id="SVGID_1_" gradientUnits="userSpaceOnUse" x1="260.6163" y1="-156.4255" x2="260.6163" y2="-105.7896" gradientTransform="matrix(1 0 0 -1 0 -92.7219)">
    <stop offset="0" style="stop-color:#FFF100">
    </stop>
    <stop offset="1" style="stop-color:#F05A28">
    </stop>
   </linearGradient>
   <path class="st1" d="M269.7,47.3h-18.2V11.5h4.8v30.9h13.3V47.3L269.7,47.3z">
   </path>
   <linearGradient id="SVGID_2_" gradientUnits="userSpaceOnUse" x1="282.9916" y1="-156.4255" x2="282.9916" y2="-105.7896" gradientTransform="matrix(1 0 0 -1 0 -92.7219)">
    <stop offset="0" style="stop-color:#FFF100">
    </stop>
    <stop offset="1" style="stop-color:#F05A28">
    </stop>
   </linearGradient>
   <path class="st2" d="M295.5,47.3h-4.1v-3c-2.1,2.1-5.1,3.4-8.3,3.4c-6.9,0-12.5-5.6-12.5-12.5c0-6.8,5.6-12.4,12.5-12.4
			c3.2,0,6.2,1.3,8.3,3.4v-3h4.2V47.3z M290.7,35.1c0-4.2-3.4-7.6-7.7-7.6c-4.2,0-7.6,3.4-7.6,7.6c0,4.3,3.4,7.7,7.6,7.7
			C287.3,42.8,290.7,39.4,290.7,35.1z">
   </path>
   <linearGradient id="SVGID_3_" gradientUnits="userSpaceOnUse" x1="311.9978" y1="-156.4255" x2="311.9978" y2="-105.7896" gradientTransform="matrix(1 0 0 -1 0 -92.7219)">
    <stop offset="0" style="stop-color:#FFF100">
    </stop>
    <stop offset="1" style="stop-color:#F05A28">
    </stop>
   </linearGradient>
   <path class="st3" d="M324.5,35.2c0,6.9-5.6,12.5-12.5,12.5c-3.2,0-6.2-1.4-8.4-3.4v3h-4.1V13.4h4.8v12.2c2-1.8,4.7-2.9,7.7-2.9
			C318.9,22.7,324.5,28.3,324.5,35.2z M319.5,35.2c0-4.2-3.4-7.6-7.6-7.6c-4.2,0-7.6,3.4-7.6,7.6c0,4.2,3.4,7.6,7.6,7.6
			S319.5,39.4,319.5,35.2z">
   </path>
   <linearGradient id="SVGID_4_" gradientUnits="userSpaceOnUse" x1="334.0297" y1="-156.4255" x2="334.0297" y2="-105.7896" gradientTransform="matrix(1 0 0 -1 0 -92.7219)">
    <stop offset="0" style="stop-color:#FFF100">
    </stop>
    <stop offset="1" style="stop-color:#F05A28">
    </stop>
   </linearGradient>
   <path class="st4" d="M341,24.8l-2.1,3.5c-1-0.6-2.8-1.6-4.7-1.6c-1.8,0-3.5,0.9-3.5,2.4c0,1.6,1.9,2.3,4.3,3.1
			c3.9,1.4,7.3,4,7.3,7.9c0,4-3.4,7.4-8.4,7.4c-3,0-6-1.2-8-2.5l1.9-4c1.4,0.8,4,1.8,6,1.8c2.4,0,3.5-1.5,3.5-2.9
			c0-1.6-1.5-2.6-4.8-3.9c-2.4-1-6.3-2.6-6.3-6.9c0-4,3.4-6.7,8-6.7C336.8,22.7,339,23.6,341,24.8z">
   </path>
  </g>
  <linearGradient id="SVGID_5_" gradientUnits="userSpaceOnUse" x1="25.7947" y1="-161.3039" x2="25.7947" y2="-110.1507" gradientTransform="matrix(1 0 0 -1 0 -92.7219)">
   <stop offset="0" style="stop-color:#FFF100">
   </stop>
   <stop offset="1" style="stop-color:#F05A28">
   </stop>
  </linearGradient>
  <path class="st5" d="M51.5,24.7c-0.1-0.9-0.2-2-0.6-3.2c-0.3-1.2-0.8-2.5-1.4-3.9c-0.7-1.3-1.6-2.8-2.7-4.1
		c-0.4-0.5-0.9-1.1-1.5-1.6c0.8-3.1-1-5.8-1-5.8c-3-0.2-4.9,0.9-5.6,1.5c-0.1,0-0.2-0.1-0.4-0.2c-0.5-0.2-1-0.4-1.6-0.6
		s-1.1-0.3-1.7-0.5c-0.6-0.1-1.1-0.2-1.7-0.3c-0.1,0-0.2,0-0.3,0C31.7,1.8,28,0,28,0c-4.2,2.7-5,6.4-5,6.4s0,0.1,0,0.2
		c-0.2,0.1-0.5,0.1-0.7,0.2c-0.3,0.1-0.6,0.2-1,0.3c-0.3,0.1-0.6,0.2-1,0.4c-0.6,0.3-1.3,0.6-1.9,0.9c-0.6,0.3-1.2,0.7-1.8,1.1
		c-0.1,0-0.1-0.1-0.1-0.1c-5.8-2.2-11,0.5-11,0.5C5,16.2,7.8,20.1,8.4,20.8c-0.1,0.4-0.3,0.8-0.4,1.2c-0.4,1.4-0.8,2.8-1,4.3
		C7,26.5,7,26.7,7,26.9C1.6,29.6,0,35,0,35c4.5,5.2,9.7,5.5,9.7,5.5c0,0,0,0,0,0c0.7,1.2,1.4,2.3,2.3,3.4c0.4,0.4,0.7,0.9,1.1,1.3
		c-1.6,4.7,0.2,8.6,0.2,8.6c5,0.2,8.3-2.2,9-2.7c0.5,0.2,1,0.3,1.5,0.5c1.5,0.4,3.1,0.6,4.7,0.7c0.4,0,0.8,0,1.2,0H30l0.1,0l0.2,0
		l0.2,0l0,0c2.4,3.4,6.5,3.8,6.5,3.8c2.9-3.1,3.1-6.2,3.1-6.9l0,0c0,0,0,0,0,0c0-0.1,0-0.1,0-0.1l0,0c0,0,0-0.1,0-0.1
		c0.6-0.4,1.2-0.9,1.8-1.4c1.2-1.1,2.2-2.3,3.1-3.6c0.1-0.1,0.2-0.2,0.2-0.4c3.3,0.2,5.7-2.1,5.7-2.1c-0.6-3.5-2.5-5.2-2.9-5.5l0,0
		c0,0,0,0,0,0c0,0,0,0,0,0l0,0c0,0,0,0-0.1,0c0-0.2,0-0.4,0-0.6c0-0.4,0-0.7,0-1.1v-0.3v-0.1v-0.1c0-0.1,0-0.1,0-0.1l0-0.2l0-0.3
		c0-0.1,0-0.2,0-0.3c0-0.1,0-0.2,0-0.3l0-0.3l0-0.3c-0.1-0.4-0.1-0.8-0.2-1.1c-0.3-1.5-0.9-2.9-1.7-4.2c-0.8-1.3-1.7-2.4-2.8-3.4
		c-1.1-1-2.3-1.7-3.6-2.3c-1.3-0.6-2.6-0.9-3.9-1.1c-0.7-0.1-1.3-0.1-2-0.1l-0.2,0h-0.1c0,0-0.1,0-0.1,0l-0.1,0l-0.2,0
		c-0.1,0-0.2,0-0.3,0c-0.3,0-0.7,0.1-1,0.1c-1.3,0.2-2.6,0.7-3.7,1.4c-1.1,0.7-2.1,1.5-2.8,2.4c-0.8,0.9-1.4,2-1.8,3
		c-0.4,1.1-0.6,2.2-0.7,3.2c0,0.3,0,0.5,0,0.8c0,0.1,0,0.1,0,0.2l0,0.2c0,0.1,0,0.3,0,0.4c0.1,0.5,0.2,1.1,0.3,1.6
		c0.3,1,0.8,1.9,1.3,2.7c0.6,0.8,1.3,1.4,2,1.9c0.7,0.5,1.5,0.9,2.3,1.1c0.8,0.2,1.5,0.3,2.3,0.3c0.1,0,0.2,0,0.3,0c0,0,0.1,0,0.1,0
		s0.1,0,0.1,0c0.1,0,0.2,0,0.2,0c0,0,0,0,0.1,0l0.1,0c0,0,0.1,0,0.1,0c0.1,0,0.2,0,0.3,0c0.1,0,0.2,0,0.3-0.1c0.2,0,0.3-0.1,0.5-0.1
		c0.3-0.1,0.6-0.2,0.9-0.4c0.3-0.1,0.5-0.3,0.8-0.5c0.1,0,0.1-0.1,0.2-0.2c0.3-0.2,0.3-0.6,0.1-0.8c-0.2-0.2-0.5-0.3-0.7-0.1
		c-0.1,0-0.1,0.1-0.2,0.1c-0.2,0.1-0.4,0.2-0.7,0.3c-0.2,0.1-0.5,0.1-0.7,0.2c-0.1,0-0.3,0-0.4,0c-0.1,0-0.1,0-0.2,0
		c-0.1,0-0.1,0-0.2,0s-0.1,0-0.2,0c-0.1,0-0.2,0-0.2,0c0,0,0,0,0,0h0l-0.1,0c0,0-0.1,0-0.1,0c-0.1,0-0.1,0-0.2,0
		c-0.6-0.1-1.1-0.2-1.7-0.5c-0.6-0.2-1.1-0.6-1.6-1c-0.5-0.4-0.9-0.9-1.2-1.5c-0.3-0.6-0.6-1.2-0.7-1.9c-0.1-0.3-0.1-0.7-0.1-1
		c0-0.1,0-0.2,0-0.3c0,0,0,0,0,0v0l0-0.1c0,0,0-0.1,0-0.1c0-0.2,0-0.4,0.1-0.6c0.3-1.5,1-2.9,2.2-4c0.3-0.3,0.6-0.5,0.9-0.8
		c0.3-0.2,0.7-0.4,1-0.6c0.4-0.2,0.7-0.3,1.1-0.4c0.4-0.1,0.8-0.2,1.2-0.2c0.2,0,0.4,0,0.6,0c0.1,0,0.1,0,0.1,0l0.2,0l0.1,0
		c0,0,0,0,0,0h0l0.2,0c0.4,0,0.9,0.1,1.3,0.2c0.9,0.2,1.7,0.5,2.5,0.9c1.6,0.9,2.9,2.2,3.7,3.9c0.4,0.8,0.7,1.7,0.8,2.6
		c0,0.2,0.1,0.5,0.1,0.7l0,0.2l0,0.2c0,0.1,0,0.1,0,0.2c0,0.1,0,0.1,0,0.2v0.2l0,0.2c0,0.1,0,0.3,0,0.4c0,0.3,0,0.5-0.1,0.8
		c0,0.2-0.1,0.5-0.1,0.7c0,0.2-0.1,0.5-0.2,0.7c-0.1,0.5-0.3,1-0.5,1.4c-0.4,0.9-0.9,1.8-1.5,2.6c-1.2,1.6-2.8,3-4.7,3.8
		c-0.9,0.4-1.9,0.7-2.9,0.9c-0.5,0.1-1,0.1-1.5,0.2l-0.1,0h-0.1h-0.2H30h-0.1c0.1,0,0,0,0,0h0c-0.3,0-0.5,0-0.8,0
		c-1.1-0.1-2.2-0.3-3.2-0.6c-1-0.3-2-0.7-3-1.2c-1.9-1-3.6-2.4-4.9-4.1c-0.7-0.8-1.3-1.7-1.7-2.7c-0.5-0.9-0.9-1.9-1.1-3
		c-0.3-1-0.5-2.1-0.5-3.1l0-0.2l0,0v0V30l0-0.2v0v-0.1v-0.1l0-0.2v0c0,0,0,0,0,0v-0.1c0-0.1,0-0.3,0-0.4c0-0.5,0.1-1,0.1-1.6
		c0.1-0.5,0.2-1.1,0.3-1.6s0.2-1.1,0.4-1.6c0.3-1,0.7-2,1.1-3c0.9-1.9,2-3.6,3.4-4.9c0.3-0.3,0.7-0.7,1.1-1c0.4-0.3,0.8-0.6,1.2-0.8
		c0.4-0.3,0.8-0.5,1.2-0.7c0.2-0.1,0.4-0.2,0.6-0.3c0.1,0,0.2-0.1,0.3-0.1c0.1,0,0.2-0.1,0.3-0.1c0.4-0.2,0.9-0.3,1.3-0.5
		c0.1,0,0.2-0.1,0.3-0.1c0.1,0,0.2-0.1,0.3-0.1c0.2-0.1,0.5-0.1,0.7-0.2c0.1,0,0.2-0.1,0.3-0.1c0.1,0,0.2,0,0.3-0.1
		c0.1,0,0.2,0,0.4-0.1l0.2,0l0.2,0c0.1,0,0.2,0,0.4-0.1c0.1,0,0.3,0,0.4-0.1c0.1,0,0.3,0,0.4,0c0.1,0,0.2,0,0.3,0l0.2,0l0.1,0l0.1,0
		c0.1,0,0.3,0,0.4,0l0.2,0c0,0,0.1,0,0,0h0l0.1,0c0.1,0,0.2,0,0.3,0c0.5,0,0.9,0,1.4,0c0.9,0,1.8,0.1,2.6,0.3
		c1.7,0.3,3.3,0.9,4.8,1.6c1.5,0.7,2.8,1.6,3.9,2.5c0.1,0.1,0.1,0.1,0.2,0.2c0.1,0.1,0.1,0.1,0.2,0.2c0.1,0.1,0.3,0.2,0.4,0.4
		c0.1,0.1,0.3,0.2,0.4,0.4c0.1,0.1,0.3,0.3,0.4,0.4c0.5,0.5,0.9,1,1.3,1.5c0.8,1,1.5,2.1,2,3.1c0,0.1,0.1,0.1,0.1,0.2
		c0,0.1,0.1,0.1,0.1,0.2c0.1,0.1,0.1,0.2,0.2,0.4c0.1,0.1,0.1,0.2,0.2,0.4c0.1,0.1,0.1,0.2,0.2,0.3c0.2,0.5,0.4,0.9,0.5,1.3
		c0.2,0.7,0.4,1.3,0.5,1.8c0.1,0.2,0.3,0.3,0.5,0.3c0.2,0,0.4-0.2,0.4-0.4C51.6,26.1,51.5,25.5,51.5,24.7z">
  </path>
 </g>
</svg>