<?xml version="1.0" encoding="utf-8"?>
<!-- Generator: Adobe Illustrator 21.0.0, SVG Export Plug-In . SVG Version: 6.00 Build 0)  -->
<svg version="1.1" id="Layer_1" xmlns="http://www.w3.org/2000/svg" xmlns:xlink="http://www.w3.org/1999/xlink" x="0px" y="0px"
	 viewBox="0 0 1200 1000" style="enable-background:new 0 0 1200 1000;" xml:space="preserve">
<style type="text/css">
	.st0{fill:#0255A3;}
	.st1{fill:#00726D;}
	.st2{fill:none;}
</style>
<g>
	<g>
		<g>
			<g>
				<g>
					<path class="st0" d="M398.3,427.2v29.4h0.5c0,0,0,0,0,0h143.5v-29.4H398.3z M398.4,446.3c0-0.1,0-0.3,0-0.5c0-0.3,0-0.6,0-0.9
						c0,0.3,0,0.6,0,0.9V446.3z"/>
				</g>
				<g>
					<path class="st1" d="M185,680v80.8h18.9V680H185z"/>
					<path class="st1" d="M279.1,680v54.1L230.6,680h-18.9v80.8h18.9v-54.4l48.6,54.4H298V680H279.1z"/>
					<path class="st1" d="M332.3,698.8h62.6V680h-62.6c-7.3,0-13.6,2.4-18.7,7.3c-5.1,4.9-7.7,11-7.7,18.3v29.6
						c0,7.3,2.6,13.4,7.7,18.3c5.1,4.9,11.4,7.3,18.7,7.3h62.6V711h-44.5v18.9H376v12.1h-43.7c-5,0-7.5-2.2-7.5-6.7v-29.6
						C324.7,701.1,327.2,698.8,332.3,698.8z"/>
					<polygon class="st1" points="488.8,760.8 488.8,741.9 421.6,741.9 421.6,729.8 484.6,729.8 484.6,711 402.7,711 402.7,760.8 
											"/>
					<rect x="402.7" y="680" class="st0" width="86.3" height="18.9"/>
					<path class="st1" d="M564.3,680v54.1L515.7,680h-18.9v80.8h18.9v-54.4l48.6,54.4h18.9V680H564.3z"/>
					<path class="st1" d="M591,680v80.8h18.9V680H591z"/>
					<path class="st1" d="M698.2,680v55.8c0,4.1-1.3,6.1-3.9,6.1h-53.6c-2.7,0-4.1-2-4.1-6.1V680h-18.9v55.8
						c0,6.8,2.1,12.7,6.4,17.6c4.2,4.9,9.8,7.4,16.6,7.4h53.5c6.7,0,12.2-2.5,16.5-7.4c4.3-4.9,6.5-10.8,6.5-17.6V680H698.2z"/>
					<path class="st1" d="M792.4,680v54.1L743.8,680h-18.9v80.8h18.9v-54.4l48.6,54.4h18.9V680H792.4z"/>
					<path class="st1" d="M900.1,687.3c-5.1-4.9-11.3-7.3-18.6-7.3h-62.4v18.9h62.5c4.8,0,7.3,2.3,7.3,6.7v29.6
						c0,4.5-2.4,6.7-7.3,6.7h-43.7v-32.1h-18.9v50.9h62.4c7.3,0,13.5-2.4,18.6-7.3c5.1-4.9,7.6-11,7.6-18.3v-29.6
						C907.7,698.2,905.2,692.1,900.1,687.3z"/>
					<path class="st1" d="M1008.4,687.4c-4.2-4.9-9.8-7.4-16.6-7.4h-53.4c-6.7,0-12.2,2.5-16.4,7.4c-4.3,4.9-6.4,10.8-6.4,17.6v55.8
						h18.9V705c0-4.1,1.3-6.1,3.9-6.1h53.4c2.7,0,4.1,2,4.1,6.1v11.3h-49.7v18.9h49.7v25.6h18.9v-55.8
						C1014.8,698.1,1012.7,692.3,1008.4,687.4z"/>
				</g>
			</g>
			<path class="st1" d="M542.4,320.2c3-1.6,6.1-3.2,9.2-4.6C546.2,318.1,543,319.9,542.4,320.2z"/>
			<path class="st1" d="M567.9,309.6c-5.6,1.7-10.4,3.6-14.3,5.2C558.2,312.8,563,311,567.9,309.6
				C567.9,309.5,567.9,309.6,567.9,309.6z"/>
			<path class="st1" d="M585.6,305.2L585.6,305.2c-4.6,0.9-8.8,1.9-12.8,3c0,0,0-0.1-0.1-0.1C576.9,306.9,581.2,306,585.6,305.2z"/>
			<path d="M738.5,386.3L738.5,386.3C738.4,386.3,738.4,386.3,738.5,386.3L738.5,386.3C738.5,386.3,738.5,386.3,738.5,386.3z
				 M722.7,359.7L722.7,359.7L722.7,359.7L722.7,359.7C722.7,359.7,722.7,359.7,722.7,359.7L722.7,359.7
				C722.8,359.7,722.8,359.7,722.7,359.7z M693.7,330.9c-0.7-0.5-1.4-1-2.1-1.5C692.3,329.9,693,330.4,693.7,330.9
				C693.7,330.9,693.8,331,693.7,330.9l0.1,0.1C693.8,331,693.8,330.9,693.7,330.9z M693.7,330.9c-0.7-0.5-1.4-1-2.1-1.5
				C692.3,329.9,693,330.4,693.7,330.9C693.7,330.9,693.8,331,693.7,330.9l0.1,0.1C693.8,331,693.8,330.9,693.7,330.9z M722.7,359.7
				L722.7,359.7L722.7,359.7L722.7,359.7C722.7,359.7,722.7,359.7,722.7,359.7L722.7,359.7C722.8,359.7,722.8,359.7,722.7,359.7z
				 M738.5,386.3L738.5,386.3C738.4,386.3,738.4,386.3,738.5,386.3L738.5,386.3C738.5,386.3,738.5,386.3,738.5,386.3z M738.5,386.3
				L738.5,386.3C738.4,386.3,738.4,386.3,738.5,386.3L738.5,386.3C738.5,386.3,738.5,386.3,738.5,386.3z M722.7,359.7L722.7,359.7
				L722.7,359.7L722.7,359.7C722.7,359.7,722.7,359.7,722.7,359.7L722.7,359.7C722.8,359.7,722.8,359.7,722.7,359.7z M693.7,330.9
				c-0.7-0.5-1.4-1-2.1-1.5C692.3,329.9,693,330.4,693.7,330.9C693.7,330.9,693.8,331,693.7,330.9l0.1,0.1
				C693.8,331,693.8,330.9,693.7,330.9z M738.5,386.3L738.5,386.3C738.4,386.3,738.4,386.3,738.5,386.3L738.5,386.3
				C738.5,386.3,738.5,386.3,738.5,386.3z M722.7,359.7L722.7,359.7L722.7,359.7L722.7,359.7C722.7,359.7,722.7,359.7,722.7,359.7
				L722.7,359.7C722.8,359.7,722.8,359.7,722.7,359.7z M693.7,330.9c-0.7-0.5-1.4-1-2.1-1.5C692.3,329.9,693,330.4,693.7,330.9
				C693.7,330.9,693.8,331,693.7,330.9l0.1,0.1C693.8,331,693.8,330.9,693.7,330.9z M738.5,386.3L738.5,386.3
				C738.4,386.3,738.4,386.3,738.5,386.3L738.5,386.3C738.5,386.3,738.5,386.3,738.5,386.3z M722.7,359.7L722.7,359.7L722.7,359.7
				L722.7,359.7C722.7,359.7,722.7,359.7,722.7,359.7L722.7,359.7C722.8,359.7,722.8,359.7,722.7,359.7z M693.7,330.9
				c-0.7-0.5-1.4-1-2.1-1.5C692.3,329.9,693,330.4,693.7,330.9C693.7,330.9,693.8,331,693.7,330.9l0.1,0.1
				C693.8,331,693.8,330.9,693.7,330.9z M738.5,386.3L738.5,386.3C738.4,386.3,738.4,386.3,738.5,386.3L738.5,386.3
				C738.5,386.3,738.5,386.3,738.5,386.3z M722.7,359.7L722.7,359.7L722.7,359.7L722.7,359.7C722.7,359.7,722.7,359.7,722.7,359.7
				L722.7,359.7C722.8,359.7,722.8,359.7,722.7,359.7z M693.7,330.9c-0.7-0.5-1.4-1-2.1-1.5C692.3,329.9,693,330.4,693.7,330.9
				C693.7,330.9,693.8,331,693.7,330.9l0.1,0.1C693.8,331,693.8,330.9,693.7,330.9z M738.5,386.3L738.5,386.3
				C738.4,386.3,738.4,386.3,738.5,386.3L738.5,386.3C738.5,386.3,738.5,386.3,738.5,386.3z M722.7,359.7L722.7,359.7L722.7,359.7
				L722.7,359.7C722.7,359.7,722.7,359.7,722.7,359.7L722.7,359.7C722.8,359.7,722.8,359.7,722.7,359.7z M693.7,330.9
				c-0.7-0.5-1.4-1-2.1-1.5C692.3,329.9,693,330.4,693.7,330.9C693.7,330.9,693.8,331,693.7,330.9l0.1,0.1
				C693.8,331,693.8,330.9,693.7,330.9z M738.5,386.3L738.5,386.3C738.4,386.3,738.4,386.3,738.5,386.3L738.5,386.3
				C738.5,386.3,738.5,386.3,738.5,386.3z M722.7,359.7L722.7,359.7L722.7,359.7L722.7,359.7C722.7,359.7,722.7,359.7,722.7,359.7
				L722.7,359.7C722.8,359.7,722.8,359.7,722.7,359.7z M693.7,330.9c-0.7-0.5-1.4-1-2.1-1.5C692.3,329.9,693,330.4,693.7,330.9
				C693.7,330.9,693.8,331,693.7,330.9l0.1,0.1C693.8,331,693.8,330.9,693.7,330.9z M693.7,330.9c-0.7-0.5-1.4-1-2.1-1.5
				C692.3,329.9,693,330.4,693.7,330.9C693.7,330.9,693.8,331,693.7,330.9l0.1,0.1C693.8,331,693.8,330.9,693.7,330.9z M722.7,359.7
				L722.7,359.7L722.7,359.7L722.7,359.7C722.7,359.7,722.7,359.7,722.7,359.7L722.7,359.7C722.8,359.7,722.8,359.7,722.7,359.7z
				 M738.5,386.3L738.5,386.3C738.4,386.3,738.4,386.3,738.5,386.3L738.5,386.3C738.5,386.3,738.5,386.3,738.5,386.3z M693.7,330.9
				c-0.7-0.5-1.4-1-2.1-1.5C692.3,329.9,693,330.4,693.7,330.9C693.7,330.9,693.8,331,693.7,330.9l0.1,0.1
				C693.8,331,693.8,330.9,693.7,330.9z M722.7,359.7L722.7,359.7L722.7,359.7L722.7,359.7C722.7,359.7,722.7,359.7,722.7,359.7
				L722.7,359.7C722.8,359.7,722.8,359.7,722.7,359.7z M738.5,386.3L738.5,386.3C738.4,386.3,738.4,386.3,738.5,386.3L738.5,386.3
				C738.5,386.3,738.5,386.3,738.5,386.3z M693.7,330.9c-0.7-0.5-1.4-1-2.1-1.5C692.3,329.9,693,330.4,693.7,330.9
				C693.7,330.9,693.8,331,693.7,330.9l0.1,0.1C693.8,331,693.8,330.9,693.7,330.9z M722.7,359.7L722.7,359.7L722.7,359.7
				L722.7,359.7C722.7,359.7,722.7,359.7,722.7,359.7L722.7,359.7C722.8,359.7,722.8,359.7,722.7,359.7z M738.5,386.3L738.5,386.3
				C738.4,386.3,738.4,386.3,738.5,386.3L738.5,386.3C738.5,386.3,738.5,386.3,738.5,386.3z M693.7,330.9c-0.7-0.5-1.4-1-2.1-1.5
				C692.3,329.9,693,330.4,693.7,330.9C693.7,330.9,693.8,331,693.7,330.9l0.1,0.1C693.8,331,693.8,330.9,693.7,330.9z M722.7,359.7
				L722.7,359.7L722.7,359.7L722.7,359.7C722.7,359.7,722.7,359.7,722.7,359.7L722.7,359.7C722.8,359.7,722.8,359.7,722.7,359.7z
				 M738.5,386.3L738.5,386.3C738.4,386.3,738.4,386.3,738.5,386.3L738.5,386.3C738.5,386.3,738.5,386.3,738.5,386.3z M693.7,330.9
				c-0.7-0.5-1.4-1-2.1-1.5C692.3,329.9,693,330.4,693.7,330.9C693.7,330.9,693.8,331,693.7,330.9l0.1,0.1
				C693.8,331,693.8,330.9,693.7,330.9z M722.7,359.7L722.7,359.7L722.7,359.7L722.7,359.7C722.7,359.7,722.7,359.7,722.7,359.7
				L722.7,359.7C722.8,359.7,722.8,359.7,722.7,359.7z M738.5,386.3L738.5,386.3C738.4,386.3,738.4,386.3,738.5,386.3L738.5,386.3
				C738.5,386.3,738.5,386.3,738.5,386.3z M693.7,330.9c-0.7-0.5-1.4-1-2.1-1.5C692.3,329.9,693,330.4,693.7,330.9
				C693.7,330.9,693.8,331,693.7,330.9l0.1,0.1C693.8,331,693.8,330.9,693.7,330.9z M722.7,359.7L722.7,359.7L722.7,359.7
				L722.7,359.7C722.7,359.7,722.7,359.7,722.7,359.7L722.7,359.7C722.8,359.7,722.8,359.7,722.7,359.7z M738.5,386.3L738.5,386.3
				C738.4,386.3,738.4,386.3,738.5,386.3L738.5,386.3C738.5,386.3,738.5,386.3,738.5,386.3z M738.5,386.3L738.5,386.3
				C738.4,386.3,738.4,386.3,738.5,386.3L738.5,386.3C738.5,386.3,738.5,386.3,738.5,386.3z M722.7,359.7L722.7,359.7L722.7,359.7
				L722.7,359.7C722.7,359.7,722.7,359.7,722.7,359.7L722.7,359.7C722.8,359.7,722.8,359.7,722.7,359.7z M693.7,330.9
				c-0.7-0.5-1.4-1-2.1-1.5C692.3,329.9,693,330.4,693.7,330.9C693.7,330.9,693.8,331,693.7,330.9l0.1,0.1
				C693.8,331,693.8,330.9,693.7,330.9z M738.5,386.3L738.5,386.3C738.4,386.3,738.4,386.3,738.5,386.3L738.5,386.3
				C738.5,386.3,738.5,386.3,738.5,386.3z M722.7,359.7L722.7,359.7L722.7,359.7L722.7,359.7C722.7,359.7,722.7,359.7,722.7,359.7
				L722.7,359.7C722.8,359.7,722.8,359.7,722.7,359.7z M693.7,330.9c-0.7-0.5-1.4-1-2.1-1.5C692.3,329.9,693,330.4,693.7,330.9
				C693.7,330.9,693.8,331,693.7,330.9l0.1,0.1C693.8,331,693.8,330.9,693.7,330.9z M693.7,330.9L693.7,330.9
				C693.7,330.9,693.8,331,693.7,330.9l0.1,0.1C693.8,331,693.8,330.9,693.7,330.9z M722.7,359.7L722.7,359.7L722.7,359.7
				L722.7,359.7C722.7,359.7,722.7,359.7,722.7,359.7L722.7,359.7C722.8,359.7,722.8,359.7,722.7,359.7z M738.5,386.3L738.5,386.3
				C738.4,386.3,738.4,386.3,738.5,386.3L738.5,386.3C738.5,386.3,738.5,386.3,738.5,386.3z"/>
			<path class="st1" d="M615.8,372.8c0.4,0.2,0.7,0.4,1,0.7C616.5,373.3,616.2,373,615.8,372.8z"/>
			<g>
				<path class="st2" d="M583.9,350.3c-4.1,0-7.5,3.4-7.5,7.5s3.4,7.5,7.5,7.5c3.5,0,6.4-2.3,7.2-5.5c0.2-0.6,0.3-1.3,0.3-1.9
					c0-1.2-0.3-2.4-0.9-3.4C589.3,351.9,586.8,350.3,583.9,350.3z"/>
				<path class="st2" d="M581.8,402.3c-0.8-0.9-2-1.4-3.3-1.4c-2.6,0-4.7,2.1-4.7,4.7c0,2.6,2.1,4.7,4.7,4.7c1.6,0,3.1-0.8,3.9-2.1
					c0.5-0.8,0.8-1.7,0.8-2.6c0-0.1,0-0.3,0-0.4C583.1,404,582.6,403,581.8,402.3z"/>
				<path class="st2" d="M645.1,432.8c-2.6,0-4.7,2.1-4.7,4.7c0,2.6,2.1,4.7,4.7,4.7c0.1,0,0.3,0,0.4,0c1.1-0.1,2.1-0.6,2.9-1.4
					s1.3-1.8,1.4-2.9c0-0.1,0-0.3,0-0.4C649.8,434.9,647.7,432.8,645.1,432.8z"/>
				<path class="st2" d="M604.2,320.7c-4.1,0-7.5,3.4-7.5,7.5c0,4.1,3.3,7.5,7.5,7.5c3.1,0,5.8-1.9,6.9-4.6c0.4-0.9,0.6-1.9,0.6-2.9
					c0-1.1-0.3-2.2-0.7-3.1C609.8,322.4,607.2,320.7,604.2,320.7z"/>
				<path class="st2" d="M620.2,419.7c-0.8-0.9-2.1-1.5-3.4-1.5c-2.6,0-4.7,2.1-4.7,4.7c0,2.6,2.1,4.7,4.7,4.7
					c1.5,0,2.9-0.8,3.8-1.9c0.6-0.8,0.9-1.8,0.9-2.8c0-0.1,0-0.1,0-0.2C621.4,421.5,621,420.5,620.2,419.7z"/>
				<path class="st2" d="M612.4,470.3l7.2,7l8.4,8.2l0.1,0.1l0,0l-20.7-20.1L612.4,470.3C612.4,470.3,612.4,470.3,612.4,470.3z"/>
				<path class="st2" d="M728.7,519.9C728.7,519.9,728.7,519.9,728.7,519.9c0.8-1.3,1.6-2.6,2.4-3.9c0.8-1.3,1.5-2.5,2.2-3.8
					c1-1.8,2-3.6,2.9-5.5C733.2,512.5,730.6,516.8,728.7,519.9L728.7,519.9z"/>
				<path class="st2" d="M609.3,375.7c-4.1,0-7.5,3.4-7.5,7.5c0,4.1,3.4,7.5,7.5,7.5c3,0,5.6-1.8,6.8-4.3c0.5-1,0.7-2,0.7-3.1
					c0-0.8-0.1-1.5-0.3-2.3C615.5,377.9,612.7,375.7,609.3,375.7z"/>
				<path class="st2" d="M570.1,461.3c-4.1,0-7.5,3.3-7.5,7.5c0,0.3,0,0.5,0,0.8c0,0.3,0.1,0.6,0.2,0.9c0,0.2,0.1,0.3,0.1,0.5
					c0,0,0,0.1,0,0.1c0,0.2,0.1,0.4,0.2,0.5c0,0.1,0,0.2,0.1,0.2c0.1,0.1,0.1,0.2,0.2,0.3c0,0.1,0.1,0.2,0.1,0.3
					c0.1,0.2,0.2,0.3,0.3,0.5c0.1,0.1,0.2,0.2,0.3,0.4c0,0.1,0.1,0.2,0.2,0.3c0.1,0.2,0.3,0.4,0.5,0.5c0.1,0.1,0.2,0.1,0.2,0.2
					c0.1,0.1,0.3,0.2,0.4,0.3c0.2,0.1,0.4,0.3,0.5,0.4c0.1,0.1,0.2,0.2,0.3,0.2c0.2,0.1,0.3,0.2,0.4,0.2c0.1,0.1,0.3,0.1,0.4,0.2
					c0,0,0.1,0,0.1,0.1c0.2,0.1,0.4,0.2,0.6,0.2c0.2,0.1,0.5,0.1,0.7,0.2c0.2,0,0.4,0.1,0.7,0.1c0,0,0.1,0,0.1,0c0.3,0,0.5,0,0.7,0
					c0.1,0,0.3,0,0.5,0c0,0,0.1,0,0.1,0c0.2,0,0.4,0,0.6-0.1c0,0,0.1,0,0.1,0c0.2,0,0.4-0.1,0.5-0.1c0.1,0,0.2,0,0.3-0.1
					c0.1,0,0.3-0.1,0.4-0.1c0.1,0,0.2-0.1,0.3-0.1c0.2-0.1,0.4-0.1,0.5-0.2c0.2-0.1,0.4-0.2,0.5-0.3c0.2-0.1,0.3-0.2,0.5-0.3
					c0.1-0.1,0.2-0.1,0.3-0.2c0.1-0.1,0.2-0.2,0.4-0.3c0,0,0.1,0,0.1-0.1c0.2-0.1,0.3-0.3,0.4-0.4c0,0,0,0,0.1,0
					c0.1-0.2,0.3-0.3,0.4-0.5c0.1-0.2,0.2-0.3,0.3-0.5c0.1-0.1,0.2-0.2,0.2-0.3c0.1-0.1,0.1-0.2,0.2-0.3c0.2-0.4,0.4-0.8,0.5-1.3
					c0-0.2,0.1-0.3,0.1-0.5c0.1-0.3,0.1-0.6,0.2-1c0-0.2,0-0.5,0-0.8C577.6,464.7,574.2,461.3,570.1,461.3z"/>
				<path class="st2" d="M673.9,459.9c-2.6,0-4.7,2.1-4.7,4.7c0,2.6,2.1,4.7,4.7,4.7c0,0,0,0,0,0c1.2,0,2.3-0.5,3.1-1.2
					c0.8-0.7,1.3-1.6,1.5-2.7v0c0.1-0.3,0.1-0.5,0.1-0.8C678.6,462,676.5,459.9,673.9,459.9z"/>
				<path class="st2" d="M581.8,435.6c-4.1,0-7.5,3.3-7.5,7.5c0,4.1,3.3,7.5,7.5,7.5c4.1,0,7.5-3.3,7.5-7.5
					C589.3,438.9,585.9,435.6,581.8,435.6z"/>
				<path class="st1" d="M783.6,386.3c0.1,0.3,0.2,0.6,0.2,0.8c0,0,0,0,0,0.1h0.1c-0.1-0.3-0.2-0.6-0.2-0.9H783.6z"/>
			</g>
			<path class="st0" d="M733.7,571.6l-6.3,5.3c-1.1,0.9-2,1.8-3.1,2.6l-3.3,2.5l-3.3,2.5l-1.6,1.2l-1.7,1.1l-6.8,4.5
				c-2.3,1.5-4.7,2.8-7,4.2c-1.2,0.7-2.3,1.4-3.5,2l-3.6,1.9l-3.6,1.8c-1.2,0.6-2.4,1.3-3.6,1.8l-7.4,3.3c-1.2,0.6-2.5,1-3.8,1.5
				l-3.8,1.4l-3.8,1.4c-1.3,0.4-2.5,0.8-3.8,1.2c-2.6,0.8-5.1,1.6-7.7,2.3l-7.8,1.9c-10.4,2.2-20.9,3.9-31.5,4.2l-3.9,0.2
				c-1.3,0-2.7,0-4,0l-7.9-0.1l-7.9-0.5c-1.3-0.1-2.6-0.3-3.9-0.4l-3.9-0.5c-10.4-1.3-20.7-3.5-30.7-6.6c-9.7-3-19-6.8-28-11.3
				c-0.3-0.1-0.6-0.3-0.9-0.4c-9.2-4.8-18-10.3-26.2-16.6c-0.3-0.2-0.6-0.5-0.9-0.7c0,0,0,0,0,0c-7.9-6-15.3-12.7-22-20
				c-7-7.5-13.3-15.7-19-24.3c-4.8-7.4-9.1-15.2-12.7-23.2h90.3h13.5v-13.7v-16.4v-3.7h-15.2h-131c0.6,2.7,1.2,5.4,1.8,8
				c1.3,5.4,2.9,10.7,4.7,16c1.1,3.3,2.3,6.6,3.7,9.9c1.1,2.7,2.2,5.4,3.5,8c1.8,3.9,3.7,7.8,5.8,11.6c-6,8.6-13,16.6-19.2,25.1
				c4.3,5.8,8.6,11.6,12.9,17.4c9.9-2.7,19.8-5.4,29.7-8.1c3.7,4.3,7.6,8.5,11.6,12.5c4.1,4.1,8.4,8,12.8,11.7
				c-2.4,9.3-5.7,18.5-8.5,27.7c6,4.4,12.3,8.5,18.8,12.2c7.7-5.8,15.1-12,23-17.5c4,2.2,8.1,4.2,12.2,6
				c10.8,4.9,22.1,8.6,33.5,11.4c11.4,2.8,23.1,4.5,34.8,5.2l3.2,0.1l1.2,0.1c1.5,0,2.9,0.2,4.4,0.1l0.9,0h0.3l5.7,0h0.2l1.7,0
				l1-0.1c0.1,0,0.1,0,0.2,0l7.5-0.5c0.7-0.1,1.5-0.1,2.2-0.1c0.1,0,0.1,0,0.2,0c0,0,0.1,0,0.2,0c0.6,0,1.2-0.1,1.8-0.2l0.7-0.1
				c0,0,0.1,0,0.2,0l3.5-0.5c11.6-1.3,22.9-4,34-7.4l8.2-2.8h0c2.7-1,5.3-2.2,8-3.2c1.3-0.5,2.7-1.1,4-1.7l3.9-1.9l3.9-1.9
				c1.3-0.6,2.6-1.2,3.8-2l7.5-4.3c1.3-0.7,2.4-1.5,3.7-2.3l3.6-2.3l3.6-2.3c1.2-0.8,2.3-1.7,3.5-2.5c2.3-1.7,4.6-3.4,6.8-5.2
				c8.8-7.1,17-15.1,24.4-23.6c3.5-4.4,7.1-8.7,10.3-13.4c3.4-4.5,6.1-9.4,9.1-14.1C749.3,556.1,741.8,564.3,733.7,571.6z"/>
		</g>
		<path class="st0" d="M788.8,430.2l0-4.2c0-2.8-0.2-5.6-0.4-8.4c0-0.6-0.1-1.3-0.1-1.9c0-0.8-0.1-1.5-0.2-2.3l-0.5-4.2
			c-0.9-7.3-2.1-14.7-3.9-21.9c0,0,0,0,0-0.1c-0.1-0.3-0.1-0.5-0.2-0.8c0,0,0,0,0-0.1c-0.2-0.7-0.4-1.5-0.5-2.2
			c-0.3-1-0.5-2.1-0.8-3.1c-0.2-0.9-0.5-1.7-0.7-2.6c-0.2-0.8-0.5-1.6-0.7-2.4c-4.6-16.9-11.1-31.8-18.9-44.7
			c-4.3-7.2-9-13.8-14-19.9C737,298.2,725,287.5,713,278.9c-6.8-4.9-13.6-9.1-20.2-12.8c-18.4-10.2-34.8-15.7-44.2-18.4
			c-0.1,0.1-0.1,0.1-0.2,0.2c-7.8-2.4-15.6-4.2-23.2-5.4c-17.6-2.7-34.4-2.4-49.4-0.6c-7.9,1-15.2,2.3-22,3.9
			c-27,6.3-44.5,16-44.5,16c-6.8,4.4-13.7,8.5-20.7,12.5c-11.1-7.4-22.7-14.1-33.8-21.4c-5.7,4.6-11.3,9.4-16.8,14.2
			c4.7,12.7,9.6,25.4,14.2,38.2c-4.3,4.6-8.4,9.4-12.3,14.4c-1.2,1.5-2.3,3-3.4,4.6c-12.6-2.7-25.4-4.8-38-7.4
			c-3.5,6.2-7,12.5-10.4,18.7c8.5,9.8,17.2,19.4,25.6,29.3c-0.6,1.5-1.3,3-1.8,4.5c-1.8,4.6-3.5,9.3-4.9,14
			c-0.7,2.2-1.3,4.4-1.9,6.7c-1.2,4.4-2.2,8.8-3,13.2h146.6v-33.9h-103c5.1-10.9,11.4-21.3,18.7-31c6.1-8.1,12.9-15.8,20.4-22.8
			c7.5-7,15.6-13.2,24.1-18.8c17.1-11.2,36.3-19.3,56.3-24c10-2.3,20.3-3.7,30.6-4.2c10.3-0.6,20.7-0.3,31,0.9
			c10.3,1.3,20.5,3.4,30.5,6.4c10,3,19.7,7,29.1,11.6c2.3,1.2,4.7,2.4,7,3.7l6.8,4l6.6,4.3c2.2,1.5,4.3,3.1,6.4,4.6
			c8.1,6,15.6,12.7,22.6,20c0,0,0,0,0,0.1h0c0.2,0.2,0.4,0.4,0.6,0.7c0.2,0.2,0.3,0.3,0.5,0.5c1.7,1.8,3.4,3.6,5,5.5
			c1.3,1.5,2.5,2.9,3.8,4.4c0.2,0.2,0.3,0.4,0.4,0.5c3.5,4.3,6.8,8.8,10,13.4c0.3,0.4,0.5,0.8,0.8,1.2c0.8,1.2,1.6,2.4,2.4,3.7
			c1.2,1.8,2.3,3.6,3.3,5.4c0,0,0,0,0,0c0.5,0.8,1,1.6,1.4,2.4c0.2,0.3,0.3,0.6,0.5,0.8c1.7,3,3.3,6.1,4.8,9.3
			c0.9,1.8,1.7,3.6,2.5,5.5c0.2,0.4,0.4,0.9,0.6,1.3c0.3,0.7,0.6,1.3,0.8,2c0.2,0.5,0.4,1,0.6,1.5c0.5,1.3,1,2.5,1.5,3.8
			c0.1,0.2,0.2,0.5,0.3,0.7c0.1,0.2,0.1,0.3,0.2,0.5c3.5,9.1,6.3,18.6,8.3,28.3c1.9,8.9,3.3,17.9,4,27l0.4-8.3
			C788.9,433,788.8,431.6,788.8,430.2z"/>
	</g>
	<path class="st2" d="M583.9,350.3c-4.1,0-7.5,3.4-7.5,7.5s3.4,7.5,7.5,7.5c3.5,0,6.4-2.3,7.2-5.5c0.2-0.6,0.3-1.3,0.3-1.9
		c0-1.2-0.3-2.4-0.9-3.4C589.3,351.9,586.8,350.3,583.9,350.3z"/>
	<path class="st2" d="M609.3,375.7c-4.1,0-7.5,3.4-7.5,7.5c0,4.1,3.4,7.5,7.5,7.5c3,0,5.6-1.8,6.8-4.3c0.5-1,0.7-2,0.7-3.1
		c0-0.8-0.1-1.5-0.3-2.3C615.5,377.9,612.7,375.7,609.3,375.7z"/>
	<path class="st2" d="M581.8,402.3c-0.8-0.9-2-1.4-3.3-1.4c-2.6,0-4.7,2.1-4.7,4.7c0,2.6,2.1,4.7,4.7,4.7c1.6,0,3.1-0.8,3.9-2.1
		c0.5-0.8,0.8-1.7,0.8-2.6c0-0.1,0-0.3,0-0.4C583.1,404,582.6,403,581.8,402.3z"/>
	<polygon class="st2" points="652.7,560.2 652.7,560.2 652.7,560.2 	"/>
	<path class="st2" d="M620.2,419.7c-0.8-0.9-2.1-1.5-3.4-1.5c-2.6,0-4.7,2.1-4.7,4.7c0,2.6,2.1,4.7,4.7,4.7c1.5,0,2.9-0.8,3.8-1.9
		c0.6-0.8,0.9-1.8,0.9-2.8c0-0.1,0-0.1,0-0.2C621.4,421.5,621,420.5,620.2,419.7z"/>
	<path class="st2" d="M604.2,320.7c-4.1,0-7.5,3.4-7.5,7.5c0,4.1,3.3,7.5,7.5,7.5c3.1,0,5.8-1.9,6.9-4.6c0.4-0.9,0.6-1.9,0.6-2.9
		c0-1.1-0.3-2.2-0.7-3.1C609.8,322.4,607.2,320.7,604.2,320.7z"/>
	<path class="st2" d="M563.7,486.6c-4.1,0-7.5,3.4-7.5,7.5c0,4.1,3.4,7.5,7.5,7.5c4.1,0,7.5-3.4,7.5-7.5
		C571.2,490,567.9,486.6,563.7,486.6z"/>
	<path class="st2" d="M645.1,432.8c-2.6,0-4.7,2.1-4.7,4.7c0,2.6,2.1,4.7,4.7,4.7c0.1,0,0.3,0,0.4,0c1.1-0.1,2.1-0.6,2.9-1.4
		s1.3-1.8,1.4-2.9c0-0.1,0-0.3,0-0.4C649.8,434.9,647.7,432.8,645.1,432.8z"/>
	<path class="st2" d="M570.1,461.3c-4.1,0-7.5,3.3-7.5,7.5c0,0.3,0,0.5,0,0.8c0,0.3,0.1,0.6,0.2,0.9c0,0.2,0.1,0.3,0.1,0.5
		c0,0,0,0.1,0,0.1c0,0.2,0.1,0.4,0.2,0.5c0,0.1,0,0.2,0.1,0.2c0.1,0.1,0.1,0.2,0.2,0.3c0,0.1,0.1,0.2,0.1,0.3
		c0.1,0.2,0.2,0.3,0.3,0.5c0.1,0.1,0.2,0.2,0.3,0.4c0,0.1,0.1,0.2,0.2,0.3c0.1,0.2,0.3,0.4,0.5,0.5c0.1,0.1,0.2,0.1,0.2,0.2
		c0.1,0.1,0.3,0.2,0.4,0.3c0.2,0.1,0.4,0.3,0.5,0.4c0.1,0.1,0.2,0.2,0.3,0.2c0.2,0.1,0.3,0.2,0.4,0.2c0.1,0.1,0.3,0.1,0.4,0.2
		c0,0,0.1,0,0.1,0.1c0.2,0.1,0.4,0.2,0.6,0.2c0.2,0.1,0.5,0.1,0.7,0.2c0.2,0,0.4,0.1,0.7,0.1c0,0,0.1,0,0.1,0c0.3,0,0.5,0,0.7,0
		c0.1,0,0.3,0,0.5,0c0,0,0.1,0,0.1,0c0.2,0,0.4,0,0.6-0.1c0,0,0.1,0,0.1,0c0.2,0,0.4-0.1,0.5-0.1c0.1,0,0.2,0,0.3-0.1
		c0.1,0,0.3-0.1,0.4-0.1c0.1,0,0.2-0.1,0.3-0.1c0.2-0.1,0.4-0.1,0.5-0.2c0.2-0.1,0.4-0.2,0.5-0.3c0.2-0.1,0.3-0.2,0.5-0.3
		c0.1-0.1,0.2-0.1,0.3-0.2c0.1-0.1,0.2-0.2,0.4-0.3c0,0,0.1,0,0.1-0.1c0.2-0.1,0.3-0.3,0.4-0.4c0,0,0,0,0.1,0
		c0.1-0.2,0.3-0.3,0.4-0.5c0.1-0.2,0.2-0.3,0.3-0.5c0.1-0.1,0.2-0.2,0.2-0.3c0.1-0.1,0.1-0.2,0.2-0.3c0.2-0.4,0.4-0.8,0.5-1.3
		c0-0.2,0.1-0.3,0.1-0.5c0.1-0.3,0.1-0.6,0.2-1c0-0.2,0-0.5,0-0.8C577.6,464.7,574.2,461.3,570.1,461.3z"/>
	<path class="st2" d="M673.9,459.9c-2.6,0-4.7,2.1-4.7,4.7c0,2.6,2.1,4.7,4.7,4.7c0,0,0,0,0,0c1.2,0,2.3-0.5,3.1-1.2
		c0.8-0.7,1.3-1.6,1.5-2.7v0c0.1-0.3,0.1-0.5,0.1-0.8C678.6,462,676.5,459.9,673.9,459.9z"/>
	<path class="st2" d="M581.8,435.6c-4.1,0-7.5,3.3-7.5,7.5c0,4.1,3.3,7.5,7.5,7.5c4.1,0,7.5-3.3,7.5-7.5
		C589.3,438.9,585.9,435.6,581.8,435.6z"/>
	<path class="st1" d="M773.4,415.7c-1.7-9.6-4.1-18.9-7.4-27.9h0.1c-0.2-0.5-0.4-1-0.5-1.5h-0.1c0,0,0,0,0-0.1
		c-0.7-1.8-1.4-3.6-2.1-5.3c-0.5-1.3-1.1-2.6-1.7-4c-2.1-4.7-4.4-9.4-7-13.9c-0.1-0.2-0.2-0.3-0.3-0.5h0.1c-0.5-1-1.1-1.9-1.7-2.9
		h-0.1c0,0,0,0,0-0.1c0,0,0,0,0,0c-1.1-1.8-2.2-3.6-3.3-5.4h0.1c-1.2-1.9-2.5-3.8-3.8-5.6l-0.1,0c0,0,0-0.1,0-0.1
		c-2.9-4-5.9-8-9.1-11.7c-0.1-0.2-0.3-0.3-0.4-0.5c-1.6-1.9-3.2-3.7-4.9-5.4c-1.9-2.1-3.9-4.1-5.9-6c-0.3-0.3-0.5-0.5-0.8-0.8
		c0,0-0.1-0.1-0.1-0.1c-29.8-28.4-70.1-45.9-114.4-45.9c-62.6,0-117.1,34.8-145.4,86.1H494c18.4-26.6,45.7-46.7,77.6-55.7
		c12.2-3.5,25.1-5.3,38.5-5.3c13.2,0,26,1.8,38.1,5.3c0,0,0,0,0.1,0l0.1,0.1c1.9,0.5,3.7,1.1,5.6,1.7l-0.1-0.1
		c5.3,1.7,10.4,3.8,15.4,6.1c0.1,0,0.2,0.1,0.3,0.1c0.5,0.3,1.1,0.5,1.6,0.8c0,0,0,0,0,0c0,0,0.1,0,0.1,0.1l0,0l0,0
		c4,1.9,7.9,4,11.8,6.4c0.1,0,0.1,0.1,0.2,0.1c0.6,0.3,1.2,0.7,1.7,1.1c0,0,0.1,0,0.1,0.1h-68.9c-1.4-5.2-6.2-9.1-11.9-9.1
		c-6.8,0-12.3,5.5-12.3,12.3c0,6.8,5.5,12.3,12.3,12.3c5.8,0,10.7-4,11.9-9.4h77.6c3.2,2.4,6.3,4.9,9.3,7.5c0,0,0.1,0,0.1,0.1
		c0.4,0.3,0.8,0.7,1.1,1c0.1,0,0.1,0.1,0.2,0.2h0c2.2,2,4.4,4.1,6.5,6.3c0,0,0,0.1,0.1,0.1c2.5,2.6,4.9,5.3,7.3,8.1c0,0,0,0,0.1,0.1
		H595.7c-1.5-5.1-6.2-8.8-11.8-8.8c-6.8,0-12.3,5.5-12.3,12.3c0,6.8,5.5,12.3,12.3,12.3c6.1,0,11.2-4.5,12.1-10.3h126.7h0.1
		c0,0,0,0,0,0.1h-0.1c1,1.3,1.9,2.6,2.8,3.9c0,0,0,0.1,0.1,0.1s0,0,0.1,0.1h0.1c2.5,3.6,4.9,7.3,7,11.2c1.1,2,2.2,3.9,3.2,5.9H621.4
		c-0.4-1.8-1.1-3.5-2.1-4.9c-0.8-1-1.6-1.9-2.5-2.5c-0.3-0.3-0.7-0.5-1-0.7c-0.2-0.1-0.3-0.2-0.5-0.3c-0.2-0.1-0.5-0.3-0.7-0.4
		c-0.1,0-0.2-0.1-0.3-0.2c-0.4-0.2-0.8-0.3-1.1-0.4c-0.2,0-0.3-0.1-0.5-0.1c-1.9-0.6-3.3-0.5-3.3-0.5c-3.4,0-6.5,1.4-8.7,3.6
		c-2.2,2.2-3.6,5.3-3.6,8.7c0,6.8,5.5,12.3,12.3,12.3c5.7,0,10.5-3.9,11.8-9.1h117.3c0.3,0.7,0.6,1.5,1,2.2c1.1,2.6,2.2,5.2,3.1,7.9
		H639.9l-23.5,5.7h-28.9c-1.4-3.7-4.9-6.3-9.1-6.3c-5.4,0-9.7,4.3-9.7,9.7c0,5.3,4.3,9.7,9.7,9.7c4.5,0,8.2-3,9.3-7.1h29.4l23.5-5.7
		h103.9c1,3.4,2,6.8,2.8,10.2h-84.6l-16.7,7H626c-1.3-3.8-4.9-6.5-9.2-6.5c-5.3,0-9.7,4.3-9.7,9.7c0,5.4,4.4,9.7,9.7,9.7
		c4.4,0,8.1-2.9,9.3-6.9h21.1l16.7-7h84.7c1.5,8.3,2.3,16.8,2.3,25.5v1H657l-3.3-3.3c0.7-1.3,1.1-2.8,1.1-4.4c0-5.4-4.4-9.7-9.7-9.7
		c-5.4,0-9.7,4.3-9.7,9.7c0,5.4,4.4,9.7,9.7,9.7c1.6,0,3.1-0.4,4.4-1.1l5,5h96.1c-0.4,8.1-1.5,16.1-3.2,23.8h-59l-6-5.8
		c0.7-1.4,1.2-2.9,1.2-4.6c0-5.4-4.4-9.7-9.7-9.7c-5.4,0-9.7,4.3-9.7,9.7c0,5.4,4.4,9.7,9.7,9.7c1.5,0,2.9-0.3,4.2-1l8,7.7H746
		c-1.7,6.2-3.7,12.1-6.2,17.9c-0.1,0.3-0.3,0.6-0.4,0.9c0,0,0,0,0,0.1h-57.6l-62.3-60.4h-26c-1.5-5-6.2-8.7-11.7-8.7
		c-6.8,0-12.3,5.5-12.3,12.3c0,6.8,5.5,12.3,12.3,12.3c5.6,0,10.4-3.8,11.8-9h23.1l62.3,60.5h57.2c-0.9,1.8-1.9,3.7-2.9,5.5
		c-0.7,1.3-1.4,2.6-2.2,3.8c-0.8,1.3-1.5,2.5-2.3,3.8c0,0,0,0,0,0.1h0c-2.5,4.1-4,6-4,6h-0.1h-55l-41.5-40.3l0,0l-0.1-0.1l-8.4-8.2
		l-7.2-7c0,0,0,0,0,0l-5-4.9H582c-1.5-5.2-6.2-9-11.8-9c-6.8,0-12.3,5.5-12.3,12.3c0,1.7,0.4,3.3,1,4.8c1.9,4.4,6.2,7.5,11.3,7.5
		c0.1,0,0.3,0,0.5,0c5.3-0.2,9.8-3.8,11.3-8.7h22.8l62.2,60.4h52.5c-2.2,2.7-4.5,5.4-6.9,7.9c-0.8,0.9-1.7,1.8-2.6,2.6
		c-0.8,0.8-1.5,1.5-2.3,2.3c-0.4,0.3-0.7,0.7-1.1,1l0,0l-0.2,0.2c-0.1,0.1-0.2,0.2-0.3,0.2c0,0-0.1,0.1-0.1,0.1h0l-5.4,4.8
		c-0.5,0.5-1.1,0.9-1.6,1.4h-43.4l-45.5-46.6l-1.2-1.2l-0.3-0.3L595,491.3l-18.6-0.7l-1,0c-1.5-5.1-6.2-8.8-11.8-8.8
		c-3.6,0-6.8,1.6-9.1,4c-1,1.1-1.8,2.3-2.3,3.7c-0.5,1.4-0.8,2.9-0.8,4.5c0,1.3,0.2,2.5,0.5,3.6c0.5,1.7,1.4,3.3,2.6,4.6
		c0.1,0.1,0.1,0.1,0.2,0.2c2.2,2.4,5.4,3.9,8.9,3.9c3.5,0,6.7-1.5,8.9-3.9c1.3-1.4,2.3-3.1,2.9-5l1,0l15.6,0.6l59.6,62.1h1.1l0,0
		l0,0h37.1c-2.3,1.6-4.7,3.1-7.1,4.6c-1.8,1.1-3.7,2.2-5.6,3.2v0c-1,0.5-1.9,1-2.9,1.5c-1.9,1-3.8,1.9-5.8,2.8c-1,0.5-2,0.9-3,1.3
		c-17,7.3-35.7,11.4-55.4,11.4c-49.3,0-92.8-25.5-118-64h-29c27.8,52.8,83.2,89,147,89c45,0,86-18,115.9-47.3c0,0,0.1-0.1,0.1-0.1
		c0.8-0.8,1.6-1.6,2.4-2.4c0,0,0.1,0,0.1-0.1c2.2-2.2,4.3-4.5,6.4-6.9c0.4-0.5,0.8-1,1.3-1.4c1.3-1.5,2.6-3.1,3.9-4.7
		c0,0,0,0,0.1-0.1c0.4-0.6,0.9-1.1,1.3-1.7c0,0,0,0,0-0.1c1.7-2.2,3.4-4.5,5-6.9l4.1-6.2c1.3-2.1,2.6-4.2,3.8-6.3c0,0,0,0,0.1-0.1
		c0.2-0.4,0.4-0.8,0.6-1.1c0,0,0,0,0-0.1c0.9-1.5,1.7-3.1,2.5-4.7c0,0,0,0,0-0.1c0.4-0.7,0.8-1.5,1.1-2.2c0,0,0,0,0-0.1
		c1.2-2.3,2.3-4.7,3.3-7.1c0,0,0-0.1,0-0.1c0.5-1.2,1-2.4,1.5-3.6c0,0,0,0,0-0.1c0.9-2.2,1.8-4.5,2.6-6.8h0.2
		c0.1-0.2,0.1-0.3,0.2-0.5h-0.2c0,0,0,0,0-0.1c2.1-6,3.9-12.1,5.3-18.4c0.2-1,0.4-2,0.7-3c0.2-1,0.4-2,0.6-3
		c1.5-7.8,2.4-15.7,2.7-23.8c0-1,0.1-2,0.1-3c0-1,0-2,0-3v-1C775.9,434.5,775,424.9,773.4,415.7z M611.2,331
		c-1.1,2.7-3.8,4.6-6.9,4.6c-4.1,0-7.5-3.4-7.5-7.5c0-4.1,3.3-7.5,7.5-7.5c3,0,5.6,1.8,6.8,4.3c0.4,1,0.7,2,0.7,3.1
		C611.7,329.1,611.5,330.1,611.2,331z M591.1,359.7c-0.9,3.2-3.8,5.5-7.2,5.5c-4.1,0-7.5-3.4-7.5-7.5s3.4-7.5,7.5-7.5
		c2.9,0,5.4,1.7,6.6,4c0.5,1,0.9,2.2,0.9,3.4C591.4,358.4,591.3,359.1,591.1,359.7z M616.1,386.3c-1.2,2.5-3.8,4.3-6.8,4.3
		c-4.1,0-7.5-3.4-7.5-7.5c0-4.1,3.4-7.5,7.5-7.5c3.3,0,6.2,2.2,7.1,5.2c0.2,0.7,0.3,1.5,0.3,2.3
		C616.8,384.3,616.5,385.4,616.1,386.3z M582.4,408.2c-0.8,1.3-2.3,2.1-3.9,2.1c-2.6,0-4.7-2.1-4.7-4.7c0-2.6,2.1-4.7,4.7-4.7
		c1.3,0,2.5,0.5,3.3,1.4c0.8,0.8,1.3,1.8,1.3,2.9c0,0.1,0,0.3,0,0.4C583.2,406.5,582.9,407.4,582.4,408.2z M620.6,425.7
		c-0.9,1.2-2.2,1.9-3.8,1.9c-2.6,0-4.7-2.1-4.7-4.7c0-2.6,2.1-4.7,4.7-4.7c1.4,0,2.6,0.6,3.4,1.5c0.8,0.8,1.2,1.8,1.3,3
		c0,0.1,0,0.1,0,0.2C621.5,423.9,621.2,424.9,620.6,425.7z M649.8,437.9c-0.1,1.1-0.6,2.1-1.4,2.9s-1.8,1.3-2.9,1.4
		c-0.1,0-0.3,0-0.4,0c-2.6,0-4.7-2.1-4.7-4.7c0-2.6,2.1-4.7,4.7-4.7c2.6,0,4.7,2.1,4.7,4.7C649.8,437.7,649.8,437.8,649.8,437.9z
		 M678.6,465.4L678.6,465.4c-0.2,1.1-0.7,2-1.5,2.7c-0.8,0.7-1.9,1.2-3.1,1.2c0,0,0,0,0,0c-2.6,0-4.7-2.1-4.7-4.7
		c0-2.6,2.1-4.7,4.7-4.7c2.6,0,4.7,2.1,4.7,4.7C678.6,464.8,678.6,465.1,678.6,465.4z M581.8,450.5c-4.1,0-7.5-3.3-7.5-7.5
		c0-4.1,3.3-7.5,7.5-7.5c4.1,0,7.5,3.3,7.5,7.5C589.3,447.2,585.9,450.5,581.8,450.5z M577.6,469.5c0,0.3-0.1,0.7-0.2,1
		c0,0.2-0.1,0.3-0.1,0.5c-0.1,0.4-0.3,0.9-0.5,1.3c0,0.1-0.1,0.2-0.2,0.3c-0.1,0.1-0.2,0.2-0.2,0.3c-0.1,0.2-0.2,0.3-0.3,0.5
		c-0.1,0.2-0.3,0.3-0.4,0.5c0,0,0,0-0.1,0c-0.1,0.1-0.3,0.3-0.4,0.4c0,0,0,0-0.1,0.1c-0.1,0.1-0.2,0.2-0.4,0.3
		c-0.1,0.1-0.2,0.2-0.3,0.2c-0.1,0.1-0.3,0.2-0.5,0.3c-0.2,0.1-0.4,0.2-0.5,0.3c-0.2,0.1-0.4,0.2-0.5,0.2c-0.1,0-0.2,0.1-0.3,0.1
		c-0.1,0-0.2,0.1-0.4,0.1c-0.1,0-0.2,0.1-0.3,0.1c-0.2,0-0.4,0.1-0.5,0.1c0,0-0.1,0-0.1,0c-0.2,0-0.4,0-0.6,0.1c0,0-0.1,0-0.1,0
		c-0.1,0-0.3,0-0.5,0c-0.2,0-0.5,0-0.7,0c-0.1,0-0.1,0-0.1,0c-0.2,0-0.4,0-0.7-0.1c-0.2,0-0.5-0.1-0.7-0.2c-0.2-0.1-0.4-0.1-0.6-0.2
		c0,0-0.1,0-0.1-0.1c-0.1,0-0.3-0.1-0.4-0.2c-0.1-0.1-0.3-0.2-0.4-0.2c-0.1-0.1-0.2-0.1-0.3-0.2c-0.2-0.1-0.4-0.2-0.5-0.4
		c-0.1-0.1-0.3-0.2-0.4-0.3c-0.1-0.1-0.1-0.1-0.2-0.2c-0.1-0.2-0.3-0.3-0.5-0.5c-0.1-0.1-0.2-0.2-0.2-0.3c-0.1-0.1-0.2-0.2-0.3-0.4
		c-0.1-0.2-0.2-0.3-0.3-0.5c-0.1-0.1-0.1-0.2-0.1-0.3c-0.1-0.1-0.1-0.2-0.2-0.3c0-0.1-0.1-0.2-0.1-0.2c-0.1-0.2-0.1-0.3-0.2-0.5
		c0,0,0-0.1,0-0.1c-0.1-0.2-0.1-0.3-0.1-0.5c-0.1-0.3-0.1-0.6-0.2-0.9c0-0.2,0-0.5,0-0.8c0-4.1,3.4-7.5,7.5-7.5
		c4.1,0,7.5,3.3,7.5,7.5C577.6,469,577.6,469.3,577.6,469.5z M563.7,501.6c-4.1,0-7.5-3.4-7.5-7.5c0-4.1,3.4-7.5,7.5-7.5
		c4.1,0,7.5,3.4,7.5,7.5C571.2,498.3,567.9,501.6,563.7,501.6z"/>
</g>
</svg>
