<?xml version="1.0" encoding="UTF-8"?>
<svg xmlns="http://www.w3.org/2000/svg" xmlns:xlink="http://www.w3.org/1999/xlink" version="1.1" id="Layer_1" x="0px" y="0px" viewBox="0 0 288 72" style="enable-background:new 0 0 288 72;" xml:space="preserve">
<style type="text/css">
	.st0{fill:#2B161C;}
	.st1{fill:#631332;}
	.st2{fill:#711626;}
	.st3{fill:#881728;}
	.st4{fill:#A21D2F;}
	.st5{fill:#D12129;}
	.st6{fill:#E92529;}
	.st7{fill:#020202;}
	.st8{fill:#57182D;}
</style>
<g>
	<polygon class="st0" points="12.18,40.13 12.18,9.3 8.64,9.3 8.64,43.38 27.89,43.38 27.89,40.13  "></polygon>
	<rect x="34.81" y="9.3" class="st0" width="3.54" height="34.08"></rect>
	<polygon class="st1" points="110.94,9.3 110.94,24.14 92.5,24.14 92.5,9.3 88.96,9.3 88.96,43.38 92.5,43.38 92.5,27.39    110.94,27.39 110.94,43.38 114.48,43.38 114.48,9.3  "></polygon>
	<polygon class="st2" points="121.64,9.3 121.64,12.55 133.15,12.55 133.15,43.38 136.69,43.38 136.69,12.55 148.21,12.55    148.21,9.3  "></polygon>
	<path class="st3" d="M177.24,30.46c-0.37-1-0.91-1.88-1.59-2.61c-0.68-0.73-1.5-1.32-2.44-1.76c-0.7-0.33-1.47-0.56-2.29-0.7   c1.65-0.47,2.93-1.27,3.84-2.4c1.04-1.3,1.57-2.85,1.57-4.6c0-1.93-0.34-3.5-1-4.69c-0.66-1.18-1.53-2.12-2.59-2.78   c-1.05-0.66-2.25-1.1-3.57-1.31c-1.31-0.21-2.61-0.31-3.88-0.31h-9.91v34.08h10.95c1.15,0,2.4-0.13,3.73-0.38   c1.33-0.26,2.59-0.75,3.73-1.45c1.15-0.71,2.11-1.7,2.87-2.94c0.76-1.25,1.15-2.88,1.15-4.84   C177.8,32.57,177.61,31.46,177.24,30.46z M158.91,27.11h7.46c0.96,0,1.93,0.13,2.88,0.37c0.94,0.25,1.79,0.64,2.53,1.18   c0.73,0.53,1.34,1.24,1.8,2.1c0.46,0.86,0.69,1.9,0.69,3.09c0,0.58-0.1,1.24-0.3,1.97c-0.2,0.71-0.59,1.4-1.17,2.04   c-0.58,0.64-1.42,1.18-2.52,1.61c-1.1,0.43-2.57,0.65-4.38,0.65h-6.98V27.11z M172.51,20.12c-0.18,0.61-0.55,1.2-1.09,1.75   c-0.55,0.55-1.33,1.02-2.31,1.41c-0.99,0.39-2.29,0.58-3.88,0.58h-6.32v-11.3h6.75c0.96,0,1.89,0.09,2.77,0.28   c0.86,0.18,1.62,0.5,2.26,0.94c0.63,0.44,1.15,1.04,1.53,1.78c0.38,0.75,0.57,1.7,0.57,2.84   C172.79,18.91,172.69,19.49,172.51,20.12z"></path>
	<path class="st4" d="M208.52,9.3v20.18c0,1.19-0.11,2.47-0.33,3.82c-0.22,1.33-0.65,2.59-1.29,3.74c-0.63,1.14-1.54,2.09-2.69,2.83   c-1.15,0.74-2.71,1.11-4.63,1.11c-1.92,0-3.47-0.37-4.63-1.11c-1.16-0.74-2.06-1.69-2.69-2.83c-0.64-1.15-1.07-2.41-1.29-3.74   c-0.22-1.34-0.33-2.63-0.33-3.82V9.3h-3.54v20.99c0,1.82,0.21,3.58,0.62,5.23c0.42,1.67,1.12,3.17,2.1,4.45   c0.98,1.29,2.29,2.33,3.88,3.1c1.59,0.77,3.56,1.16,5.87,1.16c2.3,0,4.28-0.39,5.87-1.16c1.59-0.77,2.89-1.81,3.88-3.1   c0.98-1.28,1.69-2.78,2.1-4.45c0.41-1.66,0.62-3.42,0.62-5.23V9.3H208.52z"></path>
	<path class="st5" d="M235.4,27.16c0.84-0.13,1.72-0.34,2.64-0.63c1.03-0.32,1.99-0.82,2.85-1.48c0.86-0.66,1.58-1.54,2.15-2.61   c0.57-1.07,0.86-2.45,0.86-4.09c0-1.48-0.25-2.76-0.73-3.8c-0.48-1.03-1.11-1.9-1.85-2.58c-0.74-0.68-1.6-1.2-2.54-1.56   c-0.92-0.35-1.85-0.61-2.75-0.77c-0.89-0.16-1.74-0.26-2.5-0.29c-0.79-0.03-1.38-0.05-1.82-0.05h-9.05v34.08h3.54V27.39h5.54   l9.47,15.99h4.04L235.4,27.16z M240.04,20.19c-0.2,0.67-0.57,1.29-1.12,1.87c-0.55,0.58-1.33,1.08-2.33,1.47   c-1,0.4-2.33,0.6-3.95,0.6h-6.46V12.55h6.46c1.61,0,2.94,0.2,3.95,0.6c1,0.4,1.78,0.9,2.33,1.47c0.55,0.58,0.92,1.21,1.12,1.87   c0.2,0.68,0.3,1.3,0.3,1.85C240.34,18.9,240.24,19.52,240.04,20.19z"></path>
	<polygon class="st6" points="277.88,9.3 277.88,38.49 257.65,9.38 257.59,9.3 253.24,9.3 253.24,43.38 256.78,43.38 256.78,14.18    277.01,43.29 277.07,43.38 281.42,43.38 281.42,9.3  "></polygon>
	<path class="st7" d="M33.54,56.64h2.13c0.28,0,0.56,0.02,0.85,0.07c0.29,0.05,0.54,0.14,0.77,0.28c0.23,0.14,0.41,0.34,0.55,0.6   c0.14,0.25,0.21,0.59,0.21,1.01c0,0.38-0.11,0.7-0.33,0.98c-0.22,0.28-0.55,0.46-0.99,0.55v0.02c0.24,0.02,0.47,0.08,0.67,0.17   c0.2,0.09,0.38,0.22,0.52,0.38c0.15,0.16,0.26,0.34,0.34,0.56c0.08,0.22,0.12,0.45,0.12,0.71c0,0.42-0.08,0.77-0.25,1.04   s-0.37,0.48-0.62,0.63c-0.25,0.15-0.52,0.26-0.8,0.31c-0.29,0.06-0.56,0.08-0.81,0.08h-2.36V56.64z M34.23,59.84h1.43   c0.36,0,0.64-0.04,0.87-0.13c0.22-0.09,0.4-0.19,0.52-0.32c0.13-0.13,0.21-0.26,0.25-0.4c0.04-0.14,0.06-0.27,0.06-0.39   c0-0.26-0.04-0.47-0.13-0.64c-0.09-0.17-0.2-0.31-0.35-0.41c-0.15-0.1-0.32-0.17-0.51-0.21c-0.19-0.04-0.4-0.06-0.62-0.06h-1.53   V59.84z M34.23,63.42h1.58c0.4,0,0.73-0.05,0.98-0.15c0.25-0.1,0.44-0.22,0.57-0.37c0.13-0.15,0.22-0.3,0.27-0.47   c0.05-0.16,0.07-0.31,0.07-0.44c0-0.27-0.05-0.5-0.16-0.7c-0.1-0.19-0.24-0.35-0.41-0.48c-0.17-0.12-0.36-0.21-0.57-0.27   c-0.21-0.06-0.43-0.08-0.64-0.08h-1.68V63.42z"></path>
	<path class="st7" d="M40.9,56.64h4.53v0.63h-3.84v2.63h3.6v0.63h-3.6v2.89h4v0.63H40.9V56.64z"></path>
	<path class="st7" d="M49.53,57.27H47v-0.63h5.75v0.63h-2.53v6.77h-0.69V57.27z"></path>
	<path class="st7" d="M56.31,57.27h-2.53v-0.63h5.75v0.63H57v6.77h-0.69V57.27z"></path>
	<path class="st7" d="M61.45,56.64h4.53v0.63h-3.84v2.63h3.6v0.63h-3.6v2.89h4v0.63h-4.69V56.64z"></path>
	<path class="st7" d="M68.43,56.64h1.94c0.1,0,0.23,0,0.4,0.01c0.17,0.01,0.35,0.03,0.54,0.06c0.19,0.04,0.39,0.09,0.6,0.17   c0.2,0.08,0.38,0.19,0.54,0.33c0.16,0.15,0.29,0.33,0.4,0.55c0.1,0.22,0.16,0.49,0.16,0.82c0,0.36-0.06,0.65-0.18,0.88   c-0.12,0.23-0.28,0.42-0.46,0.56c-0.18,0.14-0.39,0.25-0.61,0.32c-0.22,0.07-0.44,0.12-0.64,0.15l2.15,3.55h-0.78l-2.08-3.51h-1.29   v3.51h-0.69V56.64z M69.12,59.9h1.46c0.36,0,0.66-0.04,0.88-0.14c0.23-0.09,0.4-0.2,0.53-0.33c0.13-0.13,0.21-0.27,0.26-0.43   c0.05-0.15,0.07-0.29,0.07-0.42c0-0.13-0.02-0.26-0.07-0.42c-0.05-0.15-0.13-0.3-0.26-0.43c-0.13-0.13-0.3-0.24-0.53-0.33   c-0.23-0.09-0.52-0.14-0.88-0.14h-1.46V59.9z"></path>
	<path class="st7" d="M79.12,62.67c0.18,0.31,0.42,0.55,0.71,0.7c0.29,0.15,0.62,0.23,0.99,0.23c0.23,0,0.45-0.03,0.65-0.1   c0.2-0.07,0.38-0.17,0.53-0.29c0.15-0.13,0.27-0.28,0.36-0.46c0.09-0.18,0.13-0.38,0.13-0.6c0-0.26-0.05-0.47-0.16-0.64   c-0.11-0.17-0.25-0.3-0.43-0.41c-0.18-0.11-0.39-0.2-0.61-0.28c-0.23-0.08-0.46-0.15-0.7-0.23c-0.24-0.08-0.47-0.16-0.7-0.26   c-0.23-0.1-0.43-0.23-0.61-0.38c-0.18-0.16-0.33-0.35-0.43-0.59c-0.11-0.24-0.16-0.53-0.16-0.88c0-0.33,0.06-0.62,0.19-0.87   c0.13-0.25,0.3-0.47,0.52-0.64c0.22-0.17,0.47-0.3,0.76-0.39c0.29-0.09,0.58-0.13,0.9-0.13c0.4,0,0.78,0.07,1.12,0.21   c0.35,0.14,0.64,0.38,0.89,0.72l-0.6,0.43c-0.17-0.24-0.38-0.43-0.61-0.55c-0.23-0.12-0.51-0.18-0.83-0.18   c-0.22,0-0.44,0.03-0.64,0.09s-0.38,0.15-0.53,0.26s-0.27,0.26-0.36,0.43c-0.09,0.17-0.14,0.38-0.14,0.62   c0,0.37,0.09,0.65,0.28,0.85c0.19,0.2,0.42,0.36,0.71,0.47c0.28,0.12,0.59,0.22,0.92,0.3c0.33,0.09,0.64,0.2,0.92,0.35   c0.28,0.15,0.52,0.35,0.71,0.61c0.19,0.26,0.28,0.62,0.28,1.08c0,0.33-0.06,0.63-0.19,0.89c-0.13,0.26-0.29,0.48-0.51,0.65   c-0.21,0.18-0.46,0.31-0.74,0.4c-0.28,0.09-0.57,0.14-0.87,0.14c-0.49,0-0.94-0.09-1.35-0.26c-0.41-0.17-0.76-0.46-1.06-0.86   L79.12,62.67z"></path>
	<path class="st7" d="M85.03,60.34c0-0.56,0.09-1.08,0.28-1.56c0.19-0.47,0.45-0.88,0.78-1.23c0.33-0.35,0.74-0.61,1.21-0.81   c0.47-0.2,0.99-0.29,1.55-0.29c0.56,0,1.08,0.1,1.55,0.29c0.47,0.19,0.87,0.46,1.21,0.81c0.33,0.35,0.6,0.75,0.78,1.23   c0.19,0.47,0.28,0.99,0.28,1.56s-0.09,1.09-0.28,1.56c-0.19,0.48-0.45,0.89-0.78,1.23s-0.74,0.61-1.21,0.81   c-0.47,0.19-0.99,0.29-1.55,0.29c-0.56,0-1.08-0.1-1.55-0.29c-0.47-0.19-0.87-0.46-1.21-0.81s-0.6-0.76-0.78-1.23   C85.12,61.43,85.03,60.91,85.03,60.34z M85.72,60.34c0,0.46,0.07,0.89,0.22,1.29c0.15,0.4,0.36,0.74,0.63,1.03   c0.27,0.29,0.6,0.52,0.99,0.69c0.39,0.17,0.82,0.25,1.3,0.25c0.48,0,0.91-0.08,1.3-0.25c0.39-0.17,0.72-0.4,0.99-0.69   c0.27-0.29,0.48-0.64,0.63-1.03c0.15-0.4,0.22-0.83,0.22-1.29s-0.07-0.89-0.22-1.29c-0.15-0.4-0.36-0.74-0.63-1.03   c-0.27-0.29-0.6-0.52-0.99-0.69c-0.39-0.17-0.82-0.25-1.3-0.25c-0.48,0-0.91,0.08-1.3,0.25c-0.39,0.17-0.72,0.4-0.99,0.69   c-0.27,0.29-0.48,0.64-0.63,1.03C85.79,59.46,85.72,59.88,85.72,60.34z"></path>
	<path class="st7" d="M95.01,56.64h4.43v0.63H95.7v2.63h3.48v0.63H95.7v3.51h-0.69V56.64z"></path>
	<path class="st7" d="M103.25,57.27h-2.53v-0.63h5.75v0.63h-2.53v6.77h-0.69V57.27z"></path>
	<path class="st7" d="M107.43,56.64h0.71l1.84,6.55H110l1.87-6.55h0.88l1.87,6.55h0.02l1.84-6.55h0.71l-2.15,7.4h-0.85l-1.87-6.58   h-0.02l-1.87,6.58h-0.85L107.43,56.64z"></path>
	<path class="st7" d="M121.12,56.64h0.71l3.11,7.4h-0.77l-0.8-1.96h-3.92l-0.84,1.96h-0.72L121.12,56.64z M121.44,57.4l-1.72,4.06   h3.4L121.44,57.4z"></path>
	<path class="st7" d="M126.79,56.64h1.94c0.1,0,0.23,0,0.4,0.01c0.17,0.01,0.35,0.03,0.54,0.06c0.19,0.04,0.39,0.09,0.6,0.17   c0.2,0.08,0.38,0.19,0.54,0.33c0.16,0.15,0.29,0.33,0.4,0.55c0.1,0.22,0.16,0.49,0.16,0.82c0,0.36-0.06,0.65-0.18,0.88   c-0.12,0.23-0.28,0.42-0.46,0.56c-0.18,0.14-0.39,0.25-0.61,0.32c-0.22,0.07-0.44,0.12-0.64,0.15l2.15,3.55h-0.78l-2.08-3.51h-1.29   v3.51h-0.69V56.64z M127.48,59.9h1.46c0.36,0,0.66-0.04,0.88-0.14c0.23-0.09,0.4-0.2,0.53-0.33c0.13-0.13,0.21-0.27,0.26-0.43   c0.05-0.15,0.07-0.29,0.07-0.42c0-0.13-0.02-0.26-0.07-0.42c-0.05-0.15-0.13-0.3-0.26-0.43c-0.13-0.13-0.3-0.24-0.53-0.33   c-0.23-0.09-0.52-0.14-0.88-0.14h-1.46V59.9z"></path>
	<path class="st7" d="M133.78,56.64h4.53v0.63h-3.84v2.63h3.6v0.63h-3.6v2.89h4v0.63h-4.69V56.64z"></path>
	<path class="st7" d="M144.26,56.64h4.43v0.63h-3.74v2.63h3.48v0.63h-3.48v3.51h-0.69V56.64z"></path>
	<path class="st7" d="M150.37,60.34c0-0.56,0.09-1.08,0.28-1.56c0.19-0.47,0.45-0.88,0.78-1.23c0.33-0.35,0.74-0.61,1.21-0.81   c0.47-0.2,0.99-0.29,1.55-0.29c0.57,0,1.08,0.1,1.55,0.29c0.47,0.19,0.87,0.46,1.21,0.81c0.33,0.35,0.6,0.75,0.78,1.23   c0.19,0.47,0.28,0.99,0.28,1.56s-0.09,1.09-0.28,1.56c-0.19,0.48-0.45,0.89-0.78,1.23c-0.33,0.35-0.74,0.61-1.21,0.81   c-0.47,0.19-0.99,0.29-1.55,0.29c-0.56,0-1.08-0.1-1.55-0.29c-0.47-0.19-0.87-0.46-1.21-0.81c-0.33-0.35-0.6-0.76-0.78-1.23   C150.47,61.43,150.37,60.91,150.37,60.34z M151.06,60.34c0,0.46,0.07,0.89,0.22,1.29c0.15,0.4,0.36,0.74,0.63,1.03   c0.27,0.29,0.6,0.52,0.99,0.69c0.39,0.17,0.82,0.25,1.3,0.25c0.48,0,0.92-0.08,1.3-0.25c0.39-0.17,0.72-0.4,0.99-0.69   c0.27-0.29,0.48-0.64,0.63-1.03c0.15-0.4,0.22-0.83,0.22-1.29s-0.07-0.89-0.22-1.29c-0.15-0.4-0.36-0.74-0.63-1.03   c-0.27-0.29-0.6-0.52-0.99-0.69c-0.39-0.17-0.82-0.25-1.3-0.25c-0.48,0-0.91,0.08-1.3,0.25c-0.39,0.17-0.72,0.4-0.99,0.69   c-0.27,0.29-0.48,0.64-0.63,1.03C151.14,59.46,151.06,59.88,151.06,60.34z"></path>
	<path class="st7" d="M160.35,56.64h1.94c0.1,0,0.23,0,0.4,0.01c0.17,0.01,0.35,0.03,0.54,0.06c0.19,0.04,0.39,0.09,0.6,0.17   c0.2,0.08,0.38,0.19,0.54,0.33c0.16,0.15,0.29,0.33,0.4,0.55c0.1,0.22,0.16,0.49,0.16,0.82c0,0.36-0.06,0.65-0.18,0.88   c-0.12,0.23-0.27,0.42-0.46,0.56c-0.19,0.14-0.39,0.25-0.61,0.32c-0.22,0.07-0.44,0.12-0.64,0.15l2.15,3.55h-0.78l-2.08-3.51h-1.29   v3.51h-0.69V56.64z M161.04,59.9h1.46c0.36,0,0.66-0.04,0.88-0.14c0.23-0.09,0.4-0.2,0.53-0.33c0.13-0.13,0.21-0.27,0.26-0.43   c0.04-0.15,0.07-0.29,0.07-0.42c0-0.13-0.02-0.26-0.07-0.42c-0.05-0.15-0.13-0.3-0.26-0.43c-0.13-0.13-0.3-0.24-0.53-0.33   c-0.23-0.09-0.52-0.14-0.88-0.14h-1.46V59.9z"></path>
	<path class="st7" d="M170.84,56.64h0.69v6.77h3.45v0.63h-4.14V56.64z"></path>
	<path class="st7" d="M179.12,56.64h0.71l3.11,7.4h-0.77l-0.81-1.96h-3.92l-0.84,1.96h-0.72L179.12,56.64z M179.44,57.4l-1.72,4.06   h3.4L179.44,57.4z"></path>
	<path class="st7" d="M184.99,62.67c0.18,0.31,0.42,0.55,0.71,0.7c0.29,0.15,0.62,0.23,0.99,0.23c0.23,0,0.45-0.03,0.65-0.1   c0.2-0.07,0.38-0.17,0.53-0.29c0.15-0.13,0.27-0.28,0.36-0.46c0.09-0.18,0.13-0.38,0.13-0.6c0-0.26-0.05-0.47-0.16-0.64   c-0.11-0.17-0.25-0.3-0.43-0.41c-0.18-0.11-0.38-0.2-0.61-0.28c-0.23-0.08-0.46-0.15-0.7-0.23c-0.24-0.08-0.47-0.16-0.7-0.26   c-0.23-0.1-0.43-0.23-0.61-0.38c-0.18-0.16-0.33-0.35-0.43-0.59c-0.11-0.24-0.16-0.53-0.16-0.88c0-0.33,0.06-0.62,0.19-0.87   c0.13-0.25,0.3-0.47,0.52-0.64c0.22-0.17,0.47-0.3,0.76-0.39c0.29-0.09,0.59-0.13,0.9-0.13c0.4,0,0.78,0.07,1.12,0.21   c0.34,0.14,0.64,0.38,0.89,0.72l-0.6,0.43c-0.17-0.24-0.38-0.43-0.61-0.55c-0.23-0.12-0.51-0.18-0.83-0.18   c-0.22,0-0.44,0.03-0.64,0.09s-0.38,0.15-0.53,0.26s-0.27,0.26-0.36,0.43c-0.09,0.17-0.14,0.38-0.14,0.62   c0,0.37,0.09,0.65,0.28,0.85c0.19,0.2,0.42,0.36,0.71,0.47c0.28,0.12,0.59,0.22,0.92,0.3s0.64,0.2,0.92,0.35   c0.28,0.15,0.52,0.35,0.71,0.61c0.19,0.26,0.28,0.62,0.28,1.08c0,0.33-0.06,0.63-0.19,0.89c-0.13,0.26-0.29,0.48-0.51,0.65   c-0.21,0.18-0.46,0.31-0.74,0.4c-0.28,0.09-0.57,0.14-0.87,0.14c-0.49,0-0.94-0.09-1.35-0.26c-0.41-0.17-0.76-0.46-1.06-0.86   L184.99,62.67z"></path>
	<path class="st7" d="M191.39,56.64h4.53v0.63h-3.84v2.63h3.59v0.63h-3.59v2.89h4v0.63h-4.69V56.64z"></path>
	<path class="st7" d="M198.37,56.64h1.94c0.1,0,0.23,0,0.4,0.01c0.17,0.01,0.35,0.03,0.54,0.06c0.19,0.04,0.39,0.09,0.6,0.17   c0.2,0.08,0.38,0.19,0.54,0.33c0.16,0.15,0.29,0.33,0.4,0.55c0.1,0.22,0.16,0.49,0.16,0.82c0,0.36-0.06,0.65-0.18,0.88   c-0.12,0.23-0.27,0.42-0.46,0.56c-0.19,0.14-0.39,0.25-0.61,0.32c-0.22,0.07-0.44,0.12-0.64,0.15l2.15,3.55h-0.78l-2.08-3.51h-1.29   v3.51h-0.69V56.64z M199.06,59.9h1.46c0.36,0,0.66-0.04,0.88-0.14c0.23-0.09,0.4-0.2,0.53-0.33c0.13-0.13,0.21-0.27,0.26-0.43   c0.04-0.15,0.07-0.29,0.07-0.42c0-0.13-0.02-0.26-0.07-0.42c-0.05-0.15-0.13-0.3-0.26-0.43c-0.13-0.13-0.3-0.24-0.53-0.33   s-0.52-0.14-0.88-0.14h-1.46V59.9z"></path>
	<path class="st7" d="M214.94,62.88c-0.36,0.48-0.77,0.83-1.23,1.04c-0.47,0.21-0.97,0.31-1.52,0.31c-0.56,0-1.08-0.1-1.55-0.29   c-0.47-0.19-0.87-0.46-1.21-0.81c-0.33-0.35-0.6-0.76-0.78-1.23c-0.19-0.48-0.28-1-0.28-1.56s0.09-1.08,0.28-1.56   c0.19-0.47,0.45-0.88,0.78-1.23c0.33-0.35,0.74-0.61,1.21-0.81c0.47-0.2,0.99-0.29,1.55-0.29c0.5,0,0.97,0.09,1.41,0.27   c0.44,0.18,0.82,0.48,1.14,0.89l-0.56,0.47c-0.23-0.35-0.52-0.6-0.88-0.76c-0.36-0.16-0.73-0.24-1.1-0.24   c-0.48,0-0.91,0.08-1.3,0.25c-0.39,0.17-0.72,0.4-0.99,0.69c-0.27,0.29-0.48,0.64-0.63,1.03c-0.15,0.4-0.22,0.83-0.22,1.29   s0.07,0.89,0.22,1.29c0.15,0.4,0.36,0.74,0.63,1.03c0.27,0.29,0.6,0.52,0.99,0.69c0.39,0.17,0.82,0.25,1.3,0.25   c0.19,0,0.38-0.02,0.59-0.07c0.2-0.05,0.4-0.12,0.59-0.21c0.19-0.09,0.37-0.21,0.55-0.36c0.17-0.14,0.33-0.32,0.46-0.52   L214.94,62.88z"></path>
	<path class="st7" d="M222.25,61.21c0,0.4-0.05,0.78-0.14,1.14c-0.09,0.36-0.24,0.68-0.46,0.96c-0.21,0.28-0.49,0.5-0.84,0.67   c-0.35,0.17-0.77,0.25-1.27,0.25s-0.93-0.08-1.27-0.25c-0.34-0.17-0.62-0.39-0.84-0.67c-0.21-0.28-0.36-0.6-0.45-0.96   c-0.09-0.36-0.14-0.74-0.14-1.14v-4.57h0.69v4.39c0,0.27,0.02,0.55,0.07,0.85c0.05,0.3,0.14,0.58,0.29,0.84   c0.14,0.26,0.34,0.47,0.61,0.64c0.26,0.17,0.61,0.25,1.04,0.25c0.43,0,0.78-0.08,1.04-0.25c0.26-0.17,0.46-0.38,0.61-0.64   c0.14-0.26,0.24-0.54,0.29-0.84c0.05-0.3,0.07-0.58,0.07-0.85v-4.39h0.69V61.21z"></path>
	<path class="st7" d="M226.56,57.27h-2.53v-0.63h5.75v0.63h-2.53v6.77h-0.69V57.27z"></path>
	<path class="st7" d="M233.35,57.27h-2.53v-0.63h5.75v0.63h-2.53v6.77h-0.69V57.27z"></path>
	<path class="st7" d="M238.49,56.64h4.53v0.63h-3.84v2.63h3.59v0.63h-3.59v2.89h4v0.63h-4.69V56.64z"></path>
	<path class="st7" d="M245.47,56.64h1.94c0.1,0,0.23,0,0.4,0.01c0.17,0.01,0.35,0.03,0.54,0.06c0.19,0.04,0.39,0.09,0.6,0.17   c0.2,0.08,0.38,0.19,0.54,0.33c0.16,0.15,0.29,0.33,0.4,0.55c0.1,0.22,0.16,0.49,0.16,0.82c0,0.36-0.06,0.65-0.18,0.88   c-0.12,0.23-0.27,0.42-0.46,0.56c-0.19,0.14-0.39,0.25-0.61,0.32c-0.22,0.07-0.44,0.12-0.64,0.15l2.15,3.55h-0.78l-2.08-3.51h-1.29   v3.51h-0.69V56.64z M246.16,59.9h1.46c0.36,0,0.66-0.04,0.88-0.14c0.23-0.09,0.4-0.2,0.53-0.33c0.13-0.13,0.21-0.27,0.26-0.43   c0.04-0.15,0.07-0.29,0.07-0.42c0-0.13-0.02-0.26-0.07-0.42c-0.05-0.15-0.13-0.3-0.26-0.43c-0.13-0.13-0.3-0.24-0.53-0.33   c-0.23-0.09-0.52-0.14-0.88-0.14h-1.46V59.9z"></path>
	<path class="st7" d="M252.65,62.67c0.18,0.31,0.42,0.55,0.71,0.7c0.29,0.15,0.62,0.23,0.99,0.23c0.23,0,0.45-0.03,0.65-0.1   c0.2-0.07,0.38-0.17,0.53-0.29c0.15-0.13,0.27-0.28,0.36-0.46c0.09-0.18,0.13-0.38,0.13-0.6c0-0.26-0.05-0.47-0.16-0.64   c-0.11-0.17-0.25-0.3-0.43-0.41s-0.38-0.2-0.61-0.28c-0.23-0.08-0.46-0.15-0.7-0.23c-0.24-0.08-0.47-0.16-0.7-0.26   c-0.23-0.1-0.43-0.23-0.61-0.38c-0.18-0.16-0.33-0.35-0.43-0.59c-0.11-0.24-0.16-0.53-0.16-0.88c0-0.33,0.06-0.62,0.19-0.87   c0.13-0.25,0.3-0.47,0.52-0.64s0.47-0.3,0.76-0.39c0.29-0.09,0.59-0.13,0.9-0.13c0.4,0,0.78,0.07,1.12,0.21   c0.34,0.14,0.64,0.38,0.89,0.72l-0.6,0.43c-0.17-0.24-0.38-0.43-0.61-0.55c-0.23-0.12-0.51-0.18-0.83-0.18   c-0.22,0-0.44,0.03-0.64,0.09s-0.38,0.15-0.53,0.26s-0.27,0.26-0.36,0.43c-0.09,0.17-0.14,0.38-0.14,0.62   c0,0.37,0.09,0.65,0.28,0.85c0.19,0.2,0.42,0.36,0.71,0.47c0.28,0.12,0.59,0.22,0.92,0.3s0.64,0.2,0.92,0.35   c0.28,0.15,0.52,0.35,0.71,0.61c0.19,0.26,0.28,0.62,0.28,1.08c0,0.33-0.06,0.63-0.19,0.89c-0.13,0.26-0.29,0.48-0.51,0.65   c-0.21,0.18-0.46,0.31-0.74,0.4c-0.28,0.09-0.57,0.14-0.87,0.14c-0.49,0-0.94-0.09-1.35-0.26c-0.41-0.17-0.76-0.46-1.06-0.86   L252.65,62.67z"></path>
	<path class="st8" d="M79.33,25.9c0,0-1.03-1.98-3.24-3.19c-1.68-0.92-3.21-1.18-3.96-1.26c-0.26-1.11,1.46-2.07,1.46-2.07   s-1.19,0.28-1.67,0.63c-0.4,0.29-0.93,0.76-1.22,1.17c-0.3,0.43-0.21,0.24-0.69,0.26c-0.2,0.01-0.34,0.01-0.5,0.01   c0.01-0.12,0.15-0.37,0.22-0.46l0.41-0.61c0.05-0.07,0.11-0.13,0.17-0.2l0.36-0.38c0.43-0.39,0.88-0.81,1.38-1.12   c0.05-0.03,0.06-0.04,0.1-0.07c0.04-0.04-1.66,0.62-2.2,0.96c-0.83,0.51-1.58,1.13-2.21,1.87c-0.17,0.21-0.25,0.19-0.58,0.25   c-2.11-0.64-4.23-0.08-4.41,1.85c-0.05,0.53,0.18,0.22-0.18,0.77l-0.96,1.66c-0.08,0.16-0.54,0.77-0.67,0.92   c-0.22,0.26-0.79,0.81-1.1,0.96c-0.14-0.05-0.29-0.08-0.46-0.08c-0.57,0-1.01,0.34-1.11,0.77c-0.16,0.13-0.35,0.21-0.6,0.21   c-0.14-0.24-0.33-0.4-0.56-0.43c-0.56-0.07-1.12,0.66-1.25,1.63c-0.12,0.9,0.17,1.68,0.66,1.86c0.12,0.07,0.25,0.13,0.42,0.16   c0.14,0.14,0.6,0.79,0.66,0.72c0,0-0.54-0.65,0.36-0.86c0.12-0.03,0.8-0.16,0.87-0.21c0.06,0.38,0.84,0.98,1.21,1.03   c-0.32-0.45-0.6-1.01-0.21-1.36c0.16-0.14,0.77-0.42,1-0.55c0.54-0.33,0.99-1.04,1.55-1.5c0.77-0.62,2.36-1.44,3.28-1.39   c0.3,0.01,0.84,0.26,1.02,0.48l-1.06,0.62c-0.1,0.06-0.17,0.09-0.27,0.14c-0.1,0.06-0.17,0.11-0.27,0.17   c-0.6,0.37-1.11,0.84-1.62,1.32l-0.62,0.65c-0.76,0.91-1.14,1.94-2.24,2.4c-0.35,0.15-1.54,0.15-2.02,0.2   c0.12,0.15,0.62,0.41,0.83,0.48c0.59,0.17,1.4,0.33,2.02,0.23c0.56-0.09,1.15-0.25,1.66-0.69c0.51-0.43,0.86-1.04,1.05-1.25   c0.26-0.27,0.54-0.66,0.8-0.85l0.85-0.55c0.53-0.32,1.36-0.66,2.16-0.55c1.29,0.17,1.62,0.69,2.76-0.3   c0.21-0.18,3.03-4.26,0.76-0.2l-0.33,0.59c0,0,0.34,0.15,0.58,0.72c0.28,0.64,0.07,1.35-0.25,1.88l-0.3,0.49   c-1.86,2.79-4.69,5.86-11.3,5.21c-4.17-0.41-7.08-5.25-7.73-7c-0.65-1.75-0.97-3.67-0.97-5.7s0.33-3.95,0.97-5.7   c0.64-1.75,1.57-3.28,2.77-4.57c1.19-1.28,2.65-2.3,4.35-3.04c1.7-0.73,3.63-1.11,5.75-1.11c0.88,0,1.8,0.1,2.72,0.3   c0.92,0.2,1.82,0.48,2.66,0.83c0.84,0.35,1.63,0.78,2.34,1.29c0.57,0.4,1.08,0.83,1.51,1.29l-1.39,1.45   c0.27,0.03,2.62,0.07,4.23,0.53c0.98,0.28,1.9,0.65,2.51,1.02l1.52,0.9l-0.93-1.5c-0.37-0.6-0.74-1.4-1.05-2.27   c-0.57-1.62-0.84-4.36-0.84-4.36l-1.2,1.25C73.97,9.7,69.9,8.21,64.99,8.21c-2.61,0-5.05,0.46-7.23,1.37   c-2.19,0.91-4.08,2.18-5.64,3.79c-1.56,1.6-2.79,3.53-3.66,5.73c-0.87,2.2-1.31,4.64-1.31,7.25c0,2.61,0.44,5.06,1.31,7.27   c0.87,2.22,2.1,4.15,3.66,5.76c1.56,1.61,3.45,2.87,5.64,3.76c2.15,0.91,5.01,0.91,7.14,0.91c2.19,0,4.34-0.23,6.45-0.69   c0.78-0.17,1.55-0.4,2.31-0.66l0.04,0l0.11-0.05c1.03-0.37,2.47-1.15,2.99-1.52c0.52-0.37,1.58-1.29,1.91-2.37   c0.14-0.46,0.23-0.9,0.31-1.43c0.08-0.49,0.15-1.13,0.1-1.63c0.44,0.06,0.78,1.2,0.83,1.7c0.05,0.6,0.06,1.14,0.38,0.1   c1.19-3.97-0.22-9.55-3.21-12.84C78.56,24.75,79.33,25.9,79.33,25.9z M63.43,26.08c0.95-2.89,3.25-1.63,3.25-1.63   C65.81,26.15,63.43,26.08,63.43,26.08z"></path>
</g>
</svg>
