<?xml version="1.0" encoding="UTF-8"?><svg id="Layer_1" xmlns="http://www.w3.org/2000/svg" viewBox="0 0 1674 218"><defs><style>.cls-1{fill:#f9383d;}.cls-2,.cls-3{fill:#011546;}.cls-3{fill-rule:evenodd;}</style></defs><path class="cls-1" d="m169.71,79.73C167.02,35.34,129.89,0,85.11,0,38.14,0,.02,37.78.02,84.88c0,22.56,8.85,43.43,23.86,58.65l56.07-63.8h89.77Zm-53.87,134.92h107.96v-70.65l-54.12-64.26-53.87,64.26v70.65h.04Z"/><path class="cls-2" d="m1324.57,214.36h-42.02V85.1h42.02v129.27Z"/><path class="cls-2" d="m1280.2,50.17c0-13.7,9.63-23.3,23.33-23.3s23.36,9.6,23.36,23.3-9.63,23.3-23.36,23.3-23.33-9.6-23.33-23.3Z"/><path class="cls-2" d="m745.27,85.1v129.27h-42.02V85.1h42.02Z"/><path class="cls-2" d="m700.92,50.17c0-13.7,9.63-23.3,23.36-23.3s23.36,9.6,23.36,23.3-9.63,23.3-23.36,23.3-23.36-9.6-23.36-23.3Z"/><path class="cls-2" d="m648.32,85.1v-31.74h-27.01l-3.22,13.1c-3.22,11.93-7.11,18.64-19.96,20.97l-9.35,1.45v25.64h18.09v65.22c0,29.1,18.97,38.13,40,38.13,16.92,0,28-4.06,37.66-11.37v-26.66c-7.89,3.5-14.58,5.23-21.03,5.23-9.91,0-15.18-4.66-15.18-15.71v-54.87h34.44v-29.41h-34.44v.04Z"/><path class="cls-2" d="m298.02,214.36h42.02v-64.62c0-20.97,9.35-34.36,25.7-34.36,14.58,0,21.59,9.6,21.59,28.81v70.16h42.02v-82.09c0-32.91-17.2-50.67-45.52-50.67-23.64,0-38.51,12.53-43.79,31.74v-28.25h-42.02v129.27Z"/><path class="cls-3" d="m832.97,81.6c-42.3,0-70.05,28.53-70.05,68.99s27.72,67.26,70.05,67.26,70.9-26.8,70.9-67.26-28.32-68.99-70.9-68.99Zm0,103.92c-17.8,0-28.88-12.82-28.88-34.92s11.08-36.69,28.88-36.69,29.77,14.55,29.77,36.69-11.96,34.92-29.77,34.92Z"/><path class="cls-2" d="m960.85,214.36h-42.02V85.1h42.02v28.25c5.24-19.21,20.14-31.74,43.79-31.74,28.32,0,45.52,17.76,45.52,50.67v82.09h-42.02v-70.16c0-19.21-7.01-28.81-21.59-28.81-16.35,0-25.7,13.38-25.7,34.36v64.62Z"/><path class="cls-2" d="m1207.64,169.52h-1.17l-21.31-84.42h-39.68l-21.59,84.42h-1.17l-22.48-84.42h-42.01l38.23,129.27h44.63l21.59-83.83h1.17l21.59,83.83h44.64l38.51-129.27h-38.23l-22.76,84.42h.04Z"/><path class="cls-3" d="m1401.62,81.6c-33.84,0-58.94,26.2-58.94,68.11s25.1,68.11,58.94,68.11c18.08,0,36.21-9.89,42.9-26.48v22.99h42.3V31.92h-42.3v76.48c-6.41-16.6-24.53-26.8-42.9-26.8Zm13.41,33.19c17.81,0,29.49,13.1,29.49,33.47v2.9c0,20.66-11.68,33.75-29.49,33.75s-29.77-13.66-29.77-35.24,11.68-34.92,29.77-34.92v.04Z"/><path class="cls-3" d="m1634.38,179.87c-8.92,24.22-30.76,38.13-61.35,38.13-41.23,0-70.51-25.1-70.51-66.24s29.84-70.34,69.63-70.34c43.01,0,65.52,29.48,65.52,64.79v12.85h-93.59c1.17,17.23,14.05,27.15,30.41,27.15,13.59,0,22.37-4.77,27.29-15.04l32.56,8.72.04-.04Zm-89.7-43.29h52.35c-.88-12.85-9.06-24.51-25.16-24.51-16.96,0-24.85,10.81-27.19,24.51Z"/><path class="cls-3" d="m491.77,141.27c-28.67,4.66-47.4,16.07-47.4,40.85,0,22.17,16.39,35.31,42.41,35.31,20.18,0,36.28-7.87,43.57-22.77,3.79,14.58,15.22,22.77,30.72,22.77,12.89,0,21.06-3.78,27.5-8.47v-22.46c-3.79,1.76-7.01,2.33-10.83,2.33-5.27,0-8.18-2.93-8.18-9.64v-47.28c0-35.31-24.28-50.49-58.23-50.49s-55.15,16.84-61.24,41.7l38.19,7.87c2.41-10.63,8.53-18.04,20.71-18.04,12.88,0,19.01,7.31,19.01,19.56v2.93l-36.28,5.83h.04Zm-6.44,36.19c0-10.21,8.18-13.7,21.35-16.07l21.34-3.78v4.94c0,18.4-12.28,27.15-27.79,27.15-9.06,0-14.9-4.66-14.9-12.25Z"/></svg>