<?xml version="1.0" encoding="UTF-8"?>
<svg xmlns="http://www.w3.org/2000/svg" id="图层_1" data-name="图层 1" viewBox="0 0 200 37.3">
  <defs>
    <style>.cls-1,.cls-2{fill:#c00;}.cls-1{fill-rule:evenodd;}</style>
  </defs>
  <path class="cls-1" d="M33.14,46.63a4.1,4.1,0,1,0,4.1,4.09A4.09,4.09,0,0,0,33.14,46.63ZM28.49,17.58H8.81A8.84,8.84,0,0,0,0,26.39V46.07a8.84,8.84,0,0,0,8.81,8.81H28.87a6,6,0,0,1-1.53-5.49H8.81A3.32,3.32,0,0,1,5.5,46.07V26.39a3.32,3.32,0,0,1,3.31-3.31H28.49a3.32,3.32,0,0,1,3.31,3.31V44.92a6,6,0,0,1,5.49,1.53c0-.13,0-.25,0-.38V26.39A8.83,8.83,0,0,0,28.49,17.58Zm-.32,28.17v-19H22.66v6.77h-8V26.71H9.14v19h5.5V39h8v6.77Z" transform="translate(0 -17.58)"></path>
  <polygon points="63.76 4.51 63.76 22.17 63.65 22.17 51.55 4.55 51.53 4.51 46.19 4.51 46.19 32.76 52.29 32.76 52.29 15.09 52.37 15.09 64.58 32.76 69.84 32.76 69.84 4.51 63.76 4.51"></polygon>
  <polygon points="105.03 22.15 111.18 11.53 104.99 11.53 101.08 18.8 97.27 11.53 91.03 11.53 97.12 22.15 90.81 32.76 97.05 32.76 101.08 25.57 105.16 32.72 105.19 32.76 111.35 32.76 105.03 22.15"></polygon>
  <path class="cls-2" d="M176.13,32h-6a5.92,5.92,0,0,0-.67-2.08,5.31,5.31,0,0,0-1.3-1.56,5.75,5.75,0,0,0-1.83-1,7.07,7.07,0,0,0-2.25-.35,6.64,6.64,0,0,0-3.79,1.08,6.94,6.94,0,0,0-2.51,3.13,12.3,12.3,0,0,0-.89,5,12.49,12.49,0,0,0,.89,5A6.5,6.5,0,0,0,164,45.39a7.49,7.49,0,0,0,2.22-.32,5.62,5.62,0,0,0,1.81-.92,5.28,5.28,0,0,0,1.33-1.49,6,6,0,0,0,.73-2l6,0A11.1,11.1,0,0,1,175,44.41a11.35,11.35,0,0,1-2.48,3.19,11.56,11.56,0,0,1-3.71,2.22,13.39,13.39,0,0,1-4.84.82,13.23,13.23,0,0,1-6.71-1.7A12,12,0,0,1,152.56,44a16.58,16.58,0,0,1-1.7-7.8,16.37,16.37,0,0,1,1.72-7.82,12.09,12.09,0,0,1,4.69-4.91,13.21,13.21,0,0,1,6.67-1.7,14.43,14.43,0,0,1,4.53.69,11.53,11.53,0,0,1,3.71,2,10.53,10.53,0,0,1,2.64,3.2A12.25,12.25,0,0,1,176.13,32Z" transform="translate(0 -17.58)"></path>
  <path d="M124.42,45.63l0-.08-.08,0-.63.11a4.45,4.45,0,0,1-.81.08,2.55,2.55,0,0,1-1-.18,1.23,1.23,0,0,1-.65-.58,2.49,2.49,0,0,1-.24-1.21V33.67h4V29.11h-4V22l-6,3.44,0,0v3.67H112.1v4.56H115V44.55a6.27,6.27,0,0,0,.88,3.48,5.25,5.25,0,0,0,2.5,2,8.5,8.5,0,0,0,3.26.58h.47a10.13,10.13,0,0,0,2-.23c.54-.12.95-.23,1.24-.32l.07,0Z" transform="translate(0 -17.58)"></path>
  <path d="M77.9,41.31H91.43V39.62a13.56,13.56,0,0,0-.76-4.73,9.26,9.26,0,0,0-2.13-3.37,8.74,8.74,0,0,0-3.18-2,11.17,11.17,0,0,0-3.92-.67A10.45,10.45,0,0,0,76,30.22a9.56,9.56,0,0,0-3.59,3.86,12.48,12.48,0,0,0-1.27,5.74,12.57,12.57,0,0,0,1.27,5.81,9.11,9.11,0,0,0,3.64,3.79,11.32,11.32,0,0,0,5.63,1.33,12.55,12.55,0,0,0,4.63-.8,8.63,8.63,0,0,0,3.29-2.28,7.41,7.41,0,0,0,1.7-3.43l0-.09-5.5-.37h-.06l0,.06A3.48,3.48,0,0,1,83.53,46a5.46,5.46,0,0,1-1.76.27,4.91,4.91,0,0,1-2.49-.6,4.08,4.08,0,0,1-1.62-1.72,5.86,5.86,0,0,1-.57-2.68V37.6a4.55,4.55,0,0,1,.56-2A4.3,4.3,0,0,1,79.23,34a4.42,4.42,0,0,1,2.31-.6,4.37,4.37,0,0,1,2.2.54,3.88,3.88,0,0,1,1.48,1.5,4.29,4.29,0,0,1,.54,2.11H77.9Z" transform="translate(0 -17.58)"></path>
  <path class="cls-2" d="M148.35,26.75a8.35,8.35,0,0,0-3.43-3.36,11.34,11.34,0,0,0-5.45-1.21H128.39V50.26h5.94V42.05h0V36.39h0V27h4a6.15,6.15,0,0,1,2.85.58,3.89,3.89,0,0,1,1.68,1.63,5.73,5.73,0,0,1,0,4.9,3.9,3.9,0,0,1-1.68,1.66,5.91,5.91,0,0,1-2.83.59h-3.21v4.76h4.17A11.84,11.84,0,0,0,144.84,40a8.38,8.38,0,0,0,3.49-3.33,9.83,9.83,0,0,0,1.21-4.94A10.06,10.06,0,0,0,148.35,26.75Z" transform="translate(0 -17.58)"></path>
  <path class="cls-2" d="M199.12,38.92a6.3,6.3,0,0,0-2.28-2.33,6.37,6.37,0,0,0-3-.91v-.27a7.3,7.3,0,0,0,2.61-1.12,5.59,5.59,0,0,0,1.8-2,6.07,6.07,0,0,0,.66-2.89,6.71,6.71,0,0,0-1-3.73,6.93,6.93,0,0,0-3.11-2.55,12.84,12.84,0,0,0-5.17-.91H178.34V50.26h12a12.36,12.36,0,0,0,5.31-1,7.56,7.56,0,0,0,3.26-2.76,7.35,7.35,0,0,0,1.1-4A7,7,0,0,0,199.12,38.92Zm-6.39,5.53a5.56,5.56,0,0,1-3.62.95h-4.84V37.94h0v-4h0V27h4.51a4.5,4.5,0,0,1,3.05.93,3.08,3.08,0,0,1,1.08,2.45,3.26,3.26,0,0,1-.55,1.91,3.67,3.67,0,0,1-1.51,1.23,5.37,5.37,0,0,1-2.18.43h-3.58v4h4.16a5.51,5.51,0,0,1,2.46.51,3.91,3.91,0,0,1,1.6,1.4,3.81,3.81,0,0,1,.56,2.06A3.15,3.15,0,0,1,192.73,44.45Z" transform="translate(0 -17.58)"></path>
</svg>
