<?xml version="1.0" encoding="UTF-8"?>
<svg id="Layer_1" data-name="Layer 1" xmlns="http://www.w3.org/2000/svg" viewBox="0 0 323.15 141.73">
  <defs>
    <style>
      .cls-1 {
        fill: none;
        stroke: #000;
        stroke-linecap: round;
        stroke-linejoin: round;
        stroke-width: .49px;
      }

      .cls-2 {
        stroke-width: 0px;
      }
    </style>
  </defs>
  <g>
    <g>
      <path class="cls-2" d="M40.97,28.82h18.46c7.75,0,13.73,6.55,13.73,15.09s-5.98,15.09-13.73,15.09h-8.49v10.82h-9.97V28.82ZM50.94,38.79v10.25h6.21c4.1,0,6.04-1.65,6.04-5.13s-1.88-5.13-5.98-5.13h-6.27Z"/>
      <path class="cls-1" d="M40.97,28.82h18.46c7.75,0,13.73,6.55,13.73,15.09s-5.98,15.09-13.73,15.09h-8.49v10.82h-9.97V28.82ZM50.94,38.79v10.25h6.21c4.1,0,6.04-1.65,6.04-5.13s-1.88-5.13-5.98-5.13h-6.27Z"/>
    </g>
    <g>
      <path class="cls-2" d="M85.97,69.84h-9.97V28.82h9.97v41.01Z"/>
      <path class="cls-1" d="M85.97,69.84h-9.97V28.82h9.97v41.01Z"/>
    </g>
    <g>
      <path class="cls-2" d="M98.56,28.82l11.05,21.59,10.99-21.59h8.6v41.01h-9.97v-16.4l-6.1,11.9h-7.12l-6.09-11.9v16.4h-9.97V28.82h8.6Z"/>
      <path class="cls-1" d="M98.56,28.82l11.05,21.59,10.99-21.59h8.6v41.01h-9.97v-16.4l-6.1,11.9h-7.12l-6.09-11.9v16.4h-9.97V28.82h8.6Z"/>
    </g>
    <g>
      <path class="cls-2" d="M153.7,28.25c11.62,0,21.08,9.46,21.08,21.08s-9.46,21.08-21.08,21.08-21.08-9.46-21.08-21.08,9.46-21.08,21.08-21.08ZM153.7,60.44c6.15,0,11.11-4.96,11.11-11.11s-4.96-11.11-11.11-11.11-11.11,4.96-11.11,11.11,4.96,11.11,11.11,11.11Z"/>
      <path class="cls-1" d="M153.7,28.25c11.62,0,21.08,9.46,21.08,21.08s-9.46,21.08-21.08,21.08-21.08-9.46-21.08-21.08,9.46-21.08,21.08-21.08ZM153.7,60.44c6.15,0,11.11-4.96,11.11-11.11s-4.96-11.11-11.11-11.11-11.11,4.96-11.11,11.11,4.96,11.11,11.11,11.11Z"/>
    </g>
    <g>
      <path class="cls-2" d="M60,75.74c7.75,0,13.73,6.55,13.73,15.09,0,4.56-1.99,8.54-5.07,11.28l6.15,14.64h-10.77l-4.56-10.82h-8.54v10.82h-9.97v-41.01h19.02ZM50.94,95.96h6.78c4.1,0,6.04-1.65,6.04-5.13s-1.88-5.13-5.98-5.13h-6.83v10.25Z"/>
      <path class="cls-1" d="M60,75.74c7.75,0,13.73,6.55,13.73,15.09,0,4.56-1.99,8.54-5.07,11.28l6.15,14.64h-10.77l-4.56-10.82h-8.54v10.82h-9.97v-41.01h19.02ZM50.94,95.96h6.78c4.1,0,6.04-1.65,6.04-5.13s-1.88-5.13-5.98-5.13h-6.83v10.25Z"/>
    </g>
    <g>
      <path class="cls-2" d="M97.31,75.17c11.62,0,21.08,9.46,21.08,21.08s-9.46,21.08-21.08,21.08-21.08-9.46-21.08-21.08,9.46-21.08,21.08-21.08ZM97.31,107.36c6.15,0,11.11-4.96,11.11-11.11s-4.96-11.11-11.11-11.11-11.11,4.96-11.11,11.11,4.96,11.11,11.11,11.11Z"/>
      <path class="cls-1" d="M97.31,75.17c11.62,0,21.08,9.46,21.08,21.08s-9.46,21.08-21.08,21.08-21.08-9.46-21.08-21.08,9.46-21.08,21.08-21.08ZM97.31,107.36c6.15,0,11.11-4.96,11.11-11.11s-4.96-11.11-11.11-11.11-11.11,4.96-11.11,11.11,4.96,11.11,11.11,11.11Z"/>
    </g>
    <g>
      <path class="cls-2" d="M130.8,75.74l14.13,21.47v-21.47h9.97v41.01h-8.94l-14.18-21.47v21.47h-9.97v-41.01h9Z"/>
      <path class="cls-1" d="M130.8,75.74l14.13,21.47v-21.47h9.97v41.01h-8.94l-14.18-21.47v21.47h-9.97v-41.01h9Z"/>
    </g>
    <g>
      <path class="cls-2" d="M169.99,116.75h-9.97v-41.01h9.97v41.01Z"/>
      <path class="cls-1" d="M169.99,116.75h-9.97v-41.01h9.97v41.01Z"/>
    </g>
  </g>
  <path class="cls-2" d="M267.66,40.83c-.91.01-1.8.09-2.68.21-1.53-10.4-10.37-19.59-22.59-22.25-11.59-2.52-22.86,1.57-28.86,9.52-1.99-.59-4.1-.9-6.29-.87-11.64.14-20.96,9.69-20.82,21.33.11,8.84,4.8,16.31,12.15,19.34,3.14,8.28-19.15,27.98,3.79,47.05.58.48,1.64.11,1.57-.43-.15-1.26.71-2.87,1.21-3.93.77-1.62,3.12-1.62,3.78.03,2.4,5.99,11.48,11.99,17.51,14.36,1.1.43,1.74-.11,1.45-.82-.52-1.27-.59-2.94-.43-4.4.17-1.57,2.13-2.68,3.97-1.25,4.26,3.31,11.73,5.01,19.05,3.93.49-.07,1.05-.67.59-1.22-1.15-1.4-1.55-3.03-.93-4.18.58-1.08,1.3-1.25,2.82-1.72,3.51-1.1,8.46-6.45,8.86-11.94.02-.28.28-.46.54-.37,1.16.39,1.9,2.24,2.5,1.59,1.94-2.11,3.1-10.19,2.67-13.4-.05-.41.46-.65.72-.33.93,1.15,2.08,1.65,2.36,1.19,1.86-2.52,2.32-6.48,2.36-9.92,9.29-2.3,16.13-10.72,16-20.7-.14-11.64-9.69-20.96-21.33-20.82ZM225.65,36.75c1.31-5.05,7.37-7.84,13.54-6.23,6.17,1.6,10.11,7,8.79,12.04-.87,3.36-3.86,5.72-7.58,6.45l-.66,2.54c-.69,2.35-2.31,2.58-4.39,2.15.1-.11.18-.24.21-.39l.73-3.59c.09-.44-.2-.87-.64-.96-.44-.09-.87.19-.96.64l-.73,3.6c-.03.13-.02.26.02.38-.34-.09-.7-.2-1.05-.3-.63-.18-1.23-.37-1.78-.58,0,0,0-.02.01-.03l1.09-3.5c.13-.43-.11-.89-.54-1.02-.43-.13-.89.11-1.02.54l-1.03,3.33c-1.37-.8-2.08-1.92-1.51-3.88l.59-2.2c-2.63-2.42-3.92-5.77-3.08-8.97ZM236.96,97.3c-.75,1.7-2.78,2.96-4.71,3.72l-.05-1.66c-.04-1.38-1.33-2.51-2.88-2.53-1.55-.02-2.78,1.08-2.74,2.45l.08,2.55c-1.67-.09-4.32-.66-6.05-1.31-6.34-2.39-10.45-8.13-8.56-12.42.88-1.99,3.36-1.41,5.15-.67l-.84,2.03c-.52,1.27.23,2.73,1.69,3.24,1.46.52,3.07-.1,3.59-1.37l.53-1.28c.99.51,2.49,1.1,3.98,1.36,6.67,1.15,12.04,1.8,10.79,5.87ZM246.46,92.93c-5.62-.58-8.1-9.69-19.54-6.19-9.01-10.38-16.84-5.02-23.94-5.39,3.5-7.17,5.89-16.28,4.9-21.56,3.56-1.56,15.09-5.53,24.76,4.87,7.17-2.11,15.5-2.57,25.09,6.8.09,9.45-4.9,22.13-11.26,21.48ZM219.83,67.43c-2.18-.61-4.45.66-5.06,2.84-.61,2.18.66,4.44,2.84,5.06,2.18.61,4.45-.66,5.06-2.84.61-2.18-.66-4.44-2.84-5.06ZM240.12,72.21c-2.18-.61-4.45.66-5.06,2.84-.61,2.18.66,4.45,2.84,5.06,2.18.61,4.45-.66,5.06-2.84.61-2.18-.66-4.44-2.84-5.06ZM232.03,43.4c1.75.2,3.32-1.06,3.53-2.8.2-1.75-1.06-3.33-2.8-3.53-1.75-.2-3.33,1.05-3.53,2.8-.2,1.75,1.05,3.33,2.8,3.53ZM239.63,44.98c1.75.2,3.33-1.06,3.53-2.8.2-1.75-1.05-3.33-2.8-3.53-1.75-.2-3.32,1.05-3.53,2.8-.2,1.75,1.06,3.33,2.8,3.53Z"/>
</svg>