<svg id="ff9be8f1-731f-4fe4-a2cc-b420436962c0" data-name="Layer 1" xmlns="http://www.w3.org/2000/svg" viewBox="0 0 1500 610.56"><path d="M667.65,149.71a64.66,64.66,0,0,0-26.56-26q-17.4-9.41-42.1-9.4H513.32V331.5h45.92V261.1h38.59q25,0,42.67-9.22a64.5,64.5,0,0,0,27-25.77q9.32-16.53,9.32-38.17T667.65,149.71Zm-42.41,57.15a30.24,30.24,0,0,1-12.94,12.83c-5.77,3.08-13,4.62-21.89,4.62H559.24V151.9h31c8.89,0,16.26,1.5,22,4.49a29.78,29.78,0,0,1,13,12.62,43.8,43.8,0,0,1,0,37.85Z" fill="#484e51"/><path d="M792.1,262.16V168.65h45.17V331.5H793.9V301.93h-1.7a48.26,48.26,0,0,1-18.29,23q-12.78,8.7-31.11,8.7-16.34,0-28.75-7.43a50.73,50.73,0,0,1-19.34-21.1q-6.94-13.67-7.05-32.77V168.65h45.16v95.64q.12,14.41,7.74,22.79T761,295.46a32.05,32.05,0,0,0,15.26-3.77A29,29,0,0,0,787.8,280.5c2.93-4.95,4.37-11.05,4.3-18.34" fill="#484e51"/><rect x="855.69" y="114.35" width="45.17" height="217.15" fill="#484e51"/><path d="M1057.19,215.08l-41.35,2.55a21.66,21.66,0,0,0-4.57-9.59,24.83,24.83,0,0,0-9.17-6.89,32.12,32.12,0,0,0-13.51-2.6q-10.5,0-17.7,4.39t-7.22,11.72a12.5,12.5,0,0,0,4.66,9.85q4.68,4,16,6.47l29.47,5.94q23.76,4.89,35.41,15.7T1060.89,281a44.46,44.46,0,0,1-9.38,28.09q-9.39,12.09-25.66,18.83t-37.47,6.72q-32.34,0-51.48-13.51t-22.42-36.85L958.91,282a22.59,22.59,0,0,0,9.74,15q7.76,5.13,19.83,5.13,11.87,0,19.13-4.61T1015,285.6a12.59,12.59,0,0,0-5.2-10.13c-3.39-2.66-8.63-4.68-15.69-6.1l-28.21-5.62Q942,259,930.44,247.21t-11.62-30q0-15.69,8.53-27t24.07-17.49q15.54-6.15,36.43-6.15,30.85,0,48.61,13t20.73,35.51" fill="#484e51"/><path d="M1140.73,303.41a37.4,37.4,0,0,0,17.6-4,30.83,30.83,0,0,0,12-10.77,27.84,27.84,0,0,0,4.36-15.36V256a22.81,22.81,0,0,1-5.79,2.5c-2.44.73-5.17,1.41-8.21,2s-6.09,1.14-9.12,1.6-5.8.86-8.26,1.21a56,56,0,0,0-13.9,3.72,22.3,22.3,0,0,0-9.23,6.84,17,17,0,0,0-3.28,10.65c0,6.15,2.23,10.83,6.73,14.05s10.2,4.83,17.12,4.83m-12.93,31.17q-15.58,0-27.79-5.47a44,44,0,0,1-19.24-16.21q-7.05-10.77-7-26.88,0-13.57,5-22.8a40.39,40.39,0,0,1,13.57-14.84,65.68,65.68,0,0,1,19.56-8.48,146.28,146.28,0,0,1,23.06-4q14.22-1.5,22.9-2.82t12.62-4a8.87,8.87,0,0,0,3.93-7.85v-.63q0-10.07-6.32-15.6t-17.85-5.51q-12.21,0-19.41,5.36a25.14,25.14,0,0,0-9.55,13.41l-41.77-3.39A57,57,0,0,1,1092,189.15a60.79,60.79,0,0,1,24.11-16.75q14.81-5.86,34.3-5.87a104.94,104.94,0,0,1,26,3.17,68.73,68.73,0,0,1,22.15,9.87,48.19,48.19,0,0,1,15.32,17.11q5.63,10.45,5.63,25V331.5h-42.85V308.92h-1.27a45,45,0,0,1-10.49,13.41,47.4,47.4,0,0,1-15.79,9,64.53,64.53,0,0,1-21.32,3.23" fill="#484e51"/><path d="M1282.76,237.35V331.5h-45.17V168.65h43v28.72h1.91a46,46,0,0,1,18.13-22.53q12.74-8.31,30.86-8.32,17,0,29.59,7.42a50.66,50.66,0,0,1,19.62,21.15q7,13.74,7,32.73V331.5h-45.16V235.86q.11-14.94-7.63-23.38t-21.32-8.43a32.07,32.07,0,0,0-16.06,3.94,26.93,26.93,0,0,0-10.82,11.38c-2.58,5-3.9,11-4,18" fill="#484e51"/><path d="M1492.89,295.87l-4.87.91a36.08,36.08,0,0,1-6.36.58,21.38,21.38,0,0,1-8-1.38,10.36,10.36,0,0,1-5.36-4.81q-1.92-3.46-1.92-9.71V202.57H1497V168.63h-30.66v-39h-45.15v39H1399v33.94h22.26V287.4q-.12,16,6.66,26.51a40,40,0,0,0,19,15.47q12.25,5,28.58,4.34a79.25,79.25,0,0,0,15-1.74c4.1-1,7.28-1.78,9.54-2.49Z" fill="#484e51"/><path d="M223.84,447.63V401.89a178.1,178.1,0,0,0,125.93-304L382.1,65.53a223.77,223.77,0,0,1-158.26,382.1" fill="#d7006d"/><path d="M159.51,288.13a91,91,0,0,1,64.32-155.27v45.72a45.23,45.23,0,0,0-32,77.21Z" fill="#00a1e4"/><path d="M65.56,382.08A223.76,223.76,0,0,1,223.84,0V45.72a178.08,178.08,0,0,0-125.94,304Z" fill="#8cc740"/><path d="M335.1,335.08l-32.34-32.34a111.62,111.62,0,0,0-78.93-190.55V66.46A157.36,157.36,0,0,1,335.1,335.08" fill="#a64299"/><path d="M223.83,381.16A157.37,157.37,0,0,1,112.55,112.53l32.34,32.35a111.62,111.62,0,0,0,78.94,190.55Z" fill="#00b28b"/><path d="M93,526.64H73.73A19,19,0,0,0,71.58,520a17.16,17.16,0,0,0-4.18-5,18.9,18.9,0,0,0-5.87-3.18,22.92,22.92,0,0,0-7.2-1.09,21.48,21.48,0,0,0-12.19,3.45,22.35,22.35,0,0,0-8.06,10,39.92,39.92,0,0,0-2.86,16q0,9.65,2.89,16.2a20.86,20.86,0,0,0,20.08,13.24,23.61,23.61,0,0,0,7.12-1,18.84,18.84,0,0,0,5.83-3,17.57,17.57,0,0,0,4.24-4.79,19.2,19.2,0,0,0,2.35-6.42l19.28.08a35.09,35.09,0,0,1-3.72,12,35.75,35.75,0,0,1-8,10.24,37.07,37.07,0,0,1-11.88,7.15,43.87,43.87,0,0,1-15.55,2.6A42.44,42.44,0,0,1,32.35,581a38.48,38.48,0,0,1-15-15.8q-5.47-10.34-5.48-25t5.55-25.08a38.87,38.87,0,0,1,15-15.79,42.48,42.48,0,0,1,21.4-5.43,46.59,46.59,0,0,1,14.54,2.2,37.11,37.11,0,0,1,11.9,6.41,33.42,33.42,0,0,1,8.48,10.28,38.28,38.28,0,0,1,4.2,13.9" fill="#949a9e"/><path d="M133.43,572a11.54,11.54,0,0,0,7.78-2.67,16.41,16.41,0,0,0,4.74-7.29,35.35,35.35,0,0,0,0-21,16.61,16.61,0,0,0-4.74-7.3,11.5,11.5,0,0,0-7.78-2.68,11.83,11.83,0,0,0-7.9,2.68,16.2,16.2,0,0,0-4.8,7.3,35.35,35.35,0,0,0,0,21,16,16,0,0,0,4.8,7.29,11.88,11.88,0,0,0,7.9,2.67m-.09,14.52a34.33,34.33,0,0,1-17.71-4.38,29.77,29.77,0,0,1-11.52-12.24,43.3,43.3,0,0,1,0-36.57,29.68,29.68,0,0,1,11.52-12.23,34.44,34.44,0,0,1,17.71-4.39,34.46,34.46,0,0,1,17.71,4.39,29.59,29.59,0,0,1,11.51,12.23,43.3,43.3,0,0,1,0,36.57,29.68,29.68,0,0,1-11.51,12.24,34.36,34.36,0,0,1-17.71,4.38" fill="#949a9e"/><path d="M194.89,546.14v39.07H176.15v-67.6H194v11.94h.78a19,19,0,0,1,7.52-9.36,23,23,0,0,1,12.82-3.45,23.85,23.85,0,0,1,12.27,3.07,21,21,0,0,1,8.15,8.79,29.47,29.47,0,0,1,2.9,13.57v43H219.71V545.52q0-6.21-3.16-9.7c-2.14-2.34-5.1-3.5-8.85-3.5A13.29,13.29,0,0,0,201,534a11.14,11.14,0,0,0-4.49,4.72,16.47,16.47,0,0,0-1.65,7.47" fill="#949a9e"/><path d="M270,546.14v39.07H251.27v-67.6h17.87v11.94h.79a19,19,0,0,1,7.52-9.36,23,23,0,0,1,12.81-3.45,23.89,23.89,0,0,1,12.28,3.07,21,21,0,0,1,8.14,8.79,29.47,29.47,0,0,1,2.9,13.57v43H294.84V545.52q0-6.21-3.16-9.7t-8.85-3.5a13.3,13.3,0,0,0-6.68,1.63,11.2,11.2,0,0,0-4.49,4.72,16.6,16.6,0,0,0-1.64,7.47" fill="#949a9e"/><path d="M325.78,570.23a28.68,28.68,0,0,0,11.56,12.06q7.5,4.25,17.93,4.25A39.25,39.25,0,0,0,370,584a26.93,26.93,0,0,0,10.48-7.22,23.6,23.6,0,0,0,5.38-10.89l-17.33-1.15a11.48,11.48,0,0,1-2.81,4.32,11.85,11.85,0,0,1-4.45,2.63,17.39,17.39,0,0,1-5.73.89,15.9,15.9,0,0,1-8.13-2,13.34,13.34,0,0,1-5.31-5.64,18.72,18.72,0,0,1-1.88-8.66v0H386.3v-5.16A43.15,43.15,0,0,0,383.88,536a29.31,29.31,0,0,0-6.77-10.72A27.93,27.93,0,0,0,367,518.88a35.65,35.65,0,0,0-12.48-2.15,33.15,33.15,0,0,0-17.31,4.41,29.8,29.8,0,0,0-11.43,12.28,43.84,43.84,0,0,0,0,36.81Zm21.5-37.54a14.4,14.4,0,0,1,7.55-2,14.11,14.11,0,0,1,7.2,1.78,12.82,12.82,0,0,1,4.85,4.9,14.29,14.29,0,0,1,1.77,7.18H340.28a14.8,14.8,0,0,1,1.87-6.67A14,14,0,0,1,347.28,532.69Z" fill="#949a9e"/><path d="M426.22,586.54q-10.38,0-17.84-4.42a29.41,29.41,0,0,1-11.44-12.3,43.16,43.16,0,0,1,0-36.38,29.73,29.73,0,0,1,11.46-12.28,34.06,34.06,0,0,1,17.69-4.43A35.22,35.22,0,0,1,441.62,520a25.82,25.82,0,0,1,10.51,9,26.42,26.42,0,0,1,4.27,13.64H438.71a13.74,13.74,0,0,0-3.94-8.16,11.41,11.41,0,0,0-8.33-3.11,12.66,12.66,0,0,0-7.6,2.35,15.34,15.34,0,0,0-5,6.85A29.24,29.24,0,0,0,412,551.42a29.81,29.81,0,0,0,1.78,11,15,15,0,0,0,5,6.91,13.31,13.31,0,0,0,13.39,1.07,11.17,11.17,0,0,0,4.27-3.85,14.51,14.51,0,0,0,2.22-6.11H456.4a27.74,27.74,0,0,1-4.19,13.63,25.57,25.57,0,0,1-10.37,9.18,34.66,34.66,0,0,1-15.62,3.3" fill="#949a9e"/><path d="M499.65,570.42c-.46.1-1.14.22-2,.38a14.86,14.86,0,0,1-2.65.25,8.64,8.64,0,0,1-3.33-.59,4.23,4.23,0,0,1-2.21-2,8.35,8.35,0,0,1-.79-4V531.69h12.71V517.61H488.66V501.42H469.9v16.19h-9.24v14.08h9.24v35.22a19.63,19.63,0,0,0,2.79,11,16.48,16.48,0,0,0,7.9,6.43,28.35,28.35,0,0,0,11.85,1.79,33.26,33.26,0,0,0,6.21-.71c1.7-.41,3-.74,4-1Z" fill="#949a9e"/><path d="M575,570.42c-.46.1-1.13.22-2,.38a14.83,14.83,0,0,1-2.64.25,8.45,8.45,0,0,1-3.32-.59,4.21,4.21,0,0,1-2.22-2,8.23,8.23,0,0,1-.8-4V531.69h12.72V517.61H564V501.42H545.24v16.19H536v14.08h9.24v35.22a19.63,19.63,0,0,0,2.77,11,16.66,16.66,0,0,0,7.9,6.43,28.5,28.5,0,0,0,11.87,1.79,33.26,33.26,0,0,0,6.21-.71c1.69-.41,3-.74,4-1Z" fill="#949a9e"/><path d="M616.7,572a11.56,11.56,0,0,0,7.78-2.67,16.24,16.24,0,0,0,4.74-7.29,35.35,35.35,0,0,0,0-21,16.44,16.44,0,0,0-4.74-7.3,11.52,11.52,0,0,0-7.78-2.68,11.87,11.87,0,0,0-7.9,2.68A16.28,16.28,0,0,0,604,541a35.35,35.35,0,0,0,0,21,16.09,16.09,0,0,0,4.8,7.29,11.92,11.92,0,0,0,7.9,2.67m-.09,14.52a34.36,34.36,0,0,1-17.71-4.38,29.74,29.74,0,0,1-11.51-12.24,43.3,43.3,0,0,1,0-36.57,29.66,29.66,0,0,1,11.51-12.23,37.92,37.92,0,0,1,35.42,0,29.68,29.68,0,0,1,11.52,12.23,43.3,43.3,0,0,1,0,36.57,29.77,29.77,0,0,1-11.52,12.24,34.33,34.33,0,0,1-17.71,4.38" fill="#949a9e"/><path d="M700,610.43a38.6,38.6,0,0,1-6.66-.55,28.24,28.24,0,0,1-5.13-1.34l4.22-14a17.09,17.09,0,0,0,8.39.82c2.27-.48,4.06-2.26,5.39-5.31l1.09-2.85L683,517.62h19.71l14,49.64h.72l14.12-49.64,19.85.08-26.28,74.82A31.71,31.71,0,0,1,720,602a21.55,21.55,0,0,1-8.16,6.24A28.63,28.63,0,0,1,700,610.43" fill="#949a9e"/><path d="M787.13,572a11.54,11.54,0,0,0,7.78-2.67,16.41,16.41,0,0,0,4.74-7.29,35.35,35.35,0,0,0,0-21,16.61,16.61,0,0,0-4.74-7.3,11.5,11.5,0,0,0-7.78-2.68,11.85,11.85,0,0,0-7.9,2.68,16.28,16.28,0,0,0-4.8,7.3,35.35,35.35,0,0,0,0,21,16.09,16.09,0,0,0,4.8,7.29,11.9,11.9,0,0,0,7.9,2.67M787,586.54a34.33,34.33,0,0,1-17.71-4.38,29.68,29.68,0,0,1-11.51-12.24,43.2,43.2,0,0,1,0-36.57,29.59,29.59,0,0,1,11.51-12.23,37.92,37.92,0,0,1,35.42,0,29.59,29.59,0,0,1,11.51,12.23,43.2,43.2,0,0,1,0,36.57,29.68,29.68,0,0,1-11.51,12.24A34.33,34.33,0,0,1,787,586.54" fill="#949a9e"/><path d="M874.58,556.43V517.62h18.74v67.6h-18V572.93h-.7a20,20,0,0,1-7.59,9.56,22.39,22.39,0,0,1-12.92,3.6A22.75,22.75,0,0,1,842.19,583a21,21,0,0,1-8-8.76,30,30,0,0,1-2.93-13.6v-43H850v39.69q0,6,3.22,9.47a10.92,10.92,0,0,0,8.49,3.47,13.37,13.37,0,0,0,6.34-1.56A12.11,12.11,0,0,0,872.8,564a14.56,14.56,0,0,0,1.78-7.61" fill="#949a9e"/><path d="M907.41,585.21v-67.6h18.18v11.81h.69a17.61,17.61,0,0,1,6.21-9.53,16.38,16.38,0,0,1,10-3.24,27.88,27.88,0,0,1,3.05.18,19.74,19.74,0,0,1,2.86.48V534a21.93,21.93,0,0,0-3.66-.71,32,32,0,0,0-4.26-.31,15,15,0,0,0-7.37,1.79,13.07,13.07,0,0,0-5.11,4.95,14,14,0,0,0-1.88,7.3v38.24Z" fill="#949a9e"/><path d="M1003.56,551.41a30,30,0,0,0,1.68,10.53,15.4,15.4,0,0,0,4.84,7,13.12,13.12,0,0,0,15.45,0,15.38,15.38,0,0,0,4.81-7,33.38,33.38,0,0,0,0-20.7,15.21,15.21,0,0,0-4.8-7,12.16,12.16,0,0,0-7.79-2.52,12.34,12.34,0,0,0-7.73,2.43,15,15,0,0,0-4.81,6.87,29.5,29.5,0,0,0-1.68,10.46m-18.35,59.15V517.61h18.49V529h.84a24.62,24.62,0,0,1,3.59-5.57,18.92,18.92,0,0,1,6.15-4.75,21.07,21.07,0,0,1,9.49-1.91,25.51,25.51,0,0,1,13.64,3.85,26.77,26.77,0,0,1,10,11.57q3.75,7.73,3.75,19.34,0,11.32-3.63,19.08a27,27,0,0,1-9.87,11.75,25.3,25.3,0,0,1-13.92,4,21.74,21.74,0,0,1-9.27-1.79,19.15,19.15,0,0,1-6.22-4.57,22.26,22.26,0,0,1-3.69-5.56H1004v36.17Z" fill="#949a9e"/><path d="M1092.24,572a11.59,11.59,0,0,0,7.79-2.67,16.48,16.48,0,0,0,4.73-7.29,35.14,35.14,0,0,0,0-21,16.68,16.68,0,0,0-4.73-7.3,11.54,11.54,0,0,0-7.79-2.68,11.87,11.87,0,0,0-7.9,2.68,16.19,16.19,0,0,0-4.79,7.3,35.14,35.14,0,0,0,0,21,16,16,0,0,0,4.79,7.29,11.92,11.92,0,0,0,7.9,2.67m-.08,14.52a34.33,34.33,0,0,1-17.71-4.38,29.64,29.64,0,0,1-11.52-12.24,43.3,43.3,0,0,1,0-36.57,29.55,29.55,0,0,1,11.52-12.23,37.9,37.9,0,0,1,35.41,0,29.68,29.68,0,0,1,11.52,12.23,43.3,43.3,0,0,1,0,36.57,29.77,29.77,0,0,1-11.52,12.24,34.32,34.32,0,0,1-17.7,4.38" fill="#949a9e"/><path d="M1169.24,570.42c-.46.1-1.13.22-2,.38a14.66,14.66,0,0,1-2.64.25,8.59,8.59,0,0,1-3.32-.59,4.25,4.25,0,0,1-2.22-2,8.46,8.46,0,0,1-.8-4V531.69H1171V517.61h-12.72V501.42H1139.5v16.19h-9.25v14.08h9.25v35.22a19.79,19.79,0,0,0,2.76,11,16.69,16.69,0,0,0,7.91,6.43,28.42,28.42,0,0,0,11.86,1.79,33.26,33.26,0,0,0,6.21-.71c1.69-.41,3-.74,4-1Z" fill="#949a9e"/><path d="M1212,586.54q-10.43,0-17.93-4.25a28.8,28.8,0,0,1-11.56-12.06,43.84,43.84,0,0,1,0-36.81A29.8,29.8,0,0,1,1194,521.14a33.16,33.16,0,0,1,17.32-4.41,35.59,35.59,0,0,1,12.47,2.15,28.06,28.06,0,0,1,10.12,6.39,29.42,29.42,0,0,1,6.76,10.72,43.15,43.15,0,0,1,2.42,15.07v5.16H1186V544.6h39.43a14.28,14.28,0,0,0-1.76-7.18,12.85,12.85,0,0,0-4.86-4.9,14.09,14.09,0,0,0-7.2-1.78,14.42,14.42,0,0,0-7.55,2,14.09,14.09,0,0,0-5.13,5.24,15.05,15.05,0,0,0-1.89,7.28v11a18.6,18.6,0,0,0,1.88,8.66,13.32,13.32,0,0,0,5.3,5.64,15.91,15.91,0,0,0,8.14,2,17.38,17.38,0,0,0,5.72-.89,11.85,11.85,0,0,0,4.45-2.63,11.48,11.48,0,0,0,2.81-4.32l17.33,1.15a23.41,23.41,0,0,1-5.38,10.89,26.85,26.85,0,0,1-10.48,7.22,39.28,39.28,0,0,1-14.76,2.58" fill="#949a9e"/><path d="M1273.15,547v39.08h-18.74V518.5h17.87v11.94h.79a19,19,0,0,1,7.52-9.36,22.91,22.91,0,0,1,12.81-3.45,23.85,23.85,0,0,1,12.27,3.07,21,21,0,0,1,8.15,8.79,29.5,29.5,0,0,1,2.9,13.57v43.05H1298V546.42q0-6.21-3.18-9.71a11.39,11.39,0,0,0-8.83-3.5,13.28,13.28,0,0,0-6.68,1.63,11.22,11.22,0,0,0-4.49,4.73,16.59,16.59,0,0,0-1.65,7.46" fill="#949a9e"/><path d="M1363.69,571.31c-.47.11-1.14.22-2,.38a14.64,14.64,0,0,1-2.63.25,8.76,8.76,0,0,1-3.33-.58,4.29,4.29,0,0,1-2.21-2,8.23,8.23,0,0,1-.8-4V532.59h12.72V518.51h-12.72v-16.2h-18.75v16.2h-9.24v14.08h9.24V567.8a19.68,19.68,0,0,0,2.77,11,16.65,16.65,0,0,0,7.9,6.42,28.65,28.65,0,0,0,11.87,1.8,33,33,0,0,0,6.2-.72c1.7-.41,3-.74,4-1Z" fill="#949a9e"/><path d="M1377.34,518.51h18.75v67.61h-18.75Zm9.46-8.71a10.19,10.19,0,0,1-7.17-2.77,9,9,0,0,1,0-13.41,10.62,10.62,0,0,1,14.33,0,9.06,9.06,0,0,1,0,13.4,10.06,10.06,0,0,1-7.16,2.8" fill="#949a9e"/><path d="M1433.23,574.44a15.58,15.58,0,0,0,7.32-1.65,12.72,12.72,0,0,0,5-4.46,11.66,11.66,0,0,0,1.79-6.38v-7.17a10.13,10.13,0,0,1-2.39,1,32.86,32.86,0,0,1-3.41.83c-1.27.25-2.52.47-3.79.66l-3.43.51a22.53,22.53,0,0,0-5.77,1.55,9.28,9.28,0,0,0-3.82,2.82,7,7,0,0,0-1.37,4.43,6.72,6.72,0,0,0,2.8,5.83,11.87,11.87,0,0,0,7.1,2m-5.37,12.94a27.71,27.71,0,0,1-11.52-2.27,18.09,18.09,0,0,1-8-6.72,19.92,19.92,0,0,1-2.93-11.16,19.55,19.55,0,0,1,2.07-9.46,16.83,16.83,0,0,1,5.64-6.17,27.38,27.38,0,0,1,8.12-3.51,59.74,59.74,0,0,1,9.56-1.68q5.89-.61,9.5-1.16a13.41,13.41,0,0,0,5.25-1.65,3.69,3.69,0,0,0,1.62-3.27v-.26a8.13,8.13,0,0,0-2.61-6.47c-1.75-1.52-4.23-2.29-7.42-2.29a13.14,13.14,0,0,0-8.05,2.23,10.39,10.39,0,0,0-4,5.57l-17.35-1.41A23.77,23.77,0,0,1,1413,527a25.54,25.54,0,0,1,10-7,38.3,38.3,0,0,1,14.24-2.45A43.89,43.89,0,0,1,1448,519a28.35,28.35,0,0,1,9.19,4.1,19.94,19.94,0,0,1,6.37,7.1,21.68,21.68,0,0,1,2.34,10.36V586.1h-17.79v-9.37h-.52a18.79,18.79,0,0,1-4.36,5.57,19.6,19.6,0,0,1-6.56,3.74,26.86,26.86,0,0,1-8.85,1.34" fill="#949a9e"/><rect x="1477.68" y="495.97" width="18.76" height="90.14" fill="#949a9e"/></svg>