<svg xmlns="http://www.w3.org/2000/svg" viewBox="0 0 1813.09 387.38"><path d="M185.19,387.38l-.56-1.05c-2.78-5.17-1.27-10.25.06-14.73l0-.13a67.11,67.11,0,0,1,4.35-10.3c.56-1.15,1.13-2.31,1.66-3.47a17.78,17.78,0,0,1,1.5-2.5c.24-.35.48-.71.71-1.07,1.52-2.48,1.4-3.26,1.33-3.44s-.54-.83-3.41-1.55c-4.54-1.15-8.94-2.34-13.06-3.55a9.1,9.1,0,0,0-2.5-.38,7,7,0,0,0-4.27,1.47c-1.32,1-2.64,1.94-4,2.91-3.86,2.82-7.85,5.75-11.63,8.77-4.44,3.56-6.45,8.52-8.25,15.38-.09.34-.16.68-.24,1a12.73,12.73,0,0,1-1,3.18,6.93,6.93,0,0,1-2,2.16c-.22.18-.44.35-.64.53l-1.74,1.59-1.29-2a6.15,6.15,0,0,0-.51-.66,5,5,0,0,1-1.48-3.11,36.45,36.45,0,0,1,.77-7.75c1.71-8.15,6.39-14.93,14.3-20.72,2.79-2,5.06-3.74,7.15-5.35,1.7-1.32,1.61-1.48,1.42-1.81a1.06,1.06,0,0,0-1.06-.63,3.59,3.59,0,0,0-1.49.39A23.11,23.11,0,0,0,154,344.4c-.92.83-1.87,1.65-2.81,2.46-4.47,3.85-8.69,7.49-10.87,12.9a4.27,4.27,0,0,1-2.89,2.18c-.28.1-.55.2-.79.31l-2,1-.77-2.12a9.81,9.81,0,0,0-.45-1,5.87,5.87,0,0,1-.86-3.77c1-4.92,3.78-9.12,8.68-13.23l1-.86c1.77-1.48,3.59-3,5.23-4.6,1-1,1.29-1.64,1.25-1.93s-.57-.92-1.91-1.65c-4.62-2.49-9.27-5.09-13.78-7.6l-3.56-2a6.84,6.84,0,0,1-1.79-1.4c-2.16-2.46-4.47-3.65-7.06-3.65a13.39,13.39,0,0,0-6.58,2.09l-1.11.64a63.64,63.64,0,0,0-9.63,6.35,19.87,19.87,0,0,0-3.65,4.95c-.46.77-.92,1.54-1.4,2.28a4.34,4.34,0,0,0-.38,1,11.85,11.85,0,0,1-.43,1.2c-.07.14-.13.29-.2.45-.5,1.2-1.43,3.43-3.8,3.43a3.84,3.84,0,0,1-1.61-.37c-2.22-1-2.4-4.71-2.21-5.95,1.14-7.56,5.59-13.27,13.59-17.44l1.33-.69c2.45-1.27,5-2.58,7.3-4.07,1.5-1,2.31-1.86,2.5-2.73s-.19-2-1.14-3.44c-3.92-6-8.5-12.95-13.39-19.48A15.25,15.25,0,0,0,94,283.25c-10.9-4.87-19.29-12.91-25.64-24.58-4.68-8.58-11.07-17.18-19.53-26.27a75.24,75.24,0,0,1-17.58-31.71c-1.95-6.94-3.67-14.06-5.33-20.94-.69-2.85-1.37-5.69-2.08-8.53l-1.12-4.51c-1.31-5.24-2.67-10.65-3.87-16A47.92,47.92,0,0,1,18,142.5c-.26-5.23-.5-10.84-.56-16.44-.16-15.16-2.26-31.24-6.4-49.15C9.9,72,7.12,67.9,4.18,63.55L4,63.32A26.15,26.15,0,0,1,.25,54.83a8,8,0,0,1,1.3-6.75,7.06,7.06,0,0,1,5.7-2.59,7.94,7.94,0,0,1,.83,0,21.89,21.89,0,0,1,7,1.6,77.79,77.79,0,0,0,21.53,5.55c5.86.77,11.56,2.68,17.08,4.52l3.86,1.28a62.32,62.32,0,0,0,17.57,3,43,43,0,0,1,7.59,1.13c1.74.37,3.39.72,5.05.91,6.14.72,12.43,1.27,18.5,1.81l3,.26,3.19.3c3.2.32,6.52.64,9.73.64h.54a151.71,151.71,0,0,0,16.86-1.14,170.25,170.25,0,0,1,21-1.47,103,103,0,0,1,15,1.05,17,17,0,0,0,2.53.19A15.77,15.77,0,0,0,186.05,63l.88-.49c7.54-4.23,15.34-8.6,23.36-12.24,10.13-4.58,21.08-6.36,30.45-7.5a275.54,275.54,0,0,1,33-1.65c4.64,0,9.35.06,13.9.11,3.21,0,6.42.08,9.63.1,8.14,0,16.74,2.13,25.56,6.19A14.59,14.59,0,0,0,329,49a16.56,16.56,0,0,0,8.47-2.65A202,202,0,0,1,406,20.63a100,100,0,0,0,27.34-8.42c10-4.86,21.52-8.62,36.28-11.86A15,15,0,0,1,472.81,0,11.44,11.44,0,0,1,483.4,6.24a47.84,47.84,0,0,1,3.71,11.66c3,13.27,2.88,26.86,2.8,40,0,2.25,0,4.49,0,6.74a14.23,14.23,0,0,0,.18,1.85c.05.35.1.7.14,1.06v20.6c-.26,1.92-.55,3.85-.84,5.77-.63,4.15-1.28,8.43-1.54,12.62-.31,4.93-.44,10-.56,14.84-.15,5.43-.29,11-.68,16.57a230.27,230.27,0,0,1-11.07,55.71c-3.42,10.41-6.12,20.8-8.31,29.58A32.67,32.67,0,0,1,453,243.3c-2.85,1.9-5.63,4.07-8.32,6.16-2.08,1.62-4.23,3.3-6.43,4.86a43.11,43.11,0,0,1-8.18,4.61,22.62,22.62,0,0,0-10,7.87,95.78,95.78,0,0,1-7,8.55c-1.87,2.08-2,3-2,3.37s.69,1.31,3.16,2.68c13.54,7.52,24.91,13.91,36.36,20.62a48.12,48.12,0,0,1,7.23,5.55q1.07.93,2.13,1.83a7.54,7.54,0,0,1,2.15,3.29,4.19,4.19,0,0,1-.88,3.84,3,3,0,0,1-2.33.89,9,9,0,0,1-1.08-.08,4,4,0,0,1-1.73-.71l-.21-.13L447,311.31q-9.36-5.44-18.72-10.87l-3.73-2.15c-5.28-3.06-10.74-6.23-16.21-9.11-2.17-1.15-3.51-1.64-4.46-1.64-1.16,0-2.34.78-4.85,3.22-2.9,2.82-6,5.72-10.11,9.42-.84.76-1.32,1.5-1.27,2s.62,1,1.54,1.56c1.71,1,3.57,1.88,5.36,2.74l1.11.54q6.76,3.27,13.54,6.51c10.87,5.21,22.12,10.6,33.06,16.14a65.42,65.42,0,0,1,10.54,7.17c.9.71,1.8,1.41,2.71,2.1a11.93,11.93,0,0,1,3.37,4.51,4.76,4.76,0,0,1-.85,4.76,3.63,3.63,0,0,1-2.68,1,4.86,4.86,0,0,1-2-.43,19.86,19.86,0,0,1-3.84-2.7c-6.87-5.77-14.53-9.84-21.11-13.05-3.94-1.92-7.89-4-11.71-5.94s-7.57-3.91-11.39-5.78l-1-.49.05,0c3.42,2.54,6.85,5.09,10.3,7.6q3.84,2.79,7.71,5.53c3.33,2.37,6.76,4.82,10.11,7.29a26.12,26.12,0,0,1,5.55,5.29c1.11,1.52,1.42,4.72.15,6.42a3.45,3.45,0,0,1-2.84,1.51,6,6,0,0,1-3.52-1.57l-.28-.21-8.94-6.55c-5-3.69-10.26-7.5-15.35-11.3-1.47-1.1-2.88-2.28-4.24-3.43a66.31,66.31,0,0,0-5.4-4.24c-3.55-2.4-7.43-4.54-11.18-6.61l-.93-.51c-2.09-1.16-4.35-2.2-6.53-3.2l-1.69-.78a20.05,20.05,0,0,0-3.54-1.39,3.58,3.58,0,0,0-.89-.12,2.65,2.65,0,0,0-2.35,1.49c-.22.36-.31.51,1.11,1.8.71.64,1.4,1.28,2.08,1.92a55.31,55.31,0,0,0,7.32,6.1c8.74,5.71,16.71,13,25.83,23.74,2.74,3.21,5.71,7.19,7,12.4a8.59,8.59,0,0,1,.23,3.7,4,4,0,0,1-3.87,3.46,4.31,4.31,0,0,1-2.74-1,10.93,10.93,0,0,1-2.48-2.94c-6-10.1-14.18-18.48-20.63-24.65A186.54,186.54,0,0,0,367.63,327l-3.34-2.54a8.5,8.5,0,0,0-5.09-2,9.12,9.12,0,0,0-5.38,2.17c-1,.77-1.1,1.16-1.1,1.17s0,.32.75,1c6.73,6.22,13.63,12.45,20.12,18.3,2,1.81,4.05,3.6,6.08,5.39,3.8,3.34,7.73,6.8,11.45,10.37,4,3.86,6.05,8.18,6,12.86a5.39,5.39,0,0,1-1.08,2.86,7.45,7.45,0,0,0-.39.65l-1,1.92-1.85-1.1c-.21-.12-.45-.22-.69-.33a4.61,4.61,0,0,1-2.59-2.09C386,367.7,379.67,362.48,373,357c-1.72-1.43-3.5-2.9-5.21-4.41-2.4-2.1-4.68-4.37-6.88-6.56-1.68-1.67-3.42-3.39-5.17-5-2.82-2.61-5.77-5.07-9.33-8a6.2,6.2,0,0,0-3.94-1.55,6.88,6.88,0,0,0-3.42,1c-13.49,7.75-28.76,12.87-49.5,16.58a125.81,125.81,0,0,1-22,2c-3.35,0-6.73-.14-10-.42-1.28-.11-2.63-.17-4.15-.17-2.21,0-4.49.12-6.7.23-1.64.08-3.35.17-5,.21l-.51,0q-.41,0-.81.06c-2.63.05-5.25.12-7.88.19-5.42.15-11,.3-16.53.3l-2.87,0h-.17a11.47,11.47,0,0,0-10,5c-6.19,8.26-9.59,15.76-10.71,23.61a14.83,14.83,0,0,1-1.59,4.39c-.26.54-.52,1.08-.74,1.62l-.51,1.24Zm33-46.18a3.47,3.47,0,0,0,1.06.21c1,.07,2,.1,3.15.1,2.05,0,4.16-.11,6.21-.22,1.45-.08,2.91-.15,4.35-.2,2.11-.06,4.21-.16,6.32-.26,3.29-.16,6.7-.33,10.06-.33,1.66,0,3.18,0,4.64.12l.43,0c4.67.25,9.51.52,14.21.52a77.73,77.73,0,0,0,17.11-1.64c8.66-1.91,17.85-4,26.71-6.7a102.36,102.36,0,0,0,13-5.32c1.25-.58,2.51-1.16,3.76-1.72,2.09-.94,2.3-2.07,2.22-3.14-.19-2.34-.09-4.14,1-5.34a3.5,3.5,0,0,1,2.65-1.08,10.7,10.7,0,0,1,3.82,1,9.25,9.25,0,0,0,3.4.69,8.54,8.54,0,0,0,4.07-1.07,4.27,4.27,0,0,0,1.05-1,4.07,4.07,0,0,0-1.08-.84,24.91,24.91,0,0,0-3.09-1,25.46,25.46,0,0,1-4.25-1.46c-1.63-.77-3.76-3.27-3.4-5.4a3.81,3.81,0,0,1,1.72-2.69h-.56a11.76,11.76,0,0,1-9.34-4.54c-1.36-1.61-2.79-3.21-4.18-4.76q-1.58-1.77-3.14-3.55a42.8,42.8,0,0,1-9.46-17.05,6.14,6.14,0,0,1,.63-3.92c.16-.39.31-.76.4-1.07l.73-2.6,2.28,1.47c.29.19.61.36.93.53a7.5,7.5,0,0,1,2.8,2.13,41,41,0,0,1,2.4,3.87c.67,1.18,1.31,2.3,2,3.34,1.34,1.9,2.83,2.78,4.69,2.78a8.2,8.2,0,0,0,2.56-.47,84.17,84.17,0,0,0,8.69-3.29,69.51,69.51,0,0,1,29.34-6.88c1.3,0,2.61,0,3.9.12a171.42,171.42,0,0,1,17.53,2.35c2,.34,4.07.68,6.11,1a15.87,15.87,0,0,0,2.55.24,4.84,4.84,0,0,0,3.53-1.2,63.19,63.19,0,0,0,6.63-7.09,5.69,5.69,0,0,0,.91-3.16c0-6.27.68-7,5.94-9.5l.51-.25A173,173,0,0,0,433,243.34a83.61,83.61,0,0,0,6.74-5c2.12-1.67,4.3-3.4,6.62-4.91A21.81,21.81,0,0,0,456,220l.42-1.59c2.5-9.48,5.08-19.28,8.2-28.75a223,223,0,0,0,11.38-72c0-4.32.33-8.67.68-12.87l.21-2.58c.25-3.27.56-6.58.86-9.79.5-5.38,1-10.94,1.31-16.41.14-2.73,0-5.56-.08-8.3a87.38,87.38,0,0,1,0-9.44c.92-13.05-.92-26.18-2.69-38.88l-.49-3.52c-.51-3.72-2.29-4.2-3.78-4.2a8.84,8.84,0,0,0-2.24.34c-11.41,3.12-23.57,6.79-35.15,12.5-9.93,4.9-20.29,9.26-30.32,13.48-5.17,2.19-10.52,4.44-15.74,6.74-12.26,5.39-25.17,11.36-36.51,19.73-9,6.65-14.2,13.12-16.8,21a7,7,0,0,1-1.77,3.17,7.16,7.16,0,0,1-2.39,1.33c-.24.09-.49.18-.72.29l-1.82.85-.84-1.82a8,8,0,0,0-.42-.73,4.57,4.57,0,0,1-1-3.45c1.74-7.23,4.12-15.45,10.48-21.66,9.63-9.4,21.22-17.24,35.44-24l4.67-2.18a194.19,194.19,0,0,0-33,15.56,32.36,32.36,0,0,1-13.06,4.88,6.38,6.38,0,0,0-5.61,3.9c-1.23,2.52-2.53,5.05-3.78,7.5-2.06,4-4.18,8.17-6.06,12.33-1.47,3.26-3,7.11-3.35,10.88-.65,7.37-1.06,14.89-1.45,22.17-.27,4.88-.54,9.94-.88,14.91s-1.16,10-1.89,14.29a6.28,6.28,0,0,1-3.17,4l-.47.26-.61,0a5.23,5.23,0,0,1-4-3.27c-.38-1.44-.8-2.89-1.21-4.33-1.26-4.35-2.56-8.86-2.78-13.46a101.86,101.86,0,0,1,.75-15.26c.23-2.31.46-4.7.62-7a79.63,79.63,0,0,1,9-31.27c1.78-3.46,3.77-6.86,5.69-10.15,1-1.77,2.06-3.54,3.07-5.33s1-2.63.92-2.93-.59-.91-2.64-1.68a46.58,46.58,0,0,0-5.79-1.82A85.32,85.32,0,0,0,287.74,49c-1.5,0-3,0-4.49.13-2.55.16-5.31.23-8.68.23-2,0-4.07,0-6.1-.05s-4,0-6.05,0-3.73,0-5.34.08A156.65,156.65,0,0,0,238.68,51C223.76,53.28,209.42,59,194.84,68.4c-1.36.88-2.14,1.72-2.2,2.36s.54,1.53,1.68,2.57c2.12,2,4.37,3.85,6.55,5.69s4.44,3.75,6.6,5.73c6.19,5.68,12.64,11.87,17.38,19.49,6.15,9.88,8.87,20.77,10.73,30.12a56.92,56.92,0,0,1,1,11.94,8.2,8.2,0,0,1-3.4,6.08,4,4,0,0,1-2.25.71c-2.23,0-3.75-1.87-4.76-3.1a14.83,14.83,0,0,1-2.33-3.91,49.7,49.7,0,0,1-2.47-7.28c-4.07-17.62-12.68-33.15-26.33-47.47-2.44-2.56-4.66-5.36-6.81-8.07-1.52-1.92-3.09-3.9-4.71-5.75-1.9-2.18-3.09-2.68-3.64-2.8l-3.12-.64c-5.44-1.15-11.07-2.33-16.5-2.34H160c-5.6,0-11.34.57-16.9,1.12-3.37.34-6.86.69-10.3.91-3.68.24-7.3.36-10.75.36-1.88,0-3.75,0-5.56-.11-5.35-.2-10.78-.55-16-.88l-6.62-.41.14,0c1.13.49,2.3,1,3.44,1.55A65.86,65.86,0,0,0,125.67,81a84.48,84.48,0,0,1,10,1l2,.27c6.64.91,12.8,3.3,18.76,5.61,3.31,1.29,6.74,2.61,10.16,3.64,9.07,2.74,16.46,8.15,22.58,16.54a124.39,124.39,0,0,1,7.67,12.27,5,5,0,0,1,0,3.89,8.88,8.88,0,0,0-.23,1l-.35,2.27-2.2-.65a9.39,9.39,0,0,0-1-.21,5.59,5.59,0,0,1-3.36-1.46,49.38,49.38,0,0,1-4.9-6.62c-5.41-8.26-12.45-13.44-21.51-15.83-3.46-.92-6.82-1.92-10-3a123.23,123.23,0,0,0-36.22-6.11,59.45,59.45,0,0,1-16.07-2.82c-6.69-2.08-13.29-4.72-19.67-7.28l-2.92-1.16c-2.29-.91-4.54-2-6.72-3-2.92-1.34-5.94-2.72-9-3.77-13.94-4.82-28.21-9.48-42-14l-4.35-1.42h-.11l-.21,0a2.47,2.47,0,0,0,.12.47c.59,1.42,1.28,2.85,1.94,4.25a48.27,48.27,0,0,1,3.45,8.57c5.14,19.61,6.42,39.55,7,58.16,0,1.18.07,2.37.09,3.55A72.92,72.92,0,0,0,30,149.42c4.37,19.19,8.34,34.83,12.51,49.23,3.16,10.91,7.09,18.26,12.74,23.82C62.91,230,69,238.78,74.51,247.14l.87,1.33a107.72,107.72,0,0,0,8.54,11.72c4.81,5.47,9.34,10.08,16.15,11.14l1.31.2c1.32.19,2.68.39,4,.7a6.94,6.94,0,0,1,4.68,3,6.28,6.28,0,0,1,.43,5c-.5,1.82-.14,3.24,1.31,5.07.78,1,1.59,2,2.4,3a84.79,84.79,0,0,1,6.37,8.5c3.84,6.12,5.3,7.45,8.21,7.45a28.93,28.93,0,0,0,6.8-1.23l13.47-3.56c10.14-2.7,20.62-5.49,31-8a140.14,140.14,0,0,1,33.15-4.21c2.51,0,5,.09,7.5.24l.73,0a6.86,6.86,0,0,0,6.41-3.48c1.43-2.48,2.71-5.14,3.95-7.72.63-1.31,1.27-2.62,1.92-3.91l.53-1.08a21.55,21.55,0,0,1,2.15-3.8,4.68,4.68,0,0,1,3.7-1.94,3.91,3.91,0,0,1,2.3.73,3,3,0,0,1,1.07-.52l3.24-.85-.79,3.25c-.15.65-.31,1.26-.47,1.85-.3,1.16-.56,2.16-.72,3.16-1.39,8.67-4.59,15.4-9.8,20.57-1.16,1.16-2.41,2.19-3.62,3.2-.62.52-1.24,1-1.85,1.56-1.48,1.3-1.57,2-1.56,2.13s.13.75,1.56,1.79c.71.53,2.88,2.12,2.69,4.39s-2.53,3.42-3.29,3.81l-.53.26c-3.71,1.88-7.55,3.81-11.4,5.6a155.23,155.23,0,0,0-29.38,17.38,5.11,5.11,0,0,0-1.34,1.6,4.31,4.31,0,0,0,1.66,1.11,101.76,101.76,0,0,0,11.77,3.05,10.24,10.24,0,0,0,1.89.18,9,9,0,0,0,6.2-2.51l.75-.68c3.54-3.23,7.2-6.56,10.84-9.8l.85-.76c2.73-2.42,5.55-4.93,8.54-7.19a3.9,3.9,0,0,1,2.45-.72c.41,0,.85,0,1.29.08s.62.06.91.06l2.22-.05-.11,2.22a8.77,8.77,0,0,0,0,1,7.09,7.09,0,0,1-.62,3.52,11.09,11.09,0,0,1-2.75,3l-.77.68c-1.43,1.31-2.88,2.62-4.32,3.92-2.63,2.37-5.34,4.83-7.93,7.3A3.87,3.87,0,0,0,218.17,341.2ZM173.72,331l.87-.37a22.46,22.46,0,0,0,3.1-1.49c3.65-2.31,7.27-4.63,10.73-6.85-5,2.45-9.6,4.76-13.56,6.73a3.5,3.5,0,0,0-1.25,1,5.83,5.83,0,0,0-.39.65Zm40.46-34.43-.66,0-2.37.18a119,119,0,0,0-14.38,1.71c-12.85,2.63-26,5.57-40.31,9-6.87,1.66-13.71,3.9-19.49,5.87-1,.34-1.33.74-1.36.9s.1.8,1,1.69a11.44,11.44,0,0,0,3,2.29c5.11,2.4,10.52,4.83,16.07,7.2a11.09,11.09,0,0,0,2.49.6c.5.09,1,.17,1.49.28l.31.07,1.09-.48c1.68-.73,3.28-1.43,4.8-2.26,2.21-1.21,4.43-2.51,6.58-3.76s4.28-2.51,6.47-3.71c9.86-5.41,20.78-10.14,35.41-15.34,2.07-.73,3.38-1.9,3.2-2.83C217.4,297.38,216.29,296.53,214.18,296.53Zm131.66,8.73c3.23.92,6.58,1.87,9.87,2.68a17.57,17.57,0,0,0,4.17.47h.8a1.58,1.58,0,0,0,.15-.12,1.18,1.18,0,0,0-.23-.31,11.43,11.43,0,0,0-2.5-1.11l-.92-.34c-4.84-1.86-10-2.14-14.44-2.14Zm24.51-26-1.4.12-2.9.21c-2.05.14-4.17.29-6.21.54-9,1.11-17.08,4.63-23.82,7.92a3.53,3.53,0,0,0-1.2,2.12,4.46,4.46,0,0,0,1.29,2.89,6.22,6.22,0,0,0,3.61,2.27c1.74.11,3.49.2,5.23.29s3.37.17,5.05.28c1.52.1,3.1.15,4.63.19a54.22,54.22,0,0,1,11.46,1.15,20.09,20.09,0,0,0,4.88.64h0c4.09,0,7.59-1.47,11-4.63,1-.88,2-1.75,2.94-2.62a80.13,80.13,0,0,0,6.38-6c.39-.44.61-.85.55-1.09s-.53-.74-1.42-1.11a9.66,9.66,0,0,0-2.31-.67q-7.39-1.05-14.79-2.06l-3-.41Z"/><path d="M65.66,166.68a3.52,3.52,0,0,1-3.36-2.26c-.83-1.89-.47-4.16,0-6.13a6.8,6.8,0,0,1,1.4-2.58c0-.08.11-.15.17-.23a15.08,15.08,0,0,0-2.47,1.08,18.65,18.65,0,0,1-9.07,2.4,19.49,19.49,0,0,1-2-.11c-2-.21-3.88-.64-4.36-2.29a8.61,8.61,0,0,1,.23-4.95,8.86,8.86,0,0,1,1.38-2.37,6.86,6.86,0,0,0,.76-1.15c.91-1.92.54-3.1-1.36-4.36-1.13-.75-2.64-2.65-2.44-4.54a54.66,54.66,0,0,1,1.24-6.51l.36-1.58a11.62,11.62,0,0,1,.46-1.47,5.26,5.26,0,0,0,.35-1.21c0-.53-.07-.69-.08-.69h0a1.1,1.1,0,0,0-.5-.14,5.2,5.2,0,0,1-5-6.86c.56-3.06.2-4-1.85-4.79A4.08,4.08,0,0,1,37,112.65a5.84,5.84,0,0,1,1.89-5.3c.34-.28.69-.55,1-.83a11.27,11.27,0,0,0,2-1.79,1.62,1.62,0,0,0,.27-.56,10.74,10.74,0,0,0-1.15-.37,1.18,1.18,0,0,0-.37,0l-.61,0q-.44,0-.87,0H38.09c-1,.15-2,.3-3.06.43a6.88,6.88,0,0,1-.89.06,5.5,5.5,0,0,1-5.4-4.39,5.24,5.24,0,0,1,3.49-6.6c1.82-.67,3.63-1.36,5.45-2C43.27,89.18,49,87,54.81,85.09a49.37,49.37,0,0,1,9.38-1.83L65.88,83a46.12,46.12,0,0,1,6-.53,19.44,19.44,0,0,1,2.48.15,31.88,31.88,0,0,1,10.14,2.9c4,2,8,4.33,11.84,6.57,1.67,1,3.34,2,5,2.91,3.18,1.81,4.88,4.74,6.39,7.32.5.86,1,1.68,1.5,2.46.94,1.41.06,3.47,0,3.49l-.51,1-1.19.12-.55.05c-.43,0-.87.08-1.29.08a4.08,4.08,0,0,1-2.29-.59,35.82,35.82,0,0,1-3.55-2.79c-.56-.49-1.12-1-1.69-1.43-7.42-5.92-13.58-9.2-20-10.64a25.91,25.91,0,0,0-5.66-.6,45.76,45.76,0,0,0-11.92,1.84l.07.08,0,0a3.9,3.9,0,0,1,.57.51c1.89,2.09,2.8,9.11,1.53,11.73a11.64,11.64,0,0,0-.71,1.71,9.54,9.54,0,0,0,1.16.06h.83a4.61,4.61,0,0,1,4.08,1.94,4.35,4.35,0,0,1,.06,4.34,72.7,72.7,0,0,1-3.59,6.52l-1,1.62c-.33.56-.69,1-1,1.53a9.22,9.22,0,0,0-1,1.57v0a1.93,1.93,0,0,0,.36-.06,6,6,0,0,0,1.21-.5,7.93,7.93,0,0,1,2.82-.9h.32a7.92,7.92,0,0,1,3,.74c.31.12.61.25.92.34l2,.6-.64,1.94c-.12.35-.22.7-.32,1.06a13,13,0,0,1-1.1,2.92,18.11,18.11,0,0,1-1.54,2.19,12.27,12.27,0,0,0-1.37,2,4.77,4.77,0,0,0-.1,1.42,13.39,13.39,0,0,1,0,1.4c-.07.77-.16,1.53-.26,2.3l.58-.3L77,137l9.6-5.17.35-.2a5.19,5.19,0,0,1,2.63-.91h.24c2.53.19,4.67.49,5.32,2.26a7.38,7.38,0,0,1-.68,6.08,32.44,32.44,0,0,1-3.83,4.45c-.54.55-1.07,1.09-1.58,1.65l-.59.59a3.83,3.83,0,0,0-.58.63l-.11.24a12.19,12.19,0,0,0-.53,1.41,10.44,10.44,0,0,0,1.48.57l.23.08.48,0a7.86,7.86,0,0,1,.83-.05,5.55,5.55,0,0,1,.72.05c1.5.24,3.77.6,4,2.53a6.47,6.47,0,0,1-1.1,4.57,8.44,8.44,0,0,1-2.61,1.9,11,11,0,0,0-1.06.62c-1,.67-1.94,1.37-2.91,2.06-1.51,1.1-3.08,2.23-4.69,3.28A12.84,12.84,0,0,1,75.46,166a11.89,11.89,0,0,1-3.15-.43,2.52,2.52,0,0,0-.66-.07,12.27,12.27,0,0,0-2.81.5c-.28.07-.53.15-.78.23A7.87,7.87,0,0,1,65.66,166.68Z"/><path d="M131.19,281a6.83,6.83,0,0,1-5.18-3,14.42,14.42,0,0,1-1.53-4.32c-.13-.53-.25-1.06-.4-1.57l-.5-1.71.8-.34a10.66,10.66,0,0,1,.36-2.34C129.28,252.54,135.9,240.89,145,232c3-3,6.76-5.13,10.38-7.22,1-.57,1.94-1.13,2.9-1.71a244.66,244.66,0,0,0,26.14-18.34,47.15,47.15,0,0,1,7.35-4.52c1-.51,1.92-1,2.86-1.56a5.66,5.66,0,0,1,2.75-.69c1.4,0,2.85-.06,4.25-.11s3.12-.12,4.69-.12a38.66,38.66,0,0,1,6.06.41c7.79,1.21,13.61,5,17.28,11.1.82,1.37,1.73,2.74,2.62,4.07s2,3,2.94,4.6a66.7,66.7,0,0,1,3.15,6.34l.4.86c.39.87.72,1.74,1,2.59a21.4,21.4,0,0,0,1.66,3.7c1.67,2.63,3.49,5.24,5.26,7.77,1.16,1.67,2.33,3.33,3.46,5a20.15,20.15,0,0,1,2.73,5.12,6.26,6.26,0,0,1-.37,5.06,4.06,4.06,0,0,1-2.89,1.89,4.52,4.52,0,0,1-.74.06,8.58,8.58,0,0,1-5.61-2.57,21.41,21.41,0,0,1-2.66-3.62,18,18,0,0,0-2.13-2.95,14.2,14.2,0,0,0-10.41-4.67,15,15,0,0,0-6.2,1.39c-6.68,3-13.65,3.6-19,3.75h-.57a22.89,22.89,0,0,1-11-3,34.94,34.94,0,0,1-14.39-14,14.15,14.15,0,0,0-1.61-2.15l-.24-.28a2.85,2.85,0,0,0-2-1.18,2.67,2.67,0,0,0-1.46.53l-2.23,1.53c-5.24,3.6-10.66,7.32-15.68,11.31a25.39,25.39,0,0,0-4.88,6l-.75,1.12c-5.53,8.23-8.8,16.38-10,24.9a12.62,12.62,0,0,1-1.89,5.3c-.79,1.15-2.73,3.11-5,3.18Zm74.4-73.52a15.83,15.83,0,0,0-2.76.25c-5.81,1.06-10.14,4.79-13.74,8.19a5.86,5.86,0,0,0-1.43,3.86,23.4,23.4,0,0,0,1.87,7.44c2.45,6.12,9.57,9.42,15,9.42h0a9.12,9.12,0,0,0,2.21-.24,75,75,0,0,0,12.84-5.19L220,231a5.85,5.85,0,0,0,3.48-5.66A17.18,17.18,0,0,0,218.36,213,18.21,18.21,0,0,0,205.59,207.44Z"/><path d="M300.73,256.77a5.3,5.3,0,0,1-1.29-.16c-2.84-.69-4.41-3.28-3.91-6.44a33.8,33.8,0,0,1,2.45-9.12c3.29-6.94,7.07-16.24,7-26.68,0-7.25,1.49-13,4.72-17.68a24.21,24.21,0,0,1,5.9-5.39l.95-.69c5.36-4,11-6,16.68-6,.7,0,1.41,0,2.11.1s1.13-.06,1.67-.06c6.73,0,12.51,2.73,17.66,8.33a17.46,17.46,0,0,0,8.89,5.14l4,1.07a200.33,200.33,0,0,1,22.68,7c10.44,4.15,17.77,12.7,22.42,26.11a10.41,10.41,0,0,1,.41,3.47v.55c.07,5-3,6.57-4.77,7.06a9,9,0,0,1-2.36.33,7.1,7.1,0,0,1-6.1-3.42,24.47,24.47,0,0,1-1.85-3.69l-.37-.85c-3.49-7.89-7.54-15.95-15.13-20.24-4.62-2.61-10-4.32-15.15-6-1.47-.48-2.94-.94-4.39-1.43a1.07,1.07,0,0,0-.35-.06c-.72,0-1.65.95-1.94,2.55-.53,3-.89,5.39-1.14,7.67-.41,3.84-2.22,7.28-5.54,10.54-5.56,5.43-11.65,8.73-18.1,9.8a69.21,69.21,0,0,1-10.82.64c-1.14,0-2.28,0-3.41,0-6.8.15-11.44,3.21-14.18,9.34-.26.59-.49,1.18-.72,1.78-.3.79-.62,1.61-1,2.42C305.23,253.93,303.87,256.77,300.73,256.77Zm14.49-38.51c.16.46.29.92.43,1.38A11,11,0,0,0,317,223a12.29,12.29,0,0,0,10.32,5.21h0a18.17,18.17,0,0,0,3.66-.39c9.12-1.86,15.39-8.57,16.78-18,.85-5.81-3.85-13-9.5-14.55a12.5,12.5,0,0,0-3.19-.4c-7.3,0-15.39,5.31-17.32,11.36a65.17,65.17,0,0,0-1.85,8.24C315.7,215.73,315.48,217,315.22,218.26Z"/><path d="M425.9,185.22a3,3,0,0,0-.3-.19,3.8,3.8,0,0,1-1.63-1.67l-.27-.6a9.51,9.51,0,0,1-1.14-4.13c.17-7.17.73-14.84,3.6-22.31a49,49,0,0,0,1.87-6.58,2.81,2.81,0,0,0-.23-2.35,2.38,2.38,0,0,0-1.85-.65h-.29a9.49,9.49,0,0,1-7.2-3.21c-2.8-2.75-5.41-5.07-8.9-5.47a5.78,5.78,0,0,1-4.25-3.57,2.92,2.92,0,0,0-2.63-2.2,4.58,4.58,0,0,1-4.12-4.67,1.83,1.83,0,0,0-.36-.71c-.23.08-.55.22-.77.31s-.63.27-.92.37a9,9,0,0,0-1,.47,7.05,7.05,0,0,1-3.12,1,3.39,3.39,0,0,1-.45,0,5.4,5.4,0,0,1-4.21-4.19,35.61,35.61,0,0,1,.05-9.36c.69-4.31.39-4.91-3.6-7.19a7.06,7.06,0,0,1-1.95-1.84,5.56,5.56,0,0,0-.81-.88,10.11,10.11,0,0,0-3.15-1.48s-.05,0-.15,0a6.64,6.64,0,0,0-.87.1,9.9,9.9,0,0,1-1.52.15h-.12a4.19,4.19,0,0,1-4.46-4.39,6.44,6.44,0,0,0-.21-1.3l-.15-.64c-.45-2.2-.89-2.57-.91-2.59a7.34,7.34,0,0,0-2.25,1.17c-.57.38-1.13.81-1.72,1.27A21.37,21.37,0,0,1,362.7,100a5.53,5.53,0,0,1-2.67.55l-1,0h-.42l-2.1.16,0-2.11c0-.26-.06-.65-.11-1-.18-1.3-.41-2.93.76-4l1-.94a112.93,112.93,0,0,1,12.19-10.27,8,8,0,0,1,4.42-1.71c1.85,0,4.23,1,5,6.08.08.52.38,1.71,1.42,1.71a2.76,2.76,0,0,0,1.52-.59,8.44,8.44,0,0,1,4.77-2c3.78,0,4.68,4.34,5,5.76.06.28.17.81,1.26.81a3.81,3.81,0,0,0,.85-.11,13.34,13.34,0,0,1,2.84-.34,6.55,6.55,0,0,1,3.45.83c2.37,1.44,3.11,4.36,1.93,7.61-.13.38-.28.75-.44,1.11a7.27,7.27,0,0,0-.61,1.86,3.54,3.54,0,0,0,0,.73l.55-.19.69-.24a9.63,9.63,0,0,0,1.12-.48,7.11,7.11,0,0,1,3.18-.95,4.67,4.67,0,0,1,4.74,4.91,7.89,7.89,0,0,0,.2,2.35,10.29,10.29,0,0,0,2.25.72,4.71,4.71,0,0,1,3.9,5.07c-.14,2.15.47,2.62,1.88,2.86a5.16,5.16,0,0,1,3.64,2.49,4.19,4.19,0,0,0,3.19,2.48c1.48.34,2.32,1.85,2.76,3.06.57,1.56,1.11,1.56,1.62,1.56a4,4,0,0,0,.73-.07,10.06,10.06,0,0,1,1.88-.19c2.4,0,5.3,1.08,5.49,6.24.09,2.35.26,4.75.41,7.07l.21,3.13c.42,6.93-2.06,12.92-4.47,18.71-.58,1.4-1.19,2.86-1.73,4.29a73.35,73.35,0,0,0-2.82,10.28c-.39,1.72-.79,3.5-1.24,5.24a6.19,6.19,0,0,1-.79,1.69c-.09.14-.17.28-.25.43l-1.11,2.11Z"/><path d="M441.08,115.36A6.14,6.14,0,0,1,439,115l-2.79-1c-3.14-1.12-6.39-2.27-9.56-3.52a7,7,0,0,1-2.42-1.83c-.21-.22-.42-.43-.63-.62l-2.47-2.17,3.06-1.2c.32-.12.64-.26.95-.41a12.17,12.17,0,0,1,2.86-1,8,8,0,0,1,1.54-.13c.33,0,.65,0,1,0l.83,0a5.48,5.48,0,0,0,.7,0,6.57,6.57,0,0,0,2.41-.68,4.39,4.39,0,0,0-.33-.36,6,6,0,0,1-1.89-4.42c.11-1.54,1.51-2.3,2.52-2.86.21-.11.41-.22.58-.33.39-.25.8-.49,1.2-.72a2.07,2.07,0,0,0-.19-.32c-2.28-1.08-4.68-2.07-7-3-1.49-.61-3-1.22-4.44-1.86A7.06,7.06,0,0,1,421.49,86a3.92,3.92,0,0,1-.31-3.71c.67-1.48,2.3-2.54,4.58-3,6.21-1.16,11.7-2.39,16.79-3.74a3.92,3.92,0,0,0,1.16-1,6.25,6.25,0,0,0-1.61-1.1,24.29,24.29,0,0,0-3.85-1c-.83-.17-1.7-.35-2.57-.57l-.59-.15c-1.56-.36-3.34-.78-3.82-2.43a26.24,26.24,0,0,1-1.1-7.72c0-1.54,1.2-2.59,2.14-3.44.23-.2.46-.41.65-.61.39-.4.8-.78,1.22-1.16a11.77,11.77,0,0,0,1.45-1.48,4.39,4.39,0,0,1-1.32-7.83,40.22,40.22,0,0,1,4.35-3c.72-.44,1.43-.89,2.13-1.36l.59-.39A19,19,0,0,0,443.24,41a26.41,26.41,0,0,0-5.39,1.4c-2.5,1-5,2-7.52,3-7.46,3-15.18,6.07-22.38,9.77a91.22,91.22,0,0,0-13.42,9.16c-1.65,1.27-3.36,2.59-5.07,3.85a7,7,0,0,0-1.21,1.33,11.33,11.33,0,0,1-1.71,1.88,4.42,4.42,0,0,1-2.79.82,5.66,5.66,0,0,0-.6,0l-2.77.42.51-2.76c0-.15,0-.31.06-.47a5.6,5.6,0,0,1,.47-1.9c5.21-10.71,14.82-16.29,23.42-20.67l1.7-.87c6.5-3.32,13.22-6.75,20.12-9.55,6.72-2.73,13.93-5.39,21.76-5.39h.69c2,0,4-.19,6.16-.39,1-.1,2.05-.19,3.08-.27l2-.14,0,.26,1,0a11.61,11.61,0,0,1,2.24.18c.46.08,4.52.89,4.72,3.43a8.06,8.06,0,0,1-1.88,5.3,7.85,7.85,0,0,1-2.56,1.87,9.48,9.48,0,0,0-1.2.72c-.71.58-.78.87-.79.89h0a1.72,1.72,0,0,0,.44.61,4.83,4.83,0,0,1,1.53,3.6,5.11,5.11,0,0,1-2,3.65c-2.14,1.87-3.68,3.72-4.19,6.65-.46,2.62-3.14,4.61-5.61,6.28-1.67,1.12-1.9,1.69-1.92,1.76h0a5.28,5.28,0,0,0,1.79,1.4c.65.39,1.32.75,2,1.11a29.23,29.23,0,0,1,4.53,2.81c2.26,1.82,2.4,3.69,2.28,4.65s-.74,2.81-3.49,4c-4,1.81-8.14,3.63-12.32,5.39a5.77,5.77,0,0,0-1.55.87,5.75,5.75,0,0,0,1.15,1.1,21.52,21.52,0,0,0,2.24,1.4l.69.39a10.31,10.31,0,0,1,4.67,9.63,13.59,13.59,0,0,0,.12,4.26c.65,3.16-1.34,4.74-2.4,5.59a17.65,17.65,0,0,0-3.83,3.88C445.42,113,443.89,115.36,441.08,115.36Z"/><path d="M110.24,223.31c-.25-.17-.53-.34-.8-.5a8.79,8.79,0,0,1-2.31-1.8l-2.86-3.42C99.7,212.14,95,206.5,90.58,200.74a33.51,33.51,0,0,1-4-7.59l-.72-1.72-.35-.79a39.21,39.21,0,0,1-2.89-8.3,24.06,24.06,0,0,1,0-6.78c0-.55.11-1.11.15-1.66a15.75,15.75,0,0,1,.46-2.58,17.35,17.35,0,0,0,.35-1.81c.44-4.28,2.25-6,6.44-6h3.49c.75,0,1.51,0,2.26,0,1,0,1.45-.22,1.66-1.73a7.11,7.11,0,0,1,1.3-2.89,6.84,6.84,0,0,0,.66-1.15q.15-.44.33-.87a11.49,11.49,0,0,0,1-4c-.09-2,0-3.82,2.36-5.6a4.35,4.35,0,0,0,1.08-2.74c.06-3.33,1.87-5.32,4.83-5.32a6.29,6.29,0,0,1,.73,0,17.27,17.27,0,0,1,3.76,1,18.25,18.25,0,0,0,2.21.67A8.26,8.26,0,0,0,117,141a4.34,4.34,0,0,0-.15-.62c-.87-2.35-.35-3.84.24-4.68.86-1.24,2.34-1.86,4.39-1.86.54,0,1.06,0,1.59,0s1,0,1.46,0a8.35,8.35,0,0,0,1.91-.18c1.46-.35,1.69-1.07,1.58-2.1-.19-1.83,1.85-3.66,3.32-4,1.19-.27,1.51-.83,2.41-2.72a11.59,11.59,0,0,0,.86-7.12,4.5,4.5,0,0,1,1-3.65A4.38,4.38,0,0,1,139,112.7a6.29,6.29,0,0,1,.85.06,35.81,35.81,0,0,1,7,1.64c5.76,2.12,11.41,4.45,15.69,6.24a5.89,5.89,0,0,1,2.2,1.87c.16.19.32.39.49.57l2.69,2.71-3.76.66c-.24,0-.48.1-.72.16a10.13,10.13,0,0,1-2.18.31c-1.28,0-2.48-.08-3.67-.14-1.41-.07-2.75-.14-4.1-.14-.39,0-.78,0-1.17,0-1.67,0-1.84.88-1.87,1.64a2.37,2.37,0,0,1-.53,1.76c-.48.55-1,1.06-1.5,1.54a8.19,8.19,0,0,0-2,2.47,6.69,6.69,0,0,1-6.37,4.76,4.46,4.46,0,0,0-1.47.7l-1.49.92a24.57,24.57,0,0,0-4.33,3.09,3.89,3.89,0,0,0-1.09,2.5,38.22,38.22,0,0,0,1.53,5.19c.47,1.37,1,2.78,1.33,4.23.3,1.17.47,4.68-1.62,5.69a5.27,5.27,0,0,1-2.28.47,7.18,7.18,0,0,1-3.32-.81,46.8,46.8,0,0,1-4.16-2.65c-1.14-.79-2.22-1.53-3.35-2.18a5.92,5.92,0,0,0-.53-.28,7.21,7.21,0,0,0-.24.87,5.52,5.52,0,0,1-3.93,3.73c-2.3.44-2.29.52-2.13,1.93a22.81,22.81,0,0,1,0,4.22c-.17,2.27-.32,4.23.79,6a3.19,3.19,0,0,1,0,3.29,7.31,7.31,0,0,1-6,3.18,5.45,5.45,0,0,1-1.23-.14,6.34,6.34,0,0,1-1.41-.52,5.29,5.29,0,0,0-.6-.25A2.12,2.12,0,0,0,104,178a1.32,1.32,0,0,0-1,.42,1.48,1.48,0,0,0-.3,1.2c.18,1.47.74,6-4.51,7.41a1.26,1.26,0,0,0-.44.66,2.78,2.78,0,0,0,0,2.05,56.24,56.24,0,0,0,4.86,8.9c4.16,5.87,7.61,12.55,11.17,21.66l.42,1.08-2.44,3Z"/><path d="M257.78,331.46c-.76,0-1.49-.06-2.18-.11a4.3,4.3,0,0,1-3.37-3.2c-.37-1.64,1.09-3.38,2.24-3.95,4.38-2.17,8.85-4.32,13.18-6.39l3.2-1.53c.52-.25,1-.48,1.57-.7,1.8-.73,4-1.94,4.42-3.59.33-1.41-.64-3.45-2.82-5.88a36.44,36.44,0,0,0-8.92-6.66,17.13,17.13,0,0,1-7.68-8.22c-1.38-3.12-3-6.22-4.59-9.23-1-1.8-1.93-3.67-2.85-5.55a15.24,15.24,0,0,1-1.85-5.41,6.27,6.27,0,0,1,2.26-5.31,3.29,3.29,0,0,1,1.89-.53,6.32,6.32,0,0,1,4,1.54,16.39,16.39,0,0,1,3.16,5c.63,1.37,1.19,2.76,1.72,4.11.61,1.53,1.19,3,1.86,4.39,1.47,3.06,3.37,3.41,4.67,3.41a7.8,7.8,0,0,0,1.95-.27c5.46-1.38,11.34-3,18.5-5.1,2.21-.64,2.89-1.59,3-4.21.14-3.14.32-5.92.56-8.5a5.17,5.17,0,0,1,1.67-3.54,7.44,7.44,0,0,1,4.2-1.93,3.35,3.35,0,0,1,.71.07,4.88,4.88,0,0,1,2.9,2.61c.09.15.17.29.24.39l.52.68-.11.88c-.37,2.28-.61,4.58-.85,6.8-.72,6.73-1.46,13.69-5.76,19.81a64,64,0,0,0-5.59,10.36,22.87,22.87,0,0,0-2,6.9c-.3,2.8.51,3.87,3.59,4.76q9.12,2.63,18.21,5.3l.14,0a6.74,6.74,0,0,1,2.51,1.17,13.94,13.94,0,0,1,1.73,1.83c.18.22.36.44.55.65l1.68,1.9-2.23,1.19a10.12,10.12,0,0,0-1,.62,6.3,6.3,0,0,1-3.5,1.45l-.28,0a17.73,17.73,0,0,1-4.48-1.12c-.76-.26-1.47-.51-2.18-.68-2.38-.61-4.76-1.17-7.15-1.74-2.23-.53-4.45-1.06-6.68-1.62a13.68,13.68,0,0,0-3.33-.41,22.65,22.65,0,0,0-8.78,2.13c-2.46,1-4.95,2.18-7.35,3.3s-5.17,2.4-7.82,3.49A9.11,9.11,0,0,1,257.78,331.46Z"/><path d="M277.93,155.92c-.24-.29-.52-.57-.8-.85a8.2,8.2,0,0,1-2.13-3,88.81,88.81,0,0,1-2.7-10.1c-.63-3-1.14-6-1.64-8.9-.21-1.26-.43-2.53-.66-3.8l0-.25.11-1.45c.81-10.78,1.65-21.94,5.17-32.4,2.1-6.21,5.22-12.1,8.24-17.79.69-1.3,1.38-2.6,2-3.9,2.62-5,5.6-9.82,8.68-14.69,1.81-2.85,4.19-4.49,6.53-4.49a4.8,4.8,0,0,1,2.38.62c2,1.12,3.7,3.68.8,9.57-1.1,2.26-2.24,4.49-3.38,6.73-2.37,4.65-4.82,9.46-6.91,14.29-3.41,7.9-5.38,16.9-6,27.52-.24,3.83-.37,7.75-.51,11.53-.16,4.58-.32,9.31-.65,14a95.57,95.57,0,0,1-2.31,13.77,5.68,5.68,0,0,1-2.44,3.08,9.69,9.69,0,0,0-.83.7l-1.56,1.52Z"/><path d="M257,154.67a4.52,4.52,0,0,1-3.52-2.11c-.68-1.45-1.4-2.89-2.12-4.33a76.71,76.71,0,0,1-5.38-12.5c-1.5-5-2.67-10.2-3.79-15.2-1-4.53-2.07-9.21-3.36-13.72-4.13-14.42-11.84-27.4-23.55-39.67l-.54-.53c-1.24-1.21-4.13-4-1.14-7.27a4.41,4.41,0,0,1,3.3-1.54c1.94,0,3.55,1.27,4.86,2.5,4.42,4.16,9.43,8.88,14,13.86,5.61,6.15,11.36,13,15.36,21.1s5.88,16.68,7.74,25q.56,2.48,1.12,4.94a63.26,63.26,0,0,1,1.11,7.36c.12,1.08.24,2.16.39,3.23l.29,2.15-1.16.06v1.67c0,3.51,0,7.14-.07,10.72a5.5,5.5,0,0,1-2.09,3.74A2.21,2.21,0,0,1,257,154.67Z"/><path d="M264.15,104.9c-3.3,0-5.68-1.65-6.52-4.51a28.48,28.48,0,0,1-.87-4.9c-.06-.55-.12-1.07-.19-1.53l0-.23,0-.23a140.05,140.05,0,0,1,5.86-30.44,91.25,91.25,0,0,1,3.81-10.36,11.62,11.62,0,0,1,3.92-4.51,4.9,4.9,0,0,1,2.8-.92,4.58,4.58,0,0,1,4.5,4.53,13,13,0,0,1-.65,4.93c-4,11.39-5.84,23.63-5.65,37.42a23.29,23.29,0,0,1-.64,5.7,6,6,0,0,1-5.9,5Z"/><path d="M309.55,180.58a5.51,5.51,0,0,0-.47-.64,5.7,5.7,0,0,1-1.4-2.81,36.61,36.61,0,0,1-.11-4.78c0-.57,0-1.15,0-1.73-.47-7.66-.71-15.81,1.68-23.92,1.66-5.61,3.73-12.6,8.65-18a18.48,18.48,0,0,1,4.51-3.83,7.19,7.19,0,0,1,3.28-.8,4.36,4.36,0,0,1,2.42.63c1.65,1.1,2.38,4.07,1.81,5.73l-.94,2.76a162.56,162.56,0,0,1-6.26,16.44A79.51,79.51,0,0,0,315,177.21a4.87,4.87,0,0,1-1.64,2.91,6,6,0,0,0-.54.6L311.1,183Z"/><path d="M226,193.63a7.61,7.61,0,0,0-.85-.45,5.42,5.42,0,0,1-2.8-2.34c-1.09-2.31-2.06-4.69-3-7-.76-1.86-1.55-3.79-2.38-5.63a78.81,78.81,0,0,0-17.84-25.6l-.2-.18a4,4,0,0,1-1.38-1.93c-.1-.34-.23-.71-.36-1.08-.54-1.55-1.15-3.32-.35-4.9a7.8,7.8,0,0,1,3.51-3c.26-.14.5-.26.67-.37l.6-.42.72.07c5.57.53,9.55,2.71,12.52,6.87,4.71,6.59,7,14.16,9.28,21.49l.33,1.08c1.24,4,2.46,8.05,3.69,12.07l.85,2.8c.08.26.18.52.27.78a7.81,7.81,0,0,1,.65,2.86,8.82,8.82,0,0,1-.64,2.88c-.1.29-.2.58-.28.87l-.73,2.6Z"/><path d="M335.53,167.82a8.14,8.14,0,0,1-1.38-.14c-.23,0-.45-.07-.67-.08l-2.15-.15.31-2.14c0-.22.05-.46.07-.69a6.63,6.63,0,0,1,.55-2.54,6.48,6.48,0,0,1,1.6-1.91,6.27,6.27,0,0,0,.53-.49c7.22-7.74,16.9-10.66,26.19-13a52.88,52.88,0,0,1,12.85-1.56,68,68,0,0,1,19.93,3.2,6.4,6.4,0,0,1,2.9,2.28c.23.28.46.56.7.8l2,1.88-2.37,1.31a9.11,9.11,0,0,0-.91.59,6.21,6.21,0,0,1-3.46,1.45c-2.91-.08-5.74-.37-8.47-.65-1.18-.12-2.37-.24-3.55-.34q-3-.27-6-.49l-2.58-.21h-.21c-10.76,0-20.93,3.46-31.08,10.59l-.58.42a10.94,10.94,0,0,1-2.81,1.64A4,4,0,0,1,335.53,167.82Z"/><path d="M276.6,221.37c-2.12,0-3.68-1.78-4.52-2.74-2.51-2.86-3.85-6.39-4.22-11.1-.39-5-.84-10.11-1.27-15-.25-2.77-.49-5.53-.73-8.3-.15-1.86-.29-3.72-.43-5.65l-.19-2.73a3.07,3.07,0,0,1,.22-1.87c.41-.84.87-1.63,1.31-2.4l.48-.85,1.38-2.46,1.86,2.11c.2.22.43.43.66.65a5.83,5.83,0,0,1,2,2.78l0,.11c1.83,7.29,3.73,14.82,5.22,22.33,1.25,6.34,2,12.8,2.68,18.37.18,1.58-.23,4.6-2.08,6A3.93,3.93,0,0,1,276.6,221.37Z"/><path d="M198.3,185.32c-.38-.19-.75-.35-1.1-.5a11.88,11.88,0,0,1-2.47-1.33c-7-5.24-15.47-7.69-26.6-7.69h-.87l-1.48,0-2.36,0a37.76,37.76,0,0,1-3.79-.17,5.25,5.25,0,0,1-2.91-1.59,6.2,6.2,0,0,0-.64-.53l-1.85-1.32,1.55-1.67a5.75,5.75,0,0,0,.46-.59,4.51,4.51,0,0,1,2.59-2.07,71.57,71.57,0,0,1,14.94-1.75,41.5,41.5,0,0,1,22,5.86,28.29,28.29,0,0,1,5.95,5.32l.82.9c1.23,1.31,1,3.64.5,4.81a4.11,4.11,0,0,1-2.36,1.94,3.86,3.86,0,0,0-.54.26l-.93.53Z"/><path d="M338,154a4.62,4.62,0,0,1-4.28-2.2,4.1,4.1,0,0,1,.36-4.28,17.26,17.26,0,0,1,4.34-4.48C348.48,135.93,360,131.52,370,128l.24-.08a11,11,0,0,1,3.61-.83,4.15,4.15,0,0,1,4.09,2.86c1.43,3.94-2.43,5.49-3.88,6.08-.29.11-.57.22-.82.34q-5.14,2.4-10.31,4.75c-4.88,2.23-9.92,4.54-14.83,6.9a24.17,24.17,0,0,0-4,2.61c-.75.56-1.53,1.14-2.34,1.68a24.47,24.47,0,0,1-2.13,1.24l-.5.27-.41.24-.49,0Z"/><path d="M194.56,166.06a5.11,5.11,0,0,1-2.72-1c-7-4.41-14.79-6-23.08-7.75l-.59-.13a77.82,77.82,0,0,1-9.88-2.73c-1.72-.61-3.54-3.05-3.14-4.93a4.68,4.68,0,0,1,2.54-2.81,6.89,6.89,0,0,0,.59-.37l.73-.56.9.18,3.57.73c2.5.51,4.86,1,7.22,1.52l3.8.86c4.75,1.07,9.66,2.17,14.44,3.55A23.19,23.19,0,0,1,195.3,156l1,.7a8.19,8.19,0,0,1,2.83,3.48c.51,1.14.68,3.41-.58,4.65a5.61,5.61,0,0,1-3.93,1.24Z"/><path d="M111.33,280.17a2.32,2.32,0,0,1-1.39-.45,2.89,2.89,0,0,1-1-1.64l0-.11-.71-2.24,2.29-.42a3.19,3.19,0,0,1,.83-.12,2.3,2.3,0,0,1,.83.14,3.48,3.48,0,0,1,1.14.75c.12.1.26.23.46.38l3.83,3.09-4.9.46a5.54,5.54,0,0,0-.6.08A5.19,5.19,0,0,1,111.33,280.17Z"/><path d="M378.74,131a2.62,2.62,0,0,1-1.28-1.47,2.47,2.47,0,0,1,.37-2.07.78.78,0,0,0,.11-.18l1.37-2.71,1.95,2.33.1.11a2.4,2.4,0,0,1,.82,1.68,2.68,2.68,0,0,1-.45,1.53l-1.06,2.19Z"/><path d="M207.25,237.49a3.35,3.35,0,0,1-2.71-2c-4.81-7.31-5.08-15.09-.83-23.15.25-.47.47-1,.78-1.73.18-.44.39-.95.66-1.56l1.76-4,1.88,4c.31.66.62,1.25.9,1.8a19,19,0,0,1,1.53,3.48c.17.59.34,1.17.52,1.76,1.24,4.07,2.64,8.69,1,13.55a33.24,33.24,0,0,1-3,6.24A2.81,2.81,0,0,1,207.25,237.49Z"/><path d="M328.73,226a2.15,2.15,0,0,1-2.23-1.36,22.08,22.08,0,0,0-1.63-3.21c-1.54-2.69-3.29-5.73-2.37-9.67s2.08-7.86,3.19-11.65l.46-1.54c.44-1.51,2.22-1.74,3.24-1.74h1.53l.44,1.48c1.32,5,2.55,9.89,3.86,15.09l.29,1.14-.85,2.6c-.77,2.36-1.56,4.81-2.46,7.19C331.68,225.69,330,226,328.73,226Z"/><path d="M542.44,260.37c2.88-5.78,5.14-12,8.75-17.27C562.88,226,578.8,216,600,214.25c6.59-.55,13.19-1.77,19.82-1.49a115.63,115.63,0,0,1,29.28,4.67C664,222,675.38,230.85,682,245.24c.63,1.37,1.24,2.75,2,4.44-.81,4.32,1.79,9.42-2.4,14H659c-5.26-3.1-6.12-9.31-9.42-14.36-10.12-8-22.08-11.19-35.19-10.8A49.8,49.8,0,0,0,585,248.69c-5.57,4.28-8.7,10.85-11,17.4-4.68,13.22-1.39,25.69,5.77,37,4.13,6.5,11.51,9.65,18.79,11.9,4,1.22,8.29,1.27,12.42,2a48.15,48.15,0,0,1,5.54,1.7c1.93-.52,4.24-1.68,6.54-1.65,9.68.13,17.67-4.36,24.75-9.87,3.76-2.93,5.64-8.29,8.25-12.63a33.83,33.83,0,0,0,1.93-4.93c9,.08,17.95-.82,27.53.81,0-5.36,0-10.8,0-16.23-.1-23.44,11.39-40,31.23-51.28,9-5.13,18.77-7.49,29.19-8.68,6.93-.78,13.86-2,20.74-1.38,16.52,1.55,32.75,3.84,46.89,14.11,11,8,18.84,18.11,22.28,30.91,4,15.05,4.07,30.42-1.39,45.32a39.22,39.22,0,0,1-5.87,11c-11.34,14-25.21,23.71-43.67,27-12.79,2.27-25.58,2.27-38.16,1.28-23.63-1.84-42.42-13.25-55.08-33.49-2.69-4.31-3.62-9.7-5.36-14.6-.87,15.58-9.1,26.63-21.48,35.51s-26.46,12.55-41.53,12.87c-4.28.09-8.56,0-12.84,0-13.82.11-27.22-2.22-39.06-9.41-13.49-8.19-24.25-19-27.64-35.28-.1-.45-.85-.77-1.3-1.15ZM761,318.42c12.51-1.94,23.93-3.27,33.33-10.75,9.78-7.78,11.8-19,14-30.45a50.18,50.18,0,0,1-1.63-5.78c-2.26-13.63-9.82-23.26-22.5-28.49-14.86-6.13-30-6-44.91,0-8.46,3.41-14.49,9.35-18.87,17.52-3.1,5.78-2.94,12.19-5.32,17.45.76,3.78,1.15,7.08,2.1,10.21,4.34,14.32,13.29,23.94,28.47,27C751,316.22,756.2,317.39,761,318.42Z"/><path d="M542.44,141.54c2.59-.65,5.15-1.76,7.76-1.88,6.1-.28,12.23-.09,19.14-.09.8,1.58,2.19,3.26,2.53,5.12,3.47,19.47,17.12,30.11,37.65,33.44,6.33,1,12.57,2,18.92,1.62,15.12-.88,29.87-3.22,43.17-12.5l4.9-9.88c-2.86-9.31-9.79-14.23-17.93-17.18-14.38-5.23-29.48-7.94-44.35-11.47-16.59-3.94-33.47-6.86-49.05-14.69-12.8-6.42-21.82-26.13-18-39.74,4.44-15.71,14.48-24.23,28.6-30a100.44,100.44,0,0,1,41.59-7.13c7.64.22,15.33-.45,22.93.14,16.56,1.29,32.07,6.26,44.89,17,12.28,10.29,17.87,24,17,40.91-1.51.77-3.25,2.38-5.05,2.45-7.3.3-14.61.12-22.53.12-1.35-2.9-2.78-5.49-3.79-8.24C664.78,73,652.39,63.91,634.94,63c-3.56-.18-7.11-1.78-10.63-1.65-13.29.49-26.43,2-38.42,8.51-8.5,4.61-10,9.34-5.66,18.5,9.85,8.33,22.17,10.08,34.16,12.87q21.42,5,42.72,10.52c6.08,1.58,12,3.89,18,5.81,14.39,4.61,24.65,13.78,30.84,27.35v23.84c-.26.66-.47,1.22-.7,1.78-6.14,14.68-17.72,23-32.39,28-9.19,3.15-18.52,4.61-28.19,5.59-8.15.83-16.31,2.17-24.41,1.39-16.42-1.57-33.24-2.19-48-10.79-14-8.15-25.19-18.79-28.48-35.59-.08-.45-.84-.77-1.29-1.16Z"/><path d="M1049,158.22V148.1q0-49.34,0-98.66c0-3.2-1.16-6.78,2.44-9.91h24.94a25,25,0,0,1,2.12,4.87c.41,1.74.1,3.64.1,5.46q0,70.8-.05,141.59c0,3.44,1.4,7.45-2.94,10.26H1049.1c-5.35-6-11.37-12.81-17.39-19.59-.6-.68-1.24-1.34-1.87-2-9.37-9.94-18.88-19.75-28.07-29.86-7.51-8.27-14.63-16.89-21.93-25.35-.39-.46-.84-.87-1.26-1.32-9.37-9.94-18.79-19.84-28.09-29.85-3-3.24-5.68-6.79-9.53-11.41V92.94q0,49.32-.05,98.65c0,3.2,1.21,6.79-2.5,9.92H913.53a26.2,26.2,0,0,1-2.13-4.87c-.4-1.73-.09-3.63-.09-5.46q0-70.78.06-141.58c0-3.44-1.47-7.47,3-10.27H940.8L953,53.78c.4.46.84.89,1.26,1.33,9.37,9.94,18.88,19.76,28.07,29.86,8.14,8.94,15.93,18.18,23.88,27.28.4.46.84.88,1.26,1.33,8.72,9.3,17.5,18.55,26.14,27.91,3.27,3.54,6.19,7.4,9.4,11C1044.59,154.27,1046.44,155.79,1049,158.22Z"/><path d="M1114.27,39.35c2-.09,4.66-.3,7.36-.31,23.85,0,47.73-.71,71.54.21,18.93.72,37.82,3,54.9,12.7,14.53,8.24,24.89,19.86,30.65,35.47a93.08,93.08,0,0,1,5.37,40.84c-1.77,19.65-8.62,37.29-23.81,51.07-7.57,6.88-16.43,11.53-25.69,15.06a116.67,116.67,0,0,1-43.32,7.69c-22.93-.28-45.87-.07-68.8-.07h-7.66c-4-2.86-3.37-5.78-3.38-8.45,0-11.26,0-22.53,0-33.8q0-55.26,0-110.53C1111.47,46,1110.26,42.42,1114.27,39.35Zm27.13,138.83c17.59-1.27,34.24.89,51-1.66,9-1.37,17.79-2.82,26.3-5.87,16.75-6,28.52-16.74,32.37-34.73,1.12-5.24,2.27-10.47,3.31-15.23-1.21-6.59-2.1-12.8-3.5-18.89a39.72,39.72,0,0,0-20.82-27.21,81.62,81.62,0,0,0-40-9.74c-13.77.23-27.54.05-41.31.05h-7.38Z"/><path d="M1481.52,97.7H1457.1c-1.24-2.23-3-4.67-4-7.37a32.72,32.72,0,0,0-16.59-18.21,96.85,96.85,0,0,0-32.74-9.45c-19.26-2.26-44.55,4.87-58,18.71-10.1,10.38-15,23.06-15.54,37.44a59.66,59.66,0,0,0,10.53,36.61c5.37,8,12.93,12.91,20.9,16.71a75.85,75.85,0,0,0,38.63,7.59c16.92-1.3,32.65-6.48,45.41-17.84,4.24-3.77,6.34-10,9.2-15.21a77.91,77.91,0,0,0,3.32-8c11.33-1.86,21.74-1.41,27.59,1.3v13.3c-4.36,8.51-8.37,18.27-16.15,26-11.74,11.61-25.88,18.77-41.67,22.6-12.64,3.07-25.67,4.94-38.66,3.63-16.4-1.65-33.12-2.89-47.87-11.5-17.36-10.14-31.44-23.35-37.86-43-1.66-5.06-2.21-10.5-3-15.81s-2-10.75-1.73-16.06c.94-15.66,3.65-31.14,13.19-44.09a97.16,97.16,0,0,1,15.21-16.51c9-7.7,19.12-12.76,30-16.42,9.67-3.25,19.71-5.41,30.15-5,8.25.34,16.52-.06,24.78.1a84.1,84.1,0,0,1,48.11,16c10.61,7.65,20.4,17.3,23.18,31.44C1484.31,89.14,1485.84,93.46,1481.52,97.7Z"/><path d="M844.48,158.35H761.06L739,201.63H710.24c-3.9-3.07-3.22-6.94-1.76-10.7a90,90,0,0,1,4.76-9.78c3-5.58,6.26-11,9.18-16.62q18-34.56,35.89-69.2c7-13.39,13.87-26.81,21-40.12,2.82-5.3,6.1-10.35,9.33-15.78H815c4.68,2.58,6.82,8.12,9.59,13,3.11,5.53,5.6,11.39,8.51,17q15.81,30.6,31.71,61.15c7.79,15,15.55,30,23.45,45,2.68,5,5.76,9.9,8.62,14.78-.57,3.9,1.59,8.2-3,11.32H867.6c-1.65-2.41-4-5.18-5.6-8.32C856.07,181.86,850.37,170.19,844.48,158.35ZM803.17,76.23C793,96.48,782,114,773.79,133.69h58.29Z"/><path d="M1565.23,39.35h26.19c4.11,2.49,6.5,6.56,8.75,11,12.32,24.24,24.82,48.39,37.3,72.54q12.69,24.56,25.52,49c2.52,4.8,5.34,9.44,8.13,14.1a17.31,17.31,0,0,1,1.74,13.8c-.93.72-1.64,1.74-2.37,1.75-8.52.11-17,.07-26,.07-9.52-13.33-15.68-28.81-23.49-43.17h-83.38l-22.07,43.29h-28.45c-4.39-3.38-3.61-7.58-1.36-11.92q23.88-45.78,47.79-91.54c6.28-12,12.44-24.15,18.84-36.12C1556.43,54.47,1560.89,47,1565.23,39.35Zm15.35,38.45c-4.74,4.76-24.24,41.11-29.71,55.18,6.73,1.43,41.35,1.8,57.67.57C1599.17,114.88,1589.9,96.39,1580.58,77.8Z"/><path d="M1766.41,310.68v-15c-14.64-.4-28.89-.79-43.14-1.24-.46,0-.9-.77-1.35-1.17-1.8-9.7-1.48-17.35,1.2-23.4h70.62c2.63,1.13,2.76,3.79,2.76,6.66,0,16.74,0,33.48,0,50.83-8.06,5.86-17.49,9.16-27,11.59-17.47,4.45-35.47,4.78-53.33,3.64a75.76,75.76,0,0,1-40.26-14.22c-11-7.87-17.36-18.16-21.37-30.44a29.39,29.39,0,0,1-1.45-7.88c-.21-5.77.08-11.57-.09-17.35-.59-19.95,9.14-34.1,24.56-45.73a59.91,59.91,0,0,1,26.08-11.63c12.32-2.05,25-5.4,37.66-1a8,8,0,0,0,2.73.16c14.67-.45,26.91,5.92,38,14.4,3.9,3,6.39,7.91,9.18,12.17a108,108,0,0,1,5.17,9.83v9.67c-1.2,2.7-3.16,3.64-5.92,3.6-6.72-.1-13.45,0-21,0-1.34-1.85-3.51-3.77-4.32-6.14-2.65-7.8-8.51-12.42-15.59-15.2-19.42-7.65-38.08-5.68-54.66,7.15-4.25,3.29-7.07,9-9.32,14.13-4.57,10.42-3.86,21.09.88,31.41s13.79,16,24.09,19.34c6.21,2,13,3.93,19.36,3.59C1742.4,317.79,1755.06,316.58,1766.41,310.68Z"/><path d="M981.21,308.36V291.85c7.65-5.09,16.38-.88,23.77-2.52,3.75,2.18,5.09,4.81,6.19,8.25,4,12.42,13,18.69,26.2,19.36,3,.16,5.9.84,9.41,1.36,2.6-.4,5.83-1.14,9.1-1.35,6.11-.39,12-1.66,17.22-4.82,2.68-1.61,4.84-4.07,7.15-6.07-3.35-6.31-8.18-9.2-13.79-10.78-9.22-2.6-18.5-5-27.8-7.31-8.14-2-16.48-3.37-24.49-5.78-9.31-2.81-18.2-6.61-24.82-14.34-2.9-3.38-4.81-6.87-4.63-11.41.13-3.35.15-6.71,0-10.05-.41-8.65,4-14.34,10.38-19.73,9.73-8.29,21.09-10.74,33.27-12.4,6.34-.87,12.6-1.78,18.93-1.5a118.13,118.13,0,0,1,29.32,4.54c12.11,3.7,21.47,10.89,26.72,22.74.85,1.93,1.86,3.79,2.42,4.91v15c-5.74,2.81-15.41,3.29-27.55,1.43-1.29-3-2.68-6.3-4.08-9.57a15.64,15.64,0,0,0-8.64-8.84c-5.88-2.46-11.8-4.5-18.27-4.43-7.27.08-14.54-.39-21.66,1.87-6.45,2.06-8.82,4.8-8.9,11.4,7.69,6.43,17.36,7.92,26.62,10.12,13.7,3.25,27.39,6.38,40.85,10.7,10,3.21,16.37,10.17,22.94,17.22a12.1,12.1,0,0,1,2.65,7.48c.18,7.8,1.24,15.79-2.7,23.46-5.8,5.27-10.7,11.86-18.63,15.33a83.19,83.19,0,0,1-27.92,6.48,238.63,238.63,0,0,1-28.43.06c-17.74-.9-33-7.4-44.07-21.71C985.05,317.21,983.38,312.49,981.21,308.36Z"/><path d="M1518.13,216.8h26.47c4.35,5,9.07,10.44,13.89,15.83q15.1,16.94,30.29,33.78c6.91,7.64,13.94,15.18,21,22.73,1.19,1.28,2.57,2.37,4.29,3.94.4-25.27.78-49.83,1.23-74.39,0-.46.76-.9,1.62-1.84h26.84a31.63,31.63,0,0,1,2.13,4.89,18.07,18.07,0,0,1,.08,4.54q0,52.52,0,105c0,3.18,1.18,6.86-3.1,9.35H1617.9c-11.34-12.2-22.72-24.32-34-36.58q-16.56-18.07-32.86-36.39c-1.78-2-3.23-4.27-5.55-7.38-1.11,9.54-.43,18.11-.55,26.64s0,17.05,0,25.57v27c-9.62,2.78-18.61.64-26.35,1.42-4.44-3.42-3.22-7-3.24-10.22-.09-22.83-.06-45.66-.06-68.49,0-12.17-.06-24.35,0-36.52C1515.37,222.78,1514.31,219.48,1518.13,216.8Z"/><path d="M872.72,340.07c-11.15,1.78-21.25,1.32-27.39-1.58,0-39.14,0-78.65.07-118.16,0-1.05,1-2.09,1.79-3.49H874.8c2.86,3.43,6.3,7.59,9.78,11.73,1,1.16,2,2.25,3.1,3.36,9.36,9.94,18.88,19.75,28.06,29.86,7.3,8,14.13,16.51,21.29,24.68,2.53,2.89,5.42,5.47,9.16,9.2V259.53c0-11.57,0-23.14,0-34.71,0-2.65-.83-5.62,2.3-7.59,10.34-1.75,21-1.31,26.85,1.37V338.89c-8,4.49-17.26.75-26.72,2.41q-9.93-11.1-19.91-22.29c-.61-.68-1.27-1.31-1.89-2-8.94-9.51-18-18.91-26.78-28.56-8.12-8.92-15.93-18.11-24.64-28.05-.23,2.68-.53,4.53-.54,6.38,0,21.61,0,43.23,0,64.84C874.83,334.57,875.8,337.85,872.72,340.07Z"/><path d="M1500.45,338.55c-5.88,2.88-15.26,3.34-27,1.51-3.3-2.52-2.09-6.13-2.1-9.32-.08-27.71,0-55.42,0-83.12V240.3h-50.88V338c-1.75,1.07-3.23,2.76-4.69,2.74-8.68-.1-17.49,1.28-27-1,0-11.56-.07-22.44-.08-33.32q0-16,0-32V240.61c-8.44-.07-16.57-.17-24.7-.2s-16.39,0-25.13,0c-2.78-7.71-1.37-14.83-1.09-22.8,2.48-.44,4.74-1.19,7-1.19q59.61-.1,119.24-.08c4.34,0,8.37,1.92,13.13.32,4.12-1.38,9.07-.33,13.66-.28,2.7,0,5.39.22,7.34.31,4,3.12,2.76,6.73,2.77,9.92.09,26.49.05,53,.05,79.47,0,8.52,0,17.05,0,25.57C1500.85,334,1500.58,336.41,1500.45,338.55Z"/><path d="M1116.47,216.47c7.32,0,15.81-.05,24.3.08,1,0,2.09,1,3.54,1.81v79c5.78,12.24,5.78,12.24,18.58,18.59,5,1,9.15,2.75,13.18,2.49,9.25-.59,19-.8,26.84-6.24,4.22-2.94,6.74-8.3,8.89-11.08,4.32-27.07,1.66-52.29,2.44-77.41.06-1.78.35-3.55.51-5.1,5.75-2.7,15.91-3.15,28-1.22a37.75,37.75,0,0,1,1.09,6.44c.08,24.95.5,49.92-.11,74.85-.4,16.52-12.57,33.41-29.08,38.81-10.43,3.41-20.85,5.71-31.88,5.33-9.68-.33-19.38.49-29-1.85-13.53-3.31-25.68-8.45-33.3-21.13a47.42,47.42,0,0,1-7.11-23.81c-.38-23.73-.15-47.47-.12-71.21C1113.27,222.16,1112.6,219.24,1116.47,216.47Z"/><path d="M1741.14,201.12c-11.12,1.78-21.28,1.33-27.32-1.49V65c-12.13-.26-23.63-.09-35.13-.12s-23.1,0-35.27,0c-2.5-8.39-1.19-16.09-1.17-23,3.17-4,6.8-2.84,10-2.85q58.68-.1,117.34,0c11.62,0,23.23,0,34.84,0,2.67,0,5.6-.71,8.37,3.08,0,6.57,1.16,14.26-1.06,22.47h-68.33c-.07,3.88-.17,7.11-.17,10.35q0,58.43,0,116.84C1743.18,195,1744.37,198.59,1741.14,201.12Z"/><path d="M1370.38,320.26c-.58,6.26,2.1,13.52-1.79,20.38h-109c-2.27-1-3.23-3-3.17-5.72.12-4.87,0-9.75,0-14.62q0-47,0-94.06c0-3.18-1.22-6.84,2.38-9.17,13.63-1.67,21.49-1.17,27.24,2.08V316.9h9.66c21.71,0,43.41,0,65.12,0C1364.09,317,1367.78,315.78,1370.38,320.26Z"/></svg>