<svg id="Sargasso_Logov" data-name="Sargasso Logov" xmlns="http://www.w3.org/2000/svg" xmlns:xlink="http://www.w3.org/1999/xlink" viewBox="0 0 942 300"><defs><style>.cls-1{fill:url(#linear-gradient);}.cls-2{fill:url(#linear-gradient-2);}.cls-3{fill:url(#linear-gradient-3);}.cls-4{fill:#0b2240;}</style><linearGradient id="linear-gradient" x1="197.36" y1="136.42" x2="89.48" y2="110.42" gradientUnits="userSpaceOnUse"><stop offset="0" stop-color="#007ba4"/><stop offset="1" stop-color="#006c97"/></linearGradient><linearGradient id="linear-gradient-2" x1="186.7" y1="188.67" x2="114.96" y2="162.56" xlink:href="#linear-gradient"/><linearGradient id="linear-gradient-3" x1="89.48" y1="150" x2="210.86" y2="150" gradientUnits="userSpaceOnUse"><stop offset="0" stop-color="#008eaf"/><stop offset="1" stop-color="#008eaf"/></linearGradient></defs><title>1_sargasso_logo_primary_rgb</title><polygon class="cls-1" points="150 111.7 86.5 123 86.5 123 148.3 137.8 200.4 123.9 150 111.7"/><polygon class="cls-2" points="153.8 163 110.6 174.6 153.6 190.3 191.1 176.6 191.1 176.6 153.8 163"/><path class="cls-3" d="M153.6,190.3l37.5-13.7-5.2,29.3L134,224.8h0l-11-23.4Zm50.6-88.1,4.8-27L75.2,98.8,86.5,123Zm-8.7,49.7,4.9-28h0l-100.9,27,11.1,23.7h0Z"/><path class="cls-4" d="M641,195.6l2.6-15c10.3,6.1,17.6,8.9,29.9,8.9s14.9-4.1,14.9-9.3-4.4-8.2-18.3-10.3-26.8-7.2-26.8-23.5c0-14.4,12.9-24.2,32.5-24.2,14,0,24,3.9,29.1,7.5l-2.6,14.4c-7.8-3.5-17.9-7-27.2-7s-14,3.1-14,8,3.4,7.5,16.6,9.6c16.9,2.6,29.1,8.3,29.1,23.7s-12.4,26-33.6,26C655.8,204.4,646.2,199.1,641,195.6Z"/><path class="cls-4" d="M712,195.6l2.6-15c10.3,6.1,17.6,8.9,29.9,8.9s14.9-4.1,14.9-9.3-4.5-8.2-18.3-10.3-26.8-7.2-26.8-23.5c0-14.4,12.9-24.2,32.5-24.2,14,0,24,3.9,29.1,7.5l-2.6,14.4c-7.8-3.5-17.9-7-27.2-7s-14,3.1-14,8,3.4,7.5,16.6,9.6c16.9,2.6,29.1,8.3,29.1,23.7s-12.4,26-33.6,26C726.8,204.4,717.2,199.1,712,195.6Z"/><path class="cls-4" d="M784.8,163.2c0-24,17.5-41.2,41.3-41.2s40.7,17,40.7,41.2-17.5,41-41.3,41S784.8,187.4,784.8,163.2Zm63.4,0c0-14.9-8.5-25.2-22.4-25.2s-22.4,10.3-22.4,25.2,8.5,24.8,22.4,24.8S848.2,177.9,848.2,163.2Z"/><path class="cls-4" d="M598.5,122.2c-25.2,0-42.5,18.4-42.5,43s15.2,39,36.5,39c8.7,0,16.4-2.8,22.1-8.1l.8,5.7h15.5V131.5C622.9,125.8,611.4,122.2,598.5,122.2Zm13.9,58a21.5,21.5,0,0,1-16.8,8c-12,0-20.8-8.2-20.8-23.2s9.5-26.3,23.5-26.3a35.5,35.5,0,0,1,14.1,2.9Z"/><path class="cls-4" d="M376.3,122.2c-25.2,0-42.5,18.4-42.5,43s15.2,39,36.4,39c8.7,0,16.5-2.8,22.1-8.1l.8,5.7h15.5V131.5C400.6,125.8,389.2,122.2,376.3,122.2Zm13.8,58a21.4,21.4,0,0,1-16.8,8c-11.9,0-20.7-8.2-20.7-23.2s9.4-26.3,23.5-26.3a35,35,0,0,1,14,2.9Z"/><path class="cls-4" d="M453.9,122.2c-14.9,0-26.8,5.9-32.7,11.1v68.5h18.6V142.3c3.5-2,8.5-3.1,14.6-3.1a50.8,50.8,0,0,1,11.8,1.4h0l2.9-16.6A53.7,53.7,0,0,0,453.9,122.2Z"/><path class="cls-4" d="M511.5,122c-23.7,0-42.3,15.9-42.3,40.2s18.4,37.9,40.8,37.9a38.3,38.3,0,0,0,16-3.1v3.6c0,10.5-6.2,18.3-20.7,18.3a46.7,46.7,0,0,1-26.3-8.7l-2.9,16.3c8.1,5.1,17.2,7.8,29.8,7.8,22.6,0,38.8-13.4,38.8-35.8V132.6C536.5,126.4,524.6,122,511.5,122ZM526,181.2a27.4,27.4,0,0,1-14.3,3.6c-13.8,0-23.7-8.7-23.7-22.9s10.1-23.7,23.7-23.7a29.3,29.3,0,0,1,14.3,3.4Z"/><path class="cls-4" d="M283.7,204.2c-23.4,0-34.2-6.6-41-9.8l3.2-18.5c12.6,7.2,22.2,11.8,38.2,11.8,18.5,0,21.3-8.7,21.3-13.9,0-8.2-7-12.3-25.6-15.2-23.6-3.6-32.3-13.4-32.3-30.2s14.9-30.7,39.6-30.7c20.7,0,32.8,6.5,36.9,9.2L320.8,125c-14.9-7.6-24.7-9.8-34.5-9.8-16.7,0-20.2,6.6-20.2,12.2,0,8,5.7,11.4,23.4,14.3,26,4,36.1,14.1,36.1,29.7C325.6,190.3,312.3,204.2,283.7,204.2Z"/></svg>