<?xml version="1.0" encoding="UTF-8"?>
<svg xmlns="http://www.w3.org/2000/svg" xmlns:xlink="http://www.w3.org/1999/xlink" version="1.1" x="0px" y="0px" viewBox="0 0 670 137.4" style="enable-background:new 0 0 670 137.4;" xml:space="preserve">
<style type="text/css">
	.st0{fill-rule:evenodd;clip-rule:evenodd;fill:#1EA6BC;}
	.st1{fill:#1EA6BC;}
</style>
<g id="Layer_1">
</g>
<g id="Layer_2">
</g>
<g id="Layer_3">
</g>
<g id="Layer_4">
	<g>
		<g>
			<g>
				<path class="st0" d="M433.1,96.5L417,42.8h-23.9l-15.6,53.7l-16.1-53.7h-27.5l28.5,91.7h26.9l15.4-49.6l15.4,49.6h26.8      l28.5-91.7h-26.5L433.1,96.5z M577.7,41.2c-13,0.2-23.2,6.1-29.5,16.7V42.6h-29.1v90.8h29.1V93.7c0-17.6,12.6-27.7,29.5-26.2      V41.2z M624,41.6c-28.1,0-47.3,18.5-47.3,46.6c0,27.6,18.5,46.1,48.2,46.1c16.7,0,30.3-5.9,39.6-16l-15.3-15      c-6.1,6.1-13.8,9.3-21.7,9.3c-10.8,0-18.5-6.1-21.4-16.8h63.8C671.8,62.6,656,41.6,624,41.6z M605.5,80.1      c1.9-10.9,8.8-18.4,18.9-18.4c10.4,0,17.5,7.2,17.5,18.4H605.5z M38.7,47c0-5.7,5.2-8.6,13-8.6c9.6,0,28.3,5.1,40.7,12.3      l8.3-23.4c-12.1-7.9-29.5-13.1-46.5-13.1c-28.3,0-47,13.8-47,35.5c0,41.8,62.3,29.3,62.3,50.2c0,6.7-5.9,12.3-15.3,12.3      c-12.3,0-30.5-9.1-42.6-19.7L0,115.5c14,11.5,34.2,21.9,53.9,21.9c26.3,0,47.1-15.5,47.1-39C101,55.7,38.7,67.3,38.7,47z       M153.6,41.6c-29.8,0-49.7,18.4-49.7,46.3c0,28,19.9,46.5,49.7,46.5c29.6,0,49.5-18.5,49.5-46.5      C203.1,59.9,183.2,41.6,153.6,41.6z M153.6,111.8c-12.1,0-20.4-9.4-20.4-23.6c0-14,8.3-23.6,20.4-23.6c12,0,20.2,9.6,20.2,23.6      C173.8,102.4,165.5,111.8,153.6,111.8z M314.9,111.3c-5.4,0.2-10.7-2.9-10.7-9.9v-36h26V42.8h-26.3V14h-26.4v29h-12.6v22.4h12.6      v40.6c0,18.9,12.6,28.8,30.1,28.8c8.8,0,17.7-2.4,24.2-6.2l-5.7-20.2C321.8,110.1,317.9,111.3,314.9,111.3z M480.2,133.3h29      V42.6h-29V133.3z"></path>
			</g>
		</g>
		<path class="st1" d="M269.1,6.2C262.5,2.4,253.6,0,244.8,0c-17.5,0-30.1,9.9-30.1,28.8V43h-12.6v22.4h12.6v69.3h26.4V65.3h46.3V43    h-46v-9.6c0-7.1,5.3-10.1,10.7-9.9c3,0,6.9,1.2,11.3,3L269.1,6.2z"></path>
		<path class="st0" d="M519.1,26.1L480.2,38l0-24L519.1,26.1z"></path>
	</g>
</g>
</svg>
