<svg xmlns="http://www.w3.org/2000/svg" viewBox="0 0 1440 386" width="1440" height="386" role="img" aria-label="standby, please.">
  <rect width="1440" height="386" fill="#141414"></rect>
  <path fill="#edede5" transform="translate(58,0)" d="M235.61 165.62L235.61 165.62Q217.47 165.62 205.88 157.76Q194.28 149.91 191.85 135.32L191.85 135.32L213.55 129.71Q214.85 136.26 217.94 140.00Q221.03 143.74 225.61 145.33Q230.19 146.92 235.61 146.92L235.61 146.92Q243.84 146.92 247.77 144.02Q251.69 141.12 251.69 136.82L251.69 136.82Q251.69 132.52 247.95 130.18Q244.21 127.84 235.99 126.35L235.99 126.35L230.75 125.41Q221.03 123.54 212.99 120.27Q204.94 117.00 200.08 111.20Q195.22 105.40 195.22 96.24L195.22 96.24Q195.22 82.40 205.32 75.02Q215.42 67.63 231.87 67.63L231.87 67.63Q247.39 67.63 257.68 74.55Q267.96 81.47 271.14 92.69L271.14 92.69L249.26 99.42Q247.77 92.31 243.19 89.32Q238.60 86.33 231.87 86.33L231.87 86.33Q225.14 86.33 221.59 88.67Q218.03 91.00 218.03 95.12L218.03 95.12Q218.03 99.61 221.77 101.76Q225.51 103.91 231.87 105.03L231.87 105.03L237.11 105.97Q247.58 107.84 256.09 110.92Q264.60 114.01 269.55 119.71Q274.51 125.41 274.51 135.14L274.51 135.14Q274.51 149.72 263.94 157.67Q253.38 165.62 235.61 165.62Z M363.79 163L337.61 163Q328.44 163 322.74 157.30Q317.04 151.59 317.04 142.06L317.04 142.06L317.04 89.70L293.85 89.70L293.85 70.25L317.04 70.25L317.04 41.45L340.60 41.45L340.60 70.25L366.03 70.25L366.03 89.70L340.60 89.70L340.60 137.94Q340.60 143.55 345.84 143.55L345.84 143.55L363.79 143.55L363.79 163Z M423.15 165.62L423.15 165.62Q413.24 165.62 405.38 162.16Q397.53 158.70 392.95 152.06Q388.37 145.42 388.37 135.88L388.37 135.88Q388.37 126.35 392.95 119.90Q397.53 113.44 405.66 110.17Q413.80 106.90 424.27 106.90L424.27 106.90L449.70 106.90L449.70 101.66Q449.70 95.12 445.59 90.91Q441.47 86.70 432.50 86.70L432.50 86.70Q423.71 86.70 419.41 90.72Q415.11 94.75 413.80 101.10L413.80 101.10L392.11 93.81Q394.35 86.70 399.31 80.81Q404.26 74.92 412.58 71.28Q420.90 67.63 432.87 67.63L432.87 67.63Q451.20 67.63 461.86 76.79Q472.52 85.96 472.52 103.35L472.52 103.35L472.52 137.94Q472.52 143.55 477.75 143.55L477.75 143.55L485.23 143.55L485.23 163L469.52 163Q462.61 163 458.12 159.63Q453.63 156.27 453.63 150.66L453.63 150.66L453.63 150.47L450.08 150.47Q449.33 152.72 446.71 156.36Q444.09 160.01 438.48 162.81Q432.87 165.62 423.15 165.62ZM427.26 146.54L427.26 146.54Q437.17 146.54 443.44 141.03Q449.70 135.51 449.70 126.35L449.70 126.35L449.70 124.48L425.95 124.48Q419.41 124.48 415.67 127.28Q411.93 130.09 411.93 135.14L411.93 135.14Q411.93 140.19 415.86 143.37Q419.78 146.54 427.26 146.54Z M533.00 163L509.44 163L509.44 70.25L532.62 70.25L532.62 82.40L535.99 82.40Q538.23 77.54 544.40 73.15Q550.58 68.75 563.11 68.75L563.11 68.75Q573.95 68.75 582.09 73.71Q590.22 78.66 594.71 87.36Q599.20 96.05 599.20 107.65L599.20 107.65L599.20 163L575.63 163L575.63 109.52Q575.63 99.05 570.49 93.81Q565.35 88.57 555.81 88.57L555.81 88.57Q544.97 88.57 538.98 95.77Q533.00 102.97 533.00 115.88L533.00 115.88L533.00 163Z M669.03 165.62L669.03 165.62Q658.00 165.62 648.36 160.10Q638.73 154.59 632.94 143.93Q627.14 133.27 627.14 118.12L627.14 118.12L627.14 115.13Q627.14 99.98 632.94 89.32Q638.73 78.66 648.27 73.15Q657.81 67.63 669.03 67.63L669.03 67.63Q677.44 67.63 683.15 69.59Q688.85 71.56 692.40 74.55Q695.96 77.54 697.83 80.91L697.83 80.91L701.19 80.91L701.19 32.10L724.75 32.10L724.75 163L701.57 163L701.57 151.78L698.20 151.78Q695.02 157.02 688.38 161.32Q681.74 165.62 669.03 165.62ZM676.13 145.05L676.13 145.05Q686.98 145.05 694.27 138.04Q701.57 131.02 701.57 117.56L701.57 117.56L701.57 115.69Q701.57 102.22 694.37 95.21Q687.17 88.20 676.13 88.20L676.13 88.20Q665.29 88.20 658.00 95.21Q650.70 102.22 650.70 115.69L650.70 115.69L650.70 117.56Q650.70 131.02 658.00 138.04Q665.29 145.05 676.13 145.05Z M813.66 165.62L813.66 165.62Q801.13 165.62 794.40 161.32Q787.67 157.02 784.49 151.78L784.49 151.78L781.12 151.78L781.12 163L757.93 163L757.93 32.10L781.50 32.10L781.50 80.91L784.86 80.91Q786.92 77.54 790.38 74.55Q793.84 71.56 799.54 69.59Q805.25 67.63 813.66 67.63L813.66 67.63Q824.88 67.63 834.42 73.15Q843.95 78.66 849.75 89.32Q855.55 99.98 855.55 115.13L855.55 115.13L855.55 118.12Q855.55 133.27 849.75 143.93Q843.95 154.59 834.42 160.10Q824.88 165.62 813.66 165.62ZM806.55 145.05L806.55 145.05Q817.40 145.05 824.69 138.04Q831.99 131.02 831.99 117.56L831.99 117.56L831.99 115.69Q831.99 102.22 824.79 95.21Q817.59 88.20 806.55 88.20L806.55 88.20Q795.71 88.20 788.42 95.21Q781.12 102.22 781.12 115.69L781.12 115.69L781.12 117.56Q781.12 131.02 788.42 138.04Q795.71 145.05 806.55 145.05Z M952.68 200.40L894.34 200.40L894.34 179.83L944.83 179.83Q950.06 179.83 950.06 174.22L950.06 174.22L950.06 150.84L946.70 150.84Q945.20 154.02 942.02 157.20Q938.84 160.38 933.42 162.44Q928.00 164.50 919.58 164.50L919.58 164.50Q908.74 164.50 900.60 159.54Q892.47 154.59 887.98 145.80Q883.49 137.01 883.49 125.60L883.49 125.60L883.49 70.25L907.05 70.25L907.05 123.73Q907.05 134.20 912.20 139.44Q917.34 144.67 926.88 144.67L926.88 144.67Q937.72 144.67 943.71 137.47Q949.69 130.28 949.69 117.37L949.69 117.37L949.69 70.25L973.25 70.25L973.25 179.46Q973.25 188.99 967.64 194.70Q962.03 200.40 952.68 200.40L952.68 200.40Z"></path>
  <path fill="#edede5" d="M116.65 360.40L93.09 360.40L93.09 230.25L116.28 230.25L116.28 241.47L119.64 241.47Q122.82 236.05 129.56 231.84Q136.29 227.63 148.82 227.63L148.82 227.63Q160.04 227.63 169.57 233.15Q179.11 238.66 184.91 249.32Q190.70 259.98 190.70 275.13L190.70 275.13L190.70 278.12Q190.70 293.27 184.91 303.93Q179.11 314.58 169.57 320.10Q160.04 325.62 148.82 325.62L148.82 325.62Q140.40 325.62 134.70 323.65Q128.99 321.69 125.53 318.61Q122.08 315.52 120.02 312.34L120.02 312.34L116.65 312.34L116.65 360.40ZM141.71 305.05L141.71 305.05Q152.74 305.05 159.94 298.04Q167.14 291.02 167.14 277.56L167.14 277.56L167.14 275.69Q167.14 262.23 159.85 255.21Q152.56 248.20 141.71 248.20L141.71 248.20Q130.86 248.20 123.57 255.21Q116.28 262.23 116.28 275.69L116.28 275.69L116.28 277.56Q116.28 291.02 123.57 298.04Q130.86 305.05 141.71 305.05Z M239.96 323L216.40 323L216.40 192.10L239.96 192.10L239.96 323Z M312.40 325.62L312.40 325.62Q298.56 325.62 288.00 319.73Q277.43 313.84 271.54 303.08Q265.65 292.33 265.65 277.75L265.65 277.75L265.65 275.50Q265.65 260.92 271.45 250.16Q277.24 239.41 287.72 233.52Q298.19 227.63 312.03 227.63L312.03 227.63Q325.68 227.63 335.77 233.71Q345.87 239.78 351.48 250.54Q357.09 261.29 357.09 275.50L357.09 275.50L357.09 283.54L289.59 283.54Q289.96 293.08 296.69 299.06Q303.42 305.05 313.15 305.05L313.15 305.05Q323.06 305.05 327.73 300.75Q332.41 296.45 334.84 291.21L334.84 291.21L354.10 301.31Q351.48 306.17 346.53 311.87Q341.57 317.58 333.34 321.60Q325.12 325.62 312.40 325.62ZM289.77 265.97L289.77 265.97L333.16 265.97Q332.41 257.92 326.71 253.06Q321.00 248.20 311.84 248.20L311.84 248.20Q302.30 248.20 296.69 253.06Q291.08 257.92 289.77 265.97Z M410.83 325.62L410.83 325.62Q400.92 325.62 393.07 322.16Q385.22 318.70 380.63 312.06Q376.05 305.42 376.05 295.88L376.05 295.88Q376.05 286.35 380.63 279.90Q385.22 273.44 393.35 270.17Q401.49 266.90 411.96 266.90L411.96 266.90L437.39 266.90L437.39 261.66Q437.39 255.12 433.27 250.91Q429.16 246.70 420.19 246.70L420.19 246.70Q411.40 246.70 407.10 250.72Q402.79 254.75 401.49 261.10L401.49 261.10L379.79 253.81Q382.04 246.70 386.99 240.81Q391.95 234.92 400.27 231.28Q408.59 227.63 420.56 227.63L420.56 227.63Q438.88 227.63 449.54 236.79Q460.20 245.96 460.20 263.35L460.20 263.35L460.20 297.94Q460.20 303.55 465.44 303.55L465.44 303.55L472.92 303.55L472.92 323L457.21 323Q450.29 323 445.80 319.63Q441.32 316.27 441.32 310.66L441.32 310.66L441.32 310.47L437.76 310.47Q437.01 312.71 434.40 316.36Q431.78 320.01 426.17 322.81Q420.56 325.62 410.83 325.62ZM414.95 306.54L414.95 306.54Q424.86 306.54 431.12 301.03Q437.39 295.51 437.39 286.35L437.39 286.35L437.39 284.48L413.64 284.48Q407.10 284.48 403.36 287.28Q399.62 290.09 399.62 295.14L399.62 295.14Q399.62 300.19 403.54 303.37Q407.47 306.54 414.95 306.54Z M532.64 325.62L532.64 325.62Q514.51 325.62 502.91 317.76Q491.32 309.91 488.89 295.32L488.89 295.32L510.58 289.71Q511.89 296.26 514.97 300.00Q518.06 303.74 522.64 305.33Q527.22 306.92 532.64 306.92L532.64 306.92Q540.87 306.92 544.80 304.02Q548.73 301.12 548.73 296.82L548.73 296.82Q548.73 292.52 544.99 290.18Q541.25 287.84 533.02 286.35L533.02 286.35L527.78 285.41Q518.06 283.54 510.02 280.27Q501.98 277.00 497.12 271.20Q492.25 265.40 492.25 256.24L492.25 256.24Q492.25 242.40 502.35 235.02Q512.45 227.63 528.90 227.63L528.90 227.63Q544.43 227.63 554.71 234.55Q565.00 241.47 568.17 252.69L568.17 252.69L546.30 259.42Q544.80 252.31 540.22 249.32Q535.64 246.33 528.90 246.33L528.90 246.33Q522.17 246.33 518.62 248.67Q515.07 251.00 515.07 255.12L515.07 255.12Q515.07 259.61 518.81 261.76Q522.55 263.91 528.90 265.03L528.90 265.03L534.14 265.97Q544.61 267.83 553.12 270.92Q561.63 274.01 566.59 279.71Q571.54 285.41 571.54 295.14L571.54 295.14Q571.54 309.72 560.98 317.67Q550.41 325.62 532.64 325.62Z M638.37 325.62L638.37 325.62Q624.53 325.62 613.97 319.73Q603.40 313.84 597.51 303.08Q591.62 292.33 591.62 277.75L591.62 277.75L591.62 275.50Q591.62 260.92 597.42 250.16Q603.22 239.41 613.69 233.52Q624.16 227.63 638.00 227.63L638.00 227.63Q651.65 227.63 661.75 233.71Q671.85 239.78 677.46 250.54Q683.07 261.29 683.07 275.50L683.07 275.50L683.07 283.54L615.56 283.54Q615.93 293.08 622.66 299.06Q629.40 305.05 639.12 305.05L639.12 305.05Q649.03 305.05 653.71 300.75Q658.38 296.45 660.81 291.21L660.81 291.21L680.07 301.31Q677.46 306.17 672.50 311.87Q667.54 317.58 659.32 321.60Q651.09 325.62 638.37 325.62ZM615.75 265.97L615.75 265.97L659.13 265.97Q658.38 257.92 652.68 253.06Q646.97 248.20 637.81 248.20L637.81 248.20Q628.27 248.20 622.66 253.06Q617.05 257.92 615.75 265.97Z M722.97 325.62L722.97 325.62Q715.30 325.62 710.16 320.66Q705.02 315.71 705.02 307.85L705.02 307.85Q705.02 300.00 710.16 295.04Q715.30 290.09 722.97 290.09L722.97 290.09Q730.45 290.09 735.50 295.04Q740.55 300.00 740.55 307.85L740.55 307.85Q740.55 315.71 735.50 320.66Q730.45 325.62 722.97 325.62Z"></path>
  <path fill="#cbff00" d="M 85 53 L 161.5 93 L 164 95.5 L 164 119.5 L 162.5 121 L 85 162 L 85 136.5 L 86.5 136 L 139 107.5 L 85 79 L 85 53 Z"></path>
  <path fill="#cbff00" transform="translate(58,0)" d="M 1025 131 L 1059.5 131 L 1060 133.5 L 1038 185.5 L 1034.5 191 L 1016.5 191 L 1015 189.5 L 1025 131 Z"></path>
</svg>