<?xml version="1.0" encoding="utf-8"?>
<!-- Generator: Adobe Illustrator 25.3.1, SVG Export Plug-In . SVG Version: 6.00 Build 0)  -->
<svg version="1.1" id="Layer_1" xmlns="http://www.w3.org/2000/svg" xmlns:xlink="http://www.w3.org/1999/xlink" x="0px" y="0px"
	 viewBox="0 0 1253.9 362.6" style="enable-background:new 0 0 1253.9 362.6;" xml:space="preserve">
<style type="text/css">
	.st0{fill:#0E4E87;}
	.st1{fill:#0080C2;}
	.st2{fill:#56C4AE;}
</style>
<g>
	<path class="st0" d="M349.8,218.2c-5-1.5-9-3.6-12-6.1l4.5-10.1c2.9,2.3,6.4,4.1,10.5,5.5c4.2,1.4,8.4,2.2,12.5,2.2
		c5.2,0,9.1-0.8,11.7-2.5c2.6-1.7,3.8-3.9,3.8-6.6c0-2-0.7-3.6-2.1-4.9c-1.4-1.3-3.2-2.3-5.5-3.1c-2.2-0.7-5.2-1.6-9-2.5
		c-5.3-1.3-9.7-2.5-13-3.8c-3.3-1.3-6.1-3.2-8.5-6c-2.4-2.7-3.5-6.3-3.5-10.9c0-3.9,1-7.4,3.2-10.6c2.1-3.2,5.3-5.7,9.5-7.5
		c4.2-1.9,9.4-2.8,15.5-2.8c4.3,0,8.5,0.5,12.6,1.6c4.1,1.1,7.7,2.6,10.7,4.6l-4.1,10.1c-3.1-1.8-6.3-3.2-9.6-4.1
		c-3.3-0.9-6.6-1.4-9.7-1.4c-5.1,0-8.9,0.9-11.4,2.6c-2.5,1.7-3.8,4-3.8,6.9c0,2,0.7,3.6,2.1,4.9c1.4,1.3,3.2,2.3,5.5,3
		c2.2,0.7,5.2,1.6,9,2.5c5.2,1.2,9.5,2.5,12.8,3.8c3.3,1.3,6.2,3.3,8.5,6c2.4,2.7,3.6,6.3,3.6,10.8c0,3.9-1.1,7.4-3.2,10.5
		c-2.1,3.1-5.3,5.6-9.5,7.5c-4.3,1.9-9.5,2.8-15.6,2.8C360,220.5,354.8,219.7,349.8,218.2z"/>
	<path class="st0" d="M434.1,212.4c-5.4-5.4-8.1-13.2-8.1-23.3v-39.5h13v39c0,13.7,5.9,20.6,17.8,20.6c11.8,0,17.7-6.9,17.7-20.6
		v-39h12.8V189c0,10.1-2.7,17.9-8,23.3c-5.4,5.4-12.9,8.2-22.5,8.2C447,220.5,439.5,217.8,434.1,212.4z"/>
	<path class="st0" d="M584.3,189.5c2.3,3,3.4,6.6,3.4,11c0,6.1-2.3,10.8-7,14c-4.7,3.3-11.5,5-20.4,5h-34.8v-70h32.8
		c8.3,0,14.6,1.6,19.1,4.8c4.5,3.2,6.7,7.7,6.7,13.4c0,3.5-0.8,6.5-2.4,9.2c-1.6,2.7-3.8,4.7-6.6,6.2
		C579,184.4,582,186.5,584.3,189.5z M538.5,159.7V179h18.4c4.5,0,8-0.8,10.5-2.5c2.4-1.6,3.7-4,3.7-7.1c0-3.2-1.2-5.6-3.7-7.2
		c-2.4-1.6-5.9-2.5-10.5-2.5H538.5z M574.6,199.2c0-6.7-5-10.1-15.1-10.1h-21v20.2h21C569.6,209.3,574.6,205.9,574.6,199.2z"/>
	<path class="st0" d="M635,215.9c-5.7-3.1-10.2-7.4-13.5-12.9c-3.3-5.5-4.9-11.7-4.9-18.5s1.6-13,4.9-18.5
		c3.3-5.5,7.8-9.8,13.5-12.9c5.7-3.1,12.2-4.7,19.3-4.7c7.1,0,13.6,1.5,19.3,4.7c5.7,3.1,10.2,7.4,13.5,12.8
		c3.3,5.5,4.9,11.6,4.9,18.5c0,6.9-1.6,13-4.9,18.5c-3.3,5.5-7.8,9.8-13.5,12.8c-5.7,3.1-12.2,4.7-19.3,4.7
		C647.2,220.5,640.7,219,635,215.9z M666.9,206c3.7-2.1,6.7-5,8.8-8.8c2.1-3.8,3.2-8,3.2-12.7c0-4.7-1.1-8.9-3.2-12.7
		c-2.1-3.8-5.1-6.7-8.8-8.8c-3.7-2.1-7.9-3.1-12.6-3.1c-4.7,0-8.9,1-12.6,3.1c-3.7,2.1-6.7,5-8.8,8.8c-2.1,3.8-3.2,8-3.2,12.7
		c0,4.7,1.1,8.9,3.2,12.7c2.1,3.8,5.1,6.7,8.8,8.8c3.7,2.1,7.9,3.1,12.6,3.1C659,209.1,663.2,208.1,666.9,206z"/>
	<path class="st0" d="M771.6,219.5L757.3,199c-0.6,0.1-1.5,0.1-2.7,0.1h-15.8v20.4h-13v-70h28.8c6.1,0,11.3,1,15.8,3s8,4.9,10.4,8.6
		c2.4,3.7,3.6,8.2,3.6,13.3c0,5.3-1.3,9.8-3.8,13.6c-2.6,3.8-6.2,6.6-11.1,8.5l16.1,23H771.6z M766.9,164.1
		c-2.9-2.4-7.2-3.6-12.9-3.6h-15.2v27.9H754c5.7,0,10-1.2,12.9-3.7c2.9-2.4,4.4-5.9,4.4-10.3C771.3,169.9,769.8,166.5,766.9,164.1z"
		/>
	<path class="st0" d="M877.7,189.5c2.3,3,3.4,6.6,3.4,11c0,6.1-2.3,10.8-7,14c-4.7,3.3-11.5,5-20.4,5h-34.8v-70h32.8
		c8.3,0,14.6,1.6,19.1,4.8c4.5,3.2,6.7,7.7,6.7,13.4c0,3.5-0.8,6.5-2.4,9.2c-1.6,2.7-3.8,4.7-6.6,6.2
		C872.4,184.4,875.4,186.5,877.7,189.5z M831.9,159.7V179h18.4c4.5,0,8-0.8,10.5-2.5c2.4-1.6,3.7-4,3.7-7.1c0-3.2-1.2-5.6-3.7-7.2
		c-2.4-1.6-5.9-2.5-10.5-2.5H831.9z M868,199.2c0-6.7-5-10.1-15.1-10.1h-21v20.2h21C863,209.3,868,205.9,868,199.2z"/>
	<path class="st0" d="M915,149.5h13v70h-13V149.5z"/>
	<path class="st0" d="M981.1,160.5h-23.2v-11h59.4v11h-23.2v59h-13V160.5z"/>
	<path class="st0" d="M1089,203.3h-35l-6.9,16.2h-13.4l31.5-70h12.8l31.6,70H1096L1089,203.3z M1084.7,193.1l-13.2-30.6l-13.1,30.6
		H1084.7z"/>
	<path class="st0" d="M1138.5,149.5h13v59h36.6v11h-49.6V149.5z"/>
</g>
<g>
	<g>
		<path class="st1" d="M192.4,139.8c-11.3-5-23.4-5.6-34.5-2.5c-1.2,0.3-1.8,1.6-1.4,2.7l0,0l4,10.5l0.1,0.3c0.4,1,1.4,1.5,2.4,1.3
			c7.4-1.9,15.4-1.4,22.9,2c7.5,3.4,13.3,9.1,16.8,15.9c0.5,0.9,1.6,1.3,2.5,0.9l0.3-0.1l10.5-4l0,0c1.1-0.4,1.6-1.7,1.1-2.8
			C212.2,153.6,203.7,144.9,192.4,139.8z"/>
		<path class="st0" d="M157,158.5c0.9-0.5,1.3-1.6,0.9-2.5l-0.7-1.8l-0.8-2.1l-4-10.5l-0.8-2l-0.6-1.5c-0.4-1.1-1.7-1.6-2.8-1.1
			c-11.3,5.4-20.8,14.6-26.3,26.9c-5.5,12.3-6.1,25.5-2.6,37.5c0.3,1.2,1.6,1.8,2.7,1.4l1.5-0.6l2-0.8l10.5-4l2.1-0.8l1.8-0.7
			c1-0.4,1.5-1.4,1.3-2.4c-1.6-6.5-1.1-13.6,1.8-20.1C146.1,166.7,151,161.6,157,158.5z"/>
		<path class="st0" d="M223.9,170.9c-0.3-1.2-1.6-1.8-2.7-1.4l-1.5,0.6l-2,0.8l-10.5,4l-2.1,0.8l-1.8,0.7c-1,0.4-1.5,1.4-1.3,2.4
			c1.6,6.5,1.1,13.6-1.8,20.1c-2.9,6.5-7.9,11.6-13.7,14.7c-0.9,0.5-1.3,1.6-0.9,2.5l0.7,1.8l0.8,2.1l4,10.5l0.8,2l0.6,1.5
			c0.4,1.1,1.7,1.6,2.8,1.1c11.2-5.4,20.7-14.6,26.1-26.8C226.8,196.1,227.4,182.9,223.9,170.9z"/>
		<path class="st2" d="M156.4,220.1c-8.1-3.6-14.2-9.7-17.9-17.1c-0.5-0.9-1.6-1.3-2.5-1l-6.7,2.6c-1.1,0.4-1.6,1.7-1.1,2.8
			c4.8,9.8,13,18.1,23.7,22.9c10.8,4.8,22.4,5.4,33,2.4c1.2-0.3,1.8-1.6,1.4-2.7l-2.6-6.7c-0.4-1-1.4-1.5-2.4-1.2
			C173.2,224.2,164.5,223.7,156.4,220.1z"/>
	</g>
	<g>
		<path class="st1" d="M95.2,195c1.4,12.5,5.8,24,12.3,33.8c0.6,1,2,1.2,2.9,0.5l0,0l9.1-6.7l0.2-0.1c0.9-0.6,1.1-1.8,0.5-2.7
			c-5-7.7-8.3-16.7-9.5-26.4c-3.7-32.5,18.6-62.1,50.3-67.9c1.1-0.2,1.8-1.2,1.7-2.2l0-0.2l-1.3-11.2l0-0.1c-0.1-1.2-1.2-2-2.3-1.8
			C118.8,116.7,90.4,154,95.2,195z"/>
		<path class="st2" d="M235.7,178.9c1.2,10.1-0.1,19.9-3.4,28.9c-0.4,1,0.1,2.1,1.1,2.6l6.6,2.9c1.1,0.5,2.3,0,2.7-1.1
			c3.9-10.7,5.5-22.4,4.1-34.5c-4.6-39.8-39.5-68.8-79-66.5c-1.2,0.1-2,1.1-1.9,2.3l0.8,7.2c0.1,1.1,1.1,1.9,2.2,1.8
			C202.3,120.6,231.8,145.2,235.7,178.9z"/>
		<path class="st0" d="M242.3,219l-2-0.9l-10.3-4.5l-2-0.9l-1.7-0.7c-1-0.4-2.1,0-2.6,1c-8.6,16.5-25,28.6-44.9,30.9
			c-19.8,2.3-38.5-5.8-50.6-19.9c-0.7-0.8-1.9-1-2.8-0.3l-1.5,1.1l-1.8,1.3l-9,6.7l-1.8,1.3l-1.3,1c-0.9,0.7-1.1,2-0.4,2.9
			c17,20.4,43.5,32.1,71.8,28.9c28.3-3.3,51.5-20.7,63.4-44.5c0.5-1,0-2.3-1-2.8L242.3,219z"/>
	</g>
	<g>
		<path class="st2" d="M216.6,267.7l3.3,6.4c0.5,1,1.8,1.4,2.8,0.9c36.5-20.8,55.6-61.3,50.8-101.1c-0.1-1.1-1.2-1.9-2.4-1.8
			l-7.1,1.2c-1.1,0.2-1.8,1.2-1.7,2.3c4.2,35.2-12.7,71-44.9,89.5C216.4,265.5,216.1,266.7,216.6,267.7z"/>
		<path class="st1" d="M191.9,83.8c-1.1-0.2-2.2,0.6-2.4,1.7l0,0.1l-1.7,11.1l0,0.2c-0.2,1.1,0.6,2.1,1.6,2.3
			c25.6,5.1,48.6,21.4,61.5,46.3c3.7,7.1,6.3,14.5,7.9,22c0.2,1.1,1.2,1.8,2.3,1.6l0.2,0l11.1-1.8l0.1,0c1.1-0.2,1.9-1.3,1.7-2.4
			c-1.9-9-5-17.9-9.4-26.5C249.6,108.9,222.2,89.7,191.9,83.8z"/>
		<path class="st0" d="M122.6,90.1c-19.6,10.1-34.8,25.4-44.8,43.4c-0.6,1-0.2,2.3,0.9,2.8l1.5,0.7l2,1l10.1,5.1l2,1l1.6,0.8
			c1,0.5,2.2,0.1,2.7-0.8c7.9-13.8,19.7-25.6,34.8-33.4c15.2-7.8,31.6-10.6,47.4-9c1.1,0.1,2.1-0.6,2.2-1.7l0.3-1.8l0.3-2.2
			l1.7-11.1l0.3-2.2l0.2-1.6c0.2-1.1-0.6-2.2-1.8-2.3C163.5,76.5,142.2,80,122.6,90.1z"/>
		<path class="st2" d="M91.4,227.8c-13.2-25.6-13-54.5-2-78.9c0.5-1,0.1-2.2-0.9-2.7L82,143c-1-0.5-2.3-0.1-2.8,1
			c-12.5,27.5-12.7,60.2,2.1,89c4.3,8.4,9.6,15.9,15.7,22.5c0.8,0.8,2.1,0.9,2.9,0l5.1-5.1c0.8-0.8,0.8-2,0-2.8
			C99.8,241.7,95.1,235.1,91.4,227.8z"/>
		<path class="st1" d="M112.5,251.9c-0.8-0.7-2.1-0.7-2.8,0.1l-0.2,0.2l-7.9,8l-0.1,0.1c-0.8,0.8-0.8,2.2,0.1,2.9
			c30.3,27.7,75.4,35.9,114.4,17.7c1-0.5,1.5-1.8,0.9-2.8l0-0.1l-5.2-10l-0.1-0.2c-0.5-1-1.7-1.4-2.7-0.9
			C176.1,281.9,138.2,275.1,112.5,251.9z"/>
	</g>
</g>
</svg>
