<?xml version="1.0" encoding="UTF-8" standalone="no"?>
<!-- Created with Inkscape (http://www.inkscape.org/) -->
<svg
   xmlns:svg="http://www.w3.org/2000/svg"
   xmlns="http://www.w3.org/2000/svg"
   version="1.0"
   width="744.09448"
   height="275.31494"
   id="svg7217">
  <defs
     id="defs7219" />
  <g
     transform="translate(-1324.226,767.12471)"
     id="layer1">
    <g
       transform="translate(17.716541,17.775636)"
       id="g7585">
      <path
         d="M 1444.1078,-737.79339 C 1456.0823,-737.79339 1470.3445,-736.58243 1474.65,-734.42967 C 1474.65,-731.20053 1474.65,-720.30219 1474.65,-719.22582 C 1474.65,-703.88739 1483.3956,-701.73462 1483.3956,-701.73462 C 1483.3956,-701.73462 1483.3956,-695.14181 1483.3956,-687.60714 C 1483.3956,-677.78516 1481.2429,-671.19234 1481.2429,-671.19234 C 1476.8027,-670.11598 1465.9044,-666.88681 1453.9295,-658.14123 C 1445.184,-651.54841 1437.5149,-641.72643 1437.5149,-631.90448 C 1437.5149,-625.44618 1438.5911,-621.00613 1440.8785,-616.7006 C 1440.8785,-616.7006 1436.4384,-614.54783 1428.7694,-614.54783 C 1419.0819,-615.62419 1408.1836,-623.29341 1401.5907,-635.26816 C 1392.8451,-650.47201 1388.5397,-669.03957 1378.7175,-669.03957 C 1368.8958,-669.03957 1368.8958,-659.21763 1361.2264,-659.21763 C 1352.4808,-659.21763 1347.0988,-673.34511 1344.9461,-679.93792 C 1339.4298,-689.75991 1326.3787,-692.98904 1325.3022,-708.32747 L 1366.7427,-708.32747 C 1366.7427,-731.20053 1366.7427,-744.25165 1366.7427,-767.12471 C 1381.9468,-767.12471 1390.6924,-767.12471 1405.8962,-767.12471 L 1405.8962,-742.09888 C 1407.107,-741.02252 1410.3363,-739.94612 1414.6418,-738.86975 L 1410.3363,-719.22582 L 1398.3614,-719.22582 L 1393.9213,-701.73462 L 1405.8962,-701.73462 L 1401.5907,-679.93792 C 1401.5907,-676.70879 1400.5142,-669.03957 1401.5907,-665.81044 C 1403.7435,-657.06486 1409.2597,-653.83569 1416.7945,-653.83569 C 1427.6928,-653.83569 1437.5149,-659.21763 1437.5149,-659.21763 L 1441.9551,-673.34511 C 1439.8023,-673.34511 1436.4384,-673.34511 1434.2857,-673.34511 C 1432.1329,-673.34511 1429.9802,-673.34511 1431.0564,-678.86156 L 1436.4384,-701.73462 L 1448.4133,-701.73462 L 1452.8534,-719.22582 L 1440.8785,-719.22582 L 1444.1078,-737.79339"
         style="fill:#be372f;fill-rule:evenodd;stroke:none"
         id="path10" />
      <path
         d="M 1420.1581,-731.20053 L 1435.3622,-731.20053 L 1423.3873,-674.42147 L 1408.1836,-674.42147 L 1420.1581,-731.20053"
         style="fill:#be372f;fill-rule:evenodd;stroke:none"
         id="path14" />
      <path
         d="M 1431.0564,-751.92087 C 1435.3622,-751.92087 1439.8023,-748.69174 1439.8023,-743.17529 C 1439.8023,-738.86975 1435.3622,-735.50607 1431.0564,-735.50607 C 1426.6166,-735.50607 1422.3108,-738.86975 1422.3108,-743.17529 C 1422.3108,-748.69174 1426.6166,-751.92087 1431.0564,-751.92087"
         style="fill:#be372f;fill-rule:evenodd;stroke:none"
         id="path18" />
      <path
         d="M 1810.4807,-682.09069 C 1819.2263,-682.09069 1824.6079,-681.01433 1825.6845,-679.93792 C 1827.8372,-679.93792 1826.7606,-681.01433 1827.8372,-682.09069 L 1829.048,-682.09069 L 1834.4301,-666.88681 L 1832.2773,-665.81044 C 1829.048,-670.11598 1822.4552,-674.42147 1811.5569,-674.42147 C 1807.2514,-674.42147 1798.5058,-673.34511 1798.5058,-666.88681 C 1798.5058,-653.83569 1838.8702,-661.37036 1838.8702,-635.26816 C 1838.8702,-623.29341 1829.048,-614.54783 1810.4807,-614.54783 C 1803.8879,-614.54783 1798.5058,-615.62419 1792.9895,-617.77696 C 1791.913,-617.77696 1790.8368,-616.7006 1790.8368,-615.62419 L 1788.6837,-614.54783 L 1782.0908,-634.19176 L 1784.244,-635.26816 C 1789.7603,-628.67531 1797.4293,-623.29341 1810.4807,-623.29341 C 1821.379,-623.29341 1824.6079,-627.59895 1824.6079,-631.90448 C 1824.6079,-647.24288 1785.3201,-637.42089 1785.3201,-663.65767 C 1785.3201,-675.63239 1797.4293,-682.09069 1810.4807,-682.09069"
         style="fill:#0f0e0c;fill-rule:evenodd;stroke:none"
         id="path22" />
      <path
         d="M 1583.6335,-615.62419 L 1583.6335,-617.77696 C 1588.0736,-618.85337 1590.2263,-619.92973 1590.2263,-626.52254 L 1590.2263,-671.19234 C 1590.2263,-677.78516 1588.0736,-678.86156 1583.6335,-679.93792 L 1583.6335,-682.09069 L 1634.8961,-682.09069 L 1640.4124,-667.96321 L 1638.2597,-666.88681 C 1633.8196,-672.26871 1629.5141,-673.34511 1621.8451,-673.34511 C 1620.7685,-673.34511 1609.8702,-673.34511 1609.8702,-673.34511 C 1605.4301,-673.34511 1604.3539,-672.26871 1604.3539,-669.03957 L 1604.3539,-654.91209 L 1621.8451,-654.91209 C 1628.438,-654.91209 1629.5141,-655.98846 1630.5907,-659.21763 L 1632.7434,-659.21763 L 1632.7434,-641.72643 L 1630.5907,-641.72643 C 1629.5141,-645.09011 1628.438,-646.16651 1621.8451,-646.16651 L 1604.3539,-646.16651 L 1604.3539,-628.67531 C 1604.3539,-624.36981 1605.4301,-624.36981 1609.8702,-624.36981 C 1609.8702,-624.36981 1623.9978,-624.36981 1625.074,-624.36981 C 1631.6668,-624.36981 1637.0489,-624.36981 1642.5652,-630.82808 L 1643.6417,-629.75171 L 1639.3363,-615.62419 L 1583.6335,-615.62419"
         style="fill:#0f0e0c;fill-rule:evenodd;stroke:none"
         id="path26" />
      <path
         d="M 1567.3532,-626.52254 C 1567.3532,-619.92973 1569.5059,-618.85337 1572.7352,-617.77696 L 1572.7352,-615.62419 L 1544.48,-615.62419 L 1544.48,-617.77696 C 1547.7093,-618.85337 1550.9386,-619.92973 1550.9386,-626.52254 L 1550.9386,-689.75991 C 1550.9386,-692.98904 1548.7858,-692.98904 1544.48,-692.98904 C 1530.2181,-692.98904 1524.8361,-692.98904 1519.3198,-687.60714 L 1518.2432,-687.60714 L 1523.7599,-702.81102 L 1594.5318,-702.81102 L 1600.0481,-687.60714 L 1597.8954,-687.60714 C 1593.4552,-692.98904 1586.997,-692.98904 1572.7352,-692.98904 C 1568.4297,-692.98904 1567.3532,-692.98904 1567.3532,-689.75991 L 1567.3532,-626.52254"
         style="fill:#0f0e0c;fill-rule:evenodd;stroke:none"
         id="path30" />
      <path
         d="M 1672.0312,-648.31928 L 1653.4635,-672.26871 C 1650.2346,-677.78516 1647.9472,-678.86156 1643.6417,-679.93792 L 1643.6417,-682.09069 L 1674.1839,-682.09069 L 1674.1839,-679.93792 C 1670.9546,-679.93792 1668.6676,-676.70879 1672.0312,-672.26871 L 1680.6421,-659.21763 L 1691.6751,-673.34511 C 1693.8278,-676.70879 1693.8278,-679.93792 1689.3877,-679.93792 L 1689.3877,-682.09069 L 1714.5483,-682.09069 L 1714.5483,-679.93792 C 1710.1081,-678.86156 1706.8788,-677.78516 1702.5734,-673.34511 L 1687.235,-651.54841 L 1705.8027,-625.44618 C 1707.9554,-622.21705 1710.1081,-619.92973 1710.1081,-619.92973 C 1710.1081,-619.92973 1713.4717,-621.00613 1717.7772,-631.90448 L 1738.4976,-682.09069 L 1751.5486,-682.09069 L 1775.6327,-625.44618 C 1776.7092,-622.21705 1779.9381,-618.85337 1783.1674,-617.77696 L 1783.1674,-615.62419 L 1754.9126,-615.62419 L 1754.9126,-617.77696 C 1757.0653,-617.77696 1761.3708,-618.85337 1758.1415,-625.44618 L 1754.9126,-634.19176 L 1727.5993,-634.19176 L 1724.37,-625.44618 C 1721.0064,-618.85337 1726.5227,-617.77696 1727.5993,-617.77696 L 1727.5993,-615.62419 L 1685.0822,-615.62419 L 1685.0822,-617.77696 C 1687.235,-617.77696 1692.7516,-619.92973 1688.3115,-625.44618 L 1677.4132,-639.57366 L 1666.5149,-624.36981 C 1663.2856,-619.92973 1666.5149,-617.77696 1668.6676,-617.77696 L 1668.6676,-615.62419 L 1643.6417,-615.62419 L 1643.6417,-617.77696 C 1647.9472,-618.85337 1652.3873,-621.00613 1655.6162,-626.52254 L 1672.0312,-648.31928 z M 1741.7269,-669.03957 L 1730.8286,-642.80283 L 1751.5486,-642.80283 L 1741.7269,-669.03957"
         style="fill:#0f0e0c;fill-rule:evenodd;stroke:none"
         id="path34" />
      <path
         d="M 1330.6842,-605.80225 C 1330.6842,-612.39506 1327.4549,-613.47147 1324.226,-614.54783 L 1324.226,-615.62419 L 1352.4808,-615.62419 L 1352.4808,-614.54783 C 1350.3281,-613.47147 1347.0988,-612.39506 1347.0988,-605.80225 L 1347.0988,-539.33575 C 1347.0988,-532.74294 1350.3281,-531.66657 1352.4808,-530.59017 L 1352.4808,-528.4374 L 1324.226,-528.4374 L 1324.226,-530.59017 C 1327.4549,-531.66657 1330.6842,-532.74294 1330.6842,-539.33575 L 1330.6842,-605.80225"
         style="fill:#0f0e0c;fill-rule:evenodd;stroke:none"
         id="path38" />
      <path
         d="M 1421.2346,-528.4374 L 1419.0819,-528.4374 L 1374.2774,-575.25997 L 1374.2774,-539.33575 C 1374.2774,-532.74294 1377.6414,-531.66657 1379.7941,-530.59017 L 1379.7941,-528.4374 L 1360.1498,-528.4374 L 1360.1498,-530.59017 C 1363.3791,-531.66657 1365.5318,-532.74294 1365.5318,-539.33575 L 1365.5318,-584.00555 C 1365.5318,-590.59837 1363.3791,-591.67477 1360.1498,-592.75113 L 1360.1498,-594.9039 L 1378.7175,-594.9039 L 1412.489,-557.76877 L 1412.489,-584.00555 C 1412.489,-590.59837 1410.3363,-591.67477 1407.107,-592.75113 L 1407.107,-594.9039 L 1427.6928,-594.9039 L 1427.6928,-592.75113 C 1424.4639,-591.67477 1421.2346,-590.59837 1421.2346,-584.00555 L 1421.2346,-528.4374"
         style="fill:#0f0e0c;fill-rule:evenodd;stroke:none"
         id="path42" />
      <path
         d="M 1679.5659,-551.3105 C 1679.5659,-531.66657 1662.209,-527.36104 1651.3107,-527.36104 C 1639.3363,-527.36104 1621.8451,-531.66657 1621.8451,-550.2341 L 1621.8451,-584.00555 C 1621.8451,-590.59837 1618.6158,-592.75113 1615.2522,-592.75113 L 1615.2522,-594.9039 L 1642.5652,-594.9039 L 1642.5652,-592.75113 C 1639.3363,-592.75113 1635.9723,-590.59837 1635.9723,-584.00555 L 1635.9723,-551.3105 C 1635.9723,-540.41216 1642.5652,-535.97207 1653.4635,-535.97207 C 1663.2856,-535.97207 1670.9546,-540.41216 1670.9546,-551.3105 L 1670.9546,-584.00555 C 1670.9546,-590.59837 1667.5911,-591.67477 1664.3618,-592.75113 L 1664.3618,-594.9039 L 1685.0822,-594.9039 L 1685.0822,-592.75113 C 1681.8533,-591.67477 1679.5659,-590.59837 1679.5659,-584.00555 L 1679.5659,-551.3105"
         style="fill:#0f0e0c;fill-rule:evenodd;stroke:none"
         id="path46" />
      <path
         d="M 1509.4977,-581.85278 C 1509.4977,-586.15832 1509.4977,-586.15832 1506.2688,-586.15832 C 1495.3704,-586.15832 1493.2173,-586.15832 1486.6249,-578.4891 L 1485.5483,-579.56547 L 1489.8538,-594.9039 L 1544.48,-594.9039 L 1549.862,-579.56547 L 1547.7093,-578.4891 C 1542.193,-586.15832 1540.0402,-586.15832 1529.1415,-586.15832 C 1525.9126,-586.15832 1524.8361,-586.15832 1524.8361,-581.85278 L 1524.8361,-539.33575 C 1524.8361,-532.74294 1526.9888,-531.66657 1531.2943,-530.59017 L 1531.2943,-528.4374 L 1504.116,-528.4374 L 1504.116,-530.59017 C 1508.4215,-531.66657 1509.4977,-532.74294 1509.4977,-539.33575 L 1509.4977,-581.85278"
         style="fill:#0f0e0c;fill-rule:evenodd;stroke:none"
         id="path50" />
      <path
         d="M 1459.4462,-595.98026 C 1466.9806,-595.98026 1472.4973,-593.8275 1473.5734,-593.8275 C 1475.7262,-592.75113 1475.7262,-594.9039 1475.7262,-594.9039 L 1477.8793,-595.98026 L 1482.319,-579.56547 L 1480.032,-579.56547 C 1476.8027,-582.92915 1471.4207,-587.23468 1460.5224,-587.23468 C 1455.0061,-587.23468 1446.2605,-586.15832 1446.2605,-579.56547 C 1446.2605,-567.59075 1487.701,-574.18357 1487.701,-548.08137 C 1487.701,-535.97207 1477.8793,-528.4374 1459.4462,-528.4374 C 1451.7768,-528.4374 1446.2605,-529.51381 1440.8785,-530.59017 C 1439.8023,-530.59017 1439.8023,-529.51381 1438.5911,-529.51381 C 1438.5911,-528.4374 1436.4384,-528.4374 1436.4384,-528.4374 L 1429.9802,-546.87042 L 1432.1329,-548.08137 C 1437.5149,-541.48852 1445.184,-535.97207 1458.235,-535.97207 C 1469.1337,-535.97207 1472.4973,-540.41216 1472.4973,-544.71765 C 1472.4973,-560.05609 1433.2095,-550.2341 1433.2095,-576.33633 C 1433.2095,-588.31109 1446.2605,-595.98026 1459.4462,-595.98026"
         style="fill:#0f0e0c;fill-rule:evenodd;stroke:none"
         id="path54" />
      <path
         d="M 1767.9636,-539.33575 C 1767.9636,-532.74294 1771.1925,-531.66657 1774.4218,-530.59017 L 1774.4218,-528.4374 L 1747.2432,-528.4374 L 1747.2432,-530.59017 C 1750.4725,-531.66657 1753.7014,-532.74294 1753.7014,-539.33575 L 1753.7014,-570.95444 L 1729.752,-527.36104 L 1727.5993,-527.36104 L 1703.65,-572.0308 L 1703.65,-539.33575 C 1703.65,-532.74294 1706.8788,-531.66657 1710.1081,-530.59017 L 1710.1081,-528.4374 L 1689.3877,-528.4374 L 1689.3877,-530.59017 C 1691.6751,-531.66657 1694.9044,-532.74294 1694.9044,-539.33575 L 1694.9044,-584.00555 C 1694.9044,-590.59837 1691.6751,-591.67477 1689.3877,-592.75113 L 1689.3877,-594.9039 L 1710.1081,-594.9039 L 1731.9048,-551.3105 L 1755.9888,-594.9039 L 1774.4218,-594.9039 L 1774.4218,-592.75113 C 1771.1925,-591.67477 1767.9636,-590.59837 1767.9636,-584.00555 L 1767.9636,-539.33575"
         style="fill:#0f0e0c;fill-rule:evenodd;stroke:none"
         id="path58" />
      <path
         d="M 1905.3366,-528.4374 L 1903.1839,-528.4374 L 1858.3794,-575.25997 L 1858.3794,-539.33575 C 1858.3794,-532.74294 1861.7434,-531.66657 1863.8961,-530.59017 L 1863.8961,-528.4374 L 1843.1756,-528.4374 L 1843.1756,-530.59017 C 1846.4049,-531.66657 1849.7685,-532.74294 1849.7685,-539.33575 L 1849.7685,-584.00555 C 1849.7685,-590.59837 1847.4811,-591.67477 1843.1756,-592.75113 L 1843.1756,-594.9039 L 1862.8195,-594.9039 L 1896.591,-557.76877 L 1896.591,-584.00555 C 1896.591,-590.59837 1893.3617,-591.67477 1889.9982,-592.75113 L 1889.9982,-594.9039 L 1910.8529,-594.9039 L 1910.8529,-592.75113 C 1908.5659,-591.67477 1905.3366,-590.59837 1905.3366,-584.00555 L 1905.3366,-528.4374"
         style="fill:#0f0e0c;fill-rule:evenodd;stroke:none"
         id="path62" />
      <path
         d="M 1782.0908,-528.4374 L 1782.0908,-530.59017 C 1785.3201,-531.66657 1787.6075,-533.8193 1787.6075,-539.33575 L 1787.6075,-584.00555 C 1787.6075,-590.59837 1785.3201,-591.67477 1782.0908,-592.75113 L 1782.0908,-594.9039 L 1833.3535,-594.9039 L 1837.7936,-580.77642 L 1836.5828,-579.56547 C 1832.2773,-585.08192 1826.7606,-586.15832 1820.3025,-586.15832 C 1819.2263,-586.15832 1807.2514,-586.15832 1807.2514,-586.15832 C 1803.8879,-586.15832 1802.8113,-585.08192 1802.8113,-581.85278 L 1802.8113,-567.59075 L 1819.2263,-567.59075 C 1825.6845,-567.59075 1827.8372,-569.87807 1827.8372,-572.0308 L 1830.1246,-572.0308 L 1830.1246,-554.53964 L 1827.8372,-554.53964 C 1827.8372,-557.76877 1825.6845,-558.84517 1819.2263,-558.84517 L 1802.8113,-558.84517 L 1802.8113,-541.48852 C 1802.8113,-538.12484 1803.8879,-537.04847 1807.2514,-537.04847 C 1807.2514,-537.04847 1821.379,-537.04847 1822.4552,-537.04847 C 1829.048,-537.04847 1835.5062,-537.04847 1839.9463,-543.64129 L 1842.0991,-542.56492 L 1836.5828,-528.4374 L 1782.0908,-528.4374"
         style="fill:#0f0e0c;fill-rule:evenodd;stroke:none"
         id="path66" />
      <path
         d="M 1935.8788,-581.85278 C 1935.8788,-586.15832 1934.8026,-586.15832 1932.5152,-586.15832 C 1920.5404,-586.15832 1919.4642,-586.15832 1913.0056,-578.4891 L 1911.7948,-579.56547 L 1916.2349,-594.9039 L 1970.7268,-594.9039 L 1976.2431,-579.56547 L 1974.0904,-578.4891 C 1968.5737,-586.15832 1966.421,-586.15832 1955.5227,-586.15832 C 1952.1591,-586.15832 1951.0826,-586.15832 1951.0826,-581.85278 L 1951.0826,-539.33575 C 1951.0826,-532.74294 1953.2353,-531.66657 1957.6754,-530.59017 L 1957.6754,-528.4374 L 1930.3625,-528.4374 L 1930.3625,-530.59017 C 1933.7261,-531.66657 1935.8788,-532.74294 1935.8788,-539.33575 L 1935.8788,-581.85278"
         style="fill:#0f0e0c;fill-rule:evenodd;stroke:none"
         id="path70" />
      <path
         d="M 2004.4979,-595.98026 C 2012.1674,-595.98026 2017.6837,-593.8275 2019.8364,-593.8275 C 2020.9129,-592.75113 2020.9129,-594.9039 2020.9129,-594.9039 C 2021.9891,-594.9039 2023.0657,-595.98026 2023.0657,-595.98026 L 2027.3711,-579.56547 L 2026.295,-579.56547 C 2023.0657,-582.92915 2016.4728,-587.23468 2005.7092,-587.23468 C 2000.1925,-587.23468 1992.5235,-586.15832 1992.5235,-579.56547 C 1992.5235,-567.59075 2032.8874,-574.18357 2032.8874,-548.08137 C 2032.8874,-535.97207 2023.0657,-528.4374 2004.4979,-528.4374 C 1996.9636,-528.4374 1991.4469,-529.51381 1986.0649,-530.59017 C 1984.9887,-530.59017 1984.9887,-529.51381 1984.9887,-529.51381 C 1983.7779,-528.4374 1982.7013,-528.4374 1982.7013,-528.4374 L 1975.1666,-546.87042 L 1977.3193,-548.08137 C 1982.7013,-541.48852 1991.4469,-535.97207 2003.4218,-535.97207 C 2014.3201,-535.97207 2017.6837,-540.41216 2017.6837,-544.71765 C 2017.6837,-560.05609 1978.3959,-550.2341 1978.3959,-576.33633 C 1978.3959,-588.31109 1991.4469,-595.98026 2004.4979,-595.98026"
         style="fill:#0f0e0c;fill-rule:evenodd;stroke:none"
         id="path74" />
      <path
         d="M 1585.7862,-594.9039 C 1600.0481,-594.9039 1610.9468,-589.38745 1610.9468,-577.41274 C 1610.9468,-564.36162 1598.9719,-562.20885 1592.3791,-561.13245 C 1609.8702,-554.53964 1610.9468,-531.66657 1621.8451,-531.66657 L 1621.8451,-530.59017 C 1619.6924,-529.51381 1617.5393,-528.4374 1612.023,-528.4374 C 1588.0736,-528.4374 1593.4552,-557.76877 1578.2515,-557.76877 L 1570.5824,-557.76877 L 1570.5824,-539.33575 C 1570.5824,-532.74294 1572.7352,-531.66657 1576.0987,-530.59017 L 1576.0987,-528.4374 L 1549.862,-528.4374 L 1549.862,-530.59017 C 1553.0913,-531.66657 1555.3783,-532.74294 1555.3783,-539.33575 L 1555.3783,-584.00555 C 1555.3783,-590.59837 1553.0913,-591.67477 1549.862,-592.75113 L 1549.862,-594.9039 L 1585.7862,-594.9039 z M 1570.5824,-565.43799 L 1579.328,-565.43799 C 1586.997,-565.43799 1595.6084,-568.66712 1595.6084,-576.33633 C 1595.6084,-580.77642 1592.3791,-587.23468 1582.5569,-587.23468 L 1575.0226,-587.23468 C 1571.6586,-587.23468 1570.5824,-586.15832 1570.5824,-581.85278 L 1570.5824,-565.43799"
         style="fill:#0f0e0c;fill-rule:evenodd;stroke:none"
         id="path78" />
    </g>
  </g>
</svg>
