<?xml version="1.0" encoding="utf-8"?>
<!-- Generator: Adobe Illustrator 24.0.3, SVG Export Plug-In . SVG Version: 6.00 Build 0)  -->
<svg version="1.1" id="Ebene_1" xmlns="http://www.w3.org/2000/svg" xmlns:xlink="http://www.w3.org/1999/xlink" x="0px" y="0px"
	 viewBox="0 0 260 180" style="enable-background:new 0 0 260 180;" xml:space="preserve">
<style type="text/css">
	.st0{fill:#E2001A;}
</style>
<path class="st0" d="M117.7,103.3c1.3-0.6,2.6-1.1,3.8-1.6c1.3-0.5,2.5-1,3.8-1.4c0-2.6,0-5.2,0-7.8c0-2.5,0-5,0-7.6
	c-1.1,2.8-2.4,5.6-3.7,8.8C120.4,96.8,119,99.9,117.7,103.3z"/>
<path class="st0" d="M90.9,90.8c-0.2,0-0.8,0.1-1.6,0.2c-1,0.2-2,0.6-3.2,1.1c-1.2,0.5-2.4,1.2-3.7,2c-0.6,2-1.2,4.1-1.8,6.1
	c-0.6,2.2-1.3,4.3-1.9,6.7c2-1.3,3.8-2.8,5.5-4.2c1.6-1.4,2.9-2.9,4-4.3c1.1-1.3,1.9-2.6,2.5-3.8c0.6-1.2,0.8-2.2,0.8-3
	c0-0.1,0-0.2,0.1-0.4c0-0.1,0-0.2-0.1-0.4C91.3,90.8,91.1,90.8,90.9,90.8z"/>
<g>
	<path class="st0" d="M65.3,67.6c0.6-0.6,1-1.2,1.3-1.7c0.4-0.5,0.5-1,0.5-1.4c0-0.2-0.2-0.4-0.6-0.4s-0.8,0-1.3,0.1
		c-0.7,0.5-1.8,1-3.1,1.8c-0.2,1-0.5,1.9-0.7,2.8c-0.2,0.8-0.5,1.8-0.7,2.6c1-0.6,1.8-1.2,2.6-1.9C64.1,69,64.7,68.2,65.3,67.6z"/>
	<path class="st0" d="M117.1,38.6c0.7-1,1.2-1.8,1.7-2.6c0.4-0.8,0.7-1.4,0.6-1.8c-0.1-0.4-0.8-0.4-1.7-0.2c-0.7,0.1-1.3,0.3-2,0.7
		s-1.4,0.8-2.3,1.4c-0.4,1.1-0.7,2.3-1.1,3.5s-0.7,2.5-1.1,3.8c0,0.2-0.1,0.4-0.1,0.6c0,0.2-0.1,0.4-0.1,0.6c1.3-1,2.4-2,3.5-3
		C115.6,40.5,116.4,39.6,117.1,38.6z"/>
	<path class="st0" d="M69.7,51.9c0.6-0.7,1.1-1.4,1.4-2c0.4-0.6,0.5-1.1,0.5-1.4c0-0.2-0.4-0.2-1.2,0c-0.6,0.1-1.2,0.5-1.9,0.8
		S67,50.2,66,51c-0.2,0.7-0.5,1.6-0.7,2.4c-0.2,0.8-0.5,1.7-0.7,2.6c0,0.2,0,0.5-0.1,0.8c1.1-0.8,2.2-1.7,3-2.5
		C68.3,53.5,69.1,52.6,69.7,51.9z"/>
	<path class="st0" d="M241.9,53.3c-0.1-0.8-0.4-1.6-0.6-2.3c0-0.1-0.1-0.2-0.1-0.4c-0.4-1-2.6-6.9-2.9-7.6c0-0.1-0.1-0.2-0.1-0.4
		c-0.4-1-0.7-1.8-1.1-2.5c-0.5-1-1.1-1.9-1.9-3.1c0-0.1-0.1-0.1-0.1-0.2c-1.6-2.2-3.4-3.1-4.7-3.6c-0.8-0.2-1.7-0.4-2.5-0.4
		c-1.4,0-2.9,0.4-4.4,1l-0.4,0.1c0,0-0.1,0-0.1,0.1c-2.8,1.2-5.5,2.4-8.2,3.8c-2.6,1.3-5.3,2.8-7.8,4.2s-4.9,2.9-7.2,4.3
		s-4.4,2.8-6.4,4c-0.6,0.4-1.2,1-1.6,1.7l-0.8,1.4c-0.4,0.6-0.6,1.3-0.6,1.9l0,0.5c-1.3-2-3.3-3.5-6-4.5c-1.2-0.5-2.4-0.8-3.8-1.1
		c-1.3-0.2-2.6-0.4-4.1-0.4c-0.2,0-0.4,0-0.6,0c-1.2,0-2.5,0.1-3.7,0.2c-1.3,0.1-2.5,0.4-3.7,0.6c-0.5,0.1-1.1,0.2-1.6,0.4l-0.7,0.2
		c-3.4,1.2-6.6,3.2-9.4,6.1c-2.5,2.6-4.9,5.8-6.8,9.4c-0.8,1.5-1.6,3.1-2.4,4.7l-2.1-6.2l0,0c-0.3-0.9-0.8-1.7-1.3-2.5
		c-1.3-1.7-3.4-2.6-6-2.9c-0.1,0-4.3-0.2-6.1-0.2c-0.2,0-0.6,0-0.8,0c-1,0-2.1,0.1-3.3,0.3c0-0.1,0-0.2,0-0.3c0-1-0.2-2-0.7-2.9
		c0.6-0.6,1.1-1.2,1.6-1.8c2.2-2.4,3.7-4.9,4.8-7.6c0.1-0.2,0.7-2,1-2.8c0.2-0.8,0.2-1.8,0.2-2.8c0-1.3-0.1-2.8-0.5-4
		c-0.2-0.7-0.4-1.3-0.6-1.9l0,0l-0.2-0.4c0-0.1-0.1-0.2-0.1-0.3l-2.6-7c-0.1-0.4-0.3-0.8-0.4-1.2l0-0.1l0,0
		c-0.1-0.2-0.1-0.3-0.2-0.5c-0.5-1-1.1-1.9-1.7-2.6c-0.5-0.6-1.1-1.3-1.6-1.8c0,0,0,0-0.1-0.1c-1.4-1.6-3.4-2.5-5.4-2.8
		c-0.5,0-1-0.1-1.4-0.1c-1.1,0-2.3,0.1-3.4,0.5c-1.2,0.4-2.4,0.8-3.7,1.4c-1.1,0.6-2.3,1.2-3.4,1.9s-2.3,1.4-3.4,2.3
		c-1.1,0.7-2,1.6-3,2.3c0,0,0,0,0,0c-0.4-0.4-0.8-0.6-1.2-0.9c-1-0.6-2-0.8-3.2-0.8c-0.7,0-1.4,0.1-2.2,0.4h-0.2c-0.1,0-0.1,0-0.2,0
		c-1.4,0.5-2.9,1-4.3,1.6c-1.4,0.6-2.8,1.2-4.1,1.8c-1.3,0.6-2.5,1.2-3.8,1.9c-1.2,0.6-2.3,1.2-3.2,1.8c-0.7,0.4-1.2,1-1.7,1.6
		l-0.5,0.7c-0.1,0.2-0.2,0.4-0.3,0.6c-1.1-0.7-2.6-1.3-4.6-1.4c-0.1,0-0.4,0-0.6,0c-1.4,0-3,0.2-4.6,0.6c-1.2,0.4-2.5,0.8-3.8,1.3
		c-1.3,0.6-2.5,1.2-3.7,1.8c-1.2,0.7-2.4,1.4-3.5,2.2c-1.2,0.8-2.3,1.6-3.1,2.4c-0.6-0.2-1.2-0.4-1.8-0.5c-0.6-0.1-1.2-0.2-1.8-0.2
		c-0.2,0-0.5,0-0.8,0c-0.7,0-1.3,0.1-2,0.2c-1.3,0.4-2.6,1.1-3.6,2.2c-0.6,0.6-1.1,1.4-1.4,2.3c-1-0.5-2-0.8-3.1-1
		c-0.5-0.1-1.1-0.1-1.6-0.1c-0.7,0-1.6,0.1-2.3,0.2c-1.4,0.4-2.6,1.2-3.6,2.3c-0.6,0.8-1.2,1.8-1.6,3c-0.7,2-1.3,4.2-2,6.5
		c-0.6,2.3-1.3,4.6-1.8,6.8c-0.6,2.3-1,4.6-1.3,6.7c-0.4,2.3-0.6,4.4-0.6,6.2c0,2.4,0.4,4.3,1,6.1l3,8.1c0.4,1.1,0.9,2,1.4,2.7
		c-1.2,1.7-2.3,3.5-3.1,5.4c-1.1,2-1.9,4.1-2.4,5.9c0,0.1,0,0.2-0.1,0.2c-1,2.9-1.6,5.6-1.6,8.2c0,2.6,0.4,5,1.2,7.1
		c0.5,1.3,1.2,2.6,2,3.7c0,0.4,0.1,0.8,0.2,1.2c-2.2,0.5-4.2,1.3-6,2.6l-0.1,0.1l-0.1,0.1l-0.1,0.1c-2.2,1.8-2.2,4.2-2.3,6.8
		c0,0.1,0,0.2,0,0.2v0.1c0,1.6-0.1,3.3,0.7,5l0,0l2.9,7.7c0,0,0,0,0,0l0,0.1l0,0c0.3,0.9,0.9,1.8,1.7,2.6c3.1,3.7,6.5,6.2,10,7.6
		c2.3,0.8,4.6,1.3,7,1.3c1.4,0,2.9-0.1,4.3-0.5l0.7-0.1c0,0,0,0,0.1,0c3-0.6,5.6-1.7,7.8-3.1c2.2-1.3,4-2.8,5.5-4.4
		c0.2-0.2,0.5-0.5,0.7-0.7c0.7,0.7,1.6,1.3,2.6,1.8c1.1,0.5,2.3,1,3.7,1.2l0.6,0.1c0,0,1.3,0.3,2.8,0.5c0.2,0,0.5,0,0.6,0
		c0.7,0,1.4-0.1,2.2-0.2c2.5-0.5,4-1.8,4.7-2.8c0.7-1,1.3-2,1.8-3.4c0.1-0.2,0.1-0.5,0.2-0.7c0.6-2.5,1.2-5.2,1.8-7.7
		c0.5-2,1-4.1,1.6-6.1c1.8-1.1,3.7-2.2,5.5-3.4c0.9-0.6,1.9-1.3,2.8-1.9c0,0.1,0,0.1,0,0.2c-0.1,0.8-0.1,1.7-0.1,2.5
		c0.1,0.9,0.3,1.8,0.6,2.6l0,0l2.9,7.8c0,0,0,0,0,0.1l0.1,0.2l0,0c0.3,0.7,0.6,1.3,1.1,1.9c0.7,1,1.7,1.7,2.8,2.4
		c0.8,0.5,1.8,1,2.9,1.3c0.8,0.2,1.6,0.5,2.4,0.7c0,0,0.8,0.3,1.2,0.4c0.6,0.1,1.2,0.1,1.8,0.1c0.8,0,1.7-0.1,2.5-0.4
		c1.3-0.4,3.4-1.3,4.9-4c0.7-1.2,1.4-2.6,2-4.3c0.6-1.4,1.2-3.1,1.8-4.9c0.4-1,0.6-1.8,1-2.8c1.7-0.8,3.5-1.7,5.4-2.6
		c0.5-0.2,1-0.5,1.5-0.7l1.5,4.9c0.4,1.4,1,2.5,1.8,3.4c1.4,1.6,3.5,2.5,6.1,2.6c0.1,0,0.2,0,0.2,0c0.6,0.1,1.1,0.1,1.7,0.1
		c0.8,0,1.7-0.1,2.4-0.2c1.2-0.2,2.4-0.5,3.7-0.8c2.8-0.7,4.6-1.9,5.8-3.5c0.4-0.6,0.7-1.4,1-2.1c0.8,0.8,1.8,1.5,2.7,2.1
		c1.1,0.7,2.3,1.2,3.5,1.6c1.1,0.4,2.2,0.5,3.2,0.5c0,0,2.6,0.1,4.1,0.1h0.8c1.9,0,4.1-0.2,6.2-0.7c0.5-0.1,1.7-0.4,1.7-0.4l0.8-0.2
		c5.2-1.8,9.5-4.8,12.8-8.9c1.7-2,3.1-4.2,4.2-6.5c0.4,1.3,0.9,2.4,1.6,3.3c1,1.2,2.2,2.3,3.5,3.1c0.1,0.1,2,1.2,2.8,1.7
		c1.1,0.6,2.2,1.1,3.1,1.4c1.3,0.5,2.6,0.7,4,0.7c0.1,0,0.2,0,0.2,0c1.4,0,2.9-0.4,4.6-1c1.1-0.4,2.3-1,3.6-1.8
		c0.2-0.1,0.4-0.2,0.6-0.4c3-1.8,6.1-3.7,9.4-5.8c3.2-1.9,6.4-4,9.4-5.8c1.9-1.2,3.2-2.3,4.1-3.5c0.8-1.2,1.8-3.2,1.3-6.2
		c-0.4-1.8-4-11.6-4.9-13.3c-0.2-0.3-0.4-0.6-0.5-0.8c0.1-0.1,0.3-0.2,0.4-0.3c1.3-1,2.4-2,3.1-3.2c1.2-1.8,1.6-3.7,1.3-5.8
		c-0.1-0.6-0.4-1.3-0.6-2c-0.1-0.2-0.1-0.5-0.2-0.7c-0.4-1-2.5-6.6-2.8-7.3c-0.1-0.2-0.1-0.5-0.2-0.7c-0.4-1-0.8-1.8-1.2-2.8
		c-0.5-1.2-1.3-2.4-2.2-3.5c2.3-1.2,4.6-2.3,6.8-3.4h0.1c2.4-1.2,4-2.5,4.9-4C241.9,58,242.4,55.8,241.9,53.3z M103.6,39.6
		c0.5-2.2,1.1-4,1.7-5.5c0.6-1.6,1.1-2.5,1.6-2.9c1-0.7,1.9-1.4,2.9-2.2c1-0.7,2-1.4,3-2c1-0.6,2-1.2,3-1.7c1-0.5,1.9-0.8,2.9-1.1
		c1.1-0.2,2-0.4,3-0.2c1,0.1,1.8,0.5,2.5,1.3c0.5,0.5,0.8,1,1.3,1.6c0.5,0.6,0.8,1.2,1.2,1.9s0.6,1.6,0.8,2.4c0.2,0.8,0.4,1.9,0.4,3
		c0,0.6,0,1.2-0.1,1.8c-0.1,0.5-0.2,1.1-0.5,1.6c-0.8,2.2-2.3,4.4-4.2,6.6c-1.9,2.2-4.2,4.3-6.8,6.6c0.5,0.6,1.1,1.3,1.7,2
		c0.6,0.7,1.2,1.3,1.8,2s1.2,1.3,1.8,1.9s1.2,1.1,1.7,1.6c0.6,0.5,0.8,1,0.8,1.7c0,0.5-0.1,0.8-0.4,1.3c-0.2,0.5-0.6,0.8-1,1.2
		c-0.4,0.4-0.7,0.6-1.1,0.8c-0.4,0.2-0.6,0.5-0.8,0.5c-0.2,0.1-0.6,0.4-0.8,0.5s-0.6,0.2-0.8,0.4c-0.5,0.1-1,0.1-1.6,0.1
		c-0.6,0-1.1-0.2-1.7-0.6c-1.1-0.7-1.7-1.2-2.3-1.7c-0.6-0.5-1.3-1.1-1.9-1.8c-0.7-0.6-1.3-1.3-1.9-2c-0.6-0.7-1.2-1.4-1.8-2.2
		c-0.5,1.8-0.8,3.5-1.2,5c-0.4,1.7-0.8,3.2-1.2,4.9c-0.1,0.6-0.4,1.1-0.6,1.4c-0.2,0.4-0.6,0.6-1.1,0.7c-0.4,0.1-0.6,0.1-1,0.1
		c-0.6,0-1.2-0.1-1.7-0.1c-0.6,0-1.1-0.1-1.4-0.2c-0.5-0.1-0.7-0.5-1-0.8c-0.2-0.4-0.4-1-0.4-1.8c0-0.4,0-0.8,0.1-1.3
		c0.1-1,0.5-2.4,0.8-4.3c0.4-1.9,0.7-4.1,1.2-6.4c0.5-2.3,1-4.7,1.4-7.2C102.5,44,103.1,41.7,103.6,39.6z M108.8,80.3
		c-0.3,0.4-0.9,2.2-1.1,2.6c-0.1-0.3-1-2-1.2-2.4c0.2,0,0.9,0,1.1-0.1C107.8,80.5,108.7,80.4,108.8,80.3z M82.9,38.2l0.4-0.8
		c1-0.5,2-1.1,3.2-1.7c1.2-0.6,2.4-1.2,3.6-1.8c1.2-0.6,2.5-1.2,3.8-1.7c1.3-0.6,2.6-1,3.8-1.4h0.2c0.7-0.2,1.3-0.2,1.8,0.1
		c0.5,0.2,0.7,0.7,1,1.3c0.2,0.6,0.4,1.1,0.5,1.4c0.1,0.4,0.2,0.8,0.2,1.3c0.1,0.2,0.1,0.6,0.1,1c0,0.7-0.1,1.3-0.5,1.7
		c-0.2,0.4-0.8,0.7-1.7,1.1c-1.3,0.5-2.5,1-3.8,1.6c-1.3,0.5-2.8,1.1-4.2,1.8c-0.2,1-0.6,2-1,3.2s-0.6,2.3-1,3.5
		c1.1-0.4,2-0.8,3.1-1.1l0.2-0.1c0.7-0.2,1.3-0.2,1.7-0.1s0.7,0.5,1,1.2c0.2,0.6,0.5,1.1,0.6,1.7c0.1,0.6,0.2,1.1,0.4,1.7
		c0.1,0.4,0.1,0.7,0.1,1c0,0.5-0.1,0.8-0.4,1.3c-0.2,0.4-0.6,0.7-1.1,1c-0.5,0.2-1,0.6-1.6,0.8c-0.6,0.2-1.2,0.5-1.8,0.8
		c-1,0.5-1.8,1-2.6,1.3c-0.8,0.4-1.7,0.8-2.6,1.3c-0.2,0.6-0.4,1.3-0.6,1.9c-0.2,0.7-0.4,1.3-0.4,1.8c1-0.5,1.9-0.8,2.9-1.3
		c1-0.5,2-0.8,3.1-1.1c0.6-0.1,1.2-0.1,1.6,0c0.4,0.2,0.7,0.6,1,1.2c0.2,0.6,0.6,1.3,0.8,2s0.4,1.4,0.4,2.2c0,0.6-0.1,1.1-0.4,1.4
		s-0.7,0.7-1.4,1c-1.6,0.8-3.1,1.7-4.8,2.5c-1.7,0.8-3.2,1.7-4.8,2.5c-0.7,0.4-1.2,0.6-1.7,0.7c-0.5,0.1-1,0.2-1.4,0.1
		c-0.4,0-0.7-0.2-1.1-0.5c-0.4-0.2-0.7-0.5-1.1-0.8s-0.7-0.7-1.2-1.2c-0.4-0.4-0.6-0.7-0.8-1.2c0-0.5-0.1-1.1-0.1-1.8
		c0-0.4,0-0.8,0.1-1.3L82.9,38.2z M57.6,46.6c0.8-0.7,1.8-1.4,2.8-2c1.1-0.7,2-1.3,3.1-1.9c1.1-0.6,2.2-1.2,3.2-1.7s2.2-0.8,3.2-1.1
		c1.3-0.4,2.5-0.5,3.6-0.5s2,0.4,2.6,1c0.4,0.4,0.7,0.8,1.1,1.2c0.4,0.5,0.6,1,1,1.4c0.2,0.6,0.5,1.2,0.6,1.8
		c0.1,0.6,0.2,1.3,0.2,2.2c0,1.4-0.4,2.9-1,4.3c-0.7,1.4-2.3,4.5-3.6,5.8c-0.5,0.5-1,1.1-1.4,1.6c0.7,0.5,1.3,1.2,1.7,2.2
		c0.5,1,0.6,2,0.6,3c0,1.3-0.2,2.4-0.7,3.5s-1.2,2.2-2,3.2c-0.6,0.8-1.4,1.8-2.3,2.6c-0.8,0.8-1.8,1.7-2.8,2.5c-1,0.8-1.9,1.6-3,2.2
		c-1,0.7-1.9,1.3-2.8,1.8c-0.8,0.5-1.6,0.8-2,1.1c-0.4,0.1-0.8,0.2-1.1,0.1c-0.5-0.1-2.4-1-3.1-1.3c-0.6-0.4-1.2-1-1.8-1.7
		c-0.4-0.4-0.6-0.8-0.7-1.1c-0.2-0.4-0.2-0.8-0.2-1.4c0-0.2,0.1-1.4,0.1-1.7c0.2-1.9,0.6-4,1.1-6.2c0.5-2.3,1-4.6,1.3-7
		c0.5-2.4,1-4.7,1.3-7.1C57.1,51,57.4,48.8,57.6,46.6z M30.3,77.8c0-1.7,0.1-3.5,0.5-5.5c0.4-2,0.7-4.2,1.3-6.4
		c0.5-2.2,1.1-4.4,1.8-6.6c0.6-2.2,1.3-4.3,1.9-6.4c0.2-0.7,0.5-1.2,0.7-1.6s0.6-0.6,1.1-0.7c0.5-0.1,1.1-0.1,1.8,0
		c0.6,0.1,1.3,0.4,1.9,0.6c0.6,0.4,1.1,0.7,1.4,1.2c0.4,0.5,0.6,1.1,0.6,1.8c0,0.5-0.1,1.1-0.4,1.7c-0.5,1.6-1.1,3.4-1.7,5.4
		c-0.6,1.9-1.1,4-1.6,5.9s-1,3.8-1.2,5.5c-0.4,1.8-0.5,3.2-0.5,4.3c0,0.6,0,1.1,0.1,1.4c0.1,0.4,0.2,0.5,0.5,0.4
		c0.5-0.1,1-0.7,1.6-1.8c0.6-1.1,1.1-2.5,1.7-4.2c0.6-1.7,1.1-3.6,1.7-5.6c0.6-2,1.1-4.2,1.6-6.4c0.5-2.2,1-4.2,1.3-6.2
		c0.4-2,0.7-3.7,1.1-5.2v0.1c0.1-0.7,0.4-1.3,0.7-1.7s0.7-0.6,1.2-0.7c0.4-0.1,0.7-0.1,1.1-0.1s0.8,0.1,1.2,0.2
		c0.4,0.1,0.8,0.2,1.2,0.4c0.4,0.1,0.8,0.2,1.2,0.5c0.5,0.2,0.8,0.5,1,0.7c0.1,0.2,0.2,0.6,0.2,1.1c0,0.1,0,0.4,0,0.6
		c0,0.2-0.1,0.5-0.1,0.7c-0.7,3.8-1.6,7.4-2.3,10.8s-1.6,6.5-2.4,9.1c-0.8,2.8-1.8,5.2-2.8,7.2s-2.2,3.7-3.4,4.9
		c-0.7,0.6-1.4,1.2-2.2,1.6s-1.6,0.7-2.4,1c-2.2,0.6-4.1,0.6-5.5,0.1s-2.6-1.7-3.4-3.5C30.5,81.2,30.3,79.6,30.3,77.8z M49.5,99.1
		v0.1c-0.7,0.5-1.4,1.3-2.3,2.3c-0.8,1-1.6,2.2-2.4,3.4c-0.7,1.2-1.3,2.5-1.9,3.8c-0.5,1.3-0.7,2.6-0.7,3.8c0,1.3,0.4,2.4,1,3.1
		v-0.1c1.3,1.3,2.8,2.6,4.4,3.6c1.7,1.1,3.2,2,4.7,3.1s2.6,2.2,3.7,3.5c1,1.2,1.4,2.8,1.4,4.6c0,1.2-0.4,2.5-0.8,4v-0.1
		c-0.5,1.2-1.1,2.5-1.9,3.8c-0.7,1.4-1.8,2.8-3.1,4.1c-1.3,1.3-2.8,2.5-4.6,3.7c-1.8,1.1-3.8,1.9-6.4,2.5l-0.7,0.1
		c-3,0.6-6,0.4-8.6-0.6c-2.8-1.1-5.4-3.1-8-6.2c-1.6-1.7-2.3-3-2.3-4.2v-0.1c0.1-1.6,0.7-2.6,2-3.7c1.3-1,2.8-1.6,4.2-1.8
		c1-0.2,1.9-0.2,2.8-0.1c0.8,0.1,1.6,0.4,2.3,0.8c1.9,1.2,3.7,2.2,5.3,2.6c1.6,0.5,3,0.6,4.1,0.4c0.8-0.1,1.6-0.5,2-1.1
		c-0.1-0.5-0.6-1.1-1.7-1.9s-2.3-1.7-3.7-2.6c-1.3-0.8-2.6-1.8-4-2.6c-1.3-0.8-2.4-1.9-3.5-3c-1-1.1-1.8-2.4-2.4-4
		c-0.6-1.6-0.8-3.2-0.8-5.3c0-2.2,0.5-4.6,1.4-7.2v0.1c0.5-1.6,1.2-3.2,2.2-5s2-3.6,3.2-5.3c1.2-1.7,2.5-3.4,3.8-4.9
		c1.3-1.6,2.8-2.9,4.1-4.1l-0.1,0.1c0.7-0.7,1.6-1.4,2.6-2c1.1-0.6,2.3-1.1,3.6-1.3c0.8-0.1,1.9-0.2,3-0.1c1.1,0.1,2.2,0.4,3.4,0.6
		c1.1,0.4,2.2,0.7,3.2,1.3s1.9,1.2,2.6,1.9c1.1,1.1,1.8,2.3,2.2,3.6c0.2,1.3,0.4,2.5,0.4,3.7v1.6c-0.1,1.1-0.4,2.3-0.7,3.7
		c-0.2,1.4-0.6,2.9-1.1,4.4c-0.4,1.4-0.8,3-1.3,4.4s-1,2.6-1.4,3.7c-0.4,0.8-0.8,1.4-1.2,1.9c-0.4,0.5-1,0.8-1.6,1
		c-0.5,0.1-1.1,0.1-1.8-0.1c-4.7-1.1-7-3.4-6.8-7c0-0.5,0.1-1.1,0.4-2c0.2-1,0.5-1.9,0.7-3c0.2-1.1,0.5-2.2,0.8-3.2
		c0.2-1.1,0.5-2,0.5-2.8L49.5,99.1z M87.7,114.8c-2.2,1.7-4.4,3.4-6.7,4.9c-2.4,1.6-4.7,3-7,4.2c-0.7,2.8-1.3,5.4-2,8.2
		c-0.7,2.6-1.3,5.3-1.9,7.9c-0.4,1-0.7,1.7-1.1,2.2c-0.4,0.5-1,0.8-1.8,1c-0.5,0.1-1,0.1-1.6,0.1c-1-0.1-1.8-0.4-2.8-0.5
		c-1-0.1-1.7-0.4-2.4-0.7s-1.3-0.8-1.7-1.4c-0.5-0.6-0.6-1.4-0.6-2.5c0-0.6,0.1-1.6,0.5-2.6c0.5-1.2,1.1-3.1,1.7-5.8
		c0.6-2.6,1.2-5.6,1.8-9.1c0.6-3.4,1.3-6.8,1.9-10.6c0.7-3.6,1.3-7,1.9-10.1c0.6-3.1,1.2-5.8,1.9-7.9c0.6-2.2,1.2-3.5,1.7-3.8
		c1.4-1.1,3.1-2.3,4.8-3.5c1.7-1.2,3.5-2.3,5.4-3.4c1.8-1.1,3.7-2,5.5-2.8c1.8-0.8,3.6-1.3,5.2-1.7c1.7-0.4,3.1-0.4,4.4-0.1
		c1.3,0.2,2.6,1,3.5,1.9c0.9,1,1.6,1.8,1.9,2.3s1.3,1.9,1.8,3c0.6,1.1,1,2.3,1.3,3.6s0.5,2.8,0.5,4.2c0,2.3-0.6,4.4-1.6,6.5
		c-1.1,2-2.3,4-3.7,6c-1.4,1.6-3,3.4-4.9,5.3C91.9,111.3,89.9,113.1,87.7,114.8z M140.2,125.8c-0.5,0.7-1.6,1.2-3.1,1.7
		c-1.2,0.4-2.3,0.6-3.4,0.7c-1.1,0.2-2.2,0.2-3.2,0h0.1c-1.3-0.1-2.3-0.5-2.8-1.1c-0.5-0.6-0.8-1.8-1.1-3.6c-0.1-2-0.2-4.7-0.5-7.6
		l-0.2-1.3c-2.9,1.2-5.6,2.5-8.4,3.7c-2.8,1.2-5.2,2.4-7.3,3.6c-0.6,1.4-1.2,3-1.7,4.7c-0.5,1.7-1.1,3.1-1.7,4.6s-1.2,2.6-1.8,3.6
		c-0.6,1-1.3,1.6-2,1.8c-0.7,0.2-1.4,0.2-2.3,0.1l-0.8-0.2c-0.7-0.1-1.4-0.4-2.2-0.6c-0.7-0.2-1.3-0.5-1.9-0.8
		c-0.6-0.4-1.1-0.7-1.4-1.2s-0.6-1.1-0.6-1.8c0-0.5,0-1.1,0.1-1.7c0.1-0.6,0.2-1.3,0.5-2.2c1.2-3.8,2.8-8.2,4.6-13.1
		c1.8-4.9,3.7-10,5.8-15.1s4.1-10.2,6.1-15c2-4.9,4-9.1,5.6-12.8c0.6-1.3,1.4-2.6,2.4-3.6c1-1.1,2.3-1.8,4.1-2.3
		c3-0.8,5.4-1.2,7.4-1.2c2,0,3.7,0,5.3,0.1h1.2c1.3,0.1,2.3,0.5,2.8,1.1c0.5,0.6,0.8,1.6,0.8,2.6c0,0.2,0,0.5,0,0.7
		c0,0.2,0,0.4,0,0.6c-0.1,3.1-0.2,6.7-0.4,10.9c0,4.2,0,8.6,0,13.3c0,4.7,0.1,9.5,0.2,14.3c0.1,4.8,0.2,9.5,0.4,13.8
		C140.9,124,140.6,125.1,140.2,125.8z M187.8,70.9c0,1.2-0.1,2.4-0.2,3.5c-0.1,1.2-0.2,2.2-0.5,3.1c-0.1,0.1-0.1,0.2-0.1,0.4
		c-0.1,0.8-0.5,1.6-0.7,2.2c-0.4,0.6-1.1,1.1-2.3,1.4c-0.2,0.1-0.5,0.1-0.7,0.2c-0.2,0.1-0.6,0.1-0.8,0.1c-1.6,0.2-2.9,0.2-4,0.1
		s-2-0.5-2.8-1.1c-0.7-0.5-1.4-1.2-1.9-2c-0.5-0.8-0.8-1.9-1.2-3.1c-0.1-0.8-0.2-1.8-0.2-2.6c0-1-0.1-1.7-0.2-2.4
		c-0.1-0.5-0.1-1-0.4-1.3c-0.1-0.4-0.4-0.6-0.6-0.7c-0.7,0.2-1.4,1.2-2.4,2.9c-1,1.7-1.8,3.7-2.8,6s-1.8,4.8-2.5,7.4
		c-0.8,2.6-1.4,5-1.9,7.3c-0.6,2.9-1,5.8-1.1,8.5s-0.1,5.2,0.1,7.2c0.1,1.3,0.5,2.4,0.7,3.2c0.4,0.8,0.8,1.2,1.3,1.3l0.2-0.1
		c1.4-0.5,3.5-3,6.1-7.4c1.9-3.1,4.4-5.2,7.3-6.2c0.6-0.2,1.3-0.4,1.9-0.5c0.7-0.1,1.3-0.1,2.2-0.2c1.4,0,2.4,0.2,3,0.7
		c0.6,0.5,1,1.2,1.1,2c0.1,0.6,0,1.3-0.1,2.2c-0.2,0.8-0.4,1.7-0.7,2.5c-1.3,4.4-3.5,8.4-6.2,11.9c-2.8,3.5-6.4,5.9-10.7,7.4
		c-0.4,0.1-0.7,0.2-1,0.4s-0.5,0.1-0.7,0.2h0.1c-2,0.5-4,0.7-5.6,0.7s-3.2,0-4.6,0c0,0-1.3,0-2-0.2c-0.8-0.2-1.6-0.6-2.3-1.1
		s-1.4-1-2-1.7c-0.6-0.6-1.4-1.9-1.4-1.9c-0.7-1.1-1.3-2.5-1.8-4c-0.5-1.6-0.8-3.2-1.1-4.9c-0.4-2.8-0.4-6-0.1-9.5
		c0.2-3.6,0.8-7.3,1.6-11.2c0.8-3.8,1.9-7.7,3.2-11.4c1.3-3.8,2.9-7.3,4.8-10.6c1.8-3.2,3.8-6,6.1-8.4c2.3-2.4,4.8-4,7.4-4.9
		c0.2-0.1,0.5-0.1,0.7-0.2c0.2-0.1,0.5-0.1,0.7-0.2h-0.1c1.2-0.2,2.4-0.5,3.6-0.6c1.2-0.1,2.5-0.2,3.6-0.2c1.2,0,2.3,0.1,3.4,0.2
		c1.1,0.1,2,0.5,2.8,0.7c2,0.8,3.4,1.9,4.2,3.2c0.7,1.3,1.2,3,1.4,4.8c0.1,1,0.2,2,0.2,3.2C187.8,68.5,187.9,69.7,187.8,70.9z
		 M177.6,93.7c-0.6,0.1-1.2,0.3-1.9,0.5c-1.6,0.6-3.1,1.4-4.5,2.4c0.2-0.8,0.4-1.5,0.7-2.3c0.5-1.7,1-3.2,1.6-4.7
		c0.8,1.4,1.9,2.5,3.2,3.5C176.9,93.4,177.2,93.6,177.6,93.7z M233,49.5c-0.5,0.7-1.6,1.6-3.1,2.4c-2.5,1.2-5.2,2.5-7.8,3.8
		c-2.6,1.3-5.5,2.9-8.5,4.4c-0.4,1.8-0.7,3.8-1,5.9c-0.4,2.2-0.7,4.2-1.1,6.4c2-1.1,4.2-2,6.4-2.9l0.5-0.2c1.4-0.6,2.6-0.7,3.5-0.6
		c0.5,0.1,1,0.3,1.4,0.6c0.4,0.3,1.1,1,1.1,1c0.7,0.8,1.8,2.6,1.8,2.6s0.8,1.8,1.2,2.8c0,0,0.4,1.2,0.5,1.7c0.1,0.8,0,1.6-0.5,2.3
		c-0.5,0.7-1.2,1.4-2,2s-1.9,1.3-3.1,1.9c-1.2,0.6-2.4,1.3-3.6,1.9h0.1c-1.8,1.1-3.6,2.2-5.3,3.1c-1.7,1-3.5,2-5,3
		c-0.2,1.1-0.5,2.3-0.7,3.6c-0.2,1.3-0.2,2.4-0.2,3.4c1.8-1.1,3.7-2.2,5.6-3.1c1.9-1.1,4.1-2,6.2-2.9c1.3-0.5,2.4-0.7,3.4-0.5
		c0.5,0.1,1,0.4,1.4,0.8c0.3,0.3,0.9,0.9,0.9,0.9c0.8,1,1.6,2,2.3,3.2c0.7,1.2,1.2,2.5,1.3,3.7c0.2,1.1,0,2-0.5,2.6
		c-0.5,0.6-1.4,1.4-2.8,2.3c-3,1.9-6.2,3.8-9.4,5.8c-3.2,1.9-6.4,3.8-9.4,5.8l0.1-0.1c-1.3,0.8-2.4,1.4-3.4,1.8
		c-1.1,0.4-2,0.6-2.9,0.6c-0.8,0-1.7-0.1-2.5-0.4c-0.8-0.2-5.2-2.8-5.2-2.8c-0.8-0.5-1.4-1.1-2-1.8c-0.5-0.7-1-1.7-1.1-3
		c-0.1-0.7-0.1-1.4-0.1-2.3l4.9-53.4l0.7-1.2c1.9-1.2,4-2.5,6.2-4c2.3-1.4,4.7-2.8,7.1-4.2c2.5-1.4,5-2.8,7.7-4.1
		c2.6-1.3,5.2-2.5,7.8-3.7l0.4-0.1c1.6-0.6,2.9-0.7,3.8-0.5c1,0.4,1.8,1,2.4,2V40c0.7,1,1.2,1.7,1.4,2.4c0.4,0.6,0.6,1.3,1,2.2h-0.1
		c0.4,0.6,0.5,1.2,0.6,1.8C233.7,47.7,233.6,48.8,233,49.5z"/>
</g>
</svg>
