<?xml version="1.0" encoding="UTF-8" standalone="no"?>
<svg xmlns:dc="http://purl.org/dc/elements/1.1/" xmlns:cc="http://creativecommons.org/ns#" xmlns:rdf="http://www.w3.org/1999/02/22-rdf-syntax-ns#" xmlns:svg="http://www.w3.org/2000/svg" xmlns="http://www.w3.org/2000/svg" fill-rule="evenodd" stroke-linejoin="round" stroke-miterlimit="2" clip-rule="evenodd" viewBox="0 0 29528 29528" version="1.1" id="utawLogo">
  <g id="logo">
    <path id="diamondBg" fill="#011548" d="M14675.902 28562.413c50.738 50.22 132.539 50.22 183.276 0l13790.257-13654.486c24.85-24.437 39.347-57.778 39.347-92.57 0-34.687-14.496-68.028-39.347-92.465L17694.268 3875.305c-24.851-24.126-56.95-37.69-92.156-37.69h-5669.144c-34.17 0-67.304 13.564-92.156 37.69L885.646 14722.892c-24.851 24.437-38.312 57.778-38.312 92.466 0 34.79 13.46 68.132 38.312 92.569l13790.256 13654.486zm190.525-27628.926c-24.851-25.576-59.022-40.072-94.227-40.072-36.241 0-70.412 14.496-94.227 40.072l-2030.537 2110.455c-36.241 37.794-46.596 93.605-25.887 141.96 20.71 48.252 68.34 79.627 121.15 79.627H16801.7c52.809 0 99.405-31.375 120.114-79.627 20.709-48.355 10.354-104.166-25.887-141.96z"></path>
    <path id="binary" fill="url(#binaryGradient)" fill-rule="nonzero" d="M-56605.9 43887.2c0-249.8 36.8-483 110.4-699.7 73.6-216.6 176.5-403.5 308.9-560.7 282.8-332.4 640.9-498.6 1074.2-498.6 415.2 0 747.6 156.3 997.4 468.9 243.1 304.3 364.7 707 364.7 1208.2 0 565.7-147.2 1006.4-441.6 1322.4-263 282.8-600.4 424.2-1012.3 424.2-398.6 0-731-153.8-997.3-461.5-269.6-312.6-404.4-713.6-404.4-1203.2zm-1874.8 344.4l632.6-632.7v1953h-632.6zm5728.3-1979.4h632.7v3299.7h-632.7zm1874.8 802l632.7 632.1v1803.6h-632.7zm-3519.7 544.7l-1377.7 1020.4c11.9 17.7 24.4 35 37.4 51.9 72.8 94.2 159.6 167.4 260.5 219.5 100.9 52.1 203.9 78.2 308.9 78.2 105 0 203-23.2 294-69.5s172.8-115.8 245.6-208.4c163.8-211.7 245.6-488.7 245.6-831.1 0-91.8-4.7-178.8-14.3-261zm-185.8-567.4c-2.7-4.2-5.5-8.5-8.3-12.7-140.6-206.7-330.8-310.1-570.6-310.1-241.5 0-436.6 107.5-585.5 322.5-150.5 216.7-225.8 497.1-225.8 841.1 0 63.1 2.9 123.9 8.7 182.4z" transform="matrix(1.1242 0 0 1.11312 75583.428 -42753.423)"></path>
    <g id="rightHandGroup">
      <path id="rightHand" fill="#011548" d="M16234.24 18589.27c81.284 223.139 79.834 442.55 45.768 637.215-28.993 165.361-84.08 308.77-133.678 413.248l-3.728 5.695c-137.509 157.491-374.526 427.64-605.847 685.777-186.073 207.608-368.21 407.45-491.533 532.532-95.677 96.918-258.037 133.883-419.051 145.791-187.211 13.875-377.115-10.872-487.288-57.674-155.63-65.855-301.112-182.447-409.628-309.393-70.411-82.214-125.394-168.57-153.87-249.129-8.283-23.608-16.152-45.766-18.741-66.061-2.174-16.878-1.035-32.513 4.66-47.01 134.816-342.94 260.521-583.475 379.082-871.123 49.598-120.423 98.058-248.922 145.482-395.541 62.024-192.594 147.45-429.297 246.336-637.733 68.03-143.307 141.236-273.048 219-359.922 94.433-105.41 239.398-196.114 397.823-277.087 251.928-128.602 538.44-229.455 746.36-305.353 472.998-173.231 737.765-317.158 967.43-396.37 74.45-25.576 144.447-43.8 218.275-52.083h.311s2593.931-258.034 2593.517-258.034c222.831-25.472 810.87-187.002 1452.75-385.394 428.785-132.538 882.524-279.882 1265.23-411.177 377.529-129.431 685.889-243.538 836.652-304.112 175.924-72.17 548.069-248.404 997.251-465.33 836.03-381.253 2000.406-919.168 2875.473-1308.497 205.85-91.534 338.7-137.611 504.27-208.643 9.111-3.935 19.673-1.967 26.818 4.97l1079.156 1046.114a24.636 24.636 0 017.249 20.295l-20.71 195.907c-.517 5.695-3.106 10.872-7.04 14.91l-6077.22 6040.395c-7.455 29.718-38.002 149.416-56.019 191.87-382.291 901.254-850.94 1341.423-991.763 1457.497 74.242 233.183 54.88 513.997 3.624 709.283-87.186 332.172-269.945 578.09-479.315 776.172-184.83 174.887-387.262 249.13-568.882 273.255 3.625 129.949-3.934 259.794-34.48 351.742-49.599 148.794-190.007 348.946-350.09 515.86-159.15 165.88-334.97 297.278-424.849 338.593-154.698 71.031-361.686 95.054-555.938 86.46a2037.264 2037.264 0 01-62.956-3.728c-25.37 103.13-58.193 204.708-98.266 273.566-122.598 210.713-561.012 628.414-1079.26 643.013-90.085 2.589-236.292-23.504-370.384-53.532-157.597 222.103-493.81 513.479-1148.532 535.43-71.343 2.382-156.251-3.934-252.342-18.224-230.39 201.706-579.03 387.155-1101.522 395.438-72.276 1.14-572.092 10.873-847.11-365.41-182.241 25.68-499.506 51.773-726.79-27.335-155.008-53.947-316.23-116.178-579.547-420.91-76.624-88.635-187.729-206.262-248.407-272.738l-266.942 88.531c-52.6 20.399-254.412 31.892-471.03-57.985-168.056-69.79-400.31-175.716-635.566-449.695-214.64-249.958-488.789-507.06-624.538-723.365-36.282-57.778-124.172-196.839-152.202-261.865-142.531-24.023-338.067-57.364-563.59-177.58-258.172-137.507-529.794-370.587-640.37-655.957-149.77-386.533-256.784-728.749-331.048-948.057-20.812-61.402-275.049-685.156-313.34-778.554-2.951-7.248-2.31-15.428 1.74-22.055 4.048-6.73 11.017-11.079 18.783-11.7l340.656-30.96c6.243-.621 12.467 1.242 17.395 5.073 1.202.932 2.392 1.968 3.573 2.9 57.923 47.63 125.632 108.204 200.123 175.923a25.611 25.611 0 013.386 3.727c35.879 49.598 72.348 100.542 110.836 152.108 62.593 83.974 126.191 164.947 198.767 241.984 75.298 79.937 157.296 151.486 249.08 209.989 63.732 40.693 133.988 69.996 205.632 95.78 151.332 53.014 299.382 91.326 445.475 143.202 57.427 20.502 114.574 42.97 171.317 70.203 141.993 67.408 343.587 162.048 521.748 263.315 118.042 67.097 225.834 136.058 292.414 202.637 51.876 51.773 94.02 131.813 123.944 211.232 19.364 51.358 36.345 102.199 43.076 143.513.103.518.207 1.139.207 1.76 1.242 13.461 10.665 75.38-1.346 158.838-1.554 10.251-3.314 20.398-5.488 30.442-32.617 149.726-102.304 261.865-199.637 345.633-21.02 18.12-42.557 35.205-64.613 50.944 72.69-23.09 144.55-54.464 212.684-100.128 78.28-52.497 146.103-120.215 202.122-208.125 4.556-7.248 12.529-11.493 21.02-11.39 6.109.104 12.321-.103 18.741-.414 85.115-5.074 297.695-73.62 407.454-111 151.177-51.462 399.791-198.91 627.592-288.373 84.183-33.134 164.224-58.606 232.565-60.263 273.154-6.213 495.778 73.931 670.046 181.307 217.032 133.884 359.719 309.185 431.58 413.04.621.83 1.139 1.658 1.553 2.59 10.665 20.19 20.398 42.35 28.89 65.647.931 2.381 28.889 108.93 29.406 111.207 10.562 57.053 13.876 114.417 1.968 165.672-57.883 246.955-245.404 525.905-520.008 775.034-146.518 133.055-315.816 256.894-502.82 363.028 272.533-110.275 517.005-257.827 717.781-421.22 252.135-205.227 429.405-437.788 512.035-655.026 10.873-28.475 18.846-58.813 24.437-90.394 1.864-10.976 11.08-19.363 22.262-20.192 18.121-1.45 37.484-3.934 57.986-7.766 351.332-65.543 611.957-6.73 803.517 104.477 229.769 133.366 359.512 338.696 425.574 478.274 1.14 2.175 7.456 30.96 13.15 42.35l.311.414s74.036 149.519-98.472 380.01c-77.142 102.924-194.977 218.48-376.493 341.802-206.47 140.407-406.211 260.519-604.709 362.925-84.08 43.385-167.537 83.56-250.788 120.733 87.392-27.543 175.407-58.192 264.353-91.948 211.544-80.247 426.299-178.2 650.372-295.62 276.675-145.067 434.376-291.687 527.464-417.7 40.9-55.5 69.893-108.309 90.085-157.493 4.141-10.25 14.703-16.463 25.68-15.117 60.47 7.352 115.764 22.262 165.983 43.282 44.836 18.741 86.875 39.14 123.634 66.475 101.993 75.692 178.203 176.441 210.82 300.902 39.244 150.347 30.443 319.022-38.105 487.8-.621 1.45-1.346 2.9-2.278 4.245l-2.485 3.728c-.207 2.692-.828 5.384-1.864 7.87-20.398 47.526-45.56 95.054-75.796 142.063 59.954-55.397 110.277-114.52 151.385-175.923a24.7 24.7 0 0117.292-10.769c370.798-46.698 578.097-211.542 680.194-348.532-111.83-149.311-299.041-397.612-454.257-597.04-117.732-151.072-212.165-271.805-239.087-292.41-22.884-14.497-30.236-44.421-16.464-67.822 13.771-23.298 43.8-31.478 67.512-18.638 33.86 15.842 163.913 117.834 323.581 248.507 234.221 191.766 528.085 441.102 649.855 544.854 121.563 30.856 271.29 63.473 357.648 61.091 359.719-10.147 663.42-301.108 748.534-447.314 33.445-57.467 58.09-146.309 76.003-232.562l-1817.544-1812.967c-26.818-24.54-28.682-65.958-4.141-92.88 24.333-26.715 65.855-28.993 93.088-5.28l2030.02 1657.235c.31.311.62.518.931.829a146.2 146.2 0 019.94 9.63c159.565 18.327 364.897 24.332 504.787-39.969 65.545-30.132 188.661-132.227 304.84-253.167 115.971-120.94 225.212-260.83 261.143-368.724 28.06-84.285 26.404-211.645 16.257-328.858-243.437-206.883-878.278-746.766-1374.78-1173.992-296.557-255.238-542.79-469.37-627.593-548.995-26.197-22.987-28.993-62.748-6.11-89.152 22.78-26.094 62.542-29.2 89.154-7.145 91.43 70.721 355.37 258.966 672.945 483.244 555.007 391.71 1269.682 889.968 1508.252 1056.054 129.536-3.727 286.822-43.488 427.645-176.647 160.185-151.59 319.128-349.05 388.918-602.528 68.444-248.404 38.623-469.369-1.035-598.282-16.05-52.083-33.031-88.531-45.767-103.96-313.123-377.524-1529.064-1583.304-2067.09-2060.44-6.42-5.694-9.422-14.392-7.765-22.883 1.553-8.49 7.455-15.428 15.531-18.534 0 0 265.285-99.61 365.829-132.434 193.216-63.059 404.45-156.664 597.253-298.727 305.46-225.003 651.304-385.912 984.205-426.295 247.475-29.924 486.977 5.385 695.83 130.26l.62.414c11.701 7.352 27.233 4.142 34.792-7.352 7.352-11.39 4.038-26.404-7.455-33.755l-.622-.414c-214.03-146.102-466.682-198.392-731.967-182.24-16.878 1.036-33.86 2.382-50.944 3.935-10.665 1.036-20.813-4.97-24.955-14.91-4.142-9.94-1.346-21.434 6.834-28.371 5.385-4.453 10.666-8.905 15.843-13.461 72.586-62.645 136.68-128.085 190.732-196.218 102.51-129.224 172.507-264.971 212.372-400.408 37.07-125.703 47.839-250.579 33.239-371.001-2.382 194.664-73.621 391.606-208.853 578.92-57.053 79.004-125.808 155.524-205.538 230.8-66.788 62.956-140.823 125.187-223.97 184.31-49.392 35.102-101.786 69.48-157.287 102.717l-5.488 2.382c-222.106 68.029-443.591 175.508-650.476 309.495-183.69 119.077-381.774 192.697-561.426 239.707-203.572 53.118-457.363 150.45-566.294 155.731-5.902.311-11.804-1.553-16.36-5.28-107.688-84.804-650.372-541.54-1015.476-800.299a24.595 24.595 0 01-10.354-21.02 24.662 24.662 0 0111.907-20.19c152.627-91.12 313.745-206.366 467.097-343.46 292.206-261.036 553.557-600.87 647.783-1031.617a8.77 8.77 0 01.518-1.76c.518-1.76-.621-3.52-2.381-4.039-1.864-.517-3.935.415-4.556 2.278l-.518 1.76c-119.492 312.603-328.862 556.658-566.293 749.355-333.936 270.874-726.376 418.736-992.075 506.542-34.17 11.183-65.855 21.744-94.848 30.96-.828.31-1.657.517-2.589.725l-628.834 128.188c-7.56 1.553-15.429-.518-21.227-5.695-5.799-5.074-8.802-12.632-8.18-20.295 4.348-55.914 6.212-114.417 4.659-174.783-5.591-207.09-47.424-433.854-177.788-646.638zm6079.187 2080.941c-1.139.415-2.278.829-3.52 1.14 1.035-.208 2.07-.622 3.106-.932zm208.542-786.32c5.902-124.668-.207-284.437-50.427-473.2-49.702-186.898-142.79-401.03-292.517-641.564-.208-.31-.415-.725-.622-1.035-3.313-6.006-11.08-8.077-17.085-4.66-5.902 3.21-8.076 10.458-4.866 16.36l.62.932c100.13 199.324 162.982 379.182 203.78 538.64 25.99 101.475 41.418 194.458 51.669 278.847 13.15 107.687 17.085 201.188 12.736 280.193-2.9 110.69-10.147 184.206-33.652 298.934-20.71 101.577-52.395 234.425-106.963 450.524-.104.414-.208.828-.415 1.242-2.381 7.87 2.278 16.153 10.251 18.535 8.077 2.485 16.775-1.968 19.156-9.94l.415-1.243c76.727-211.232 123.84-340.663 153.04-440.998 34.481-118.352 44.629-195.596 54.88-311.567zm-7446.512 500.122c-16.464 24.437-42.35 41.625-72.482 46.906-94.538 15.946-184.726 28.164-270.462 31.478-56.744 2.278-111.312.932-163.81-2.485-87.6-5.695-168.263-16.36-243.23-31.478-104.27-21.02-195.184-47.734-273.258-76.209l2.796 1.036c77.452 28.06 167.434 54.36 270.462 75.173 74.967 15.118 155.63 25.783 243.23 31.478 52.498 3.417 107.066 4.763 163.81 2.485 85.736-3.314 175.924-15.532 270.462-31.478 30.235-5.28 56.329-22.676 72.69-47.32zm-282.991-815.933c65.751 48.77 107.895 109.343 135.334 175.405 45.56 109.757 38.727 232.769 24.644 337.556-7.973 59.642-19.984 112.45-30.339 151.28-2.588 9.629-10.665 16.773-20.502 18.12-27.957 3.623-55.397 6.937-82.319 10.457-78.902 10.355-153.455 19.26-224.591 25.162-143.1 11.908-269.427 14.393-381.257 8.076-138.855-7.869-252.755-26.61-337.663-45.456 22.262 11.39 46.906 23.401 74.035 35.62 97.748 43.903 223.763 88.427 380.532 120.008 73.932 14.91 153.559 25.472 239.916 31.064 51.67 3.417 105.41 4.66 161.221 2.485 84.908-3.314 173.957-15.429 267.252-31.064 31.789-5.591 57.676-28.371 66.788-58.503 0 0 31.788-114.83 26.507-260.622-4.452-121.562-28.889-263.315-109.966-373.694-45.353-61.816-106.03-114.313-189.592-145.894zm4911.395 546.199c-143.412 82.422-290.758 143.099-428.992 188.141-100.232 32.72-364.792 132.123-364.792 132.123s264.56-99.403 364.792-132.123c137.51-44.835 283.924-104.995 426.61-186.795zm-6122.987 187.313c0 .31-.104.724-.104 1.035 0-.31.104-.725.104-1.035zm1357.592-366.239zm7463.39-159.873c.31 11.597.517 23.09.517 34.273 0-11.183-.207-22.676-.517-34.273zm-857.154-64.301c11.7 3.417 24.23 2.381 35.102-2.589l.207-.104a49.72 49.72 0 01-35.62 2.59zm-636.394-383.738c-32.72 33.86-68.03 66.89-105.514 99.3-5.28 4.556-10.665 9.112-16.05 13.668 5.385-4.556 10.77-9.112 16.05-13.668 38.105-32.824 73.829-66.476 107.067-100.853zm-3185.697 31.27c-32.41 21.124-64.613 41.108-96.505 60.16 32.41-19.363 65.234-39.864 98.369-61.298zm-1290.598 51.256c0 .828-.103 1.76-.207 2.588l.207-2.588c.104-.932.207-1.76.207-2.693zm-154.594-438.824v5.902-3.417zm4920.507-571.775c.104 2.485.207 4.97.207 7.456l.104 1.242-.31-8.698zm1085.784 2270.533c-.311-.104-.725-.31-1.14-.518l-.206-.103c.517.31 1.035.517 1.656.724zm31.478-.414c3.21-1.45 6.212-3.21 9.008-5.488l.31-.207c-2.899 2.381-6.212 4.349-9.733 5.902zm-33.239-.415c-14.393-6.626-23.298-21.226-22.883-36.654-.415 15.531 8.594 30.131 23.09 36.758zm43.283-5.902a42.408 42.408 0 006.523-7.144l.31-.414c-2.07 2.899-4.452 5.591-7.144 7.869zm7.351-8.387a36.237 36.237 0 004.556-9.94c36.138-99.3 65.649-180.686 89.878-249.44-24.23 68.754-53.74 150.14-89.878 249.44-1.139 3.728-2.795 7.248-4.866 10.354zm99.197-272.944l-2.381 6.73 2.381-6.73zm3.521-9.94c7.248-20.916 14.082-40.59 20.399-59.228-6.627 19.673-13.772 40.382-21.538 62.541zm-7355.702 5.28c4.038-6.937 7.248-14.392 9.63-22.262 0 0 8.18-29.614 15.739-77.866-7.56 48.252-15.74 77.866-15.74 77.866-2.484 7.973-5.694 15.636-9.836 22.677zm-1046.747-32.099c-.828-.31-1.76-.62-2.692-.931l2.692.931c.932.415 1.864.725 2.796 1.036zm-29.2-11.286c-22.47-9.008-43.8-18.017-63.888-27.129-153.662-68.96-230.493-131.709-230.493-131.709s76.831 62.748 230.493 131.71c20.917 9.422 43.075 18.844 66.477 28.164zm8454.015-26.922l-1.036 2.9 1.036-2.9zm1.864-5.798c3.831-11.494 7.559-22.573 10.976-33.342-3.728 11.597-7.663 23.712-11.908 36.241zm-8878.45-.207l-.104.31.104-.31zm.414-2.278c.104-.621.207-1.14.31-1.657-.103.621-.31 1.346-.414 1.967zm1525.854-38.001c-.207 1.657-.414 3.21-.725 4.866l.415-2.485zm7364.918 1.76c1.139-3.52 2.278-7.041 3.313-10.561l.829-2.59c-1.553 5.178-3.314 10.459-4.97 15.843zm-7362.433-20.812c-.103.828-.207 1.656-.31 2.588l.103-1.346zm.31-2.693c.415-3.106.726-6.212 1.036-9.422-.414 3.624-.724 7.248-1.242 10.768zm7371.131-4.866l-.828 2.485.828-2.485zm-7369.784-7.352c.414-3.624.828-7.455 1.139-11.183-.414 4.246-.828 8.49-1.243 12.53zm7374.237-7.559c.725-2.381 1.45-4.866 2.174-7.248-.932 3.21-1.863 6.42-2.899 9.733zm-7372.787-6.523c.62-7.662 1.346-15.532 1.863-23.608-.62 8.594-1.242 16.981-2.07 25.058zm2.07-26.715c.208-4.038.518-8.18.725-12.321-.207 4.66-.517 9.319-.828 13.875zm7382.003-5.591c.208-.932.518-1.864.725-2.692-.517 1.76-1.035 3.52-1.45 5.384zm2.175-8.077l-.725 2.693.725-2.693zm2.174-7.972l-.724 2.692.724-2.692zm5.385-20.606l-.725 2.589.725-2.589zm3.624-15.014l.621-2.485c-.414 1.657-.828 3.313-1.139 4.97zm1.76-7.455c3.52-14.704 6.524-28.993 9.32-43.075-2.9 14.807-6.213 29.925-9.838 45.56zm-8856.187-7.662c-1.036 2.485-1.968 4.866-3.003 7.351l1.45-3.624zm1461.241 6.109v-5.799 7.559zm4591.438-7.973c7.144-4.142 14.185-8.387 21.33-12.53l2.382-1.449c-8.698 5.177-17.396 10.251-26.094 15.325zm-6048.02-9.009c1.036-2.381 2.071-4.866 3.107-7.248l1.553-3.624c-2.071 4.867-4.142 9.63-6.213 14.496zm7.663-18.017c2.07-4.763 4.141-9.526 6.109-14.289l1.553-3.624c-3.003 7.145-6.11 14.29-9.216 21.538zm6080.636 3.003c1.553-.932 3.106-1.864 4.66-2.899l2.381-1.45a462.71 462.71 0 01-9.423 5.799zm2773.48-14.289c10.355-53.74 16.464-104.89 22.159-165.982-5.799 61.92-11.908 113.692-22.573 168.364zm-2735.893-9.319c.829-.518 1.553-1.035 2.382-1.45l2.278-1.553c-2.278 1.553-4.66 3.003-7.041 4.556zm16.36-10.665a1740.98 1740.98 0 0076.314-53.119c265.906-196.01 562.773-343.044 854.462-402.479l1.967-.414c-292.414 59.228-589.902 206.469-856.43 402.893-25.886 19.053-52.186 37.277-78.59 54.672zm-6113.15-18.328c4.039-9.422 8.18-18.638 12.219-27.853l3.003-6.938a4679.681 4679.681 0 00-16.775 38.312zm42.35-96.09c24.024-53.843 47.84-106.03 71.24-157.491l11.701-25.783c-28.164 62.024-56.846 124.772-85.943 190.005zm1206.312-10.043c0 .828.104 1.76.104 2.589l-.104-1.243zm-.103-7.766v2.589-1.346zm-.208-3.935c0-1.656-.103-3.417-.207-5.177l.311 6.523zm-.31-9.112c-.207-4.245-.518-8.594-.829-12.943.311 4.763.622 9.526.829 14.29zm7607.319-6.109c.414-5.384.932-10.768 1.45-16.36 1.242-25.782 1.967-53.118 1.863-81.904.104 28.786-.621 56.122-1.864 81.904-.62 6.524-1.139 12.84-1.76 19.052zm-7608.355-9.422c-.207-3.52-.517-6.938-.828-10.458.31 3.934.621 7.87.932 11.7zm-1.139-13.047c-.828-8.698-1.864-17.292-3.21-25.99 1.346 9.112 2.486 18.224 3.314 27.336zm-4.038-31.167c-.518-3.417-1.139-6.834-1.76-10.354.725 3.934 1.346 7.765 1.967 11.7zm-2.485-14.186c.207.829.31 1.657.518 2.589l-.207-1.346zm-.725-3.934c-5.28-26.197-12.84-52.083-23.194-77.245-43.282-104.062-125.394-193.215-284.752-241.363 159.358 48.148 241.47 137.3 284.752 241.363 10.561 25.576 18.224 51.98 23.401 78.59zm7473.434-58.917c-.207-4.97-.414-9.837-.621-14.91.31 5.694.518 11.39.621 16.98zm-.725-19.156c-1.76-39.45-5.073-81.594-10.044-126.221 5.074 45.456 8.388 88.22 10.148 128.395zm-8574.335-22.159c46.492-102.406 91.949-203.569 136.37-311.36 28.475-69.064 56.536-140.717 84.183-216.822l1.139-3.107c-28.06 77.245-56.433 149.933-85.322 219.93-46.285 112.242-93.605 217.34-142.169 324.199zm7716.87-19.156c-.103 0-.206 0-.31-.103l-.31-.104.931.311zm-1.449-.517c-3.52-1.243-6.834-2.796-10.044-4.867a941.574 941.574 0 00-54.569-30.235l-1.242-.621a983.737 983.737 0 0155.811 30.856c3.314 2.071 6.73 3.728 10.355 4.97zm39.037-2.278c-.207.103-.414.207-.518.31l.207-.207zm.518-.207c6.109-3.21 11.7-7.56 16.153-13.254l.207-.207a50.989 50.989 0 01-16.671 13.564zm16.67-13.979c.829-.932 1.554-1.967 2.279-3.106 5.487-8.491 8.076-18.017 7.869-27.44.207 9.423-2.382 18.949-7.87 27.44a97.655 97.655 0 01-2.381 3.417zm-124.462-20.502l-2.485-1.242-1.242-.622c1.656.829 3.313 1.657 4.866 2.485zm-6.213-3.003c-22.987-11.39-46.285-21.744-69.893-31.167l-1.243-.517c24.437 9.733 48.563 20.398 72.379 32.202zm-74.967-33.134c-13.564-5.28-27.129-10.25-40.9-14.91l-1.243-.415c14.6 4.867 28.993 10.148 43.386 15.74zm997.459-18.638c-.621-5.695-1.346-11.494-1.967-17.292-5.592-45.663-12.633-93.812-22.16-144.549 9.527 50.737 16.568 98.886 22.16 144.549.724 6.627 1.553 13.254 2.278 19.777zm-1070.666-6.523a993.775 993.775 0 00-73.518-18.95l-1.242-.31a976.488 976.488 0 0176.106 19.57zm-78.798-20.088c-12.426-2.692-24.851-5.074-37.38-7.248l-1.347-.207c13.461 2.278 26.819 4.866 40.073 7.662zm-46.7-8.801c-1.864-.311-3.624-.622-5.384-.829l-1.346-.31c2.692.517 5.384.931 8.076 1.346zm-14.807-2.278c-.518-.104-.932-.208-1.346-.208l-1.346-.207c1.346.207 2.692.415 4.038.518zm-24.333-3.417c-28.475-3.624-57.261-6.006-86.15-7.456h-1.45c29.925 1.346 59.539 3.935 88.946 7.663zm1210.35-125.083c-1.036-5.798-2.175-11.597-3.314-17.499 1.242 6.627 2.485 13.15 3.728 19.674zm-4.246-21.951c-6.73-33.86-14.704-68.858-23.92-104.995-40.382-157.906-102.717-336.106-202.017-533.567-1.968-3.624-3.314-7.351-4.039-11.286.725 3.935 2.071 7.662 4.039 11.286 99.3 197.46 161.635 375.661 202.018 533.567 9.423 36.862 17.5 72.689 24.333 107.273zm-5928.32-28.475a1509.148 1509.148 0 003.106-54.154c-.828 19.26-1.864 38.208-3.313 56.846zm1297.328-47.941l22.055-14.6-1.864 1.242c-7.352 4.867-14.703 9.734-22.055 14.497zm-1294.015-11.7c.104-1.865.104-3.728.207-5.489l-.31 8.18zm1319.798-5.385c3.624-2.485 7.351-4.867 11.08-7.455l-1.865 1.242c-3.727 2.485-7.351 4.97-11.08 7.455zm-1319.384-5.695c.518-17.81.829-35.93.829-54.154 0 19.156-.31 38.208-.932 56.95zm4498.66-31.996c3.418-3.624 6.731-7.351 10.148-11.079l-1.45 1.657c-3.416 3.624-6.73 7.352-10.147 11.08zm-3123.88-.207c4.35-3.002 8.699-6.109 13.048-9.112l-1.864 1.243c-4.35 3.106-8.698 6.11-13.047 9.112zm3136.824-13.978c4.763-5.281 9.423-10.665 13.979-15.946l-1.346 1.553a1032.23 1032.23 0 01-14.083 15.946zm-3101.514-11.08c22.78-16.463 45.767-33.444 68.547-50.944l-1.76 1.45c-22.883 17.396-45.767 34.377-68.65 50.84zm3134.545-27.335c.414-.518.932-1.036 1.346-1.657l-1.346 1.657c-.414.517-.932 1.035-1.346 1.656zm-3060.406-27.854a3217.294 3217.294 0 0022.262-17.188l-1.863 1.45a3217.294 3217.294 0 01-22.263 17.188zm3091.78-11.7c4.35-5.695 8.698-11.39 12.944-17.189l-1.243 1.657c-4.142 5.695-8.49 11.39-12.84 17.085zm-3063.926-9.837c49.909-39.244 99.611-80.765 148.588-124.461 28.268-25.369 56.33-51.358 83.873-78.177l-1.657 1.657c-27.13 26.197-54.569 51.669-82.216 76.52a3135.89 3135.89 0 01-150.452 125.91zm-3897.783-4.867c.414-1.035.725-2.07 1.139-3.106l1.14-3.21c-1.14 3.21-2.279 6.316-3.418 9.422zm6981.487-11.804l3.417-4.66-1.14 1.554-3.416 4.66zm-6973.514-10.354c16.982-47.631 33.86-97.23 50.634-149.002a6802.19 6802.19 0 0160.885-180.478l1.76-4.97c-22.883 64.612-43.8 127.05-62.645 185.448-17.189 52.912-34.377 103.545-51.773 152.211zm7020.524-58.918c3.003-4.763 6.005-9.526 8.905-14.289l-.932 1.657a655.088 655.088 0 01-8.905 14.186zm11.908-19.052a1152.868 1152.868 0 0016.878-28.682l-.932 1.657a1385.519 1385.519 0 01-16.982 28.682zm-2903.327-104.166c7.248-7.145 14.496-14.29 21.744-21.537l-1.656 1.656c-7.249 7.145-14.497 14.393-21.849 21.538zm-1910.424-21.951c-1.14-83.665-10.77-169.918-32.307-257.31 21.745 88.22 31.375 175.302 32.307 259.898zm1935.585-3.003l1.657-1.657-1.657 1.657-1.656 1.656zm11.598-11.7c1.139-1.14 2.278-2.279 3.313-3.418l-1.657 1.657c-1.035 1.139-2.174 2.278-3.313 3.417zm6.626-6.835c12.737-12.943 25.37-26.093 37.795-39.45l-1.657 1.76c-12.425 13.254-25.058 26.404-37.794 39.45zm41.108-42.97c3.21-3.418 6.42-6.938 9.63-10.459l-1.553 1.76c-3.21 3.52-6.524 7.041-9.733 10.458zm12.944-13.98c26.3-28.681 52.083-58.088 77.245-88.323l-1.553 1.76a2346.916 2346.916 0 01-77.35 88.324zm-4102.597-81.8c-1.243 3.417-2.382 6.73-3.624 10.044l1.863-4.97zm4189.057-17.706l10.562-13.047-1.45 1.864c-3.52 4.349-7.144 8.698-10.665 13.047zm2852.28-7.662c.413-1.864.931-3.728 1.345-5.488-.621 2.381-1.139 4.866-1.76 7.248zm906.752-1.657c-.207-1.45-.311-2.9-.311-4.453 0 1.657.207 3.314.414 4.97zm-3745.363-7.559c26.197-32.513 51.565-65.958 75.899-100.335l-1.346 2.07c-24.437 34.274-49.91 67.616-76.107 100.232zm3745.052 2.278zm-903.75-3.935c1.036-4.245 2.071-8.49 3.003-12.736-1.139 4.867-2.278 9.63-3.417 14.497zm6.213-27.232c1.864-9.008 3.728-18.017 5.384-27.025-1.76 9.63-3.727 19.26-5.798 28.889zm6.316-32.513a257.479 257.479 0 01-.62 3.624l.31-1.76zm.725-3.52c.31-1.864.621-3.625.932-5.488-.414 2.381-.828 4.866-1.346 7.248zm-4995.578-.208c-2.278-9.112-4.66-18.327-7.248-27.543l-.31-1.346c2.795 10.148 5.488 20.192 7.973 30.235zm4997.338-10.665c-.207 1.243-.414 2.382-.62 3.624l.31-1.864zm.932-5.384a243.154 243.154 0 00-.62 3.624l.31-1.864zm.518-3.624c.207-1.14.31-2.382.518-3.624-.207 1.864-.518 3.624-.829 5.384zm1.346-9.009c.621-4.141 1.14-8.387 1.76-12.529-.62 4.763-1.346 9.527-2.07 14.393zm-5011.11-12.01c.311.931.518 1.76.829 2.691l-.414-1.346zm-1.138-3.936c-3.21-10.975-6.627-21.951-10.355-32.927l-.414-1.346c3.935 11.908 7.662 23.712 11.183 35.62zm2238.872-4.452c.932-1.346 1.863-2.692 2.795-3.935l-1.346 1.968c-.932 1.346-1.864 2.692-2.795 3.934zm-4227.267-13.771c6.42-16.257 12.944-32.41 19.467-48.667l1.035-2.485c-7.558 18.742-15.117 37.484-22.469 56.225zm4234.204 3.83a2125.711 2125.711 0 0027.233-40.485l-1.346 2.07c-8.905 13.565-18.017 27.026-27.233 40.383zm29.925-44.627c.414-.621.828-1.346 1.346-1.967l-1.346 1.967a23.433 23.433 0 00-1.346 2.07zm2744.59-5.592c1.243-21.537 1.658-42.97 1.347-64.3.31 21.95-.104 43.902-1.45 66.06zm-6985.11-12.425c2.174-5.177 4.245-10.25 6.316-15.325l1.036-2.588c-2.796 6.834-5.592 13.668-8.388 20.398zm4252.428-.414c3.935-6.213 7.766-12.426 11.7-18.742l-1.346 2.175c-3.83 6.212-7.766 12.425-11.7 18.638zm-2318.706-18.949c0 .207-.104.518-.104.829v-.311c.104-.207.104-.31.104-.518zm2332.995-3.935a1959.748 1959.748 0 0018.95-31.477l-1.243 2.07c-6.213 10.562-12.633 21.124-19.053 31.478zm21.434-35.723c1.243-2.174 2.485-4.245 3.728-6.42l-1.243 2.175c-1.242 2.175-2.485 4.245-3.727 6.316zm6.213-10.665c.414-.724.828-1.346 1.242-2.07l-1.242 2.07-1.243 2.175zm7.352-12.736c19.363-34.273 37.794-69.375 55.086-105.201-17.603 36.655-36.448 72.378-56.329 107.272zm2628.723-105.098c0-.828-.104-1.656-.104-2.485.104 1.243.104 2.485.207 3.728zm-.208-4.97c-.31-4.97-.517-10.044-.931-15.014.414 5.384.724 10.769.931 16.257zm-2568.044-6.316c25.99-54.672 49.287-111.207 69.583-169.503a1697.082 1697.082 0 01-70.619 171.78zm2566.698-22.055c-.31 1.864-.414 3.83-.103 5.902.103.828.103 1.657.207 2.485l-.104-1.243c0-.414-.103-.828-.103-1.242-.31-2.071-.207-4.038.103-5.902zm-6800.488-61.092c-1.036 2.071-2.175 4.142-3.21 6.317l1.553-3.21zm9.733-18.845c40.59-77.555 82.837-148.173 126.74-205.95l.932-1.14c-44.835 58.71-87.91 130.881-129.328 210.196zm4296.953-77.14c-.518 1.552-1.035 3.21-1.657 4.762l.829-2.381zm1.657-4.764c1.864-5.695 3.83-11.286 5.591-16.981-2.07 6.523-4.245 12.943-6.42 19.363zm7.248-21.848c15.842-49.39 29.614-100.024 41.004-152.004.932-2.899 1.243-5.902 1.14-8.801.103 2.9-.208 5.902-1.14 8.801-11.597 52.912-25.576 104.373-41.832 154.49zm-4164.103-121.354c5.902-7.249 11.804-14.29 17.81-21.124l.932-1.035c-6.627 7.455-13.15 15.221-19.674 23.298zm27.75-32.203c1.14-1.242 2.278-2.381 3.314-3.624l1.139-1.243c-1.864 2.071-3.728 4.039-5.592 6.11zm7.87-8.387c.724-.828 1.553-1.657 2.278-2.382l1.139-1.242c-1.554 1.553-3.003 3.21-4.556 4.763zm5.798-6.006c1.553-1.553 3.107-3.106 4.66-4.763l1.139-1.139c-2.382 2.382-4.66 4.763-7.041 7.145zm8.18-8.283c12.322-12.219 25.266-24.23 38.934-35.93l1.346-1.14a779.818 779.818 0 00-41.419 38.209zm46.907-42.764c14.289-12.115 29.2-24.023 44.732-35.723l1.45-1.036c-16.568 12.426-32.41 24.955-47.528 37.898zm49.08-38.933c78.074-58.296 170.23-111.518 267.356-161.116 250.996-128.189 536.472-228.524 743.564-304.215 472.895-173.127 737.455-317.054 967.017-396.163 72.689-25.058 140.926-42.867 212.994-50.944l2594.035-258.034c174.475-19.984 572.713-123.115 1045.607-262.175l7.145-2.071c-476.001 140.096-877.345 244.159-1052.752 264.246l-2594.035 258.034c-72.068 8.077-140.305 25.886-212.994 50.944-229.562 79.109-494.122 223.036-967.017 396.163-207.092 75.691-492.568 176.026-743.564 304.215-97.747 49.909-190.42 103.545-268.805 162.151zm5851.904-1438.86a29786.777 29786.777 0 00196.012-58.606l7.352-2.175c-71.343 21.537-141.65 42.557-210.509 62.852zm218.171-65.337c7.456-2.174 14.807-4.452 22.263-6.73l7.455-2.278c-12.426 3.83-24.748 7.558-37.07 11.286zm66.891-20.295a24173.305 24173.305 0 0067.408-20.709l7.56-2.381c-27.648 8.594-55.087 16.981-82.423 25.368zm125.29-38.518l-20.19 6.212 10.043-3.106zm30.236-9.423c3.314-1.035 6.73-2.07 10.044-3.106l10.148-3.21a3402.062 3402.062 0 01-30.34 9.422zm40.383-12.632c3.417-1.036 6.834-2.071 10.148-3.107l10.147-3.21c-10.147 3.21-20.295 6.42-30.339 9.526zm40.59-12.633c389.23-121.562 790.574-252.546 1134.554-370.484 298.316-102.302 553.557-195.078 722.13-259.38l4.97-1.967c-168.573 64.509-425.781 158.01-727.1 261.347-346.983 118.974-752.47 251.2-1144.701 373.694zm1871.49-635.559c38.83-14.91 72.794-28.164 101.165-39.554 144.447-59.33 421.122-188.762 763.963-353.088l9.837-4.66c-347.397 166.604-628.007 297.9-773.8 357.748-29.614 11.908-65.13 25.783-106.03 41.418zm894.638-406.827c65.96-31.582 134.3-64.509 204.504-98.472 365.724-166.81 794.301-363.546 1234.061-564.733l47.114-21.641c-456.224 208.746-902.404 413.662-1281.175 586.374-73.725 35.62-145.379 70.1-214.34 103.235zm1580.216-728.025c39.451-18.016 78.902-36.137 118.353-54.05l23.712-10.872c-63.163 28.785-126.222 57.674-189.385 86.563zm189.386-86.563c7.87-3.624 15.739-7.145 23.712-10.769l23.608-10.872c-23.608 10.872-47.32 21.64-71.032 32.513zm259.9-118.455c15.74-7.145 31.375-14.29 47.01-21.434l23.505-10.665c-31.374 14.289-62.749 28.474-94.123 42.764zm140.72-64.095a90394.386 90394.386 0 01116.385-52.808l23.194-10.561c-54.05 24.54-108.412 49.184-162.98 74.034zm231.735-105.098c237.017-107.376 465.958-210.403 677.916-304.629 69.065-30.753 129.95-56.328 186.59-79.522l3.935-1.554c-57.675 23.505-119.803 49.598-190.525 81.076-218.792 97.332-455.602 203.88-700.903 315.087zm876.31-388.914c2.59-1.036 5.178-2.175 7.766-3.21l3.935-1.554c-5.177 2.071-10.354 4.246-15.635 6.317zm112.97-45.353c63.576-25.369 125.393-50.012 192.595-78.901l1079.053 1046.217-1079.053-1046.217c-72.379 31.063-138.545 57.364-207.3 84.803z"></path>
      <path id="rightHandHighlight" fill="#4e62a8" d="M15957.014 26438.206c-51.355-56.696-105.442-128.65-120.178-159.849-25.458-53.886-24.454-60.271 19.795-126.002 25.618-38.065 46.618-83.479 46.618-100.905 0-49.829 44.772-37.262 102.11 28.67 95.767 110.058 149.25 441.284 73.602 455.739-16.464 3.213-68.102-38.186-121.947-97.653zm-767.893-386.194c37.222-37.544 24.334-112.469-27.505-159.89-26.901-24.615-112.832-92.153-190.969-150.174-172.38-127.889-350.056-296.413-419.481-397.839-58.144-84.926-103.556-106.728-159.449-76.534-44.571 24.093-68.744 0-69.186-68.984 0-50.511 77.738-87.774 216.025-103.072 203.055-22.485 552.43 118.573 697.745 281.676 172.298 193.418 202.133 361.862 102.271 577.245-51.435 110.982-59.147 119.094-112.991 119.094-44.932 0-53.043-4.777-36.46-21.522zm-1564.092-732.92c-21.723-12.769-31.16-40.955-31.322-93.596-.4-119.778-13.129-140.377-163.183-263.566-132.344-108.696-391.495-388.044-491.355-529.705-37.986-53.886-53.445-61.955-118.615-61.955-89.381 0-119.296-29.595-111.547-110.462 7.992-83.802 63.725-109.258 209.401-95.646 190.609 17.747 333.835 99.098 565.359 321.066 295.449 283.281 392.098 504.607 311.712 713.887-50.273 130.901-96.489 163.423-170.45 119.977zm-2612.38-676.182c-47.34-52.802-172.579-337.771-194.262-442.049-28.868-138.889-4.015-189.163 93.758-189.163 103.557 0 169.809 40.515 197.393 120.701 29.956 87.134 30.037 388.446 0 475.457-25.457 74.002-53.123 84-96.971 35.054zm4475.092-6220.038c-210.602-254.33-349.213-336.646-561.502-333.594-127.449 2.007-214.179 24.453-395.272 102.954-50.391 21.883-66.574 23.367-66.495 6.262 0-39.95 131.142-198.917 222.37-269.829 130.018-101.026 540.867-298.581 905.54-435.343 175.832-65.933 459.636-180.368 630.608-254.251 536.369-231.807 392.66-204.822 1891.826-355.077 732.759-73.44 1376.257-142.183 1429.982-152.742 526.451-103.636 1935.472-538.095 2993.192-922.925 394.548-143.589 595.111-229.157 1048.044-447.268 382.421-184.143 683.33-324.641 1652.028-771.106 484.21-223.173 562.15-249.231 884.659-295.448 154.39-22.125 284.489-36.46 289.064-31.843 11.686 11.806-1979.68 1020.257-2559.294 1296.071-875.906 416.753-1346.101 619.045-2069.465 890.28-497.058 186.392-720.31 293.603-833.261 400.248-129.134 121.946-141.861 179.688-98.617 448.033 15.78 97.975-33.729 160.132-157.122 197.393-146.156 44.129-537.894 67.577-953.841 57.139-427.794-10.761-510.672-25.538-757.212-135.036-234.977-104.359-315.607-116.685-605.835-92.674-340.3 28.148-894.616 100.104-1111.124 144.19-310.706 63.323-745.525 228.151-992.432 376.196-85.285 51.157-186.992 144.071-364.23 332.874-215.463 229.475-309.342 312.192-354.112 312.192-6.747 0-37.103-29.996-67.499-66.696z"></path>
    </g>
    <g id="leftHandGroup">
      <path id="leftHand" fill="url(#leftHandGradient)" d="M112646 53392.5c-49 22.4-132 62-203 102.6-39 22.7-74 44.1-98 65.2 22-35 62-77.8 107-119.1 88-79.3 189-149 189-149 22-12.2 49-5.3 63 15.7 27 37.7 52 60.7 76 80 45 36.2 90 56.6 154 98.7 13 8.5 22 22.9 23 38.7 1 15.8-6 31.2-18 41.4 0 0-126 94.1-254 163.3-71 38.4-141 68.4-190 73.8-5 1-9-2.1-10-7-1-4.8 2-9.5 6-10.6 45-13.6 103-55.6 163-102.7 64-49.8 127-105.8 169-144.6-43-22.6-79-39.6-112-68.4-23-19.6-44-44.4-65-78zm683-7844.1c13-5.2 26-10.1 39-14.8 108-40.2 192-64.7 219-66.7 78-5.8 162-12.1 250-18.8l1868-175.2c135-14.2 450-97.4 822-203.6 372-106.4 800-237.8 1166-351.7 346-107.6 636-198.9 770-247.1 150-52.1 477-188.9 868-352.7 658-287.4 1544-679.5 2216-965.3l52 118.1c-690 310-1608 738.3-2268 1042-354 172.7-648 313.3-787 370.8-119 48.4-362 139.3-660 242.6-302 104.5-660 222-998 327.6-508 158.4-973 287.3-1149 307.6l-2046 205.5c-57 6.4-110 20.6-168 40.6-181 63-389 177.6-762 315.5-163 60.2-388 140.2-586 242.2-123 63.2-235 133.9-308 216.2-61 68.1-117 169.8-170 282-78 165.2-145 352.9-193 505.5-38 117.3-76 220-116 316.4-93 228.9-192 420.4-298 693.4-9 21.3 1 47.4 11 76.4 22 62.1 64 128.7 118 192.1 83 98.9 196 189.8 316 241.1 84 36.4 231 55.3 375 44.5 122-9.2 245-36.1 318-110.4 97-99.4 240-258.3 387-423.4 182-205.4 369-420.5 477-545.9 39-81.9 82-194.4 104-324.1 27-156.7 28-334-41-513.9-5-8.6-1-19.2 8-23.5 8-4.4 19-.9 23 7.8 112 177.1 148 367 153 539.9 1 48.9-1 96.2-4 141.3l496-102.1c23-7.4 48-15.7 74-24.7 208-69.3 515-185.9 777-400 184-151.3 347-342.9 440-588.5 4-11.7 16-18.4 28-14.9 11 3.4 18 15.8 15 27.5-76 347.3-284 621.5-517 832-122 110-250 202.6-371 275.7 288 206.2 716 570.3 801 637.9 85-4.1 284-81.4 443-123.4 139-36.9 294-94.7 437-188.3 164-107.8 341-194.1 517-248.8 44-26.2 85-53.2 123-80.9 65-46.6 123-95.6 175-145.1 62-59 115-119 159-181 117-163.6 172-336.7 160-506.1-2-8.5 4-16.4 13-17.6 8-1.2 16 4.8 17 13.3 24 116.2 19 238.5-17 361.9-32 110-88 220.4-171 325.4-43 55.2-94 108.2-153 158.9-4 3.7-8 7.3-12 10.9 13-1.3 27-2.3 40-3.2 214-13.1 417 29.7 590 148.5 18 11.7 23 35.9 11 54.1-11 18.1-36 23.3-54 11.6-161-97.2-345-124.4-536-101-259 31.7-529 158.6-767 335.8-154 114.4-322 189.9-476 240.7-79 26-288 105.2-288 105.2 425 380.4 1387 1344.7 1634 1645.7 36 44.3 117 285 39 574.1-56 205.6-184 365.8-313 488.8-117 112.3-249 144.3-356 146.2-183-128.5-753-529.8-1194-844.7-251-179-460-329.3-532-385.5-13-11.1-32-9.7-43 3.3-12 12.9-10 32.4 3 43.6 66 63.1 260 233.6 494 436.8 396 343.8 903 779.3 1090 940 9 98.3 11 206.7-13 277.8-58 175.9-351 457.7-456 506.8-116 53.5-286 48.3-416 32.7-3-4.1-7-8-11-11.8l-1601-1319.8c-14-12.3-35-11.2-47 2.3-12 13.6-11 34.5 2 46.7l1441 1451.4c-14 74.1-35 151.9-64 201.4-69 119.7-315 357.6-606 366-71 2-194-25-292-50.4-94-80.7-329-282.1-516-436.6-125-103.5-226-184.4-251-195.5-10-5.7-22-2.4-28 7.3s-2 22.2 7 27.9c21 15.6 98 113.6 193 237 127 164.1 280 369.8 367 487.2-79 114-248 257.7-558 297.2-58 87.6-138 169.5-244 239.3 68-74.7 117-152.7 151-230.9 0 0 40-85.4 49-192.3 6-74.2-3-151.1-15-196.1-25-94.7-82-171.3-159-228.9-28-20.8-60-36.2-93-50.5-39-16.1-80-27.5-126-33.1-17 40.4-40 83.9-74 129.6-74 102-200 220.9-422 338.3-177 94-348 172.2-515 236.4-183 70.3-361 123.4-539 161.5 171-57.7 340-130.1 513-220.1 155-81.2 312-176.4 474-287.8 141-96.7 233-187.1 293-267.7 127-171.8 75-282.5 75-282.5-2-5-9-27.7-10-34.1-51-108.6-151-268.5-328-372.3-148-86.6-349-132-620-80.9-17 3.2-33 5.3-48 6.5-5 26.3-11 51.7-20 75.5-67 175.6-208 363.9-410 529.9-226 185.6-521 345.7-851 431.9 252-103.2 476-250.3 656-415.3 213-195.3 359-413.6 404-607.2 9-38.3 3-88.9-1-123.8-4-29.3-23-85.1-23-85.5-6-17.7-13-34.5-21-49.9-56-81.3-167-218.6-335-323.4-135-83.8-307-146.3-518-141.4-52 1.2-112 21.2-176 46.6-180 71.3-377 188.9-496 229.9-88 30.3-258 85.3-326 89.4-6 .4-11 .5-17 .4-45 72.5-101 128.2-164 171.5-99 66.9-208 96.4-312 116.4l-2 .5c61-24.4 119-61.9 173-108.8 74-64.1 127-150 151-264.6 2-7.6 3-15.2 4-22.9 10-64 2-111.6 1-122-5-31.8-18-70.9-33-110.4-22-60.6-54-121.8-93-161.3-51-52.1-135-105.8-226-158.2-140-80.4-299-155.5-410-209-45-21.4-89-39.1-134-55.1-115-41.4-231-71.9-351-114-58-21.1-114-45.2-166-78.3-74-47.5-140-105.4-200-170.3-58-61.9-108-126.9-158-194.4-31-41.2-59-81.8-88-121.4-58-53.6-111-101.6-157-139.4-1-.7-1-1.3-2-2l-4180-4230.3 690-922.7c1992 604 5129 1318.3 5486 1345.4 409 31.1 1402-884 2414-1247.5 195-70.1 559 57.5 814 165.9 166 70.8 493 252.7 782 419.7zm-1679 6971.1c-36 16-84 40.2-129 73.3-38 27.2-74 58.5-101 98-42 60.9-61 135.7-31 228.5 2 5.2 0 11.3-5 13.7-5 2.3-12-.1-14-5.4-56-100.2-48-191.7-14-271.5 77-179.4 303-289.9 303-289.9 33-13.4 71 .4 88 32 49 80.7 106 142 177 206.3 47 42.1 101 84.1 165 132.4 51 39.3 108 84.4 174 132.7 18 12.1 31 31.2 35 52.8 4 21.7-2 43.9-15 61.5 0 0-115 138.6-317 193.9-100 27.1-218 35-352-5.2-5-.8-8-5.2-7-9.8 1-4.6 5-7.7 10-6.9 128 6.8 230-25.4 313-69 40-21 74-45.5 104-69.2 26-20.7 48-41.5 66-60.1-43-25.7-83-50-118-74.8-73-51.1-131-100.9-180-151.4-64-66.4-112-134.2-152-211.9zm-1220-662.6c-30 16.7-68 38.9-106 65.4-54 36.6-111 79.4-154 129.6-62 70.5-99 150.7-61 237.9 3 5.2 1 11.8-4 14.7-5 3-12 1.1-15-4.1-66-93.3-43-197.9 13-295.6 101-175.8 320-319.6 320-319.6 36-20.2 82-8.6 104 26.4 39 53.9 74 97.2 105 135.9 38 48.4 73 86.6 109 122.6 45 45.8 91 87.6 148 138.5 32 28.2 66 59.9 106 96.1 30 23.3 36 66 14 96.6 0 0-75 90.9-229 165.3-70 33.8-154 63.7-256 80.9-5 1.4-10-1.2-11-6-2-4.7 1-9.7 6-11.1 89-40.1 158-88.5 215-135.1 53-43 92-84.6 118-116.6-23-14.4-43-28-63-41.4-70-47.8-125-88.9-176-137.8-43-40.7-82-87-123-146.5-20-28.4-39-60.2-60-96.1zm-1781-53.6s-57-98.9-88-207.6c-13-47.1-24-95-20-136.8 12-110.9-34-158.1-100-170-77-14-190 32.1-232 72.7-27 25.3-42 54.7-47 86.3-9 48.2 2 98.6 15 133.5 2 5 7 7.8 12 6.3s8-6.7 6-11.7c-5-27.4-8-64.1 0-99.5 6-28 21-54.1 48-72.6 30-20.6 97-38.7 150-33.5 16 1.4 29 6.5 38 15.4 10 10 4 26.7-3 51.7-15 54.3-13 120.2-6 185.5 14 130.7 60 255.3 60 255.3 21 46 75 66.6 121 45.9 46-20.7 66-74.9 46-120.9zm957-162.1l-2 8.5c1-2.9 1-5.7 2-8.5zm8385-2979.5c61-168.8 98-272.3 121-352.5 28-95.7 36-158.2 44-252.2 5-100.9 0-230.3-40-383.1-40-150.4-114-322.8-233-516.3-8-14.1-26-19.2-40-11.3-14 7.8-19 25.6-11 39.7 78 157.3 127 299.2 159 425 20 79.9 32 153.2 40 219.6 11 84.5 14 157.9 10 219.9-2 87.1-8 144.8-26 235-16 80.7-41 186.2-84 357.9-5 16.6 4 34.2 21 39.2 17 5.1 34-4.3 39-20.9zm-5865-333.6c8-30.3 17-71.5 23-118 11-80.3 17-174.6-18-258.7-34-82.9-99-153.9-224-192.2 149 4.3 241 67.2 300 149.6 67 91.2 87 208.1 91 308.5 4 119.4-22 213.5-22 213.5-9 31.4-35 54.8-68 60.5-74 12.7-145 22.4-213 25.1-45 1.8-88 .8-129-2-69-4.6-133-13-192-25.1-125-25.5-226-61.5-304-96.9-121-55-182-104.9-182-104.9s146 60.9 399 75.3c87 5.1 186 3 298-6.4 56-4.6 114-11.7 176-19.9 21-2.8 43-5.4 65-8.4z" transform="matrix(1.26827 0 0 1.25577 -127308.031 -40462.707)"></path>
      <path id="leftHandHighlight" fill="#e61d25" d="M3766.507 17365.277l25.366-33.152s4407.241 4139.378 5600.684 4883.042c435.017 271.12 1965.82 861.706 2542.884 1027.593 374.14 107.619 1216.272-71.579 1533.34 39.556 418.529 146.423 677.256 513.106 1123.688 722.191 266.336 125.2 714.036 78.36 1045.055 263.585 209.265 117.414 617.648 570.62 892.863 793.77 353.847 287.193 894.13 781.462 1005.739 834.204 199.118 93.68 341.164 148.683 462.918 85.894 202.924-105.233 339.897-231.312 303.117-402.724-34.243-164.002-1619.582-1638.647-1586.607-1930.362 0 10.8 5.073 21.474 12.683 29.385l1827.578 1822.618c-17.755 93.052-44.39 190.75-81.169 252.91-87.51 150.316-399.505 449.062-768.572 459.61-90.047 2.512-246.045-31.393-370.335-63.29-119.218-101.34-417.261-354.251-654.428-548.267-158.534-129.971-286.63-231.563-318.336-245.502-12.683-7.158-27.902-3.014-35.512 9.167-7.61 12.181-2.536 27.878 8.878 35.036 26.634 19.59 124.29 142.655 244.776 297.616 161.07 206.071 355.116 464.382 465.456 611.81-13.951 20.845-31.707 42.444-50.73 64.42-17.757 18.585-38.05 40.184-64.683 63.04-120.485 107.493-309.458 209.712-589.746 245.501l-2.536.252s194.045-318.086 157.265-533.575c-97.657-561.201-594.819-624.492-594.819-624.492s-50.73-177.44-134.437-291.086c-123.022-168.9-353.847-450.443-669.647-551.784-253.654-81.373-818.034-25.24-818.034-25.24s-218.143-396.822-391.896-534.077c-190.24-150.692-483.211-339.685-753.353-370.074-270.142-30.39-868.766 187.988-868.766 187.988l-644.281 334.661s7.61-573.382-445.163-745.422c-402.042-152.45-1467.39-325.369-1467.39-325.494-29.17-12.181-58.34-25.367-84.974-40.06-16.488-8.664-34.244-18.71-52-30.514-29.17-18.209-57.071-37.799-83.705-58.393-81.17-64.924-148.388-133.488-163.607-149.813-1.268-1.256-2.537-2.386-3.805-3.642-73.56-77.732-545.356-545.379-545.356-545.379zm14178.002 5170.236c86.242 80.746 331.018 293.472 625.257 546.635 502.236 431.732 1145.25 978.617 1382.416 1180.419 11.414 123.441 13.95 259.566-16.488 348.851-73.56 220.89-445.163 574.764-578.331 636.422-147.12 67.183-362.726 60.653-527.601 41.064-3.805-5.15-8.878-10.047-13.951-14.818l-2030.502-1657.36c-10.146-8.664-22.829-11.93-34.243-10.297 125.559-32.273 575.795 191.253 1112.273 425.705 433.75 189.746 849.742 496.153 986.715 560.825 199.119 93.68 341.165 148.682 461.65 85.894 204.193-105.359 339.898-231.312 304.386-402.724-32.975-161.743-1655.094-1444.507-1671.581-1740.616zm46.926-63.04c219.41-93.177 1097.054 236.21 1322.806 303.017 259.996 77.104 768.573 470.786 1151.59 682.257 102.73 56.51 342.434 96.694 570.722-256.804-1.268 7.158-3.804 14.19-5.073 21.222-71.023 258.186-233.362 459.36-396.968 613.818-148.388 141.023-315.8 181.207-451.505 183.593-232.094-161.366-955.008-665.304-1514.315-1060.745-318.337-224.782-583.405-413.523-674.72-484.097-1.269-.754-1.269-1.507-2.537-2.26zm887.249-1655.066c62.56 49.295-3.931 135.076-136.75 51.079-581.225-368.096-1368.476-743.164-1666.54-644.897-388.466 128.103-854.56 540.792-1201.265 993.534-424.005 553.928-935.627 676.194-1677.349 528.631-608.903-121.131-1149.84-781.109-886.496-1475.789 0 0 53.062 224.75 129.707 355.935 154.11 264.153 375.365 516.307 749.42 601.601 287.91 65.674 791.18 86.105 981.155-99.078 685.057-667.599 1269.394-1433.303 1269.394-1433.303 553.22-83.187 876.997-174.643 876.997-174.643 465.112 378.636 1085.479 921.05 1561.727 1296.93z"></path>
    </g>
    <g id="utawGroup">
      <path id="utawBg" fill="url(#utawBgGradient)" d="M22149.4 39456.6c.1-59.6-25.5-116.3-70.1-155.7l-252-222.9c-45.4-40.1-106-58.4-166-50.1L230.238 41992.4c-103.217 14.3-179.879 102.9-179.234 207.1l36.318 5869.6c.375 60.6 27.143 117.9 73.299 157.1l249.706 211.9c45.03 38.3 104.202 55.5 162.713 47.4l21394.16-2944.4c102.8-14.1 179.3-101.9 179.4-205.6z" transform="matrix(1.26826 -.00592 .00598 1.25576 428.315 -43089.328)"></path>
      <path id="utawFrame" fill="url(#utawFrameGradient)" d="M4582.39 16393.8l-279.48 321.8-.44 694 279.05-319.5zm-276.21 348.1l-.4 633.8 272.48-312 .8-635.9z" transform="matrix(97.37892 -1.55 .17245 10.62154 -420822.84 -160922.33)"></path>
      <path id="utaw" fill="url(#utawGradient)" d="M-49784.9 45365.7l861.7-109.3 740.7 2775 723.4-2960.9 738.3-93.7 702.5 2732.3 664.4-2905.8 861.3-109.5-1020.8 4429.4-942.1 118.5-624.8-2676-686.3 2838.4-874.3 111zm-986.7 4435.5l-1543-4100.1-847 93.2-1484.4 4484.5 884-111 324.1-1011.2 1391.9-177.1 326.7 927.8zm-2434.2-1436.5l918-116-468.9-1416.5zm-4473.8-1233.4l-1037 133.9v-765.8l2953.8-374.9v759.2l-1041 134.4-.9 3534.7-874.3 110.9zm-5114.7-114.3v2668.7c2 338.2 132 871.1 807.6 782.1 573.9-75.6 722.6-642.4 729-977.7v-2668.2l861-109.2v2668.7c6.7 619.6-364.3 1670.8-1587.7 1828.8-1492.6 192.7-1679-897.5-1683.4-1414.6v-2669.9z" transform="matrix(1.25024 -.01962 .01962 1.23792 81461.226 -48831.3)"></path>
    </g>
  </g>
  <defs id="defs3953">
    <linearGradient id="utawGradient" x1="-57820.168" x2="-57679" y1="46481.367" y2="50663.699" gradientUnits="userSpaceOnUse">
      <stop offset="0" stop-color="#fff2d4" id="stop3902"></stop>
      <stop offset=".35" stop-color="#fff2d4" id="stop3904"></stop>
      <stop offset="1" stop-color="#fdd3a3" id="stop3906"></stop>
    </linearGradient>
    <linearGradient id="utawFrameGradient" x1="4302.91" x2="4302.47" y1="16715.6" y2="17409.6" gradientUnits="userSpaceOnUse">
      <stop offset="0" stop-color="#fcf0d1" id="stop3909"></stop>
      <stop offset=".15" stop-color="#fcf0d1" id="stop3911"></stop>
      <stop offset=".3" stop-color="#fbe9c6" id="stop3913"></stop>
      <stop offset=".45" stop-color="#fbe0ba" id="stop3915"></stop>
      <stop offset=".6" stop-color="#f9dcb4" id="stop3917"></stop>
      <stop offset=".75" stop-color="#f9dbb3" id="stop3919"></stop>
      <stop offset=".9" stop-color="#f8dcb6" id="stop3921"></stop>
      <stop offset="1" stop-color="#f8dcb6" id="stop3923"></stop>
    </linearGradient>
    <linearGradient id="utawBgGradient" x1="447.868" x2="490.505" y1="41964.059" y2="48493.746" gradientUnits="userSpaceOnUse">
      <stop offset="0" stop-color="#c9000c" id="stop3926"></stop>
      <stop offset=".25" stop-color="#c9000f" id="stop3928"></stop>
      <stop offset=".5" stop-color="#c40112" id="stop3930"></stop>
      <stop offset=".75" stop-color="#c10215" id="stop3932"></stop>
      <stop offset="1" stop-color="#c00216" id="stop3934"></stop>
    </linearGradient>
    <linearGradient id="leftHandGradient" x1="111692.86" x2="111795.19" y1="44905.691" y2="53806.242" gradientUnits="userSpaceOnUse">
      <stop offset="0" stop-color="#fcf285" id="stop3937"></stop>
      <stop offset="1" stop-color="#fbee59" id="stop3939"></stop>
    </linearGradient>
    <linearGradient id="binaryGradient" x1="-54998.047" x2="-55064.371" y1="42133.867" y2="45511.855" gradientUnits="userSpaceOnUse">
      <stop offset="0" stop-color="#ecedf1" id="stop3942"></stop>
      <stop offset=".25" stop-color="#e0e1ea" id="stop3944"></stop>
      <stop offset=".5" stop-color="#d4d6e3" id="stop3946"></stop>
      <stop offset=".75" stop-color="#c6c9da" id="stop3948"></stop>
      <stop offset="1" stop-color="#bbbfdf" id="stop3950"></stop>
    </linearGradient>
  </defs>
</svg>
