<?xml version="1.0" encoding="UTF-8" standalone="no"?>
<svg
   xmlns:dc="http://purl.org/dc/elements/1.1/"
   xmlns:cc="http://creativecommons.org/ns#"
   xmlns:rdf="http://www.w3.org/1999/02/22-rdf-syntax-ns#"
   xmlns:svg="http://www.w3.org/2000/svg"
   xmlns="http://www.w3.org/2000/svg"
   width="72.612137mm"
   height="25.882952mm"
   viewBox="0 0 72.612137 25.882952"
   version="1.1"
   id="svg4952">
  <defs
     id="defs4946" />
  <metadata
     id="metadata4949">
    <rdf:RDF>
      <cc:Work
         rdf:about="">
        <dc:format>image/svg+xml</dc:format>
        <dc:type
           rdf:resource="http://purl.org/dc/dcmitype/StillImage" />
        <dc:title></dc:title>
      </cc:Work>
    </rdf:RDF>
  </metadata>
  <g
     id="layer1"
     transform="translate(-31.729642,-479.09423)">
    <g
       id="g4331"
       transform="matrix(0.35277777,0,0,-0.35277777,36.257192,495.85647)">
      <path
         d="m 0,0 c -5.804,0 -10.58,4.942 -10.58,10.713 0,5.771 4.776,10.646 10.58,10.646 5.737,0 10.481,-4.875 10.481,-10.646 C 10.481,4.942 5.737,0 0,0 M 1.094,23.447 V 47.515 H -1.127 V 23.447 c -6.566,-0.564 -11.707,-6.035 -11.707,-12.734 0,-6.667 5.141,-12.237 11.707,-12.802 v -23.765 h 2.221 v 23.765 c 6.501,0.529 11.708,6.135 11.708,12.802 0,6.73 -5.207,12.204 -11.708,12.734"
         style="fill:#171717;fill-opacity:1;fill-rule:nonzero;stroke:none"
         id="path4333" />
    </g>
    <g
       id="g4335"
       transform="matrix(0.35277777,0,0,-0.35277777,35.461961,492.38158)">
      <path
         d="m 0,0 c -0.796,0 -1.559,-0.631 -2.489,-1.857 l -2.321,1.525 c 1.228,2.654 2.62,3.815 4.313,3.815 1.823,0 3.647,-1.757 4.974,-1.757 0.795,0 1.558,0.397 2.553,1.857 L 9.319,2.058 C 8.058,-0.364 6.766,-1.824 4.742,-1.824 2.784,-1.824 1.094,0 0,0"
         style="fill:#171717;fill-opacity:1;fill-rule:nonzero;stroke:none"
         id="path4337" />
    </g>
    <g
       id="g4339"
       transform="matrix(0.35277777,0,0,-0.35277777,48.224931,490.24678)">
      <path
         d="m 0,0 v -1.354 h -10.416 v 15.503 h 10.22 V 12.795 H -8.909 V 7.206 H -1.31 V 5.917 H -8.909 V 0 Z"
         style="fill:#171717;fill-opacity:1;fill-rule:nonzero;stroke:none"
         id="path4341" />
    </g>
    <g
       id="g4343"
       transform="matrix(0.35277777,0,0,-0.35277777,49.318824,485.1012)">
      <path
         d="m 0,0 h 1.485 v -13.363 c 0,-0.423 0.116,-0.753 0.349,-0.994 0.233,-0.24 0.56,-0.36 0.983,-0.36 0.16,0 0.349,0.022 0.567,0.065 0.219,0.044 0.423,0.102 0.612,0.175 l 0.262,-1.201 c -0.277,-0.117 -0.615,-0.211 -1.015,-0.284 -0.401,-0.073 -0.747,-0.109 -1.038,-0.109 -0.684,0 -1.222,0.193 -1.616,0.579 C 0.196,-15.107 0,-14.565 0,-13.865 Z"
         style="fill:#171717;fill-opacity:1;fill-rule:nonzero;stroke:none"
         id="path4345" />
    </g>
    <g
       id="g4347"
       transform="matrix(0.35277777,0,0,-0.35277777,54.718584,488.50596)">
      <path
         d="m 0,0 c -0.044,0.611 -0.186,1.168 -0.426,1.67 -0.24,0.502 -0.546,0.936 -0.917,1.3 -0.371,0.363 -0.805,0.647 -1.299,0.851 -0.495,0.204 -1.019,0.306 -1.572,0.306 -0.554,0 -1.078,-0.102 -1.573,-0.306 C -6.282,3.617 -6.715,3.333 -7.086,2.97 -7.457,2.606 -7.756,2.169 -7.981,1.659 -8.207,1.15 -8.341,0.597 -8.385,0 Z m -4.193,-6.507 c -0.829,0 -1.594,0.156 -2.292,0.47 -0.699,0.312 -1.303,0.742 -1.813,1.288 -0.509,0.546 -0.906,1.175 -1.19,1.888 -0.284,0.713 -0.426,1.478 -0.426,2.293 0,0.801 0.142,1.554 0.426,2.26 0.284,0.706 0.681,1.325 1.19,1.856 0.51,0.531 1.11,0.953 1.802,1.267 0.691,0.313 1.452,0.469 2.282,0.469 0.829,0 1.59,-0.156 2.281,-0.469 0.692,-0.314 1.285,-0.739 1.78,-1.278 C 0.342,2.998 0.728,2.38 1.004,1.681 1.281,0.983 1.419,0.24 1.419,-0.546 1.419,-0.663 1.415,-0.779 1.408,-0.895 1.401,-1.012 1.39,-1.092 1.376,-1.135 h -9.717 c 0.043,-0.612 0.185,-1.176 0.426,-1.692 0.24,-0.518 0.545,-0.965 0.917,-1.344 0.371,-0.378 0.8,-0.673 1.288,-0.884 0.487,-0.211 1.008,-0.316 1.561,-0.316 0.378,0 0.75,0.05 1.114,0.152 0.364,0.102 0.698,0.241 1.004,0.415 0.306,0.175 0.579,0.39 0.819,0.645 0.24,0.254 0.426,0.534 0.557,0.84 l 1.288,-0.35 C 0.459,-4.091 0.211,-4.473 -0.109,-4.815 -0.43,-5.157 -0.801,-5.456 -1.223,-5.71 -1.645,-5.965 -2.111,-6.162 -2.62,-6.3 -3.13,-6.438 -3.654,-6.507 -4.193,-6.507"
         style="fill:#171717;fill-opacity:1;fill-rule:nonzero;stroke:none"
         id="path4349" />
    </g>
    <g
       id="g4351"
       transform="matrix(0.35277777,0,0,-0.35277777,55.897073,488.70627)">
      <path
         d="m 0,0 c 0,0.8 0.138,1.557 0.415,2.271 0.276,0.713 0.666,1.335 1.168,1.867 0.502,0.531 1.103,0.95 1.802,1.255 0.698,0.306 1.47,0.459 2.314,0.459 1.077,0 2.016,-0.244 2.817,-0.732 0.8,-0.487 1.405,-1.146 1.813,-1.976 L 8.887,2.686 C 8.567,3.268 8.123,3.723 7.555,4.05 6.988,4.378 6.354,4.542 5.655,4.542 5.073,4.542 4.531,4.425 4.029,4.192 3.527,3.959 3.09,3.643 2.719,3.243 2.348,2.842 2.056,2.365 1.845,1.812 1.634,1.259 1.529,0.655 1.529,0 c 0,-0.641 0.109,-1.245 0.327,-1.812 0.219,-0.568 0.517,-1.059 0.895,-1.474 0.379,-0.415 0.819,-0.742 1.321,-0.983 0.503,-0.24 1.038,-0.36 1.605,-0.36 0.364,0 0.724,0.051 1.081,0.153 0.357,0.102 0.688,0.244 0.994,0.426 0.306,0.182 0.568,0.389 0.786,0.622 0.218,0.232 0.371,0.48 0.459,0.742 l 1.441,-0.437 C 10.277,-3.53 10.045,-3.905 9.739,-4.247 9.433,-4.589 9.073,-4.888 8.658,-5.142 8.243,-5.397 7.785,-5.594 7.282,-5.732 6.78,-5.87 6.26,-5.939 5.721,-5.939 c -0.83,0 -1.594,0.156 -2.293,0.469 -0.699,0.313 -1.303,0.743 -1.812,1.288 -0.51,0.546 -0.906,1.176 -1.19,1.889 C 0.142,-1.58 0,-0.815 0,0"
         style="fill:#171717;fill-opacity:1;fill-rule:nonzero;stroke:none"
         id="path4353" />
    </g>
    <g
       id="g4355"
       transform="matrix(0.35277777,0,0,-0.35277777,62.490947,490.532)">
      <path
         d="M 0,0 C -0.087,-0.043 -0.215,-0.102 -0.382,-0.174 -0.55,-0.247 -0.743,-0.32 -0.961,-0.393 -1.179,-0.466 -1.427,-0.531 -1.703,-0.589 -1.98,-0.647 -2.271,-0.677 -2.577,-0.677 c -0.32,0 -0.626,0.044 -0.917,0.132 -0.291,0.087 -0.545,0.221 -0.764,0.403 -0.218,0.182 -0.393,0.411 -0.524,0.688 -0.131,0.276 -0.197,0.597 -0.197,0.961 v 8.145 h -1.572 v 1.179 h 1.572 v 3.843 h 1.485 v -3.843 h 2.621 V 9.652 H -3.494 V 1.922 C -3.465,1.5 -3.319,1.19 -3.057,0.994 c 0.262,-0.197 0.575,-0.295 0.939,-0.295 0.422,0 0.793,0.069 1.114,0.207 0.319,0.138 0.523,0.237 0.611,0.295 z"
         style="fill:#171717;fill-opacity:1;fill-rule:nonzero;stroke:none"
         id="path4357" />
    </g>
    <g
       id="g4359"
       transform="matrix(0.35277777,0,0,-0.35277777,65.264063,487.17338)">
      <path
         d="m 0,0 c -1.005,-0.029 -1.878,-0.306 -2.62,-0.83 -0.743,-0.524 -1.267,-1.244 -1.573,-2.162 v -7.074 H -5.677 V 1.31 h 1.397 v -2.729 c 0.393,0.8 0.91,1.466 1.551,1.998 0.64,0.531 1.331,0.797 2.074,0.797 h 0.371 c 0.116,0 0.211,-0.008 0.284,-0.022 z"
         style="fill:#171717;fill-opacity:1;fill-rule:nonzero;stroke:none"
         id="path4361" />
    </g>
    <g
       id="g4363"
       transform="matrix(0.35277777,0,0,-0.35277777,66.211589,488.73714)">
      <path
         d="m 0,0 c 0,-0.641 0.105,-1.234 0.317,-1.779 0.21,-0.546 0.502,-1.026 0.873,-1.441 0.371,-0.415 0.808,-0.74 1.31,-0.972 0.502,-0.234 1.037,-0.35 1.605,-0.35 0.568,0 1.103,0.12 1.605,0.361 0.502,0.24 0.942,0.568 1.321,0.983 0.379,0.415 0.677,0.898 0.895,1.451 0.219,0.553 0.328,1.15 0.328,1.791 0,0.625 -0.109,1.219 -0.328,1.779 C 7.708,2.384 7.41,2.872 7.031,3.287 6.652,3.701 6.216,4.029 5.721,4.269 5.226,4.509 4.694,4.629 4.127,4.629 3.559,4.629 3.024,4.509 2.522,4.269 2.02,4.029 1.583,3.698 1.212,3.276 0.84,2.853 0.546,2.362 0.327,1.801 0.109,1.241 0,0.641 0,0 m 4.127,-5.852 c -0.83,0 -1.591,0.157 -2.282,0.47 -0.692,0.312 -1.288,0.739 -1.79,1.277 -0.503,0.539 -0.892,1.165 -1.169,1.878 -0.276,0.713 -0.415,1.463 -0.415,2.249 0,0.8 0.142,1.558 0.426,2.271 0.284,0.713 0.677,1.339 1.179,1.878 0.502,0.538 1.099,0.968 1.791,1.288 0.691,0.32 1.444,0.48 2.26,0.48 0.815,0 1.568,-0.16 2.26,-0.48 C 7.078,5.139 7.675,4.709 8.177,4.171 8.68,3.632 9.073,3.006 9.357,2.293 9.64,1.58 9.782,0.822 9.782,0.022 9.782,-0.764 9.64,-1.514 9.357,-2.227 9.073,-2.94 8.68,-3.566 8.177,-4.105 7.675,-4.643 7.078,-5.07 6.387,-5.382 5.695,-5.695 4.942,-5.852 4.127,-5.852"
         style="fill:#171717;fill-opacity:1;fill-rule:nonzero;stroke:none"
         id="path4365" />
    </g>
    <g
       id="g4367"
       transform="matrix(0.35277777,0,0,-0.35277777,76.64157,490.7244)">
      <path
         d="m 0,0 h -1.485 v 6.354 c 0,1.324 -0.207,2.3 -0.622,2.926 -0.415,0.626 -1.045,0.939 -1.889,0.939 -0.437,0 -0.848,-0.08 -1.234,-0.24 C -5.616,9.818 -5.972,9.593 -6.3,9.302 -6.627,9.01 -6.915,8.665 -7.162,8.264 -7.41,7.864 -7.599,7.424 -7.73,6.943 V 0 h -1.485 v 6.354 c 0,1.354 -0.204,2.336 -0.611,2.948 -0.408,0.611 -1.034,0.917 -1.878,0.917 -0.859,0 -1.623,-0.299 -2.293,-0.895 -0.67,-0.598 -1.15,-1.383 -1.441,-2.359 V 0 h -1.485 v 11.376 h 1.354 V 8.8 c 0.466,0.873 1.077,1.553 1.834,2.041 0.757,0.488 1.594,0.732 2.511,0.732 0.961,0 1.732,-0.27 2.315,-0.808 0.582,-0.539 0.931,-1.245 1.048,-2.118 1.063,1.95 2.533,2.926 4.411,2.926 0.626,0 1.161,-0.117 1.605,-0.35 0.444,-0.233 0.8,-0.564 1.07,-0.993 C -0.506,9.8 -0.309,9.283 -0.185,8.679 -0.062,8.075 0,7.402 0,6.66 Z"
         style="fill:#171717;fill-opacity:1;fill-rule:nonzero;stroke:none"
         id="path4369" />
    </g>
    <g
       id="g4371"
       transform="matrix(0.35277777,0,0,-0.35277777,79.075559,490.40091)">
      <path
         d="M 0,0 C 0.655,0 1.307,0.142 1.954,0.426 2.602,0.709 3.115,1.099 3.494,1.594 3.595,1.725 3.683,1.867 3.756,2.02 3.829,2.172 3.865,2.314 3.865,2.445 V 4.302 C 3.37,4.49 2.853,4.636 2.315,4.738 1.776,4.84 1.252,4.891 0.743,4.891 -0.32,4.891 -1.183,4.676 -1.845,4.247 -2.508,3.817 -2.839,3.224 -2.839,2.467 -2.839,2.162 -2.781,1.863 -2.664,1.572 -2.547,1.28 -2.369,1.019 -2.129,0.786 -1.889,0.553 -1.594,0.363 -1.245,0.218 -0.895,0.073 -0.48,0 0,0 m -0.371,-1.135 c -0.582,0 -1.114,0.091 -1.594,0.273 -0.48,0.181 -0.892,0.432 -1.234,0.753 -0.342,0.32 -0.608,0.691 -0.797,1.113 -0.189,0.422 -0.284,0.867 -0.284,1.332 0,0.524 0.117,1.001 0.35,1.43 0.232,0.43 0.56,0.797 0.982,1.103 0.422,0.306 0.928,0.542 1.518,0.71 0.59,0.167 1.241,0.251 1.954,0.251 0.568,0 1.15,-0.051 1.747,-0.153 C 2.868,5.575 3.399,5.43 3.865,5.24 V 6.267 C 3.865,7.271 3.578,8.068 3.003,8.658 2.427,9.247 1.652,9.542 0.677,9.542 0.066,9.542 -0.542,9.425 -1.146,9.192 -1.751,8.96 -2.366,8.625 -2.992,8.188 l -0.523,0.983 c 0.742,0.494 1.462,0.866 2.161,1.113 0.699,0.248 1.427,0.372 2.184,0.372 1.383,0 2.482,-0.401 3.297,-1.201 C 4.942,8.654 5.35,7.547 5.35,6.136 V 1.004 c 0,-0.407 0.175,-0.611 0.524,-0.611 v -1.31 C 5.757,-0.931 5.648,-0.942 5.546,-0.95 5.444,-0.957 5.357,-0.961 5.284,-0.961 c -0.291,0 -0.557,0.087 -0.797,0.262 -0.24,0.175 -0.375,0.437 -0.404,0.786 L 4.04,0.982 C 3.545,0.313 2.893,-0.208 2.086,-0.579 1.277,-0.95 0.458,-1.135 -0.371,-1.135"
         style="fill:#171717;fill-opacity:1;fill-rule:nonzero;stroke:none"
         id="path4373" />
    </g>
    <g
       id="g4375"
       transform="matrix(0.35277777,0,0,-0.35277777,84.0287,490.33935)">
      <path
         d="M 0,0 C 0.437,0 0.866,0.08 1.288,0.24 1.71,0.4 2.093,0.615 2.435,0.884 2.777,1.154 3.064,1.456 3.297,1.791 3.53,2.125 3.683,2.467 3.756,2.817 V 6.332 C 3.595,6.74 3.374,7.118 3.09,7.468 2.806,7.817 2.489,8.115 2.14,8.363 1.791,8.61 1.416,8.807 1.016,8.953 0.615,9.098 0.211,9.171 -0.196,9.171 -0.837,9.171 -1.405,9.036 -1.9,8.767 -2.395,8.497 -2.817,8.145 -3.166,7.708 -3.515,7.271 -3.781,6.776 -3.963,6.223 -4.145,5.67 -4.236,5.109 -4.236,4.542 -4.236,3.93 -4.127,3.348 -3.909,2.795 -3.69,2.241 -3.392,1.758 -3.013,1.343 -2.635,0.928 -2.187,0.601 -1.67,0.36 -1.154,0.12 -0.597,0 0,0 m -0.415,-1.245 c -0.786,0 -1.503,0.164 -2.151,0.492 -0.647,0.327 -1.208,0.761 -1.681,1.299 -0.473,0.539 -0.841,1.158 -1.103,1.856 -0.262,0.698 -0.393,1.419 -0.393,2.162 0,0.786 0.128,1.539 0.383,2.26 0.254,0.72 0.614,1.35 1.08,1.888 0.466,0.539 1.023,0.969 1.671,1.289 0.647,0.32 1.365,0.48 2.151,0.48 0.975,0 1.819,-0.244 2.533,-0.731 C 2.788,9.262 3.399,8.647 3.909,7.904 v 2.381 h 1.332 v -11.42 c 0,-0.786 -0.15,-1.481 -0.448,-2.086 C 4.495,-3.824 4.094,-4.33 3.592,-4.738 3.09,-5.146 2.497,-5.451 1.812,-5.655 1.128,-5.859 0.407,-5.962 -0.349,-5.962 c -1.296,0 -2.344,0.234 -3.145,0.699 -0.8,0.467 -1.448,1.093 -1.943,1.879 l 0.917,0.72 c 0.451,-0.727 1.048,-1.263 1.791,-1.605 0.742,-0.342 1.535,-0.513 2.38,-0.513 0.553,0 1.081,0.076 1.583,0.229 0.502,0.153 0.939,0.379 1.31,0.677 0.371,0.299 0.666,0.677 0.884,1.136 0.219,0.458 0.328,0.993 0.328,1.605 V 1.114 C 3.304,0.385 2.704,-0.19 1.954,-0.611 1.205,-1.034 0.415,-1.245 -0.415,-1.245"
         style="fill:#171717;fill-opacity:1;fill-rule:nonzero;stroke:none"
         id="path4377" />
    </g>
    <g
       id="g4379"
       transform="matrix(0.35277777,0,0,-0.35277777,90.530113,490.7244)">
      <path
         d="m 0,0 h -1.485 v 6.354 c 0,1.354 -0.196,2.336 -0.589,2.948 -0.393,0.611 -1.005,0.917 -1.835,0.917 -0.436,0 -0.873,-0.08 -1.31,-0.24 C -5.655,9.818 -6.063,9.593 -6.442,9.302 -6.82,9.01 -7.151,8.665 -7.435,8.264 -7.719,7.864 -7.934,7.431 -8.079,6.965 V 0 H -9.564 V 11.376 H -8.21 V 8.8 c 0.232,0.407 0.52,0.782 0.862,1.124 0.342,0.342 0.724,0.637 1.147,0.884 0.422,0.248 0.869,0.437 1.343,0.568 0.472,0.131 0.964,0.197 1.474,0.197 0.64,0 1.175,-0.117 1.605,-0.35 0.429,-0.233 0.775,-0.56 1.036,-0.982 C -0.48,9.818 -0.291,9.302 -0.175,8.69 -0.058,8.079 0,7.402 0,6.66 Z"
         style="fill:#171717;fill-opacity:1;fill-rule:nonzero;stroke:none"
         id="path4381" />
    </g>
    <g
       id="g4383"
       transform="matrix(0.35277777,0,0,-0.35277777,95.00577,488.50596)">
      <path
         d="m 0,0 c -0.044,0.611 -0.186,1.168 -0.426,1.67 -0.241,0.502 -0.546,0.936 -0.917,1.3 -0.371,0.363 -0.805,0.647 -1.3,0.851 -0.494,0.204 -1.019,0.306 -1.571,0.306 -0.554,0 -1.078,-0.102 -1.573,-0.306 C -6.282,3.617 -6.715,3.333 -7.086,2.97 -7.457,2.606 -7.756,2.169 -7.981,1.659 -8.207,1.15 -8.341,0.597 -8.385,0 Z m -4.193,-6.507 c -0.83,0 -1.594,0.156 -2.292,0.47 -0.7,0.312 -1.303,0.742 -1.813,1.288 -0.51,0.546 -0.906,1.175 -1.19,1.888 -0.284,0.713 -0.426,1.478 -0.426,2.293 0,0.801 0.142,1.554 0.426,2.26 0.284,0.706 0.68,1.325 1.19,1.856 0.51,0.531 1.11,0.953 1.801,1.267 0.692,0.313 1.453,0.469 2.283,0.469 0.83,0 1.59,-0.156 2.282,-0.469 0.69,-0.314 1.284,-0.739 1.779,-1.278 C 0.341,2.998 0.728,2.38 1.004,1.681 1.28,0.983 1.42,0.24 1.42,-0.546 1.42,-0.663 1.416,-0.779 1.409,-0.895 1.401,-1.012 1.39,-1.092 1.376,-1.135 h -9.717 c 0.043,-0.612 0.185,-1.176 0.425,-1.692 0.241,-0.518 0.546,-0.965 0.917,-1.344 0.372,-0.378 0.801,-0.673 1.289,-0.884 0.487,-0.211 1.007,-0.316 1.561,-0.316 0.378,0 0.749,0.05 1.113,0.152 0.365,0.102 0.7,0.241 1.005,0.415 0.306,0.175 0.579,0.39 0.82,0.645 0.239,0.254 0.425,0.534 0.556,0.84 l 1.288,-0.35 C 0.458,-4.091 0.211,-4.473 -0.109,-4.815 -0.429,-5.157 -0.801,-5.456 -1.223,-5.71 -1.646,-5.965 -2.112,-6.162 -2.62,-6.3 -3.13,-6.438 -3.654,-6.507 -4.193,-6.507"
         style="fill:#171717;fill-opacity:1;fill-rule:nonzero;stroke:none"
         id="path4385" />
    </g>
    <g
       id="g4387"
       transform="matrix(0.35277777,0,0,-0.35277777,98.348974,490.532)">
      <path
         d="M 0,0 C -0.087,-0.043 -0.215,-0.102 -0.382,-0.174 -0.55,-0.247 -0.743,-0.32 -0.961,-0.393 -1.179,-0.466 -1.427,-0.531 -1.703,-0.589 -1.98,-0.647 -2.271,-0.677 -2.577,-0.677 c -0.32,0 -0.625,0.044 -0.917,0.132 -0.291,0.087 -0.546,0.221 -0.764,0.403 -0.218,0.182 -0.393,0.411 -0.524,0.688 -0.131,0.276 -0.197,0.597 -0.197,0.961 v 8.145 h -1.572 v 1.179 h 1.572 v 3.843 h 1.485 v -3.843 h 2.62 V 9.652 h -2.62 V 1.922 C -3.465,1.5 -3.319,1.19 -3.057,0.994 c 0.262,-0.197 0.575,-0.295 0.939,-0.295 0.422,0 0.793,0.069 1.114,0.207 0.32,0.138 0.524,0.237 0.611,0.295 z"
         style="fill:#171717;fill-opacity:1;fill-rule:nonzero;stroke:none"
         id="path4389" />
    </g>
    <path
       d="m 99.119157,486.71117 h 0.523523 v 4.0132 h -0.523523 z m 0,-1.61008 h 0.523523 v 0.77012 h -0.523523 z"
       style="fill:#171717;fill-opacity:1;fill-rule:nonzero;stroke:none;stroke-width:0.35277775"
       id="path4391" />
    <g
       id="g4393"
       transform="matrix(0.35277777,0,0,-0.35277777,100.65984,488.70627)">
      <path
         d="m 0,0 c 0,0.8 0.138,1.557 0.415,2.271 0.276,0.713 0.666,1.335 1.168,1.867 0.502,0.531 1.103,0.95 1.802,1.255 0.698,0.306 1.47,0.459 2.314,0.459 1.077,0 2.016,-0.244 2.817,-0.732 0.8,-0.487 1.405,-1.146 1.812,-1.976 L 8.887,2.686 C 8.567,3.268 8.123,3.723 7.555,4.05 6.987,4.378 6.354,4.542 5.655,4.542 5.073,4.542 4.531,4.425 4.029,4.192 3.526,3.959 3.089,3.643 2.719,3.243 2.347,2.842 2.056,2.365 1.845,1.812 1.634,1.259 1.528,0.655 1.528,0 c 0,-0.641 0.11,-1.245 0.328,-1.812 0.219,-0.568 0.517,-1.059 0.895,-1.474 0.379,-0.415 0.819,-0.742 1.321,-0.983 0.503,-0.24 1.037,-0.36 1.605,-0.36 0.364,0 0.724,0.051 1.081,0.153 0.357,0.102 0.688,0.244 0.993,0.426 0.306,0.182 0.568,0.389 0.787,0.622 0.218,0.232 0.371,0.48 0.458,0.742 l 1.441,-0.437 C 10.277,-3.53 10.044,-3.905 9.739,-4.247 9.433,-4.589 9.073,-4.888 8.658,-5.142 8.243,-5.397 7.785,-5.594 7.282,-5.732 6.78,-5.87 6.259,-5.939 5.721,-5.939 c -0.83,0 -1.594,0.156 -2.293,0.469 -0.699,0.313 -1.303,0.743 -1.812,1.288 -0.51,0.546 -0.907,1.176 -1.19,1.889 C 0.142,-1.58 0,-0.815 0,0"
         style="fill:#171717;fill-opacity:1;fill-rule:nonzero;stroke:none"
         id="path4395" />
    </g>
    <g
       id="g4397"
       transform="matrix(0.35277777,0,0,-0.35277777,44.550575,499.19802)">
      <path
         d="M 0,0 V 15.503 H 10.153 V 14.149 H 1.506 V 8.451 H 8.822 V 7.184 H 1.506 V 0 Z"
         style="fill:#171717;fill-opacity:1;fill-rule:nonzero;stroke:none"
         id="path4399" />
    </g>
    <path
       d="m 49.0801,495.18489 h 0.523875 v 4.0132 H 49.0801 Z m 0,-1.61008 h 0.523875 v 0.77047 H 49.0801 Z"
       style="fill:#171717;fill-opacity:1;fill-rule:nonzero;stroke:none;stroke-width:0.35277775"
       id="path4401" />
    <g
       id="g4403"
       transform="matrix(0.35277777,0,0,-0.35277777,54.117768,496.97947)">
      <path
         d="m 0,0 c -0.044,0.611 -0.186,1.168 -0.426,1.67 -0.24,0.502 -0.546,0.936 -0.917,1.3 -0.371,0.363 -0.805,0.647 -1.299,0.851 -0.495,0.204 -1.019,0.306 -1.572,0.306 -0.554,0 -1.078,-0.102 -1.573,-0.306 C -6.282,3.617 -6.715,3.333 -7.086,2.97 -7.457,2.606 -7.756,2.169 -7.981,1.66 -8.207,1.15 -8.341,0.597 -8.385,0 Z m -4.193,-6.507 c -0.829,0 -1.594,0.157 -2.292,0.469 -0.699,0.313 -1.303,0.743 -1.813,1.289 -0.509,0.545 -0.906,1.175 -1.19,1.889 -0.284,0.713 -0.426,1.477 -0.426,2.292 0,0.801 0.142,1.554 0.426,2.26 0.284,0.706 0.681,1.325 1.19,1.856 0.51,0.531 1.11,0.954 1.802,1.267 0.691,0.313 1.452,0.469 2.282,0.469 0.829,0 1.59,-0.156 2.281,-0.469 0.692,-0.313 1.285,-0.739 1.78,-1.278 C 0.342,2.998 0.728,2.38 1.004,1.682 1.281,0.982 1.419,0.24 1.419,-0.546 1.419,-0.663 1.415,-0.779 1.408,-0.895 1.401,-1.012 1.39,-1.092 1.376,-1.135 h -9.717 c 0.043,-0.612 0.185,-1.176 0.426,-1.693 0.24,-0.517 0.545,-0.964 0.917,-1.343 0.371,-0.378 0.8,-0.673 1.288,-0.884 0.487,-0.211 1.008,-0.317 1.561,-0.317 0.378,0 0.75,0.051 1.114,0.153 0.364,0.102 0.698,0.24 1.004,0.415 0.306,0.175 0.579,0.389 0.819,0.644 0.24,0.255 0.426,0.535 0.557,0.841 L 0.633,-3.668 C 0.458,-4.091 0.211,-4.473 -0.109,-4.815 -0.43,-5.157 -0.801,-5.456 -1.223,-5.71 -1.645,-5.965 -2.111,-6.161 -2.62,-6.299 -3.13,-6.438 -3.654,-6.507 -4.193,-6.507"
         style="fill:#171717;fill-opacity:1;fill-rule:nonzero;stroke:none"
         id="path4405" />
    </g>
    <g
       id="g4407"
       transform="matrix(0.35277777,0,0,-0.35277777,55.5813,493.57471)">
      <path
         d="m 0,0 h 1.485 v -13.363 c 0,-0.423 0.116,-0.754 0.349,-0.994 0.233,-0.24 0.56,-0.36 0.983,-0.36 0.16,0 0.349,0.022 0.567,0.065 0.219,0.044 0.423,0.102 0.612,0.175 l 0.262,-1.201 c -0.277,-0.116 -0.615,-0.211 -1.015,-0.284 -0.401,-0.073 -0.747,-0.109 -1.038,-0.109 -0.684,0 -1.222,0.192 -1.616,0.578 C 0.196,-15.107 0,-14.564 0,-13.866 Z"
         style="fill:#171717;fill-opacity:1;fill-rule:nonzero;stroke:none"
         id="path4409" />
    </g>
    <g
       id="g4411"
       transform="matrix(0.35277777,0,0,-0.35277777,59.509765,498.81296)">
      <path
         d="m 0,0 c 0.378,0 0.775,0.073 1.19,0.218 0.415,0.146 0.801,0.346 1.158,0.601 0.356,0.254 0.665,0.553 0.928,0.895 0.262,0.342 0.421,0.71 0.48,1.103 V 6.333 C 3.61,6.726 3.395,7.093 3.112,7.436 2.828,7.777 2.508,8.08 2.151,8.341 1.794,8.604 1.416,8.807 1.016,8.953 0.615,9.098 0.218,9.171 -0.174,9.171 -0.786,9.171 -1.343,9.041 -1.845,8.778 -2.347,8.516 -2.773,8.17 -3.122,7.741 -3.472,7.311 -3.745,6.82 -3.941,6.267 -4.138,5.714 -4.236,5.146 -4.236,4.564 -4.236,3.953 -4.127,3.37 -3.909,2.817 -3.69,2.263 -3.392,1.78 -3.013,1.365 -2.635,0.95 -2.187,0.619 -1.67,0.372 -1.154,0.124 -0.597,0 0,0 m -0.306,-1.31 c -0.786,0 -1.514,0.164 -2.183,0.491 -0.67,0.328 -1.249,0.761 -1.736,1.3 -0.488,0.538 -0.866,1.16 -1.135,1.867 -0.27,0.706 -0.405,1.444 -0.405,2.216 0,0.8 0.132,1.561 0.394,2.282 0.262,0.72 0.622,1.35 1.08,1.888 0.459,0.539 1.005,0.965 1.638,1.278 0.633,0.313 1.328,0.469 2.085,0.469 0.961,0 1.813,-0.251 2.555,-0.753 0.742,-0.502 1.332,-1.11 1.769,-1.823 v 6.944 H 5.241 V 0.83 c 0,-0.408 0.174,-0.612 0.524,-0.612 v -1.31 C 5.517,-1.135 5.321,-1.157 5.175,-1.157 4.811,-1.157 4.513,-1.051 4.28,-0.84 4.047,-0.63 3.931,-0.379 3.931,-0.087 V 1.114 C 3.464,0.372 2.85,-0.218 2.085,-0.655 1.321,-1.092 0.524,-1.31 -0.306,-1.31"
         style="fill:#171717;fill-opacity:1;fill-rule:nonzero;stroke:none"
         id="path4413" />
    </g>
    <g
       id="g4419"
       transform="matrix(0.35277777,0,0,-0.35277777,71.776835,498.18657)" />
  </g>
</svg>
