<svg xmlns="http://www.w3.org/2000/svg" viewBox="0 0 28.61 81.46">
  <defs>
    <style>
      .d{fill:#fff}
    </style>
  </defs>
  <g id="b">
    <g id="c">
      <path class="d" d="M0 40.9c0 4.02 1.71 7.7 4.41 10.32.08.08.15.34.13.39-.05.12-.08.25-.07.39.01.19.3.23.29.42v.04c0 .17.75.35.78.8.01.18.14.16.33.21.2.05.16.34.18.61.05.66.81.7 1.27.97.38.08.21.4.62.34.69-.09.61.25 1.15.38.19.05.34.11.52.16.15.32.38.55.89.5.31-.03.49-.22.84-.15s.58.34.84.5c.24.15.43.28.58.53.07.12.12.24.16.38.19.59.22 1.31.76 1.72.17.65-.34.17-.57.09-.06-.02-.13-.02-.19-.02-.12.02-.24.07-.35.05-.16-.02-.51-.36-.63-.53-.08-.11-.08-.25-.13-.36-.08-.18-.35-.39-.6-.35-.45.07-1.38.23-1.08.93.02.04.13.17.19.21.34.24.7.48.81.98-.48.09-.61-.67-1.13-.58-.36.07-.92.25-.99.59-.09.39.32.66.61.76.5.18 1.22.14 1.75.24 0 .25.1.57.29.65.34.16.66-.12.86-.26.14-.02.27-.02.4-.02.58 0 1.01.19 1.35.5.22.21.39.52.62.65.19.11.41.16.57.3.02.01.03.03.04.05.17.21.24.74.27 1.02.04.51-.06.99-.27 1.31-.06.09-.13.17-.2.22-.16.13-.4.11-.61.21-.19.09-.49.26-.47.58 0 .08.08.21.08.26.05.38-.25.66-.36.88-.01.38.03.68-.04.97-.05.23-.43.36-.44.61-.18-.06-.38-.13-.56-.22-.32-.16-.58-.4-.63-.81-.02-.14.04-.31.01-.46-.03-.17-.27-.54-.41-.58-.24-.06-.4.03-.54-.13-.25-.28-.14-.72-.41-.93-.36-.28-.78.19-.9.53-.1.37.38.57.34.89-.06.41-.58-.07-.93-.04-.19.02-.44.2-.47.41-.03.25.29.59.42.68.21.14.55.31.83.38.2.05.26 0 .42-.03.43-.05.68.19.89.45.27.58.92.75 1.38 1.13.05.04.09.08.14.12.12.13 0 .19 0 .41.02.27-.21.13-.33.44-.03.07-.04.15-.08.22-.06.09-.06.07-.07.17-.02.11-.1.21-.22.2-.11 0-.22-.11-.2-.22.02-.15.24-.44.14-.6-.01-.02-.27-.08-.37 0-.16.15-.08.29-.12.52-.06.36-.08.36-.05.71.02.27-.33.2-.36-.07-.03-.33-.09-.18-.03-.51.05-.3.16-.68.04-.89-.03-.05-.15-.09-.21-.08-.09.02-.19.05-.25.12-.13.16-.03.49 0 .66.03.18-.06.48-.24.34-.31-.25.06-.55-.22-.78a.23.23 0 0 0-.25-.03c-.08.03-.2.02-.23.1-.13.29.13.62.29.91.27.48.19.27.4.83.09.25-.19.32-.29.06-.14-.39-.27-.35-.49-.7-.18-.28 0-.8-.3-.93-.37-.15-.5.22-.5.33 0 .39.36.75.57 1.04.04.05.35.5 0 .57-.24.05-.45-.31-.64-.79-.06-.15-.13-.36-.28-.4-.16-.04-.31.14-.29.31.01.07.11.09.15.15.07.11-.06.26.07.31.26.1.26.5 0 .41-.17-.06-.28-.18-.38-.33-.05-.08-.1-.28-.21-.31-.1-.02-.21.02-.18.15.04.16-.27.25-.2.39.12.25.53.23.69.43.17.21-.14.5-.31.29-.13-.16-.34-.42-.52-.32-.13.08-.19.32-.1.45.03.04.11.02.16.04.11.04.17.16.14.27-.04.11-.32.2-.35.23-.11.09-.09.25-.01.32.38.36.63-.32 1.15-.37.48-.05.52-.03.67.09.21.17.3.33.03.37-.25.03-.41-.06-.67-.03-.3.03-.26.1-.53.22-.21.09-.49 0-.64.16-.13.15-.1.46.05.59.19.17.32.07.54-.05.28-.15.33-.18.64-.1.28.08.25.28-.02.28-.34 0-.14.09-.44.23-.18.09-.5-.1-.57.16-.04.17-.11.42.06.48.08.03.14-.1.2-.15.21-.17.5.14.29.31-.11.09-.3.11-.34.24-.04.11.03.22.14.25.08.02.15-.03.22-.09.22-.18.17-.2.2-.23.17-.2.16-.13.39-.27.24-.14.33.24.09.38-.23.13-.17.14-.37.33-.12.12-.25.02-.32.31-.02.09.1.15.15.22.06.09.15.14.26.16.34.06.36-.22.56-.48.27-.34.19-.27.63-.37.27-.06.32.27.05.33-.45.11-.29.24-.57.57-.17.2-.38.13-.44.4-.04.21.23.47.43.42.18-.05.06-.16.13-.26.16-.22.49-.01.36.23-.04.08-.09.15-.06.23.03.09.45.04.48.02.1-.06.16-.16.13-.31-.07-.29-.01-.13-.07-.42-.05-.27.31-.51.36-.24.04.19.05.07.07.26.02.18.4.11.09.54-.05.07-.06.17-.01.23.11.12.34-.02.46-.12.37-.35-.34-.82.12-1.01.18-.07.11.16.25.39.2.35.22.37.21.78 0 .24-.36.39-.48.72-.08.23-.08.83.18.85.43.04.93-.01 1.44-.06.47-.04.95-.08 1.4-.04.29.03.69.1 1.06.12.53.02 1.01-.1 1.03-.68 0-.29-.17-.51-.16-.73 0-.16.13-.39.18-.6.1-.46.25-.93.19-1.56.3-.32.81-.63.69-1.33-.07-.43-.14-.72-.63-.76-.26-.71.04-1.29.23-1.82.1-.29.36-.45.28-.83-.04-.18-.13-.28-.12-.5.03-.45.43-.9.61-1.27.12-.23.34-.46.47-.68.15-.25.14-.5.24-.87.17-.61.91-.66 1.2-1.09.1-.16.13-.45.24-.68.17-.33.4-.72.73-.9.32.13.69-.11.81-.34.08-.14.04-.34.1-.49.06-.16.27-.28.28-.53 0-.15-.07-.42-.19-.49-.19-.11-.76 0-.89-.19-.12-.18-.15-.5-.12-.78.02-.2.15-.36.12-.55-.03-.19-.26-.36-.25-.59 0-.25.44-.48.49-.79.04-.27-.09-.52-.11-.78-.01-.2.21-.41.3-.59.24-.52.78-.84.86-1.49.04-.36-.11-.65-.07-.95.04-.29.31-.52.28-.88-.05-.54-1.18-.5-1.28.01-.06.28.05.51-.02.83-.19-.15-.44-.31-.65-.46-.21-.16-.09-.5-.25-.75-.3-.48-1.23-.14-1.27.31-.05.61.44.76.74 1.04-.03.51.71.75.77 1.09.02.11-.03.29-.05.4-.03.19-.2.26-.28.39-.22-.1-.18-.49-.36-.64-.14-.11-.42-.13-.58-.01-.02.04-.03.1-.05.15-.14-.04-.13-.21-.19-.34-.11-.23-.38-.32-.57-.53-.22-.24-.23-.73-.3-1.17-.03-.16-.09-.35-.07-.49.04-.24.36-.53.53-.7.43-.45 1.31-.81 1.47-1.51.05-.2 0-.37.08-.49.07-.11.33-.27.49-.4.25-.21.44-.31.72-.44.09-.04.2-.16.29-.18.29-.06.54 0 .77-.1.12-.06.2-.15.32-.18.32-.07.48-.06.68-.24.43-.38.5-1.07 1.15-1.2.18-.04.31.01.49 0 .6-.04.79-.65 1.25-.82.14-.21.32-.49.19-.83-.05-.13-.2-.18-.13-.38.06-.17.41-.31.5-.51.02-.05.03-.12.06-.18.17-.33.57-.37.69-.7.16-.53.08-1.29.22-1.9.17-.72.87-1.48.98-2.19.25-1.38-.01-2.58 0-3.74 0-7.44-5.71-13.53-13-14.15V0h-2.59v26.75h.11C5.79 27.34 0 33.43 0 40.9Zm2.58 0c0-6.41 5.27-11.83 11.65-11.83 6.45 0 11.76 5.42 11.76 11.83s-5.31 11.91-11.76 11.91c-6.38 0-11.65-5.49-11.65-11.91Z"/>
      <path class="d" d="M16.85 39.95c-1.47 0-3.5-1.95-5.53-1.95-1.88 0-3.43 1.29-4.79 4.24l2.58 1.7c1.03-1.36 1.88-2.06 2.83-2.02 1.15 0 3.03 1.98 5.21 1.98s3.69-1.62 5.09-4.31L19.7 37.9c-1.11 1.62-1.95 2.06-2.84 2.06Z"/>
    </g>
  </g>
</svg>
