 <svg xmlns="http://www.w3.org/2000/svg" viewBox="0 0 9.0438109 25.882952">
        <path fill="white" d="M4.52755 16.76224c-2.04752218 0-3.7323888-1.74342774-3.7323888-3.77930825S2.48002781
              9.22725961 4.52755 9.22725961c2.02388607 0 3.6974638 1.71979163 3.6974638 3.75567214S6.55143608 16.76224 4.52755
              16.76224m.38593888-8.27158037V.00000426h-.78351943v8.49065537C1.81363062 8.68962629 1e-7 10.61967347 1e-7 12.98293175c0
              2.3519694 1.81363052 4.31694157 4.12996935 4.51626101v8.3837637h.78351943v-8.3837637c2.29340828-.18661944 4.13032213-2.16429162
              4.13032213-4.51626101 0-2.3741944-1.83691385-4.3052999-4.13032213-4.49227212"/>
        <path fill="white" d="M3.732319 13.28735c-.2808111 0-.54998054.22260277-.87806387.65510832l-.8187972-.5379861c.4332111-.9362722.92427775-1.3458472 1.52153052-1.3458472.64311387 0 1.28658053.61983055 1.75471663.61983055.28045832 0 .54962776-.14005278.90064164-.65510832l.80750832.5379861c-.44485277.85442776-.90064165 1.3694833-1.61466385 1.3694833-.69073888 0-1.28693331-.64346665-1.67287219-.64346665"/></svg>