<?xml version="1.0" encoding="UTF-8" standalone="no"?>
<svg
   xmlns:dc="http://purl.org/dc/elements/1.1/"
   xmlns:cc="http://creativecommons.org/ns#"
   xmlns:rdf="http://www.w3.org/1999/02/22-rdf-syntax-ns#"
   xmlns:svg="http://www.w3.org/2000/svg"
   xmlns="http://www.w3.org/2000/svg"
   viewBox="0 0 413.20001 63.150002"
   height="63.150002"
   width="413.20001"
   xml:space="preserve"
   version="1.1"
   id="svg2"><metadata
     id="metadata8"><rdf:RDF><cc:Work
         rdf:about=""><dc:format>image/svg+xml</dc:format><dc:type
           rdf:resource="http://purl.org/dc/dcmitype/StillImage" /></cc:Work></rdf:RDF></metadata><defs
     id="defs6"><clipPath
       id="clipPath18"
       clipPathUnits="userSpaceOnUse"><path
         id="path20"
         d="m 0,0 3305.6,0 0,505 L 0,505 0,0 Z" /></clipPath></defs><g
     transform="matrix(1.25,0,0,-1.25,0,63.15)"
     id="g10"><g
       transform="scale(0.1,0.1)"
       id="g12"><g
         id="g14"><g
           clip-path="url(#clipPath18)"
           id="g16"><path
             id="path22"
             style="fill:#f46b18;fill-opacity:1;fill-rule:nonzero;stroke:none"
             d="m 3021.04,395.527 0,-141.992 c 0.54,-55.926 6.13,-92.449 19.37,-107.629 19.3,-22.144 75.92,-24.832 123.53,-24.832 45.25,0 125.36,8.992 134.17,11.16 1.51,-13.355 2.81,-21.699 5.29,-41.7379 -8.97,-2.1563 -83.16,-14.8594 -134.81,-16.9727 -79.98,-3.0273 -145.8,6.211 -174.05,39.9846 -21.8,26.023 -33.1,61.883 -33.1,144.351 0,39.114 0.72,109.559 0.72,137.668 l 58.88,0" /><path
             id="path24"
             style="fill:#f46b18;fill-opacity:1;fill-rule:nonzero;stroke:none"
             d="m 2803.84,4.98828 56,0 0,390.805 -56,0 0,-390.805 z" /><path
             id="path26"
             style="fill:#f46b18;fill-opacity:1;fill-rule:nonzero;stroke:none"
             d="m 3175.93,4.98828 53.25,0 0,299.668 -53.25,0 0,-299.668 z" /><path
             id="path28"
             style="fill:#0291bb;fill-opacity:1;fill-rule:nonzero;stroke:none"
             d="m 277.969,230.281 -0.449,18.016 c 0,41.383 -6.829,68.262 -20.391,80.641 -13.652,12.511 -42.969,18.718 -88.223,18.718 -45.429,0 -74.8318,-7.363 -88.3591,-21.902 C 67.1094,311.25 60.332,279.375 60.332,230.281 l 217.637,0 z M 309.094,15.7734 C 300.195,13.4844 223.516,0 171.973,0 101.309,0 55.0391,12.9414 33.1055,38.6914 11.0273,64.4258 0,118.523 0,200.969 c 0,76.281 11.0273,127.527 33.2422,153.597 22.2266,26.141 65.6445,39.164 130.3438,39.164 70.594,0 116.812,-11.265 138.785,-34 21.977,-22.707 32.844,-70.472 32.844,-143.39 l 0,-30.031 -275.6838,0 c 0,-60.286 6.4454,-98.7113 19.3829,-115.3246 12.9804,-16.4336 43.2539,-24.7852 90.7929,-24.7852 45.195,0 125.332,8.9297 134.238,11.1953 1.438,-13.3633 2.649,-21.6718 5.149,-41.6211" /><path
             id="path30"
             style="fill:#0291bb;fill-opacity:1;fill-rule:nonzero;stroke:none"
             d="m 844.297,230.281 -0.359,18.016 c 0,41.383 -6.829,68.262 -20.461,80.641 -13.672,12.511 -42.969,18.718 -88.145,18.718 -45.43,0 -74.91,-7.363 -88.398,-21.902 -13.477,-14.504 -20.215,-46.379 -20.215,-95.473 l 217.578,0 z M 875.527,15.7734 C 866.562,13.4844 789.91,0 738.262,0 667.773,0 621.465,12.9414 599.395,38.6914 577.402,64.4258 566.328,118.523 566.328,200.969 c 0,76.281 11.152,127.527 33.242,153.597 22.285,26.141 65.723,39.164 130.45,39.164 70.617,0 116.757,-11.265 138.679,-34 21.992,-22.707 32.981,-70.472 32.981,-143.39 l 0,-30.031 -275.774,0 c 0,-60.286 6.504,-98.7113 19.465,-115.3246 12.922,-16.4336 43.145,-24.7852 90.691,-24.7852 45.215,0 125.325,8.9297 134.211,11.1953 1.485,-13.3633 2.715,-21.6718 5.254,-41.6211" /><path
             id="path32"
             style="fill:#0291bb;fill-opacity:1;fill-rule:nonzero;stroke:none"
             d="m 1928.65,230.281 -0.44,18.016 c 0,41.383 -6.76,68.262 -20.4,80.641 -13.65,12.511 -43.01,18.718 -88.2,18.718 -45.47,0 -74.94,-7.363 -88.42,-21.902 C 1717.71,311.25 1711,279.375 1711,230.281 l 217.65,0 z M 1959.8,15.7734 C 1950.87,13.4844 1874.32,0 1822.54,0 c -70.46,0 -116.82,12.9414 -138.85,38.6914 -21.97,25.7344 -32.97,79.8316 -32.97,162.2776 0,76.281 11.08,127.527 33.23,153.597 22.12,26.141 65.62,39.164 130.42,39.164 70.49,0 116.74,-11.265 138.7,-34 21.89,-22.707 32.89,-70.472 32.89,-143.39 l 0,-30.031 -275.74,0 c 0,-60.286 6.48,-98.7113 19.47,-115.3246 12.9,-16.4336 43.15,-24.7852 90.78,-24.7852 45.08,0 125.19,8.9297 134.16,11.1953 1.52,-13.3633 2.61,-21.6718 5.17,-41.6211" /><path
             id="path34"
             style="fill:#0291bb;fill-opacity:1;fill-rule:nonzero;stroke:none"
             d="m 423.672,5.38281 56.0234,0 0,494.199 -56.0234,0 0,-494.199 z" /><path
             id="path36"
             style="fill:#0291bb;fill-opacity:1;fill-rule:nonzero;stroke:none"
             d="m 990.684,388.496 49.706,0 5.18,-57.769 1.17,-1.086 c 21.64,42.8 63.3,64.089 124.96,64.089 64.89,0 104.29,-21.289 118.24,-64.089 l 1.57,0 c 24.07,42.8 68.16,64.089 132.09,64.089 90.58,0 135.81,-45.918 135.81,-137.875 l 0,-250.47219 -56.1,0 0,255.73019 c 0,33.559 -5.98,56.446 -18.1,68.528 -12,11.953 -34.76,18.015 -68.31,18.015 -44.52,0 -74.63,-8.418 -90.47,-25.035 -15.82,-16.73 -23.72,-48.566 -23.72,-95.68 l 0,-221.55819 -56.03,0 0,250.47219 -0.78,17.668 c 0,49.348 -28.2,74.133 -84.53,74.133 -76.41,0 -114.63,-41.59 -114.63,-124.621 l 0,-217.65219 -56.056,0 0,383.11319" /><path
             id="path38"
             style="fill:#0291bb;fill-opacity:1;fill-rule:nonzero;stroke:none"
             d="m 2080.73,388.496 46.59,0 5.86,-52.055 1.64,-1.23 c 17.07,39.027 59.55,58.519 127.46,58.519 54.76,0 91.82,-9.492 111.23,-28.707 19.35,-19.23 29.05,-55.957 29.05,-110.414 l 0,-249.22619 -56.02,0 0,258.92919 c 0,32.836 -6.32,54.868 -18.83,66.254 -12.59,11.399 -36.81,17.09 -72.64,17.09 -78.82,0 -118.31,-37.285 -118.31,-111.863 l 0,-230.41019 -56.03,0 0,383.11319" /><path
             id="path40"
             style="fill:#0291bb;fill-opacity:1;fill-rule:nonzero;stroke:none"
             d="m 2640.24,388.496 -5.22,-46.18 -75.03,0 0,-235.011 c 0,-40.6956 18.14,-59.6097 54.27,-61.1058 16.19,-0.5859 39.66,0.1406 53.14,1.6992 l 6.28,-39.39059 C 2652.31,2.37109 2627.04,0 2614.8,0 2540.92,0 2504.01,31.3594 2504.01,93.7383 l 0,248.5777 -53.07,0 0,46.18 53.07,0 0,116.676 55.98,0 0,-116.676 80.25,0" /><path
             id="path42"
             style="fill:#f46b18;fill-opacity:1;fill-rule:nonzero;stroke:none"
             d="m 3260.13,30.6914 -9.5,0 0,3.207 22.81,0 0,-3.207 -9.5,0 0,-25.33202 -3.81,0 0,25.33202" /><path
             id="path44"
             style="fill:none;stroke:#f46b18;stroke-width:0.94999999;stroke-linecap:butt;stroke-linejoin:miter;stroke-miterlimit:4;stroke-dasharray:none;stroke-opacity:1"
             d="m 3260.13,30.6914 -9.5,0 0,3.207 22.81,0 0,-3.207 -9.5,0 0,-25.33202 -3.81,0 0,25.33202 z" /><path
             id="path46"
             style="fill:#f46b18;fill-opacity:1;fill-rule:nonzero;stroke:none"
             d="m 3276.72,33.8984 5.16,0 9.01,-23.98824 9.03,23.98824 5.2,0 0,-28.53902 -3.6,0 0,23.73442 -0.08,0 -8.92,-23.73442 -3.22,0 -8.92,23.73442 -0.09,0 0,-23.73442 -3.57,0 0,28.53902" /><path
             id="path48"
             style="fill:none;stroke:#f46b18;stroke-width:0.94999999;stroke-linecap:butt;stroke-linejoin:miter;stroke-miterlimit:4;stroke-dasharray:none;stroke-opacity:1"
             d="m 3276.72,33.8984 5.16,0 9.01,-23.98824 9.03,23.98824 5.2,0 0,-28.53902 -3.6,0 0,23.73442 -0.08,0 -8.92,-23.73442 -3.22,0 -8.92,23.73442 -0.09,0 0,-23.73442 -3.57,0 0,28.53902 z" /></g></g></g></g></svg>