<?xml version="1.0" encoding="utf-8"?>
<!-- Generator: Adobe Illustrator 19.2.1, SVG Export Plug-In . SVG Version: 6.00 Build 0)  -->
<svg version="1.1" id="Layer_1" xmlns="http://www.w3.org/2000/svg" xmlns:xlink="http://www.w3.org/1999/xlink" x="0px" y="0px"
	 viewBox="0 0 1584 612" enable-background="new 0 0 1584 612" xml:space="preserve">
<g>
	<g>
		<path fill="#10224F" d="M518.3,203.4c0-1.5,1-2.5,2.5-2.5H538c1.5,0,2.5,1,2.5,2.5v69.5c0,1,0.5,1.5,1.5,1.5h73.5
			c1,0,1.5-0.5,1.5-1.5v-69.5c0-1.5,1-2.5,2.5-2.5h17.2c1.5,0,2.5,1,2.5,2.5v164.4c0,1.5-1,2.5-2.5,2.5h-17.2c-1.5,0-2.5-1-2.5-2.5
			v-71.2c0-1-0.5-1.5-1.5-1.5h-73.5c-1,0-1.5,0.5-1.5,1.5v71.2c0,1.5-1,2.5-2.5,2.5h-17.2c-1.5,0-2.5-1-2.5-2.5V203.4z"/>
		<path fill="#10224F" d="M666,340.9c-2.7-8.2-4-16.4-4-30.4c0-13.7,1.2-21.9,4-30.1c6.5-20.4,23.9-32.1,47.1-32.1
			c23.2,0,40.6,11.7,47.1,32.1c2.7,8.2,4,16.4,4,30.1c0,13.9-1.2,22.2-4,30.4c-6.5,20.2-23.9,32.1-47.1,32.1
			C689.9,373.1,672.5,361.1,666,340.9z M740,335c2-6.5,2.7-13,2.7-24.4c0-11.5-0.7-17.7-2.7-24.2c-4-12-13.7-18.7-26.9-18.7
			s-22.9,6.7-26.9,18.7c-2,6.5-2.7,12.7-2.7,24.2c0,11.5,0.7,17.9,2.7,24.4c4,12,13.7,18.7,26.9,18.7S736,346.9,740,335z"/>
		<path fill="#10224F" d="M819.5,371.6c-20.9,0-29.1-10-29.1-31.4V204.3c0-1.2,0.7-2.3,1.8-2.7l17-4.7c1-0.4,2.1,0.3,2.1,1.4v140.7
			c0,10,3.7,13.2,12,13.2h4.7c1.4,0,2.5,1.1,2.5,2.5v14.4c0,1.4-1.1,2.5-2.5,2.5H819.5z"/>
		<path fill="#10224F" d="M849.6,340.9c-2.7-8.2-4-16.4-4-30.4c0-13.7,1.2-21.9,4-30.1c6.5-20.4,23.9-32.1,47.1-32.1
			c23.2,0,40.6,11.7,47.1,32.1c2.7,8.2,4,16.4,4,30.1c0,13.9-1.2,22.2-4,30.4c-6.5,20.2-23.9,32.1-47.1,32.1
			C873.5,373.1,856.1,361.1,849.6,340.9z M923.6,335c2-6.5,2.7-13,2.7-24.4c0-11.5-0.7-17.7-2.7-24.2c-4-12-13.7-18.7-26.9-18.7
			s-22.9,6.7-26.9,18.7c-2,6.5-2.7,12.7-2.7,24.2c0,11.5,0.7,17.9,2.7,24.4c4,12,13.7,18.7,26.9,18.7S919.6,346.9,923.6,335z"/>
		<path fill="#10224F" d="M974.1,400.2c-1-1.2-1-2.2,0.2-3.5l10.2-10.2c1.2-1.2,2.5-1.2,3.7,0c8.2,7.5,16.7,12,28.1,12
			c19.7,0,30.1-10.2,30.1-32.1v-13.9h-0.2c-5.5,10-15.7,16.4-33.1,16.4c-20.2,0-34.1-10.2-40.1-28.9c-3-9-4-17.7-4-31.4
			s1-22.4,4-31.4c6-18.7,19.9-28.9,40.1-28.9c17.4,0,27.6,6.5,33.1,16.4h0.2v-11.2c0-1.5,1-2.5,2.5-2.5h15.9c1.5,0,2.5,1,2.5,2.5
			v111.6c0,33.9-18.4,52.8-52.1,52.8C998.8,417.9,982.1,410.7,974.1,400.2z M1043.8,331.7c2-6,2.7-13,2.7-23.2
			c0-10.2-0.7-16.9-2.7-23.2c-4.2-12.2-13-17.7-25.4-17.7c-13,0-21.2,6.2-25.2,17.7c-2,6.2-3,13.4-3,23.2s1,17.2,3,23.2
			c4,11.7,12.2,17.9,25.2,17.9C1030.9,349.6,1039.6,343.9,1043.8,331.7z"/>
		<path fill="#10224F" d="M1102.4,370.3c-1.5,0-2.5-1-2.5-2.5V253.5c0-1.5,1-2.5,2.5-2.5h15.9c1.5,0,2.5,1,2.5,2.5v12.2h0.2
			c5.2-10.2,15.7-17.4,31.6-17.4c9.5,0,18.4,3.5,24.4,9c1.2,1.2,1.5,2.2,0.5,3.5l-9.2,12.2c-1,1.2-2.2,1.5-3.5,0.5
			c-5.5-3.5-11.5-5.7-18.4-5.7c-18.2,0-25.7,14.2-25.7,34.9v65.3c0,1.5-1,2.5-2.5,2.5H1102.4z"/>
		<path fill="#10224F" d="M1265,370.3c-1.5,0-2.5-1-2.5-2.5v-10.5h-0.2c-5.5,9-17.2,15.7-35.4,15.7c-22.7,0-40.1-11.7-40.1-35.9
			c0-25.2,17.4-36.9,46.6-36.9h27.1c1,0,1.5-0.5,1.5-1.5v-8.7c0-16.4-6.5-23.4-28.6-23.4c-13.4,0-21.9,3.5-28.9,8.5
			c-1.2,1-2.7,1-3.5-0.2l-6.7-11.5c-0.7-1.5-0.5-2.5,0.5-3.5c9-7,22.9-11.7,40.6-11.7c33.9,0,46.8,11.2,46.8,40.6v79
			c0,1.5-1,2.5-2.5,2.5H1265z M1262,331.7v-13.2c0-1-0.5-1.5-1.5-1.5h-23.9c-20.7,0-29.6,6-29.6,19.4c0,12.2,9,18.7,24.9,18.7
			C1250.6,355.1,1262,346.4,1262,331.7z"/>
		<path fill="#10224F" d="M1466.4,370.3c-1.5,0-2.5-1-2.5-2.5v-69.7c0-19.2-8.7-30.4-26.7-30.4c-15.9,0-27.4,11.5-27.4,29.1v71
			c0,1.5-1,2.5-2.5,2.5h-15.9c-1.5,0-2.5-1-2.5-2.5v-69.7c0-19.2-8.7-30.4-26.6-30.4c-16.2,0-27.4,11.5-27.4,29.1v71
			c0,1.5-1,2.5-2.5,2.5h-15.9c-1.5,0-2.5-1-2.5-2.5V253.5c0-1.5,1-2.5,2.5-2.5h15.9c1.5,0,2.5,1,2.5,2.5v11h0.2
			c5.7-9.2,17.2-16.2,33.4-16.2c16.2,0,28.1,6.7,34.9,18.7h0.2c8.2-11.5,20.4-18.7,38.6-18.7c27.6,0,42.6,17.7,42.6,44.8v74.7
			c0,1.5-1,2.5-2.5,2.5H1466.4z"/>
	</g>
	
		<linearGradient id="SVGID_1_" gradientUnits="userSpaceOnUse" x1="-1141.6483" y1="531.2208" x2="-1141.6483" y2="83.4095" gradientTransform="matrix(-1 0 0 1 -907.5942 0)">
		<stop  offset="0" style="stop-color:#BC24FF"/>
		<stop  offset="0.5237" style="stop-color:#04A7FF"/>
		<stop  offset="1" style="stop-color:#00D5C2"/>
	</linearGradient>
	<path fill="url(#SVGID_1_)" d="M101.2,450.9C101.2,450.9,101.2,450.9,101.2,450.9c0,3.1,1.6,5.9,4.2,7.4l124.4,71.8
		c1.3,0.8,2.8,1.1,4.2,1.1c1.5,0,2.9-0.4,4.2-1.1c2.6-1.5,4.2-4.3,4.2-7.4l0-128.9l111.6,64.4c1.3,0.8,2.8,1.1,4.2,1.1
		c1.5,0,2.9-0.4,4.2-1.1c2.6-1.5,4.2-4.3,4.2-7.4V163.8c0,0,0,0,0-0.1c0-3-1.6-5.8-4.2-7.4L238.3,84.5c-2.6-1.5-5.9-1.5-8.5,0
		c-2.6,1.5-4.2,4.3-4.2,7.4v128.9l-111.6-64.4c-2.6-1.5-5.9-1.5-8.5,0c-2.6,1.5-4.2,4.3-4.2,7.4L101.2,450.9z M126.7,307.3
		l98.9-57.1l0,114.2L126.7,307.3z M341.4,307.3l-98.9,57.1V250.2L341.4,307.3z M349.9,178.4v114.2l-98.9-57.1L349.9,178.4z
		 M118.2,436.2l0-114.2l98.9,57.1L118.2,436.2z M118.2,178.4l98.9,57.1l-98.9,57.1L118.2,178.4z M242.6,106.6l98.9,57.1l-98.9,57.1
		V106.6z M349.9,436.2l-98.9-57.1l98.9-57.1V436.2z M225.6,508l-98.9-57.1l98.9-57.1L225.6,508z"/>
</g>
</svg>
