<?xml version="1.0" encoding="UTF-8" standalone="no"?>
<!-- Created with Inkscape (http://www.inkscape.org/) -->

<svg
   xmlns:dc="http://purl.org/dc/elements/1.1/"
   xmlns:cc="http://creativecommons.org/ns#"
   xmlns:rdf="http://www.w3.org/1999/02/22-rdf-syntax-ns#"
   xmlns:svg="http://www.w3.org/2000/svg"
   xmlns="http://www.w3.org/2000/svg"
   xmlns:sodipodi="http://sodipodi.sourceforge.net/DTD/sodipodi-0.dtd"
   xmlns:inkscape="http://www.inkscape.org/namespaces/inkscape"
   width="865.49414mm"
   height="148.64648mm"
   id="svg2"
   version="1.1"
   inkscape:version="0.92.1 r15371"
   sodipodi:docname="MSRaynsford EMFCamp.svg"
   viewBox="0 0 865.49414 148.64648">
  <sodipodi:namedview
     id="base"
     pagecolor="#ffffff"
     bordercolor="#666666"
     borderopacity="1.0"
     inkscape:pageopacity="0"
     inkscape:pageshadow="2"
     inkscape:zoom="0.43531972"
     inkscape:cx="1635.5795"
     inkscape:cy="280.90673"
     inkscape:document-units="mm"
     inkscape:current-layer="layer1"
     showgrid="false"
     units="mm"
     inkscape:window-width="1920"
     inkscape:window-height="1017"
     inkscape:window-x="-8"
     inkscape:window-y="-8"
     inkscape:window-maximized="1"
     height="300mm" />
  <defs
     id="defs4" />
  <metadata
     id="metadata7">
    <rdf:RDF>
      <cc:Work
         rdf:about="">
        <dc:format>image/svg+xml</dc:format>
        <dc:type
           rdf:resource="http://purl.org/dc/dcmitype/StillImage" />
        <dc:title></dc:title>
      </cc:Work>
    </rdf:RDF>
  </metadata>
  <g
     inkscape:label="Layer 1"
     inkscape:groupmode="layer"
     id="layer1"
     transform="translate(-28.394531,941.46875)">
    <g
       id="g4723">
      <path
         id="path4641"
         d="m 57.072266,-941.46875 c -15.670912,0 -28.677735,13.00487 -28.677735,28.67578 V -821.5 c 0,15.67091 13.006823,28.67773 28.677735,28.67773 H 865.21094 c 15.67091,0 28.67773,-13.00682 28.67773,-28.67773 v -91.29297 c 0,-15.67091 -13.00682,-28.67578 -28.67773,-28.67578 z"
         style="color:#000000;font-style:normal;font-variant:normal;font-weight:normal;font-stretch:normal;font-size:medium;line-height:normal;font-family:sans-serif;font-variant-ligatures:normal;font-variant-position:normal;font-variant-caps:normal;font-variant-numeric:normal;font-variant-alternates:normal;font-feature-settings:normal;text-indent:0;text-align:start;text-decoration:none;text-decoration-line:none;text-decoration-style:solid;text-decoration-color:#000000;letter-spacing:normal;word-spacing:normal;text-transform:none;writing-mode:lr-tb;direction:ltr;text-orientation:mixed;dominant-baseline:auto;baseline-shift:baseline;text-anchor:start;white-space:normal;shape-padding:0;clip-rule:nonzero;display:inline;overflow:visible;visibility:visible;opacity:1;isolation:auto;mix-blend-mode:normal;color-interpolation:sRGB;color-interpolation-filters:linearRGB;solid-color:#000000;solid-opacity:1;vector-effect:none;fill:#ffffff;fill-opacity:1;fill-rule:nonzero;stroke:none;stroke-width:25;stroke-linecap:round;stroke-linejoin:miter;stroke-miterlimit:4.22222233;stroke-dasharray:none;stroke-dashoffset:0;stroke-opacity:1;color-rendering:auto;image-rendering:auto;shape-rendering:auto;text-rendering:auto;enable-background:accumulate"
         inkscape:connector-curvature="0" />
      <rect
         style="color:#000000;clip-rule:nonzero;display:inline;overflow:visible;visibility:visible;opacity:1;isolation:auto;mix-blend-mode:normal;color-interpolation:sRGB;color-interpolation-filters:linearRGB;solid-color:#000000;solid-opacity:1;fill:none;fill-opacity:1;fill-rule:nonzero;stroke:#ff6600;stroke-width:5;stroke-linecap:round;stroke-linejoin:miter;stroke-miterlimit:4.22222233;stroke-dasharray:none;stroke-dashoffset:0;stroke-opacity:1;color-rendering:auto;image-rendering:auto;shape-rendering:auto;text-rendering:auto;enable-background:accumulate"
         id="rect4498"
         width="840.49341"
         height="123.64697"
         x="40.89489"
         y="-928.96973"
         ry="16.177124" />
      <path
         id="path36788-5"
         style="color:#000000;font-style:normal;font-variant:normal;font-weight:normal;font-stretch:normal;font-size:medium;line-height:normal;font-family:sans-serif;text-indent:0;text-align:start;text-decoration:none;text-decoration-line:none;text-decoration-style:solid;text-decoration-color:#000000;letter-spacing:normal;word-spacing:normal;text-transform:none;writing-mode:lr-tb;direction:ltr;baseline-shift:baseline;text-anchor:start;white-space:normal;clip-rule:nonzero;display:inline;overflow:visible;visibility:visible;opacity:1;isolation:auto;mix-blend-mode:normal;color-interpolation:sRGB;color-interpolation-filters:linearRGB;solid-color:#000000;solid-opacity:1;fill:none;fill-opacity:1;fill-rule:nonzero;stroke:#ff6600;stroke-width:5;stroke-linecap:round;stroke-linejoin:miter;stroke-miterlimit:4;stroke-dasharray:none;stroke-dashoffset:0;stroke-opacity:1;color-rendering:auto;image-rendering:auto;shape-rendering:auto;text-rendering:auto;enable-background:accumulate"
         d="m 807.28602,-874.03859 c 0.51128,-1.58808 0.62471,-3.34198 0.53265,-5.16324 l -0.13152,-1.73095 c -0.0822,-0.78094 -0.18084,-1.57003 -0.29426,-2.3519 0,0 8.68122,-11.8978 3.54672,-16.77871 -4.51965,-4.29491 -14.88349,4.62701 -15.95077,6.21172 -6.1582,-2.73549 -16.72918,-6.1291 -26.84841,0.81368 0,-0.20869 -10.32423,-12.41644 -16.26329,-5.89944 -4.10783,4.50816 5.2772,14.53006 7.51596,15.05103 -0.43893,1.89141 -0.70198,3.73993 -0.71677,5.53134 l 0.0822,1.74633 c 0.19565,2.19587 0.82693,4.28851 2.02145,6.24912 l 0.95515,1.38092 c 1.10312,1.4154 2.53306,2.76288 4.3735,4.00593 0.19563,12.19564 -2.42143,20.01957 -4.46539,22.56595 -2.07044,2.57947 -12.45319,-1.37113 -13.01051,6.10184 -0.86474,11.59779 12.84331,7.66129 20.32443,7.73592 0.61156,5.49617 10.14373,3.60707 14.24201,3.45533 5.6724,-0.2088 12.05831,-1.21984 8.94921,-12.60677 8.40701,4.36634 16.30981,3.31565 24.18382,1.8188 2.72262,4.70485 -7.99337,-0.63785 -7.31375,8.74811 0.36661,5.06758 9.83531,6.26441 18.70724,6.10066 6.55671,-0.11512 12.86172,0.69212 14.84848,-8.94921 1.82548,-8.85587 -2.33134,-17.115 -7.1303,-25.01025 8.58884,-6.57433 20.41863,-14.76205 20.9493,-31.51653 0.26797,-8.45257 -9.58065,-27.30818 -18.22949,-27.47318 l -3e-4,0.049 c -1.06201,0 -2.11926,0.25309 -3.12392,0.84666 -4.98225,2.96387 2.9388,14.63433 5.80691,24.18362 2.21214,7.36576 -13.06016,21.22744 -15.7974,21.38696 -1.92066,0.11536 -16.14853,-3.13563 -24.20226,1.33978 1.57823,-0.85644 4.92112,-4.85201 5.65384,-6.09601 z m -57.01259,0.551 c 3.72412,-1.78198 7.99453,-3.71454 13.61811,-4.18133 m -11.44114,11.86578 c 3.43411,-2.29119 7.46238,-4.28653 12.96298,-5.54579 m 49.63126,-9.27506 c -4.10996,-0.38966 -10.18966,-0.23515 -15.62976,1.26416 m 15.68713,5.21078 c -4.01329,-0.9683 -9.64067,-0.84354 -14.85173,0.6188"
         inkscape:connector-curvature="0"
         sodipodi:nodetypes="ccccccccccccccccccccccccccccccccccccccccc" />
      <g
         style="stroke:#ff6600;stroke-width:1.88284826;stroke-linecap:round;stroke-linejoin:round;stroke-miterlimit:4;stroke-dasharray:none;stroke-opacity:1"
         inkscape:label="Hershey Text"
         transform="matrix(2.625092,0,0,2.6863637,34.564033,-858.72214)"
         id="g4561">
        <path
           inkscape:connector-curvature="0"
           d="m 12.1,7.5 v -20.3 h 1 l 6.5,17.7 6.5,-17.6 h 0.7 V 7.4"
           style="fill:none;stroke:#ff6600;stroke-width:1.88284826;stroke-linecap:round;stroke-linejoin:round;stroke-miterlimit:4;stroke-dasharray:none;stroke-opacity:1"
           id="path4527" />
        <path
           sodipodi:nodetypes="csssssssssssssssssssc"
           inkscape:connector-curvature="0"
           d="m 10.5,4.6 c 0,0 1.084471,0.9999841 1.7,1.4 0.49998,0.3249237 1.03599,0.6064839 1.6,0.8 0.64307,0.2206423 1.325054,0.3183257 2,0.4 0.761833,0.092188 1.543481,0.2287154 2.3,0.1 0.884812,-0.1505433 1.735655,-0.529541 2.5,-1 0.64358,-0.3961269 1.292421,-0.8636114 1.7,-1.5 0.375382,-0.5861166 0.518074,-1.3088179 0.6,-2 C 22.97073,2.2032521 22.97875,1.5737252 22.8,1 22.590841,0.32866044 22.189864,-0.29554209 21.7,-0.8 21.062352,-1.4566449 20.205091,-1.8645619 19.4,-2.3 18.087146,-3.0100647 16.612854,-3.3899353 15.3,-4.1 14.494909,-4.5354381 13.668093,-4.9743565 13,-5.6 c -0.48661,-0.4556919 -0.973451,-0.9730073 -1.2,-1.6 -0.226832,-0.627776 -0.204374,-1.3407113 -0.1,-2 0.11713,-0.7398593 0.320884,-1.524189 0.8,-2.1 0.574069,-0.689928 1.454199,-1.099706 2.3,-1.4 0.697465,-0.247629 1.460032,-0.284985 2.2,-0.3 0.703023,-0.01426 1.424081,0.0061 2.1,0.2 0.573178,0.164385 1.091092,0.489246 1.6,0.8 0.529179,0.323132 1.5,1.1 1.5,1.1"
           style="fill:none;stroke:#ff6600;stroke-width:1.88284826;stroke-linecap:round;stroke-linejoin:round;stroke-miterlimit:4;stroke-dasharray:none;stroke-opacity:1"
           transform="translate(23.2)"
           id="path4529" />
        <path
           sodipodi:nodetypes="ccsssssssscccc"
           inkscape:connector-curvature="0"
           d="m 12.1,7.4 v -20 h 6.7 c 0.558768,0 1.081771,0.291048 1.6,0.5 0.622151,0.250854 1.29969,0.453133 1.8,0.9 0.593018,0.529672 1.074014,1.2376664 1.3,2 0.161055,0.5432976 0.04433,1.1350696 0,1.7 -0.05015,0.6392149 -0.05882,1.3059083 -0.3,1.9 -0.260902,0.6426827 -0.691671,1.228076 -1.2,1.7 -0.427329,0.3967243 -0.96129,0.6768591 -1.5,0.9 -0.761851,0.3155688 -2.4,0.6 -2.4,0.6 h -5.9 5.7 l 5.8,9.8"
           style="fill:none;stroke:#ff6600;stroke-width:1.88284826;stroke-linecap:round;stroke-linejoin:round;stroke-miterlimit:4;stroke-dasharray:none;stroke-opacity:1"
           transform="translate(40.5)"
           id="path4531" />
        <path
           sodipodi:nodetypes="cssssssccccsssssssssssssc"
           inkscape:connector-curvature="0"
           d="m 11.7,-5.6 c 0,0 1.355871,-0.8897231 2.1,-1.2 0.574755,-0.2396537 1.188583,-0.3819037 1.8,-0.5 0.592737,-0.1144881 1.200378,-0.2699813 1.8,-0.2 0.492195,0.057444 0.975609,0.2441716 1.4,0.5 0.464721,0.2801402 0.873232,0.6667942 1.2,1.1 0.35908,0.4760432 0.649858,1.0229273 0.8,1.6 0.184841,0.7104384 0.1,2.2 0.1,2.2 V 4.6 7.3 L 20.8,4.6 c 0,0 -0.868884,0.5968221 -1.3,0.9 -0.469105,0.3298932 -0.901273,0.7168735 -1.4,1 C 17.593748,6.7873986 17.058036,7.0342162 16.5,7.2 15.916911,7.3732265 15.306413,7.5475799 14.7,7.5 14.174569,7.4587739 13.673454,7.2315585 13.2,7 12.768144,6.7887861 12.342903,6.53694 12,6.2 11.624068,5.8306051 11.257148,5.4030728 11.1,4.9 10.911161,4.2954748 10.96283,3.6183006 11.1,3 c 0.119503,-0.5386682 0.360592,-1.0649753 0.7,-1.5 0.422709,-0.54179263 0.994645,-0.97478073 1.6,-1.3 1.104521,-0.59338968 2.436923,-0.94488524 3.5,-1.2 0.591484,-0.1419428 1.196693,-0.2224108 1.8,-0.3 0.365171,-0.046963 0.7322,-0.083316 1.1,-0.1 0.299692,-0.013594 0.9,0 0.9,0"
           style="fill:none;stroke:#ff6600;stroke-width:1.88284826;stroke-linecap:round;stroke-linejoin:round;stroke-miterlimit:4;stroke-dasharray:none;stroke-opacity:1"
           transform="translate(58.9)"
           id="path4533" />
        <path
           sodipodi:nodetypes="cccssssc"
           inkscape:connector-curvature="0"
           d="M 9.7,-7.2 15.616706,7.7056477 M 20.9,-7.1 14.7,10.5 c -0.183329,0.520418 -0.394295,1.040665 -0.7,1.5 -0.274551,0.412525 -0.61485,0.788207 -1,1.1 -0.359926,0.291372 -0.752967,0.579145 -1.2,0.7 -0.675741,0.182686 -2.1,0 -2.1,0"
           style="fill:none;stroke:#ff6600;stroke-width:1.88284826;stroke-linecap:round;stroke-linejoin:round;stroke-miterlimit:4;stroke-dasharray:none;stroke-opacity:1"
           transform="translate(75.4)"
           id="path4535" />
        <path
           sodipodi:nodetypes="cccsssssssssc"
           inkscape:connector-curvature="0"
           d="m 12,7.5 v -14.8 3.6 c 0,0 0.924099,-0.9427543 1.4,-1.4 0.425252,-0.4085816 0.828013,-0.8464383 1.3,-1.2 0.31112,-0.2330572 0.642033,-0.4484384 1,-0.6 0.476521,-0.2017568 0.990901,-0.3072881 1.5,-0.4 0.329575,-0.060019 0.666088,-0.126927 1,-0.1 0.515798,0.041595 1.028414,0.1869642 1.5,0.4 0.328583,0.1484352 0.642169,0.3479621 0.9,0.6 0.290962,0.2844239 0.502146,0.6444588 0.7,1 0.246885,0.4436503 0.6,0.8922818 0.6,1.4 V 7.5"
           style="fill:none;stroke:#ff6600;stroke-width:1.88284826;stroke-linecap:round;stroke-linejoin:round;stroke-miterlimit:4;stroke-dasharray:none;stroke-opacity:1"
           transform="translate(90)"
           id="path4537" />
        <path
           sodipodi:nodetypes="cssssssssssssssssc"
           inkscape:connector-curvature="0"
           d="m 10.1,5.5 c 0,0 1.147491,0.893027 1.8,1.2 0.629806,0.2962923 1.318968,0.4563335 2,0.6 0.525909,0.1109428 1.065542,0.2569521 1.6,0.2 0.702344,-0.074842 1.382088,-0.3578393 2,-0.7 C 18.060166,6.4898155 18.64722,6.1343656 19,5.6 19.343086,5.0803176 19.483725,4.4225053 19.5,3.8 19.516064,3.1855737 19.41988,2.5248377 19.1,2 18.693525,1.3330831 17.970845,0.89995913 17.3,0.5 c -0.770912,-0.4596195 -1.671695,-0.65436161 -2.5,-1 -0.771519,-0.32194249 -1.608969,-0.5295061 -2.3,-1 -0.50656,-0.3448951 -1.010833,-0.759687 -1.3,-1.3 -0.240601,-0.4495676 -0.337095,-0.9914492 -0.3,-1.5 0.03605,-0.4942226 0.221225,-0.9903172 0.5,-1.4 0.398682,-0.5858963 0.956983,-1.1020893 1.6,-1.4 0.611667,-0.2833861 1.326073,-0.3163478 2,-0.3 0.679669,0.016487 1.364811,0.1576007 2,0.4 0.61423,0.234401 1.7,1 1.7,1"
           style="fill:none;stroke:#ff6600;stroke-width:1.88284826;stroke-linecap:round;stroke-linejoin:round;stroke-miterlimit:4;stroke-dasharray:none;stroke-opacity:1"
           transform="translate(107.7)"
           id="path4539" />
        <path
           sodipodi:nodetypes="cccccsssssc"
           inkscape:connector-curvature="0"
           d="M 12.3,7.4 V -7 h -2.4 6.2 -3.9 c 0,0 -0.144522,-2.9404711 0,-4.4 0.05025,-0.50742 0.104869,-1.028912 0.3,-1.5 0.229964,-0.555183 0.533361,-1.121372 1,-1.5 0.418176,-0.339306 0.964975,-0.53878 1.5,-0.6 0.435589,-0.04984 0.879308,0.07655 1.3,0.2 0.315012,0.09244 0.9,0.4 0.9,0.4"
           style="fill:none;stroke:#ff6600;stroke-width:1.88284826;stroke-linecap:round;stroke-linejoin:round;stroke-miterlimit:4;stroke-dasharray:none;stroke-opacity:1"
           transform="translate(121.3)"
           id="path4541" />
        <path
           sodipodi:nodetypes="ssssssssssssssssssssssss"
           inkscape:connector-curvature="0"
           d="m 19.2,6.9 c 0.700809,-0.3126601 1.37379,-0.7414376 1.9,-1.3 0.533115,-0.5658916 0.910218,-1.2785633 1.2,-2 0.280305,-0.6978429 0.398389,-1.454862 0.5,-2.2 0.09469,-0.69436684 0.138181,-1.4002476649 0.1,-2.1 -0.03493,-0.6402271 -0.126751,-1.2826703 -0.3,-1.9 -0.165588,-0.5900307 -0.393825,-1.1691402 -0.7,-1.7 -0.273142,-0.4735847 -0.623785,-0.9033251 -1,-1.3 -0.42296,-0.4459621 -0.865144,-0.8971694 -1.4,-1.2 -0.458636,-0.2596751 -0.983099,-0.3970856 -1.5,-0.5 -0.45885,-0.091356 -0.932905,-0.1266628 -1.4,-0.1 -0.541745,0.030924 -1.09271,0.1073827 -1.6,0.3 -0.545122,0.2069823 -1.053485,0.5250012 -1.5,0.9 -0.506668,0.4255173 -0.932507,0.949794 -1.3,1.5 -0.28979,0.4338706 -0.510854,0.9137429 -0.7,1.4 -0.263921,0.6784879 -0.499024,1.3790258 -0.6,2.1 -0.07397,0.52817828 -0.02795,1.06739978 0,1.6 0.03338,0.6359571 0.07631,1.2752944 0.2,1.9 0.114721,0.5794204 0.235249,1.1719888 0.5,1.7 0.298815,0.5959479 0.733921,1.1233295 1.2,1.6 0.414915,0.4243438 0.885921,0.803444 1.4,1.1 0.466466,0.2690899 0.975019,0.4800208 1.5,0.6 0.472304,0.1079404 0.967275,0.1412219 1.45,0.1 0.700814,-0.059846 1.407662,-0.2134262 2.05,-0.5 z"
           style="fill:none;stroke:#ff6600;stroke-width:1.88284826;stroke-linecap:round;stroke-linejoin:round;stroke-miterlimit:4;stroke-dasharray:none;stroke-opacity:1"
           transform="translate(130.5)"
           id="path4543" />
        <path
           sodipodi:nodetypes="cccssssc"
           inkscape:connector-curvature="0"
           d="M 12.1,7.4 V -7.3 m 0,4.5 c 0,0 0.6,-1.2 0.9,-1.8 0.339935,-0.6798693 0.805713,-1.3260797 1.4,-1.8 0.43139,-0.3440162 0.971158,-0.5426118 1.5,-0.7 0.45182,-0.1344658 0.928653,-0.192637 1.4,-0.2 0.301809,-0.00471 0.9,0.1 0.9,0.1"
           style="fill:none;stroke:#ff6600;stroke-width:1.88284826;stroke-linecap:round;stroke-linejoin:round;stroke-miterlimit:4;stroke-dasharray:none;stroke-opacity:1"
           transform="translate(148.3)"
           id="path4545" />
        <path
           sodipodi:nodetypes="cccssssssssssssssc"
           inkscape:connector-curvature="0"
           d="m 21.95,-14.7 v 22 m 0,-3 -1.45,1.4 C 19.947938,6.2330254 19.297952,6.6810133 18.6,7 18.004364,7.2722252 17.354472,7.4764368 16.7,7.5 16.157724,7.5195238 15.618571,7.3597762 15.1,7.2 14.543666,7.0285888 13.975796,6.8354203 13.5,6.5 12.863982,6.0516289 12.32816,5.4497961 11.9,4.8 11.440027,4.1019216 11.099301,3.3118916 10.9,2.5 10.676927,1.5912679 10.63562,0.63349385 10.7,-0.3 c 0.07737,-1.1218105 0.2589,-2.2656521 0.7,-3.3 0.395311,-0.9269762 0.941462,-1.8365424 1.7,-2.5 0.673241,-0.5888522 1.541467,-0.9491584 2.4,-1.2 0.611276,-0.1785993 1.26744,-0.2736431 1.9,-0.2 0.701582,0.081679 1.362214,0.3964912 2,0.7 0.459441,0.2186382 0.894494,0.4926672 1.3,0.8 0.469994,0.3562076 1.25,1.2 1.25,1.2"
           style="fill:none;stroke:#ff6600;stroke-width:1.88284826;stroke-linecap:round;stroke-linejoin:round;stroke-miterlimit:4;stroke-dasharray:none;stroke-opacity:1"
           transform="translate(159.1)"
           id="path4547" />
        <path
           sodipodi:nodetypes="sssss"
           inkscape:connector-curvature="0"
           d="m 11.1,7.3 c 0.377124,0.368522 1.222876,0.368522 1.6,0 0.385926,-0.3771236 0.385926,-1.2228764 0,-1.6 -0.377124,-0.368522 -1.222876,-0.368522 -1.6,0 -0.385926,0.3771236 -0.385926,1.2228764 0,1.6 z"
           style="fill:none;stroke:#ff6600;stroke-width:1.88284826;stroke-linecap:round;stroke-linejoin:round;stroke-miterlimit:4;stroke-dasharray:none;stroke-opacity:1"
           transform="translate(177.1)"
           id="path4549" />
        <path
           sodipodi:nodetypes="csssssssssssssc"
           inkscape:connector-curvature="0"
           d="m 21.1,5.7 c 0,0 -0.992489,0.9254546 -1.6,1.2 C 18.755335,7.2365281 17.916678,7.3714587 17.1,7.4 16.360331,7.42585 15.593529,7.3584483 14.9,7.1 14.042317,6.7803786 13.239536,6.2548064 12.6,5.6 12.024766,5.0110314 11.602194,4.2658044 11.3,3.5 10.988055,2.7094859 10.883741,1.8457007 10.8,1 c -0.0854,-0.86244888 -0.138825,-1.7445242 0,-2.6 0.135078,-0.8323852 0.387728,-1.6643757 0.8,-2.4 0.404796,-0.7222851 0.965578,-1.3679618 1.6,-1.9 0.560737,-0.4702445 1.208468,-0.8605444 1.9,-1.1 0.668182,-0.2313703 1.392941,-0.3082205 2.1,-0.3 0.608235,0.00707 1.22154,0.1118941 1.8,0.3 0.425292,0.1382982 0.849423,0.3223382 1.2,0.6 0.204085,0.1616385 0.5,0.6 0.5,0.6"
           style="fill:none;stroke:#ff6600;stroke-width:1.88284826;stroke-linecap:round;stroke-linejoin:round;stroke-miterlimit:4;stroke-dasharray:none;stroke-opacity:1"
           transform="translate(185)"
           id="path4551" />
        <path
           sodipodi:nodetypes="ssssssssssssssssssssssss"
           inkscape:connector-curvature="0"
           d="m 19.2,6.9 c 0.699907,-0.3146726 1.37379,-0.7414376 1.9,-1.3 0.533115,-0.5658916 0.910218,-1.2785633 1.2,-2 0.280305,-0.6978429 0.398389,-1.454862 0.5,-2.2 0.09469,-0.69436684 0.138181,-1.4002476649 0.1,-2.1 -0.03493,-0.6402271 -0.126751,-1.2826703 -0.3,-1.9 -0.165588,-0.5900307 -0.393825,-1.1691402 -0.7,-1.7 -0.273142,-0.4735847 -0.623785,-0.9033251 -1,-1.3 -0.42296,-0.4459621 -0.865144,-0.8971694 -1.4,-1.2 -0.458636,-0.2596751 -0.983099,-0.3970856 -1.5,-0.5 -0.45885,-0.091356 -0.932905,-0.1266628 -1.4,-0.1 -0.541745,0.030924 -1.09271,0.1073827 -1.6,0.3 -0.545122,0.2069823 -1.053485,0.5250012 -1.5,0.9 -0.506668,0.4255173 -0.932507,0.949794 -1.3,1.5 -0.28979,0.4338706 -0.510854,0.9137429 -0.7,1.4 -0.263921,0.6784879 -0.499024,1.3790258 -0.6,2.1 -0.07397,0.52817828 -0.02795,1.06739978 0,1.6 0.03338,0.6359571 0.07631,1.2752944 0.2,1.9 0.114721,0.5794204 0.235249,1.1719888 0.5,1.7 0.298815,0.5959479 0.733921,1.1233295 1.2,1.6 0.414915,0.4243438 0.885921,0.803444 1.4,1.1 0.466466,0.2690899 0.975166,0.4793775 1.5,0.6 0.455968,0.1047951 0.932442,0.083323 1.557239,0.049681 C 17.882036,7.316038 18.573246,7.1817834 19.2,6.9 Z"
           style="fill:none;stroke:#ff6600;stroke-width:1.88284826;stroke-linecap:round;stroke-linejoin:round;stroke-miterlimit:4;stroke-dasharray:none;stroke-opacity:1"
           transform="translate(200)"
           id="path4553" />
        <path
           sodipodi:nodetypes="sssss"
           inkscape:connector-curvature="0"
           d="m 11.1,7.3 c 0.377124,0.368522 1.222876,0.368522 1.6,0 0.385926,-0.3771236 0.385926,-1.2228764 0,-1.6 -0.377124,-0.368522 -1.222876,-0.368522 -1.6,0 -0.385926,0.3771236 -0.385926,1.2228764 0,1.6 z"
           style="fill:none;stroke:#ff6600;stroke-width:1.88284826;stroke-linecap:round;stroke-linejoin:round;stroke-miterlimit:4;stroke-dasharray:none;stroke-opacity:1"
           transform="translate(217.8)"
           id="path4555" />
        <path
           sodipodi:nodetypes="cccssssssscc"
           inkscape:connector-curvature="0"
           d="M 21.5,-7.1 V 7.4 3.6 c 0,0 -0.715641,0.8822792 -1.1,1.3 -0.41495,0.4509677 -0.810751,0.930959 -1.3,1.3 -0.547967,0.4133322 -1.153119,0.7705299 -1.8,1 C 16.757688,7.3923762 16.174756,7.5276886 15.6,7.5 14.978003,7.4700356 14.351528,7.2891272 13.8,7 13.338842,6.7582474 12.929422,6.4032272 12.6,6 12.288623,5.6188612 12.029832,5.1747271 11.9,4.7 11.679991,3.8955428 11.8,2.2 11.8,2.2 v -9.3"
           style="fill:none;stroke:#ff6600;stroke-width:1.88284826;stroke-linecap:round;stroke-linejoin:round;stroke-miterlimit:4;stroke-dasharray:none;stroke-opacity:1"
           transform="translate(225.7)"
           id="path4557" />
        <path
           inkscape:connector-curvature="0"
           d="M 11.9,7.5 V -14.8 M 20.7,-7.2 12,3.3 m 4.1,-5 5.7,9.2"
           style="fill:none;stroke:#ff6600;stroke-width:1.88284826;stroke-linecap:round;stroke-linejoin:round;stroke-miterlimit:4;stroke-dasharray:none;stroke-opacity:1"
           transform="translate(243.3)"
           id="path4559" />
      </g>
    </g>
  </g>
</svg>
