<?xml version="1.0" encoding="UTF-8" standalone="no"?>
<!-- Created with Inkscape (http://www.inkscape.org/) -->

<svg
   xmlns:dc="http://purl.org/dc/elements/1.1/"
   xmlns:cc="http://creativecommons.org/ns#"
   xmlns:rdf="http://www.w3.org/1999/02/22-rdf-syntax-ns#"
   xmlns:svg="http://www.w3.org/2000/svg"
   xmlns="http://www.w3.org/2000/svg"
   version="1.1"
   width="639.49719"
   height="215.45784"
   id="svg2985"
   xml:space="preserve"><metadata
     id="metadata2991"><rdf:RDF><cc:Work
         rdf:about=""><dc:format>image/svg+xml</dc:format><dc:type
           rdf:resource="http://purl.org/dc/dcmitype/StillImage" /><dc:title></dc:title></cc:Work></rdf:RDF></metadata><defs
     id="defs2989"><clipPath
       id="clipPath3001"><path
         d="M 0,0 792,0 792,612 0,612 0,0 z"
         id="path3003" /></clipPath><clipPath
       id="clipPath3011"><path
         d="M 0,612 792,612 792,0 0,0 0,612 z"
         id="path3013" /></clipPath><clipPath
       id="clipPath3017"><path
         d="M 0,0 792,0 792,612 0,612 0,0 z"
         id="path3019" /></clipPath></defs><g
     transform="matrix(1.25,0,0,-1.25,-177.63811,496.24064)"
     id="g2993"><g
       id="g2995" /><g
       id="g2997"><g
         clip-path="url(#clipPath3001)"
         id="g2999"><path
           d="m 348.2656,330.4968 9.062,0 0,9.059 3.651,0 0,-9.059 9.059,0 0,-3.202 -9.059,0 0,-9.058 -3.651,0 0,9.058 -9.062,0 0,3.202 z"
           id="path3005"
           style="fill:#33448c;fill-opacity:1;fill-rule:nonzero;stroke:none" /></g></g><g
       id="g3007"><g
         clip-path="url(#clipPath3011)"
         id="g3009"><g
           clip-path="url(#clipPath3017)"
           id="g3015"><path
             d="m 450.9901,317.4071 c 1.531,0 4.41,1.322 5.178,2.093 0.919,0.919 1.163,2.637 1.163,4.25 l 0.061,4.7 c 0,0.847 -0.306,1.001 -0.766,1.001 -0.461,0 -2.146,-0.192 -3.526,-0.65 -4.519,-1.539 -7.14,-3.742 -7.14,-7.402 0,-1.881 1.122,-3.992 5.03,-3.992 m 5.104,14.898 c 1.079,0.235 1.313,0.307 1.387,1.546 l 0.077,2.19 c 0.077,2.843 -1.02,5.521 -5.772,5.521 -2.144,0 -4.903,-0.932 -4.903,-2.644 0,-1.231 -0.597,-2.691 -1.082,-3.281 -1.478,-1.798 -3.494,-1.585 -4.25,-1.094 -0.579,0.376 -0.872,0.99 -0.872,1.682 0,4.084 6.035,8.625 13.673,8.625 5.517,0 8.638,-3.448 8.638,-8.335 l -0.342,-12.33 c -0.154,-3.537 0.684,-7.611 3.67,-7.611 0.768,0 1.456,0.23 1.917,0.462 0.383,0.232 0.765,0.537 0.996,0.537 0.305,0 0.537,-0.462 0.537,-0.999 0,-0.384 -2.682,-3.381 -6.436,-3.381 -1.84,0 -3.725,0.691 -5.028,2.382 -0.307,0.462 -0.764,1.077 -1.226,1.077 -0.536,0 -1.648,-0.994 -3.179,-1.841 -1.686,-0.92 -3.085,-1.673 -5.763,-1.673 -2.221,0 -4.213,0.594 -5.516,1.746 -1.455,1.305 -2.375,3.228 -2.375,5.38 0,2.992 1.339,6.808 5.553,8.855 4.145,2.014 10.296,3.186 10.296,3.186"
             id="path3021"
             style="fill:#33448c;fill-opacity:1;fill-rule:nonzero;stroke:none" /><path
             d="m 419.3414,335.8389 c 0,3.001 0,2.692 -2.081,4.079 l -0.692,0.463 c -0.31,0.307 -0.31,1.154 0.077,1.385 1.771,0.616 5.852,2.619 7.777,3.774 0.386,-0.076 0.617,-0.231 0.617,-0.54 l 0,-4.467 c 0,-0.384 0.076,-0.615 0.231,-0.692 2.697,2.232 5.407,4.426 8.236,4.426 1.91,0 3.437,-1.224 3.437,-3.058 0,-2.521 -1.984,-3.391 -3.206,-3.391 -0.765,0 -1.148,0.229 -1.682,0.534 -1.146,0.764 -2.241,1.219 -3.311,1.219 -1.223,0 -2.271,-0.807 -2.881,-1.647 -0.765,-1.071 -0.824,-2.943 -0.824,-5.559 l -0.048,-10.054 c 0,-5.545 0.153,-6.471 3.08,-6.7 l 2.805,-0.291 c 0.539,-0.386 0.401,-1.82 -0.137,-2.05 -3.622,0.154 -5.854,0.23 -8.549,0.23 -2.775,0 -5.083,-0.076 -7.087,-0.23 -0.538,0.23 -0.692,1.539 -0.152,1.925 l 1.515,0.381 c 2.85,0.463 2.927,1.155 2.927,6.7 l -0.052,13.563 z"
             id="path3023"
             style="fill:#33448c;fill-opacity:1;fill-rule:nonzero;stroke:none" /><path
             d="m 559.483,335.8389 c 0,3.001 0,2.692 -2.081,4.079 l -0.692,0.463 c -0.311,0.307 -0.311,1.154 0.077,1.385 1.771,0.616 5.852,2.619 7.776,3.774 0.386,-0.076 0.618,-0.231 0.618,-0.54 l 0,-4.467 c 0,-0.384 0.076,-0.615 0.23,-0.692 2.698,2.232 5.407,4.426 8.236,4.426 1.91,0 3.438,-1.224 3.438,-3.058 0,-2.521 -1.984,-3.391 -3.207,-3.391 -0.765,0 -1.148,0.229 -1.682,0.534 -1.146,0.764 -2.24,1.219 -3.311,1.219 -1.222,0 -2.27,-0.807 -2.88,-1.647 -0.766,-1.071 -0.824,-2.943 -0.824,-5.559 l -0.048,-10.054 c 0,-5.545 0.152,-6.471 3.079,-6.7 l 2.805,-0.291 c 0.539,-0.386 0.402,-1.82 -0.136,-2.05 -3.622,0.154 -5.854,0.23 -8.549,0.23 -2.775,0 -5.084,-0.076 -7.087,-0.23 -0.538,0.23 -0.692,1.539 -0.153,1.925 l 1.516,0.381 c 2.85,0.463 2.927,1.155 2.927,6.7 l -0.052,13.563 z"
             id="path3025"
             style="fill:#33448c;fill-opacity:1;fill-rule:nonzero;stroke:none" /><path
             d="m 483.325,335.6887 0,-13.732 c 0,-5.546 0.153,-6.099 2.925,-6.483 l 1.619,-0.231 c 0.538,-0.386 0.384,-1.912 -0.154,-2.142 -2.311,0.154 -4.546,0.23 -7.24,0.23 -2.773,0 -5.084,-0.076 -7.24,-0.23 -0.539,0.23 -0.695,1.756 -0.154,2.142 l 1.616,0.231 c 2.851,0.384 2.927,0.937 2.927,6.483 l 0,13.346"
             id="path3027"
             style="fill:#33448c;fill-opacity:1;fill-rule:nonzero;stroke:none" /><path
             d="m 477.6243,323.515 0,13.349 c 0,5.094 -0.265,5.277 -1.218,5.464 l -1.674,0.345 c -0.54,0.386 -0.4,2.413 0.187,2.413 2.24,0 2.783,0.037 5.556,0.037 2.694,0 2.806,0.004 5.349,-0.072 0.586,-0.018 0.614,-1.767 0.076,-2.153 l -1.925,-0.567 c -0.512,-0.15 -0.65,-0.58 -0.65,-5.467 l 0,-13.733"
             id="path3029"
             style="fill:#33448c;fill-opacity:1;fill-rule:nonzero;stroke:none" /><path
             d="m 497.1793,335.4343 c 0,3.128 0,3.388 -2.079,4.775 l -0.694,0.463 c -0.308,0.307 -0.308,1.154 0.077,1.385 1.771,0.616 6.161,2.619 7.703,3.774 0.307,0 0.691,-0.154 0.846,-0.54 -0.155,-1.77 -0.155,-2.882 -0.155,-3.574 0,-0.462 -0.025,-0.776 0.514,-0.776 3.234,2.003 6.62,3.764 10.854,3.764 7.038,0 9.273,-4.341 9.273,-9.503 l 0,-13.246 c 0,-5.545 0.154,-6.099 2.927,-6.483 l 1.693,-0.231 c 0.539,-0.386 0.386,-1.912 -0.154,-2.141 -2.311,0.154 -4.544,0.229 -7.239,0.229 -2.772,0 -5.083,-0.075 -7.163,-0.229 -0.538,0.229 -0.692,1.755 -0.152,2.141 l 1.462,0.231 c 2.85,0.463 2.927,0.938 2.927,6.483 l 0,11.476 c 0,5.049 -1.859,6.927 -6.466,6.927 -3.266,0 -6.437,-2.564 -7.515,-4.026 -1.001,-1.31 -0.961,-1.702 -0.961,-3.936 l 0,-10.441 c 0,-5.545 0.155,-6.02 2.928,-6.483 l 1.385,-0.231 c 0.539,-0.386 0.386,-1.912 -0.153,-2.141 -2.079,0.154 -4.313,0.229 -7.008,0.229 -2.774,0 -5.083,-0.075 -7.24,-0.229 -0.538,0.229 -0.694,1.755 -0.156,2.141 l 1.619,0.231 c 2.85,0.384 2.927,0.938 2.927,6.483 l 0,13.478 z"
             id="path3031"
             style="fill:#33448c;fill-opacity:1;fill-rule:nonzero;stroke:none" /><path
             d="m 541.6468,340.702 c -1.31,0 -1.389,-0.007 -1.389,-1.624 l 0,-14.285 c 0,-4.467 0.539,-8.55 5.623,-8.55 0.772,0 1.464,0.155 2.08,0.386 0.693,0.229 1.693,1.078 1.925,1.078 0.618,0 0.925,-0.849 0.771,-1.309 -1.389,-1.618 -4.16,-3.543 -8.088,-3.543 -6.622,0 -8.008,3.697 -8.008,8.317 l 0.037,17.646 c 0,2.08 -1.145,1.884 -2.684,1.884 l -2.55,0 c -0.46,0.309 -0.538,1.642 -0.23,2.102 2.235,0.694 5.5,1.632 6.269,2.326 1.002,0.924 2.545,2.921 3.317,4.463 0.383,0.152 1.308,0.152 1.617,-0.387 l 0,-3.466 c 0,-1.385 0.076,-1.463 1.385,-1.463 l 8.55,0 c 0.924,-0.692 0.77,-3.112 0.074,-3.575 l -8.699,0 z"
             id="path3033"
             style="fill:#33448c;fill-opacity:1;fill-rule:nonzero;stroke:none" /><path
             d="m 591.4501,335.9549 c 5.698,0 7.839,0.296 8.107,0.677 0.161,0.227 0.347,0.585 0.347,1.587 0,2.155 -1.525,4.563 -5.994,4.563 -4.294,0 -8.391,-3.899 -8.468,-6.44 0,-0.154 0,-0.387 0.54,-0.387 l 5.468,0 z m -4.972,-3.058 c -2.003,0 -2.079,-0.154 -2.079,-2.078 0,-7.78 4.677,-13.652 12.916,-13.652 2.544,0 4.701,0.771 7.084,3.775 0.772,0.23 1.31,-0.23 1.389,-0.924 -2.54,-5.238 -8.087,-7.163 -12.092,-7.163 -5.007,0 -8.933,2.156 -11.166,5.083 -2.312,3.004 -3.497,6.363 -3.497,9.752 0,9.471 5.141,17.666 15.741,17.666 6.623,0 10.976,-4.485 10.976,-9.105 0,-1.078 10e-4,-2.216 -0.48,-2.815 -0.385,-0.481 -1.31,-0.539 -4.545,-0.539 l -14.247,0 z"
             id="path3035"
             style="fill:#33448c;fill-opacity:1;fill-rule:nonzero;stroke:none" /><path
             d="m 622.2108,335.9549 c 5.698,0 7.839,0.296 8.107,0.677 0.161,0.227 0.347,0.585 0.347,1.587 0,2.155 -1.525,4.563 -5.994,4.563 -4.294,0 -8.391,-3.899 -8.468,-6.44 0,-0.154 0,-0.387 0.54,-0.387 l 5.468,0 z m -4.972,-3.058 c -2.003,0 -2.079,-0.154 -2.079,-2.078 0,-7.78 4.677,-13.652 12.916,-13.652 2.544,0 4.701,0.771 7.085,3.775 0.771,0.23 1.309,-0.23 1.388,-0.924 -2.54,-5.238 -8.087,-7.163 -12.092,-7.163 -5.007,0 -8.933,2.156 -11.166,5.083 -2.312,3.004 -3.497,6.363 -3.497,9.752 0,9.471 5.141,17.666 15.741,17.666 6.623,0 10.976,-4.485 10.976,-9.105 0,-1.078 10e-4,-2.216 -0.48,-2.815 -0.385,-0.481 -1.309,-0.539 -4.545,-0.539 l -14.247,0 z"
             id="path3037"
             style="fill:#33448c;fill-opacity:1;fill-rule:nonzero;stroke:none" /><path
             d="m 390.7491,323.0456 c 0,-5.267 0.577,-7.405 5.611,-7.405 3.99,0 7.521,2.603 7.521,7.751 0,5.96 -4.051,9.489 -10.473,9.489 -2.545,0 -2.659,-0.348 -2.659,-1.506 l 0,-8.329 z m 0,13.594 c 0,-1.502 0.172,-1.561 2.486,-1.561 5.437,0 7.926,2.14 7.926,7.347 0,5.093 -3.76,7.118 -7.348,7.118 -2.892,0 -3.064,-0.115 -3.064,-2.429 l 0,-10.475 z m -6.712,6.367 c 0,5.552 -0.059,6.248 -2.778,6.537 l -1.504,0.173 c -0.406,0.404 -0.406,1.331 0.057,1.62 2.604,0.231 6.827,0.522 13.192,0.522 4.862,0 8.736,-0.464 11.341,-1.968 2.66,-1.562 4.049,-3.876 4.049,-7.521 0,-3.412 -2.489,-6.017 -6.539,-7.349 -0.23,-0.057 -0.348,-0.231 -0.348,-0.346 0,-0.116 0.118,-0.232 0.463,-0.346 4.398,-0.696 9.317,-3.531 9.317,-10.069 0,-2.661 -0.868,-5.554 -3.53,-7.694 -2.719,-2.258 -6.537,-3.242 -13.132,-3.242 -2.546,0 -4.977,0.176 -7.176,0.176 -2.545,0 -5.264,-0.059 -7.811,-0.176 -0.461,0.233 -0.521,1.274 -0.114,1.678 l 1.273,0.174 c 2.718,0.346 3.24,0.522 3.24,6.655 l 0,21.176 z"
             id="path3039"
             style="fill:#33448c;fill-opacity:1;fill-rule:nonzero;stroke:none" /><path
             d="m 477.1477,366.596 c -1.618,1.619 -1.619,4.243 0,5.863 1.618,1.62 4.242,1.618 5.86,-10e-4 1.618,-1.617 1.618,-4.241 0,-5.862 -1.617,-1.617 -4.241,-1.617 -5.86,0"
             id="path3041"
             style="fill:#33448c;fill-opacity:1;fill-rule:nonzero;stroke:none" /><path
             d="m 477.1473,350.6937 c -1.618,1.617 -1.618,4.241 0,5.862 1.618,1.618 4.242,1.617 5.86,-0.002 1.618,-1.618 1.618,-4.243 0,-5.86 -1.617,-1.619 -4.241,-1.619 -5.86,0"
             id="path3043"
             style="fill:#33448c;fill-opacity:1;fill-rule:nonzero;stroke:none" /><path
             d="m 485.0975,364.5057 c 1.619,1.618 4.244,1.619 5.862,0 1.621,-1.618 1.619,-4.242 0,-5.859 -1.618,-1.619 -4.242,-1.619 -5.862,-0.001 -1.617,1.617 -1.617,4.241 0,5.86"
             id="path3045"
             style="fill:#33448c;fill-opacity:1;fill-rule:nonzero;stroke:none" /><path
             d="m 469.1951,364.5063 c 1.617,1.618 4.24,1.618 5.862,0 1.618,-1.619 1.617,-4.242 -0.002,-5.86 -1.619,-1.618 -4.243,-1.618 -5.86,0 -1.619,1.617 -1.621,4.241 0,5.86"
             id="path3047"
             style="fill:#33448c;fill-opacity:1;fill-rule:nonzero;stroke:none" /><path
             d="m 280.5643,339.6264 c -0.778,-5.109 -4.68,-5.109 -8.454,-5.109 l -2.147,0 1.506,9.539 c 0.091,0.576 0.588,1.001 1.172,1.001 l 0.984,0 c 2.569,0 4.996,0 6.247,-1.464 0.748,-0.875 0.975,-2.173 0.692,-3.967 m -1.642,13.329 -14.233,0 c -0.974,0 -1.802,-0.708 -1.954,-1.669 l -5.755,-36.496 c -0.114,-0.72 0.443,-1.371 1.172,-1.371 l 7.303,0 c 0.681,0 1.261,0.496 1.367,1.169 l 1.632,10.346 c 0.151,0.962 0.98,1.67 1.953,1.67 l 4.504,0 c 9.375,0 14.785,4.537 16.199,13.529 0.637,3.933 0.026,7.023 -1.815,9.186 -2.025,2.378 -5.612,3.636 -10.373,3.636"
             id="path3049"
             style="fill:#00a1de;fill-opacity:1;fill-rule:nonzero;stroke:none" /><path
             d="m 179.0505,339.6264 c -0.778,-5.109 -4.68,-5.109 -8.454,-5.109 l -2.147,0 1.506,9.539 c 0.091,0.576 0.588,1.001 1.172,1.001 l 0.984,0 c 2.569,0 4.996,0 6.247,-1.464 0.748,-0.875 0.975,-2.173 0.692,-3.967 m -1.642,13.329 -14.233,0 c -0.974,0 -1.802,-0.708 -1.954,-1.669 l -5.755,-36.496 c -0.114,-0.72 0.443,-1.371 1.172,-1.371 l 6.796,0 c 0.973,0 1.801,0.708 1.953,1.669 l 1.553,9.846 c 0.151,0.962 0.98,1.67 1.953,1.67 l 4.504,0 c 9.375,0 14.785,4.537 16.199,13.529 0.637,3.933 0.026,7.023 -1.815,9.186 -2.025,2.378 -5.612,3.636 -10.373,3.636"
             id="path3051"
             style="fill:#33448c;fill-opacity:1;fill-rule:nonzero;stroke:none" /><path
             d="m 210.4505,326.5245 c -0.658,-3.894 -3.75,-6.508 -7.692,-6.508 -1.977,0 -3.559,0.636 -4.577,1.839 -1.008,1.194 -1.388,2.894 -1.068,4.788 0.614,3.859 3.755,6.557 7.638,6.557 1.935,0 3.507,-0.641 4.544,-1.857 1.044,-1.223 1.454,-2.935 1.155,-4.819 m 9.498,13.265 -6.815,0 c -0.584,0 -1.081,-0.424 -1.172,-1.001 l -0.3,-1.906 -0.476,0.691 c -1.476,2.142 -4.766,2.858 -8.05,2.858 -7.529,0 -13.962,-5.706 -15.214,-13.709 -0.651,-3.992 0.274,-7.807 2.537,-10.47 2.08,-2.447 5.048,-3.465 8.584,-3.465 6.069,0 9.435,3.899 9.435,3.899 l -0.304,-1.895 c -0.114,-0.72 0.443,-1.372 1.172,-1.372 l 6.137,0 c 0.973,0 1.802,0.708 1.954,1.669 l 3.684,23.33 c 0.114,0.721 -0.443,1.371 -1.172,1.371"
             id="path3053"
             style="fill:#33448c;fill-opacity:1;fill-rule:nonzero;stroke:none" /><path
             d="m 311.9643,326.5245 c -0.658,-3.894 -3.75,-6.508 -7.692,-6.508 -1.977,0 -3.559,0.636 -4.577,1.839 -1.008,1.194 -1.388,2.894 -1.068,4.788 0.614,3.859 3.755,6.557 7.638,6.557 1.935,0 3.507,-0.641 4.543,-1.857 1.045,-1.223 1.455,-2.935 1.156,-4.819 m 9.498,13.265 -6.815,0 c -0.584,0 -1.081,-0.424 -1.172,-1.001 l -0.3,-1.906 -0.476,0.691 c -1.476,2.142 -4.766,2.858 -8.05,2.858 -7.53,0 -13.962,-5.706 -15.214,-13.709 -0.651,-3.992 0.274,-7.807 2.537,-10.47 2.08,-2.447 5.048,-3.465 8.584,-3.465 6.069,0 9.435,3.899 9.435,3.899 l -0.304,-1.895 c -0.114,-0.72 0.443,-1.372 1.172,-1.372 l 6.137,0 c 0.973,0 1.802,0.708 1.954,1.669 l 3.684,23.33 c 0.114,0.721 -0.443,1.371 -1.172,1.371"
             id="path3055"
             style="fill:#00a1de;fill-opacity:1;fill-rule:nonzero;stroke:none" /><path
             d="m 256.247,339.7898 -6.85,0 c -0.655,0 -1.268,-0.325 -1.636,-0.867 l -9.45,-13.917 -4.004,13.373 c -0.251,0.837 -1.021,1.411 -1.895,1.411 l -6.733,0 c -0.814,0 -1.386,-0.8 -1.124,-1.57 l 7.543,-22.14 -7.094,-10.01 c -0.557,-0.786 0.005,-1.873 0.968,-1.873 l 6.843,0 c 0.649,0 1.256,0.318 1.626,0.851 l 22.781,32.879 c 0.545,0.787 -0.018,1.863 -0.975,1.863"
             id="path3057"
             style="fill:#33448c;fill-opacity:1;fill-rule:nonzero;stroke:none" /><path
             d="m 329.4951,351.9532 -5.842,-37.163 c -0.113,-0.72 0.444,-1.371 1.172,-1.371 l 5.875,0 c 0.973,0 1.802,0.708 1.954,1.67 l 5.759,36.495 c 0.114,0.72 -0.443,1.371 -1.172,1.371 l -6.574,0 c -0.584,0 -1.081,-0.425 -1.172,-1.002"
             id="path3059"
             style="fill:#00a1de;fill-opacity:1;fill-rule:nonzero;stroke:none" /><path
             d="m 307.0835,255.8019 c 4.355,0 8.094,0.615 11.881,3.692 3.361,2.746 5.444,6.485 6.106,10.461 0.616,4.071 -0.331,8 -2.935,10.698 -2.84,2.887 -6.342,3.455 -10.555,3.455 l -2.888,0 -4.497,-28.306 2.888,0 z m -1.799,31.999 6.722,0 c 5.349,0 9.609,-0.711 13.254,-4.308 3.502,-3.503 4.591,-8.283 3.787,-13.585 -0.853,-5.207 -3.456,-9.798 -7.953,-13.301 -4.875,-3.787 -9.23,-4.497 -14.816,-4.497 l -6.627,0 5.633,35.691 z"
             id="path3061"
             style="fill:#9fa4a9;fill-opacity:1;fill-rule:nonzero;stroke:none" /><path
             d="m 347.8381,265.6475 c 0,3.219 -2.272,5.822 -5.586,5.822 -3.266,0 -6.721,-2.603 -7.715,-5.822 l 13.301,0 z m -13.964,-3.219 c -0.615,-4.118 1.799,-7.431 6.106,-7.431 3.219,0 5.586,1.94 7.479,4.591 l 2.935,-1.846 c -2.745,-3.976 -6.721,-6.248 -11.266,-6.248 -6.627,0 -10.082,5.065 -9.088,11.455 1.041,6.58 5.775,12.023 12.733,12.023 7.148,0 9.988,-5.917 8.568,-12.544 l -17.467,0 z"
             id="path3063"
             style="fill:#9fa4a9;fill-opacity:1;fill-rule:nonzero;stroke:none" /><path
             d="m 361.0441,259.3993 8.994,14.958 4.26,0 -14.627,-23.715 -7.195,23.715 4.308,0 4.26,-14.958 z"
             id="path3065"
             style="fill:#9fa4a9;fill-opacity:1;fill-rule:nonzero;stroke:none" /><path
             d="m 389.5866,265.6475 c 0,3.219 -2.272,5.822 -5.586,5.822 -3.266,0 -6.721,-2.603 -7.715,-5.822 l 13.301,0 z m -13.964,-3.219 c -0.615,-4.118 1.799,-7.431 6.107,-7.431 3.218,0 5.585,1.94 7.479,4.591 l 2.934,-1.846 c -2.745,-3.976 -6.721,-6.248 -11.265,-6.248 -6.628,0 -10.083,5.065 -9.089,11.455 1.041,6.58 5.775,12.023 12.733,12.023 7.148,0 9.988,-5.917 8.568,-12.544 l -17.467,0 z"
             id="path3067"
             style="fill:#9fa4a9;fill-opacity:1;fill-rule:nonzero;stroke:none" /><path
             d="m 406.2001,263.2335 c -0.71,-4.544 1.941,-8.236 6.627,-8.236 4.686,0 8.473,3.692 9.183,8.236 0.71,4.497 -1.893,8.236 -6.58,8.236 -4.686,0 -8.52,-3.739 -9.23,-8.236 m -3.787,-0.047 c 1.042,6.532 7.053,11.786 13.585,11.786 6.533,0 10.84,-5.254 9.799,-11.786 -1.042,-6.533 -7.053,-11.692 -13.538,-11.692 -6.485,0 -10.887,5.159 -9.846,11.692"
             id="path3069"
             style="fill:#9fa4a9;fill-opacity:1;fill-rule:nonzero;stroke:none" /><path
             d="m 432.0918,263.4702 c -0.71,-4.355 1.231,-8.473 5.964,-8.473 4.876,0 8.047,3.929 8.757,8.426 0.71,4.449 -1.515,8.047 -6.201,8.047 -4.402,0 -7.857,-3.834 -8.52,-8 m 1.42,7.715 0.095,0 c 2.225,2.462 5.207,3.787 8.283,3.787 6.533,0 9.751,-5.633 8.757,-11.786 -0.994,-6.343 -5.869,-11.692 -12.543,-11.692 -3.03,0 -5.633,1.326 -7.053,3.74 l -0.095,0 -2.461,-15.621 -3.787,0 5.491,34.744 3.786,0 -0.473,-3.172 z"
             id="path3071"
             style="fill:#9fa4a9;fill-opacity:1;fill-rule:nonzero;stroke:none" /><path
             d="m 471.2374,265.6475 c 0,3.219 -2.272,5.822 -5.585,5.822 -3.267,0 -6.722,-2.603 -7.716,-5.822 l 13.301,0 z m -13.964,-3.219 c -0.615,-4.118 1.799,-7.431 6.106,-7.431 3.219,0 5.586,1.94 7.479,4.591 l 2.935,-1.846 c -2.745,-3.976 -6.721,-6.248 -11.266,-6.248 -6.627,0 -10.082,5.065 -9.088,11.455 1.041,6.58 5.775,12.023 12.733,12.023 7.148,0 9.988,-5.917 8.568,-12.544 l -17.467,0 z"
             id="path3073"
             style="fill:#9fa4a9;fill-opacity:1;fill-rule:nonzero;stroke:none" /><path
             d="m 483.5911,271.9431 0.095,0 c 1.609,1.752 2.982,3.029 5.443,3.029 1.278,0 2.225,-0.425 3.219,-1.041 l -2.367,-3.455 c -0.662,0.52 -1.089,0.994 -2.083,0.994 -4.165,0 -5.206,-5.349 -5.679,-8.237 l -1.752,-11.123 -3.787,0 3.503,22.247 3.787,0 -0.379,-2.414 z"
             id="path3075"
             style="fill:#9fa4a9;fill-opacity:1;fill-rule:nonzero;stroke:none" /><path
             d="m 399.9246,287.871 -5.659,-35.704 3.788,0 5.659,35.704 -3.788,0 z"
             id="path3077"
             style="fill:#9fa4a9;fill-opacity:1;fill-rule:nonzero;stroke:none" /></g></g></g><rect
       width="512.51459"
       height="176.03363"
       rx="22.493315"
       ry="22.226501"
       x="141.19365"
       y="-401.57672"
       transform="scale(1,-1)"
       id="rect3081"
       style="fill:none" /></g></svg>