<?xml version="1.0" encoding="utf-8"?>
<!DOCTYPE svg PUBLIC "-//W3C//DTD SVG 1.1//EN" "http://www.w3.org/Graphics/SVG/1.1/DTD/svg11.dtd">
<svg xmlns="http://www.w3.org/2000/svg" xmlns:xlink="http://www.w3.org/1999/xlink" version="1.1" baseProfile="full" width="444.009" height="151.192" viewBox="0 0 444.01 151.19" enable-background="new 0 0 444.01 151.19" xml:space="preserve">
	<g>
		<path fill="#706CF5" fill-opacity="1" stroke-width="0.2" stroke-linejoin="round" d="M 87.8032,0.000106812C 125.234,0.000106812 150.668,25.4339 150.668,62.8646L 150.668,88.327L 150.619,91.1409C 149.375,127.027 124.288,151.192 87.8032,151.192L 62.8645,151.192C 25.4337,151.192 0,126.576 0,89.1453L 0,62.0463C 0,25.7333 23.9376,1.48149 59.5439,0.0655975L 62.8645,4.57764e-005L 87.8032,0.000106812 Z "/>
		<g>
			<path fill="#FFFFFF" fill-opacity="1" stroke-width="0.2" stroke-linejoin="round" d="M 97.1696,108.671C 90.9076,112.814 83.4003,115.227 75.3295,115.227C 59.7926,115.227 46.3439,106.286 39.8476,93.2693C 36.5665,91.54 33.5597,89.7348 30.8733,87.8879C 36.2532,107.388 54.119,121.708 75.3295,121.708C 87.9243,121.708 99.3398,116.659 107.662,108.474C 104.412,108.745 100.895,108.813 97.1696,108.671 Z "/>
			<path fill="#FFFFFF" fill-opacity="1" stroke-width="0.2" stroke-linejoin="round" d="M 36.5531,83.8217C 33.8868,82.1885 31.4668,80.5093 29.3271,78.8093C 21.3904,72.5034 17.3118,65.9112 18.8352,60.3146C 20.3542,54.7339 27.1769,51.1228 37.1685,49.7011C 45.465,37.4983 59.4612,29.4832 75.3295,29.4832C 99.7837,29.4832 119.792,48.5187 121.345,72.5806C 129.279,78.8854 133.355,85.4762 131.832,91.0717C 130.305,96.6817 123.419,100.301 113.342,101.707C 110.632,102.086 107.691,102.304 104.561,102.357C 94.3582,102.532 82.1512,100.959 69.4012,97.4889C 56.6162,94.0089 45.269,89.1607 36.5531,83.8217 Z M 109.676,95.3806C 112.999,89.6247 114.917,82.9557 114.96,75.8423L 114.961,75.5958C 114.961,53.7081 97.2171,35.9646 75.3294,35.9646C 60.7772,35.9646 48.0569,43.8078 41.1652,55.4976C 37.6961,61.3819 35.7039,68.2409 35.6982,75.5647C 43.9541,81.0899 56.4308,86.5381 70.8632,90.4664C 85.7603,94.5213 99.682,96.1243 109.676,95.3806 Z M 117.596,94.0615C 121.571,92.8948 124.133,91.0498 124.815,88.5435C 125.51,85.9931 124.178,83.0462 121.237,79.9679L 121.176,80.5791C 120.666,85.3261 119.435,89.8574 117.596,94.0615 Z M 33.4221,56.3296L 33.7561,55.6205C 29.0674,56.7743 26.0742,58.7238 25.3284,61.4639C 24.5905,64.1751 26.1415,67.3344 29.4818,70.6232C 30.0237,65.5695 31.382,60.7601 33.4221,56.3296 Z "/>
		</g>
	</g>
	<g>
		<path fill="#231F20" fill-opacity="1" stroke-width="0.2" stroke-linejoin="round" d="M 308.26,48.7861L 307.966,31.7581L 313.339,31.7581L 313.339,53.2328L 305.614,53.2328L 300.252,35.6115L 300.132,35.6115L 300.432,53.2328L 295.102,53.2328L 295.102,31.7581L 303.152,31.7581L 308.143,48.7861L 308.26,48.7861 Z "/>
		<path fill="#231F20" fill-opacity="1" stroke-width="0.2" stroke-linejoin="round" d="M 210.63,33.7608L 207.661,53.4555L 201.798,53.4555L 205.818,31.7595L 215.475,31.7595L 219.473,53.4555L 213.646,53.4555L 210.751,33.7608L 210.63,33.7608 Z "/>
		<path fill="#231F20" fill-opacity="1" stroke-width="0.2" stroke-linejoin="round" d="M 235.922,48.3481L 238.603,31.7587L 247.448,31.7587L 247.93,53.4546L 242.499,53.4546L 242.359,33.944L 242.242,33.9494L 238.618,53.4546L 233.116,53.4546L 229.488,33.944L 229.367,33.944L 229.23,53.4546L 223.806,53.4546L 224.286,31.7587L 233.134,31.7587L 235.803,48.3481L 235.922,48.3481 Z "/>
		<path fill="#231F20" fill-opacity="1" stroke-width="0.2" stroke-linejoin="round" d="M 192.666,47.3298C 192.88,47.8537 192.809,48.5298 192.709,48.9391C 192.532,49.6471 192.044,50.3857 190.597,50.3857C 189.242,50.3857 188.414,49.6098 188.414,48.4285L 188.41,46.3218L 182.592,46.3218L 182.592,48.0004C 182.592,52.8378 186.401,54.2937 190.474,54.2937C 194.406,54.2937 197.629,52.9604 198.148,49.3418C 198.413,47.4644 198.217,46.2351 198.126,45.7764C 197.206,41.2311 188.974,39.8857 188.36,37.3378C 188.256,36.8938 188.28,36.4524 188.335,36.2044C 188.492,35.5071 188.962,34.7471 190.318,34.7471C 191.592,34.7471 192.335,35.5311 192.335,36.7111L 192.335,38.0498L 197.75,38.0498L 197.75,36.5325C 197.75,31.8044 193.505,31.0657 190.433,31.0657C 186.576,31.0657 183.428,32.3444 182.848,35.8857C 182.692,36.8418 182.669,37.7098 182.902,38.8057C 183.841,43.2391 191.549,44.5244 192.666,47.3298 Z "/>
		<path fill="#231F20" fill-opacity="1" stroke-width="0.2" stroke-linejoin="round" d="M 263.209,47.2868C 263.412,47.8068 263.351,48.4734 263.251,48.8815C 263.076,49.5962 262.588,50.3108 261.156,50.3108C 259.809,50.3108 258.997,49.5495 258.997,48.3748L 258.995,46.2881L 253.232,46.2881L 253.228,47.9468C 253.228,52.7415 257.001,54.1762 261.04,54.1762C 264.925,54.1762 268.12,52.8628 268.629,49.2775C 268.893,47.4214 268.699,46.2041 268.608,45.7441C 267.699,41.2482 259.547,39.9135 258.945,37.3921C 258.839,36.9575 258.868,36.5202 258.917,36.2775C 259.072,35.5842 259.536,34.8308 260.88,34.8308C 262.14,34.8308 262.876,35.6069 262.876,36.7668L 262.876,38.0962L 268.237,38.0962L 268.237,36.5988C 268.237,31.9189 264.032,31.1895 260.997,31.1895C 257.176,31.1895 254.056,32.4388 253.487,35.9535C 253.328,36.9028 253.304,37.7629 253.535,38.8455C 254.468,43.2388 262.1,44.5122 263.209,47.2868 Z "/>
		<path fill="#231F20" fill-opacity="1" stroke-width="0.2" stroke-linejoin="round" d="M 281.419,50.1938C 282.926,50.1938 283.394,49.1697 283.502,48.6298C 283.549,48.3951 283.556,48.0804 283.554,47.8005L 283.554,31.7551L 289.055,31.7551L 289.055,47.3044C 289.059,47.7057 289.018,48.5231 288.995,48.7378C 288.617,52.7831 285.41,54.091 281.419,54.091C 277.431,54.091 274.226,52.7831 273.851,48.7378C 273.834,48.5231 273.79,47.7057 273.799,47.3044L 273.799,31.7551L 279.284,31.7551L 279.284,47.8005C 279.28,48.0804 279.291,48.3951 279.336,48.6298C 279.446,49.1697 279.914,50.1938 281.419,50.1938 Z "/>
		<path fill="#231F20" fill-opacity="1" stroke-width="0.2" stroke-linejoin="round" d="M 326.685,49.9724C 328.253,49.9724 328.802,48.9831 328.903,48.4045C 328.945,48.1578 328.961,47.8537 328.953,47.5778L 328.953,44.4324L 326.731,44.4324L 326.731,41.2591L 334.409,41.2591L 334.409,47.0804C 334.406,47.4871 334.401,47.7884 334.341,48.5124C 333.979,52.4604 330.547,53.8738 326.706,53.8738C 322.861,53.8738 319.433,52.4604 319.077,48.5124C 319.014,47.7884 319.003,47.4871 319.001,47.0804L 319.003,37.9524C 319.003,37.5618 319.05,36.8804 319.095,36.5325C 319.577,32.4617 322.861,31.1697 326.709,31.1697C 330.553,31.1697 333.927,32.4511 334.327,36.5325C 334.39,37.2084 334.367,37.9524 334.37,37.9524L 334.37,38.6738L 328.903,38.6738L 328.903,37.4551C 328.903,37.4551 328.898,36.9404 328.833,36.6391C 328.734,36.1618 328.323,35.0591 326.663,35.0591C 325.09,35.0591 324.623,36.1031 324.503,36.6391C 324.441,36.9137 324.415,37.3005 324.415,37.6551L 324.415,47.5778C 324.413,47.8537 324.426,48.1578 324.465,48.4045C 324.569,48.9831 325.115,49.9724 326.685,49.9724 Z "/>
		<rect x="175.991" y="69.2478" fill="#231F20" fill-opacity="1" stroke-width="0.2" stroke-linejoin="round" width="9.46533" height="50.8066"/>
		<path fill="#231F20" fill-opacity="1" stroke-width="0.2" stroke-linejoin="round" d="M 191.784,79.3383L 201.112,79.3383L 201.112,84.901C 202.454,83.201 204.16,81.8383 206.228,80.8103C 208.289,79.7823 210.645,79.2677 213.29,79.2677C 218.349,79.2677 222.308,80.7716 225.156,83.7796C 228.012,86.7836 229.438,90.973 229.438,96.3476L 229.438,120.054L 219.906,120.054L 219.906,97.4103C 219.906,94.3263 219.136,91.8903 217.606,90.097C 216.077,88.3076 213.777,87.413 210.718,87.413C 208.022,87.413 205.762,88.341 203.926,90.1996C 202.097,92.0609 201.181,94.733 201.181,98.2263L 201.181,120.054L 191.784,120.054L 191.784,79.3383 Z "/>
		<path fill="#231F20" fill-opacity="1" stroke-width="0.2" stroke-linejoin="round" d="M 231.664,79.3383L 238.625,79.3383L 238.625,73.1449L 248.089,66.6716L 248.089,79.3383L 256.371,79.3383L 256.371,87.761L 248.089,87.761L 248.089,103.004C 248.089,104.768 248.181,106.194 248.367,107.282C 248.555,108.373 248.94,109.208 249.517,109.789C 250.095,110.369 250.933,110.752 252.021,110.938C 253.115,111.122 254.564,111.216 256.371,111.216L 256.371,120.054L 255.051,120.054C 251.896,120.054 249.263,119.777 247.149,119.22C 245.037,118.661 243.36,117.724 242.103,116.401C 240.852,115.078 239.957,113.337 239.424,111.182C 238.892,109.024 238.625,106.32 238.625,103.07L 238.625,87.761L 231.664,87.761L 231.664,79.3383 Z "/>
		<path fill="#231F20" fill-opacity="1" stroke-width="0.2" stroke-linejoin="round" d="M 279.345,87.5513C 276.518,87.5513 274.065,88.1779 272.004,89.4259C 269.936,90.6779 268.486,92.3259 267.653,94.3712L 290.762,94.3712C 290.066,92.1366 288.718,90.4406 286.725,89.2846C 284.73,88.1299 282.266,87.5513 279.345,87.5513 Z M 279.696,120.126C 276.494,120.126 273.568,119.599 270.922,118.549C 268.282,117.497 266.017,116.055 264.137,114.221C 262.261,112.389 260.801,110.23 259.753,107.746C 258.71,105.266 258.189,102.615 258.189,99.7979C 258.189,96.9366 258.733,94.2512 259.825,91.7459C 260.914,89.2419 262.409,87.0726 264.313,85.2406C 266.214,83.4059 268.453,81.9525 271.03,80.8792C 273.606,79.8059 276.376,79.2685 279.345,79.2685C 282.364,79.2685 285.156,79.7579 287.733,80.7379C 290.31,81.7152 292.525,83.0845 294.382,84.8472C 296.234,86.6085 297.685,88.6872 298.733,91.0792C 299.774,93.4725 300.296,96.0819 300.296,98.9112L 300.296,102.238L 267.166,102.238C 267.817,105.115 269.228,107.435 271.409,109.197C 273.59,110.961 276.354,111.842 279.696,111.842C 282.341,111.842 284.634,111.193 286.584,109.893C 288.532,108.594 289.993,106.855 290.968,104.674L 298.693,109.129C 296.93,112.422 294.462,115.079 291.284,117.098C 288.101,119.114 284.244,120.126 279.696,120.126 Z "/>
		<path fill="#231F20" fill-opacity="1" stroke-width="0.2" stroke-linejoin="round" d="M 304.47,79.3383L 313.799,79.3383L 313.799,85.3943C 315.702,81.3583 319.179,79.3383 324.238,79.3383C 325.721,79.3383 327.058,79.5036 328.242,79.8263C 329.42,80.1516 330.479,80.5676 331.409,81.077L 327.857,89.9863C 327.16,89.525 326.384,89.1409 325.523,88.8396C 324.667,88.5369 323.563,88.3876 322.221,88.3876C 319.481,88.3876 317.406,89.1637 315.991,90.7183C 314.574,92.2729 313.867,94.813 313.867,98.3383L 313.867,120.054L 304.47,120.054L 304.47,79.3383 Z "/>
		<path fill="#231F20" fill-opacity="1" stroke-width="0.2" stroke-linejoin="round" d="M 334.467,79.3383L 343.795,79.3383L 343.795,84.901C 345.138,83.201 346.842,81.8383 348.91,80.8103C 350.971,79.7823 353.329,79.2677 355.974,79.2677C 361.031,79.2677 364.991,80.7716 367.839,83.7796C 370.694,86.7836 372.121,90.973 372.121,96.3476L 372.121,120.054L 362.589,120.054L 362.589,97.4103C 362.589,94.3263 361.819,91.8903 360.289,90.097C 358.761,88.3076 356.461,87.413 353.402,87.413C 350.706,87.413 348.445,88.341 346.61,90.1996C 344.781,92.0609 343.863,94.733 343.863,98.2263L 343.863,120.054L 334.467,120.054L 334.467,79.3383 Z "/>
		<path fill="#231F20" fill-opacity="1" stroke-width="0.2" stroke-linejoin="round" d="M 397.383,87.5513C 394.557,87.5513 392.104,88.1779 390.043,89.4259C 387.975,90.6779 386.524,92.3259 385.692,94.3712L 408.801,94.3712C 408.105,92.1366 406.757,90.4406 404.763,89.2846C 402.769,88.1299 400.305,87.5513 397.383,87.5513 Z M 397.735,120.126C 394.533,120.126 391.605,119.599 388.961,118.549C 386.321,117.497 384.056,116.055 382.176,114.221C 380.3,112.389 378.839,110.23 377.792,107.746C 376.748,105.266 376.228,102.615 376.228,99.7979C 376.228,96.9366 376.772,94.2512 377.864,91.7459C 378.952,89.2419 380.448,87.0726 382.351,85.2406C 384.253,83.4059 386.491,81.9525 389.069,80.8792C 391.645,79.8059 394.415,79.2685 397.383,79.2685C 400.403,79.2685 403.193,79.7579 405.772,80.7379C 408.349,81.7152 410.564,83.0845 412.421,84.8472C 414.273,86.6085 415.724,88.6872 416.771,91.0792C 417.813,93.4725 418.335,96.0819 418.335,98.9112L 418.335,102.238L 385.205,102.238C 385.856,105.115 387.267,107.435 389.448,109.197C 391.629,110.961 394.393,111.842 397.735,111.842C 400.379,111.842 402.673,111.193 404.623,109.893C 406.571,108.594 408.031,106.855 409.005,104.674L 416.732,109.129C 414.969,112.422 412.5,115.079 409.323,117.098C 406.139,119.114 402.283,120.126 397.735,120.126 Z "/>
		<path fill="#231F20" fill-opacity="1" stroke-width="0.2" stroke-linejoin="round" d="M 419.303,79.3383L 426.264,79.3383L 426.264,73.1449L 435.728,66.6716L 435.728,79.3383L 444.009,79.3383L 444.009,87.761L 435.728,87.761L 435.728,103.004C 435.728,104.768 435.819,106.194 436.006,107.282C 436.193,108.373 436.578,109.208 437.156,109.789C 437.734,110.369 438.571,110.752 439.66,110.938C 440.752,111.122 442.203,111.216 444.009,111.216L 444.009,120.054L 442.69,120.054C 439.535,120.054 436.9,119.777 434.788,119.22C 432.675,118.661 430.998,117.724 429.742,116.401C 428.49,115.078 427.595,113.337 427.062,111.182C 426.53,109.024 426.264,106.32 426.264,103.07L 426.264,87.761L 419.303,87.761L 419.303,79.3383 Z "/>
	</g>
</svg>
