<svg id="Layer_1" data-name="Layer 1" xmlns="http://www.w3.org/2000/svg" xmlns:xlink="http://www.w3.org/1999/xlink" viewBox="0 0 208.42 61"><defs><style>.cls-1,.cls-5{fill:none;}.cls-2{clip-path:url(#clip-path);}.cls-3{fill:#1d1d1b;}.cls-4{fill:#fff;}.cls-5{stroke:#fff;stroke-width:0.5px;}</style><clipPath id="clip-path" transform="translate(-202 -360)"><rect class="cls-1" x="202" y="360" width="208.42" height="61"/></clipPath></defs><title>SmokeAndMirrors_Logo_SMALLSQUARE_B&amp;amp;W</title><g class="cls-2"><path class="cls-3" d="M365.92,404.66c0,4.38-3,7.43-7,7.43s-7-3-7-7.43,2.95-7.43,7-7.43,7,3.06,7,7.43m5.93,0a12.94,12.94,0,1,0-12.94,12.8,12.57,12.57,0,0,0,12.94-12.8" transform="translate(-202 -360)"/><path class="cls-3" d="M401.21,391.87c-4.55,0-8.42,2.63-8.42,7.11,0,4.26,3.16,6,6.79,7.32l1.38.5c2.67,1,3.52,1.6,3.52,3,0,1.81-1.31,2.53-3.16,2.53-2.77,0-4.09-1.75-5-3.35L392,411.31c1.17,3.52,4.73,6.15,9.35,6.15,4.19,0,9.1-2.42,9.1-7.57,0-3.34-2-5.72-7.79-7.75l-1.67-.6c-1.74-.61-2.49-1.28-2.49-2.39,0-1.35,1.07-2.23,2.78-2.23s2.88.81,4.26,2.59l4.2-2.52a9.54,9.54,0,0,0-8.5-5.12M379,397.48h2.77c2.32,0,3.91.86,3.91,3.31s-1.59,3.31-3.91,3.31H379Zm8.14,19.62h6l-6-9.24a7.45,7.45,0,0,0,4.2-7.07c0-5.19-3.7-8.57-9.28-8.57h-8.85V417.1H379V409h3.06Zm-54.56-19.62h2.77c2.31,0,3.91.86,3.91,3.31s-1.6,3.31-3.91,3.31h-2.77Zm8.14,19.62h6l-6-9.24a7.44,7.44,0,0,0,4.19-7.07c0-5.19-3.69-8.57-9.28-8.57h-8.85V417.1h5.73V409h3.05Zm-29.47-19.62h2.77c2.31,0,3.91.86,3.91,3.31s-1.6,3.31-3.91,3.31h-2.77Zm8.14,19.62h6l-6-9.24a7.45,7.45,0,0,0,4.2-7.07c0-5.19-3.7-8.57-9.28-8.57h-8.85V417.1h5.72V409h3.06ZM303.6,392.22h-5.72V417.1h5.72Zm-7.85,0h-6.26l-7.57,17.6-7.57-17.6H268.1V417.1h5.72V403.21H274l5.86,13.89H284l5.87-13.89H290V417.1h5.72Z" transform="translate(-202 -360)"/><path class="cls-3" d="M375.05,384.1v-4.69h7.39v-5.15h-7.39v-4.52h9.88v-5.26H369.32v24.88h15.93V384.1Zm-13.9,5.26h6.57l-10.3-14.43,9.1-10.45h-7L351,374.69V364.48h-5.72v24.88H351v-7.07l2.92-3.3ZM315.8,364.48h-6.26L302,382.08l-7.57-17.6h-6.26v24.88h5.72V375.47H294l5.87,13.89H304l5.87-13.89h.17v13.89h5.73Zm-38.46-.35c-4.55,0-8.43,2.63-8.43,7.11,0,4.26,3.17,6,6.79,7.32l1.39.5c2.66,1,3.52,1.6,3.52,3,0,1.81-1.32,2.53-3.17,2.53-2.77,0-4.08-1.75-5-3.35l-4.37,2.35c1.17,3.52,4.72,6.15,9.34,6.15,4.2,0,9.1-2.42,9.1-7.57,0-3.34-2-5.72-7.78-7.75l-1.67-.6c-1.74-.61-2.49-1.28-2.49-2.39,0-1.35,1.07-2.24,2.77-2.24s2.88.82,4.27,2.6l4.19-2.52a9.53,9.53,0,0,0-8.49-5.12" transform="translate(-202 -360)"/><path class="cls-3" d="M398.1,386.19a5.5,5.5,0,0,1-2.78.84,3.91,3.91,0,0,1-3.33-1.59,5.24,5.24,0,0,1-1.17-3.07,4.36,4.36,0,0,1,.84-2.45,10.53,10.53,0,0,1,3.27-2.67L400.4,384a6.82,6.82,0,0,1-2.3,2.16m-3.22-14a6,6,0,0,1-.87-1.32,2.69,2.69,0,0,1-.29-1.18,2.53,2.53,0,0,1,.8-1.91,2.78,2.78,0,0,1,2-.78,2.66,2.66,0,0,1,2,.79,2.76,2.76,0,0,1,.79,2,3.35,3.35,0,0,1-.58,1.9,7.72,7.72,0,0,1-2.51,2ZM406,389.81l2-2.37a17.16,17.16,0,0,1-3.79-3.73,17,17,0,0,0,2.15-5.23l-3.1-.67a13.41,13.41,0,0,1-1.16,3.38l-4.36-5.55c3.06-1.63,4.59-3.61,4.59-5.91a4.9,4.9,0,0,0-1.58-3.67,5.64,5.64,0,0,0-4.07-1.52,6.06,6.06,0,0,0-4.31,1.61,5.06,5.06,0,0,0-1.72,3.81,5.32,5.32,0,0,0,.55,2.27,14.31,14.31,0,0,0,2.19,3.06,12.12,12.12,0,0,0-4.34,3.19,6.4,6.4,0,0,0-1.45,4.07,6.82,6.82,0,0,0,1.78,4.59,7.42,7.42,0,0,0,5.91,2.52,8.65,8.65,0,0,0,3.76-.82,10.37,10.37,0,0,0,3.22-2.46,17.19,17.19,0,0,0,3.73,3.43" transform="translate(-202 -360)"/><path class="cls-3" d="M330.51,384.35c-4,0-7-3.05-7-7.43s2.95-7.43,7-7.43,7,3.06,7,7.43-3,7.43-7,7.43m0-20.22a12.8,12.8,0,1,0,12.94,12.79,12.57,12.57,0,0,0-12.94-12.79" transform="translate(-202 -360)"/></g><rect class="cls-3" width="61" height="61"/><g class="cls-2"><path class="cls-4" d="M253.59,366.27a31.12,31.12,0,0,1-3.7,6.72l2.14,1.15a34.73,34.73,0,0,0,3.73-6.64Zm-15,0-2.15,1.2a34.35,34.35,0,0,1,3.6,6.62l2.25-1a36.15,36.15,0,0,0-3.7-6.83m16.87,15.36c0,.82-.08,1.66-.17,2.52a4.47,4.47,0,0,1-.32,1.54.94.94,0,0,1-.47.37,11.2,11.2,0,0,1-2.19.11,5.79,5.79,0,0,1-1.85-.16.51.51,0,0,1-.26-.47v-8.29h7.23v-2.4H247.36V365h-2.54v9.83H234.64v2.4h7c-.19,3.22-1,5.52-2.51,6.88a9.6,9.6,0,0,1-5.12,2.48l1.25,2.23a12,12,0,0,0,6.42-3.81c1.34-1.71,2.16-4.31,2.46-7.78h3.63v9a2.18,2.18,0,0,0,.44,1.46,2.15,2.15,0,0,0,1.06.71,38.37,38.37,0,0,0,5.35.18,2.69,2.69,0,0,0,2.45-1.28,10.81,10.81,0,0,0,1-4.74Zm-45.66-3.12a47.24,47.24,0,0,1-2.74,8.94l2.11,1.56a55.28,55.28,0,0,0,2.73-9.07Zm-1-6.75-1.71,1.69a18.57,18.57,0,0,1,3.31,3.67l1.76-1.72a22.19,22.19,0,0,0-3.36-3.64m6.28.22h4.17v1.36h-4.17Zm0-3.2h4.17v1.35h-4.17Zm7.32,8.37h-3.8c-.27-.58-.59-1.17-.94-1.78h3.78v-8.5h-3.65a9.65,9.65,0,0,0,.62-1.64l-2.4-.39a12.2,12.2,0,0,1-.74,2h-2.36v8.5h4l-1.45.63c.33.53.56.92.67,1.15h-4.06v2.08h2.33q.08,5.51-3.33,8l1.55,1.69a9.59,9.59,0,0,0,3.67-6h2.82a21.17,21.17,0,0,1-.12,2.21c-.08.77-.22,1.2-.42,1.31a9,9,0,0,1-2.54.17l.75,2.26c1.93.07,3.19-.28,3.76-1.05s.87-3.1.87-7h-4.84c0-.75.08-1.28.08-1.57h5.77Zm5.36,6q1.94-4.32,2.08-12h1v-2.3H226a35.17,35.17,0,0,0,.57-3.74l-2.18-.28A36.89,36.89,0,0,1,221.8,375l1.81,1.45a31.39,31.39,0,0,0,1.93-5.36h2a34,34,0,0,1-1.11,9,20.52,20.52,0,0,1-.73-4l-2.12.83a23.7,23.7,0,0,0,1.6,6.06,15.36,15.36,0,0,1-3.71,4l1.44,1.87a19.49,19.49,0,0,0,3.52-3.62,18.78,18.78,0,0,0,3.46,3.62l1.31-1.89a13.26,13.26,0,0,1-3.47-3.87m-18.47-18.43-1.71,1.61a17.38,17.38,0,0,1,3,3.91l1.76-1.67a20.91,20.91,0,0,0-3.08-3.85" transform="translate(-202 -360)"/><path class="cls-5" d="M253.59,366.27a31.12,31.12,0,0,1-3.7,6.72l2.14,1.15a34.73,34.73,0,0,0,3.73-6.64Zm-15,0-2.15,1.2a34.35,34.35,0,0,1,3.6,6.62l2.25-1A36.15,36.15,0,0,0,238.6,366.24Zm16.87,15.36c0,.82-.08,1.66-.17,2.52a4.47,4.47,0,0,1-.32,1.54.94.94,0,0,1-.47.37,11.2,11.2,0,0,1-2.19.11,5.79,5.79,0,0,1-1.85-.16.51.51,0,0,1-.26-.47v-8.29h7.23v-2.4H247.36V365h-2.54v9.83H234.64v2.4h7c-.19,3.22-1,5.52-2.51,6.88a9.6,9.6,0,0,1-5.12,2.48l1.25,2.23a12,12,0,0,0,6.42-3.81c1.34-1.71,2.16-4.31,2.46-7.78h3.63v9a2.18,2.18,0,0,0,.44,1.46,2.15,2.15,0,0,0,1.06.71,38.37,38.37,0,0,0,5.35.18,2.69,2.69,0,0,0,2.45-1.28,10.81,10.81,0,0,0,1-4.74Zm-45.66-3.12a47.24,47.24,0,0,1-2.74,8.94l2.11,1.56a55.28,55.28,0,0,0,2.73-9.07Zm-1-6.75-1.71,1.69a18.57,18.57,0,0,1,3.31,3.67l1.76-1.72A22.19,22.19,0,0,0,208.8,371.73Zm6.28.22h4.17v1.36h-4.17Zm0-3.2h4.17v1.35h-4.17Zm7.32,8.37h-3.8c-.27-.58-.59-1.17-.94-1.78h3.78v-8.5h-3.65a9.65,9.65,0,0,0,.62-1.64l-2.4-.39a12.2,12.2,0,0,1-.74,2h-2.36v8.5h4l-1.45.63c.33.53.56.92.67,1.15h-4.06v2.08h2.33q.08,5.51-3.33,8l1.55,1.69a9.59,9.59,0,0,0,3.67-6h2.82a21.17,21.17,0,0,1-.12,2.21c-.08.77-.22,1.2-.42,1.31a9,9,0,0,1-2.54.17l.75,2.26c1.93.07,3.19-.28,3.76-1.05s.87-3.1.87-7h-4.84c0-.75.08-1.28.08-1.57h5.77Zm5.36,6q1.94-4.32,2.08-12h1v-2.3H226a35.17,35.17,0,0,0,.57-3.74l-2.18-.28A36.89,36.89,0,0,1,221.8,375l1.81,1.45a31.39,31.39,0,0,0,1.93-5.36h2a34,34,0,0,1-1.11,9,20.52,20.52,0,0,1-.73-4l-2.12.83a23.7,23.7,0,0,0,1.6,6.06,15.36,15.36,0,0,1-3.71,4l1.44,1.87a19.49,19.49,0,0,0,3.52-3.62,18.78,18.78,0,0,0,3.46,3.62l1.31-1.89A13.26,13.26,0,0,1,227.76,383.14Zm-18.47-18.43-1.71,1.61a17.38,17.38,0,0,1,3,3.91l1.76-1.67A20.91,20.91,0,0,0,209.29,364.71Z" transform="translate(-202 -360)"/><path class="cls-4" d="M238.57,405.75a47.56,47.56,0,0,1-4.12,8.95l2,1.48a46.36,46.36,0,0,0,4.22-9.31Zm-2.88-6.83-1.43,2a29.41,29.41,0,0,1,4.68,3.5l1.47-2a25.07,25.07,0,0,0-4.72-3.49m.66-6.9-1.73,1.75a32.09,32.09,0,0,1,4.65,4.22l1.76-1.77a28.92,28.92,0,0,0-4.68-4.2m8.17,15.63h9.74v4.75h-9.74Zm13.51-8.4h-7.47v-3.89A41.64,41.64,0,0,0,257.2,394L256,392a55.2,55.2,0,0,1-14.77,1.75l.84,2.3c1.91-.06,3.92-.18,6.06-.39v3.62h-7.5l0,2.27h7.47v3.79h-6.06v10.78h2.46v-1.34h9.74v1.34h2.45V405.31h-6.15v-3.79H258ZM230.85,413H220.78v-6h8.6v-2.4h-8.6v-5.22h9.71V397h-9.71v-4.8h-2.49V397h-4.95c.43-1.3.8-2.54,1.11-3.7l-2.42-.58a19.39,19.39,0,0,1-4.95,9.39l1.84,1.78a22.61,22.61,0,0,0,3.31-4.49h6.06v5.22h-8.21V407h8.21v6H207.37v2.41h23.48Z" transform="translate(-202 -360)"/><path class="cls-5" d="M238.57,405.75a47.56,47.56,0,0,1-4.12,8.95l2,1.48a46.36,46.36,0,0,0,4.22-9.31Zm-2.88-6.83-1.43,2a29.41,29.41,0,0,1,4.68,3.5l1.47-2A25.07,25.07,0,0,0,235.69,398.92Zm.66-6.9-1.73,1.75a32.09,32.09,0,0,1,4.65,4.22l1.76-1.77A28.92,28.92,0,0,0,236.35,392Zm8.17,15.63h9.74v4.75h-9.74Zm13.51-8.4h-7.47v-3.89A41.64,41.64,0,0,0,257.2,394L256,392a55.2,55.2,0,0,1-14.77,1.75l.84,2.3c1.91-.06,3.92-.18,6.06-.39v3.62h-7.5l0,2.27h7.47v3.79h-6.06v10.78h2.46v-1.34h9.74v1.34h2.45V405.31h-6.15v-3.79H258ZM230.85,413H220.78v-6h8.6v-2.4h-8.6v-5.22h9.71V397h-9.71v-4.8h-2.49V397h-4.95c.43-1.3.8-2.54,1.11-3.7l-2.42-.58a19.39,19.39,0,0,1-4.95,9.39l1.84,1.78a22.61,22.61,0,0,0,3.31-4.49h6.06v5.22h-8.21V407h8.21v6H207.37v2.41h23.48Z" transform="translate(-202 -360)"/></g></svg>