<?xml version="1.0" encoding="UTF-8"?>
<svg id="logos" xmlns="http://www.w3.org/2000/svg" viewBox="0 0 237.06 357.37">
  <defs>
    <style>
      .cls-1 {
        fill-rule: evenodd;
      }

      .cls-1, .cls-2 {
        fill: #fff;
      }
    </style>
  </defs>
  <path class="cls-2" d="M185.61,145.48c0,.18-.15.33-.33.33-5.71,0-8.6,2.89-8.6,8.59,0,.19-.15.33-.33.33s-.33-.14-.33-.33c0-5.7-2.89-8.59-8.6-8.59-.18,0-.33-.15-.33-.33,0-.19.15-.33.33-.33,5.71,0,8.6-2.9,8.6-8.6,0-.18.15-.33.33-.33s.33.15.33.33c0,5.7,2.89,8.6,8.6,8.6.18,0,.33.14.33.33Z"/>
  <path class="cls-2" d="M161.02,102.87c0,.19-.15.33-.33.33-5.71,0-8.6,2.9-8.6,8.6,0,.18-.15.33-.33.33s-.33-.15-.33-.33c0-5.7-2.89-8.6-8.59-8.6-.19,0-.33-.14-.33-.33,0-.18.14-.33.33-.33,5.7,0,8.59-2.89,8.59-8.59,0-.19.15-.33.33-.33s.33.14.33.33c0,5.7,2.89,8.59,8.6,8.59.18,0,.33.15.33.33Z"/>
  <path class="cls-2" d="M151.87,84.39c0,.19-.15.33-.33.33-5.71,0-8.6,2.9-8.6,8.6,0,.18-.15.33-.33.33s-.33-.15-.33-.33c0-5.7-2.89-8.6-8.6-8.6-.18,0-.33-.14-.33-.33,0-.18.15-.33.33-.33,5.71,0,8.6-2.89,8.6-8.59,0-.19.15-.33.33-.33s.33.14.33.33c0,5.7,2.89,8.59,8.6,8.59.18,0,.33.15.33.33Z"/>
  <path class="cls-1" d="M160.94,181.86c.07-1.05.11-2.11.11-3.18,0-22.05-16.79-40.18-38.27-42.31V51.12h-8.51v85.25c-7.27.72-13.99,3.27-19.71,7.18-21.6-8.2-38.33-9.89-42.28-3.04-3.96,6.85,5.9,20.52,23.84,35.15-.07,1-.11,2-.11,3.02,0,22.05,16.77,40.17,38.26,42.31v85.25h8.51v-85.25c7.2-.71,13.87-3.23,19.56-7.08,21.67,8.24,38.48,9.96,42.44,3.1,3.95-6.85-5.9-20.52-23.84-35.15ZM78.57,164.11c-.9,2.47-1.58,5.04-2.01,7.71-12.46-11.11-18.92-21.12-15.85-26.44,3.07-5.31,14.94-4.73,30.78.48-3.62,2.99-6.74,6.57-9.22,10.59-1.47,2.41-2.72,4.97-3.7,7.66ZM118.53,212.7c-17.58,0-32.04-13.33-33.83-30.43,3.41,2.5,7.04,5,10.84,7.47h.01c3.91,2.56,8.02,5.08,12.28,7.54,4.24,2.45,8.46,4.73,12.6,6.83h.03c4.05,2.07,8,3.96,11.87,5.67-4.22,1.88-8.89,2.92-13.8,2.92ZM135.74,208.03c-3.43-1.39-6.99-2.97-10.62-4.7-5.18-2.48-10.53-5.29-15.93-8.41-5.42-3.13-10.55-6.37-15.3-9.64-3.32-2.28-6.46-4.57-9.38-6.84.03-3.65.63-7.16,1.72-10.45.9-2.73,2.14-5.31,3.67-7.68,2.85-4.44,6.71-8.17,11.26-10.88,1.09-.65,2.23-1.24,3.4-1.76,4.26-1.93,8.99-3,13.97-3,17.62,0,32.11,13.41,33.83,30.57.12,1.13.18,2.28.18,3.44v.4c-.05,4.14-.84,8.11-2.24,11.77-1.03,2.68-2.38,5.19-4.02,7.5-2.78,3.92-6.38,7.23-10.54,9.68ZM176.34,212.13c-3.08,5.33-15.01,4.74-30.91-.52,3.28-2.68,6.15-5.84,8.51-9.38,1.57-2.35,2.91-4.87,3.98-7.52,1.17-2.87,2.04-5.9,2.56-9.04,12.47,11.13,18.93,21.15,15.86,26.46Z"/>
  <path class="cls-1" d="M137.59,175.97c-1.28,2.07-2.48,4.44-4.05,6.41-1.99,2.51-4.58,4.38-8.7,4.15-1.17-.07-2.35-.36-3.46-.77,0,0-.02-.01-.03-.01-1.13-.41-2.19-.92-3.1-1.42-.53-.29-1.02-.6-1.5-.91-1.12-.72-2.17-1.42-3.34-1.69,0,0-.01,0-.02,0-.33-.08-.68-.13-1.04-.13-3.62,0-4.68,3.51-6.85,4.94-1.91-1.48-4.16-2.61-6.04-4.12,1.09-2.05,2.17-4.17,3.52-5.95,2.01-2.68,4.6-4.59,8.69-4.33,1.02.06,2,.32,2.95.68.02,0,.03.01.04.02,2.99,1.14,5.73,3.33,8.67,3.96,3.69.79,6.51-2.5,7.95-4.94,2.17,1.31,4.15,2.81,6.31,4.12Z"/>
</svg>