<?xml version="1.0" encoding="UTF-8"?>
<svg id="logos" xmlns="http://www.w3.org/2000/svg" viewBox="0 0 875.89 357.96">
  <defs>
    <style>
      .cls-1 {
        fill-rule: evenodd;
      }

      .cls-1, .cls-2 {
        fill: #fff;
      }
    </style>
  </defs>
  <g>
    <path class="cls-2" d="M185.61,145.78c0,.18-.15.33-.33.33-5.71,0-8.6,2.89-8.6,8.59,0,.19-.15.33-.33.33s-.33-.14-.33-.33c0-5.7-2.89-8.59-8.6-8.59-.18,0-.33-.15-.33-.33,0-.19.15-.33.33-.33,5.71,0,8.6-2.9,8.6-8.6,0-.18.15-.33.33-.33s.33.15.33.33c0,5.7,2.89,8.6,8.6,8.6.18,0,.33.14.33.33Z"/>
    <path class="cls-2" d="M161.02,103.17c0,.19-.15.33-.33.33-5.71,0-8.6,2.9-8.6,8.6,0,.18-.15.33-.33.33s-.33-.15-.33-.33c0-5.7-2.89-8.6-8.59-8.6-.19,0-.33-.14-.33-.33,0-.18.14-.33.33-.33,5.7,0,8.59-2.89,8.59-8.59,0-.19.15-.33.33-.33s.33.14.33.33c0,5.7,2.89,8.59,8.6,8.59.18,0,.33.15.33.33Z"/>
    <path class="cls-2" d="M151.87,84.69c0,.19-.15.33-.33.33-5.71,0-8.6,2.9-8.6,8.6,0,.18-.15.33-.33.33s-.33-.15-.33-.33c0-5.7-2.89-8.6-8.6-8.6-.18,0-.33-.14-.33-.33,0-.18.15-.33.33-.33,5.71,0,8.6-2.89,8.6-8.59,0-.19.15-.33.33-.33s.33.14.33.33c0,5.7,2.89,8.59,8.6,8.59.18,0,.33.15.33.33Z"/>
    <path class="cls-1" d="M160.94,182.16c.07-1.05.11-2.11.11-3.18,0-22.05-16.79-40.18-38.27-42.31V51.42h-8.51v85.25c-7.27.72-13.99,3.27-19.71,7.18-21.6-8.2-38.33-9.89-42.28-3.04-3.96,6.85,5.9,20.52,23.84,35.15-.07,1-.11,2-.11,3.02,0,22.05,16.77,40.17,38.26,42.31v85.25h8.51v-85.25c7.2-.71,13.87-3.23,19.56-7.08,21.67,8.24,38.48,9.96,42.44,3.1,3.95-6.85-5.9-20.52-23.84-35.15ZM78.57,164.41c-.9,2.47-1.58,5.04-2.01,7.71-12.46-11.11-18.92-21.12-15.85-26.44,3.07-5.31,14.94-4.73,30.78.48-3.62,2.99-6.74,6.57-9.22,10.59-1.47,2.41-2.72,4.97-3.7,7.66ZM118.53,213c-17.58,0-32.04-13.33-33.83-30.43,3.41,2.5,7.04,5,10.84,7.47h.01c3.91,2.56,8.02,5.08,12.28,7.54,4.24,2.45,8.46,4.73,12.6,6.83h.03c4.05,2.07,8,3.96,11.87,5.67-4.22,1.88-8.89,2.92-13.8,2.92ZM135.74,208.33c-3.43-1.39-6.99-2.97-10.62-4.7-5.18-2.48-10.53-5.29-15.93-8.41-5.42-3.13-10.55-6.37-15.3-9.64-3.32-2.28-6.46-4.57-9.38-6.84.03-3.65.63-7.16,1.72-10.45.9-2.73,2.14-5.31,3.67-7.68,2.85-4.44,6.71-8.17,11.26-10.88,1.09-.65,2.23-1.24,3.4-1.76,4.26-1.93,8.99-3,13.97-3,17.62,0,32.11,13.41,33.83,30.57.12,1.13.18,2.28.18,3.44v.4c-.05,4.14-.84,8.11-2.24,11.77-1.03,2.68-2.38,5.19-4.02,7.5-2.78,3.92-6.38,7.23-10.54,9.68ZM176.34,212.43c-3.08,5.33-15.01,4.74-30.91-.52,3.28-2.68,6.15-5.84,8.51-9.38,1.57-2.35,2.91-4.87,3.98-7.52,1.17-2.87,2.04-5.9,2.56-9.04,12.47,11.13,18.93,21.15,15.86,26.46Z"/>
    <path class="cls-1" d="M137.59,176.27c-1.28,2.07-2.48,4.44-4.05,6.41-1.99,2.51-4.58,4.38-8.7,4.15-1.17-.07-2.35-.36-3.46-.77,0,0-.02-.01-.03-.01-1.13-.41-2.19-.92-3.1-1.42-.53-.29-1.02-.6-1.5-.91-1.12-.72-2.17-1.42-3.34-1.69,0,0-.01,0-.02,0-.33-.08-.68-.13-1.04-.13-3.62,0-4.68,3.51-6.85,4.94-1.91-1.48-4.16-2.61-6.04-4.12,1.09-2.05,2.17-4.17,3.52-5.95,2.01-2.68,4.6-4.59,8.69-4.33,1.02.06,2,.32,2.95.68.02,0,.03.01.04.02,2.99,1.14,5.73,3.33,8.67,3.96,3.69.79,6.51-2.5,7.95-4.94,2.17,1.31,4.15,2.81,6.31,4.12Z"/>
  </g>
  <g>
    <path class="cls-2" d="M279.06,160.24v4.81h-36.99v-55.06h36.29v4.81h-30.87v19.85h26.91v4.58h-26.91v21.02h31.56Z"/>
    <path class="cls-2" d="M288.45,108.44h5.27v47.74c0,2.03.36,3.36,1.09,3.98.72.62,1.6.94,2.64.94.93,0,1.86-.1,2.79-.31.93-.21,1.73-.41,2.4-.62l.93,4.27c-.98.41-2.19.75-3.61,1.01-1.42.26-2.65.39-3.68.39-2.38,0-4.28-.7-5.7-2.1-1.42-1.4-2.13-3.33-2.13-5.77v-49.51Z"/>
    <path class="cls-2" d="M326.76,165.82c-2.9,0-5.58-.55-8.07-1.66s-4.63-2.63-6.44-4.56c-1.81-1.93-3.22-4.16-4.23-6.68-1.01-2.52-1.51-5.23-1.51-8.11,0-3.75.87-7.18,2.6-10.31,1.73-3.13,4.12-5.63,7.17-7.5,3.05-1.87,6.51-2.81,10.39-2.81s7.46.95,10.43,2.85c2.97,1.9,5.31,4.4,7.02,7.51,1.71,3.11,2.56,6.51,2.56,10.21v1.19c0,.39-.03.68-.08.89h-34.59c.26,2.88,1.07,5.44,2.44,7.68,1.37,2.24,3.15,4.01,5.35,5.32s4.59,1.97,7.17,1.97,5.13-.67,7.48-2.02c2.35-1.34,3.99-3.1,4.92-5.27l4.58,1.24c-.83,1.91-2.09,3.64-3.8,5.2-1.71,1.55-3.71,2.75-6.01,3.61-2.3.85-4.77,1.28-7.41,1.28ZM311.87,143.02h29.86c-.21-2.92-1-5.47-2.37-7.67s-3.15-3.93-5.35-5.18c-2.2-1.25-4.61-1.88-7.25-1.88s-5.04.63-7.21,1.88c-2.17,1.25-3.94,2.99-5.31,5.22-1.37,2.23-2.16,4.77-2.37,7.64Z"/>
    <path class="cls-2" d="M372.36,165.82c-2.95,0-5.65-.55-8.1-1.66-2.46-1.11-4.6-2.64-6.44-4.59s-3.26-4.19-4.26-6.71c-1.01-2.52-1.51-5.19-1.51-8.02,0-3.8.85-7.27,2.56-10.41,1.71-3.14,4.08-5.63,7.13-7.48,3.05-1.85,6.57-2.78,10.55-2.78,3.77,0,7.11.87,10,2.6,2.89,1.73,5.04,4.07,6.44,7.02l-5.12,1.63c-1.14-2.07-2.73-3.68-4.77-4.85-2.04-1.16-4.3-1.75-6.79-1.75-2.69,0-5.15.69-7.37,2.08-2.22,1.39-3.99,3.29-5.31,5.7-1.32,2.41-1.98,5.16-1.98,8.24s.67,5.78,2.02,8.24c1.34,2.46,3.13,4.43,5.35,5.89,2.22,1.46,4.68,2.2,7.37,2.2,1.76,0,3.45-.31,5.08-.93,1.63-.62,3.05-1.46,4.26-2.52s2.03-2.21,2.44-3.45l5.2,1.55c-.72,1.91-1.93,3.63-3.61,5.16-1.68,1.53-3.65,2.71-5.89,3.57-2.25.85-4.67,1.28-7.25,1.28Z"/>
    <path class="cls-2" d="M416.79,163.42c-.41.15-1.06.44-1.94.85-.88.41-1.94.78-3.18,1.09s-2.59.46-4.03.46-2.91-.29-4.23-.86c-1.32-.57-2.37-1.44-3.14-2.61-.78-1.17-1.16-2.61-1.16-4.32v-29.05h-5.58v-4.19h5.58v-13.65h5.27v13.65h9.31v4.19h-9.31v27.59c.1,1.45.63,2.55,1.59,3.27.96.73,2.06,1.09,3.3,1.09,1.45,0,2.77-.24,3.96-.74,1.19-.49,1.91-.84,2.17-1.05l1.4,4.27Z"/>
    <path class="cls-2" d="M443.55,129.3c-3.52.1-6.6,1.09-9.27,2.95s-4.54,4.42-5.62,7.68v25.13h-5.27v-40.25h4.96v9.54c1.4-2.84,3.24-5.14,5.54-6.9,2.3-1.76,4.74-2.74,7.33-2.95.52-.05.97-.08,1.36-.08s.71.03.97.08v4.81Z"/>
    <path class="cls-2" d="M466.58,165.82c-2.9,0-5.57-.55-8.03-1.66-2.46-1.11-4.58-2.62-6.36-4.55-1.78-1.93-3.17-4.14-4.15-6.63-.98-2.49-1.47-5.13-1.47-7.9s.49-5.57,1.47-8.06c.98-2.49,2.38-4.7,4.19-6.63,1.81-1.93,3.94-3.45,6.4-4.55,2.46-1.1,5.13-1.66,8.03-1.66s5.56.55,7.99,1.66c2.43,1.11,4.55,2.62,6.36,4.55s3.21,4.14,4.19,6.63c.98,2.49,1.47,5.18,1.47,8.06s-.49,5.41-1.47,7.9c-.98,2.49-2.37,4.71-4.15,6.63-1.78,1.93-3.9,3.44-6.36,4.55-2.46,1.1-5.16,1.66-8.1,1.66ZM451.92,145.16c0,2.98.66,5.69,1.98,8.12,1.32,2.44,3.09,4.36,5.31,5.78,2.22,1.41,4.68,2.12,7.37,2.12s5.14-.72,7.37-2.16c2.22-1.44,4.01-3.4,5.35-5.89,1.34-2.49,2.02-5.2,2.02-8.12s-.67-5.7-2.02-8.16c-1.34-2.46-3.13-4.42-5.35-5.85-2.22-1.44-4.68-2.16-7.37-2.16s-5.13.75-7.33,2.23c-2.2,1.49-3.97,3.45-5.31,5.89-1.34,2.44-2.02,5.17-2.02,8.2Z"/>
    <path class="cls-2" d="M555.61,165.05h-5.27v-22.42c0-4.67-.75-8.12-2.25-10.32-1.5-2.21-3.72-3.31-6.67-3.31s-5.78,1.08-8.18,3.24c-2.4,2.16-4.1,4.93-5.08,8.32v24.5h-5.27v-22.42c0-4.73-.72-8.18-2.17-10.36-1.45-2.18-3.67-3.28-6.67-3.28s-5.71,1.05-8.14,3.15c-2.43,2.1-4.14,4.87-5.12,8.31v24.6h-5.27v-40.25h4.81v9.17c1.71-3.14,3.89-5.55,6.55-7.25,2.66-1.7,5.62-2.54,8.88-2.54s6.07.95,8.14,2.85c2.07,1.9,3.33,4.39,3.8,7.48,1.86-3.39,4.1-5.96,6.71-7.71,2.61-1.75,5.57-2.62,8.88-2.62,2.27,0,4.2.41,5.78,1.23,1.58.82,2.84,1.99,3.8,3.51.96,1.52,1.65,3.34,2.09,5.47.44,2.13.66,4.51.66,7.13v23.52Z"/>
    <path class="cls-2" d="M563.52,153.49c0-2.52.72-4.69,2.17-6.51,1.45-1.82,3.45-3.24,6.01-4.24,2.56-1,5.52-1.5,8.88-1.5,1.96,0,4.01.15,6.13.46,2.12.31,4.01.78,5.66,1.4v-3.4c0-3.39-1.01-6.09-3.02-8.09-2.02-2-4.81-3.01-8.38-3.01-2.17,0-4.3.4-6.4,1.2-2.09.8-4.28,1.98-6.55,3.53l-2.02-3.72c2.64-1.81,5.22-3.17,7.75-4.07,2.53-.9,5.12-1.36,7.75-1.36,4.96,0,8.89,1.41,11.79,4.24,2.89,2.83,4.34,6.73,4.34,11.71v18.57c0,.72.16,1.25.47,1.58.31.33.8.53,1.47.58v4.19c-.57.05-1.06.1-1.47.16-.42.05-.72.05-.93,0-1.29-.05-2.28-.46-2.95-1.24-.67-.78-1.04-1.6-1.09-2.48l-.08-2.95c-1.81,2.33-4.16,4.12-7.06,5.39-2.9,1.27-5.84,1.9-8.84,1.9-2.59,0-4.92-.55-7.02-1.66-2.09-1.1-3.72-2.59-4.89-4.47-1.16-1.88-1.74-3.94-1.74-6.2ZM590.58,156.57c.57-.72,1.01-1.41,1.32-2.07.31-.67.46-1.25.46-1.77v-5.84c-1.76-.67-3.58-1.18-5.47-1.54-1.89-.36-3.79-.54-5.7-.54-3.77,0-6.83.74-9.15,2.23-2.33,1.49-3.49,3.51-3.49,6.07,0,1.49.39,2.88,1.16,4.19.78,1.31,1.91,2.38,3.41,3.23,1.5.85,3.26,1.27,5.27,1.27,2.53,0,4.9-.49,7.1-1.46,2.2-.97,3.89-2.23,5.08-3.77Z"/>
    <path class="cls-2" d="M625.25,165.82c-2.74,0-5.27-.57-7.6-1.71-2.33-1.14-4.33-2.67-6.01-4.61-1.68-1.94-2.99-4.15-3.92-6.63-.93-2.48-1.4-5.04-1.4-7.68,0-2.84.45-5.52,1.36-8.03.9-2.51,2.2-4.74,3.88-6.71,1.68-1.96,3.66-3.5,5.93-4.61,2.27-1.11,4.81-1.67,7.6-1.67,3.46,0,6.48.87,9.04,2.6,2.56,1.73,4.72,3.89,6.48,6.48v-8.45h4.73v40.45c0,3.71-.89,6.85-2.68,9.4-1.78,2.55-4.19,4.47-7.21,5.76-3.02,1.29-6.32,1.93-9.89,1.93-4.6,0-8.33-.83-11.17-2.48-2.84-1.66-5.17-3.88-6.98-6.67l3.26-2.56c1.6,2.53,3.73,4.42,6.4,5.66,2.66,1.24,5.49,1.86,8.49,1.86,2.64,0,5.05-.47,7.25-1.41,2.2-.94,3.96-2.35,5.27-4.22,1.32-1.88,1.98-4.24,1.98-7.09v-7.99c-1.55,2.53-3.67,4.56-6.36,6.09-2.69,1.52-5.51,2.29-8.45,2.29ZM626.72,161.4c1.6,0,3.14-.28,4.61-.85,1.47-.57,2.83-1.33,4.07-2.29,1.24-.96,2.27-2.03,3.1-3.22.83-1.19,1.34-2.4,1.55-3.64v-12.49c-.78-1.96-1.89-3.71-3.33-5.23-1.45-1.52-3.09-2.71-4.92-3.57-1.84-.85-3.74-1.28-5.7-1.28-2.28,0-4.3.48-6.09,1.44-1.78.96-3.28,2.22-4.5,3.8-1.22,1.58-2.16,3.35-2.83,5.31s-1.01,3.93-1.01,5.89c0,2.17.39,4.23,1.16,6.17.78,1.94,1.85,3.67,3.22,5.2,1.37,1.53,2.97,2.7,4.81,3.53,1.83.83,3.79,1.24,5.86,1.24Z"/>
    <path class="cls-2" d="M690.94,165.05h-5.27v-22.42c0-4.73-.7-8.18-2.09-10.36-1.4-2.18-3.59-3.28-6.59-3.28-2.07,0-4.11.5-6.13,1.5-2.02,1-3.79,2.36-5.31,4.08-1.53,1.72-2.62,3.68-3.3,5.88v24.6h-5.27v-40.25h4.81v9.17c1.08-1.95,2.51-3.66,4.26-5.13,1.76-1.46,3.75-2.61,5.97-3.43,2.22-.82,4.52-1.23,6.9-1.23,2.22,0,4.11.41,5.66,1.23,1.55.82,2.79,1.99,3.72,3.51.93,1.52,1.6,3.34,2.02,5.47.41,2.13.62,4.51.62,7.13v23.52Z"/>
    <path class="cls-2" d="M719.63,165.82c-2.9,0-5.58-.55-8.07-1.66s-4.63-2.63-6.44-4.56c-1.81-1.93-3.22-4.16-4.23-6.68-1.01-2.52-1.51-5.23-1.51-8.11,0-3.75.87-7.18,2.6-10.31,1.73-3.13,4.12-5.63,7.17-7.5,3.05-1.87,6.51-2.81,10.39-2.81s7.46.95,10.43,2.85c2.97,1.9,5.31,4.4,7.02,7.51,1.71,3.11,2.56,6.51,2.56,10.21v1.19c0,.39-.03.68-.08.89h-34.59c.26,2.88,1.07,5.44,2.44,7.68,1.37,2.24,3.15,4.01,5.35,5.32s4.59,1.97,7.17,1.97,5.13-.67,7.48-2.02c2.35-1.34,3.99-3.1,4.92-5.27l4.58,1.24c-.83,1.91-2.09,3.64-3.8,5.2-1.71,1.55-3.71,2.75-6.01,3.61-2.3.85-4.77,1.28-7.41,1.28ZM704.74,143.02h29.86c-.21-2.92-1-5.47-2.37-7.67s-3.15-3.93-5.35-5.18c-2.2-1.25-4.61-1.88-7.25-1.88s-5.04.63-7.21,1.88c-2.17,1.25-3.94,2.99-5.31,5.22-1.37,2.23-2.16,4.77-2.37,7.64Z"/>
    <path class="cls-2" d="M766.7,163.42c-.41.15-1.06.44-1.94.85-.88.41-1.94.78-3.18,1.09s-2.59.46-4.03.46-2.91-.29-4.23-.86c-1.32-.57-2.37-1.44-3.14-2.61-.78-1.17-1.16-2.61-1.16-4.32v-29.05h-5.58v-4.19h5.58v-13.65h5.27v13.65h9.31v4.19h-9.31v27.59c.1,1.45.63,2.55,1.59,3.27.96.73,2.06,1.09,3.3,1.09,1.45,0,2.77-.24,3.96-.74,1.19-.49,1.91-.84,2.17-1.05l1.4,4.27Z"/>
    <path class="cls-2" d="M773.29,116.19v-7.75h5.27v7.75h-5.27ZM773.29,165.05v-40.4h5.27v40.4h-5.27Z"/>
    <path class="cls-2" d="M807.73,165.82c-2.95,0-5.65-.55-8.1-1.66-2.46-1.11-4.6-2.64-6.44-4.59s-3.26-4.19-4.26-6.71c-1.01-2.52-1.51-5.19-1.51-8.02,0-3.8.85-7.27,2.56-10.41,1.71-3.14,4.08-5.63,7.13-7.48,3.05-1.85,6.57-2.78,10.55-2.78,3.77,0,7.11.87,10,2.6,2.89,1.73,5.04,4.07,6.44,7.02l-5.12,1.63c-1.14-2.07-2.73-3.68-4.77-4.85-2.04-1.16-4.3-1.75-6.79-1.75-2.69,0-5.15.69-7.37,2.08-2.22,1.39-3.99,3.29-5.31,5.7-1.32,2.41-1.98,5.16-1.98,8.24s.67,5.78,2.02,8.24c1.34,2.46,3.13,4.43,5.35,5.89,2.22,1.46,4.68,2.2,7.37,2.2,1.76,0,3.45-.31,5.08-.93,1.63-.62,3.05-1.46,4.26-2.52s2.03-2.21,2.44-3.45l5.2,1.55c-.72,1.91-1.93,3.63-3.61,5.16-1.68,1.53-3.65,2.71-5.89,3.57-2.25.85-4.67,1.28-7.25,1.28Z"/>
    <path class="cls-2" d="M242.07,250.63v-55.06h36.14v4.81h-30.71v20.24h25.9v4.5h-25.9v25.51h-5.43Z"/>
    <path class="cls-2" d="M286.66,201.77v-7.76h5.27v7.76h-5.27ZM286.66,250.63v-40.4h5.27v40.4h-5.27Z"/>
    <path class="cls-2" d="M321.02,251.4c-2.9,0-5.58-.55-8.07-1.66s-4.63-2.63-6.44-4.56c-1.81-1.93-3.22-4.16-4.23-6.68-1.01-2.52-1.51-5.23-1.51-8.11,0-3.75.87-7.18,2.6-10.31,1.73-3.13,4.12-5.63,7.17-7.5,3.05-1.87,6.51-2.81,10.39-2.81s7.46.95,10.43,2.85c2.97,1.9,5.31,4.4,7.02,7.51,1.71,3.11,2.56,6.51,2.56,10.21v1.19c0,.38-.03.68-.08.89h-34.59c.26,2.88,1.07,5.44,2.44,7.68,1.37,2.24,3.15,4.01,5.35,5.32,2.2,1.31,4.59,1.97,7.17,1.97s5.13-.67,7.48-2.02c2.35-1.34,3.99-3.1,4.92-5.27l4.58,1.24c-.83,1.91-2.09,3.65-3.8,5.2s-3.71,2.75-6.01,3.61c-2.3.85-4.77,1.28-7.41,1.28ZM306.13,228.6h29.86c-.21-2.92-1-5.47-2.37-7.67-1.37-2.2-3.15-3.93-5.35-5.18-2.2-1.25-4.61-1.88-7.25-1.88s-5.04.63-7.21,1.88c-2.17,1.25-3.94,2.99-5.31,5.22-1.37,2.23-2.16,4.77-2.37,7.64Z"/>
    <path class="cls-2" d="M349.32,194.02h5.27v47.74c0,2.03.36,3.36,1.09,3.98.72.62,1.6.94,2.64.94.93,0,1.86-.1,2.79-.31.93-.21,1.73-.41,2.4-.62l.93,4.26c-.98.42-2.19.75-3.61,1.01-1.42.26-2.65.39-3.68.39-2.38,0-4.28-.7-5.7-2.1-1.42-1.4-2.13-3.33-2.13-5.77v-49.51Z"/>
    <path class="cls-2" d="M367.47,230.66c0-3.8.79-7.29,2.37-10.45,1.58-3.16,3.76-5.69,6.55-7.6s5.97-2.85,9.54-2.85c3.36,0,6.37.89,9.03,2.68,2.66,1.78,4.74,3.94,6.24,6.48v-24.89h5.27v50.25c0,.72.16,1.25.47,1.59.31.34.78.53,1.4.58v4.19c-1.04.16-1.84.21-2.4.16-1.08-.05-2.04-.49-2.87-1.32-.83-.83-1.24-1.73-1.24-2.71v-3.96c-1.6,2.64-3.77,4.73-6.51,6.28-2.74,1.55-5.58,2.33-8.53,2.33-2.79,0-5.36-.57-7.72-1.7-2.35-1.13-4.4-2.67-6.13-4.63-1.73-1.95-3.08-4.18-4.03-6.67-.96-2.49-1.43-5.08-1.43-7.75ZM401.2,236.82v-12.4c-.67-1.85-1.76-3.53-3.26-5.04-1.5-1.51-3.19-2.72-5.08-3.62-1.89-.9-3.76-1.35-5.62-1.35-2.17,0-4.14.45-5.89,1.35s-3.27,2.12-4.54,3.66c-1.27,1.54-2.24,3.29-2.91,5.24-.67,1.95-1.01,3.95-1.01,6.01,0,2.16.38,4.21,1.12,6.16.75,1.95,1.82,3.68,3.22,5.2,1.4,1.51,3,2.68,4.81,3.5,1.81.82,3.77,1.23,5.89,1.23,1.34,0,2.74-.26,4.19-.77,1.45-.51,2.83-1.22,4.15-2.12,1.32-.9,2.42-1.96,3.3-3.2.88-1.23,1.42-2.51,1.63-3.85Z"/>
    <path class="cls-2" d="M435.33,250.63c0-2.35.18-4.47.54-6.36.36-1.88.99-3.64,1.9-5.26.9-1.62,2.14-3.15,3.72-4.59,1.58-1.44,3.58-2.84,6.01-4.2,2.12-1.15,3.98-2.16,5.58-3.02,1.6-.86,2.96-1.66,4.07-2.39,1.11-.73,1.95-1.48,2.52-2.24.57-.76.85-1.63.85-2.63,0-1.07-.29-2.04-.85-2.92-.57-.88-1.37-1.59-2.4-2.12-1.04-.53-2.33-.8-3.88-.8-1.24,0-2.39.16-3.45.47-1.06.31-2.04.75-2.95,1.32-.91.57-1.74,1.2-2.52,1.9-.78.7-1.47,1.44-2.09,2.21l-6.59-7.6c.72-.72,1.69-1.51,2.91-2.37,1.21-.85,2.66-1.65,4.34-2.4,1.68-.75,3.54-1.37,5.58-1.86,2.04-.49,4.23-.74,6.55-.74,3.52,0,6.51.56,9,1.69,2.48,1.12,4.38,2.68,5.7,4.67,1.32,1.99,1.98,4.32,1.98,6.98,0,1.84-.34,3.47-1.01,4.89-.67,1.42-1.53,2.67-2.56,3.75-1.04,1.08-2.16,2.04-3.37,2.88-1.22.84-2.39,1.58-3.53,2.21-1.6.84-3.05,1.62-4.34,2.33-1.29.71-2.43,1.42-3.41,2.13-.98.71-1.85,1.43-2.6,2.17-.75.74-1.41,1.58-1.98,2.52h23.65v9.38h-37.38Z"/>
    <path class="cls-2" d="M519.93,228.25c0,4.48-.87,8.47-2.6,11.96-1.73,3.49-4.11,6.23-7.13,8.21-3.02,1.99-6.45,2.98-10.28,2.98s-7.25-.99-10.28-2.98c-3.03-1.99-5.4-4.72-7.13-8.21-1.73-3.49-2.6-7.47-2.6-11.96s.87-8.47,2.6-11.96c1.73-3.49,4.11-6.24,7.13-8.25,3.02-2.01,6.45-3.02,10.28-3.02s7.25,1.01,10.28,3.02,5.4,4.76,7.13,8.25c1.73,3.49,2.6,7.47,2.6,11.96ZM509.46,228.25c0-2.72-.4-5.1-1.2-7.15-.8-2.04-1.93-3.64-3.37-4.8-1.45-1.16-3.1-1.74-4.96-1.74s-3.59.58-5.04,1.74c-1.45,1.16-2.57,2.76-3.37,4.8-.8,2.04-1.2,4.42-1.2,7.15s.4,5.09,1.2,7.11c.8,2.02,1.93,3.6,3.37,4.76,1.45,1.16,3.13,1.74,5.04,1.74s3.5-.58,4.92-1.74c1.42-1.16,2.55-2.76,3.37-4.8.83-2.04,1.24-4.4,1.24-7.07Z"/>
    <path class="cls-2" d="M526.68,250.63c0-2.35.18-4.47.54-6.36.36-1.88.99-3.64,1.9-5.26.9-1.62,2.14-3.15,3.72-4.59,1.58-1.44,3.58-2.84,6.01-4.2,2.12-1.15,3.98-2.16,5.58-3.02,1.6-.86,2.96-1.66,4.07-2.39,1.11-.73,1.95-1.48,2.52-2.24.57-.76.85-1.63.85-2.63,0-1.07-.29-2.04-.85-2.92-.57-.88-1.37-1.59-2.4-2.12-1.04-.53-2.33-.8-3.88-.8-1.24,0-2.39.16-3.45.47-1.06.31-2.04.75-2.95,1.32-.91.57-1.74,1.2-2.52,1.9-.78.7-1.47,1.44-2.09,2.21l-6.59-7.6c.72-.72,1.69-1.51,2.91-2.37,1.21-.85,2.66-1.65,4.34-2.4,1.68-.75,3.54-1.37,5.58-1.86,2.04-.49,4.23-.74,6.55-.74,3.52,0,6.51.56,9,1.69,2.48,1.12,4.38,2.68,5.7,4.67,1.32,1.99,1.98,4.32,1.98,6.98,0,1.84-.34,3.47-1.01,4.89-.67,1.42-1.53,2.67-2.56,3.75-1.04,1.08-2.16,2.04-3.37,2.88-1.22.84-2.39,1.58-3.53,2.21-1.6.84-3.05,1.62-4.34,2.33-1.29.71-2.43,1.42-3.41,2.13-.98.71-1.85,1.43-2.6,2.17-.75.74-1.41,1.58-1.98,2.52h23.65v9.38h-37.38Z"/>
    <path class="cls-2" d="M608.77,241.94c-1.78,2.9-4.19,5.2-7.21,6.9s-6.45,2.56-10.28,2.56c-4.14,0-7.72-1.01-10.74-3.02s-5.36-4.91-7.02-8.69c-1.66-3.77-2.48-8.3-2.48-13.57,0-6.67.87-12.32,2.6-16.94,1.73-4.63,4.2-8.12,7.41-10.47,3.21-2.35,6.98-3.53,11.32-3.53,3.46,0,6.66.75,9.58,2.25,2.92,1.5,5.39,3.64,7.41,6.44l-5.97,6.51c-1.24-1.91-2.84-3.42-4.81-4.54-1.97-1.11-4.08-1.67-6.36-1.67s-4.34.62-6.05,1.86c-1.71,1.24-3.02,3.04-3.96,5.39s-1.45,5.18-1.55,8.49c.72-1.24,1.65-2.31,2.79-3.22,1.14-.9,2.46-1.6,3.96-2.09,1.5-.49,3.1-.74,4.81-.74,3.67,0,6.95.81,9.85,2.44,2.89,1.63,5.18,3.83,6.86,6.59,1.68,2.77,2.52,5.88,2.52,9.34s-.89,6.8-2.68,9.69ZM596.4,241.21c1.55-.96,2.79-2.22,3.72-3.8.93-1.58,1.4-3.3,1.4-5.16s-.46-3.55-1.4-5.08c-.93-1.52-2.16-2.74-3.68-3.64-1.53-.9-3.22-1.36-5.08-1.36s-3.57.45-5.12,1.36c-1.55.91-2.78,2.12-3.68,3.64-.91,1.53-1.36,3.22-1.36,5.08s.47,3.58,1.4,5.16c.93,1.58,2.17,2.84,3.72,3.8,1.55.96,3.21,1.43,4.96,1.43,1.86,0,3.57-.48,5.12-1.43Z"/>
  </g>
</svg>